G04*
G04 #@! TF.GenerationSoftware,Altium Limited,Altium Designer,24.5.2 (23)*
G04*
G04 Layer_Physical_Order=2*
G04 Layer_Color=36540*
%FSLAX44Y44*%
%MOMM*%
G71*
G04*
G04 #@! TF.SameCoordinates,18AD1EF8-D4E3-4D70-9127-A8B2740D653E*
G04*
G04*
G04 #@! TF.FilePolarity,Positive*
G04*
G01*
G75*
%ADD91C,3.0000*%
%ADD92C,1.5700*%
%ADD93R,1.5700X1.5700*%
%ADD110C,0.5000*%
%ADD115O,3.0000X1.2000*%
%ADD116O,1.2000X3.0000*%
G04:AMPARAMS|DCode=117|XSize=1.2mm|YSize=3.2mm|CornerRadius=0mm|HoleSize=0mm|Usage=FLASHONLY|Rotation=90.000|XOffset=0mm|YOffset=0mm|HoleType=Round|Shape=Octagon|*
%AMOCTAGOND117*
4,1,8,-1.6000,-0.3000,-1.6000,0.3000,-1.3000,0.6000,1.3000,0.6000,1.6000,0.3000,1.6000,-0.3000,1.3000,-0.6000,-1.3000,-0.6000,-1.6000,-0.3000,0.0*
%
%ADD117OCTAGOND117*%

%ADD118C,2.5000*%
%ADD119C,1.5240*%
%ADD120R,1.5240X1.5240*%
%ADD121C,1.2192*%
%ADD122R,4.0000X1.5000*%
%ADD123R,3.5000X1.5000*%
%ADD124R,1.5000X3.5000*%
%ADD125O,2.1000X1.0500*%
%ADD126O,1.8000X0.9000*%
%ADD127C,0.6500*%
%ADD128R,1.5000X4.0000*%
G36*
X1180000Y540000D02*
X1683831D01*
X1685242Y537888D01*
X1687888Y535242D01*
X1691000Y533162D01*
X1694458Y531730D01*
X1698129Y531000D01*
X1701871D01*
X1705542Y531730D01*
X1709000Y533162D01*
X1712112Y535242D01*
X1714758Y537888D01*
X1716169Y540000D01*
X1739752D01*
Y490515D01*
X1733000D01*
X1731162Y490273D01*
X1729450Y489564D01*
X1727979Y488435D01*
X1726851Y486965D01*
X1726623Y486414D01*
X1737500D01*
Y480414D01*
X1726623D01*
X1726851Y479864D01*
X1727979Y478393D01*
X1729450Y477265D01*
X1731162Y476556D01*
X1733000Y476314D01*
X1739752D01*
Y404115D01*
X1733000D01*
X1731162Y403873D01*
X1729450Y403164D01*
X1727979Y402035D01*
X1726851Y400565D01*
X1726623Y400014D01*
X1737500D01*
Y394014D01*
X1726623D01*
X1726851Y393464D01*
X1727979Y391993D01*
X1729450Y390865D01*
X1731162Y390156D01*
X1733000Y389914D01*
X1739752D01*
X1739753Y30000D01*
X1739752Y28705D01*
X1739415Y26138D01*
X1738744Y23637D01*
X1737753Y21245D01*
X1736459Y19002D01*
X1734883Y16948D01*
X1733052Y15117D01*
X1730997Y13541D01*
X1728755Y12247D01*
X1726363Y11256D01*
X1723862Y10586D01*
X1721295Y10248D01*
X28705D01*
X26138Y10586D01*
X23637Y11256D01*
X21245Y12247D01*
X19003Y13541D01*
X16948Y15117D01*
X15117Y16948D01*
X13541Y19003D01*
X12247Y21245D01*
X11256Y23637D01*
X10586Y26138D01*
X10248Y28705D01*
Y30000D01*
Y107254D01*
X11518Y107925D01*
X13748Y106435D01*
X16841Y105153D01*
X20126Y104500D01*
X23474D01*
X26759Y105153D01*
X29852Y106435D01*
X32637Y108295D01*
X35005Y110663D01*
X36865Y113448D01*
X38147Y116541D01*
X38800Y119826D01*
Y123174D01*
X38147Y126459D01*
X36865Y129552D01*
X35005Y132337D01*
X32637Y134705D01*
X29852Y136565D01*
X26759Y137847D01*
X23474Y138500D01*
X20126D01*
X16841Y137847D01*
X13748Y136565D01*
X11518Y135075D01*
X10248Y135746D01*
Y184254D01*
X11518Y184925D01*
X13748Y183435D01*
X16841Y182153D01*
X20126Y181500D01*
X23474D01*
X26759Y182153D01*
X29852Y183435D01*
X32637Y185295D01*
X35005Y187663D01*
X36865Y190448D01*
X38147Y193541D01*
X38800Y196826D01*
Y200174D01*
X38147Y203459D01*
X36865Y206553D01*
X35005Y209337D01*
X32637Y211705D01*
X29852Y213565D01*
X26759Y214847D01*
X23474Y215500D01*
X20126D01*
X16841Y214847D01*
X13748Y213565D01*
X11518Y212075D01*
X10248Y212746D01*
Y570000D01*
Y571295D01*
X10586Y573862D01*
X11256Y576363D01*
X12247Y578755D01*
X13541Y580997D01*
X15117Y583051D01*
X16948Y584883D01*
X19003Y586459D01*
X21245Y587753D01*
X23637Y588744D01*
X26138Y589414D01*
X28705Y589752D01*
X1180000D01*
Y540000D01*
D02*
G37*
%LPC*%
G36*
X377900Y581855D02*
Y575140D01*
X384615D01*
X384368Y576062D01*
X383030Y578378D01*
X381138Y580270D01*
X378822Y581608D01*
X377900Y581855D01*
D02*
G37*
G36*
X371900D02*
X370978Y581608D01*
X368662Y580270D01*
X366770Y578378D01*
X365432Y576062D01*
X365185Y575140D01*
X371900D01*
Y581855D01*
D02*
G37*
G36*
X426967Y581760D02*
X424434D01*
X421987Y581104D01*
X419793Y579838D01*
X418002Y578047D01*
X416736Y575853D01*
X416080Y573406D01*
Y570873D01*
X416736Y568427D01*
X418002Y566233D01*
X419793Y564442D01*
X421987Y563176D01*
X424434Y562520D01*
X426967D01*
X429413Y563176D01*
X431607Y564442D01*
X433398Y566233D01*
X434664Y568427D01*
X435320Y570873D01*
Y573406D01*
X434664Y575853D01*
X433398Y578047D01*
X431607Y579838D01*
X429413Y581104D01*
X426967Y581760D01*
D02*
G37*
G36*
X401567D02*
X399034D01*
X396587Y581104D01*
X394393Y579838D01*
X392602Y578047D01*
X391336Y575853D01*
X390680Y573406D01*
Y570873D01*
X391336Y568427D01*
X392602Y566233D01*
X394393Y564442D01*
X396587Y563176D01*
X399034Y562520D01*
X401567D01*
X404013Y563176D01*
X406207Y564442D01*
X407998Y566233D01*
X409264Y568427D01*
X409920Y570873D01*
Y573406D01*
X409264Y575853D01*
X407998Y578047D01*
X406207Y579838D01*
X404013Y581104D01*
X401567Y581760D01*
D02*
G37*
G36*
X359120D02*
X339880D01*
Y562520D01*
X359120D01*
Y581760D01*
D02*
G37*
G36*
X384615Y569140D02*
X377900D01*
Y562425D01*
X378822Y562672D01*
X381138Y564010D01*
X383030Y565902D01*
X384368Y568218D01*
X384615Y569140D01*
D02*
G37*
G36*
X371900D02*
X365186D01*
X365432Y568218D01*
X366770Y565902D01*
X368662Y564010D01*
X370978Y562672D01*
X371900Y562425D01*
Y569140D01*
D02*
G37*
G36*
X860856Y546500D02*
X859144D01*
X857491Y546057D01*
X856009Y545201D01*
X855000Y544192D01*
X853991Y545201D01*
X852509Y546057D01*
X850856Y546500D01*
X849144D01*
X847491Y546057D01*
X846009Y545201D01*
X845000Y544192D01*
X843991Y545201D01*
X842509Y546057D01*
X840856Y546500D01*
X839144D01*
X837491Y546057D01*
X836009Y545201D01*
X835000Y544192D01*
X833991Y545201D01*
X832509Y546057D01*
X830856Y546500D01*
X829144D01*
X827491Y546057D01*
X826009Y545201D01*
X825000Y544192D01*
X823991Y545201D01*
X822509Y546057D01*
X820856Y546500D01*
X819144D01*
X817491Y546057D01*
X816009Y545201D01*
X815000Y544192D01*
X813991Y545201D01*
X812509Y546057D01*
X810856Y546500D01*
X809144D01*
X807491Y546057D01*
X806009Y545201D01*
X805000Y544192D01*
X803991Y545201D01*
X802509Y546057D01*
X800856Y546500D01*
X799144D01*
X797491Y546057D01*
X796009Y545201D01*
X794799Y543991D01*
X793943Y542509D01*
X793500Y540856D01*
Y539144D01*
X793943Y537491D01*
X794799Y536009D01*
X795808Y535000D01*
X794799Y533991D01*
X793943Y532509D01*
X793500Y530856D01*
Y529144D01*
X793943Y527491D01*
X794799Y526009D01*
X796009Y524799D01*
X797491Y523943D01*
X799144Y523500D01*
X800856D01*
X802509Y523943D01*
X803991Y524799D01*
X805000Y525808D01*
X806009Y524799D01*
X807491Y523943D01*
X809144Y523500D01*
X810856D01*
X812509Y523943D01*
X813991Y524799D01*
X815000Y525808D01*
X816009Y524799D01*
X817491Y523943D01*
X819144Y523500D01*
X820856D01*
X822509Y523943D01*
X823991Y524799D01*
X825000Y525808D01*
X826009Y524799D01*
X827491Y523943D01*
X829144Y523500D01*
X830856D01*
X832509Y523943D01*
X833991Y524799D01*
X835000Y525808D01*
X836009Y524799D01*
X837491Y523943D01*
X839144Y523500D01*
X840856D01*
X842509Y523943D01*
X843991Y524799D01*
X845000Y525808D01*
X846009Y524799D01*
X847491Y523943D01*
X849144Y523500D01*
X850856D01*
X852509Y523943D01*
X853991Y524799D01*
X855000Y525808D01*
X856009Y524799D01*
X857491Y523943D01*
X859144Y523500D01*
X860856D01*
X862509Y523943D01*
X863991Y524799D01*
X865201Y526009D01*
X866057Y527491D01*
X866500Y529144D01*
Y530856D01*
X866057Y532509D01*
X865201Y533991D01*
X864192Y535000D01*
X865201Y536009D01*
X866057Y537491D01*
X866500Y539144D01*
Y540856D01*
X866057Y542509D01*
X865201Y543991D01*
X863991Y545201D01*
X862509Y546057D01*
X860856Y546500D01*
D02*
G37*
G36*
X541698Y574140D02*
X538302D01*
X534971Y573478D01*
X531834Y572178D01*
X529010Y570291D01*
X526609Y567890D01*
X524722Y565066D01*
X523423Y561929D01*
X522760Y558598D01*
Y555202D01*
X523423Y551871D01*
X524722Y548734D01*
X526609Y545910D01*
X529010Y543509D01*
X531834Y541622D01*
X534971Y540322D01*
X538302Y539660D01*
X541698D01*
X545029Y540322D01*
X548166Y541622D01*
X550990Y543509D01*
X553391Y545910D01*
X555278Y548734D01*
X556577Y551871D01*
X557240Y555202D01*
Y558598D01*
X556577Y561929D01*
X555278Y565066D01*
X553391Y567890D01*
X550990Y570291D01*
X548166Y572178D01*
X545029Y573478D01*
X541698Y574140D01*
D02*
G37*
G36*
X236898D02*
X233502D01*
X230171Y573478D01*
X227034Y572178D01*
X224210Y570291D01*
X221809Y567890D01*
X219922Y565066D01*
X218622Y561929D01*
X217960Y558598D01*
Y555202D01*
X218622Y551871D01*
X219922Y548734D01*
X221809Y545910D01*
X224210Y543509D01*
X227034Y541622D01*
X230171Y540322D01*
X233502Y539660D01*
X236898D01*
X240229Y540322D01*
X243366Y541622D01*
X246190Y543509D01*
X248591Y545910D01*
X250478Y548734D01*
X251777Y551871D01*
X252440Y555202D01*
Y558598D01*
X251777Y561929D01*
X250478Y565066D01*
X248591Y567890D01*
X246190Y570291D01*
X243366Y572178D01*
X240229Y573478D01*
X236898Y574140D01*
D02*
G37*
G36*
X1101871Y569000D02*
X1098129D01*
X1094458Y568270D01*
X1091000Y566838D01*
X1087888Y564758D01*
X1085242Y562112D01*
X1083163Y559000D01*
X1081730Y555542D01*
X1081000Y551871D01*
Y548129D01*
X1081730Y544458D01*
X1083163Y541000D01*
X1085242Y537888D01*
X1087888Y535242D01*
X1091000Y533162D01*
X1094458Y531730D01*
X1098129Y531000D01*
X1101871D01*
X1105542Y531730D01*
X1109000Y533162D01*
X1112112Y535242D01*
X1114758Y537888D01*
X1116838Y541000D01*
X1118270Y544458D01*
X1119000Y548129D01*
Y551871D01*
X1118270Y555542D01*
X1116838Y559000D01*
X1114758Y562112D01*
X1112112Y564758D01*
X1109000Y566838D01*
X1105542Y568270D01*
X1101871Y569000D01*
D02*
G37*
G36*
X1290856Y526500D02*
X1289144D01*
X1287491Y526057D01*
X1286009Y525201D01*
X1285000Y524192D01*
X1283991Y525201D01*
X1282509Y526057D01*
X1280856Y526500D01*
X1279144D01*
X1277491Y526057D01*
X1276009Y525201D01*
X1275000Y524192D01*
X1273991Y525201D01*
X1272509Y526057D01*
X1270856Y526500D01*
X1269144D01*
X1267491Y526057D01*
X1266009Y525201D01*
X1265000Y524192D01*
X1263991Y525201D01*
X1262509Y526057D01*
X1260856Y526500D01*
X1259144D01*
X1257491Y526057D01*
X1256009Y525201D01*
X1254799Y523991D01*
X1253943Y522509D01*
X1253500Y520856D01*
Y519144D01*
X1253943Y517491D01*
X1254799Y516009D01*
X1256009Y514799D01*
X1257491Y513943D01*
X1259144Y513500D01*
X1260856D01*
X1262509Y513943D01*
X1263991Y514799D01*
X1265000Y515808D01*
X1266009Y514799D01*
X1267491Y513943D01*
X1269144Y513500D01*
X1270856D01*
X1272509Y513943D01*
X1273991Y514799D01*
X1275000Y515808D01*
X1276009Y514799D01*
X1277491Y513943D01*
X1279144Y513500D01*
X1280856D01*
X1282509Y513943D01*
X1283991Y514799D01*
X1285000Y515808D01*
X1286009Y514799D01*
X1287491Y513943D01*
X1289144Y513500D01*
X1290856D01*
X1292333Y513896D01*
X1292521Y513936D01*
X1293754Y513195D01*
X1293943Y512491D01*
X1294799Y511009D01*
X1296009Y509799D01*
X1297491Y508943D01*
X1299144Y508500D01*
X1300856D01*
X1302509Y508943D01*
X1303875Y509732D01*
X1305241Y508943D01*
X1306894Y508500D01*
X1308606D01*
X1310259Y508943D01*
X1311741Y509799D01*
X1312625Y510683D01*
X1313509Y509799D01*
X1314991Y508943D01*
X1316644Y508500D01*
X1318356D01*
X1320009Y508943D01*
X1321491Y509799D01*
X1322701Y511009D01*
X1323557Y512491D01*
X1324000Y514144D01*
Y515856D01*
X1323557Y517509D01*
X1322701Y518991D01*
X1321491Y520201D01*
X1320009Y521057D01*
X1318356Y521500D01*
X1316644D01*
X1314991Y521057D01*
X1313509Y520201D01*
X1312625Y519317D01*
X1311741Y520201D01*
X1310259Y521057D01*
X1308606Y521500D01*
X1306894D01*
X1305241Y521057D01*
X1303875Y520268D01*
X1302509Y521057D01*
X1300856Y521500D01*
X1299144D01*
X1297667Y521104D01*
X1297479Y521064D01*
X1296246Y521805D01*
X1296057Y522509D01*
X1295201Y523991D01*
X1293991Y525201D01*
X1292509Y526057D01*
X1290856Y526500D01*
D02*
G37*
G36*
X60040Y540040D02*
X53000D01*
Y523000D01*
X60040D01*
Y540040D01*
D02*
G37*
G36*
X47000D02*
X39960D01*
Y523000D01*
X47000D01*
Y540040D01*
D02*
G37*
G36*
X1150856Y526500D02*
X1149144D01*
X1147491Y526057D01*
X1146009Y525201D01*
X1144799Y523991D01*
X1143943Y522509D01*
X1143500Y520856D01*
Y519144D01*
X1143943Y517491D01*
X1144799Y516009D01*
X1146009Y514799D01*
X1147491Y513943D01*
X1149144Y513500D01*
X1150856D01*
X1152509Y513943D01*
X1153991Y514799D01*
X1155201Y516009D01*
X1156057Y517491D01*
X1156500Y519144D01*
Y520856D01*
X1156057Y522509D01*
X1155201Y523991D01*
X1153991Y525201D01*
X1152509Y526057D01*
X1150856Y526500D01*
D02*
G37*
G36*
X169371Y539000D02*
X165629D01*
X161958Y538270D01*
X158500Y536838D01*
X155388Y534758D01*
X152742Y532112D01*
X150662Y529000D01*
X149230Y525542D01*
X148500Y521871D01*
Y518129D01*
X149230Y514458D01*
X150662Y511000D01*
X152742Y507888D01*
X155388Y505242D01*
X158500Y503162D01*
X161958Y501730D01*
X165629Y501000D01*
X169371D01*
X173042Y501730D01*
X176500Y503162D01*
X179612Y505242D01*
X182258Y507888D01*
X184338Y511000D01*
X185770Y514458D01*
X186500Y518129D01*
Y521871D01*
X185770Y525542D01*
X184338Y529000D01*
X182258Y532112D01*
X179612Y534758D01*
X176500Y536838D01*
X173042Y538270D01*
X169371Y539000D01*
D02*
G37*
G36*
X60040Y517000D02*
X53000D01*
Y499960D01*
X60040D01*
Y517000D01*
D02*
G37*
G36*
X47000D02*
X39960D01*
Y499960D01*
X47000D01*
Y517000D01*
D02*
G37*
G36*
X370856Y509090D02*
X369144D01*
X367491Y508647D01*
X366009Y507791D01*
X364799Y506581D01*
X363943Y505099D01*
X363500Y503446D01*
Y501734D01*
X363943Y500081D01*
X364799Y498599D01*
X366009Y497388D01*
X367491Y496533D01*
X369144Y496090D01*
X370856D01*
X372509Y496533D01*
X373991Y497388D01*
X375201Y498599D01*
X376057Y500081D01*
X376500Y501734D01*
Y503446D01*
X376057Y505099D01*
X375201Y506581D01*
X373991Y507791D01*
X372509Y508647D01*
X370856Y509090D01*
D02*
G37*
G36*
X122500Y545000D02*
X97500D01*
Y495000D01*
X122500D01*
Y545000D01*
D02*
G37*
G36*
X1223466Y508096D02*
X1221334D01*
X1219275Y507544D01*
X1217429Y506478D01*
X1215922Y504971D01*
X1214856Y503125D01*
X1214304Y501066D01*
Y498934D01*
X1214856Y496875D01*
X1215922Y495029D01*
X1217429Y493522D01*
X1219275Y492456D01*
X1221334Y491904D01*
X1223466D01*
X1225525Y492456D01*
X1227371Y493522D01*
X1228878Y495029D01*
X1229944Y496875D01*
X1230496Y498934D01*
Y501066D01*
X1229944Y503125D01*
X1228878Y504971D01*
X1227371Y506478D01*
X1225525Y507544D01*
X1223466Y508096D01*
D02*
G37*
G36*
X1198066D02*
X1195934D01*
X1193875Y507544D01*
X1192029Y506478D01*
X1190522Y504971D01*
X1189456Y503125D01*
X1188904Y501066D01*
Y498934D01*
X1189456Y496875D01*
X1190522Y495029D01*
X1192029Y493522D01*
X1193875Y492456D01*
X1195934Y491904D01*
X1198066D01*
X1200125Y492456D01*
X1201971Y493522D01*
X1203478Y495029D01*
X1204544Y496875D01*
X1205096Y498934D01*
Y501066D01*
X1204544Y503125D01*
X1203478Y504971D01*
X1201971Y506478D01*
X1200125Y507544D01*
X1198066Y508096D01*
D02*
G37*
G36*
X328356Y501500D02*
X326644D01*
X324991Y501057D01*
X323509Y500201D01*
X322299Y498991D01*
X321443Y497509D01*
X321000Y495856D01*
Y494144D01*
X321443Y492491D01*
X322299Y491009D01*
X323509Y489799D01*
X324991Y488943D01*
X326644Y488500D01*
X328356D01*
X330009Y488943D01*
X331491Y489799D01*
X332701Y491009D01*
X333557Y492491D01*
X334000Y494144D01*
Y495856D01*
X333557Y497509D01*
X332701Y498991D01*
X331491Y500201D01*
X330009Y501057D01*
X328356Y501500D01*
D02*
G37*
G36*
X1700950Y491272D02*
X1698700D01*
Y486414D01*
X1708139D01*
X1707755Y487343D01*
X1706506Y488970D01*
X1704879Y490219D01*
X1702984Y491004D01*
X1700950Y491272D01*
D02*
G37*
G36*
X1692700D02*
X1690450D01*
X1688416Y491004D01*
X1686521Y490219D01*
X1684894Y488970D01*
X1683645Y487343D01*
X1683261Y486414D01*
X1692700D01*
Y491272D01*
D02*
G37*
G36*
X883356Y511500D02*
X881644D01*
X879991Y511057D01*
X878509Y510201D01*
X877299Y508991D01*
X876443Y507509D01*
X876000Y505856D01*
Y504144D01*
X876443Y502491D01*
X877299Y501009D01*
X878509Y499799D01*
X879991Y498943D01*
X881644Y498500D01*
X883356D01*
X885009Y498943D01*
X885212Y499061D01*
X886245Y498633D01*
X886468Y498319D01*
X887299Y496879D01*
X888509Y495669D01*
X889991Y494813D01*
X891644Y494370D01*
X893356D01*
X895009Y494813D01*
X896491Y495669D01*
X897701Y496879D01*
X897793Y497038D01*
X898988Y496590D01*
Y494879D01*
X899431Y493226D01*
X900287Y491743D01*
X901497Y490533D01*
X902979Y489677D01*
X904632Y489234D01*
X906344D01*
X907539Y489555D01*
X908943Y489221D01*
X909799Y487739D01*
X911009Y486529D01*
X912491Y485673D01*
X914144Y485230D01*
X915856D01*
X917509Y485673D01*
X918991Y486529D01*
X920201Y487739D01*
X921057Y489221D01*
X921500Y490874D01*
Y492586D01*
X921057Y494239D01*
X920201Y495721D01*
X918991Y496931D01*
X917509Y497787D01*
X915856Y498230D01*
X914144D01*
X912949Y497910D01*
X911545Y498243D01*
X910689Y499725D01*
X909479Y500936D01*
X907997Y501791D01*
X906344Y502234D01*
X904632D01*
X902979Y501791D01*
X901497Y500936D01*
X900287Y499725D01*
X900195Y499566D01*
X899000Y500014D01*
Y501726D01*
X898557Y503379D01*
X897701Y504861D01*
X896491Y506071D01*
X895009Y506927D01*
X893356Y507370D01*
X891644D01*
X889991Y506927D01*
X889788Y506810D01*
X888755Y507237D01*
X888532Y507551D01*
X887701Y508991D01*
X886491Y510201D01*
X885009Y511057D01*
X883356Y511500D01*
D02*
G37*
G36*
X100040Y483040D02*
X83000D01*
Y476000D01*
X100040D01*
Y483040D01*
D02*
G37*
G36*
X77000D02*
X59960D01*
Y476000D01*
X77000D01*
Y483040D01*
D02*
G37*
G36*
X1692700Y480414D02*
X1683261D01*
X1683645Y479486D01*
X1684894Y477859D01*
X1686521Y476610D01*
X1688416Y475825D01*
X1690450Y475557D01*
X1692700D01*
Y480414D01*
D02*
G37*
G36*
X1163356Y486500D02*
X1161644D01*
X1159991Y486057D01*
X1158509Y485201D01*
X1157299Y483991D01*
X1156443Y482509D01*
X1156000Y480856D01*
Y479144D01*
X1156443Y477491D01*
X1157299Y476009D01*
X1158509Y474799D01*
X1159991Y473943D01*
X1161644Y473500D01*
X1163356D01*
X1165009Y473943D01*
X1166491Y474799D01*
X1167701Y476009D01*
X1168557Y477491D01*
X1169000Y479144D01*
Y480856D01*
X1168557Y482509D01*
X1167701Y483991D01*
X1166491Y485201D01*
X1165009Y486057D01*
X1163356Y486500D01*
D02*
G37*
G36*
X1083356Y481500D02*
X1081644D01*
X1079991Y481057D01*
X1078509Y480201D01*
X1077299Y478991D01*
X1076443Y477509D01*
X1076000Y475856D01*
Y474144D01*
X1076443Y472491D01*
X1077299Y471009D01*
X1078509Y469799D01*
X1079991Y468943D01*
X1081644Y468500D01*
X1083356D01*
X1085009Y468943D01*
X1085438Y469191D01*
X1087162Y468746D01*
X1087299Y468509D01*
X1088509Y467299D01*
X1089991Y466443D01*
X1091644Y466000D01*
X1093356D01*
X1095009Y466443D01*
X1096491Y467299D01*
X1097701Y468509D01*
X1098557Y469991D01*
X1099000Y471644D01*
Y473356D01*
X1098557Y475009D01*
X1097701Y476491D01*
X1096491Y477701D01*
X1095009Y478557D01*
X1093356Y479000D01*
X1091644D01*
X1089991Y478557D01*
X1089561Y478309D01*
X1087838Y478754D01*
X1087701Y478991D01*
X1086491Y480201D01*
X1085009Y481057D01*
X1083356Y481500D01*
D02*
G37*
G36*
X1708139Y480414D02*
X1698700D01*
Y475557D01*
X1699469D01*
X1699656Y474364D01*
X1697726Y473565D01*
X1696249Y472088D01*
X1695450Y470159D01*
Y468070D01*
X1696249Y466141D01*
X1697726Y464664D01*
X1699656Y463864D01*
X1701744D01*
X1703674Y464664D01*
X1705151Y466141D01*
X1705950Y468070D01*
Y470159D01*
X1705151Y472088D01*
X1703674Y473565D01*
X1701744Y474364D01*
X1701620D01*
X1701537Y475634D01*
X1702984Y475825D01*
X1704879Y476610D01*
X1706506Y477859D01*
X1707755Y479486D01*
X1708139Y480414D01*
D02*
G37*
G36*
X100040Y470000D02*
X83000D01*
Y462960D01*
X100040D01*
Y470000D01*
D02*
G37*
G36*
X77000D02*
X59960D01*
Y462960D01*
X77000D01*
Y470000D01*
D02*
G37*
G36*
X615856Y474000D02*
X614144D01*
X612491Y473557D01*
X611009Y472701D01*
X609799Y471491D01*
X608943Y470009D01*
X608500Y468356D01*
Y466644D01*
X608943Y464991D01*
X609799Y463509D01*
X611009Y462299D01*
X612491Y461443D01*
X614144Y461000D01*
X615856D01*
X617509Y461443D01*
X618991Y462299D01*
X620201Y463509D01*
X621057Y464991D01*
X621500Y466644D01*
Y468356D01*
X621057Y470009D01*
X620201Y471491D01*
X618991Y472701D01*
X617509Y473557D01*
X615856Y474000D01*
D02*
G37*
G36*
X1633356Y471500D02*
X1631644D01*
X1629991Y471057D01*
X1628509Y470201D01*
X1627299Y468991D01*
X1626443Y467509D01*
X1626000Y465856D01*
Y464144D01*
X1626443Y462491D01*
X1627299Y461009D01*
X1628509Y459799D01*
X1629991Y458943D01*
X1631644Y458500D01*
X1633356D01*
X1635009Y458943D01*
X1636491Y459799D01*
X1637701Y461009D01*
X1638557Y462491D01*
X1639000Y464144D01*
Y465856D01*
X1638557Y467509D01*
X1637701Y468991D01*
X1636491Y470201D01*
X1635009Y471057D01*
X1633356Y471500D01*
D02*
G37*
G36*
X1093356Y459000D02*
X1091644D01*
X1089991Y458557D01*
X1088509Y457701D01*
X1087299Y456491D01*
X1086996Y455967D01*
X1085480Y455376D01*
X1083826Y455819D01*
X1082115D01*
X1080462Y455376D01*
X1078980Y454520D01*
X1077769Y453310D01*
X1076914Y451828D01*
X1076471Y450175D01*
Y448463D01*
X1076914Y446810D01*
X1077769Y445328D01*
X1078980Y444118D01*
X1080462Y443262D01*
X1082115Y442819D01*
X1083826D01*
X1085480Y443262D01*
X1086962Y444118D01*
X1088172Y445328D01*
X1088475Y445852D01*
X1089991Y446443D01*
X1091644Y446000D01*
X1093356D01*
X1095009Y446443D01*
X1096491Y447299D01*
X1097701Y448509D01*
X1098557Y449991D01*
X1099000Y451644D01*
Y453356D01*
X1098557Y455009D01*
X1097701Y456491D01*
X1096491Y457701D01*
X1095009Y458557D01*
X1093356Y459000D01*
D02*
G37*
G36*
X1173356Y454555D02*
X1171644D01*
X1169991Y454112D01*
X1168509Y453256D01*
X1167299Y452046D01*
X1166443Y450564D01*
X1166000Y448911D01*
Y447199D01*
X1166443Y445546D01*
X1167299Y444064D01*
X1168509Y442854D01*
X1169991Y441998D01*
X1171644Y441555D01*
X1173356D01*
X1175009Y441998D01*
X1176491Y442854D01*
X1177701Y444064D01*
X1178557Y445546D01*
X1179000Y447199D01*
Y448911D01*
X1178557Y450564D01*
X1177701Y452046D01*
X1176491Y453256D01*
X1175009Y454112D01*
X1173356Y454555D01*
D02*
G37*
G36*
X144000Y451069D02*
X126000D01*
X123912Y450794D01*
X121966Y449988D01*
X120294Y448706D01*
X119012Y447034D01*
X118206Y445088D01*
X117931Y443000D01*
X118206Y440912D01*
X119012Y438965D01*
X119253Y438652D01*
X118617Y437394D01*
X117105Y436989D01*
X115395Y436002D01*
X115000Y435607D01*
X114605Y436002D01*
X112895Y436989D01*
X110987Y437500D01*
X109013D01*
X107105Y436989D01*
X105395Y436002D01*
X105000Y435607D01*
X104605Y436002D01*
X102895Y436989D01*
X100987Y437500D01*
X99013D01*
X97105Y436989D01*
X95395Y436002D01*
X95000Y435607D01*
X94605Y436002D01*
X92895Y436989D01*
X90987Y437500D01*
X89013D01*
X87105Y436989D01*
X85395Y436002D01*
X85000Y435607D01*
X84605Y436002D01*
X82895Y436989D01*
X80987Y437500D01*
X79013D01*
X77105Y436989D01*
X75395Y436002D01*
X75000Y435607D01*
X74605Y436002D01*
X72895Y436989D01*
X70987Y437500D01*
X69013D01*
X67105Y436989D01*
X65395Y436002D01*
X63998Y434605D01*
X63011Y432895D01*
X62500Y430987D01*
Y429013D01*
X62905Y427500D01*
X62500Y425987D01*
Y424013D01*
X62905Y422500D01*
X62500Y420987D01*
Y419013D01*
X63011Y417105D01*
X63998Y415395D01*
X65395Y413998D01*
X67105Y413011D01*
X69013Y412500D01*
X70987D01*
X72895Y413011D01*
X74605Y413998D01*
X75000Y414393D01*
X75395Y413998D01*
X77105Y413011D01*
X79013Y412500D01*
X80987D01*
X82895Y413011D01*
X84605Y413998D01*
X85000Y414393D01*
X85395Y413998D01*
X87105Y413011D01*
X89013Y412500D01*
X90987D01*
X92895Y413011D01*
X94605Y413998D01*
X95000Y414393D01*
X95395Y413998D01*
X97105Y413011D01*
X99013Y412500D01*
X100987D01*
X102895Y413011D01*
X104605Y413998D01*
X105000Y414393D01*
X105395Y413998D01*
X107105Y413011D01*
X109013Y412500D01*
X110987D01*
X112895Y413011D01*
X114605Y413998D01*
X115000Y414393D01*
X115395Y413998D01*
X117105Y413011D01*
X119013Y412500D01*
X120987D01*
X122895Y413011D01*
X124605Y413998D01*
X125000Y414393D01*
X125395Y413998D01*
X127105Y413011D01*
X129013Y412500D01*
X130987D01*
X132895Y413011D01*
X134605Y413998D01*
X136002Y415395D01*
X136989Y417105D01*
X137500Y419013D01*
Y420987D01*
X137095Y422500D01*
X137500Y424013D01*
Y425987D01*
X136989Y427895D01*
X136002Y429605D01*
X134605Y431002D01*
X132895Y431989D01*
X130987Y432500D01*
X129013D01*
X127223Y432020D01*
X126989Y432895D01*
X126547Y433661D01*
X127280Y434931D01*
X144000D01*
X146088Y435206D01*
X148034Y436012D01*
X149706Y437294D01*
X150988Y438965D01*
X151794Y440912D01*
X152069Y443000D01*
X151794Y445088D01*
X150988Y447034D01*
X149706Y448706D01*
X148034Y449988D01*
X146088Y450794D01*
X144000Y451069D01*
D02*
G37*
G36*
X1590856Y446500D02*
X1589144D01*
X1587491Y446057D01*
X1586009Y445201D01*
X1584799Y443991D01*
X1583943Y442509D01*
X1583500Y440856D01*
Y439144D01*
X1583943Y437491D01*
X1584799Y436009D01*
X1586009Y434799D01*
X1587491Y433943D01*
X1589144Y433500D01*
X1590856D01*
X1592509Y433943D01*
X1593991Y434799D01*
X1595201Y436009D01*
X1596057Y437491D01*
X1596500Y439144D01*
Y440856D01*
X1596057Y442509D01*
X1595201Y443991D01*
X1593991Y445201D01*
X1592509Y446057D01*
X1590856Y446500D01*
D02*
G37*
G36*
X1330856Y446500D02*
X1329144D01*
X1327491Y446057D01*
X1326009Y445201D01*
X1324799Y443991D01*
X1323943Y442509D01*
X1323500Y440856D01*
Y439144D01*
X1323943Y437491D01*
X1324799Y436009D01*
X1326009Y434799D01*
X1327491Y433943D01*
X1329144Y433500D01*
X1330856D01*
X1332509Y433943D01*
X1333991Y434799D01*
X1335201Y436009D01*
X1336057Y437491D01*
X1336500Y439144D01*
Y440856D01*
X1336057Y442509D01*
X1335201Y443991D01*
X1333991Y445201D01*
X1332509Y446057D01*
X1330856Y446500D01*
D02*
G37*
G36*
X51909Y457500D02*
X48091D01*
X44403Y456512D01*
X41097Y454603D01*
X38397Y451903D01*
X36488Y448597D01*
X35500Y444909D01*
Y441091D01*
X36488Y437403D01*
X38397Y434097D01*
X41097Y431397D01*
X44403Y429488D01*
X48091Y428500D01*
X51909D01*
X55597Y429488D01*
X58903Y431397D01*
X61603Y434097D01*
X63512Y437403D01*
X64500Y441091D01*
Y444909D01*
X63512Y448597D01*
X61603Y451903D01*
X58903Y454603D01*
X55597Y456512D01*
X51909Y457500D01*
D02*
G37*
G36*
X1663356Y439000D02*
X1661644D01*
X1659991Y438557D01*
X1658509Y437701D01*
X1657299Y436491D01*
X1656443Y435009D01*
X1656000Y433356D01*
Y431644D01*
X1656443Y429991D01*
X1657299Y428509D01*
X1658509Y427299D01*
X1659991Y426443D01*
X1661644Y426000D01*
X1663356D01*
X1665009Y426443D01*
X1666491Y427299D01*
X1667701Y428509D01*
X1668557Y429991D01*
X1669000Y431644D01*
Y433356D01*
X1668557Y435009D01*
X1667701Y436491D01*
X1666491Y437701D01*
X1665009Y438557D01*
X1663356Y439000D01*
D02*
G37*
G36*
X1073356Y436500D02*
X1071644D01*
X1069991Y436057D01*
X1068509Y435201D01*
X1067299Y433991D01*
X1066443Y432509D01*
X1066000Y430856D01*
Y429144D01*
X1066443Y427491D01*
X1067299Y426009D01*
X1068509Y424799D01*
X1069991Y423943D01*
X1071644Y423500D01*
X1073356D01*
X1075009Y423943D01*
X1076491Y424799D01*
X1077701Y426009D01*
X1078557Y427491D01*
X1079000Y429144D01*
Y430856D01*
X1078557Y432509D01*
X1077701Y433991D01*
X1076491Y435201D01*
X1075009Y436057D01*
X1073356Y436500D01*
D02*
G37*
G36*
X1475856Y434000D02*
X1474144D01*
X1472491Y433557D01*
X1471009Y432701D01*
X1469799Y431491D01*
X1468943Y430009D01*
X1468500Y428356D01*
Y426644D01*
X1468943Y424991D01*
X1469799Y423509D01*
X1471009Y422299D01*
X1472491Y421443D01*
X1474144Y421000D01*
X1475856D01*
X1477509Y421443D01*
X1478991Y422299D01*
X1480201Y423509D01*
X1481057Y424991D01*
X1481500Y426644D01*
Y428356D01*
X1481057Y430009D01*
X1480201Y431491D01*
X1478991Y432701D01*
X1477509Y433557D01*
X1475856Y434000D01*
D02*
G37*
G36*
X819686Y427270D02*
X817975D01*
X816322Y426827D01*
X814839Y425971D01*
X813629Y424761D01*
X812774Y423279D01*
X812331Y421626D01*
Y419914D01*
X812774Y418261D01*
X813629Y416779D01*
X814839Y415569D01*
X816322Y414713D01*
X817975Y414270D01*
X819686D01*
X821339Y414713D01*
X822822Y415569D01*
X824032Y416779D01*
X824888Y418261D01*
X825331Y419914D01*
Y421626D01*
X824888Y423279D01*
X824032Y424761D01*
X822822Y425971D01*
X821339Y426827D01*
X819686Y427270D01*
D02*
G37*
G36*
X1223466Y428096D02*
X1221334D01*
X1219275Y427544D01*
X1217429Y426478D01*
X1215922Y424971D01*
X1214856Y423125D01*
X1214304Y421066D01*
Y418934D01*
X1214856Y416875D01*
X1215922Y415029D01*
X1217429Y413522D01*
X1219275Y412456D01*
X1221334Y411904D01*
X1223466D01*
X1225525Y412456D01*
X1227371Y413522D01*
X1228878Y415029D01*
X1229944Y416875D01*
X1230496Y418934D01*
Y421066D01*
X1229944Y423125D01*
X1228878Y424971D01*
X1227371Y426478D01*
X1225525Y427544D01*
X1223466Y428096D01*
D02*
G37*
G36*
X1198066D02*
X1195934D01*
X1193875Y427544D01*
X1192029Y426478D01*
X1190522Y424971D01*
X1189456Y423125D01*
X1188904Y421066D01*
Y418934D01*
X1189456Y416875D01*
X1190522Y415029D01*
X1192029Y413522D01*
X1193875Y412456D01*
X1195934Y411904D01*
X1198066D01*
X1200125Y412456D01*
X1201971Y413522D01*
X1203478Y415029D01*
X1204544Y416875D01*
X1205096Y418934D01*
Y421066D01*
X1204544Y423125D01*
X1203478Y424971D01*
X1201971Y426478D01*
X1200125Y427544D01*
X1198066Y428096D01*
D02*
G37*
G36*
X946626Y427270D02*
X944914D01*
X943261Y426827D01*
X941779Y425971D01*
X940569Y424761D01*
X939713Y423279D01*
X939270Y421626D01*
Y419914D01*
X939713Y418261D01*
X940569Y416779D01*
X941779Y415569D01*
X943261Y414713D01*
X944914Y414270D01*
X946626D01*
X948279Y414713D01*
X949532Y413970D01*
X949799Y413509D01*
X951009Y412299D01*
X952491Y411443D01*
X954144Y411000D01*
X955856D01*
X957509Y411443D01*
X958991Y412299D01*
X960201Y413509D01*
X961057Y414991D01*
X961500Y416644D01*
Y418356D01*
X961057Y420009D01*
X960201Y421491D01*
X958991Y422701D01*
X957509Y423557D01*
X955856Y424000D01*
X954144D01*
X952491Y423557D01*
X951238Y424300D01*
X950971Y424761D01*
X949761Y425971D01*
X948279Y426827D01*
X946626Y427270D01*
D02*
G37*
G36*
X795856Y419000D02*
X794144D01*
X792491Y418557D01*
X791009Y417701D01*
X789799Y416491D01*
X788943Y415009D01*
X788500Y413356D01*
Y411644D01*
X788943Y409991D01*
X789799Y408509D01*
X791009Y407299D01*
X792491Y406443D01*
X794144Y406000D01*
X795856D01*
X797509Y406443D01*
X798991Y407299D01*
X800201Y408509D01*
X801057Y409991D01*
X801500Y411644D01*
Y413356D01*
X801057Y415009D01*
X800201Y416491D01*
X798991Y417701D01*
X797509Y418557D01*
X795856Y419000D01*
D02*
G37*
G36*
X1400856D02*
X1399144D01*
X1397491Y418557D01*
X1396009Y417701D01*
X1394799Y416491D01*
X1393943Y415009D01*
X1393500Y413356D01*
Y411644D01*
X1393943Y409991D01*
X1394799Y408509D01*
X1396009Y407299D01*
X1397491Y406443D01*
X1399144Y406000D01*
X1400856D01*
X1402509Y406443D01*
X1402938Y406691D01*
X1404662Y406246D01*
X1404799Y406009D01*
X1406009Y404799D01*
X1407491Y403943D01*
X1409144Y403500D01*
X1410856D01*
X1412509Y403943D01*
X1413991Y404799D01*
X1415201Y406009D01*
X1416057Y407491D01*
X1416500Y409144D01*
Y410856D01*
X1416057Y412509D01*
X1415201Y413991D01*
X1413991Y415201D01*
X1412509Y416057D01*
X1410856Y416500D01*
X1409144D01*
X1407491Y416057D01*
X1407061Y415809D01*
X1405338Y416254D01*
X1405201Y416491D01*
X1403991Y417701D01*
X1402509Y418557D01*
X1400856Y419000D01*
D02*
G37*
G36*
X1173356Y416500D02*
X1171644D01*
X1169991Y416057D01*
X1168509Y415201D01*
X1167299Y413991D01*
X1166443Y412509D01*
X1166000Y410856D01*
Y409144D01*
X1166443Y407491D01*
X1167299Y406009D01*
X1168509Y404799D01*
X1169991Y403943D01*
X1171644Y403500D01*
X1173356D01*
X1175009Y403943D01*
X1176491Y404799D01*
X1177701Y406009D01*
X1178557Y407491D01*
X1179000Y409144D01*
Y410856D01*
X1178557Y412509D01*
X1177701Y413991D01*
X1176491Y415201D01*
X1175009Y416057D01*
X1173356Y416500D01*
D02*
G37*
G36*
X1701744Y416564D02*
X1699656D01*
X1697726Y415765D01*
X1696249Y414288D01*
X1695450Y412359D01*
Y410270D01*
X1696249Y408340D01*
X1697726Y406864D01*
X1699656Y406064D01*
X1699469Y404872D01*
X1698700D01*
Y400014D01*
X1708139D01*
X1707755Y400943D01*
X1706506Y402570D01*
X1704879Y403819D01*
X1702984Y404604D01*
X1701537Y404794D01*
X1701620Y406064D01*
X1701744D01*
X1703674Y406864D01*
X1705151Y408340D01*
X1705950Y410270D01*
Y412359D01*
X1705151Y414288D01*
X1703674Y415765D01*
X1701744Y416564D01*
D02*
G37*
G36*
X1692700Y404872D02*
X1690450D01*
X1688416Y404604D01*
X1686521Y403819D01*
X1684894Y402570D01*
X1683645Y400943D01*
X1683261Y400014D01*
X1692700D01*
Y404872D01*
D02*
G37*
G36*
X135770Y402540D02*
X124500D01*
Y397000D01*
X140040D01*
Y398270D01*
X135770Y402540D01*
D02*
G37*
G36*
X118500D02*
X107230D01*
X102960Y398270D01*
Y396509D01*
X101787Y396023D01*
X99270Y398540D01*
X88000D01*
Y390000D01*
Y381460D01*
X99270D01*
X103540Y385730D01*
Y387491D01*
X104713Y387977D01*
X107230Y385460D01*
X118500D01*
Y394000D01*
Y402540D01*
D02*
G37*
G36*
X82000Y398540D02*
X70730D01*
X66460Y394270D01*
Y393000D01*
X82000D01*
Y398540D01*
D02*
G37*
G36*
X1708139Y394014D02*
X1698700D01*
Y389157D01*
X1700950D01*
X1702984Y389425D01*
X1704879Y390210D01*
X1706506Y391459D01*
X1707755Y393086D01*
X1708139Y394014D01*
D02*
G37*
G36*
X1692700D02*
X1683261D01*
X1683645Y393086D01*
X1684894Y391459D01*
X1686521Y390210D01*
X1688416Y389425D01*
X1690450Y389157D01*
X1692700D01*
Y394014D01*
D02*
G37*
G36*
X1145856Y399000D02*
X1144144D01*
X1142491Y398557D01*
X1141009Y397701D01*
X1139799Y396491D01*
X1138943Y395009D01*
X1138500Y393356D01*
Y391644D01*
X1138943Y389991D01*
X1139799Y388509D01*
X1141009Y387299D01*
X1142491Y386443D01*
X1144144Y386000D01*
X1145856D01*
X1147509Y386443D01*
X1148991Y387299D01*
X1150201Y388509D01*
X1151057Y389991D01*
X1151500Y391644D01*
Y393356D01*
X1151057Y395009D01*
X1150201Y396491D01*
X1148991Y397701D01*
X1147509Y398557D01*
X1145856Y399000D01*
D02*
G37*
G36*
X140040Y391000D02*
X124500D01*
Y385460D01*
X135770D01*
X140040Y389730D01*
Y391000D01*
D02*
G37*
G36*
X560856Y386500D02*
X559144D01*
X557491Y386057D01*
X556009Y385201D01*
X555000Y384192D01*
X553991Y385201D01*
X552509Y386057D01*
X550856Y386500D01*
X549144D01*
X547491Y386057D01*
X546009Y385201D01*
X545000Y384192D01*
X543991Y385201D01*
X542509Y386057D01*
X540856Y386500D01*
X539144D01*
X537491Y386057D01*
X536009Y385201D01*
X535000Y384192D01*
X533991Y385201D01*
X532509Y386057D01*
X530856Y386500D01*
X529144D01*
X527491Y386057D01*
X526009Y385201D01*
X524799Y383991D01*
X523943Y382509D01*
X523500Y380856D01*
Y379144D01*
X523943Y377491D01*
X524799Y376009D01*
X525808Y375000D01*
X524799Y373991D01*
X523943Y372509D01*
X523500Y370856D01*
Y369144D01*
X523943Y367491D01*
X524799Y366009D01*
X525808Y365000D01*
X524799Y363991D01*
X523943Y362509D01*
X523500Y360856D01*
Y359144D01*
X523943Y357491D01*
X524799Y356009D01*
X525808Y355000D01*
X524799Y353991D01*
X523943Y352509D01*
X523500Y350856D01*
Y349144D01*
X523943Y347491D01*
X524799Y346009D01*
X525808Y345000D01*
X524799Y343991D01*
X523943Y342509D01*
X523500Y340856D01*
Y339144D01*
X523943Y337491D01*
X524799Y336009D01*
X525808Y335000D01*
X524799Y333991D01*
X523943Y332509D01*
X523500Y330856D01*
Y329144D01*
X523943Y327491D01*
X524799Y326009D01*
X526009Y324799D01*
X527491Y323943D01*
X529144Y323500D01*
X530856D01*
X532509Y323943D01*
X533991Y324799D01*
X535000Y325808D01*
X536009Y324799D01*
X537491Y323943D01*
X539144Y323500D01*
X540856D01*
X542509Y323943D01*
X543991Y324799D01*
X545000Y325808D01*
X546009Y324799D01*
X547491Y323943D01*
X549144Y323500D01*
X550856D01*
X552509Y323943D01*
X553991Y324799D01*
X555000Y325808D01*
X556009Y324799D01*
X557491Y323943D01*
X559144Y323500D01*
X560856D01*
X562509Y323943D01*
X563991Y324799D01*
X565000Y325808D01*
X566009Y324799D01*
X567491Y323943D01*
X569144Y323500D01*
X570856D01*
X572509Y323943D01*
X573991Y324799D01*
X575000Y325808D01*
X576009Y324799D01*
X577491Y323943D01*
X579144Y323500D01*
X580856D01*
X582509Y323943D01*
X583991Y324799D01*
X585000Y325808D01*
X586009Y324799D01*
X587491Y323943D01*
X589144Y323500D01*
X590856D01*
X592509Y323943D01*
X593991Y324799D01*
X595201Y326009D01*
X596057Y327491D01*
X596500Y329144D01*
Y330856D01*
X596057Y332509D01*
X595201Y333991D01*
X594192Y335000D01*
X595201Y336009D01*
X596057Y337491D01*
X596500Y339144D01*
Y340856D01*
X596057Y342509D01*
X595201Y343991D01*
X594192Y345000D01*
X595201Y346009D01*
X596057Y347491D01*
X596500Y349144D01*
Y350856D01*
X596057Y352509D01*
X595201Y353991D01*
X594192Y355000D01*
X595201Y356009D01*
X596057Y357491D01*
X596500Y359144D01*
Y360856D01*
X596057Y362509D01*
X595201Y363991D01*
X594192Y365000D01*
X595201Y366009D01*
X596057Y367491D01*
X596500Y369144D01*
Y370856D01*
X596057Y372509D01*
X595201Y373991D01*
X593991Y375201D01*
X592509Y376057D01*
X590856Y376500D01*
X589144D01*
X587491Y376057D01*
X586009Y375201D01*
X585000Y374192D01*
X583991Y375201D01*
X582509Y376057D01*
X580856Y376500D01*
X579144D01*
X577491Y376057D01*
X576009Y375201D01*
X575000Y374192D01*
X573991Y375201D01*
X572509Y376057D01*
X570856Y376500D01*
X569144D01*
X567491Y376057D01*
X566280Y375358D01*
X565358Y376280D01*
X566057Y377491D01*
X566500Y379144D01*
Y380856D01*
X566057Y382509D01*
X565201Y383991D01*
X563991Y385201D01*
X562509Y386057D01*
X560856Y386500D01*
D02*
G37*
G36*
X1081287Y397101D02*
X1079575D01*
X1077922Y396658D01*
X1076440Y395803D01*
X1075230Y394592D01*
X1074374Y393110D01*
X1073931Y391457D01*
Y389746D01*
X1074374Y388092D01*
X1075230Y386610D01*
X1076440Y385400D01*
X1077922Y384544D01*
X1079575Y384101D01*
X1081287D01*
X1082940Y384544D01*
X1084422Y385400D01*
X1085632Y386610D01*
X1086488Y388092D01*
X1086931Y389746D01*
Y391457D01*
X1086488Y393110D01*
X1085632Y394592D01*
X1084422Y395803D01*
X1082940Y396658D01*
X1081287Y397101D01*
D02*
G37*
G36*
X790856Y396500D02*
X789144D01*
X787491Y396057D01*
X786009Y395201D01*
X784799Y393991D01*
X783943Y392509D01*
X783500Y390856D01*
Y389144D01*
X783943Y387491D01*
X784799Y386009D01*
X786009Y384799D01*
X787491Y383943D01*
X789144Y383500D01*
X790856D01*
X792509Y383943D01*
X793991Y384799D01*
X795201Y386009D01*
X796057Y387491D01*
X796500Y389144D01*
Y390856D01*
X796057Y392509D01*
X795201Y393991D01*
X793991Y395201D01*
X792509Y396057D01*
X790856Y396500D01*
D02*
G37*
G36*
X1161065Y394803D02*
X1159353D01*
X1157700Y394360D01*
X1156218Y393504D01*
X1155008Y392294D01*
X1154152Y390812D01*
X1153709Y389159D01*
Y387447D01*
X1154152Y385794D01*
X1155008Y384312D01*
X1156218Y383102D01*
X1157700Y382246D01*
X1159353Y381803D01*
X1161065D01*
X1162718Y382246D01*
X1164200Y383102D01*
X1165410Y384312D01*
X1166266Y385794D01*
X1166709Y387447D01*
Y389159D01*
X1166266Y390812D01*
X1165410Y392294D01*
X1164200Y393504D01*
X1162718Y394360D01*
X1161065Y394803D01*
D02*
G37*
G36*
X82000Y387000D02*
X66460D01*
Y385730D01*
X70730Y381460D01*
X82000D01*
Y387000D01*
D02*
G37*
G36*
X1400856Y394000D02*
X1399144D01*
X1397491Y393557D01*
X1396009Y392701D01*
X1394799Y391491D01*
X1393943Y390009D01*
X1393500Y388356D01*
Y386644D01*
X1393943Y384991D01*
X1394799Y383509D01*
X1396009Y382299D01*
X1397491Y381443D01*
X1399144Y381000D01*
X1400856D01*
X1402509Y381443D01*
X1403991Y382299D01*
X1405201Y383509D01*
X1406057Y384991D01*
X1406500Y386644D01*
Y388356D01*
X1406057Y390009D01*
X1405201Y391491D01*
X1403991Y392701D01*
X1402509Y393557D01*
X1400856Y394000D01*
D02*
G37*
G36*
X51382Y400500D02*
X48618D01*
X45947Y399784D01*
X43553Y398402D01*
X41598Y396447D01*
X40216Y394053D01*
X39500Y391382D01*
Y388618D01*
X40216Y385947D01*
X41598Y383553D01*
X43553Y381598D01*
X45947Y380216D01*
X48618Y379500D01*
X51382D01*
X54053Y380216D01*
X56447Y381598D01*
X58402Y383553D01*
X59784Y385947D01*
X60500Y388618D01*
Y391382D01*
X59784Y394053D01*
X58402Y396447D01*
X56447Y398402D01*
X54053Y399784D01*
X51382Y400500D01*
D02*
G37*
G36*
X1115856Y384770D02*
X1114144D01*
X1112491Y384327D01*
X1111009Y383471D01*
X1109799Y382261D01*
X1108943Y380779D01*
X1108500Y379126D01*
Y377414D01*
X1108768Y376414D01*
X1107766Y375368D01*
X1107169Y375528D01*
X1105457D01*
X1103804Y375085D01*
X1102322Y374229D01*
X1101112Y373019D01*
X1100256Y371537D01*
X1099813Y369884D01*
Y368172D01*
X1099921Y367770D01*
X1099144Y366500D01*
X1097491Y366057D01*
X1096009Y365201D01*
X1094799Y363991D01*
X1093943Y362509D01*
X1093500Y360856D01*
Y359144D01*
X1093943Y357491D01*
X1094799Y356009D01*
X1096009Y354799D01*
X1097491Y353943D01*
X1099144Y353500D01*
X1100856D01*
X1102509Y353943D01*
X1103991Y354799D01*
X1105201Y356009D01*
X1106057Y357491D01*
X1106500Y359144D01*
Y360856D01*
X1106392Y361258D01*
X1107169Y362528D01*
X1108822Y362971D01*
X1110304Y363827D01*
X1111514Y365037D01*
X1112370Y366519D01*
X1112813Y368172D01*
Y369884D01*
X1112545Y370884D01*
X1113547Y371930D01*
X1114144Y371770D01*
X1115856D01*
X1117509Y372213D01*
X1118991Y373069D01*
X1120201Y374279D01*
X1121057Y375761D01*
X1121500Y377414D01*
Y379126D01*
X1121057Y380779D01*
X1120201Y382261D01*
X1118991Y383471D01*
X1117509Y384327D01*
X1115856Y384770D01*
D02*
G37*
G36*
X1321586Y376298D02*
X1319874D01*
X1318221Y375855D01*
X1316739Y374999D01*
X1315529Y373789D01*
X1314673Y372307D01*
X1314230Y370654D01*
Y368942D01*
X1314673Y367289D01*
X1315529Y365807D01*
X1316739Y364597D01*
X1318221Y363741D01*
X1319874Y363298D01*
X1321586D01*
X1323239Y363741D01*
X1324721Y364597D01*
X1325931Y365807D01*
X1326787Y367289D01*
X1327230Y368942D01*
Y370654D01*
X1326787Y372307D01*
X1325931Y373789D01*
X1324721Y374999D01*
X1323239Y375855D01*
X1321586Y376298D01*
D02*
G37*
G36*
X1340856Y371500D02*
X1339144D01*
X1337491Y371057D01*
X1336009Y370201D01*
X1334799Y368991D01*
X1333943Y367509D01*
X1333500Y365856D01*
Y364144D01*
X1333943Y362491D01*
X1334799Y361009D01*
X1336009Y359799D01*
X1337491Y358943D01*
X1339144Y358500D01*
X1340856D01*
X1342509Y358943D01*
X1343991Y359799D01*
X1345201Y361009D01*
X1346057Y362491D01*
X1346500Y364144D01*
Y365856D01*
X1346057Y367509D01*
X1345201Y368991D01*
X1343991Y370201D01*
X1342509Y371057D01*
X1340856Y371500D01*
D02*
G37*
G36*
Y356500D02*
X1339144D01*
X1337491Y356057D01*
X1336009Y355201D01*
X1335000Y354192D01*
X1333991Y355201D01*
X1332509Y356057D01*
X1330856Y356500D01*
X1329144D01*
X1327491Y356057D01*
X1326009Y355201D01*
X1324799Y353991D01*
X1323943Y352509D01*
X1323500Y350856D01*
Y349144D01*
X1323943Y347491D01*
X1324799Y346009D01*
X1326009Y344799D01*
X1327491Y343943D01*
X1329144Y343500D01*
X1330856D01*
X1332509Y343943D01*
X1333991Y344799D01*
X1335000Y345808D01*
X1336009Y344799D01*
X1337491Y343943D01*
X1339144Y343500D01*
X1340856D01*
X1342509Y343943D01*
X1343991Y344799D01*
X1345201Y346009D01*
X1346057Y347491D01*
X1346500Y349144D01*
Y350856D01*
X1346057Y352509D01*
X1345201Y353991D01*
X1343991Y355201D01*
X1342509Y356057D01*
X1340856Y356500D01*
D02*
G37*
G36*
X30000Y382069D02*
X27912Y381794D01*
X25965Y380988D01*
X24294Y379706D01*
X23012Y378035D01*
X22206Y376088D01*
X21931Y374000D01*
Y356000D01*
X22206Y353912D01*
X23012Y351965D01*
X24294Y350294D01*
X25965Y349012D01*
X27912Y348206D01*
X30000Y347931D01*
X32088Y348206D01*
X34035Y349012D01*
X35706Y350294D01*
X36988Y351965D01*
X37794Y353912D01*
X38069Y356000D01*
Y374000D01*
X37794Y376088D01*
X36988Y378035D01*
X35706Y379706D01*
X34035Y380988D01*
X32088Y381794D01*
X30000Y382069D01*
D02*
G37*
G36*
X1276289Y360369D02*
X1274577D01*
X1272924Y359926D01*
X1271442Y359071D01*
X1270232Y357860D01*
X1269376Y356378D01*
X1268933Y354725D01*
Y353013D01*
X1269376Y351360D01*
X1270232Y349878D01*
X1271442Y348668D01*
X1272924Y347812D01*
X1274577Y347369D01*
X1276289D01*
X1277942Y347812D01*
X1279424Y348668D01*
X1280634Y349878D01*
X1281490Y351360D01*
X1281933Y353013D01*
Y354725D01*
X1281490Y356378D01*
X1280634Y357860D01*
X1279424Y359071D01*
X1277942Y359926D01*
X1276289Y360369D01*
D02*
G37*
G36*
X1375856Y371500D02*
X1374144D01*
X1372491Y371057D01*
X1371009Y370201D01*
X1369799Y368991D01*
X1368943Y367509D01*
X1368500Y365856D01*
Y364144D01*
X1368943Y362491D01*
X1369799Y361009D01*
X1371009Y359799D01*
X1371449Y359544D01*
X1371407Y358549D01*
X1371303Y358162D01*
X1369911Y357359D01*
X1368701Y356148D01*
X1367845Y354666D01*
X1367402Y353013D01*
Y351302D01*
X1367845Y349649D01*
X1368701Y348166D01*
X1369911Y346956D01*
X1371393Y346100D01*
X1373047Y345657D01*
X1374758D01*
X1376411Y346100D01*
X1377893Y346956D01*
X1379104Y348166D01*
X1379959Y349649D01*
X1380402Y351302D01*
Y353013D01*
X1379959Y354666D01*
X1379104Y356148D01*
X1377893Y357359D01*
X1377453Y357613D01*
X1377495Y358609D01*
X1377599Y358995D01*
X1378991Y359799D01*
X1380201Y361009D01*
X1381057Y362491D01*
X1381500Y364144D01*
Y365856D01*
X1381057Y367509D01*
X1380201Y368991D01*
X1378991Y370201D01*
X1377509Y371057D01*
X1375856Y371500D01*
D02*
G37*
G36*
X1591871Y369000D02*
X1588129D01*
X1584458Y368270D01*
X1581000Y366838D01*
X1577888Y364758D01*
X1575242Y362112D01*
X1573162Y359000D01*
X1571730Y355542D01*
X1571000Y351871D01*
Y348129D01*
X1571730Y344458D01*
X1573162Y341000D01*
X1575242Y337888D01*
X1577888Y335242D01*
X1581000Y333162D01*
X1584458Y331730D01*
X1588129Y331000D01*
X1591871D01*
X1595542Y331730D01*
X1599000Y333162D01*
X1602112Y335242D01*
X1604758Y337888D01*
X1606838Y341000D01*
X1608270Y344458D01*
X1609000Y348129D01*
Y351871D01*
X1608270Y355542D01*
X1606838Y359000D01*
X1604758Y362112D01*
X1602112Y364758D01*
X1599000Y366838D01*
X1595542Y368270D01*
X1591871Y369000D01*
D02*
G37*
G36*
X1181871D02*
X1178129D01*
X1174458Y368270D01*
X1171000Y366838D01*
X1167888Y364758D01*
X1165242Y362112D01*
X1163162Y359000D01*
X1161730Y355542D01*
X1161000Y351871D01*
Y348129D01*
X1161730Y344458D01*
X1163162Y341000D01*
X1165242Y337888D01*
X1167888Y335242D01*
X1171000Y333162D01*
X1174458Y331730D01*
X1178129Y331000D01*
X1181871D01*
X1185542Y331730D01*
X1189000Y333162D01*
X1192112Y335242D01*
X1194758Y337888D01*
X1196838Y341000D01*
X1198270Y344458D01*
X1199000Y348129D01*
Y351871D01*
X1198270Y355542D01*
X1196838Y359000D01*
X1194758Y362112D01*
X1192112Y364758D01*
X1189000Y366838D01*
X1185542Y368270D01*
X1181871Y369000D01*
D02*
G37*
G36*
X901871D02*
X898129D01*
X894458Y368270D01*
X891000Y366838D01*
X887888Y364758D01*
X885242Y362112D01*
X883162Y359000D01*
X881730Y355542D01*
X881000Y351871D01*
Y348129D01*
X881730Y344458D01*
X883162Y341000D01*
X885242Y337888D01*
X887888Y335242D01*
X891000Y333162D01*
X894458Y331730D01*
X898129Y331000D01*
X901871D01*
X905542Y331730D01*
X909000Y333162D01*
X912112Y335242D01*
X914758Y337888D01*
X916838Y341000D01*
X918270Y344458D01*
X919000Y348129D01*
Y351871D01*
X918270Y355542D01*
X916838Y359000D01*
X914758Y362112D01*
X912112Y364758D01*
X909000Y366838D01*
X905542Y368270D01*
X901871Y369000D01*
D02*
G37*
G36*
X51382Y350500D02*
X48618D01*
X45947Y349784D01*
X43553Y348402D01*
X41598Y346447D01*
X40216Y344053D01*
X39500Y341382D01*
Y338618D01*
X40216Y335947D01*
X41598Y333553D01*
X43553Y331598D01*
X45947Y330216D01*
X48618Y329500D01*
X51382D01*
X54053Y330216D01*
X56447Y331598D01*
X58402Y333553D01*
X59784Y335947D01*
X60500Y338618D01*
Y341382D01*
X59784Y344053D01*
X58402Y346447D01*
X56447Y348402D01*
X54053Y349784D01*
X51382Y350500D01*
D02*
G37*
G36*
X100500Y351000D02*
X69500D01*
X64000Y345500D01*
Y334500D01*
X69500Y329000D01*
X100500D01*
X101250Y329750D01*
X106000Y325000D01*
X137000D01*
X142500Y330500D01*
Y341500D01*
X137000Y347000D01*
X106000D01*
X105250Y346250D01*
X100500Y351000D01*
D02*
G37*
G36*
X1423356Y336500D02*
X1421644D01*
X1419991Y336057D01*
X1418509Y335201D01*
X1417299Y333991D01*
X1416443Y332509D01*
X1416000Y330856D01*
Y329144D01*
X1416443Y327491D01*
X1417299Y326009D01*
X1418509Y324799D01*
X1419991Y323943D01*
X1421644Y323500D01*
X1423356D01*
X1425009Y323943D01*
X1426491Y324799D01*
X1427701Y326009D01*
X1428557Y327491D01*
X1429000Y329144D01*
Y330856D01*
X1428557Y332509D01*
X1427701Y333991D01*
X1426491Y335201D01*
X1425009Y336057D01*
X1423356Y336500D01*
D02*
G37*
G36*
X1400856Y334000D02*
X1399144D01*
X1397491Y333557D01*
X1396009Y332701D01*
X1394799Y331491D01*
X1393943Y330009D01*
X1393500Y328356D01*
Y326644D01*
X1393943Y324991D01*
X1394799Y323509D01*
X1396009Y322299D01*
X1397491Y321443D01*
X1399144Y321000D01*
X1400856D01*
X1402509Y321443D01*
X1403991Y322299D01*
X1405201Y323509D01*
X1406057Y324991D01*
X1406500Y326644D01*
Y328356D01*
X1406057Y330009D01*
X1405201Y331491D01*
X1403991Y332701D01*
X1402509Y333557D01*
X1400856Y334000D01*
D02*
G37*
G36*
X208518Y333675D02*
X206806D01*
X205153Y333232D01*
X203671Y332377D01*
X202461Y331167D01*
X201605Y329684D01*
X201162Y328031D01*
Y326735D01*
X200856Y326500D01*
X199144D01*
X197491Y326057D01*
X196009Y325201D01*
X194799Y323991D01*
X193943Y322509D01*
X193500Y320856D01*
Y319144D01*
X193943Y317491D01*
X194799Y316009D01*
X196009Y314799D01*
X197491Y313943D01*
X199144Y313500D01*
X200856D01*
X202509Y313943D01*
X203991Y314799D01*
X205201Y316009D01*
X206057Y317491D01*
X206500Y319144D01*
Y320440D01*
X206806Y320676D01*
X208518D01*
X210171Y321119D01*
X211653Y321974D01*
X212863Y323184D01*
X213719Y324667D01*
X214162Y326320D01*
Y328031D01*
X213719Y329684D01*
X212863Y331167D01*
X211653Y332377D01*
X210171Y333232D01*
X208518Y333675D01*
D02*
G37*
G36*
X451871Y349000D02*
X448129D01*
X444458Y348270D01*
X441000Y346838D01*
X437888Y344758D01*
X435242Y342112D01*
X433162Y339000D01*
X431730Y335542D01*
X431000Y331871D01*
Y328129D01*
X431730Y324458D01*
X433162Y321000D01*
X435242Y317888D01*
X437888Y315242D01*
X441000Y313162D01*
X444458Y311730D01*
X448129Y311000D01*
X451871D01*
X455542Y311730D01*
X459000Y313162D01*
X462112Y315242D01*
X464758Y317888D01*
X466838Y321000D01*
X468270Y324458D01*
X469000Y328129D01*
Y331871D01*
X468270Y335542D01*
X466838Y339000D01*
X464758Y342112D01*
X462112Y344758D01*
X459000Y346838D01*
X455542Y348270D01*
X451871Y349000D01*
D02*
G37*
G36*
X1325856Y316500D02*
X1324144D01*
X1322491Y316057D01*
X1321009Y315201D01*
X1319799Y313991D01*
X1318943Y312509D01*
X1318500Y310856D01*
Y309144D01*
X1318943Y307491D01*
X1319799Y306009D01*
X1321009Y304799D01*
X1322491Y303943D01*
X1324144Y303500D01*
X1325856D01*
X1327509Y303943D01*
X1328991Y304799D01*
X1330201Y306009D01*
X1331057Y307491D01*
X1331500Y309144D01*
Y310856D01*
X1331057Y312509D01*
X1330201Y313991D01*
X1328991Y315201D01*
X1327509Y316057D01*
X1325856Y316500D01*
D02*
G37*
G36*
X1061297Y310551D02*
X1059323D01*
X1057415Y310040D01*
X1055705Y309053D01*
X1054308Y307657D01*
X1053321Y305946D01*
X1052810Y304039D01*
Y302064D01*
X1053321Y300157D01*
X1054308Y298446D01*
X1055705Y297050D01*
X1057415Y296063D01*
X1059323Y295552D01*
X1061297D01*
X1063205Y296063D01*
X1064915Y297050D01*
X1066311Y298446D01*
X1067299Y300157D01*
X1067810Y302064D01*
Y304039D01*
X1067299Y305946D01*
X1066311Y307657D01*
X1064915Y309053D01*
X1063205Y310040D01*
X1061297Y310551D01*
D02*
G37*
G36*
X1250856Y281500D02*
X1249144D01*
X1247491Y281057D01*
X1246009Y280201D01*
X1245000Y279192D01*
X1243991Y280201D01*
X1242509Y281057D01*
X1240856Y281500D01*
X1239144D01*
X1237491Y281057D01*
X1236009Y280201D01*
X1235000Y279192D01*
X1233991Y280201D01*
X1232509Y281057D01*
X1230856Y281500D01*
X1229144D01*
X1227491Y281057D01*
X1226009Y280201D01*
X1224799Y278991D01*
X1223943Y277509D01*
X1223500Y275856D01*
Y274144D01*
X1223943Y272491D01*
X1224799Y271009D01*
X1225808Y270000D01*
X1224799Y268991D01*
X1223943Y267509D01*
X1223500Y265856D01*
Y264144D01*
X1223943Y262491D01*
X1224799Y261009D01*
X1225808Y260000D01*
X1224799Y258991D01*
X1223943Y257509D01*
X1223828Y257080D01*
X1223471Y256893D01*
X1222429Y256764D01*
X1221491Y257701D01*
X1220009Y258557D01*
X1218356Y259000D01*
X1216644D01*
X1214991Y258557D01*
X1213509Y257701D01*
X1212299Y256491D01*
X1211443Y255009D01*
X1211000Y253356D01*
Y251644D01*
X1211443Y249991D01*
X1212299Y248509D01*
X1213509Y247299D01*
X1214991Y246443D01*
X1216644Y246000D01*
X1218356D01*
X1220009Y246443D01*
X1221491Y247299D01*
X1222701Y248509D01*
X1223557Y249991D01*
X1223592Y250122D01*
X1224855Y250423D01*
X1225357Y249549D01*
X1224799Y248991D01*
X1223943Y247509D01*
X1223500Y245856D01*
Y244144D01*
X1223943Y242491D01*
X1224799Y241009D01*
X1225808Y240000D01*
X1224799Y238991D01*
X1223943Y237509D01*
X1223500Y235856D01*
Y234144D01*
X1223943Y232491D01*
X1224799Y231009D01*
X1226009Y229799D01*
X1227491Y228943D01*
X1229144Y228500D01*
X1230856D01*
X1232509Y228943D01*
X1233991Y229799D01*
X1235000Y230808D01*
X1236009Y229799D01*
X1237491Y228943D01*
X1239144Y228500D01*
X1240856D01*
X1242509Y228943D01*
X1243991Y229799D01*
X1245000Y230808D01*
X1246009Y229799D01*
X1247491Y228943D01*
X1249144Y228500D01*
X1250856D01*
X1252509Y228943D01*
X1253991Y229799D01*
X1255201Y231009D01*
X1256057Y232491D01*
X1256500Y234144D01*
Y235856D01*
X1256057Y237509D01*
X1255201Y238991D01*
X1254192Y240000D01*
X1255201Y241009D01*
X1256057Y242491D01*
X1256500Y244144D01*
Y245856D01*
X1256057Y247509D01*
X1255201Y248991D01*
X1254192Y250000D01*
X1255201Y251009D01*
X1256057Y252491D01*
X1256500Y254144D01*
Y255856D01*
X1256057Y257509D01*
X1255201Y258991D01*
X1254192Y260000D01*
X1255201Y261009D01*
X1256057Y262491D01*
X1256500Y264144D01*
Y265856D01*
X1256057Y267509D01*
X1255201Y268991D01*
X1254192Y270000D01*
X1255201Y271009D01*
X1256057Y272491D01*
X1256500Y274144D01*
Y275856D01*
X1256057Y277509D01*
X1255201Y278991D01*
X1253991Y280201D01*
X1252509Y281057D01*
X1250856Y281500D01*
D02*
G37*
G36*
X144000Y295069D02*
X126000D01*
X123912Y294794D01*
X121966Y293988D01*
X120294Y292706D01*
X119012Y291035D01*
X118206Y289088D01*
X117931Y287000D01*
X118206Y284912D01*
X119012Y282966D01*
X120294Y281294D01*
X121966Y280012D01*
X123912Y279206D01*
X126000Y278931D01*
X144000D01*
X146088Y279206D01*
X148034Y280012D01*
X149706Y281294D01*
X150988Y282966D01*
X151794Y284912D01*
X152069Y287000D01*
X151794Y289088D01*
X150988Y291035D01*
X149706Y292706D01*
X148034Y293988D01*
X146088Y294794D01*
X144000Y295069D01*
D02*
G37*
G36*
X1050987Y280000D02*
X1049013D01*
X1047105Y279489D01*
X1045395Y278501D01*
X1045000Y278107D01*
X1044605Y278501D01*
X1042895Y279489D01*
X1040987Y280000D01*
X1039013D01*
X1037105Y279489D01*
X1035395Y278501D01*
X1035000Y278107D01*
X1034605Y278501D01*
X1032895Y279489D01*
X1030987Y280000D01*
X1029013D01*
X1027105Y279489D01*
X1025395Y278501D01*
X1023998Y277105D01*
X1023011Y275395D01*
X1022500Y273487D01*
Y271513D01*
X1023011Y269605D01*
X1023998Y267895D01*
X1024393Y267500D01*
X1023998Y267105D01*
X1023011Y265395D01*
X1022500Y263487D01*
Y261513D01*
X1023011Y259605D01*
X1023901Y258064D01*
X1023676Y257416D01*
X1023501Y257157D01*
X1022128Y257065D01*
X1021491Y257701D01*
X1020009Y258557D01*
X1018356Y259000D01*
X1016644D01*
X1014991Y258557D01*
X1013509Y257701D01*
X1012299Y256491D01*
X1011443Y255009D01*
X1011000Y253356D01*
Y251644D01*
X1011443Y249991D01*
X1012299Y248509D01*
X1013509Y247299D01*
X1014991Y246443D01*
X1016644Y246000D01*
X1018356D01*
X1020009Y246443D01*
X1021491Y247299D01*
X1022128Y247935D01*
X1023501Y247843D01*
X1023676Y247584D01*
X1023901Y246936D01*
X1023011Y245395D01*
X1022500Y243487D01*
Y241513D01*
X1023011Y239605D01*
X1023303Y239100D01*
X1022287Y238320D01*
X1022105Y238501D01*
X1020395Y239489D01*
X1018487Y240000D01*
X1016513D01*
X1014605Y239489D01*
X1012895Y238501D01*
X1011498Y237105D01*
X1010511Y235395D01*
X1010283Y234545D01*
X1008812Y233960D01*
X1007895Y234489D01*
X1005987Y235000D01*
X1004013D01*
X1002105Y234489D01*
X1000395Y233501D01*
X998998Y232105D01*
X998011Y230395D01*
X997500Y228487D01*
Y226513D01*
X998011Y224605D01*
X998998Y222895D01*
X1000395Y221499D01*
X1002105Y220511D01*
X1004013Y220000D01*
X1005987D01*
X1007895Y220511D01*
X1009605Y221499D01*
X1011002Y222895D01*
X1011989Y224605D01*
X1012217Y225455D01*
X1013688Y226040D01*
X1014605Y225511D01*
X1016513Y225000D01*
X1018487D01*
X1020395Y225511D01*
X1022105Y226499D01*
X1022887Y227280D01*
X1023750Y227757D01*
X1024613Y227280D01*
X1025395Y226499D01*
X1027105Y225511D01*
X1029013Y225000D01*
X1030987D01*
X1032895Y225511D01*
X1034605Y226499D01*
X1035000Y226893D01*
X1035395Y226499D01*
X1037105Y225511D01*
X1039013Y225000D01*
X1040987D01*
X1042895Y225511D01*
X1044605Y226499D01*
X1045000Y226893D01*
X1045395Y226499D01*
X1047105Y225511D01*
X1049013Y225000D01*
X1050987D01*
X1052895Y225511D01*
X1054605Y226499D01*
X1056002Y227895D01*
X1056989Y229605D01*
X1057500Y231513D01*
Y233487D01*
X1056989Y235395D01*
X1056002Y237105D01*
X1055607Y237500D01*
X1056002Y237895D01*
X1056989Y239605D01*
X1057500Y241513D01*
Y243487D01*
X1056989Y245395D01*
X1056002Y247105D01*
X1055607Y247500D01*
X1056002Y247895D01*
X1056989Y249605D01*
X1057500Y251513D01*
Y253487D01*
X1056989Y255395D01*
X1056002Y257105D01*
X1055607Y257500D01*
X1056002Y257895D01*
X1056989Y259605D01*
X1057500Y261513D01*
Y263487D01*
X1056989Y265395D01*
X1056002Y267105D01*
X1055607Y267500D01*
X1056002Y267895D01*
X1056989Y269605D01*
X1057500Y271513D01*
Y273487D01*
X1056989Y275395D01*
X1056002Y277105D01*
X1054605Y278501D01*
X1052895Y279489D01*
X1050987Y280000D01*
D02*
G37*
G36*
X850987D02*
X849013D01*
X847105Y279489D01*
X845395Y278501D01*
X845000Y278107D01*
X844605Y278501D01*
X842895Y279489D01*
X840987Y280000D01*
X839013D01*
X837105Y279489D01*
X835395Y278501D01*
X835000Y278107D01*
X834605Y278501D01*
X832895Y279489D01*
X830987Y280000D01*
X829013D01*
X827105Y279489D01*
X825395Y278501D01*
X823998Y277105D01*
X823011Y275395D01*
X822500Y273487D01*
Y271513D01*
X823011Y269605D01*
X823998Y267895D01*
X824393Y267500D01*
X823998Y267105D01*
X823011Y265395D01*
X822500Y263487D01*
Y261513D01*
X823011Y259605D01*
X823901Y258064D01*
X823676Y257416D01*
X823501Y257157D01*
X822128Y257065D01*
X821491Y257701D01*
X820009Y258557D01*
X818356Y259000D01*
X816644D01*
X814991Y258557D01*
X813509Y257701D01*
X812299Y256491D01*
X811443Y255009D01*
X811000Y253356D01*
Y251644D01*
X811443Y249991D01*
X812299Y248509D01*
X813509Y247299D01*
X814991Y246443D01*
X816644Y246000D01*
X818356D01*
X820009Y246443D01*
X821491Y247299D01*
X822128Y247935D01*
X823501Y247843D01*
X823676Y247584D01*
X823901Y246936D01*
X823011Y245395D01*
X822500Y243487D01*
Y241513D01*
X823011Y239605D01*
X823303Y239100D01*
X822287Y238320D01*
X822105Y238501D01*
X820395Y239489D01*
X818487Y240000D01*
X816513D01*
X814605Y239489D01*
X812895Y238501D01*
X811498Y237105D01*
X810511Y235395D01*
X810283Y234545D01*
X808812Y233960D01*
X807895Y234489D01*
X805987Y235000D01*
X804013D01*
X802105Y234489D01*
X800395Y233501D01*
X798998Y232105D01*
X798011Y230395D01*
X797500Y228487D01*
Y226513D01*
X798011Y224605D01*
X798998Y222895D01*
X800395Y221499D01*
X802105Y220511D01*
X804013Y220000D01*
X805987D01*
X807895Y220511D01*
X809605Y221499D01*
X811002Y222895D01*
X811989Y224605D01*
X812217Y225455D01*
X813688Y226040D01*
X814605Y225511D01*
X816513Y225000D01*
X818487D01*
X820395Y225511D01*
X822105Y226499D01*
X822887Y227280D01*
X823750Y227757D01*
X824613Y227280D01*
X825395Y226499D01*
X827105Y225511D01*
X829013Y225000D01*
X830987D01*
X832895Y225511D01*
X834605Y226499D01*
X835000Y226893D01*
X835395Y226499D01*
X837105Y225511D01*
X839013Y225000D01*
X840987D01*
X842895Y225511D01*
X844605Y226499D01*
X845000Y226893D01*
X845395Y226499D01*
X847105Y225511D01*
X849013Y225000D01*
X850987D01*
X852895Y225511D01*
X854605Y226499D01*
X856002Y227895D01*
X856989Y229605D01*
X857500Y231513D01*
Y233487D01*
X856989Y235395D01*
X856002Y237105D01*
X855607Y237500D01*
X856002Y237895D01*
X856989Y239605D01*
X857500Y241513D01*
Y243487D01*
X856989Y245395D01*
X856002Y247105D01*
X855607Y247500D01*
X856002Y247895D01*
X856989Y249605D01*
X857500Y251513D01*
Y253487D01*
X856989Y255395D01*
X856002Y257105D01*
X855607Y257500D01*
X856002Y257895D01*
X856989Y259605D01*
X857500Y261513D01*
Y263487D01*
X856989Y265395D01*
X856002Y267105D01*
X855607Y267500D01*
X856002Y267895D01*
X856989Y269605D01*
X857500Y271513D01*
Y273487D01*
X856989Y275395D01*
X856002Y277105D01*
X854605Y278501D01*
X852895Y279489D01*
X850987Y280000D01*
D02*
G37*
G36*
X650987D02*
X649013D01*
X647105Y279489D01*
X645395Y278501D01*
X645000Y278107D01*
X644605Y278501D01*
X642895Y279489D01*
X640987Y280000D01*
X639013D01*
X637105Y279489D01*
X635395Y278501D01*
X635000Y278107D01*
X634605Y278501D01*
X632895Y279489D01*
X630987Y280000D01*
X629013D01*
X627105Y279489D01*
X625395Y278501D01*
X623998Y277105D01*
X623011Y275395D01*
X622500Y273487D01*
Y271513D01*
X623011Y269605D01*
X623998Y267895D01*
X624393Y267500D01*
X623998Y267105D01*
X623011Y265395D01*
X622500Y263487D01*
Y261513D01*
X623011Y259605D01*
X623901Y258064D01*
X623676Y257416D01*
X623501Y257157D01*
X622127Y257065D01*
X621491Y257701D01*
X620009Y258557D01*
X618356Y259000D01*
X616644D01*
X614991Y258557D01*
X613509Y257701D01*
X612299Y256491D01*
X611443Y255009D01*
X611000Y253356D01*
Y251644D01*
X611443Y249991D01*
X612299Y248509D01*
X613509Y247299D01*
X614991Y246443D01*
X616644Y246000D01*
X618356D01*
X620009Y246443D01*
X621491Y247299D01*
X622127Y247935D01*
X623501Y247843D01*
X623676Y247584D01*
X623901Y246936D01*
X623011Y245395D01*
X622500Y243487D01*
Y241513D01*
X623011Y239605D01*
X623303Y239100D01*
X622287Y238320D01*
X622105Y238501D01*
X620395Y239489D01*
X618487Y240000D01*
X616513D01*
X614605Y239489D01*
X612895Y238501D01*
X611498Y237105D01*
X610511Y235395D01*
X610283Y234545D01*
X608812Y233960D01*
X607895Y234489D01*
X605987Y235000D01*
X604013D01*
X602105Y234489D01*
X600395Y233501D01*
X598998Y232105D01*
X598011Y230395D01*
X597500Y228487D01*
Y226513D01*
X598011Y224605D01*
X598998Y222895D01*
X600395Y221499D01*
X602105Y220511D01*
X604013Y220000D01*
X605987D01*
X607895Y220511D01*
X609605Y221499D01*
X611002Y222895D01*
X611989Y224605D01*
X612217Y225455D01*
X613688Y226040D01*
X614605Y225511D01*
X616513Y225000D01*
X618487D01*
X620395Y225511D01*
X622105Y226499D01*
X622887Y227280D01*
X623750Y227757D01*
X624613Y227280D01*
X625395Y226499D01*
X627105Y225511D01*
X629013Y225000D01*
X630987D01*
X632895Y225511D01*
X634605Y226499D01*
X635000Y226893D01*
X635395Y226499D01*
X637105Y225511D01*
X639013Y225000D01*
X640987D01*
X642895Y225511D01*
X644605Y226499D01*
X645000Y226893D01*
X645395Y226499D01*
X647105Y225511D01*
X649013Y225000D01*
X650987D01*
X652895Y225511D01*
X654605Y226499D01*
X656002Y227895D01*
X656989Y229605D01*
X657500Y231513D01*
Y233487D01*
X656989Y235395D01*
X656002Y237105D01*
X655607Y237500D01*
X656002Y237895D01*
X656989Y239605D01*
X657500Y241513D01*
Y243487D01*
X656989Y245395D01*
X656002Y247105D01*
X655607Y247500D01*
X656002Y247895D01*
X656989Y249605D01*
X657500Y251513D01*
Y253487D01*
X656989Y255395D01*
X656002Y257105D01*
X655607Y257500D01*
X656002Y257895D01*
X656989Y259605D01*
X657500Y261513D01*
Y263487D01*
X656989Y265395D01*
X656002Y267105D01*
X655607Y267500D01*
X656002Y267895D01*
X656989Y269605D01*
X657500Y271513D01*
Y273487D01*
X656989Y275395D01*
X656002Y277105D01*
X654605Y278501D01*
X652895Y279489D01*
X650987Y280000D01*
D02*
G37*
G36*
X450987D02*
X449013D01*
X447105Y279489D01*
X445395Y278501D01*
X445000Y278107D01*
X444605Y278501D01*
X442895Y279489D01*
X440987Y280000D01*
X439013D01*
X437105Y279489D01*
X435395Y278501D01*
X435000Y278107D01*
X434605Y278501D01*
X432895Y279489D01*
X430987Y280000D01*
X429013D01*
X427105Y279489D01*
X425395Y278501D01*
X423998Y277105D01*
X423011Y275395D01*
X422500Y273487D01*
Y271513D01*
X423011Y269605D01*
X423998Y267895D01*
X424394Y267500D01*
X423998Y267105D01*
X423011Y265395D01*
X422500Y263487D01*
Y261513D01*
X423011Y259605D01*
X423901Y258064D01*
X423676Y257416D01*
X423501Y257157D01*
X422127Y257065D01*
X421491Y257701D01*
X420009Y258557D01*
X418356Y259000D01*
X416644D01*
X414991Y258557D01*
X413509Y257701D01*
X412299Y256491D01*
X411443Y255009D01*
X411000Y253356D01*
Y251644D01*
X411443Y249991D01*
X412299Y248509D01*
X413509Y247299D01*
X414991Y246443D01*
X416644Y246000D01*
X418356D01*
X420009Y246443D01*
X421491Y247299D01*
X422127Y247935D01*
X423501Y247843D01*
X423676Y247584D01*
X423901Y246936D01*
X423011Y245395D01*
X422500Y243487D01*
Y241513D01*
X423011Y239605D01*
X423303Y239100D01*
X422287Y238320D01*
X422105Y238501D01*
X420395Y239489D01*
X418487Y240000D01*
X416513D01*
X414605Y239489D01*
X412895Y238501D01*
X411498Y237105D01*
X410511Y235395D01*
X410283Y234545D01*
X408812Y233960D01*
X407895Y234489D01*
X405987Y235000D01*
X404013D01*
X402105Y234489D01*
X400395Y233501D01*
X398998Y232105D01*
X398011Y230395D01*
X397500Y228487D01*
Y226513D01*
X398011Y224605D01*
X398998Y222895D01*
X400395Y221499D01*
X402105Y220511D01*
X404013Y220000D01*
X405987D01*
X407895Y220511D01*
X409605Y221499D01*
X411002Y222895D01*
X411989Y224605D01*
X412217Y225455D01*
X413688Y226040D01*
X414605Y225511D01*
X416513Y225000D01*
X418487D01*
X420395Y225511D01*
X422105Y226499D01*
X422887Y227280D01*
X423750Y227757D01*
X424613Y227280D01*
X425395Y226499D01*
X427105Y225511D01*
X429013Y225000D01*
X430987D01*
X432895Y225511D01*
X434605Y226499D01*
X435000Y226893D01*
X435395Y226499D01*
X437105Y225511D01*
X439013Y225000D01*
X440987D01*
X442895Y225511D01*
X444605Y226499D01*
X445179Y227073D01*
X446041Y226575D01*
X447949Y226064D01*
X449924D01*
X451831Y226575D01*
X453541Y227562D01*
X454938Y228959D01*
X455925Y230669D01*
X456436Y232576D01*
Y234551D01*
X455925Y236459D01*
X455427Y237321D01*
X456002Y237895D01*
X456989Y239605D01*
X457500Y241513D01*
Y243487D01*
X456989Y245395D01*
X456002Y247105D01*
X455607Y247500D01*
X456002Y247895D01*
X456989Y249605D01*
X457500Y251513D01*
Y253487D01*
X456989Y255395D01*
X456002Y257105D01*
X455607Y257500D01*
X456002Y257895D01*
X456989Y259605D01*
X457500Y261513D01*
Y263487D01*
X456989Y265395D01*
X456002Y267105D01*
X455607Y267500D01*
X456002Y267895D01*
X456989Y269605D01*
X457500Y271513D01*
Y273487D01*
X456989Y275395D01*
X456002Y277105D01*
X454605Y278501D01*
X452895Y279489D01*
X450987Y280000D01*
D02*
G37*
G36*
X1730856Y279000D02*
X1729144D01*
X1727491Y278557D01*
X1726009Y277701D01*
X1725000Y276692D01*
X1723991Y277701D01*
X1722509Y278557D01*
X1720856Y279000D01*
X1719144D01*
X1717491Y278557D01*
X1716009Y277701D01*
X1715000Y276692D01*
X1713991Y277701D01*
X1712509Y278557D01*
X1710856Y279000D01*
X1709144D01*
X1707491Y278557D01*
X1706009Y277701D01*
X1705000Y276692D01*
X1703991Y277701D01*
X1702509Y278557D01*
X1700856Y279000D01*
X1699144D01*
X1697491Y278557D01*
X1696009Y277701D01*
X1695000Y276692D01*
X1693991Y277701D01*
X1692509Y278557D01*
X1690856Y279000D01*
X1689144D01*
X1687491Y278557D01*
X1686009Y277701D01*
X1685000Y276692D01*
X1683991Y277701D01*
X1682509Y278557D01*
X1680856Y279000D01*
X1679144D01*
X1677491Y278557D01*
X1676009Y277701D01*
X1675000Y276692D01*
X1673991Y277701D01*
X1672509Y278557D01*
X1670856Y279000D01*
X1669144D01*
X1667491Y278557D01*
X1666009Y277701D01*
X1665000Y276692D01*
X1663991Y277701D01*
X1662509Y278557D01*
X1660856Y279000D01*
X1659144D01*
X1657491Y278557D01*
X1656009Y277701D01*
X1655000Y276692D01*
X1653991Y277701D01*
X1652509Y278557D01*
X1650856Y279000D01*
X1649144D01*
X1647491Y278557D01*
X1646009Y277701D01*
X1645000Y276692D01*
X1643991Y277701D01*
X1642509Y278557D01*
X1640856Y279000D01*
X1639144D01*
X1637491Y278557D01*
X1636009Y277701D01*
X1635000Y276692D01*
X1633991Y277701D01*
X1632509Y278557D01*
X1630856Y279000D01*
X1629144D01*
X1627491Y278557D01*
X1626009Y277701D01*
X1624799Y276491D01*
X1623943Y275009D01*
X1623500Y273356D01*
Y271644D01*
X1623943Y269991D01*
X1624799Y268509D01*
X1625808Y267500D01*
X1624799Y266491D01*
X1623943Y265009D01*
X1623500Y263356D01*
Y261644D01*
X1623943Y259991D01*
X1624799Y258509D01*
X1625808Y257500D01*
X1624799Y256491D01*
X1624483Y255945D01*
X1623017D01*
X1622701Y256491D01*
X1621491Y257701D01*
X1620009Y258557D01*
X1618356Y259000D01*
X1616644D01*
X1614991Y258557D01*
X1613509Y257701D01*
X1612299Y256491D01*
X1611443Y255009D01*
X1611000Y253356D01*
Y251644D01*
X1611443Y249991D01*
X1612299Y248509D01*
X1613509Y247299D01*
X1614991Y246443D01*
X1616644Y246000D01*
X1618356D01*
X1620009Y246443D01*
X1621491Y247299D01*
X1622701Y248509D01*
X1623017Y249055D01*
X1624483D01*
X1624799Y248509D01*
X1625808Y247500D01*
X1624799Y246491D01*
X1623943Y245009D01*
X1623500Y243356D01*
Y241644D01*
X1623943Y239991D01*
X1624799Y238509D01*
X1625808Y237500D01*
X1624799Y236491D01*
X1623943Y235009D01*
X1623500Y233356D01*
Y231644D01*
X1623943Y229991D01*
X1624799Y228509D01*
X1626009Y227299D01*
X1627491Y226443D01*
X1629144Y226000D01*
X1630856D01*
X1632509Y226443D01*
X1633991Y227299D01*
X1635000Y228308D01*
X1636009Y227299D01*
X1637491Y226443D01*
X1639144Y226000D01*
X1640856D01*
X1642509Y226443D01*
X1643991Y227299D01*
X1645000Y228308D01*
X1646009Y227299D01*
X1647491Y226443D01*
X1649144Y226000D01*
X1650856D01*
X1652509Y226443D01*
X1653991Y227299D01*
X1655201Y228509D01*
X1656057Y229991D01*
X1656500Y231644D01*
Y233356D01*
X1656057Y235009D01*
X1655201Y236491D01*
X1654192Y237500D01*
X1655201Y238509D01*
X1656057Y239991D01*
X1656500Y241644D01*
Y243356D01*
X1656057Y245009D01*
X1655201Y246491D01*
X1654192Y247500D01*
X1655201Y248509D01*
X1656057Y249991D01*
X1656500Y251644D01*
Y253356D01*
X1656057Y255009D01*
X1655201Y256491D01*
X1654192Y257500D01*
X1655201Y258509D01*
X1656057Y259991D01*
X1656500Y261644D01*
Y263356D01*
X1656057Y265009D01*
X1655358Y266220D01*
X1656280Y267142D01*
X1657491Y266443D01*
X1659144Y266000D01*
X1660856D01*
X1662509Y266443D01*
X1663991Y267299D01*
X1665000Y268308D01*
X1666009Y267299D01*
X1667491Y266443D01*
X1669144Y266000D01*
X1670856D01*
X1672509Y266443D01*
X1673991Y267299D01*
X1675000Y268308D01*
X1676009Y267299D01*
X1677491Y266443D01*
X1679144Y266000D01*
X1680856D01*
X1682509Y266443D01*
X1683991Y267299D01*
X1685000Y268308D01*
X1686009Y267299D01*
X1687491Y266443D01*
X1689144Y266000D01*
X1690856D01*
X1692509Y266443D01*
X1693991Y267299D01*
X1695000Y268308D01*
X1696009Y267299D01*
X1697491Y266443D01*
X1699144Y266000D01*
X1700856D01*
X1702509Y266443D01*
X1703991Y267299D01*
X1705000Y268308D01*
X1706009Y267299D01*
X1707491Y266443D01*
X1709144Y266000D01*
X1710856D01*
X1712509Y266443D01*
X1713719Y267142D01*
X1714642Y266219D01*
X1713943Y265009D01*
X1713500Y263356D01*
Y261644D01*
X1713943Y259991D01*
X1714799Y258509D01*
X1715808Y257500D01*
X1714799Y256491D01*
X1713943Y255009D01*
X1713500Y253356D01*
Y251644D01*
X1713943Y249991D01*
X1714799Y248509D01*
X1715808Y247500D01*
X1714799Y246491D01*
X1713943Y245009D01*
X1713500Y243356D01*
Y241644D01*
X1713943Y239991D01*
X1714799Y238509D01*
X1716009Y237299D01*
X1717491Y236443D01*
X1719144Y236000D01*
X1720856D01*
X1722509Y236443D01*
X1723991Y237299D01*
X1725000Y238308D01*
X1726009Y237299D01*
X1727491Y236443D01*
X1729144Y236000D01*
X1730856D01*
X1732509Y236443D01*
X1733991Y237299D01*
X1735201Y238509D01*
X1736057Y239991D01*
X1736500Y241644D01*
Y243356D01*
X1736057Y245009D01*
X1735201Y246491D01*
X1734192Y247500D01*
X1735201Y248509D01*
X1736057Y249991D01*
X1736500Y251644D01*
Y253356D01*
X1736057Y255009D01*
X1735201Y256491D01*
X1734192Y257500D01*
X1735201Y258509D01*
X1736057Y259991D01*
X1736500Y261644D01*
Y263356D01*
X1736057Y265009D01*
X1735201Y266491D01*
X1734192Y267500D01*
X1735201Y268509D01*
X1736057Y269991D01*
X1736500Y271644D01*
Y273356D01*
X1736057Y275009D01*
X1735201Y276491D01*
X1733991Y277701D01*
X1732509Y278557D01*
X1730856Y279000D01*
D02*
G37*
G36*
X1450856D02*
X1449144D01*
X1447491Y278557D01*
X1446009Y277701D01*
X1445000Y276692D01*
X1443991Y277701D01*
X1442509Y278557D01*
X1440856Y279000D01*
X1439144D01*
X1437491Y278557D01*
X1436009Y277701D01*
X1435000Y276692D01*
X1433991Y277701D01*
X1432509Y278557D01*
X1430856Y279000D01*
X1429144D01*
X1427491Y278557D01*
X1426009Y277701D01*
X1424799Y276491D01*
X1423943Y275009D01*
X1423500Y273356D01*
Y271644D01*
X1423943Y269991D01*
X1424799Y268509D01*
X1425808Y267500D01*
X1424799Y266491D01*
X1423943Y265009D01*
X1423500Y263356D01*
Y261644D01*
X1423943Y259991D01*
X1424799Y258509D01*
X1425808Y257500D01*
X1424799Y256491D01*
X1424483Y255945D01*
X1423017D01*
X1422701Y256491D01*
X1421491Y257701D01*
X1420009Y258557D01*
X1418356Y259000D01*
X1416644D01*
X1414991Y258557D01*
X1413509Y257701D01*
X1412299Y256491D01*
X1411443Y255009D01*
X1411000Y253356D01*
Y251644D01*
X1411443Y249991D01*
X1412299Y248509D01*
X1413509Y247299D01*
X1414991Y246443D01*
X1416644Y246000D01*
X1418356D01*
X1420009Y246443D01*
X1421491Y247299D01*
X1422701Y248509D01*
X1423017Y249055D01*
X1424483D01*
X1424799Y248509D01*
X1425808Y247500D01*
X1424799Y246491D01*
X1423943Y245009D01*
X1423500Y243356D01*
Y241644D01*
X1423943Y239991D01*
X1424799Y238509D01*
X1425808Y237500D01*
X1424799Y236491D01*
X1423943Y235009D01*
X1423500Y233356D01*
Y231644D01*
X1423943Y229991D01*
X1424799Y228509D01*
X1426009Y227299D01*
X1427491Y226443D01*
X1429144Y226000D01*
X1430856D01*
X1432509Y226443D01*
X1433991Y227299D01*
X1435000Y228308D01*
X1436009Y227299D01*
X1437491Y226443D01*
X1439144Y226000D01*
X1440856D01*
X1442509Y226443D01*
X1443991Y227299D01*
X1445000Y228308D01*
X1446009Y227299D01*
X1447491Y226443D01*
X1449144Y226000D01*
X1450856D01*
X1452509Y226443D01*
X1453991Y227299D01*
X1455201Y228509D01*
X1456057Y229991D01*
X1456500Y231644D01*
Y233356D01*
X1456057Y235009D01*
X1455201Y236491D01*
X1454192Y237500D01*
X1455201Y238509D01*
X1456057Y239991D01*
X1456500Y241644D01*
Y243356D01*
X1456057Y245009D01*
X1455201Y246491D01*
X1454192Y247500D01*
X1455201Y248509D01*
X1456057Y249991D01*
X1456500Y251644D01*
Y253356D01*
X1456057Y255009D01*
X1455201Y256491D01*
X1454192Y257500D01*
X1455201Y258509D01*
X1456057Y259991D01*
X1456500Y261644D01*
Y263356D01*
X1456057Y265009D01*
X1455201Y266491D01*
X1454192Y267500D01*
X1455201Y268509D01*
X1456057Y269991D01*
X1456500Y271644D01*
Y273356D01*
X1456057Y275009D01*
X1455201Y276491D01*
X1453991Y277701D01*
X1452509Y278557D01*
X1450856Y279000D01*
D02*
G37*
G36*
X51909Y301500D02*
X48091D01*
X44403Y300512D01*
X41097Y298603D01*
X38397Y295903D01*
X36488Y292597D01*
X35500Y288909D01*
Y285091D01*
X36488Y281403D01*
X38397Y278097D01*
X41097Y275397D01*
X44403Y273488D01*
X48091Y272500D01*
X51909D01*
X55597Y273488D01*
X58903Y275397D01*
X61603Y278097D01*
X63512Y281403D01*
X64500Y285091D01*
Y288909D01*
X63512Y292597D01*
X61603Y295903D01*
X58903Y298603D01*
X55597Y300512D01*
X51909Y301500D01*
D02*
G37*
G36*
X1490775Y284793D02*
X1489064D01*
X1487410Y284350D01*
X1485928Y283495D01*
X1484718Y282284D01*
X1483862Y280802D01*
X1483419Y279149D01*
Y277438D01*
X1483862Y275784D01*
X1484718Y274302D01*
X1485928Y273092D01*
X1487410Y272236D01*
X1489064Y271793D01*
X1490775D01*
X1492428Y272236D01*
X1493911Y273092D01*
X1495121Y274302D01*
X1495976Y275784D01*
X1496419Y277438D01*
Y279149D01*
X1495976Y280802D01*
X1495121Y282284D01*
X1493911Y283495D01*
X1492428Y284350D01*
X1490775Y284793D01*
D02*
G37*
G36*
X541698Y294740D02*
X538302D01*
X534971Y294077D01*
X531834Y292778D01*
X529010Y290891D01*
X526609Y288490D01*
X524722Y285666D01*
X523423Y282529D01*
X522760Y279198D01*
Y275802D01*
X523423Y272471D01*
X524722Y269334D01*
X526609Y266510D01*
X529010Y264109D01*
X531834Y262222D01*
X534971Y260923D01*
X538302Y260260D01*
X541698D01*
X545029Y260923D01*
X548166Y262222D01*
X550990Y264109D01*
X553391Y266510D01*
X555278Y269334D01*
X556577Y272471D01*
X557240Y275802D01*
Y279198D01*
X556577Y282529D01*
X555278Y285666D01*
X553391Y288490D01*
X550990Y290891D01*
X548166Y292778D01*
X545029Y294077D01*
X541698Y294740D01*
D02*
G37*
G36*
X236898D02*
X233502D01*
X230171Y294077D01*
X227034Y292778D01*
X224210Y290891D01*
X221809Y288490D01*
X219922Y285666D01*
X218622Y282529D01*
X217960Y279198D01*
Y275802D01*
X218622Y272471D01*
X219922Y269334D01*
X221809Y266510D01*
X224210Y264109D01*
X227034Y262222D01*
X230171Y260923D01*
X233502Y260260D01*
X236898D01*
X240229Y260923D01*
X243366Y262222D01*
X246190Y264109D01*
X248591Y266510D01*
X250478Y269334D01*
X251777Y272471D01*
X252440Y275802D01*
Y279198D01*
X251777Y282529D01*
X250478Y285666D01*
X248591Y288490D01*
X246190Y290891D01*
X243366Y292778D01*
X240229Y294077D01*
X236898Y294740D01*
D02*
G37*
G36*
X1615856Y239000D02*
X1614144D01*
X1612491Y238557D01*
X1611009Y237701D01*
X1609799Y236491D01*
X1608943Y235009D01*
X1608754Y234305D01*
X1607521Y233564D01*
X1607333Y233604D01*
X1605856Y234000D01*
X1604144D01*
X1602491Y233557D01*
X1601009Y232701D01*
X1599799Y231491D01*
X1598943Y230009D01*
X1598500Y228356D01*
Y226644D01*
X1598943Y224991D01*
X1599799Y223509D01*
X1601009Y222299D01*
X1602491Y221443D01*
X1604144Y221000D01*
X1605856D01*
X1607509Y221443D01*
X1608991Y222299D01*
X1610201Y223509D01*
X1611057Y224991D01*
X1611246Y225695D01*
X1612479Y226436D01*
X1612667Y226396D01*
X1614144Y226000D01*
X1615856D01*
X1617509Y226443D01*
X1618991Y227299D01*
X1620201Y228509D01*
X1621057Y229991D01*
X1621500Y231644D01*
Y233356D01*
X1621057Y235009D01*
X1620201Y236491D01*
X1618991Y237701D01*
X1617509Y238557D01*
X1615856Y239000D01*
D02*
G37*
G36*
X1415856D02*
X1414144D01*
X1412491Y238557D01*
X1411009Y237701D01*
X1409799Y236491D01*
X1408943Y235009D01*
X1408754Y234305D01*
X1407521Y233564D01*
X1407333Y233604D01*
X1405856Y234000D01*
X1404144D01*
X1402491Y233557D01*
X1401009Y232701D01*
X1399799Y231491D01*
X1398943Y230009D01*
X1398500Y228356D01*
Y226644D01*
X1398943Y224991D01*
X1399799Y223509D01*
X1401009Y222299D01*
X1402491Y221443D01*
X1404144Y221000D01*
X1405856D01*
X1407509Y221443D01*
X1408991Y222299D01*
X1410201Y223509D01*
X1411057Y224991D01*
X1411246Y225695D01*
X1412479Y226436D01*
X1412667Y226396D01*
X1414144Y226000D01*
X1415856D01*
X1417509Y226443D01*
X1418991Y227299D01*
X1420201Y228509D01*
X1421057Y229991D01*
X1421500Y231644D01*
Y233356D01*
X1421057Y235009D01*
X1420201Y236491D01*
X1418991Y237701D01*
X1417509Y238557D01*
X1415856Y239000D01*
D02*
G37*
G36*
X1215856D02*
X1214144D01*
X1212491Y238557D01*
X1211009Y237701D01*
X1209799Y236491D01*
X1208943Y235009D01*
X1208754Y234305D01*
X1207521Y233564D01*
X1207333Y233604D01*
X1205856Y234000D01*
X1204144D01*
X1202491Y233557D01*
X1201009Y232701D01*
X1199799Y231491D01*
X1198943Y230009D01*
X1198500Y228356D01*
Y226644D01*
X1198943Y224991D01*
X1199799Y223509D01*
X1201009Y222299D01*
X1202491Y221443D01*
X1204144Y221000D01*
X1205856D01*
X1207509Y221443D01*
X1208991Y222299D01*
X1210201Y223509D01*
X1211057Y224991D01*
X1211246Y225695D01*
X1212479Y226436D01*
X1212667Y226396D01*
X1214144Y226000D01*
X1215856D01*
X1217509Y226443D01*
X1218991Y227299D01*
X1220201Y228509D01*
X1221057Y229991D01*
X1221500Y231644D01*
Y233356D01*
X1221057Y235009D01*
X1220201Y236491D01*
X1218991Y237701D01*
X1217509Y238557D01*
X1215856Y239000D01*
D02*
G37*
G36*
X68000Y229953D02*
Y223000D01*
X74953D01*
X74682Y224010D01*
X73314Y226380D01*
X71380Y228314D01*
X69010Y229682D01*
X68000Y229953D01*
D02*
G37*
G36*
X62000D02*
X60990Y229682D01*
X58620Y228314D01*
X56686Y226380D01*
X55318Y224010D01*
X55047Y223000D01*
X62000D01*
Y229953D01*
D02*
G37*
G36*
X74953Y217000D02*
X68000D01*
Y210047D01*
X69010Y210318D01*
X71380Y211686D01*
X73314Y213620D01*
X74682Y215990D01*
X74953Y217000D01*
D02*
G37*
G36*
X62000D02*
X55047D01*
X55318Y215990D01*
X56686Y213620D01*
X58620Y211686D01*
X60990Y210318D01*
X62000Y210047D01*
Y217000D01*
D02*
G37*
G36*
X96692Y232850D02*
X93308D01*
X90040Y231974D01*
X87110Y230282D01*
X84718Y227890D01*
X83026Y224960D01*
X82150Y221692D01*
Y218308D01*
X83026Y215040D01*
X84718Y212110D01*
X87110Y209718D01*
X90040Y208026D01*
X93308Y207150D01*
X96692D01*
X99960Y208026D01*
X102890Y209718D01*
X105282Y212110D01*
X106974Y215040D01*
X107850Y218308D01*
Y221692D01*
X106974Y224960D01*
X105282Y227890D01*
X102890Y230282D01*
X99960Y231974D01*
X96692Y232850D01*
D02*
G37*
G36*
X68000Y199953D02*
Y193000D01*
X74953D01*
X74682Y194010D01*
X73314Y196380D01*
X71380Y198314D01*
X69010Y199682D01*
X68000Y199953D01*
D02*
G37*
G36*
X62000Y199953D02*
X60990Y199682D01*
X58620Y198314D01*
X56686Y196380D01*
X55318Y194010D01*
X55047Y193000D01*
X62000D01*
Y199953D01*
D02*
G37*
G36*
Y187000D02*
X55047D01*
X55318Y185990D01*
X56686Y183620D01*
X58620Y181686D01*
X60990Y180318D01*
X62000Y180047D01*
Y187000D01*
D02*
G37*
G36*
X74953D02*
X68000D01*
Y180047D01*
X69010Y180318D01*
X71380Y181686D01*
X73314Y183620D01*
X74682Y185990D01*
X74953Y187000D01*
D02*
G37*
G36*
X96692Y202850D02*
X93308D01*
X90040Y201974D01*
X87110Y200282D01*
X84718Y197890D01*
X83026Y194960D01*
X82150Y191692D01*
Y188308D01*
X83026Y185040D01*
X84718Y182110D01*
X87110Y179718D01*
X90040Y178026D01*
X93308Y177150D01*
X96692D01*
X99960Y178026D01*
X102890Y179718D01*
X105282Y182110D01*
X106974Y185040D01*
X107850Y188308D01*
Y191692D01*
X106974Y194960D01*
X105282Y197890D01*
X102890Y200282D01*
X99960Y201974D01*
X96692Y202850D01*
D02*
G37*
G36*
X240987Y157500D02*
X239013D01*
X237105Y156989D01*
X235395Y156002D01*
X235000Y155607D01*
X234605Y156002D01*
X232895Y156989D01*
X230987Y157500D01*
X229013D01*
X227105Y156989D01*
X225395Y156002D01*
X225000Y155606D01*
X224605Y156002D01*
X222895Y156989D01*
X220987Y157500D01*
X219013D01*
X217105Y156989D01*
X215395Y156002D01*
X215000Y155606D01*
X214605Y156002D01*
X212895Y156989D01*
X210987Y157500D01*
X209013D01*
X207105Y156989D01*
X205395Y156002D01*
X205000Y155606D01*
X204605Y156002D01*
X202895Y156989D01*
X200987Y157500D01*
X199013D01*
X197105Y156989D01*
X195395Y156002D01*
X193999Y154605D01*
X193011Y152895D01*
X192500Y150987D01*
Y149013D01*
X193011Y147105D01*
X193999Y145395D01*
X194393Y145000D01*
X193999Y144605D01*
X193011Y142895D01*
X192500Y140987D01*
Y139013D01*
X193011Y137105D01*
X193999Y135395D01*
X194393Y135000D01*
X193999Y134605D01*
X193011Y132895D01*
X192500Y130987D01*
Y129013D01*
X193011Y127105D01*
X193999Y125395D01*
X194393Y125000D01*
X193999Y124605D01*
X193011Y122895D01*
X192500Y120987D01*
Y119013D01*
X193011Y117105D01*
X193999Y115395D01*
X194393Y115000D01*
X193999Y114605D01*
X193011Y112895D01*
X192500Y110987D01*
Y109013D01*
X192674Y108363D01*
X191637Y107326D01*
X190987Y107500D01*
X189013D01*
X187105Y106989D01*
X185395Y106002D01*
X185000Y105607D01*
X184605Y106002D01*
X182895Y106989D01*
X180987Y107500D01*
X179013D01*
X177105Y106989D01*
X175395Y106002D01*
X175000Y105606D01*
X174605Y106002D01*
X172895Y106989D01*
X170987Y107500D01*
X169013D01*
X167105Y106989D01*
X165395Y106002D01*
X165000Y105606D01*
X164605Y106002D01*
X162895Y106989D01*
X160987Y107500D01*
X159013D01*
X158363Y107326D01*
X157326Y108363D01*
X157500Y109013D01*
Y110987D01*
X156989Y112895D01*
X156002Y114605D01*
X155607Y115000D01*
X156002Y115395D01*
X156989Y117105D01*
X157500Y119013D01*
Y120987D01*
X156989Y122895D01*
X156002Y124605D01*
X155607Y125000D01*
X156002Y125395D01*
X156989Y127105D01*
X157500Y129013D01*
Y130987D01*
X156989Y132895D01*
X156002Y134605D01*
X155607Y135000D01*
X156002Y135395D01*
X156989Y137105D01*
X157500Y139013D01*
Y140987D01*
X156989Y142895D01*
X156002Y144605D01*
X155607Y145000D01*
X156002Y145395D01*
X156989Y147105D01*
X157500Y149013D01*
Y150987D01*
X156989Y152895D01*
X156002Y154605D01*
X154605Y156002D01*
X152895Y156989D01*
X150987Y157500D01*
X149013D01*
X147105Y156989D01*
X145395Y156002D01*
X143998Y154605D01*
X143011Y152895D01*
X142500Y150987D01*
Y149013D01*
X143011Y147105D01*
X143998Y145395D01*
X144393Y145000D01*
X143998Y144605D01*
X143011Y142895D01*
X142500Y140987D01*
Y139013D01*
X143011Y137105D01*
X143998Y135395D01*
X144393Y135000D01*
X143998Y134605D01*
X143011Y132895D01*
X142500Y130987D01*
Y129013D01*
X143011Y127105D01*
X143998Y125395D01*
X144393Y125000D01*
X143998Y124605D01*
X143011Y122895D01*
X142500Y120987D01*
Y119013D01*
X143011Y117105D01*
X143998Y115395D01*
X144393Y115000D01*
X143998Y114605D01*
X143011Y112895D01*
X142500Y110987D01*
Y109013D01*
X143011Y107105D01*
X143998Y105395D01*
X144393Y105000D01*
X143998Y104605D01*
X143011Y102895D01*
X142500Y100987D01*
Y99013D01*
X143011Y97105D01*
X143998Y95395D01*
X145395Y93998D01*
X147105Y93011D01*
X149013Y92500D01*
X150987D01*
X152895Y93011D01*
X154605Y93998D01*
X155000Y94393D01*
X155395Y93998D01*
X157105Y93011D01*
X159013Y92500D01*
X160987D01*
X162895Y93011D01*
X164605Y93998D01*
X165000Y94393D01*
X165395Y93998D01*
X167105Y93011D01*
X169013Y92500D01*
X170987D01*
X172895Y93011D01*
X174605Y93998D01*
X175000Y94393D01*
X175395Y93998D01*
X177105Y93011D01*
X179013Y92500D01*
X180987D01*
X182895Y93011D01*
X184605Y93998D01*
X185000Y94393D01*
X185395Y93998D01*
X187105Y93011D01*
X189013Y92500D01*
X190987D01*
X192895Y93011D01*
X194605Y93998D01*
X195000Y94393D01*
X195395Y93998D01*
X197105Y93011D01*
X199013Y92500D01*
X200987D01*
X202895Y93011D01*
X204605Y93998D01*
X205000Y94393D01*
X205395Y93998D01*
X207105Y93011D01*
X209013Y92500D01*
X210987D01*
X212895Y93011D01*
X214605Y93998D01*
X215000Y94393D01*
X215395Y93998D01*
X217105Y93011D01*
X219013Y92500D01*
X220987D01*
X222895Y93011D01*
X224605Y93998D01*
X225000Y94393D01*
X225395Y93998D01*
X227105Y93011D01*
X229013Y92500D01*
X230987D01*
X232895Y93011D01*
X234605Y93998D01*
X235000Y94393D01*
X235395Y93998D01*
X237105Y93011D01*
X239013Y92500D01*
X240987D01*
X242895Y93011D01*
X244605Y93998D01*
X246001Y95395D01*
X246989Y97105D01*
X247500Y99013D01*
Y100987D01*
X246989Y102895D01*
X246001Y104605D01*
X245607Y105000D01*
X246001Y105395D01*
X246989Y107105D01*
X247500Y109013D01*
Y110987D01*
X246989Y112895D01*
X246001Y114605D01*
X245607Y115000D01*
X246001Y115395D01*
X246989Y117105D01*
X247500Y119013D01*
Y120987D01*
X246989Y122895D01*
X246001Y124605D01*
X245607Y125000D01*
X246001Y125395D01*
X246989Y127105D01*
X247500Y129013D01*
Y130987D01*
X246989Y132895D01*
X246001Y134605D01*
X245607Y135000D01*
X246001Y135395D01*
X246989Y137105D01*
X247500Y139013D01*
Y140987D01*
X246989Y142895D01*
X246001Y144605D01*
X245607Y145000D01*
X246001Y145395D01*
X246989Y147105D01*
X247500Y149013D01*
Y150987D01*
X246989Y152895D01*
X246001Y154605D01*
X244605Y156002D01*
X242895Y156989D01*
X240987Y157500D01*
D02*
G37*
G36*
X96297Y169850D02*
X93703D01*
X91198Y169179D01*
X88952Y167882D01*
X87118Y166048D01*
X85821Y163802D01*
X85150Y161297D01*
Y158703D01*
X85821Y156198D01*
X87118Y153952D01*
X88952Y152118D01*
X91198Y150821D01*
X93703Y150150D01*
X96297D01*
X98802Y150821D01*
X101048Y152118D01*
X102882Y153952D01*
X104179Y156198D01*
X104850Y158703D01*
Y161297D01*
X104179Y163802D01*
X102882Y166048D01*
X101048Y167882D01*
X98802Y169179D01*
X96297Y169850D01*
D02*
G37*
G36*
X66297D02*
X63703D01*
X61198Y169179D01*
X58952Y167882D01*
X57118Y166048D01*
X55821Y163802D01*
X55150Y161297D01*
Y158703D01*
X55821Y156198D01*
X57118Y153952D01*
X58952Y152118D01*
X61198Y150821D01*
X63703Y150150D01*
X66297D01*
X68802Y150821D01*
X71048Y152118D01*
X72882Y153952D01*
X74179Y156198D01*
X74850Y158703D01*
Y161297D01*
X74179Y163802D01*
X72882Y166048D01*
X71048Y167882D01*
X68802Y169179D01*
X66297Y169850D01*
D02*
G37*
G36*
X68000Y139953D02*
Y133000D01*
X74953D01*
X74682Y134010D01*
X73314Y136380D01*
X71380Y138314D01*
X69010Y139682D01*
X68000Y139953D01*
D02*
G37*
G36*
X62000Y139953D02*
X60990Y139682D01*
X58620Y138314D01*
X56686Y136380D01*
X55318Y134010D01*
X55047Y133000D01*
X62000D01*
Y139953D01*
D02*
G37*
G36*
X1485856Y141500D02*
X1484144D01*
X1482491Y141057D01*
X1481009Y140201D01*
X1479799Y138991D01*
X1478943Y137509D01*
X1478500Y135856D01*
Y134144D01*
X1478943Y132491D01*
X1479799Y131009D01*
X1481009Y129799D01*
X1482491Y128943D01*
X1484144Y128500D01*
X1485856D01*
X1487509Y128943D01*
X1488991Y129799D01*
X1490201Y131009D01*
X1491057Y132491D01*
X1491500Y134144D01*
Y135856D01*
X1491057Y137509D01*
X1490201Y138991D01*
X1488991Y140201D01*
X1487509Y141057D01*
X1485856Y141500D01*
D02*
G37*
G36*
X1285856D02*
X1284144D01*
X1282491Y141057D01*
X1281009Y140201D01*
X1279799Y138991D01*
X1278943Y137509D01*
X1278500Y135856D01*
Y134144D01*
X1278943Y132491D01*
X1279799Y131009D01*
X1281009Y129799D01*
X1282491Y128943D01*
X1284144Y128500D01*
X1285856D01*
X1287509Y128943D01*
X1288991Y129799D01*
X1290201Y131009D01*
X1291057Y132491D01*
X1291500Y134144D01*
Y135856D01*
X1291057Y137509D01*
X1290201Y138991D01*
X1288991Y140201D01*
X1287509Y141057D01*
X1285856Y141500D01*
D02*
G37*
G36*
X1085856D02*
X1084144D01*
X1082491Y141057D01*
X1081009Y140201D01*
X1079799Y138991D01*
X1078943Y137509D01*
X1078500Y135856D01*
Y134144D01*
X1078943Y132491D01*
X1079799Y131009D01*
X1081009Y129799D01*
X1082491Y128943D01*
X1084144Y128500D01*
X1085856D01*
X1087509Y128943D01*
X1088991Y129799D01*
X1090201Y131009D01*
X1091057Y132491D01*
X1091500Y134144D01*
Y135856D01*
X1091057Y137509D01*
X1090201Y138991D01*
X1088991Y140201D01*
X1087509Y141057D01*
X1085856Y141500D01*
D02*
G37*
G36*
X925856D02*
X924144D01*
X922491Y141057D01*
X921009Y140201D01*
X919799Y138991D01*
X918943Y137509D01*
X918500Y135856D01*
Y134144D01*
X918943Y132491D01*
X919799Y131009D01*
X921009Y129799D01*
X922491Y128943D01*
X924144Y128500D01*
X925856D01*
X927509Y128943D01*
X928991Y129799D01*
X930201Y131009D01*
X931057Y132491D01*
X931500Y134144D01*
Y135856D01*
X931057Y137509D01*
X930201Y138991D01*
X928991Y140201D01*
X927509Y141057D01*
X925856Y141500D01*
D02*
G37*
G36*
X885856D02*
X884144D01*
X882491Y141057D01*
X881009Y140201D01*
X879799Y138991D01*
X878943Y137509D01*
X878500Y135856D01*
Y134144D01*
X878943Y132491D01*
X879799Y131009D01*
X881009Y129799D01*
X882491Y128943D01*
X884144Y128500D01*
X885856D01*
X887509Y128943D01*
X888991Y129799D01*
X890201Y131009D01*
X891057Y132491D01*
X891500Y134144D01*
Y135856D01*
X891057Y137509D01*
X890201Y138991D01*
X888991Y140201D01*
X887509Y141057D01*
X885856Y141500D01*
D02*
G37*
G36*
X725856D02*
X724144D01*
X722491Y141057D01*
X721009Y140201D01*
X719799Y138991D01*
X718943Y137509D01*
X718500Y135856D01*
Y134144D01*
X718943Y132491D01*
X719799Y131009D01*
X721009Y129799D01*
X722491Y128943D01*
X724144Y128500D01*
X725856D01*
X727509Y128943D01*
X728991Y129799D01*
X730201Y131009D01*
X731057Y132491D01*
X731500Y134144D01*
Y135856D01*
X731057Y137509D01*
X730201Y138991D01*
X728991Y140201D01*
X727509Y141057D01*
X725856Y141500D01*
D02*
G37*
G36*
X685856D02*
X684144D01*
X682491Y141057D01*
X681009Y140201D01*
X679799Y138991D01*
X678943Y137509D01*
X678500Y135856D01*
Y134144D01*
X678943Y132491D01*
X679799Y131009D01*
X681009Y129799D01*
X682491Y128943D01*
X684144Y128500D01*
X685856D01*
X687509Y128943D01*
X688991Y129799D01*
X690201Y131009D01*
X691057Y132491D01*
X691500Y134144D01*
Y135856D01*
X691057Y137509D01*
X690201Y138991D01*
X688991Y140201D01*
X687509Y141057D01*
X685856Y141500D01*
D02*
G37*
G36*
X525856D02*
X524144D01*
X522491Y141057D01*
X521009Y140201D01*
X519799Y138991D01*
X518943Y137509D01*
X518500Y135856D01*
Y134144D01*
X518943Y132491D01*
X519799Y131009D01*
X521009Y129799D01*
X522491Y128943D01*
X524144Y128500D01*
X525856D01*
X527509Y128943D01*
X528991Y129799D01*
X530201Y131009D01*
X531057Y132491D01*
X531500Y134144D01*
Y135856D01*
X531057Y137509D01*
X530201Y138991D01*
X528991Y140201D01*
X527509Y141057D01*
X525856Y141500D01*
D02*
G37*
G36*
X485856D02*
X484144D01*
X482491Y141057D01*
X481009Y140201D01*
X479799Y138991D01*
X478943Y137509D01*
X478500Y135856D01*
Y134144D01*
X478943Y132491D01*
X479799Y131009D01*
X481009Y129799D01*
X482491Y128943D01*
X484144Y128500D01*
X485856D01*
X487509Y128943D01*
X488991Y129799D01*
X490201Y131009D01*
X491057Y132491D01*
X491500Y134144D01*
Y135856D01*
X491057Y137509D01*
X490201Y138991D01*
X488991Y140201D01*
X487509Y141057D01*
X485856Y141500D01*
D02*
G37*
G36*
X285856D02*
X284144D01*
X282491Y141057D01*
X281009Y140201D01*
X279799Y138991D01*
X278943Y137509D01*
X278500Y135856D01*
Y134144D01*
X278943Y132491D01*
X279799Y131009D01*
X281009Y129799D01*
X282491Y128943D01*
X284144Y128500D01*
X285856D01*
X287509Y128943D01*
X288991Y129799D01*
X290201Y131009D01*
X291057Y132491D01*
X291500Y134144D01*
Y135856D01*
X291057Y137509D01*
X290201Y138991D01*
X288991Y140201D01*
X287509Y141057D01*
X285856Y141500D01*
D02*
G37*
G36*
X1125856Y136500D02*
X1124144D01*
X1122491Y136057D01*
X1121009Y135201D01*
X1119799Y133991D01*
X1118943Y132509D01*
X1118500Y130856D01*
Y129144D01*
X1118943Y127491D01*
X1119799Y126009D01*
X1121009Y124799D01*
X1122491Y123943D01*
X1124144Y123500D01*
X1125856D01*
X1127509Y123943D01*
X1128991Y124799D01*
X1130201Y126009D01*
X1131057Y127491D01*
X1131500Y129144D01*
Y130856D01*
X1131057Y132509D01*
X1130201Y133991D01*
X1128991Y135201D01*
X1127509Y136057D01*
X1125856Y136500D01*
D02*
G37*
G36*
X62000Y127000D02*
X55047D01*
X55318Y125990D01*
X56686Y123620D01*
X58620Y121686D01*
X60990Y120318D01*
X62000Y120047D01*
Y127000D01*
D02*
G37*
G36*
X74953D02*
X68000D01*
Y120047D01*
X69010Y120318D01*
X71380Y121686D01*
X73314Y123620D01*
X74682Y125990D01*
X74953Y127000D01*
D02*
G37*
G36*
X96692Y142850D02*
X93308D01*
X90040Y141974D01*
X87110Y140282D01*
X84718Y137890D01*
X83026Y134960D01*
X82150Y131692D01*
Y128308D01*
X83026Y125040D01*
X84718Y122110D01*
X87110Y119718D01*
X90040Y118026D01*
X93308Y117150D01*
X96692D01*
X99960Y118026D01*
X102890Y119718D01*
X105282Y122110D01*
X106974Y125040D01*
X107850Y128308D01*
Y131692D01*
X106974Y134960D01*
X105282Y137890D01*
X102890Y140282D01*
X99960Y141974D01*
X96692Y142850D01*
D02*
G37*
G36*
X1530856Y126500D02*
X1529144D01*
X1527491Y126057D01*
X1526009Y125201D01*
X1524799Y123991D01*
X1523943Y122509D01*
X1523500Y120856D01*
Y119144D01*
X1523943Y117491D01*
X1524799Y116009D01*
X1526009Y114799D01*
X1527491Y113943D01*
X1529144Y113500D01*
X1530856D01*
X1532509Y113943D01*
X1533991Y114799D01*
X1535201Y116009D01*
X1536057Y117491D01*
X1536500Y119144D01*
Y120856D01*
X1536057Y122509D01*
X1535201Y123991D01*
X1533991Y125201D01*
X1532509Y126057D01*
X1530856Y126500D01*
D02*
G37*
G36*
X1330856D02*
X1329144D01*
X1327491Y126057D01*
X1326009Y125201D01*
X1324799Y123991D01*
X1323943Y122509D01*
X1323500Y120856D01*
Y119144D01*
X1323943Y117491D01*
X1324799Y116009D01*
X1326009Y114799D01*
X1327491Y113943D01*
X1329144Y113500D01*
X1330856D01*
X1332509Y113943D01*
X1333991Y114799D01*
X1335201Y116009D01*
X1336057Y117491D01*
X1336500Y119144D01*
Y120856D01*
X1336057Y122509D01*
X1335201Y123991D01*
X1333991Y125201D01*
X1332509Y126057D01*
X1330856Y126500D01*
D02*
G37*
G36*
X335856D02*
X334144D01*
X332491Y126057D01*
X331009Y125201D01*
X329799Y123991D01*
X328943Y122509D01*
X328500Y120856D01*
Y119144D01*
X328943Y117491D01*
X329799Y116009D01*
X331009Y114799D01*
X332491Y113943D01*
X334144Y113500D01*
X335856D01*
X337509Y113943D01*
X338991Y114799D01*
X340201Y116009D01*
X341057Y117491D01*
X341500Y119144D01*
Y120856D01*
X341057Y122509D01*
X340201Y123991D01*
X338991Y125201D01*
X337509Y126057D01*
X335856Y126500D01*
D02*
G37*
G36*
X75390Y110390D02*
X68000D01*
Y103000D01*
X75390D01*
Y110390D01*
D02*
G37*
G36*
X62000D02*
X54610D01*
Y103000D01*
X62000D01*
Y110390D01*
D02*
G37*
G36*
X1610000Y125000D02*
X1560000D01*
Y100000D01*
X1610000D01*
Y125000D01*
D02*
G37*
G36*
X1410000D02*
X1360000D01*
Y100000D01*
X1410000D01*
Y125000D01*
D02*
G37*
G36*
X1210000D02*
X1160000D01*
Y100000D01*
X1210000D01*
Y125000D01*
D02*
G37*
G36*
X1010000D02*
X960000D01*
Y100000D01*
X1010000D01*
Y125000D01*
D02*
G37*
G36*
X810000D02*
X760000D01*
Y100000D01*
X810000D01*
Y125000D01*
D02*
G37*
G36*
X610000D02*
X560000D01*
Y100000D01*
X610000D01*
Y125000D01*
D02*
G37*
G36*
X410000D02*
X360000D01*
Y100000D01*
X410000D01*
Y125000D01*
D02*
G37*
G36*
X75390Y97000D02*
X68000D01*
Y89610D01*
X75390D01*
Y97000D01*
D02*
G37*
G36*
X62000D02*
X54610D01*
Y89610D01*
X62000D01*
Y97000D01*
D02*
G37*
G36*
X96692Y112850D02*
X93308D01*
X90040Y111974D01*
X87110Y110282D01*
X84718Y107890D01*
X83026Y104960D01*
X82150Y101692D01*
Y98308D01*
X83026Y95040D01*
X84718Y92110D01*
X87110Y89718D01*
X90040Y88026D01*
X93308Y87150D01*
X96692D01*
X99960Y88026D01*
X102890Y89718D01*
X105282Y92110D01*
X106974Y95040D01*
X107850Y98308D01*
Y101692D01*
X106974Y104960D01*
X105282Y107890D01*
X102890Y110282D01*
X99960Y111974D01*
X96692Y112850D01*
D02*
G37*
G36*
X1642040Y102540D02*
X1635000D01*
Y85500D01*
X1642040D01*
Y102540D01*
D02*
G37*
G36*
X1629000D02*
X1621960D01*
Y85500D01*
X1629000D01*
Y102540D01*
D02*
G37*
G36*
X1442040D02*
X1435000D01*
Y85500D01*
X1442040D01*
Y102540D01*
D02*
G37*
G36*
X1429000D02*
X1421960D01*
Y85500D01*
X1429000D01*
Y102540D01*
D02*
G37*
G36*
X1242040D02*
X1235000D01*
Y85500D01*
X1242040D01*
Y102540D01*
D02*
G37*
G36*
X1229000D02*
X1221960D01*
Y85500D01*
X1229000D01*
Y102540D01*
D02*
G37*
G36*
X1042040D02*
X1035000D01*
Y85500D01*
X1042040D01*
Y102540D01*
D02*
G37*
G36*
X1029000D02*
X1021960D01*
Y85500D01*
X1029000D01*
Y102540D01*
D02*
G37*
G36*
X842040D02*
X835000D01*
Y85500D01*
X842040D01*
Y102540D01*
D02*
G37*
G36*
X829000D02*
X821960D01*
Y85500D01*
X829000D01*
Y102540D01*
D02*
G37*
G36*
X642040D02*
X635000D01*
Y85500D01*
X642040D01*
Y102540D01*
D02*
G37*
G36*
X629000D02*
X621960D01*
Y85500D01*
X629000D01*
Y102540D01*
D02*
G37*
G36*
X442040D02*
X435000D01*
Y85500D01*
X442040D01*
Y102540D01*
D02*
G37*
G36*
X429000D02*
X421960D01*
Y85500D01*
X429000D01*
Y102540D01*
D02*
G37*
G36*
X1511466Y80596D02*
X1509334D01*
X1507275Y80044D01*
X1505429Y78978D01*
X1503922Y77471D01*
X1502856Y75625D01*
X1502304Y73566D01*
Y71434D01*
X1502856Y69375D01*
X1503922Y67529D01*
X1505429Y66022D01*
X1507275Y64956D01*
X1509334Y64404D01*
X1511466D01*
X1513525Y64956D01*
X1515371Y66022D01*
X1516878Y67529D01*
X1517944Y69375D01*
X1518496Y71434D01*
Y73566D01*
X1517944Y75625D01*
X1516878Y77471D01*
X1515371Y78978D01*
X1513525Y80044D01*
X1511466Y80596D01*
D02*
G37*
G36*
X1486066D02*
X1483934D01*
X1481875Y80044D01*
X1480029Y78978D01*
X1478522Y77471D01*
X1477456Y75625D01*
X1476904Y73566D01*
Y71434D01*
X1477456Y69375D01*
X1478522Y67529D01*
X1480029Y66022D01*
X1481875Y64956D01*
X1483934Y64404D01*
X1486066D01*
X1488125Y64956D01*
X1489971Y66022D01*
X1491478Y67529D01*
X1492544Y69375D01*
X1493096Y71434D01*
Y73566D01*
X1492544Y75625D01*
X1491478Y77471D01*
X1489971Y78978D01*
X1488125Y80044D01*
X1486066Y80596D01*
D02*
G37*
G36*
X1311466D02*
X1309334D01*
X1307275Y80044D01*
X1305429Y78978D01*
X1303922Y77471D01*
X1302856Y75625D01*
X1302304Y73566D01*
Y71434D01*
X1302856Y69375D01*
X1303922Y67529D01*
X1305429Y66022D01*
X1307275Y64956D01*
X1309334Y64404D01*
X1311466D01*
X1313525Y64956D01*
X1315371Y66022D01*
X1316878Y67529D01*
X1317944Y69375D01*
X1318496Y71434D01*
Y73566D01*
X1317944Y75625D01*
X1316878Y77471D01*
X1315371Y78978D01*
X1313525Y80044D01*
X1311466Y80596D01*
D02*
G37*
G36*
X1286066D02*
X1283934D01*
X1281875Y80044D01*
X1280029Y78978D01*
X1278522Y77471D01*
X1277456Y75625D01*
X1276904Y73566D01*
Y71434D01*
X1277456Y69375D01*
X1278522Y67529D01*
X1280029Y66022D01*
X1281875Y64956D01*
X1283934Y64404D01*
X1286066D01*
X1288125Y64956D01*
X1289971Y66022D01*
X1291478Y67529D01*
X1292544Y69375D01*
X1293096Y71434D01*
Y73566D01*
X1292544Y75625D01*
X1291478Y77471D01*
X1289971Y78978D01*
X1288125Y80044D01*
X1286066Y80596D01*
D02*
G37*
G36*
X1111466D02*
X1109334D01*
X1107275Y80044D01*
X1105429Y78978D01*
X1103922Y77471D01*
X1102856Y75625D01*
X1102304Y73566D01*
Y71434D01*
X1102856Y69375D01*
X1103922Y67529D01*
X1105429Y66022D01*
X1107275Y64956D01*
X1109334Y64404D01*
X1111466D01*
X1113525Y64956D01*
X1115371Y66022D01*
X1116878Y67529D01*
X1117944Y69375D01*
X1118496Y71434D01*
Y73566D01*
X1117944Y75625D01*
X1116878Y77471D01*
X1115371Y78978D01*
X1113525Y80044D01*
X1111466Y80596D01*
D02*
G37*
G36*
X1086066D02*
X1083934D01*
X1081875Y80044D01*
X1080029Y78978D01*
X1078522Y77471D01*
X1077456Y75625D01*
X1076904Y73566D01*
Y71434D01*
X1077456Y69375D01*
X1078522Y67529D01*
X1080029Y66022D01*
X1081875Y64956D01*
X1083934Y64404D01*
X1086066D01*
X1088125Y64956D01*
X1089971Y66022D01*
X1091478Y67529D01*
X1092544Y69375D01*
X1093096Y71434D01*
Y73566D01*
X1092544Y75625D01*
X1091478Y77471D01*
X1089971Y78978D01*
X1088125Y80044D01*
X1086066Y80596D01*
D02*
G37*
G36*
X911466D02*
X909334D01*
X907275Y80044D01*
X905429Y78978D01*
X903922Y77471D01*
X902856Y75625D01*
X902304Y73566D01*
Y71434D01*
X902856Y69375D01*
X903922Y67529D01*
X905429Y66022D01*
X907275Y64956D01*
X909334Y64404D01*
X911466D01*
X913525Y64956D01*
X915371Y66022D01*
X916878Y67529D01*
X917944Y69375D01*
X918496Y71434D01*
Y73566D01*
X917944Y75625D01*
X916878Y77471D01*
X915371Y78978D01*
X913525Y80044D01*
X911466Y80596D01*
D02*
G37*
G36*
X886066D02*
X883934D01*
X881875Y80044D01*
X880029Y78978D01*
X878522Y77471D01*
X877456Y75625D01*
X876904Y73566D01*
Y71434D01*
X877456Y69375D01*
X878522Y67529D01*
X880029Y66022D01*
X881875Y64956D01*
X883934Y64404D01*
X886066D01*
X888125Y64956D01*
X889971Y66022D01*
X891478Y67529D01*
X892544Y69375D01*
X893096Y71434D01*
Y73566D01*
X892544Y75625D01*
X891478Y77471D01*
X889971Y78978D01*
X888125Y80044D01*
X886066Y80596D01*
D02*
G37*
G36*
X711466D02*
X709334D01*
X707275Y80044D01*
X705429Y78978D01*
X703922Y77471D01*
X702856Y75625D01*
X702304Y73566D01*
Y71434D01*
X702856Y69375D01*
X703922Y67529D01*
X705429Y66022D01*
X707275Y64956D01*
X709334Y64404D01*
X711466D01*
X713525Y64956D01*
X715371Y66022D01*
X716878Y67529D01*
X717944Y69375D01*
X718496Y71434D01*
Y73566D01*
X717944Y75625D01*
X716878Y77471D01*
X715371Y78978D01*
X713525Y80044D01*
X711466Y80596D01*
D02*
G37*
G36*
X686066D02*
X683934D01*
X681875Y80044D01*
X680029Y78978D01*
X678522Y77471D01*
X677456Y75625D01*
X676904Y73566D01*
Y71434D01*
X677456Y69375D01*
X678522Y67529D01*
X680029Y66022D01*
X681875Y64956D01*
X683934Y64404D01*
X686066D01*
X688125Y64956D01*
X689971Y66022D01*
X691478Y67529D01*
X692544Y69375D01*
X693096Y71434D01*
Y73566D01*
X692544Y75625D01*
X691478Y77471D01*
X689971Y78978D01*
X688125Y80044D01*
X686066Y80596D01*
D02*
G37*
G36*
X511466D02*
X509334D01*
X507275Y80044D01*
X505429Y78978D01*
X503922Y77471D01*
X502856Y75625D01*
X502304Y73566D01*
Y71434D01*
X502856Y69375D01*
X503922Y67529D01*
X505429Y66022D01*
X507275Y64956D01*
X509334Y64404D01*
X511466D01*
X513525Y64956D01*
X515371Y66022D01*
X516878Y67529D01*
X517944Y69375D01*
X518496Y71434D01*
Y73566D01*
X517944Y75625D01*
X516878Y77471D01*
X515371Y78978D01*
X513525Y80044D01*
X511466Y80596D01*
D02*
G37*
G36*
X486066D02*
X483934D01*
X481875Y80044D01*
X480029Y78978D01*
X478522Y77471D01*
X477456Y75625D01*
X476904Y73566D01*
Y71434D01*
X477456Y69375D01*
X478522Y67529D01*
X480029Y66022D01*
X481875Y64956D01*
X483934Y64404D01*
X486066D01*
X488125Y64956D01*
X489971Y66022D01*
X491478Y67529D01*
X492544Y69375D01*
X493096Y71434D01*
Y73566D01*
X492544Y75625D01*
X491478Y77471D01*
X489971Y78978D01*
X488125Y80044D01*
X486066Y80596D01*
D02*
G37*
G36*
X311466D02*
X309334D01*
X307275Y80044D01*
X305429Y78978D01*
X303922Y77471D01*
X302856Y75625D01*
X302304Y73566D01*
Y71434D01*
X302856Y69375D01*
X303922Y67529D01*
X305429Y66022D01*
X307275Y64956D01*
X309334Y64404D01*
X311466D01*
X313525Y64956D01*
X315371Y66022D01*
X316878Y67529D01*
X317944Y69375D01*
X318496Y71434D01*
Y73566D01*
X317944Y75625D01*
X316878Y77471D01*
X315371Y78978D01*
X313525Y80044D01*
X311466Y80596D01*
D02*
G37*
G36*
X286066D02*
X283934D01*
X281875Y80044D01*
X280029Y78978D01*
X278522Y77471D01*
X277456Y75625D01*
X276904Y73566D01*
Y71434D01*
X277456Y69375D01*
X278522Y67529D01*
X280029Y66022D01*
X281875Y64956D01*
X283934Y64404D01*
X286066D01*
X288125Y64956D01*
X289971Y66022D01*
X291478Y67529D01*
X292544Y69375D01*
X293096Y71434D01*
Y73566D01*
X292544Y75625D01*
X291478Y77471D01*
X289971Y78978D01*
X288125Y80044D01*
X286066Y80596D01*
D02*
G37*
G36*
X1642040Y79500D02*
X1635000D01*
Y62460D01*
X1642040D01*
Y79500D01*
D02*
G37*
G36*
X1629000D02*
X1621960D01*
Y62460D01*
X1629000D01*
Y79500D01*
D02*
G37*
G36*
X1442040D02*
X1435000D01*
Y62460D01*
X1442040D01*
Y79500D01*
D02*
G37*
G36*
X1429000D02*
X1421960D01*
Y62460D01*
X1429000D01*
Y79500D01*
D02*
G37*
G36*
X1242040D02*
X1235000D01*
Y62460D01*
X1242040D01*
Y79500D01*
D02*
G37*
G36*
X1229000D02*
X1221960D01*
Y62460D01*
X1229000D01*
Y79500D01*
D02*
G37*
G36*
X1042040D02*
X1035000D01*
Y62460D01*
X1042040D01*
Y79500D01*
D02*
G37*
G36*
X1029000D02*
X1021960D01*
Y62460D01*
X1029000D01*
Y79500D01*
D02*
G37*
G36*
X842040D02*
X835000D01*
Y62460D01*
X842040D01*
Y79500D01*
D02*
G37*
G36*
X829000D02*
X821960D01*
Y62460D01*
X829000D01*
Y79500D01*
D02*
G37*
G36*
X642040D02*
X635000D01*
Y62460D01*
X642040D01*
Y79500D01*
D02*
G37*
G36*
X629000D02*
X621960D01*
Y62460D01*
X629000D01*
Y79500D01*
D02*
G37*
G36*
X442040D02*
X435000D01*
Y62460D01*
X442040D01*
Y79500D01*
D02*
G37*
G36*
X429000D02*
X421960D01*
Y62460D01*
X429000D01*
Y79500D01*
D02*
G37*
G36*
X1205040Y62540D02*
X1188000D01*
Y55500D01*
X1205040D01*
Y62540D01*
D02*
G37*
G36*
X1005040D02*
X988000D01*
Y55500D01*
X1005040D01*
Y62540D01*
D02*
G37*
G36*
X805040D02*
X788000D01*
Y55500D01*
X805040D01*
Y62540D01*
D02*
G37*
G36*
X605040D02*
X588000D01*
Y55500D01*
X605040D01*
Y62540D01*
D02*
G37*
G36*
X1182000D02*
X1164960D01*
Y55500D01*
X1182000D01*
Y62540D01*
D02*
G37*
G36*
X982000D02*
X964960D01*
Y55500D01*
X982000D01*
Y62540D01*
D02*
G37*
G36*
X782000D02*
X764960D01*
Y55500D01*
X782000D01*
Y62540D01*
D02*
G37*
G36*
X582000D02*
X564960D01*
Y55500D01*
X582000D01*
Y62540D01*
D02*
G37*
G36*
X405040D02*
X388000D01*
Y55500D01*
X405040D01*
Y62540D01*
D02*
G37*
G36*
X382000D02*
X364960D01*
Y55500D01*
X382000D01*
Y62540D01*
D02*
G37*
G36*
X1605040D02*
X1588000D01*
Y55500D01*
X1605040D01*
Y62540D01*
D02*
G37*
G36*
X1405040D02*
X1388000D01*
Y55500D01*
X1405040D01*
Y62540D01*
D02*
G37*
G36*
X1582000D02*
X1564960D01*
Y55500D01*
X1582000D01*
Y62540D01*
D02*
G37*
G36*
X1382000D02*
X1364960D01*
Y55500D01*
X1382000D01*
Y62540D01*
D02*
G37*
G36*
X1605040Y49500D02*
X1588000D01*
Y42460D01*
X1605040D01*
Y49500D01*
D02*
G37*
G36*
X1582000D02*
X1564960D01*
Y42460D01*
X1582000D01*
Y49500D01*
D02*
G37*
G36*
X1405040D02*
X1388000D01*
Y42460D01*
X1405040D01*
Y49500D01*
D02*
G37*
G36*
X1382000D02*
X1364960D01*
Y42460D01*
X1382000D01*
Y49500D01*
D02*
G37*
G36*
X1205040Y49500D02*
X1188000D01*
Y42460D01*
X1205040D01*
Y49500D01*
D02*
G37*
G36*
X1182000D02*
X1164960D01*
Y42460D01*
X1182000D01*
Y49500D01*
D02*
G37*
G36*
X1005040D02*
X988000D01*
Y42460D01*
X1005040D01*
Y49500D01*
D02*
G37*
G36*
X982000D02*
X964960D01*
Y42460D01*
X982000D01*
Y49500D01*
D02*
G37*
G36*
X805040D02*
X788000D01*
Y42460D01*
X805040D01*
Y49500D01*
D02*
G37*
G36*
X782000D02*
X764960D01*
Y42460D01*
X782000D01*
Y49500D01*
D02*
G37*
G36*
X605040D02*
X588000D01*
Y42460D01*
X605040D01*
Y49500D01*
D02*
G37*
G36*
X582000D02*
X564960D01*
Y42460D01*
X582000D01*
Y49500D01*
D02*
G37*
G36*
X405040Y49500D02*
X388000D01*
Y42460D01*
X405040D01*
Y49500D01*
D02*
G37*
G36*
X382000D02*
X364960D01*
Y42460D01*
X382000D01*
Y49500D01*
D02*
G37*
G36*
X1701871Y69000D02*
X1698129D01*
X1694458Y68270D01*
X1691000Y66838D01*
X1687888Y64758D01*
X1685242Y62112D01*
X1683162Y59000D01*
X1681730Y55542D01*
X1681000Y51871D01*
Y48129D01*
X1681730Y44458D01*
X1683162Y41000D01*
X1685242Y37888D01*
X1687888Y35242D01*
X1691000Y33162D01*
X1694458Y31730D01*
X1698129Y31000D01*
X1701871D01*
X1705542Y31730D01*
X1709000Y33162D01*
X1712112Y35242D01*
X1714758Y37888D01*
X1716838Y41000D01*
X1718270Y44458D01*
X1719000Y48129D01*
Y51871D01*
X1718270Y55542D01*
X1716838Y59000D01*
X1714758Y62112D01*
X1712112Y64758D01*
X1709000Y66838D01*
X1705542Y68270D01*
X1701871Y69000D01*
D02*
G37*
G36*
X169371D02*
X165629D01*
X161958Y68270D01*
X158500Y66838D01*
X155388Y64758D01*
X152742Y62112D01*
X150662Y59000D01*
X149230Y55542D01*
X148500Y51871D01*
Y48129D01*
X149230Y44458D01*
X150662Y41000D01*
X152742Y37888D01*
X155388Y35242D01*
X158500Y33162D01*
X161958Y31730D01*
X165629Y31000D01*
X169371D01*
X173042Y31730D01*
X176500Y33162D01*
X179612Y35242D01*
X182258Y37888D01*
X184338Y41000D01*
X185770Y44458D01*
X186500Y48129D01*
Y51871D01*
X185770Y55542D01*
X184338Y59000D01*
X182258Y62112D01*
X179612Y64758D01*
X176500Y66838D01*
X173042Y68270D01*
X169371Y69000D01*
D02*
G37*
%LPD*%
D91*
X21800Y121500D02*
D03*
Y198500D02*
D03*
D92*
X95000Y220000D02*
D03*
Y190000D02*
D03*
Y160000D02*
D03*
Y130000D02*
D03*
Y100000D02*
D03*
X65000Y220000D02*
D03*
Y190000D02*
D03*
Y160000D02*
D03*
Y130000D02*
D03*
D93*
Y100000D02*
D03*
D110*
X850000Y465000D02*
D03*
X795000Y412500D02*
D03*
X570330Y272170D02*
D03*
X674670Y392830D02*
D03*
X662500Y420000D02*
D03*
X640000D02*
D03*
X647500D02*
D03*
X567500Y505000D02*
D03*
X575000D02*
D03*
X582500D02*
D03*
X567500Y515000D02*
D03*
X575000D02*
D03*
X582500D02*
D03*
X210000Y342500D02*
D03*
X222500D02*
D03*
X235000D02*
D03*
X275000D02*
D03*
X260000D02*
D03*
X245000D02*
D03*
X1380000Y446770D02*
D03*
X338515Y430908D02*
D03*
X1320730Y369798D02*
D03*
X1247500Y370000D02*
D03*
X1275433Y353869D02*
D03*
X1135144Y182356D02*
D03*
X1124484Y188016D02*
D03*
X1343270Y182500D02*
D03*
X955000Y417500D02*
D03*
X525000Y236730D02*
D03*
X1597500Y467500D02*
D03*
X1115000Y378270D02*
D03*
X719230Y187500D02*
D03*
X524119Y187651D02*
D03*
X535016Y182491D02*
D03*
X1082971Y449319D02*
D03*
X1290000Y407500D02*
D03*
X1330000Y350000D02*
D03*
X1475000Y427500D02*
D03*
X1523016Y436984D02*
D03*
X1360000Y473270D02*
D03*
X1373902Y352157D02*
D03*
X1424464Y424464D02*
D03*
X1400000Y412500D02*
D03*
X1340056Y395040D02*
D03*
X1410000Y410000D02*
D03*
X1392014Y428005D02*
D03*
X1172500Y410000D02*
D03*
X1145000Y392500D02*
D03*
X1080431Y390601D02*
D03*
X905488Y495734D02*
D03*
X892500Y500870D02*
D03*
X684631Y410310D02*
D03*
X945770Y420770D02*
D03*
X818831D02*
D03*
X855040Y425310D02*
D03*
X1135000Y491730D02*
D03*
X915000D02*
D03*
X282531Y382339D02*
D03*
X260000Y350000D02*
D03*
X275000D02*
D03*
X222500D02*
D03*
X210000D02*
D03*
X1160209Y388303D02*
D03*
X790000Y390000D02*
D03*
X1350000Y320000D02*
D03*
X1340000D02*
D03*
X742500Y340000D02*
D03*
X762500Y377500D02*
D03*
X690000Y355000D02*
D03*
X245000Y350000D02*
D03*
X235000D02*
D03*
X655000Y420000D02*
D03*
X615000Y467500D02*
D03*
X1655000Y195000D02*
D03*
X285222Y448779D02*
D03*
X1060310Y303051D02*
D03*
X282500Y392500D02*
D03*
X1342500Y459960D02*
D03*
X1350000D02*
D03*
X1310000Y470000D02*
D03*
X1317500Y515000D02*
D03*
X1307750Y515000D02*
D03*
X1300000Y515000D02*
D03*
X1720000Y242500D02*
D03*
Y252500D02*
D03*
Y262500D02*
D03*
X1730000Y242500D02*
D03*
Y252500D02*
D03*
Y262500D02*
D03*
Y272500D02*
D03*
X1720000D02*
D03*
X1710000D02*
D03*
X1700000D02*
D03*
X1690000D02*
D03*
X1680000D02*
D03*
X1670000D02*
D03*
X1660000D02*
D03*
X1720000Y340000D02*
D03*
Y330000D02*
D03*
Y320000D02*
D03*
Y310000D02*
D03*
Y300000D02*
D03*
Y290000D02*
D03*
X1650000D02*
D03*
Y300000D02*
D03*
Y310000D02*
D03*
Y320000D02*
D03*
Y330000D02*
D03*
Y340000D02*
D03*
X1630000Y272500D02*
D03*
X1555000Y267500D02*
D03*
X370000Y477500D02*
D03*
X1082500Y475000D02*
D03*
X1092500Y472500D02*
D03*
X1327500Y460000D02*
D03*
X1335000D02*
D03*
X590000Y370000D02*
D03*
Y360000D02*
D03*
Y350000D02*
D03*
Y340000D02*
D03*
Y330000D02*
D03*
X580000D02*
D03*
Y340000D02*
D03*
Y350000D02*
D03*
Y360000D02*
D03*
Y370000D02*
D03*
X735000Y497500D02*
D03*
X590000Y495000D02*
D03*
Y505000D02*
D03*
Y515000D02*
D03*
X615000Y477500D02*
D03*
X597500Y495000D02*
D03*
Y505000D02*
D03*
Y515000D02*
D03*
X545000Y502500D02*
D03*
Y512500D02*
D03*
X285000Y470000D02*
D03*
X277500D02*
D03*
Y455000D02*
D03*
Y462500D02*
D03*
X285000Y455000D02*
D03*
Y462500D02*
D03*
X292500D02*
D03*
X282500Y377500D02*
D03*
X282344Y387240D02*
D03*
X282500Y397500D02*
D03*
X130000Y420000D02*
D03*
Y425000D02*
D03*
X120000Y420000D02*
D03*
Y425000D02*
D03*
Y430000D02*
D03*
X110000Y420000D02*
D03*
Y425000D02*
D03*
Y430000D02*
D03*
X100000Y420000D02*
D03*
Y425000D02*
D03*
Y430000D02*
D03*
X90000Y420000D02*
D03*
Y425000D02*
D03*
Y430000D02*
D03*
X80000Y420000D02*
D03*
Y425000D02*
D03*
Y430000D02*
D03*
X70000Y420000D02*
D03*
Y425000D02*
D03*
Y430000D02*
D03*
X327500Y495000D02*
D03*
X370000Y502590D02*
D03*
X735000Y490000D02*
D03*
X545000Y522500D02*
D03*
X555000D02*
D03*
X535000D02*
D03*
Y502500D02*
D03*
Y512500D02*
D03*
X555000Y502500D02*
D03*
Y512500D02*
D03*
X304904Y565541D02*
D03*
Y520541D02*
D03*
X314904Y540541D02*
D03*
X294904D02*
D03*
X207662Y327175D02*
D03*
X200000Y320000D02*
D03*
X690000Y380000D02*
D03*
X784656Y420344D02*
D03*
X790000Y460120D02*
D03*
X840000Y475000D02*
D03*
X830000D02*
D03*
X840000Y465000D02*
D03*
X860000Y540000D02*
D03*
X850000D02*
D03*
X840000D02*
D03*
X830000D02*
D03*
X820000D02*
D03*
X810000D02*
D03*
X800000D02*
D03*
X850000Y475000D02*
D03*
X840000Y530000D02*
D03*
X830000D02*
D03*
X860000D02*
D03*
X850000D02*
D03*
X800000D02*
D03*
X810000D02*
D03*
X820000D02*
D03*
X830000Y465000D02*
D03*
X820000Y485000D02*
D03*
X690000Y425000D02*
D03*
X1662500Y432500D02*
D03*
X1645457Y455417D02*
D03*
X1667500Y390000D02*
D03*
X1632500Y465000D02*
D03*
X1590000Y440000D02*
D03*
X1670000Y482500D02*
D03*
X1710000Y340000D02*
D03*
Y330000D02*
D03*
Y320000D02*
D03*
Y310000D02*
D03*
Y300000D02*
D03*
Y290000D02*
D03*
X1700000D02*
D03*
X1690000D02*
D03*
X1680000D02*
D03*
X1670000D02*
D03*
X1660000D02*
D03*
Y300000D02*
D03*
Y310000D02*
D03*
X1660359Y320667D02*
D03*
X1660000Y340000D02*
D03*
X570000Y330000D02*
D03*
Y340000D02*
D03*
Y350000D02*
D03*
Y360000D02*
D03*
Y370000D02*
D03*
X560000Y330000D02*
D03*
Y340000D02*
D03*
Y350000D02*
D03*
Y360000D02*
D03*
Y370000D02*
D03*
Y380000D02*
D03*
X550000Y330000D02*
D03*
Y340000D02*
D03*
Y350000D02*
D03*
Y360000D02*
D03*
Y370000D02*
D03*
Y380000D02*
D03*
X540000Y350000D02*
D03*
Y330000D02*
D03*
Y340000D02*
D03*
Y360000D02*
D03*
Y370000D02*
D03*
Y380000D02*
D03*
X530000Y330000D02*
D03*
Y340000D02*
D03*
Y350000D02*
D03*
Y360000D02*
D03*
Y370000D02*
D03*
Y380000D02*
D03*
X1092500Y452500D02*
D03*
X1085000Y430000D02*
D03*
X947500Y430991D02*
D03*
X880000Y432500D02*
D03*
X915000Y430000D02*
D03*
X1020000Y432540D02*
D03*
X1072500Y430000D02*
D03*
X325000Y540000D02*
D03*
X372500Y492500D02*
D03*
X365000D02*
D03*
X357500D02*
D03*
X350000D02*
D03*
X342500D02*
D03*
X335000D02*
D03*
X370000Y485000D02*
D03*
Y470000D02*
D03*
X292500Y447500D02*
D03*
X300000Y462500D02*
D03*
X307500D02*
D03*
Y455000D02*
D03*
X300000D02*
D03*
X292500D02*
D03*
X317750Y415000D02*
D03*
X309250D02*
D03*
X300750D02*
D03*
X317750Y403400D02*
D03*
X309250D02*
D03*
X300750D02*
D03*
X317750Y426600D02*
D03*
X309250D02*
D03*
X300750D02*
D03*
X309250Y394500D02*
D03*
Y435500D02*
D03*
X830000Y485000D02*
D03*
X919960Y187500D02*
D03*
X850000Y272500D02*
D03*
Y252500D02*
D03*
X840000Y262500D02*
D03*
X830000Y272500D02*
D03*
X840000Y242500D02*
D03*
X850000Y232500D02*
D03*
Y242500D02*
D03*
X830000Y262500D02*
D03*
X840000Y252500D02*
D03*
X830000D02*
D03*
Y232500D02*
D03*
X817500D02*
D03*
X845000Y197500D02*
D03*
X835000D02*
D03*
X805000Y227500D02*
D03*
X812540Y370000D02*
D03*
X817500Y252500D02*
D03*
X820000Y370000D02*
D03*
X830000Y242500D02*
D03*
X882500Y505000D02*
D03*
X582500Y270000D02*
D03*
X1106313Y369028D02*
D03*
X1100000Y360000D02*
D03*
X985000Y340000D02*
D03*
X1045000Y335000D02*
D03*
X1059954Y329672D02*
D03*
X1372500Y520000D02*
D03*
Y527500D02*
D03*
X1280000Y492500D02*
D03*
X1150000Y520000D02*
D03*
X840000Y272500D02*
D03*
Y232500D02*
D03*
X850000Y262500D02*
D03*
X425000Y170000D02*
D03*
X392500Y175000D02*
D03*
X329960Y182500D02*
D03*
X355000Y267500D02*
D03*
X375000D02*
D03*
X430000Y272500D02*
D03*
X450000Y262500D02*
D03*
X377500Y182500D02*
D03*
Y190000D02*
D03*
X440000Y252500D02*
D03*
X430000Y242500D02*
D03*
X417500Y252500D02*
D03*
X430000Y262500D02*
D03*
X440000Y272500D02*
D03*
X430000Y252500D02*
D03*
X417500Y232500D02*
D03*
X440000Y262500D02*
D03*
X450000Y272500D02*
D03*
X405000Y227500D02*
D03*
X415000Y197500D02*
D03*
X440000Y232500D02*
D03*
X392500Y182500D02*
D03*
X450000Y242500D02*
D03*
X448936Y233564D02*
D03*
X425000Y197500D02*
D03*
X435000Y197500D02*
D03*
X412500Y170000D02*
D03*
X445000Y197500D02*
D03*
X1450000Y272500D02*
D03*
X1422500Y330000D02*
D03*
X1432500D02*
D03*
X1660000D02*
D03*
X1162500Y480000D02*
D03*
X1247500Y427460D02*
D03*
X1522500Y402500D02*
D03*
X1435000Y412500D02*
D03*
X1400000Y327500D02*
D03*
X1375000Y365000D02*
D03*
X1400000Y387500D02*
D03*
X325000Y187500D02*
D03*
Y237500D02*
D03*
X440000Y242500D02*
D03*
X450000Y252500D02*
D03*
X335000Y120000D02*
D03*
X442500Y127500D02*
D03*
X285000Y135000D02*
D03*
X372500Y140000D02*
D03*
X447314Y170186D02*
D03*
X435000Y170000D02*
D03*
X377500Y175000D02*
D03*
X385000Y182500D02*
D03*
X392500Y190000D02*
D03*
X430000Y232500D02*
D03*
X1135000Y447500D02*
D03*
X1172500Y448055D02*
D03*
X1330000Y440000D02*
D03*
X1489919Y278293D02*
D03*
X1675000Y405000D02*
D03*
X1325000Y310000D02*
D03*
X1340000Y350000D02*
D03*
X285000Y540000D02*
D03*
Y552500D02*
D03*
X295000D02*
D03*
X1324920Y237500D02*
D03*
Y187500D02*
D03*
X1250000Y275000D02*
D03*
X1240000D02*
D03*
X1250000Y265000D02*
D03*
X1240000D02*
D03*
X1250000Y255000D02*
D03*
X1230000Y275000D02*
D03*
X1250000Y245000D02*
D03*
X1230000Y265000D02*
D03*
X1240000Y255000D02*
D03*
X925000Y237500D02*
D03*
X1040000Y272500D02*
D03*
X1050000D02*
D03*
X1230000Y255000D02*
D03*
X1250000Y235000D02*
D03*
X1240000Y245000D02*
D03*
X1217500Y252500D02*
D03*
X1240000Y235000D02*
D03*
X1230000Y245000D02*
D03*
X1290000Y520000D02*
D03*
X1280000D02*
D03*
X1270000D02*
D03*
X1260000D02*
D03*
X1525000Y532500D02*
D03*
X1372500Y535000D02*
D03*
X1340000Y365000D02*
D03*
X1525000Y337500D02*
D03*
X1537500Y345000D02*
D03*
X1432250Y488500D02*
D03*
X190000Y100000D02*
D03*
X180000D02*
D03*
X170000D02*
D03*
X160000D02*
D03*
X150000D02*
D03*
Y110000D02*
D03*
Y120000D02*
D03*
Y130000D02*
D03*
Y140000D02*
D03*
Y150000D02*
D03*
X240000Y100000D02*
D03*
Y110000D02*
D03*
Y120000D02*
D03*
Y130000D02*
D03*
Y140000D02*
D03*
Y150000D02*
D03*
X230000D02*
D03*
Y140000D02*
D03*
Y130000D02*
D03*
Y120000D02*
D03*
Y110000D02*
D03*
Y100000D02*
D03*
X220000D02*
D03*
Y110000D02*
D03*
Y120000D02*
D03*
Y130000D02*
D03*
Y140000D02*
D03*
Y150000D02*
D03*
X210000Y100000D02*
D03*
Y110000D02*
D03*
Y120000D02*
D03*
Y130000D02*
D03*
Y140000D02*
D03*
Y150000D02*
D03*
X200000Y100000D02*
D03*
Y110000D02*
D03*
Y120000D02*
D03*
Y130000D02*
D03*
Y140000D02*
D03*
Y150000D02*
D03*
X1432250Y508250D02*
D03*
X1471750Y468750D02*
D03*
X1452000D02*
D03*
X1432250D02*
D03*
X1452000Y508250D02*
D03*
X1471750D02*
D03*
Y488500D02*
D03*
X1452000D02*
D03*
X1530000Y120000D02*
D03*
X1378564Y183564D02*
D03*
X1375186Y172686D02*
D03*
X1485000Y135000D02*
D03*
X1330000Y120000D02*
D03*
X1125000Y130000D02*
D03*
X925000Y135000D02*
D03*
X725000D02*
D03*
X525000D02*
D03*
X1615000Y172500D02*
D03*
X1630000Y242500D02*
D03*
X1640000Y262500D02*
D03*
X1630000D02*
D03*
X1615000Y197500D02*
D03*
X1645000D02*
D03*
X1640000Y232500D02*
D03*
X1615000D02*
D03*
X1605000Y227500D02*
D03*
X1650000Y272500D02*
D03*
X1640000D02*
D03*
X1625000Y197500D02*
D03*
X1635000D02*
D03*
X1625000Y172500D02*
D03*
X1635000D02*
D03*
X1642500Y127500D02*
D03*
X1525000Y237500D02*
D03*
Y187500D02*
D03*
X1535000Y182500D02*
D03*
X1617500Y252500D02*
D03*
X1575000Y267500D02*
D03*
X1592500Y182500D02*
D03*
Y190000D02*
D03*
Y175000D02*
D03*
X1577500Y190000D02*
D03*
X1585000Y182500D02*
D03*
X1577500D02*
D03*
Y175000D02*
D03*
X1572500Y140000D02*
D03*
X1205000Y227500D02*
D03*
X1245000Y172500D02*
D03*
X1225000Y197500D02*
D03*
X1235000D02*
D03*
Y172500D02*
D03*
X1225000D02*
D03*
X1242500Y127500D02*
D03*
X1125000Y237500D02*
D03*
X1175000Y267500D02*
D03*
X1155000D02*
D03*
X1085000Y135000D02*
D03*
X1192500Y182500D02*
D03*
Y175000D02*
D03*
Y190000D02*
D03*
X1177500D02*
D03*
X1185000Y182500D02*
D03*
X1177500D02*
D03*
Y175000D02*
D03*
X1172500Y140000D02*
D03*
X1440000Y242500D02*
D03*
X1430000Y252500D02*
D03*
Y262500D02*
D03*
X1445000Y197500D02*
D03*
X1430000Y232500D02*
D03*
X1415000D02*
D03*
X1405000Y227500D02*
D03*
X1450000Y242500D02*
D03*
Y252500D02*
D03*
Y262500D02*
D03*
X1440000Y272500D02*
D03*
X1430000D02*
D03*
X1425000Y197500D02*
D03*
X1435000D02*
D03*
Y172500D02*
D03*
X1425000D02*
D03*
X1442500Y127500D02*
D03*
X1417500Y252500D02*
D03*
X1375000Y267500D02*
D03*
X1355000D02*
D03*
X1285000Y135000D02*
D03*
X1392500Y182500D02*
D03*
Y175000D02*
D03*
Y190000D02*
D03*
X1377500D02*
D03*
X1385000Y182500D02*
D03*
X1372500Y140000D02*
D03*
X1245000Y197500D02*
D03*
X1230000Y235000D02*
D03*
X1215000Y232500D02*
D03*
X1040000Y242500D02*
D03*
X1030000D02*
D03*
X1040000Y262500D02*
D03*
X1030000D02*
D03*
X1015000Y197500D02*
D03*
X1045000D02*
D03*
X1005000Y227500D02*
D03*
X1050000Y262500D02*
D03*
X1030000Y272500D02*
D03*
X1025000Y197500D02*
D03*
X1035000D02*
D03*
Y172500D02*
D03*
X1025000D02*
D03*
X1042500Y127500D02*
D03*
X935000Y182500D02*
D03*
X1017500Y252500D02*
D03*
X975000Y267500D02*
D03*
X955000D02*
D03*
X885000Y135000D02*
D03*
X992500Y182500D02*
D03*
Y175000D02*
D03*
Y190000D02*
D03*
X977500D02*
D03*
X985000Y182500D02*
D03*
X977500D02*
D03*
Y175000D02*
D03*
X972500Y140000D02*
D03*
X825000Y197500D02*
D03*
X835000Y172500D02*
D03*
X825000D02*
D03*
X842500Y127500D02*
D03*
X725000Y237500D02*
D03*
X735000Y182500D02*
D03*
X775000Y267500D02*
D03*
X755000D02*
D03*
X685000Y135000D02*
D03*
X792500Y182500D02*
D03*
Y175000D02*
D03*
Y190000D02*
D03*
X777500D02*
D03*
X785000Y182500D02*
D03*
X777500D02*
D03*
Y175000D02*
D03*
X772500Y140000D02*
D03*
X615000Y172500D02*
D03*
X640000Y242500D02*
D03*
Y262500D02*
D03*
X650000D02*
D03*
Y272500D02*
D03*
X635000Y197500D02*
D03*
X625000D02*
D03*
X635000Y172500D02*
D03*
X625000D02*
D03*
X642500Y127500D02*
D03*
X617500Y252500D02*
D03*
X485000Y135000D02*
D03*
X592500Y182500D02*
D03*
Y175000D02*
D03*
Y190000D02*
D03*
X577500D02*
D03*
X585000Y182500D02*
D03*
X577500D02*
D03*
Y175000D02*
D03*
X572500Y140000D02*
D03*
X815000Y172500D02*
D03*
X845000D02*
D03*
X640000Y252500D02*
D03*
X630000Y262500D02*
D03*
X615000Y197500D02*
D03*
X645000D02*
D03*
X640000Y232500D02*
D03*
X645000Y172500D02*
D03*
X650000Y242500D02*
D03*
X1640000D02*
D03*
Y252500D02*
D03*
X1630000D02*
D03*
Y232500D02*
D03*
X1650000D02*
D03*
X1645000Y172500D02*
D03*
X1650000Y242500D02*
D03*
Y252500D02*
D03*
Y262500D02*
D03*
X1415000Y172500D02*
D03*
X1430000Y242500D02*
D03*
X1440000Y252500D02*
D03*
Y262500D02*
D03*
X1415000Y197500D02*
D03*
X1440000Y232500D02*
D03*
X1450000D02*
D03*
X1445000Y172500D02*
D03*
X1215000D02*
D03*
Y197500D02*
D03*
X1015000Y172500D02*
D03*
X1040000Y252500D02*
D03*
X1030000D02*
D03*
X1040000Y232500D02*
D03*
X1030000D02*
D03*
X1017500D02*
D03*
X1050000D02*
D03*
X1045000Y172500D02*
D03*
X1050000Y242500D02*
D03*
Y252500D02*
D03*
X815000Y197500D02*
D03*
X630000Y242500D02*
D03*
Y252500D02*
D03*
Y232500D02*
D03*
X617500D02*
D03*
X605000Y227500D02*
D03*
X650000Y232500D02*
D03*
Y252500D02*
D03*
X640000Y272500D02*
D03*
X630000D02*
D03*
D115*
X135000Y443000D02*
D03*
Y287000D02*
D03*
D116*
X30000Y365000D02*
D03*
D117*
X85000Y340000D02*
D03*
Y390000D02*
D03*
X121500Y336000D02*
D03*
Y394000D02*
D03*
D118*
X50000Y443000D02*
D03*
Y287000D02*
D03*
D119*
X425700Y572140D02*
D03*
X400300D02*
D03*
X374900D02*
D03*
D120*
X349500D02*
D03*
D121*
X285000Y72500D02*
D03*
X310400D02*
D03*
X1222400Y500000D02*
D03*
X1197000D02*
D03*
X510400Y72500D02*
D03*
X485000D02*
D03*
X1510400D02*
D03*
X1485000D02*
D03*
X1310400D02*
D03*
X1285000D02*
D03*
X1110400D02*
D03*
X1085000D02*
D03*
X910400D02*
D03*
X885000D02*
D03*
X710400D02*
D03*
X685000D02*
D03*
X1222400Y420000D02*
D03*
X1197000D02*
D03*
D122*
X385000Y112500D02*
D03*
X1585000D02*
D03*
X1385000D02*
D03*
X1185000D02*
D03*
X985000D02*
D03*
X785000D02*
D03*
X585000D02*
D03*
D123*
X385000Y52500D02*
D03*
X1585000D02*
D03*
X1385000D02*
D03*
X1185000D02*
D03*
X985000D02*
D03*
X785000D02*
D03*
X585000D02*
D03*
X80000Y473000D02*
D03*
D124*
X432000Y82500D02*
D03*
X1632000D02*
D03*
X1432000D02*
D03*
X1232000D02*
D03*
X1032000D02*
D03*
X832000D02*
D03*
X632000D02*
D03*
X50000Y520000D02*
D03*
D125*
X1695700Y397014D02*
D03*
Y483414D02*
D03*
D126*
X1737500Y397014D02*
D03*
Y483414D02*
D03*
D127*
X1700700Y469114D02*
D03*
Y411314D02*
D03*
D128*
X110000Y520000D02*
D03*
M02*
