G04*
G04 #@! TF.GenerationSoftware,Altium Limited,Altium Designer,24.5.2 (23)*
G04*
G04 Layer_Color=8388736*
%FSLAX44Y44*%
%MOMM*%
G71*
G04*
G04 #@! TF.SameCoordinates,18AD1EF8-D4E3-4D70-9127-A8B2740D653E*
G04*
G04*
G04 #@! TF.FilePolarity,Negative*
G04*
G01*
G75*
%ADD21R,2.0500X1.1000*%
%ADD22R,1.0121X1.2000*%
G04:AMPARAMS|DCode=24|XSize=1.45mm|YSize=0.3mm|CornerRadius=0.0495mm|HoleSize=0mm|Usage=FLASHONLY|Rotation=90.000|XOffset=0mm|YOffset=0mm|HoleType=Round|Shape=RoundedRectangle|*
%AMROUNDEDRECTD24*
21,1,1.4500,0.2010,0,0,90.0*
21,1,1.3510,0.3000,0,0,90.0*
1,1,0.0990,0.1005,0.6755*
1,1,0.0990,0.1005,-0.6755*
1,1,0.0990,-0.1005,-0.6755*
1,1,0.0990,-0.1005,0.6755*
%
%ADD24ROUNDEDRECTD24*%
%ADD25R,0.8121X0.7581*%
%ADD27R,0.6500X3.0000*%
%ADD28R,0.9581X0.9121*%
G04:AMPARAMS|DCode=30|XSize=2.1692mm|YSize=0.5821mm|CornerRadius=0.2911mm|HoleSize=0mm|Usage=FLASHONLY|Rotation=180.000|XOffset=0mm|YOffset=0mm|HoleType=Round|Shape=RoundedRectangle|*
%AMROUNDEDRECTD30*
21,1,2.1692,0.0000,0,0,180.0*
21,1,1.5870,0.5821,0,0,180.0*
1,1,0.5821,-0.7935,0.0000*
1,1,0.5821,0.7935,0.0000*
1,1,0.5821,0.7935,0.0000*
1,1,0.5821,-0.7935,0.0000*
%
%ADD30ROUNDEDRECTD30*%
%ADD31R,2.1692X0.5821*%
%ADD32R,0.7581X0.8121*%
G04:AMPARAMS|DCode=33|XSize=1.5052mm|YSize=0.5721mm|CornerRadius=0.2861mm|HoleSize=0mm|Usage=FLASHONLY|Rotation=0.000|XOffset=0mm|YOffset=0mm|HoleType=Round|Shape=RoundedRectangle|*
%AMROUNDEDRECTD33*
21,1,1.5052,0.0000,0,0,0.0*
21,1,0.9331,0.5721,0,0,0.0*
1,1,0.5721,0.4666,0.0000*
1,1,0.5721,-0.4666,0.0000*
1,1,0.5721,-0.4666,0.0000*
1,1,0.5721,0.4666,0.0000*
%
%ADD33ROUNDEDRECTD33*%
%ADD34R,1.5052X0.5721*%
%ADD36R,1.9000X4.4000*%
%ADD38R,1.0065X0.9582*%
G04:AMPARAMS|DCode=40|XSize=1.2544mm|YSize=0.5321mm|CornerRadius=0.2661mm|HoleSize=0mm|Usage=FLASHONLY|Rotation=270.000|XOffset=0mm|YOffset=0mm|HoleType=Round|Shape=RoundedRectangle|*
%AMROUNDEDRECTD40*
21,1,1.2544,0.0000,0,0,270.0*
21,1,0.7223,0.5321,0,0,270.0*
1,1,0.5321,0.0000,-0.3611*
1,1,0.5321,0.0000,0.3611*
1,1,0.5321,0.0000,0.3611*
1,1,0.5321,0.0000,-0.3611*
%
%ADD40ROUNDEDRECTD40*%
%ADD41R,0.5321X1.2544*%
%ADD42R,1.5000X3.6000*%
%ADD43R,0.6000X1.2000*%
%ADD44R,2.9450X4.9500*%
G04:AMPARAMS|DCode=45|XSize=0.75mm|YSize=0.25mm|CornerRadius=0.05mm|HoleSize=0mm|Usage=FLASHONLY|Rotation=180.000|XOffset=0mm|YOffset=0mm|HoleType=Round|Shape=RoundedRectangle|*
%AMROUNDEDRECTD45*
21,1,0.7500,0.1500,0,0,180.0*
21,1,0.6500,0.2500,0,0,180.0*
1,1,0.1000,-0.3250,0.0750*
1,1,0.1000,0.3250,0.0750*
1,1,0.1000,0.3250,-0.0750*
1,1,0.1000,-0.3250,-0.0750*
%
%ADD45ROUNDEDRECTD45*%
G04:AMPARAMS|DCode=46|XSize=0.25mm|YSize=0.6mm|CornerRadius=0.05mm|HoleSize=0mm|Usage=FLASHONLY|Rotation=180.000|XOffset=0mm|YOffset=0mm|HoleType=Round|Shape=RoundedRectangle|*
%AMROUNDEDRECTD46*
21,1,0.2500,0.5000,0,0,180.0*
21,1,0.1500,0.6000,0,0,180.0*
1,1,0.1000,-0.0750,0.2500*
1,1,0.1000,0.0750,0.2500*
1,1,0.1000,0.0750,-0.2500*
1,1,0.1000,-0.0750,-0.2500*
%
%ADD46ROUNDEDRECTD46*%
%ADD47R,0.3408X1.3554*%
G04:AMPARAMS|DCode=48|XSize=1.3554mm|YSize=0.3408mm|CornerRadius=0.1704mm|HoleSize=0mm|Usage=FLASHONLY|Rotation=90.000|XOffset=0mm|YOffset=0mm|HoleType=Round|Shape=RoundedRectangle|*
%AMROUNDEDRECTD48*
21,1,1.3554,0.0000,0,0,90.0*
21,1,1.0147,0.3408,0,0,90.0*
1,1,0.3408,0.0000,0.5073*
1,1,0.3408,0.0000,-0.5073*
1,1,0.3408,0.0000,-0.5073*
1,1,0.3408,0.0000,0.5073*
%
%ADD48ROUNDEDRECTD48*%
%ADD50R,2.5000X1.2500*%
%ADD51R,1.0000X0.7000*%
%ADD52R,0.7000X1.0000*%
%ADD53R,0.9121X0.9581*%
%ADD60R,0.6725X0.7154*%
%ADD61R,2.0000X4.1000*%
%ADD69R,1.2032X1.0032*%
%ADD70R,3.0032X1.5532*%
%ADD71R,2.8032X1.2532*%
%ADD72R,1.0532X0.9032*%
%ADD73R,2.9032X1.5032*%
%ADD74R,0.8032X1.0032*%
G04:AMPARAMS|DCode=75|XSize=2.2mm|YSize=4.6mm|CornerRadius=0.055mm|HoleSize=0mm|Usage=FLASHONLY|Rotation=180.000|XOffset=0mm|YOffset=0mm|HoleType=Round|Shape=RoundedRectangle|*
%AMROUNDEDRECTD75*
21,1,2.2000,4.4900,0,0,180.0*
21,1,2.0900,4.6000,0,0,180.0*
1,1,0.1100,-1.0450,2.2450*
1,1,0.1100,1.0450,2.2450*
1,1,0.1100,1.0450,-2.2450*
1,1,0.1100,-1.0450,-2.2450*
%
%ADD75ROUNDEDRECTD75*%
%ADD76R,2.3100X2.4600*%
%ADD77R,1.0032X0.8032*%
%ADD78R,1.0032X1.2032*%
%ADD79R,1.4532X1.0032*%
%ADD80R,1.2700X1.1684*%
G04:AMPARAMS|DCode=81|XSize=0.6032mm|YSize=1.4032mm|CornerRadius=0.1516mm|HoleSize=0mm|Usage=FLASHONLY|Rotation=270.000|XOffset=0mm|YOffset=0mm|HoleType=Round|Shape=RoundedRectangle|*
%AMROUNDEDRECTD81*
21,1,0.6032,1.1000,0,0,270.0*
21,1,0.3000,1.4032,0,0,270.0*
1,1,0.3032,-0.5500,-0.1500*
1,1,0.3032,-0.5500,0.1500*
1,1,0.3032,0.5500,0.1500*
1,1,0.3032,0.5500,-0.1500*
%
%ADD81ROUNDEDRECTD81*%
%ADD82R,1.3432X0.8032*%
%ADD83R,1.3432X0.5032*%
%ADD84R,1.8796X1.7272*%
%ADD85R,1.7272X1.8796*%
%ADD86R,1.5032X2.9032*%
%ADD87R,1.0032X0.6032*%
%ADD88R,0.6032X1.0032*%
%ADD89R,1.6532X1.6532*%
%ADD90R,0.9032X0.9032*%
%ADD91C,3.0000*%
%ADD92C,1.5700*%
%ADD93R,1.5700X1.5700*%
%ADD94O,3.2032X1.4032*%
%ADD95C,0.2032*%
%ADD96O,1.4032X3.2032*%
G04:AMPARAMS|DCode=97|XSize=1.4032mm|YSize=3.4032mm|CornerRadius=0mm|HoleSize=0mm|Usage=FLASHONLY|Rotation=90.000|XOffset=0mm|YOffset=0mm|HoleType=Round|Shape=Octagon|*
%AMOCTAGOND97*
4,1,8,-1.7016,-0.3508,-1.7016,0.3508,-1.3508,0.7016,1.3508,0.7016,1.7016,0.3508,1.7016,-0.3508,1.3508,-0.7016,-1.3508,-0.7016,-1.7016,-0.3508,0.0*
%
%ADD97OCTAGOND97*%

%ADD98C,2.7032*%
%ADD99C,1.7272*%
%ADD100R,1.7272X1.7272*%
%ADD101C,1.4224*%
%ADD102R,4.2032X1.7032*%
%ADD103R,3.7032X1.7032*%
%ADD104R,1.7032X3.7032*%
%ADD105O,2.3032X1.2532*%
%ADD106O,2.0032X1.1032*%
%ADD107C,0.8532*%
%ADD108R,1.7032X4.2032*%
%ADD109C,0.7032*%
%ADD110C,0.5000*%
G36*
X1440500Y500000D02*
X1424000D01*
Y509900D01*
X1430600Y516500D01*
X1440500D01*
Y500000D01*
D02*
G37*
D21*
X545000Y477000D02*
D03*
Y444000D02*
D03*
X222500Y363500D02*
D03*
Y396500D02*
D03*
D22*
X352500Y404189D02*
D03*
Y419000D02*
D03*
X355000Y467595D02*
D03*
Y482405D02*
D03*
D24*
X975000Y407000D02*
D03*
X980000D02*
D03*
X985000D02*
D03*
X990000D02*
D03*
X995000D02*
D03*
Y363000D02*
D03*
X990000D02*
D03*
X985000D02*
D03*
X980000D02*
D03*
X975000D02*
D03*
X810000Y392000D02*
D03*
X815000D02*
D03*
X820000D02*
D03*
X825000D02*
D03*
X830000D02*
D03*
Y348000D02*
D03*
X825000D02*
D03*
X820000D02*
D03*
X815000D02*
D03*
X810000D02*
D03*
D25*
X762500Y398770D02*
D03*
Y386230D02*
D03*
X742500Y351230D02*
D03*
Y363770D02*
D03*
D27*
X1222700Y350000D02*
D03*
X1235400Y320000D02*
D03*
X1210000D02*
D03*
X305536Y541509D02*
D03*
X318236Y511509D02*
D03*
X292836D02*
D03*
D28*
X1351275Y335706D02*
D03*
X1336735D02*
D03*
X752270Y455000D02*
D03*
X737730D02*
D03*
X342270Y222500D02*
D03*
X327730D02*
D03*
X427730Y142500D02*
D03*
X442270D02*
D03*
X1072730Y417500D02*
D03*
X1087270D02*
D03*
X1257730Y362500D02*
D03*
X1272270D02*
D03*
X960230Y432500D02*
D03*
X974770D02*
D03*
X795000Y425000D02*
D03*
X809540D02*
D03*
X1527730Y222500D02*
D03*
X1542270D02*
D03*
X1327730D02*
D03*
X1342270D02*
D03*
X1127730D02*
D03*
X1142270D02*
D03*
X927730D02*
D03*
X942270D02*
D03*
X727730D02*
D03*
X742270D02*
D03*
X842270Y142500D02*
D03*
X827730D02*
D03*
X527730Y222500D02*
D03*
X542270D02*
D03*
X1642270Y142500D02*
D03*
X1627730D02*
D03*
X1442270D02*
D03*
X1427730D02*
D03*
X1242270D02*
D03*
X1227730D02*
D03*
X1042270D02*
D03*
X1027730D02*
D03*
X642270D02*
D03*
X627730D02*
D03*
X1340793Y407581D02*
D03*
X1355333D02*
D03*
D30*
X1261364Y310950D02*
D03*
Y323650D02*
D03*
Y336350D02*
D03*
Y349050D02*
D03*
X1308636D02*
D03*
Y336350D02*
D03*
Y323650D02*
D03*
D31*
Y310950D02*
D03*
D32*
X678770Y380000D02*
D03*
X666230D02*
D03*
X1006270Y431509D02*
D03*
X993730D02*
D03*
X845000Y425000D02*
D03*
X832460D02*
D03*
D33*
X726005Y364500D02*
D03*
Y345500D02*
D03*
X703995D02*
D03*
Y355000D02*
D03*
X723505Y414500D02*
D03*
Y395500D02*
D03*
X701495D02*
D03*
Y405000D02*
D03*
D34*
X703995Y364500D02*
D03*
X701495Y414500D02*
D03*
D36*
X1683885Y236500D02*
D03*
Y323500D02*
D03*
D38*
X702259Y455000D02*
D03*
X687741D02*
D03*
D40*
X728785Y469828D02*
D03*
X719285D02*
D03*
X709785D02*
D03*
Y490834D02*
D03*
X719285D02*
D03*
D41*
X728785D02*
D03*
D42*
X747250Y487500D02*
D03*
X777750D02*
D03*
D43*
X1590500Y458500D02*
D03*
X1600000D02*
D03*
X1609500D02*
D03*
Y481500D02*
D03*
X1600000D02*
D03*
X1590500D02*
D03*
D44*
X501575Y422500D02*
D03*
X393425D02*
D03*
D45*
X327500Y390000D02*
D03*
Y395000D02*
D03*
Y400000D02*
D03*
Y405000D02*
D03*
Y410000D02*
D03*
Y415000D02*
D03*
Y420000D02*
D03*
Y425000D02*
D03*
Y430000D02*
D03*
Y435000D02*
D03*
Y440000D02*
D03*
X291000D02*
D03*
Y435000D02*
D03*
Y430000D02*
D03*
Y425000D02*
D03*
Y420000D02*
D03*
Y415000D02*
D03*
Y410000D02*
D03*
Y405000D02*
D03*
Y400000D02*
D03*
Y395000D02*
D03*
Y390000D02*
D03*
D46*
X316750Y444000D02*
D03*
X311750D02*
D03*
X306750D02*
D03*
X301750D02*
D03*
Y386000D02*
D03*
X306750D02*
D03*
X311750D02*
D03*
X316750D02*
D03*
D47*
X1565500Y154746D02*
D03*
X365500D02*
D03*
X1365500D02*
D03*
X1165500D02*
D03*
X965500D02*
D03*
X765500D02*
D03*
X565500D02*
D03*
D48*
X1572000D02*
D03*
X1578500D02*
D03*
X1585000D02*
D03*
X1591500D02*
D03*
X1598000D02*
D03*
X1604500D02*
D03*
Y210254D02*
D03*
X1598000D02*
D03*
X1591500D02*
D03*
X1585000D02*
D03*
X1578500D02*
D03*
X1572000D02*
D03*
X1565500D02*
D03*
X372000Y154746D02*
D03*
X378500D02*
D03*
X385000D02*
D03*
X391500D02*
D03*
X398000D02*
D03*
X404500D02*
D03*
Y210254D02*
D03*
X398000D02*
D03*
X391500D02*
D03*
X385000D02*
D03*
X378500D02*
D03*
X372000D02*
D03*
X365500D02*
D03*
X1365500D02*
D03*
X1372000D02*
D03*
X1378500D02*
D03*
X1385000D02*
D03*
X1391500D02*
D03*
X1398000D02*
D03*
X1404500D02*
D03*
Y154746D02*
D03*
X1398000D02*
D03*
X1391500D02*
D03*
X1385000D02*
D03*
X1378500D02*
D03*
X1372000D02*
D03*
X1165500Y210254D02*
D03*
X1172000D02*
D03*
X1178500D02*
D03*
X1185000D02*
D03*
X1191500D02*
D03*
X1198000D02*
D03*
X1204500D02*
D03*
Y154746D02*
D03*
X1198000D02*
D03*
X1191500D02*
D03*
X1185000D02*
D03*
X1178500D02*
D03*
X1172000D02*
D03*
X965500Y210254D02*
D03*
X972000D02*
D03*
X978500D02*
D03*
X985000D02*
D03*
X991500D02*
D03*
X998000D02*
D03*
X1004500D02*
D03*
Y154746D02*
D03*
X998000D02*
D03*
X991500D02*
D03*
X985000D02*
D03*
X978500D02*
D03*
X972000D02*
D03*
X765500Y210254D02*
D03*
X772000D02*
D03*
X778500D02*
D03*
X785000D02*
D03*
X791500D02*
D03*
X798000D02*
D03*
X804500D02*
D03*
Y154746D02*
D03*
X798000D02*
D03*
X791500D02*
D03*
X785000D02*
D03*
X778500D02*
D03*
X772000D02*
D03*
X565500Y210254D02*
D03*
X572000D02*
D03*
X578500D02*
D03*
X585000D02*
D03*
X591500D02*
D03*
X598000D02*
D03*
X604500D02*
D03*
Y154746D02*
D03*
X598000D02*
D03*
X591500D02*
D03*
X585000D02*
D03*
X578500D02*
D03*
X572000D02*
D03*
D50*
X805000Y473000D02*
D03*
Y507000D02*
D03*
D51*
X867500Y468500D02*
D03*
X927500D02*
D03*
X867500Y431500D02*
D03*
X927500D02*
D03*
D52*
X1512000Y400000D02*
D03*
Y340000D02*
D03*
X1475000Y400000D02*
D03*
Y340000D02*
D03*
X1437000Y400000D02*
D03*
Y340000D02*
D03*
X1400000Y400000D02*
D03*
Y340000D02*
D03*
D53*
X1538500Y377270D02*
D03*
Y362730D02*
D03*
X1368500Y497270D02*
D03*
Y482730D02*
D03*
X1308500Y497270D02*
D03*
Y482730D02*
D03*
X1030000Y337730D02*
D03*
Y352270D02*
D03*
D60*
X1657500Y445429D02*
D03*
Y455000D02*
D03*
Y400000D02*
D03*
Y390429D02*
D03*
D61*
X175000Y134000D02*
D03*
Y221000D02*
D03*
D69*
X1290793Y397581D02*
D03*
Y382581D02*
D03*
X405000Y253500D02*
D03*
Y238500D02*
D03*
X335000Y155000D02*
D03*
Y170000D02*
D03*
X1605000Y238500D02*
D03*
Y253500D02*
D03*
X1405000Y238500D02*
D03*
Y253500D02*
D03*
X1205000Y238500D02*
D03*
Y253500D02*
D03*
X1005000Y238500D02*
D03*
Y253500D02*
D03*
X805000Y238500D02*
D03*
Y253500D02*
D03*
X605000Y238500D02*
D03*
Y253500D02*
D03*
X1535000Y170000D02*
D03*
Y155000D02*
D03*
X1335000Y170000D02*
D03*
Y155000D02*
D03*
X1135000Y170000D02*
D03*
Y155000D02*
D03*
X935000Y170000D02*
D03*
Y155000D02*
D03*
X735000Y170000D02*
D03*
Y155000D02*
D03*
X535000Y170000D02*
D03*
Y155000D02*
D03*
X1490000Y290000D02*
D03*
Y305000D02*
D03*
X1157500Y410000D02*
D03*
Y425000D02*
D03*
X1160000Y507500D02*
D03*
Y522500D02*
D03*
D70*
X260000Y396000D02*
D03*
Y364000D02*
D03*
X582500Y476000D02*
D03*
Y444000D02*
D03*
D71*
X1140000Y346750D02*
D03*
Y373250D02*
D03*
D72*
X295000Y486250D02*
D03*
Y473750D02*
D03*
D73*
X655000Y436000D02*
D03*
Y464000D02*
D03*
X1338500Y476000D02*
D03*
Y504000D02*
D03*
X432500Y183500D02*
D03*
Y211500D02*
D03*
X1632500D02*
D03*
Y183500D02*
D03*
X1432500Y211500D02*
D03*
Y183500D02*
D03*
X1232500Y211500D02*
D03*
Y183500D02*
D03*
X1032500Y211500D02*
D03*
Y183500D02*
D03*
X832500Y211500D02*
D03*
Y183500D02*
D03*
X632500Y211500D02*
D03*
Y183500D02*
D03*
D74*
X718500Y440000D02*
D03*
X731500D02*
D03*
X691000D02*
D03*
X704000D02*
D03*
D75*
X309250Y415000D02*
D03*
D76*
X1585000Y182500D02*
D03*
X385000D02*
D03*
X1385000D02*
D03*
X1185000D02*
D03*
X985000D02*
D03*
X785000D02*
D03*
X585000D02*
D03*
D77*
X337500Y471000D02*
D03*
Y484000D02*
D03*
X310000Y486500D02*
D03*
Y473500D02*
D03*
X1060000Y351500D02*
D03*
Y338500D02*
D03*
X325000Y473500D02*
D03*
Y486500D02*
D03*
X1080000Y341500D02*
D03*
Y328500D02*
D03*
D78*
X1358293Y442580D02*
D03*
X1343293D02*
D03*
X1423098Y321535D02*
D03*
X1408098D02*
D03*
X312500Y142500D02*
D03*
X297500D02*
D03*
X349000Y242500D02*
D03*
X334000D02*
D03*
X335000Y135000D02*
D03*
X350000D02*
D03*
X1534000Y242500D02*
D03*
X1549000D02*
D03*
X1334000D02*
D03*
X1349000D02*
D03*
X1134000D02*
D03*
X1149000D02*
D03*
X934000D02*
D03*
X949000D02*
D03*
X734000D02*
D03*
X749000D02*
D03*
X534000D02*
D03*
X549000D02*
D03*
X1550000Y135000D02*
D03*
X1535000D02*
D03*
X1350000D02*
D03*
X1335000D02*
D03*
X1150000D02*
D03*
X1135000D02*
D03*
X950000D02*
D03*
X935000D02*
D03*
X750000D02*
D03*
X735000D02*
D03*
X550000D02*
D03*
X535000D02*
D03*
X1352500Y365000D02*
D03*
X1367500D02*
D03*
X1352500Y350000D02*
D03*
X1367500D02*
D03*
X1497500Y142500D02*
D03*
X1512500D02*
D03*
X1297500D02*
D03*
X1312500D02*
D03*
X1097500D02*
D03*
X1112500D02*
D03*
X897500D02*
D03*
X912500D02*
D03*
X697500D02*
D03*
X712500D02*
D03*
X497500D02*
D03*
X512500D02*
D03*
X1273293Y427581D02*
D03*
X1258293D02*
D03*
D79*
X365000Y244500D02*
D03*
Y260500D02*
D03*
X385000Y244500D02*
D03*
Y260500D02*
D03*
X1585000D02*
D03*
Y244500D02*
D03*
X1565000Y260500D02*
D03*
Y244500D02*
D03*
X1385000Y260500D02*
D03*
Y244500D02*
D03*
X1365000Y260500D02*
D03*
Y244500D02*
D03*
X1185000Y260500D02*
D03*
Y244500D02*
D03*
X1165000Y260500D02*
D03*
Y244500D02*
D03*
X985000Y260500D02*
D03*
Y244500D02*
D03*
X965000Y260500D02*
D03*
Y244500D02*
D03*
X785000Y260500D02*
D03*
Y244500D02*
D03*
X765000Y260500D02*
D03*
Y244500D02*
D03*
X585000Y260500D02*
D03*
Y244500D02*
D03*
X565000Y260500D02*
D03*
Y244500D02*
D03*
D80*
X293824Y172500D02*
D03*
X315000Y182152D02*
D03*
Y163000D02*
D03*
X1515000D02*
D03*
Y182152D02*
D03*
X1493824Y172500D02*
D03*
X1315000Y163000D02*
D03*
Y182152D02*
D03*
X1293824Y172500D02*
D03*
X1115000Y163000D02*
D03*
Y182152D02*
D03*
X1093824Y172500D02*
D03*
X915000Y163000D02*
D03*
Y182152D02*
D03*
X893824Y172500D02*
D03*
X715000Y163000D02*
D03*
Y182152D02*
D03*
X693824Y172500D02*
D03*
X515000Y163000D02*
D03*
Y182152D02*
D03*
X493824Y172500D02*
D03*
X1275793Y380580D02*
D03*
Y399733D02*
D03*
X1254617Y390081D02*
D03*
X1270793Y463081D02*
D03*
Y482233D02*
D03*
X1249617Y472581D02*
D03*
D81*
X1066500Y487750D02*
D03*
Y481250D02*
D03*
Y474750D02*
D03*
Y468250D02*
D03*
Y461750D02*
D03*
Y455250D02*
D03*
Y448750D02*
D03*
Y442250D02*
D03*
X1123500Y487750D02*
D03*
Y481250D02*
D03*
Y474750D02*
D03*
Y468250D02*
D03*
Y461750D02*
D03*
Y455250D02*
D03*
Y448750D02*
D03*
Y442250D02*
D03*
D82*
X1690000Y408214D02*
D03*
Y416214D02*
D03*
Y464214D02*
D03*
Y472214D02*
D03*
D83*
Y422714D02*
D03*
Y427714D02*
D03*
Y432714D02*
D03*
Y437714D02*
D03*
Y442714D02*
D03*
Y447714D02*
D03*
Y452714D02*
D03*
Y457714D02*
D03*
D84*
X620000Y416204D02*
D03*
Y453796D02*
D03*
D85*
X618796Y385000D02*
D03*
X581204D02*
D03*
D86*
X644000Y500000D02*
D03*
X616000D02*
D03*
D87*
X1393000Y528500D02*
D03*
Y520500D02*
D03*
Y512500D02*
D03*
Y504500D02*
D03*
Y496500D02*
D03*
Y488500D02*
D03*
Y480500D02*
D03*
Y472500D02*
D03*
Y464500D02*
D03*
Y456500D02*
D03*
Y448500D02*
D03*
X1511000D02*
D03*
Y456500D02*
D03*
Y464500D02*
D03*
Y472500D02*
D03*
Y480500D02*
D03*
Y488500D02*
D03*
Y496500D02*
D03*
Y504500D02*
D03*
Y512500D02*
D03*
Y520500D02*
D03*
Y528500D02*
D03*
D88*
X1404000Y439500D02*
D03*
X1412000D02*
D03*
X1420000D02*
D03*
X1428000D02*
D03*
X1436000D02*
D03*
X1444000D02*
D03*
X1452000D02*
D03*
X1460000D02*
D03*
X1468000D02*
D03*
X1476000D02*
D03*
X1484000D02*
D03*
X1492000D02*
D03*
X1500000D02*
D03*
Y537500D02*
D03*
X1492000D02*
D03*
X1484000D02*
D03*
X1476000D02*
D03*
X1468000D02*
D03*
X1460000D02*
D03*
X1452000D02*
D03*
X1444000D02*
D03*
X1436000D02*
D03*
X1428000D02*
D03*
X1420000D02*
D03*
X1412000D02*
D03*
X1404000D02*
D03*
D89*
X1452000Y488500D02*
D03*
X1471750Y508250D02*
D03*
X1452000D02*
D03*
X1432250Y488500D02*
D03*
Y468750D02*
D03*
X1452000D02*
D03*
X1471750D02*
D03*
Y488500D02*
D03*
D90*
X1392500Y538000D02*
D03*
Y439000D02*
D03*
X1511500D02*
D03*
Y538000D02*
D03*
D91*
X21800Y121500D02*
D03*
Y198500D02*
D03*
D92*
X95000Y220000D02*
D03*
Y190000D02*
D03*
Y160000D02*
D03*
Y130000D02*
D03*
Y100000D02*
D03*
X65000Y220000D02*
D03*
Y190000D02*
D03*
Y160000D02*
D03*
Y130000D02*
D03*
D93*
Y100000D02*
D03*
D94*
X135000Y443000D02*
D03*
Y287000D02*
D03*
D95*
X50000Y390000D02*
D03*
Y340000D02*
D03*
X235200Y277500D02*
D03*
X540000D02*
D03*
Y556900D02*
D03*
X235200D02*
D03*
X1100000Y550000D02*
D03*
X1700000D02*
D03*
X1590000Y350000D02*
D03*
X167500Y50000D02*
D03*
Y520000D02*
D03*
X450000Y330000D02*
D03*
X900000Y350000D02*
D03*
X1180000D02*
D03*
X1700000Y50000D02*
D03*
D96*
X30000Y365000D02*
D03*
D97*
X85000Y340000D02*
D03*
Y390000D02*
D03*
X121500Y336000D02*
D03*
Y394000D02*
D03*
D98*
X50000Y443000D02*
D03*
Y287000D02*
D03*
D99*
X425700Y572140D02*
D03*
X400300D02*
D03*
X374900D02*
D03*
D100*
X349500D02*
D03*
D101*
X285000Y72500D02*
D03*
X310400D02*
D03*
X1222400Y500000D02*
D03*
X1197000D02*
D03*
X510400Y72500D02*
D03*
X485000D02*
D03*
X1510400D02*
D03*
X1485000D02*
D03*
X1310400D02*
D03*
X1285000D02*
D03*
X1110400D02*
D03*
X1085000D02*
D03*
X910400D02*
D03*
X885000D02*
D03*
X710400D02*
D03*
X685000D02*
D03*
X1222400Y420000D02*
D03*
X1197000D02*
D03*
D102*
X385000Y112500D02*
D03*
X1585000D02*
D03*
X1385000D02*
D03*
X1185000D02*
D03*
X985000D02*
D03*
X785000D02*
D03*
X585000D02*
D03*
D103*
X385000Y52500D02*
D03*
X1585000D02*
D03*
X1385000D02*
D03*
X1185000D02*
D03*
X985000D02*
D03*
X785000D02*
D03*
X585000D02*
D03*
X80000Y473000D02*
D03*
D104*
X432000Y82500D02*
D03*
X1632000D02*
D03*
X1432000D02*
D03*
X1232000D02*
D03*
X1032000D02*
D03*
X832000D02*
D03*
X632000D02*
D03*
X50000Y520000D02*
D03*
D105*
X1695700Y397014D02*
D03*
Y483414D02*
D03*
D106*
X1737500Y397014D02*
D03*
Y483414D02*
D03*
D107*
X1700700Y469114D02*
D03*
Y411314D02*
D03*
D108*
X110000Y520000D02*
D03*
D109*
X850000Y465000D02*
D03*
X795000Y412500D02*
D03*
X570330Y272170D02*
D03*
X674670Y392830D02*
D03*
X662500Y420000D02*
D03*
X640000D02*
D03*
X647500D02*
D03*
X567500Y505000D02*
D03*
X575000D02*
D03*
X582500D02*
D03*
X567500Y515000D02*
D03*
X575000D02*
D03*
X582500D02*
D03*
X210000Y342500D02*
D03*
X222500D02*
D03*
X235000D02*
D03*
X275000D02*
D03*
X260000D02*
D03*
X245000D02*
D03*
X1380000Y446770D02*
D03*
X338515Y430908D02*
D03*
X1320730Y369798D02*
D03*
X1247500Y370000D02*
D03*
X1275433Y353869D02*
D03*
X1135144Y182356D02*
D03*
X1124484Y188016D02*
D03*
X1343270Y182500D02*
D03*
X955000Y417500D02*
D03*
X525000Y236730D02*
D03*
X1597500Y467500D02*
D03*
X1115000Y378270D02*
D03*
X719230Y187500D02*
D03*
X524119Y187651D02*
D03*
X535016Y182491D02*
D03*
X1082971Y449319D02*
D03*
X1290000Y407500D02*
D03*
X1330000Y350000D02*
D03*
X1475000Y427500D02*
D03*
X1523016Y436984D02*
D03*
X1360000Y473270D02*
D03*
X1373902Y352157D02*
D03*
X1424464Y424464D02*
D03*
X1400000Y412500D02*
D03*
X1340056Y395040D02*
D03*
X1410000Y410000D02*
D03*
X1392014Y428005D02*
D03*
X1172500Y410000D02*
D03*
X1145000Y392500D02*
D03*
X1080431Y390601D02*
D03*
X905488Y495734D02*
D03*
X892500Y500870D02*
D03*
X684631Y410310D02*
D03*
X945770Y420770D02*
D03*
X818831D02*
D03*
X855040Y425310D02*
D03*
X1135000Y491730D02*
D03*
X915000D02*
D03*
X282531Y382339D02*
D03*
X260000Y350000D02*
D03*
X275000D02*
D03*
X222500D02*
D03*
X210000D02*
D03*
X1160209Y388303D02*
D03*
X790000Y390000D02*
D03*
X1350000Y320000D02*
D03*
X1340000D02*
D03*
X742500Y340000D02*
D03*
X762500Y377500D02*
D03*
X690000Y355000D02*
D03*
X245000Y350000D02*
D03*
X235000D02*
D03*
X655000Y420000D02*
D03*
X615000Y467500D02*
D03*
X1655000Y195000D02*
D03*
X285222Y448779D02*
D03*
X1060310Y303051D02*
D03*
X282500Y392500D02*
D03*
X1342500Y459960D02*
D03*
X1350000D02*
D03*
X1310000Y470000D02*
D03*
X1317500Y515000D02*
D03*
X1307750Y515000D02*
D03*
X1300000Y515000D02*
D03*
X1720000Y242500D02*
D03*
Y252500D02*
D03*
Y262500D02*
D03*
X1730000Y242500D02*
D03*
Y252500D02*
D03*
Y262500D02*
D03*
Y272500D02*
D03*
X1720000D02*
D03*
X1710000D02*
D03*
X1700000D02*
D03*
X1690000D02*
D03*
X1680000D02*
D03*
X1670000D02*
D03*
X1660000D02*
D03*
X1720000Y340000D02*
D03*
Y330000D02*
D03*
Y320000D02*
D03*
Y310000D02*
D03*
Y300000D02*
D03*
Y290000D02*
D03*
X1650000D02*
D03*
Y300000D02*
D03*
Y310000D02*
D03*
Y320000D02*
D03*
Y330000D02*
D03*
Y340000D02*
D03*
X1630000Y272500D02*
D03*
X1555000Y267500D02*
D03*
X370000Y477500D02*
D03*
X1082500Y475000D02*
D03*
X1092500Y472500D02*
D03*
X1327500Y460000D02*
D03*
X1335000D02*
D03*
X590000Y370000D02*
D03*
Y360000D02*
D03*
Y350000D02*
D03*
Y340000D02*
D03*
Y330000D02*
D03*
X580000D02*
D03*
Y340000D02*
D03*
Y350000D02*
D03*
Y360000D02*
D03*
Y370000D02*
D03*
X735000Y497500D02*
D03*
X590000Y495000D02*
D03*
Y505000D02*
D03*
Y515000D02*
D03*
X615000Y477500D02*
D03*
X597500Y495000D02*
D03*
Y505000D02*
D03*
Y515000D02*
D03*
X545000Y502500D02*
D03*
Y512500D02*
D03*
X285000Y470000D02*
D03*
X277500D02*
D03*
Y455000D02*
D03*
Y462500D02*
D03*
X285000Y455000D02*
D03*
Y462500D02*
D03*
X292500D02*
D03*
X282500Y377500D02*
D03*
X282344Y387240D02*
D03*
X282500Y397500D02*
D03*
X130000Y420000D02*
D03*
Y425000D02*
D03*
X120000Y420000D02*
D03*
Y425000D02*
D03*
Y430000D02*
D03*
X110000Y420000D02*
D03*
Y425000D02*
D03*
Y430000D02*
D03*
X100000Y420000D02*
D03*
Y425000D02*
D03*
Y430000D02*
D03*
X90000Y420000D02*
D03*
Y425000D02*
D03*
Y430000D02*
D03*
X80000Y420000D02*
D03*
Y425000D02*
D03*
Y430000D02*
D03*
X70000Y420000D02*
D03*
Y425000D02*
D03*
Y430000D02*
D03*
X327500Y495000D02*
D03*
X370000Y502590D02*
D03*
X735000Y490000D02*
D03*
X545000Y522500D02*
D03*
X555000D02*
D03*
X535000D02*
D03*
Y502500D02*
D03*
Y512500D02*
D03*
X555000Y502500D02*
D03*
Y512500D02*
D03*
X304904Y565541D02*
D03*
Y520541D02*
D03*
X314904Y540541D02*
D03*
X294904D02*
D03*
X207662Y327175D02*
D03*
X200000Y320000D02*
D03*
X690000Y380000D02*
D03*
X784656Y420344D02*
D03*
X790000Y460120D02*
D03*
X840000Y475000D02*
D03*
X830000D02*
D03*
X840000Y465000D02*
D03*
X860000Y540000D02*
D03*
X850000D02*
D03*
X840000D02*
D03*
X830000D02*
D03*
X820000D02*
D03*
X810000D02*
D03*
X800000D02*
D03*
X850000Y475000D02*
D03*
X840000Y530000D02*
D03*
X830000D02*
D03*
X860000D02*
D03*
X850000D02*
D03*
X800000D02*
D03*
X810000D02*
D03*
X820000D02*
D03*
X830000Y465000D02*
D03*
X820000Y485000D02*
D03*
X690000Y425000D02*
D03*
X1662500Y432500D02*
D03*
X1645457Y455417D02*
D03*
X1667500Y390000D02*
D03*
X1632500Y465000D02*
D03*
X1590000Y440000D02*
D03*
X1670000Y482500D02*
D03*
X1710000Y340000D02*
D03*
Y330000D02*
D03*
Y320000D02*
D03*
Y310000D02*
D03*
Y300000D02*
D03*
Y290000D02*
D03*
X1700000D02*
D03*
X1690000D02*
D03*
X1680000D02*
D03*
X1670000D02*
D03*
X1660000D02*
D03*
Y300000D02*
D03*
Y310000D02*
D03*
X1660359Y320667D02*
D03*
X1660000Y340000D02*
D03*
X570000Y330000D02*
D03*
Y340000D02*
D03*
Y350000D02*
D03*
Y360000D02*
D03*
Y370000D02*
D03*
X560000Y330000D02*
D03*
Y340000D02*
D03*
Y350000D02*
D03*
Y360000D02*
D03*
Y370000D02*
D03*
Y380000D02*
D03*
X550000Y330000D02*
D03*
Y340000D02*
D03*
Y350000D02*
D03*
Y360000D02*
D03*
Y370000D02*
D03*
Y380000D02*
D03*
X540000Y350000D02*
D03*
Y330000D02*
D03*
Y340000D02*
D03*
Y360000D02*
D03*
Y370000D02*
D03*
Y380000D02*
D03*
X530000Y330000D02*
D03*
Y340000D02*
D03*
Y350000D02*
D03*
Y360000D02*
D03*
Y370000D02*
D03*
Y380000D02*
D03*
X1092500Y452500D02*
D03*
X1085000Y430000D02*
D03*
X947500Y430991D02*
D03*
X880000Y432500D02*
D03*
X915000Y430000D02*
D03*
X1020000Y432540D02*
D03*
X1072500Y430000D02*
D03*
X325000Y540000D02*
D03*
X372500Y492500D02*
D03*
X365000D02*
D03*
X357500D02*
D03*
X350000D02*
D03*
X342500D02*
D03*
X335000D02*
D03*
X370000Y485000D02*
D03*
Y470000D02*
D03*
X292500Y447500D02*
D03*
X300000Y462500D02*
D03*
X307500D02*
D03*
Y455000D02*
D03*
X300000D02*
D03*
X292500D02*
D03*
X830000Y485000D02*
D03*
X919960Y187500D02*
D03*
X850000Y272500D02*
D03*
Y252500D02*
D03*
X840000Y262500D02*
D03*
X830000Y272500D02*
D03*
X840000Y242500D02*
D03*
X850000Y232500D02*
D03*
Y242500D02*
D03*
X830000Y262500D02*
D03*
X840000Y252500D02*
D03*
X830000D02*
D03*
Y232500D02*
D03*
X817500D02*
D03*
X845000Y197500D02*
D03*
X835000D02*
D03*
X805000Y227500D02*
D03*
X812540Y370000D02*
D03*
X817500Y252500D02*
D03*
X820000Y370000D02*
D03*
X830000Y242500D02*
D03*
X882500Y505000D02*
D03*
X582500Y270000D02*
D03*
X1106313Y369028D02*
D03*
X1100000Y360000D02*
D03*
X985000Y340000D02*
D03*
X1045000Y335000D02*
D03*
X1059954Y329672D02*
D03*
X1372500Y520000D02*
D03*
Y527500D02*
D03*
X1280000Y492500D02*
D03*
X1150000Y520000D02*
D03*
X840000Y272500D02*
D03*
Y232500D02*
D03*
X850000Y262500D02*
D03*
X425000Y170000D02*
D03*
X392500Y175000D02*
D03*
X329960Y182500D02*
D03*
X355000Y267500D02*
D03*
X375000D02*
D03*
X430000Y272500D02*
D03*
X450000Y262500D02*
D03*
X377500Y182500D02*
D03*
Y190000D02*
D03*
X440000Y252500D02*
D03*
X430000Y242500D02*
D03*
X417500Y252500D02*
D03*
X430000Y262500D02*
D03*
X440000Y272500D02*
D03*
X430000Y252500D02*
D03*
X417500Y232500D02*
D03*
X440000Y262500D02*
D03*
X450000Y272500D02*
D03*
X405000Y227500D02*
D03*
X415000Y197500D02*
D03*
X440000Y232500D02*
D03*
X392500Y182500D02*
D03*
X450000Y242500D02*
D03*
X448936Y233564D02*
D03*
X425000Y197500D02*
D03*
X435000Y197500D02*
D03*
X412500Y170000D02*
D03*
X445000Y197500D02*
D03*
X1450000Y272500D02*
D03*
X1422500Y330000D02*
D03*
X1432500D02*
D03*
X1660000D02*
D03*
X1162500Y480000D02*
D03*
X1247500Y427460D02*
D03*
X1522500Y402500D02*
D03*
X1435000Y412500D02*
D03*
X1400000Y327500D02*
D03*
X1375000Y365000D02*
D03*
X1400000Y387500D02*
D03*
X325000Y187500D02*
D03*
Y237500D02*
D03*
X440000Y242500D02*
D03*
X450000Y252500D02*
D03*
X335000Y120000D02*
D03*
X442500Y127500D02*
D03*
X285000Y135000D02*
D03*
X372500Y140000D02*
D03*
X447314Y170186D02*
D03*
X435000Y170000D02*
D03*
X377500Y175000D02*
D03*
X385000Y182500D02*
D03*
X392500Y190000D02*
D03*
X430000Y232500D02*
D03*
X1135000Y447500D02*
D03*
X1172500Y448055D02*
D03*
X1330000Y440000D02*
D03*
X1489919Y278293D02*
D03*
X1675000Y405000D02*
D03*
X1325000Y310000D02*
D03*
X1340000Y350000D02*
D03*
X285000Y540000D02*
D03*
Y552500D02*
D03*
X295000D02*
D03*
X1324920Y237500D02*
D03*
Y187500D02*
D03*
X1250000Y275000D02*
D03*
X1240000D02*
D03*
X1250000Y265000D02*
D03*
X1240000D02*
D03*
X1250000Y255000D02*
D03*
X1230000Y275000D02*
D03*
X1250000Y245000D02*
D03*
X1230000Y265000D02*
D03*
X1240000Y255000D02*
D03*
X925000Y237500D02*
D03*
X1040000Y272500D02*
D03*
X1050000D02*
D03*
X1230000Y255000D02*
D03*
X1250000Y235000D02*
D03*
X1240000Y245000D02*
D03*
X1217500Y252500D02*
D03*
X1240000Y235000D02*
D03*
X1230000Y245000D02*
D03*
X1290000Y520000D02*
D03*
X1280000D02*
D03*
X1270000D02*
D03*
X1260000D02*
D03*
X1525000Y532500D02*
D03*
X1372500Y535000D02*
D03*
X1340000Y365000D02*
D03*
X1525000Y337500D02*
D03*
X1537500Y345000D02*
D03*
X1432250Y488500D02*
D03*
X190000Y100000D02*
D03*
X180000D02*
D03*
X170000D02*
D03*
X160000D02*
D03*
X150000D02*
D03*
Y110000D02*
D03*
Y120000D02*
D03*
Y130000D02*
D03*
Y140000D02*
D03*
Y150000D02*
D03*
X240000Y100000D02*
D03*
Y110000D02*
D03*
Y120000D02*
D03*
Y130000D02*
D03*
Y140000D02*
D03*
Y150000D02*
D03*
X230000D02*
D03*
Y140000D02*
D03*
Y130000D02*
D03*
Y120000D02*
D03*
Y110000D02*
D03*
Y100000D02*
D03*
X220000D02*
D03*
Y110000D02*
D03*
Y120000D02*
D03*
Y130000D02*
D03*
Y140000D02*
D03*
Y150000D02*
D03*
X210000Y100000D02*
D03*
Y110000D02*
D03*
Y120000D02*
D03*
Y130000D02*
D03*
Y140000D02*
D03*
Y150000D02*
D03*
X200000Y100000D02*
D03*
Y110000D02*
D03*
Y120000D02*
D03*
Y130000D02*
D03*
Y140000D02*
D03*
Y150000D02*
D03*
X1432250Y508250D02*
D03*
X1471750Y468750D02*
D03*
X1452000D02*
D03*
X1432250D02*
D03*
X1452000Y508250D02*
D03*
X1471750D02*
D03*
Y488500D02*
D03*
X1452000D02*
D03*
X1530000Y120000D02*
D03*
X1378564Y183564D02*
D03*
X1375186Y172686D02*
D03*
X1485000Y135000D02*
D03*
X1330000Y120000D02*
D03*
X1125000Y130000D02*
D03*
X925000Y135000D02*
D03*
X725000D02*
D03*
X525000D02*
D03*
X1615000Y172500D02*
D03*
X1630000Y242500D02*
D03*
X1640000Y262500D02*
D03*
X1630000D02*
D03*
X1615000Y197500D02*
D03*
X1645000D02*
D03*
X1640000Y232500D02*
D03*
X1615000D02*
D03*
X1605000Y227500D02*
D03*
X1650000Y272500D02*
D03*
X1640000D02*
D03*
X1625000Y197500D02*
D03*
X1635000D02*
D03*
X1625000Y172500D02*
D03*
X1635000D02*
D03*
X1642500Y127500D02*
D03*
X1525000Y237500D02*
D03*
Y187500D02*
D03*
X1535000Y182500D02*
D03*
X1617500Y252500D02*
D03*
X1575000Y267500D02*
D03*
X1592500Y182500D02*
D03*
Y190000D02*
D03*
Y175000D02*
D03*
X1577500Y190000D02*
D03*
X1585000Y182500D02*
D03*
X1577500D02*
D03*
Y175000D02*
D03*
X1572500Y140000D02*
D03*
X1205000Y227500D02*
D03*
X1245000Y172500D02*
D03*
X1225000Y197500D02*
D03*
X1235000D02*
D03*
Y172500D02*
D03*
X1225000D02*
D03*
X1242500Y127500D02*
D03*
X1125000Y237500D02*
D03*
X1175000Y267500D02*
D03*
X1155000D02*
D03*
X1085000Y135000D02*
D03*
X1192500Y182500D02*
D03*
Y175000D02*
D03*
Y190000D02*
D03*
X1177500D02*
D03*
X1185000Y182500D02*
D03*
X1177500D02*
D03*
Y175000D02*
D03*
X1172500Y140000D02*
D03*
X1440000Y242500D02*
D03*
X1430000Y252500D02*
D03*
Y262500D02*
D03*
X1445000Y197500D02*
D03*
X1430000Y232500D02*
D03*
X1415000D02*
D03*
X1405000Y227500D02*
D03*
X1450000Y242500D02*
D03*
Y252500D02*
D03*
Y262500D02*
D03*
X1440000Y272500D02*
D03*
X1430000D02*
D03*
X1425000Y197500D02*
D03*
X1435000D02*
D03*
Y172500D02*
D03*
X1425000D02*
D03*
X1442500Y127500D02*
D03*
X1417500Y252500D02*
D03*
X1375000Y267500D02*
D03*
X1355000D02*
D03*
X1285000Y135000D02*
D03*
X1392500Y182500D02*
D03*
Y175000D02*
D03*
Y190000D02*
D03*
X1377500D02*
D03*
X1385000Y182500D02*
D03*
X1372500Y140000D02*
D03*
X1245000Y197500D02*
D03*
X1230000Y235000D02*
D03*
X1215000Y232500D02*
D03*
X1040000Y242500D02*
D03*
X1030000D02*
D03*
X1040000Y262500D02*
D03*
X1030000D02*
D03*
X1015000Y197500D02*
D03*
X1045000D02*
D03*
X1005000Y227500D02*
D03*
X1050000Y262500D02*
D03*
X1030000Y272500D02*
D03*
X1025000Y197500D02*
D03*
X1035000D02*
D03*
Y172500D02*
D03*
X1025000D02*
D03*
X1042500Y127500D02*
D03*
X935000Y182500D02*
D03*
X1017500Y252500D02*
D03*
X975000Y267500D02*
D03*
X955000D02*
D03*
X885000Y135000D02*
D03*
X992500Y182500D02*
D03*
Y175000D02*
D03*
Y190000D02*
D03*
X977500D02*
D03*
X985000Y182500D02*
D03*
X977500D02*
D03*
Y175000D02*
D03*
X972500Y140000D02*
D03*
X825000Y197500D02*
D03*
X835000Y172500D02*
D03*
X825000D02*
D03*
X842500Y127500D02*
D03*
X725000Y237500D02*
D03*
X735000Y182500D02*
D03*
X775000Y267500D02*
D03*
X755000D02*
D03*
X685000Y135000D02*
D03*
X792500Y182500D02*
D03*
Y175000D02*
D03*
Y190000D02*
D03*
X777500D02*
D03*
X785000Y182500D02*
D03*
X777500D02*
D03*
Y175000D02*
D03*
X772500Y140000D02*
D03*
X615000Y172500D02*
D03*
X640000Y242500D02*
D03*
Y262500D02*
D03*
X650000D02*
D03*
Y272500D02*
D03*
X635000Y197500D02*
D03*
X625000D02*
D03*
X635000Y172500D02*
D03*
X625000D02*
D03*
X642500Y127500D02*
D03*
X617500Y252500D02*
D03*
X485000Y135000D02*
D03*
X592500Y182500D02*
D03*
Y175000D02*
D03*
Y190000D02*
D03*
X577500D02*
D03*
X585000Y182500D02*
D03*
X577500D02*
D03*
Y175000D02*
D03*
X572500Y140000D02*
D03*
X815000Y172500D02*
D03*
X845000D02*
D03*
X640000Y252500D02*
D03*
X630000Y262500D02*
D03*
X615000Y197500D02*
D03*
X645000D02*
D03*
X640000Y232500D02*
D03*
X645000Y172500D02*
D03*
X650000Y242500D02*
D03*
X1640000D02*
D03*
Y252500D02*
D03*
X1630000D02*
D03*
Y232500D02*
D03*
X1650000D02*
D03*
X1645000Y172500D02*
D03*
X1650000Y242500D02*
D03*
Y252500D02*
D03*
Y262500D02*
D03*
X1415000Y172500D02*
D03*
X1430000Y242500D02*
D03*
X1440000Y252500D02*
D03*
Y262500D02*
D03*
X1415000Y197500D02*
D03*
X1440000Y232500D02*
D03*
X1450000D02*
D03*
X1445000Y172500D02*
D03*
X1215000D02*
D03*
Y197500D02*
D03*
X1015000Y172500D02*
D03*
X1040000Y252500D02*
D03*
X1030000D02*
D03*
X1040000Y232500D02*
D03*
X1030000D02*
D03*
X1017500D02*
D03*
X1050000D02*
D03*
X1045000Y172500D02*
D03*
X1050000Y242500D02*
D03*
Y252500D02*
D03*
X815000Y197500D02*
D03*
X630000Y242500D02*
D03*
Y252500D02*
D03*
Y232500D02*
D03*
X617500D02*
D03*
X605000Y227500D02*
D03*
X650000Y232500D02*
D03*
Y252500D02*
D03*
X640000Y272500D02*
D03*
X630000D02*
D03*
D110*
X317750Y415000D02*
D03*
X309250D02*
D03*
X300750D02*
D03*
X317750Y403400D02*
D03*
X309250D02*
D03*
X300750D02*
D03*
X317750Y426600D02*
D03*
X309250D02*
D03*
X300750D02*
D03*
X309250Y394500D02*
D03*
Y435500D02*
D03*
M02*
