G04*
G04 #@! TF.GenerationSoftware,Altium Limited,Altium Designer,24.5.2 (23)*
G04*
G04 Layer_Color=16711935*
%FSLAX44Y44*%
%MOMM*%
G71*
G04*
G04 #@! TF.SameCoordinates,18AD1EF8-D4E3-4D70-9127-A8B2740D653E*
G04*
G04*
G04 #@! TF.FilePolarity,Positive*
G04*
G01*
G75*
%ADD12C,0.2540*%
%ADD129C,0.1778*%
D12*
X1750000Y570000D02*
G03*
X1720000Y600000I-30000J-0D01*
G01*
Y0D02*
G03*
X1750000Y30000I0J30000D01*
G01*
X30000Y600000D02*
G03*
X0Y570000I0J-30000D01*
G01*
Y30000D02*
G03*
X30000Y0I30000J0D01*
G01*
X0Y30000D02*
Y570000D01*
X30000Y600000D02*
X1720000D01*
X1750000Y30000D02*
Y570000D01*
X30000Y0D02*
X1720000D01*
D129*
X1110240Y459923D02*
Y468387D01*
X1108547Y470080D01*
X1105162D01*
X1103469Y468387D01*
Y459923D01*
X1100083Y461616D02*
X1098391Y459923D01*
X1095005D01*
X1093312Y461616D01*
Y463309D01*
X1095005Y465002D01*
X1096698D01*
X1095005D01*
X1093312Y466694D01*
Y468387D01*
X1095005Y470080D01*
X1098391D01*
X1100083Y468387D01*
X1089927Y461616D02*
X1088234Y459923D01*
X1084848D01*
X1083155Y461616D01*
Y468387D01*
X1084848Y470080D01*
X1088234D01*
X1089927Y468387D01*
Y461616D01*
X1079770Y470080D02*
X1076384D01*
X1078077D01*
Y459923D01*
X1079770Y461616D01*
M02*
