M48
;Layer_Color=9474304
;FILE_FORMAT=4:4
METRIC,LZ
;TYPE=PLATED
T01F00S00C0.3000
T03F00S00C0.8128
T05F00S00C1.0160
T06F00S00C1.0200
;TYPE=NON_PLATED
T07F00S00C0.6500
T08F00S00C1.7000
T09F00S00C2.2000
T10F00S00C3.0000
T11F00S00C3.0480
T12F00S00C3.4000
%
T01
X016425Y001275
X01645Y001725
X01635
X01625
Y001975
X01635
X01645
X01655Y00195
X0165Y002325
X0164
X0163
Y002425
X0164
Y002525
Y002625
X0163
Y002525
X0165
Y002625
Y002725
X0166
X0167
X0168
X0169
X017
X0171
X0172
Y002625
Y002525
Y002425
X0173
Y002525
Y002625
Y002725
X0172Y0029
X0171
Y003
X0172
Y0031
X0171
Y0032
X0172
Y0033
X0171
Y0034
X0172
X0166
X0165
Y0033
Y0032
Y0031
Y003
Y0029
X0166
X0167
X0168
X0169
X017
X0166Y003
Y0031
X01660359Y00320667
X0166Y0033
X016675Y0039
X01675Y00405
X016625Y004325
X01645457Y00455417
X016325Y00465
X0167Y004825
X0164Y002725
X0163
X0165Y002425
X016175Y002525
X01615Y002325
X01605Y002275
X01615Y001975
Y001725
X015925Y00175
Y001825
Y0019
X015775
Y001825
X01585
X015775Y00175
X015725Y0014
X0153Y0012
X01485Y00135
X014425Y001275
X01445Y001725
X01435
X01425
X01415
X013925Y00175
Y001825
Y0019
X013775
X01378564Y00183564
X01385Y001825
X01375186Y00172686
X013725Y0014
X0133Y0012
X01285Y00135
X012425Y001275
X01245Y001725
X01235
Y001975
X01245
X0125Y00235
Y00245
X0124
Y00235
X0123
Y00245
Y00255
Y00265
X0124
X0125
Y00275
X0124
X0123
X0124Y00255
X0125
X0132492Y002375
Y001875
X0134327Y001825
X01415Y001975
X01425
X01435
X01445
X0145Y002325
Y002425
X0144
X0143
Y002525
Y002625
X0144
Y002525
X0145
Y002625
Y002725
X0144
X0143
X014175Y002525
X01415Y002325
X0143
X0144
X01405Y002275
X01375Y002675
X01355
X0135Y0032
X0134
X01325Y0031
X0133Y0035
X0134
Y00365
X0132073Y00369798
X01340056Y0039504
X0133Y0044
X013275Y0046
X01335
X013425Y0045996
X0135
X0136Y0047327
X0138Y0044677
X01392014Y00428005
X014Y004125
X0141Y0041
X01435Y004125
X01424464Y00424464
X0143225Y0046875
Y004885
X01452
Y0046875
X0147175
Y004885
X01475Y004275
X01523016Y00436984
X015225Y004025
X01525Y003375
X015375Y00345
X01555Y002675
X01575
X01525Y002375
Y001875
X01535Y001825
X01489919Y00278293
X014325Y0033
X014225
X014Y003275
X01373902Y00352157
X01375Y00365
X014Y003875
X0129Y004075
X012475Y0042746
X012475Y0037
X01275433Y00353869
X0128Y004925
X0131Y0047
X015975Y004675
X0159Y0044
X011725Y00448055
Y0041
X01160209Y00388303
X01145Y003925
X01115Y0037827
X01106313Y00369028
X011Y0036
X01080431Y00390601
X01085Y0043
X010725
X01082971Y00449319
X010925Y004525
Y004725
X010825Y00475
X01135Y0049173
X011625Y0048
X01135Y004475
X0102Y0043254
X009475Y00430991
X0094577Y0042077
X00955Y004175
X00915Y0043
X0088Y004325
X0085504Y0042531
X0085Y00465
Y00475
X0084
Y00465
X00915Y0049173
X00985Y0034
X01045Y00335
X01059954Y00329672
X0106031Y00303051
X0105Y002725
X0104
X0103
Y002625
X0104
Y002525
X0103
Y002425
X0104
Y002325
X0103
X010175
X01005Y002275
X010175Y002525
X0105
Y002625
Y002425
Y002325
X01045Y001975
X01035
X01025
X01015
Y001725
X01025
X01035
X01045
X010425Y001275
X01085Y00135
X01125Y0013
X011725Y0014
X011775Y00175
Y001825
X01185
X011925
Y00175
Y0019
X011775
X01215Y001975
X01225
Y001725
X01215
Y002325
X01205Y002275
X012175Y002525
X01175Y002675
X01155
X01125Y002375
X01124484Y00188016
X01135144Y00182356
X009925Y001825
Y00175
X009775
Y001825
X00985
X009775Y0019
X009925
X00935Y001825
X0091996Y001875
X00925Y002375
X00955Y002675
X00975
X0085Y002725
X0084
Y002625
Y002525
X0085
Y002625
Y002425
X0084
Y002325
X0085
X00845Y001975
X00835
Y001725
X00845
X008425Y001275
X00885Y00135
X00925
X009725Y0014
X00825Y001725
X00815
X007925Y00175
Y001825
Y0019
X007775
Y001825
X00785
X007775Y00175
X007725Y0014
X00725Y00135
X00685
X006425Y001275
X00645Y001725
X00635
X00625
X00615
X005925Y00175
Y001825
Y0019
X005775
Y001825
X00585
X005775Y00175
X005725Y0014
X00525Y00135
X00485
X004425Y001275
X00447314Y00170186
X00435Y0017
X00435Y001975
X00445
X00448936Y00233564
X0044Y002325
Y002425
Y002525
Y002625
X0045
Y002525
Y002425
Y002725
X0044
X00525Y0023673
X00524119Y00187651
X00535016Y00182491
X00615Y001975
X00625
X00635
X00645
X0065Y002325
X0064
X0063
Y002425
X0064
Y002525
Y002625
X0063
Y002525
X006175
Y002325
X00605Y002275
X0065Y002425
Y002525
Y002625
Y002725
X0064
X0063
X005825Y0027
X0057033Y0027217
X0057Y0033
X0058
X0059
Y0034
X0058
Y0035
X0059
Y0036
X0058
Y0037
X0059
X0057
Y0036
Y0035
Y0034
X0056
Y0033
X0055
X0054
Y0034
X0055
Y0035
Y0036
X0054
Y0035
X0053
Y0036
Y0037
X0054
X0055
X0056
Y0036
Y0035
Y0038
X0055
X0054
X0053
Y0034
Y0033
X0069Y00355
Y0038
X0067467Y0039283
X00684631Y0041031
X0069Y00425
X006625Y0042
X00655Y0042
X006475Y0042
X0064
X00615Y004675
Y004775
X00735Y0049
X0079Y0046012
X0083Y00465
Y00475
Y00485
X0082
X00818831Y0042077
X00795Y004125
X00784656Y00420344
X0079Y0039
X007625Y003775
X007425Y0034
X00755Y002675
X00775
X008175Y002525
X0083
Y002625
Y002725
Y002425
Y002325
X008175
X00805Y002275
X00815Y001975
X00825
X00735Y001825
X0071923Y001875
X00725Y002375
X0081254Y0037
X0082
X0043Y002725
Y002625
Y002525
Y002425
Y002325
X004175
X00405Y002275
X004175Y002525
X00375Y002675
X00355
X00325Y002375
Y001875
X0032996Y001825
X003775
X00385
X003925
Y00175
X003775Y00175
Y0019
X003925
X00415Y001975
X00425
Y0017
X004125
X003725Y0014
X00335Y0012
X00285Y00135
X0024Y0013
X0023
Y0014
X0024
Y0015
X0023
X0022
Y0014
Y0013
Y0012
X0023
X0024
Y0011
X0023
Y001
X0024
X0022
Y0011
X0021
Y001
X002
X0019
X0018
X0017
X0016
X0015
Y0011
Y0012
Y0013
Y0014
Y0015
X002
Y0014
X0021
Y0015
Y0013
Y0012
X002
Y0011
Y0013
Y0032
X00207662Y00327175
X0021Y003425
Y0035
X002225
Y003425
X00235
Y0035
X00245
Y003425
X0026
Y0035
X00275
Y003425
X002825Y003775
X00282531Y00382339
X00282344Y0038724
X002825Y003925
Y003975
X0030075Y004034
X0030925
X0031775
Y00415
X0030925
X0030075
Y004266
X0030925
X0031775
X0030925Y004355
X003075Y00455
Y004625
X003
Y00455
X002925
Y004625
X00285
X002775
Y00455
X00285
X00285222Y00448779
X002925Y004475
X00285Y0047
X002775
X00335Y004925
X003425
X0035
X003575
X00365
X003725
X0037Y00485
Y004775
Y0047
X00338515Y00430908
X0030925Y003945
X0013Y0042
Y00425
X0012
Y0042
X0011
Y00425
Y0043
X0012
X001
Y00425
Y0042
X0009
Y00425
Y0043
X0008
Y00425
Y0042
X0007
Y00425
Y0043
X003275Y00495
X00325Y0054
X00314904Y00540541
X00294904
X00285Y0054
Y005525
X00295
X00304904Y00565541
Y00520541
X0037Y0050259
X00535Y005025
Y005125
X00545
Y005025
X00555
Y005125
Y005225
X00545
X00535
X005675Y00515
X00575
X005825
X0059
X005975
Y00505
X0059
X005825
X00575
X005675
X0059Y00495
X005975
X00735Y004975
X008Y0053
Y0054
X0081
X0082
X0083
Y0053
X0082
X0081
X0084
Y0054
X0085
X0086
Y0053
X0085
X008825Y00505
X008925Y0050087
X00905488Y00495734
X0115Y0052
X0126
X0127
X0128
X0129
X013Y00515
X0130775Y00515
X013175Y00515
X013725Y0052
Y005275
Y00535
X0143225Y0050825
X01452
X0147175
X01525Y005325
T03
X00285Y000725
X003104
X00485
X005104
X00685
X007104
X00885
X009104
X01085
X011104
X01285
X013104
X01485
X015104
X012224Y0042
X01197
Y005
X012224
T05
X003495Y0057214
X003749
X004003
X004257
T06
X00065Y001
X00095
Y0013
Y0016
Y0019
X00065
Y0016
Y0013
Y0022
X00095
T07
X017007Y00411314
Y00469114
T08
X0005Y0034
Y0039
T09
X0005Y00287
Y00443
T10
X000218Y001215
Y001985
T11
X0054Y002775
X002352
Y005569
X0054
T12
X001675Y0005
X017
X0159Y0035
X0118
X009
X0045Y0033
X001675Y0052
X011Y0055
X017
M30
