G04*
G04 #@! TF.GenerationSoftware,Altium Limited,Altium Designer,24.5.2 (23)*
G04*
G04 Layer_Physical_Order=4*
G04 Layer_Color=16711680*
%FSLAX44Y44*%
%MOMM*%
G71*
G04*
G04 #@! TF.SameCoordinates,89E67EBC-8B33-4F8A-85E1-C4BFE03A709E*
G04*
G04*
G04 #@! TF.FilePolarity,Positive*
G04*
G01*
G75*
%ADD12C,0.2540*%
%ADD79C,3.0000*%
%ADD80C,1.5700*%
%ADD81R,1.5700X1.5700*%
%ADD100C,0.6350*%
%ADD101C,0.5080*%
%ADD103C,1.5240*%
%ADD104R,1.5240X1.5240*%
G04:AMPARAMS|DCode=105|XSize=2mm|YSize=2mm|CornerRadius=0mm|HoleSize=0mm|Usage=FLASHONLY|Rotation=0.000|XOffset=0mm|YOffset=0mm|HoleType=Round|Shape=Octagon|*
%AMOCTAGOND105*
4,1,8,1.0000,-0.5000,1.0000,0.5000,0.5000,1.0000,-0.5000,1.0000,-1.0000,0.5000,-1.0000,-0.5000,-0.5000,-1.0000,0.5000,-1.0000,1.0000,-0.5000,0.0*
%
%ADD105OCTAGOND105*%

%ADD106C,1.2192*%
%ADD107R,4.0000X1.5000*%
%ADD108R,3.5000X1.5000*%
%ADD109R,1.5000X3.5000*%
%ADD110O,2.1000X1.0500*%
%ADD111O,1.8000X0.9000*%
%ADD112C,0.6500*%
%ADD113C,2.5000*%
G04:AMPARAMS|DCode=114|XSize=1.2mm|YSize=3.2mm|CornerRadius=0mm|HoleSize=0mm|Usage=FLASHONLY|Rotation=90.000|XOffset=0mm|YOffset=0mm|HoleType=Round|Shape=Octagon|*
%AMOCTAGOND114*
4,1,8,-1.6000,-0.3000,-1.6000,0.3000,-1.3000,0.6000,1.3000,0.6000,1.6000,0.3000,1.6000,-0.3000,1.3000,-0.6000,-1.3000,-0.6000,-1.6000,-0.3000,0.0*
%
%ADD114OCTAGOND114*%

%ADD115O,1.2000X3.0000*%
%ADD116O,3.0000X1.2000*%
%ADD117R,1.5000X4.0000*%
%ADD118C,0.5000*%
G36*
X150000Y533408D02*
X148004Y530421D01*
X146346Y526417D01*
X145500Y522167D01*
Y517833D01*
X146346Y513583D01*
X148004Y509579D01*
X150000Y506592D01*
Y453796D01*
X148730Y452947D01*
X146872Y453717D01*
X144000Y454095D01*
X126000D01*
X123128Y453717D01*
X120452Y452608D01*
X118155Y450845D01*
X116391Y448547D01*
X115283Y445872D01*
X114905Y443000D01*
X115283Y440128D01*
X116391Y437453D01*
X118155Y435155D01*
X120452Y433391D01*
X123128Y432283D01*
X126000Y431905D01*
X144000D01*
X146872Y432283D01*
X148730Y433053D01*
X150000Y432204D01*
Y315000D01*
X433887D01*
X435976Y312911D01*
X439579Y310504D01*
X443583Y308846D01*
X447833Y308000D01*
X452167D01*
X456417Y308846D01*
X460421Y310504D01*
X464024Y312911D01*
X466113Y315000D01*
X1317760D01*
X1318493Y313730D01*
X1318011Y312895D01*
X1317500Y310987D01*
Y309013D01*
X1318011Y307105D01*
X1318999Y305395D01*
X1320395Y303999D01*
X1322105Y303011D01*
X1324013Y302500D01*
X1325987D01*
X1327895Y303011D01*
X1329605Y303999D01*
X1331001Y305395D01*
X1331989Y307105D01*
X1332500Y309013D01*
Y310987D01*
X1331989Y312895D01*
X1331507Y313730D01*
X1332240Y315000D01*
X1665500D01*
X1672500Y308000D01*
X1687500D01*
X1688827Y309327D01*
X1690000Y308841D01*
Y261159D01*
X1688827Y260673D01*
X1687500Y262000D01*
X1672500D01*
X1665000Y254500D01*
Y239500D01*
X1672500Y232000D01*
X1687500D01*
X1688827Y233327D01*
X1690000Y232841D01*
Y210000D01*
X240000D01*
Y10248D01*
X28705D01*
X26138Y10586D01*
X23637Y11256D01*
X21245Y12247D01*
X19003Y13541D01*
X16948Y15117D01*
X15117Y16948D01*
X13541Y19003D01*
X12247Y21245D01*
X11256Y23637D01*
X10586Y26138D01*
X10248Y28705D01*
Y30000D01*
Y103818D01*
X11368Y104417D01*
X12326Y103776D01*
X15966Y102269D01*
X19830Y101500D01*
X23770D01*
X27634Y102269D01*
X31274Y103776D01*
X34549Y105965D01*
X37335Y108751D01*
X39524Y112027D01*
X41031Y115666D01*
X41800Y119530D01*
Y123470D01*
X41031Y127334D01*
X39524Y130974D01*
X37335Y134249D01*
X34549Y137035D01*
X31274Y139224D01*
X27634Y140731D01*
X23770Y141500D01*
X19830D01*
X15966Y140731D01*
X12326Y139224D01*
X11368Y138583D01*
X10248Y139182D01*
Y180818D01*
X11368Y181417D01*
X12326Y180776D01*
X15966Y179269D01*
X19830Y178500D01*
X23770D01*
X27634Y179269D01*
X31274Y180776D01*
X34549Y182965D01*
X37335Y185751D01*
X39524Y189027D01*
X41031Y192666D01*
X41800Y196530D01*
Y200470D01*
X41031Y204334D01*
X39524Y207973D01*
X38918Y208880D01*
X39517Y210000D01*
X38170D01*
X37335Y211249D01*
X34549Y214035D01*
X31274Y216224D01*
X27634Y217731D01*
X23770Y218500D01*
X19830D01*
X15966Y217731D01*
X12326Y216224D01*
X11368Y215583D01*
X10248Y216182D01*
Y570000D01*
Y571295D01*
X10586Y573862D01*
X11256Y576363D01*
X12247Y578755D01*
X13541Y580997D01*
X15117Y583051D01*
X16948Y584883D01*
X19003Y586459D01*
X21245Y587753D01*
X23637Y588744D01*
X26138Y589414D01*
X28705Y589752D01*
X150000D01*
Y533408D01*
D02*
G37*
G36*
X1739753Y30000D02*
X1739752Y28705D01*
X1739415Y26138D01*
X1738744Y23637D01*
X1737753Y21245D01*
X1736459Y19002D01*
X1734883Y16948D01*
X1733052Y15117D01*
X1730997Y13541D01*
X1728755Y12247D01*
X1726363Y11256D01*
X1723862Y10586D01*
X1721295Y10248D01*
X250000D01*
Y204902D01*
X1690000D01*
X1690493Y205000D01*
X1739753D01*
Y30000D01*
D02*
G37*
%LPC*%
G36*
X120040Y542540D02*
X113000D01*
Y523000D01*
X120040D01*
Y542540D01*
D02*
G37*
G36*
X107000D02*
X99960D01*
Y523000D01*
X107000D01*
Y542540D01*
D02*
G37*
G36*
X62500Y542500D02*
X37500D01*
Y497500D01*
X62500D01*
Y542500D01*
D02*
G37*
G36*
X120040Y517000D02*
X113000D01*
Y497460D01*
X120040D01*
Y517000D01*
D02*
G37*
G36*
X107000D02*
X99960D01*
Y497460D01*
X107000D01*
Y517000D01*
D02*
G37*
G36*
X102500Y485500D02*
X57500D01*
Y460500D01*
X102500D01*
Y485500D01*
D02*
G37*
G36*
X51724Y460500D02*
X48276D01*
X44895Y459827D01*
X41711Y458508D01*
X38844Y456593D01*
X36407Y454156D01*
X34492Y451289D01*
X33173Y448105D01*
X32500Y444724D01*
Y441276D01*
X33173Y437895D01*
X34492Y434711D01*
X36407Y431844D01*
X38844Y429407D01*
X41711Y427492D01*
X44895Y426172D01*
X48276Y425500D01*
X51724D01*
X55105Y426172D01*
X58289Y427492D01*
X61156Y429407D01*
X63593Y431844D01*
X65508Y434711D01*
X66828Y437895D01*
X67500Y441276D01*
Y444724D01*
X66828Y448105D01*
X65508Y451289D01*
X63593Y454156D01*
X61156Y456593D01*
X58289Y458508D01*
X55105Y459827D01*
X51724Y460500D01*
D02*
G37*
G36*
X137000Y405000D02*
X106000D01*
X101250Y400250D01*
X100500Y401000D01*
X69500D01*
X64000Y395500D01*
Y394818D01*
X62730Y394651D01*
X62580Y395211D01*
X60803Y398289D01*
X58289Y400803D01*
X55211Y402580D01*
X51777Y403500D01*
X48223D01*
X44789Y402580D01*
X41711Y400803D01*
X39197Y398289D01*
X37420Y395211D01*
X36500Y391777D01*
Y388223D01*
X37420Y384789D01*
X38474Y382964D01*
X37501Y382110D01*
X35547Y383609D01*
X32872Y384717D01*
X30000Y385095D01*
X27128Y384717D01*
X24453Y383609D01*
X22155Y381845D01*
X20391Y379547D01*
X19283Y376872D01*
X18905Y374000D01*
Y356000D01*
X19283Y353128D01*
X20391Y350452D01*
X22155Y348155D01*
X24453Y346391D01*
X27128Y345283D01*
X30000Y344905D01*
X32872Y345283D01*
X35547Y346391D01*
X37501Y347890D01*
X38474Y347036D01*
X37420Y345211D01*
X36500Y341777D01*
Y338223D01*
X37420Y334789D01*
X39197Y331711D01*
X41711Y329197D01*
X44789Y327420D01*
X48223Y326500D01*
X51777D01*
X55211Y327420D01*
X58289Y329197D01*
X60803Y331711D01*
X62580Y334789D01*
X63500Y338223D01*
Y341777D01*
X62580Y345211D01*
X60803Y348289D01*
X58289Y350803D01*
X55211Y352580D01*
X51777Y353500D01*
X48223D01*
X44789Y352580D01*
X41711Y350803D01*
X40626Y349718D01*
X39609Y350453D01*
X40717Y353128D01*
X41095Y356000D01*
Y374000D01*
X40717Y376872D01*
X39609Y379547D01*
X40626Y380282D01*
X41711Y379197D01*
X44789Y377420D01*
X48223Y376500D01*
X51777D01*
X55211Y377420D01*
X58289Y379197D01*
X60803Y381711D01*
X62580Y384789D01*
X62730Y385349D01*
X64000Y385182D01*
Y384500D01*
X69500Y379000D01*
X100500D01*
X105250Y383750D01*
X106000Y383000D01*
X137000D01*
X142500Y388500D01*
Y399500D01*
X137000Y405000D01*
D02*
G37*
G36*
X82000Y348540D02*
X70730D01*
X66460Y344270D01*
Y343000D01*
X82000D01*
Y348540D01*
D02*
G37*
G36*
X135770Y344540D02*
X124500D01*
Y339000D01*
X140040D01*
Y340270D01*
X135770Y344540D01*
D02*
G37*
G36*
X82000Y337000D02*
X66460D01*
Y335730D01*
X70730Y331460D01*
X82000D01*
Y337000D01*
D02*
G37*
G36*
X140040Y333000D02*
X124500D01*
Y327460D01*
X135770D01*
X140040Y331730D01*
Y333000D01*
D02*
G37*
G36*
X99270Y348540D02*
X88000D01*
Y340000D01*
Y331460D01*
X99270D01*
X101787Y333977D01*
X102960Y333491D01*
Y331730D01*
X107230Y327460D01*
X118500D01*
Y336000D01*
Y344540D01*
X107230D01*
X104713Y342023D01*
X103540Y342509D01*
Y344270D01*
X99270Y348540D01*
D02*
G37*
G36*
X144000Y298095D02*
X126000D01*
X123128Y297717D01*
X120452Y296608D01*
X118155Y294845D01*
X116391Y292547D01*
X115283Y289872D01*
X114905Y287000D01*
X115283Y284128D01*
X116391Y281453D01*
X118155Y279155D01*
X120452Y277391D01*
X123128Y276283D01*
X126000Y275905D01*
X144000D01*
X146872Y276283D01*
X149547Y277391D01*
X151845Y279155D01*
X153609Y281453D01*
X154717Y284128D01*
X155095Y287000D01*
X154717Y289872D01*
X153609Y292547D01*
X151845Y294845D01*
X149547Y296608D01*
X146872Y297717D01*
X144000Y298095D01*
D02*
G37*
G36*
X1490907Y285793D02*
X1488932D01*
X1487025Y285282D01*
X1485314Y284295D01*
X1483918Y282898D01*
X1482930Y281188D01*
X1482419Y279281D01*
Y277306D01*
X1482930Y275398D01*
X1483918Y273688D01*
X1485314Y272292D01*
X1487025Y271304D01*
X1488932Y270793D01*
X1490907D01*
X1492814Y271304D01*
X1494525Y272292D01*
X1495921Y273688D01*
X1496908Y275398D01*
X1497419Y277306D01*
Y279281D01*
X1496908Y281188D01*
X1495921Y282898D01*
X1494525Y284295D01*
X1492814Y285282D01*
X1490907Y285793D01*
D02*
G37*
G36*
X51724Y304500D02*
X48276D01*
X44895Y303827D01*
X41711Y302508D01*
X38844Y300593D01*
X36407Y298156D01*
X34492Y295289D01*
X33173Y292104D01*
X32500Y288724D01*
Y285276D01*
X33173Y281895D01*
X34492Y278711D01*
X36407Y275844D01*
X38844Y273407D01*
X41711Y271492D01*
X44895Y270173D01*
X48276Y269500D01*
X51724D01*
X55105Y270173D01*
X58289Y271492D01*
X61156Y273407D01*
X63593Y275844D01*
X65508Y278711D01*
X66828Y281895D01*
X67500Y285276D01*
Y288724D01*
X66828Y292104D01*
X65508Y295289D01*
X63593Y298156D01*
X61156Y300593D01*
X58289Y302508D01*
X55105Y303827D01*
X51724Y304500D01*
D02*
G37*
G36*
X570987Y280000D02*
X569013D01*
X567105Y279489D01*
X565395Y278501D01*
X563998Y277105D01*
X563011Y275395D01*
X562500Y273487D01*
Y271513D01*
X563011Y269605D01*
X563998Y267895D01*
X565395Y266499D01*
X567105Y265511D01*
X569013Y265000D01*
X570987D01*
X572895Y265511D01*
X574605Y266499D01*
X576059Y266156D01*
X576498Y265395D01*
X577895Y263999D01*
X579605Y263011D01*
X581513Y262500D01*
X583487D01*
X585395Y263011D01*
X587105Y263999D01*
X588502Y265395D01*
X589489Y267105D01*
X590000Y269013D01*
Y270987D01*
X589489Y272895D01*
X588502Y274605D01*
X587105Y276001D01*
X585395Y276989D01*
X583487Y277500D01*
X581513D01*
X579605Y276989D01*
X577895Y276001D01*
X576441Y276344D01*
X576002Y277105D01*
X574605Y278501D01*
X572895Y279489D01*
X570987Y280000D01*
D02*
G37*
G36*
X1575987Y275000D02*
X1574013D01*
X1572105Y274489D01*
X1570395Y273501D01*
X1568999Y272105D01*
X1568011Y270395D01*
X1567500Y268487D01*
Y266513D01*
X1568011Y264605D01*
X1568999Y262895D01*
X1570395Y261499D01*
X1572105Y260511D01*
X1574013Y260000D01*
X1575987D01*
X1577895Y260511D01*
X1579605Y261499D01*
X1581001Y262895D01*
X1581989Y264605D01*
X1582500Y266513D01*
Y268487D01*
X1581989Y270395D01*
X1581001Y272105D01*
X1579605Y273501D01*
X1577895Y274489D01*
X1575987Y275000D01*
D02*
G37*
G36*
X1375987D02*
X1374013D01*
X1372105Y274489D01*
X1370395Y273501D01*
X1368999Y272105D01*
X1368011Y270395D01*
X1367500Y268487D01*
Y266513D01*
X1368011Y264605D01*
X1368999Y262895D01*
X1370395Y261499D01*
X1372105Y260511D01*
X1374013Y260000D01*
X1375987D01*
X1377895Y260511D01*
X1379605Y261499D01*
X1381001Y262895D01*
X1381989Y264605D01*
X1382500Y266513D01*
Y268487D01*
X1381989Y270395D01*
X1381001Y272105D01*
X1379605Y273501D01*
X1377895Y274489D01*
X1375987Y275000D01*
D02*
G37*
G36*
X1355987D02*
X1354013D01*
X1352105Y274489D01*
X1350395Y273501D01*
X1348999Y272105D01*
X1348011Y270395D01*
X1347500Y268487D01*
Y266513D01*
X1348011Y264605D01*
X1348999Y262895D01*
X1350395Y261499D01*
X1352105Y260511D01*
X1354013Y260000D01*
X1355987D01*
X1357895Y260511D01*
X1359605Y261499D01*
X1361001Y262895D01*
X1361989Y264605D01*
X1362500Y266513D01*
Y268487D01*
X1361989Y270395D01*
X1361001Y272105D01*
X1359605Y273501D01*
X1357895Y274489D01*
X1355987Y275000D01*
D02*
G37*
G36*
X1175987D02*
X1174013D01*
X1172105Y274489D01*
X1170395Y273501D01*
X1168998Y272105D01*
X1168011Y270395D01*
X1167500Y268487D01*
Y266513D01*
X1168011Y264605D01*
X1168998Y262895D01*
X1170395Y261499D01*
X1172105Y260511D01*
X1174013Y260000D01*
X1175987D01*
X1177895Y260511D01*
X1179605Y261499D01*
X1181002Y262895D01*
X1181989Y264605D01*
X1182500Y266513D01*
Y268487D01*
X1181989Y270395D01*
X1181002Y272105D01*
X1179605Y273501D01*
X1177895Y274489D01*
X1175987Y275000D01*
D02*
G37*
G36*
X1155987D02*
X1154013D01*
X1152105Y274489D01*
X1150395Y273501D01*
X1148998Y272105D01*
X1148011Y270395D01*
X1147500Y268487D01*
Y266513D01*
X1148011Y264605D01*
X1148998Y262895D01*
X1150395Y261499D01*
X1152105Y260511D01*
X1154013Y260000D01*
X1155987D01*
X1157895Y260511D01*
X1159605Y261499D01*
X1161002Y262895D01*
X1161989Y264605D01*
X1162500Y266513D01*
Y268487D01*
X1161989Y270395D01*
X1161002Y272105D01*
X1159605Y273501D01*
X1157895Y274489D01*
X1155987Y275000D01*
D02*
G37*
G36*
X975987D02*
X974013D01*
X972105Y274489D01*
X970395Y273501D01*
X968998Y272105D01*
X968011Y270395D01*
X967500Y268487D01*
Y266513D01*
X968011Y264605D01*
X968998Y262895D01*
X970395Y261499D01*
X972105Y260511D01*
X974013Y260000D01*
X975987D01*
X977895Y260511D01*
X979605Y261499D01*
X981002Y262895D01*
X981989Y264605D01*
X982500Y266513D01*
Y268487D01*
X981989Y270395D01*
X981002Y272105D01*
X979605Y273501D01*
X977895Y274489D01*
X975987Y275000D01*
D02*
G37*
G36*
X955987D02*
X954013D01*
X952105Y274489D01*
X950395Y273501D01*
X948998Y272105D01*
X948011Y270395D01*
X947500Y268487D01*
Y266513D01*
X948011Y264605D01*
X948998Y262895D01*
X950395Y261499D01*
X952105Y260511D01*
X954013Y260000D01*
X955987D01*
X957895Y260511D01*
X959605Y261499D01*
X961002Y262895D01*
X961989Y264605D01*
X962500Y266513D01*
Y268487D01*
X961989Y270395D01*
X961002Y272105D01*
X959605Y273501D01*
X957895Y274489D01*
X955987Y275000D01*
D02*
G37*
G36*
X775987D02*
X774013D01*
X772105Y274489D01*
X770395Y273501D01*
X768998Y272105D01*
X768011Y270395D01*
X767500Y268487D01*
Y266513D01*
X768011Y264605D01*
X768998Y262895D01*
X770395Y261499D01*
X772105Y260511D01*
X774013Y260000D01*
X775987D01*
X777895Y260511D01*
X779605Y261499D01*
X781002Y262895D01*
X781989Y264605D01*
X782500Y266513D01*
Y268487D01*
X781989Y270395D01*
X781002Y272105D01*
X779605Y273501D01*
X777895Y274489D01*
X775987Y275000D01*
D02*
G37*
G36*
X755987D02*
X754013D01*
X752105Y274489D01*
X750395Y273501D01*
X748998Y272105D01*
X748011Y270395D01*
X747500Y268487D01*
Y266513D01*
X748011Y264605D01*
X748998Y262895D01*
X750395Y261499D01*
X752105Y260511D01*
X754013Y260000D01*
X755987D01*
X757895Y260511D01*
X759605Y261499D01*
X761002Y262895D01*
X761989Y264605D01*
X762500Y266513D01*
Y268487D01*
X761989Y270395D01*
X761002Y272105D01*
X759605Y273501D01*
X757895Y274489D01*
X755987Y275000D01*
D02*
G37*
G36*
X375987D02*
X374013D01*
X372105Y274489D01*
X370395Y273501D01*
X368998Y272105D01*
X368011Y270395D01*
X367500Y268487D01*
Y266513D01*
X368011Y264605D01*
X368998Y262895D01*
X370395Y261499D01*
X372105Y260511D01*
X374013Y260000D01*
X375987D01*
X377895Y260511D01*
X379605Y261499D01*
X381002Y262895D01*
X381989Y264605D01*
X382500Y266513D01*
Y268487D01*
X381989Y270395D01*
X381002Y272105D01*
X379605Y273501D01*
X377895Y274489D01*
X375987Y275000D01*
D02*
G37*
G36*
X355987D02*
X354013D01*
X352105Y274489D01*
X350395Y273501D01*
X348998Y272105D01*
X348011Y270395D01*
X347500Y268487D01*
Y266513D01*
X348011Y264605D01*
X348998Y262895D01*
X350395Y261499D01*
X352105Y260511D01*
X354013Y260000D01*
X355987D01*
X357895Y260511D01*
X359605Y261499D01*
X361002Y262895D01*
X361989Y264605D01*
X362500Y266513D01*
Y268487D01*
X361989Y270395D01*
X361002Y272105D01*
X359605Y273501D01*
X357895Y274489D01*
X355987Y275000D01*
D02*
G37*
G36*
X1557928Y273810D02*
X1555953D01*
X1554046Y273298D01*
X1552335Y272311D01*
X1550939Y270915D01*
X1549952Y269204D01*
X1549440Y267297D01*
Y265322D01*
X1549952Y263415D01*
X1550939Y261704D01*
X1552335Y260308D01*
X1554046Y259321D01*
X1555953Y258810D01*
X1557928D01*
X1559835Y259321D01*
X1561546Y260308D01*
X1562942Y261704D01*
X1563929Y263415D01*
X1564440Y265322D01*
Y267297D01*
X1563929Y269204D01*
X1562942Y270915D01*
X1561546Y272311D01*
X1559835Y273298D01*
X1557928Y273810D01*
D02*
G37*
G36*
X541993Y297740D02*
X538007D01*
X534096Y296962D01*
X530413Y295436D01*
X527098Y293221D01*
X524279Y290402D01*
X522063Y287087D01*
X520538Y283404D01*
X519760Y279494D01*
Y275506D01*
X520538Y271596D01*
X522063Y267913D01*
X524279Y264598D01*
X527098Y261779D01*
X530413Y259564D01*
X534096Y258038D01*
X538007Y257260D01*
X541993D01*
X545904Y258038D01*
X549587Y259564D01*
X552902Y261779D01*
X555721Y264598D01*
X557937Y267913D01*
X559462Y271596D01*
X560240Y275506D01*
Y279494D01*
X559462Y283404D01*
X557937Y287087D01*
X555721Y290402D01*
X552902Y293221D01*
X549587Y295436D01*
X545904Y296962D01*
X541993Y297740D01*
D02*
G37*
G36*
X237194D02*
X233207D01*
X229296Y296962D01*
X225613Y295436D01*
X222298Y293221D01*
X219479Y290402D01*
X217264Y287087D01*
X215738Y283404D01*
X214960Y279494D01*
Y275506D01*
X215738Y271596D01*
X217264Y267913D01*
X219479Y264598D01*
X222298Y261779D01*
X225613Y259564D01*
X229296Y258038D01*
X233207Y257260D01*
X237194D01*
X241104Y258038D01*
X244787Y259564D01*
X248102Y261779D01*
X250921Y264598D01*
X253137Y267913D01*
X254662Y271596D01*
X255440Y275506D01*
Y279494D01*
X254662Y283404D01*
X253137Y287087D01*
X250921Y290402D01*
X248102Y293221D01*
X244787Y295436D01*
X241104Y296962D01*
X237194Y297740D01*
D02*
G37*
G36*
X1618487Y260000D02*
X1616513D01*
X1614605Y259489D01*
X1612895Y258501D01*
X1611499Y257105D01*
X1610511Y255395D01*
X1610000Y253487D01*
Y251513D01*
X1610511Y249605D01*
X1611499Y247895D01*
X1612895Y246499D01*
X1614605Y245511D01*
X1616513Y245000D01*
X1618487D01*
X1620395Y245511D01*
X1622105Y246499D01*
X1623501Y247895D01*
X1624489Y249605D01*
X1625000Y251513D01*
Y253487D01*
X1624489Y255395D01*
X1623501Y257105D01*
X1622105Y258501D01*
X1620395Y259489D01*
X1618487Y260000D01*
D02*
G37*
G36*
X1418487D02*
X1416513D01*
X1414605Y259489D01*
X1412895Y258501D01*
X1411499Y257105D01*
X1410511Y255395D01*
X1410000Y253487D01*
Y251513D01*
X1410511Y249605D01*
X1411499Y247895D01*
X1412895Y246499D01*
X1414605Y245511D01*
X1416513Y245000D01*
X1418487D01*
X1420395Y245511D01*
X1422105Y246499D01*
X1423501Y247895D01*
X1424489Y249605D01*
X1425000Y251513D01*
Y253487D01*
X1424489Y255395D01*
X1423501Y257105D01*
X1422105Y258501D01*
X1420395Y259489D01*
X1418487Y260000D01*
D02*
G37*
G36*
X1218487D02*
X1216513D01*
X1214605Y259489D01*
X1212895Y258501D01*
X1211498Y257105D01*
X1210511Y255395D01*
X1210000Y253487D01*
Y251513D01*
X1210511Y249605D01*
X1211498Y247895D01*
X1212895Y246499D01*
X1214605Y245511D01*
X1216513Y245000D01*
X1218487D01*
X1220395Y245511D01*
X1222105Y246499D01*
X1223502Y247895D01*
X1224489Y249605D01*
X1225000Y251513D01*
Y253487D01*
X1224489Y255395D01*
X1223502Y257105D01*
X1222105Y258501D01*
X1220395Y259489D01*
X1218487Y260000D01*
D02*
G37*
G36*
X1018487D02*
X1016513D01*
X1014605Y259489D01*
X1012895Y258501D01*
X1011498Y257105D01*
X1010511Y255395D01*
X1010000Y253487D01*
Y251513D01*
X1010511Y249605D01*
X1011498Y247895D01*
X1012895Y246499D01*
X1014605Y245511D01*
X1016513Y245000D01*
X1018487D01*
X1020395Y245511D01*
X1022105Y246499D01*
X1023502Y247895D01*
X1024489Y249605D01*
X1025000Y251513D01*
Y253487D01*
X1024489Y255395D01*
X1023502Y257105D01*
X1022105Y258501D01*
X1020395Y259489D01*
X1018487Y260000D01*
D02*
G37*
G36*
X818487D02*
X816513D01*
X814605Y259489D01*
X812895Y258501D01*
X811498Y257105D01*
X810511Y255395D01*
X810000Y253487D01*
Y251513D01*
X810511Y249605D01*
X811498Y247895D01*
X812895Y246499D01*
X814605Y245511D01*
X816513Y245000D01*
X818487D01*
X820395Y245511D01*
X822105Y246499D01*
X823502Y247895D01*
X824489Y249605D01*
X825000Y251513D01*
Y253487D01*
X824489Y255395D01*
X823502Y257105D01*
X822105Y258501D01*
X820395Y259489D01*
X818487Y260000D01*
D02*
G37*
G36*
X618487D02*
X616513D01*
X614605Y259489D01*
X612895Y258501D01*
X611498Y257105D01*
X610511Y255395D01*
X610000Y253487D01*
Y251513D01*
X610511Y249605D01*
X611498Y247895D01*
X612895Y246499D01*
X614605Y245511D01*
X616513Y245000D01*
X618487D01*
X620395Y245511D01*
X622105Y246499D01*
X623502Y247895D01*
X624489Y249605D01*
X625000Y251513D01*
Y253487D01*
X624489Y255395D01*
X623502Y257105D01*
X622105Y258501D01*
X620395Y259489D01*
X618487Y260000D01*
D02*
G37*
G36*
X418487D02*
X416513D01*
X414605Y259489D01*
X412895Y258501D01*
X411498Y257105D01*
X410511Y255395D01*
X410000Y253487D01*
Y251513D01*
X410511Y249605D01*
X411498Y247895D01*
X412895Y246499D01*
X414605Y245511D01*
X416513Y245000D01*
X418487D01*
X420395Y245511D01*
X422105Y246499D01*
X423502Y247895D01*
X424489Y249605D01*
X425000Y251513D01*
Y253487D01*
X424489Y255395D01*
X423502Y257105D01*
X422105Y258501D01*
X420395Y259489D01*
X418487Y260000D01*
D02*
G37*
G36*
X1525987Y245000D02*
X1524013D01*
X1522105Y244489D01*
X1520395Y243501D01*
X1518999Y242105D01*
X1518011Y240395D01*
X1517500Y238487D01*
Y236513D01*
X1518011Y234605D01*
X1518999Y232895D01*
X1520395Y231499D01*
X1522105Y230511D01*
X1524013Y230000D01*
X1525987D01*
X1527895Y230511D01*
X1529605Y231499D01*
X1531001Y232895D01*
X1531989Y234605D01*
X1532500Y236513D01*
Y238487D01*
X1531989Y240395D01*
X1531001Y242105D01*
X1529605Y243501D01*
X1527895Y244489D01*
X1525987Y245000D01*
D02*
G37*
G36*
X1125987D02*
X1124013D01*
X1122105Y244489D01*
X1120395Y243501D01*
X1118998Y242105D01*
X1118011Y240395D01*
X1117500Y238487D01*
Y236513D01*
X1118011Y234605D01*
X1118998Y232895D01*
X1120395Y231499D01*
X1122105Y230511D01*
X1124013Y230000D01*
X1125987D01*
X1127895Y230511D01*
X1129605Y231499D01*
X1131002Y232895D01*
X1131989Y234605D01*
X1132500Y236513D01*
Y238487D01*
X1131989Y240395D01*
X1131002Y242105D01*
X1129605Y243501D01*
X1127895Y244489D01*
X1125987Y245000D01*
D02*
G37*
G36*
X925987D02*
X924013D01*
X922105Y244489D01*
X920395Y243501D01*
X918998Y242105D01*
X918011Y240395D01*
X917500Y238487D01*
Y236513D01*
X918011Y234605D01*
X918998Y232895D01*
X920395Y231499D01*
X922105Y230511D01*
X924013Y230000D01*
X925987D01*
X927895Y230511D01*
X929605Y231499D01*
X931002Y232895D01*
X931989Y234605D01*
X932500Y236513D01*
Y238487D01*
X931989Y240395D01*
X931002Y242105D01*
X929605Y243501D01*
X927895Y244489D01*
X925987Y245000D01*
D02*
G37*
G36*
X725987D02*
X724013D01*
X722105Y244489D01*
X720395Y243501D01*
X718998Y242105D01*
X718011Y240395D01*
X717500Y238487D01*
Y236513D01*
X718011Y234605D01*
X718998Y232895D01*
X720395Y231499D01*
X722105Y230511D01*
X724013Y230000D01*
X725987D01*
X727895Y230511D01*
X729605Y231499D01*
X731002Y232895D01*
X731989Y234605D01*
X732500Y236513D01*
Y238487D01*
X731989Y240395D01*
X731002Y242105D01*
X729605Y243501D01*
X727895Y244489D01*
X725987Y245000D01*
D02*
G37*
G36*
X325987D02*
X324013D01*
X322105Y244489D01*
X320395Y243501D01*
X318999Y242105D01*
X318011Y240395D01*
X317500Y238487D01*
Y236513D01*
X318011Y234605D01*
X318999Y232895D01*
X320395Y231499D01*
X322105Y230511D01*
X324013Y230000D01*
X325987D01*
X327895Y230511D01*
X329605Y231499D01*
X331002Y232895D01*
X331989Y234605D01*
X332500Y236513D01*
Y238487D01*
X331989Y240395D01*
X331002Y242105D01*
X329605Y243501D01*
X327895Y244489D01*
X325987Y245000D01*
D02*
G37*
G36*
X1322676Y244999D02*
X1320701D01*
X1318793Y244488D01*
X1317083Y243500D01*
X1315687Y242104D01*
X1314699Y240394D01*
X1314188Y238486D01*
Y236511D01*
X1314699Y234604D01*
X1315687Y232894D01*
X1317083Y231497D01*
X1318793Y230510D01*
X1320701Y229999D01*
X1322676D01*
X1324583Y230510D01*
X1326293Y231497D01*
X1327690Y232894D01*
X1328677Y234604D01*
X1329188Y236511D01*
Y238486D01*
X1328677Y240394D01*
X1327690Y242104D01*
X1326293Y243500D01*
X1324583Y244488D01*
X1322676Y244999D01*
D02*
G37*
G36*
X525987Y244230D02*
X524013D01*
X522105Y243719D01*
X520395Y242731D01*
X518998Y241335D01*
X518011Y239625D01*
X517500Y237717D01*
Y235743D01*
X518011Y233835D01*
X518998Y232125D01*
X520395Y230728D01*
X522105Y229741D01*
X524013Y229230D01*
X525987D01*
X527895Y229741D01*
X529605Y230728D01*
X531002Y232125D01*
X531989Y233835D01*
X532500Y235743D01*
Y237717D01*
X531989Y239625D01*
X531002Y241335D01*
X529605Y242731D01*
X527895Y243719D01*
X525987Y244230D01*
D02*
G37*
G36*
X98000Y229953D02*
Y223000D01*
X104953D01*
X104682Y224010D01*
X103314Y226380D01*
X101380Y228314D01*
X99010Y229682D01*
X98000Y229953D01*
D02*
G37*
G36*
X92000Y229953D02*
X90990Y229682D01*
X88620Y228314D01*
X86686Y226380D01*
X85318Y224010D01*
X85047Y223000D01*
X92000D01*
Y229953D01*
D02*
G37*
G36*
X104953Y217000D02*
X95000D01*
X85047D01*
X85318Y215990D01*
X86686Y213620D01*
X88620Y211686D01*
X89341Y211270D01*
X89001Y210000D01*
X92177D01*
X93632Y209610D01*
X96368D01*
X97823Y210000D01*
X100999D01*
X100659Y211270D01*
X101380Y211686D01*
X103314Y213620D01*
X104682Y215990D01*
X104953Y217000D01*
D02*
G37*
G36*
X66692Y232850D02*
X63308D01*
X60040Y231974D01*
X57110Y230282D01*
X54717Y227890D01*
X53026Y224960D01*
X52150Y221692D01*
Y218308D01*
X53026Y215040D01*
X54717Y212110D01*
X55654Y211173D01*
X55168Y210000D01*
X56827D01*
X57110Y209718D01*
X60040Y208026D01*
X63308Y207150D01*
X66692D01*
X69960Y208026D01*
X72890Y209718D01*
X73173Y210000D01*
X74832D01*
X74346Y211173D01*
X75283Y212110D01*
X76974Y215040D01*
X77850Y218308D01*
Y221692D01*
X76974Y224960D01*
X75283Y227890D01*
X72890Y230282D01*
X69960Y231974D01*
X66692Y232850D01*
D02*
G37*
G36*
X98000Y199953D02*
Y193000D01*
X104953D01*
X104682Y194010D01*
X103314Y196380D01*
X101380Y198314D01*
X99010Y199682D01*
X98000Y199953D01*
D02*
G37*
G36*
X92000Y199953D02*
X90990Y199682D01*
X88620Y198314D01*
X86686Y196380D01*
X85318Y194010D01*
X85047Y193000D01*
X92000D01*
Y199953D01*
D02*
G37*
G36*
Y187000D02*
X85047D01*
X85318Y185990D01*
X86686Y183620D01*
X88620Y181686D01*
X90990Y180318D01*
X92000Y180047D01*
Y187000D01*
D02*
G37*
G36*
X104953D02*
X98000D01*
Y180047D01*
X99010Y180318D01*
X101380Y181686D01*
X103314Y183620D01*
X104682Y185990D01*
X104953Y187000D01*
D02*
G37*
G36*
X66692Y202850D02*
X63308D01*
X60040Y201974D01*
X57110Y200282D01*
X54717Y197890D01*
X53026Y194960D01*
X52150Y191692D01*
Y188308D01*
X53026Y185040D01*
X54717Y182110D01*
X57110Y179718D01*
X60040Y178026D01*
X63308Y177150D01*
X66692D01*
X69960Y178026D01*
X72890Y179718D01*
X75283Y182110D01*
X76974Y185040D01*
X77850Y188308D01*
Y191692D01*
X76974Y194960D01*
X75283Y197890D01*
X72890Y200282D01*
X69960Y201974D01*
X66692Y202850D01*
D02*
G37*
G36*
X96692Y172850D02*
X93308D01*
X90040Y171974D01*
X87110Y170282D01*
X84718Y167890D01*
X83026Y164960D01*
X82150Y161692D01*
Y158308D01*
X83026Y155040D01*
X84718Y152110D01*
X87110Y149718D01*
X90040Y148026D01*
X93308Y147150D01*
X96692D01*
X99960Y148026D01*
X102890Y149718D01*
X105282Y152110D01*
X106974Y155040D01*
X107850Y158308D01*
Y161692D01*
X106974Y164960D01*
X105282Y167890D01*
X102890Y170282D01*
X99960Y171974D01*
X96692Y172850D01*
D02*
G37*
G36*
X66692D02*
X63308D01*
X60040Y171974D01*
X57110Y170282D01*
X54717Y167890D01*
X53026Y164960D01*
X52150Y161692D01*
Y158308D01*
X53026Y155040D01*
X54717Y152110D01*
X57110Y149718D01*
X60040Y148026D01*
X63308Y147150D01*
X66692D01*
X69960Y148026D01*
X72890Y149718D01*
X75283Y152110D01*
X76974Y155040D01*
X77850Y158308D01*
Y161692D01*
X76974Y164960D01*
X75283Y167890D01*
X72890Y170282D01*
X69960Y171974D01*
X66692Y172850D01*
D02*
G37*
G36*
X98000Y139953D02*
Y133000D01*
X104953D01*
X104682Y134010D01*
X103314Y136380D01*
X101380Y138314D01*
X99010Y139682D01*
X98000Y139953D01*
D02*
G37*
G36*
X92000Y139953D02*
X90990Y139682D01*
X88620Y138314D01*
X86686Y136380D01*
X85318Y134010D01*
X85047Y133000D01*
X92000D01*
Y139953D01*
D02*
G37*
G36*
Y127000D02*
X85047D01*
X85318Y125990D01*
X86686Y123620D01*
X88620Y121686D01*
X90990Y120318D01*
X92000Y120047D01*
Y127000D01*
D02*
G37*
G36*
X104953D02*
X98000D01*
Y120047D01*
X99010Y120318D01*
X101380Y121686D01*
X103314Y123620D01*
X104682Y125990D01*
X104953Y127000D01*
D02*
G37*
G36*
X66692Y142850D02*
X63308D01*
X60040Y141974D01*
X57110Y140282D01*
X54717Y137890D01*
X53026Y134960D01*
X52150Y131692D01*
Y128308D01*
X53026Y125040D01*
X54717Y122110D01*
X57110Y119718D01*
X60040Y118026D01*
X63308Y117150D01*
X66692D01*
X69960Y118026D01*
X72890Y119718D01*
X75283Y122110D01*
X76974Y125040D01*
X77850Y128308D01*
Y131692D01*
X76974Y134960D01*
X75283Y137890D01*
X72890Y140282D01*
X69960Y141974D01*
X66692Y142850D01*
D02*
G37*
G36*
X98000Y109953D02*
Y103000D01*
X104953D01*
X104682Y104010D01*
X103314Y106380D01*
X101380Y108314D01*
X99010Y109682D01*
X98000Y109953D01*
D02*
G37*
G36*
X92000Y109953D02*
X90990Y109682D01*
X88620Y108314D01*
X86686Y106380D01*
X85318Y104010D01*
X85047Y103000D01*
X92000D01*
Y109953D01*
D02*
G37*
G36*
Y97000D02*
X85047D01*
X85318Y95990D01*
X86686Y93620D01*
X88620Y91686D01*
X90990Y90318D01*
X92000Y90047D01*
Y97000D01*
D02*
G37*
G36*
X104953D02*
X98000D01*
Y90047D01*
X99010Y90318D01*
X101380Y91686D01*
X103314Y93620D01*
X104682Y95990D01*
X104953Y97000D01*
D02*
G37*
G36*
X77850Y112850D02*
X52150D01*
Y87150D01*
X77850D01*
Y112850D01*
D02*
G37*
G36*
X169667Y72000D02*
X165333D01*
X161083Y71154D01*
X157079Y69496D01*
X153476Y67088D01*
X150412Y64024D01*
X148004Y60421D01*
X146346Y56417D01*
X145500Y52167D01*
Y47833D01*
X146346Y43583D01*
X148004Y39579D01*
X150412Y35976D01*
X153476Y32912D01*
X157079Y30504D01*
X161083Y28846D01*
X165333Y28000D01*
X169667D01*
X173917Y28846D01*
X177921Y30504D01*
X181524Y32912D01*
X184589Y35976D01*
X186996Y39579D01*
X188654Y43583D01*
X189500Y47833D01*
Y52167D01*
X188654Y56417D01*
X186996Y60421D01*
X184589Y64024D01*
X181524Y67088D01*
X177921Y69496D01*
X173917Y71154D01*
X169667Y72000D01*
D02*
G37*
G36*
X1485856Y141500D02*
X1484144D01*
X1482491Y141057D01*
X1481009Y140201D01*
X1479799Y138991D01*
X1478943Y137509D01*
X1478500Y135856D01*
Y134144D01*
X1478943Y132491D01*
X1479799Y131009D01*
X1481009Y129799D01*
X1482491Y128943D01*
X1484144Y128500D01*
X1485856D01*
X1487509Y128943D01*
X1488991Y129799D01*
X1490201Y131009D01*
X1491057Y132491D01*
X1491500Y134144D01*
Y135856D01*
X1491057Y137509D01*
X1490201Y138991D01*
X1488991Y140201D01*
X1487509Y141057D01*
X1485856Y141500D01*
D02*
G37*
G36*
X1285856D02*
X1284144D01*
X1282491Y141057D01*
X1281009Y140201D01*
X1279799Y138991D01*
X1278943Y137509D01*
X1278500Y135856D01*
Y134144D01*
X1278943Y132491D01*
X1279799Y131009D01*
X1281009Y129799D01*
X1282491Y128943D01*
X1284144Y128500D01*
X1285856D01*
X1287509Y128943D01*
X1288991Y129799D01*
X1290201Y131009D01*
X1291057Y132491D01*
X1291500Y134144D01*
Y135856D01*
X1291057Y137509D01*
X1290201Y138991D01*
X1288991Y140201D01*
X1287509Y141057D01*
X1285856Y141500D01*
D02*
G37*
G36*
X1085856D02*
X1084144D01*
X1082491Y141057D01*
X1081009Y140201D01*
X1079799Y138991D01*
X1078943Y137509D01*
X1078500Y135856D01*
Y134144D01*
X1078943Y132491D01*
X1079799Y131009D01*
X1081009Y129799D01*
X1082491Y128943D01*
X1084144Y128500D01*
X1085856D01*
X1087509Y128943D01*
X1088991Y129799D01*
X1090201Y131009D01*
X1091057Y132491D01*
X1091500Y134144D01*
Y135856D01*
X1091057Y137509D01*
X1090201Y138991D01*
X1088991Y140201D01*
X1087509Y141057D01*
X1085856Y141500D01*
D02*
G37*
G36*
X925856D02*
X924144D01*
X922491Y141057D01*
X921009Y140201D01*
X919799Y138991D01*
X918943Y137509D01*
X918500Y135856D01*
Y134144D01*
X918943Y132491D01*
X919799Y131009D01*
X921009Y129799D01*
X922491Y128943D01*
X924144Y128500D01*
X925856D01*
X927509Y128943D01*
X928991Y129799D01*
X930201Y131009D01*
X931057Y132491D01*
X931500Y134144D01*
Y135856D01*
X931057Y137509D01*
X930201Y138991D01*
X928991Y140201D01*
X927509Y141057D01*
X925856Y141500D01*
D02*
G37*
G36*
X885856D02*
X884144D01*
X882491Y141057D01*
X881009Y140201D01*
X879799Y138991D01*
X878943Y137509D01*
X878500Y135856D01*
Y134144D01*
X878943Y132491D01*
X879799Y131009D01*
X881009Y129799D01*
X882491Y128943D01*
X884144Y128500D01*
X885856D01*
X887509Y128943D01*
X888991Y129799D01*
X890201Y131009D01*
X891057Y132491D01*
X891500Y134144D01*
Y135856D01*
X891057Y137509D01*
X890201Y138991D01*
X888991Y140201D01*
X887509Y141057D01*
X885856Y141500D01*
D02*
G37*
G36*
X725856D02*
X724144D01*
X722491Y141057D01*
X721009Y140201D01*
X719799Y138991D01*
X718943Y137509D01*
X718500Y135856D01*
Y134144D01*
X718943Y132491D01*
X719799Y131009D01*
X721009Y129799D01*
X722491Y128943D01*
X724144Y128500D01*
X725856D01*
X727509Y128943D01*
X728991Y129799D01*
X730201Y131009D01*
X731057Y132491D01*
X731500Y134144D01*
Y135856D01*
X731057Y137509D01*
X730201Y138991D01*
X728991Y140201D01*
X727509Y141057D01*
X725856Y141500D01*
D02*
G37*
G36*
X685856D02*
X684144D01*
X682491Y141057D01*
X681009Y140201D01*
X679799Y138991D01*
X678943Y137509D01*
X678500Y135856D01*
Y134144D01*
X678943Y132491D01*
X679799Y131009D01*
X681009Y129799D01*
X682491Y128943D01*
X684144Y128500D01*
X685856D01*
X687509Y128943D01*
X688991Y129799D01*
X690201Y131009D01*
X691057Y132491D01*
X691500Y134144D01*
Y135856D01*
X691057Y137509D01*
X690201Y138991D01*
X688991Y140201D01*
X687509Y141057D01*
X685856Y141500D01*
D02*
G37*
G36*
X525856D02*
X524144D01*
X522491Y141057D01*
X521009Y140201D01*
X519799Y138991D01*
X518943Y137509D01*
X518500Y135856D01*
Y134144D01*
X518943Y132491D01*
X519799Y131009D01*
X521009Y129799D01*
X522491Y128943D01*
X524144Y128500D01*
X525856D01*
X527509Y128943D01*
X528991Y129799D01*
X530201Y131009D01*
X531057Y132491D01*
X531500Y134144D01*
Y135856D01*
X531057Y137509D01*
X530201Y138991D01*
X528991Y140201D01*
X527509Y141057D01*
X525856Y141500D01*
D02*
G37*
G36*
X485856D02*
X484144D01*
X482491Y141057D01*
X481009Y140201D01*
X479799Y138991D01*
X478943Y137509D01*
X478500Y135856D01*
Y134144D01*
X478943Y132491D01*
X479799Y131009D01*
X481009Y129799D01*
X482491Y128943D01*
X484144Y128500D01*
X485856D01*
X487509Y128943D01*
X488991Y129799D01*
X490201Y131009D01*
X491057Y132491D01*
X491500Y134144D01*
Y135856D01*
X491057Y137509D01*
X490201Y138991D01*
X488991Y140201D01*
X487509Y141057D01*
X485856Y141500D01*
D02*
G37*
G36*
X285856D02*
X284144D01*
X282491Y141057D01*
X281009Y140201D01*
X279799Y138991D01*
X278943Y137509D01*
X278500Y135856D01*
Y134144D01*
X278943Y132491D01*
X279799Y131009D01*
X281009Y129799D01*
X282491Y128943D01*
X284144Y128500D01*
X285856D01*
X287509Y128943D01*
X288991Y129799D01*
X290201Y131009D01*
X291057Y132491D01*
X291500Y134144D01*
Y135856D01*
X291057Y137509D01*
X290201Y138991D01*
X288991Y140201D01*
X287509Y141057D01*
X285856Y141500D01*
D02*
G37*
G36*
X1125856Y136500D02*
X1124144D01*
X1122491Y136057D01*
X1121009Y135201D01*
X1119799Y133991D01*
X1118943Y132509D01*
X1118500Y130856D01*
Y129144D01*
X1118943Y127491D01*
X1119799Y126009D01*
X1121009Y124799D01*
X1122491Y123943D01*
X1124144Y123500D01*
X1125856D01*
X1127509Y123943D01*
X1128991Y124799D01*
X1130201Y126009D01*
X1131057Y127491D01*
X1131500Y129144D01*
Y130856D01*
X1131057Y132509D01*
X1130201Y133991D01*
X1128991Y135201D01*
X1127509Y136057D01*
X1125856Y136500D01*
D02*
G37*
G36*
X1530856Y126500D02*
X1529144D01*
X1527491Y126057D01*
X1526009Y125201D01*
X1524799Y123991D01*
X1523943Y122509D01*
X1523500Y120856D01*
Y119144D01*
X1523943Y117491D01*
X1524799Y116009D01*
X1526009Y114799D01*
X1527491Y113943D01*
X1529144Y113500D01*
X1530856D01*
X1532509Y113943D01*
X1533991Y114799D01*
X1535201Y116009D01*
X1536057Y117491D01*
X1536500Y119144D01*
Y120856D01*
X1536057Y122509D01*
X1535201Y123991D01*
X1533991Y125201D01*
X1532509Y126057D01*
X1530856Y126500D01*
D02*
G37*
G36*
X1330856D02*
X1329144D01*
X1327491Y126057D01*
X1326009Y125201D01*
X1324799Y123991D01*
X1323943Y122509D01*
X1323500Y120856D01*
Y119144D01*
X1323943Y117491D01*
X1324799Y116009D01*
X1326009Y114799D01*
X1327491Y113943D01*
X1329144Y113500D01*
X1330856D01*
X1332509Y113943D01*
X1333991Y114799D01*
X1335201Y116009D01*
X1336057Y117491D01*
X1336500Y119144D01*
Y120856D01*
X1336057Y122509D01*
X1335201Y123991D01*
X1333991Y125201D01*
X1332509Y126057D01*
X1330856Y126500D01*
D02*
G37*
G36*
X335856D02*
X334144D01*
X332491Y126057D01*
X331009Y125201D01*
X329799Y123991D01*
X328943Y122509D01*
X328500Y120856D01*
Y119144D01*
X328943Y117491D01*
X329799Y116009D01*
X331009Y114799D01*
X332491Y113943D01*
X334144Y113500D01*
X335856D01*
X337509Y113943D01*
X338991Y114799D01*
X340201Y116009D01*
X341057Y117491D01*
X341500Y119144D01*
Y120856D01*
X341057Y122509D01*
X340201Y123991D01*
X338991Y125201D01*
X337509Y126057D01*
X335856Y126500D01*
D02*
G37*
G36*
X1610000Y125000D02*
X1560000D01*
Y100000D01*
X1610000D01*
Y125000D01*
D02*
G37*
G36*
X1410000D02*
X1360000D01*
Y100000D01*
X1410000D01*
Y125000D01*
D02*
G37*
G36*
X1210000D02*
X1160000D01*
Y100000D01*
X1210000D01*
Y125000D01*
D02*
G37*
G36*
X1010000D02*
X960000D01*
Y100000D01*
X1010000D01*
Y125000D01*
D02*
G37*
G36*
X810000D02*
X760000D01*
Y100000D01*
X810000D01*
Y125000D01*
D02*
G37*
G36*
X610000D02*
X560000D01*
Y100000D01*
X610000D01*
Y125000D01*
D02*
G37*
G36*
X410000D02*
X360000D01*
Y100000D01*
X410000D01*
Y125000D01*
D02*
G37*
G36*
X1642040Y102540D02*
X1635000D01*
Y85500D01*
X1642040D01*
Y102540D01*
D02*
G37*
G36*
X1629000D02*
X1621960D01*
Y85500D01*
X1629000D01*
Y102540D01*
D02*
G37*
G36*
X1442040D02*
X1435000D01*
Y85500D01*
X1442040D01*
Y102540D01*
D02*
G37*
G36*
X1429000D02*
X1421960D01*
Y85500D01*
X1429000D01*
Y102540D01*
D02*
G37*
G36*
X1242040D02*
X1235000D01*
Y85500D01*
X1242040D01*
Y102540D01*
D02*
G37*
G36*
X1229000D02*
X1221960D01*
Y85500D01*
X1229000D01*
Y102540D01*
D02*
G37*
G36*
X1042040D02*
X1035000D01*
Y85500D01*
X1042040D01*
Y102540D01*
D02*
G37*
G36*
X1029000D02*
X1021960D01*
Y85500D01*
X1029000D01*
Y102540D01*
D02*
G37*
G36*
X842040D02*
X835000D01*
Y85500D01*
X842040D01*
Y102540D01*
D02*
G37*
G36*
X829000D02*
X821960D01*
Y85500D01*
X829000D01*
Y102540D01*
D02*
G37*
G36*
X642040D02*
X635000D01*
Y85500D01*
X642040D01*
Y102540D01*
D02*
G37*
G36*
X629000D02*
X621960D01*
Y85500D01*
X629000D01*
Y102540D01*
D02*
G37*
G36*
X442040D02*
X435000D01*
Y85500D01*
X442040D01*
Y102540D01*
D02*
G37*
G36*
X429000D02*
X421960D01*
Y85500D01*
X429000D01*
Y102540D01*
D02*
G37*
G36*
X1511466Y80596D02*
X1509334D01*
X1507275Y80044D01*
X1505429Y78978D01*
X1503922Y77471D01*
X1502856Y75625D01*
X1502304Y73566D01*
Y71434D01*
X1502856Y69375D01*
X1503922Y67529D01*
X1505429Y66022D01*
X1507275Y64956D01*
X1509334Y64404D01*
X1511466D01*
X1513525Y64956D01*
X1515371Y66022D01*
X1516878Y67529D01*
X1517944Y69375D01*
X1518496Y71434D01*
Y73566D01*
X1517944Y75625D01*
X1516878Y77471D01*
X1515371Y78978D01*
X1513525Y80044D01*
X1511466Y80596D01*
D02*
G37*
G36*
X1486066D02*
X1483934D01*
X1481875Y80044D01*
X1480029Y78978D01*
X1478522Y77471D01*
X1477456Y75625D01*
X1476904Y73566D01*
Y71434D01*
X1477456Y69375D01*
X1478522Y67529D01*
X1480029Y66022D01*
X1481875Y64956D01*
X1483934Y64404D01*
X1486066D01*
X1488125Y64956D01*
X1489971Y66022D01*
X1491478Y67529D01*
X1492544Y69375D01*
X1493096Y71434D01*
Y73566D01*
X1492544Y75625D01*
X1491478Y77471D01*
X1489971Y78978D01*
X1488125Y80044D01*
X1486066Y80596D01*
D02*
G37*
G36*
X1311466D02*
X1309334D01*
X1307275Y80044D01*
X1305429Y78978D01*
X1303922Y77471D01*
X1302856Y75625D01*
X1302304Y73566D01*
Y71434D01*
X1302856Y69375D01*
X1303922Y67529D01*
X1305429Y66022D01*
X1307275Y64956D01*
X1309334Y64404D01*
X1311466D01*
X1313525Y64956D01*
X1315371Y66022D01*
X1316878Y67529D01*
X1317944Y69375D01*
X1318496Y71434D01*
Y73566D01*
X1317944Y75625D01*
X1316878Y77471D01*
X1315371Y78978D01*
X1313525Y80044D01*
X1311466Y80596D01*
D02*
G37*
G36*
X1286066D02*
X1283934D01*
X1281875Y80044D01*
X1280029Y78978D01*
X1278522Y77471D01*
X1277456Y75625D01*
X1276904Y73566D01*
Y71434D01*
X1277456Y69375D01*
X1278522Y67529D01*
X1280029Y66022D01*
X1281875Y64956D01*
X1283934Y64404D01*
X1286066D01*
X1288125Y64956D01*
X1289971Y66022D01*
X1291478Y67529D01*
X1292544Y69375D01*
X1293096Y71434D01*
Y73566D01*
X1292544Y75625D01*
X1291478Y77471D01*
X1289971Y78978D01*
X1288125Y80044D01*
X1286066Y80596D01*
D02*
G37*
G36*
X1111466D02*
X1109334D01*
X1107275Y80044D01*
X1105429Y78978D01*
X1103922Y77471D01*
X1102856Y75625D01*
X1102304Y73566D01*
Y71434D01*
X1102856Y69375D01*
X1103922Y67529D01*
X1105429Y66022D01*
X1107275Y64956D01*
X1109334Y64404D01*
X1111466D01*
X1113525Y64956D01*
X1115371Y66022D01*
X1116878Y67529D01*
X1117944Y69375D01*
X1118496Y71434D01*
Y73566D01*
X1117944Y75625D01*
X1116878Y77471D01*
X1115371Y78978D01*
X1113525Y80044D01*
X1111466Y80596D01*
D02*
G37*
G36*
X1086066D02*
X1083934D01*
X1081875Y80044D01*
X1080029Y78978D01*
X1078522Y77471D01*
X1077456Y75625D01*
X1076904Y73566D01*
Y71434D01*
X1077456Y69375D01*
X1078522Y67529D01*
X1080029Y66022D01*
X1081875Y64956D01*
X1083934Y64404D01*
X1086066D01*
X1088125Y64956D01*
X1089971Y66022D01*
X1091478Y67529D01*
X1092544Y69375D01*
X1093096Y71434D01*
Y73566D01*
X1092544Y75625D01*
X1091478Y77471D01*
X1089971Y78978D01*
X1088125Y80044D01*
X1086066Y80596D01*
D02*
G37*
G36*
X911466D02*
X909334D01*
X907275Y80044D01*
X905429Y78978D01*
X903922Y77471D01*
X902856Y75625D01*
X902304Y73566D01*
Y71434D01*
X902856Y69375D01*
X903922Y67529D01*
X905429Y66022D01*
X907275Y64956D01*
X909334Y64404D01*
X911466D01*
X913525Y64956D01*
X915371Y66022D01*
X916878Y67529D01*
X917944Y69375D01*
X918496Y71434D01*
Y73566D01*
X917944Y75625D01*
X916878Y77471D01*
X915371Y78978D01*
X913525Y80044D01*
X911466Y80596D01*
D02*
G37*
G36*
X886066D02*
X883934D01*
X881875Y80044D01*
X880029Y78978D01*
X878522Y77471D01*
X877456Y75625D01*
X876904Y73566D01*
Y71434D01*
X877456Y69375D01*
X878522Y67529D01*
X880029Y66022D01*
X881875Y64956D01*
X883934Y64404D01*
X886066D01*
X888125Y64956D01*
X889971Y66022D01*
X891478Y67529D01*
X892544Y69375D01*
X893096Y71434D01*
Y73566D01*
X892544Y75625D01*
X891478Y77471D01*
X889971Y78978D01*
X888125Y80044D01*
X886066Y80596D01*
D02*
G37*
G36*
X711466D02*
X709334D01*
X707275Y80044D01*
X705429Y78978D01*
X703922Y77471D01*
X702856Y75625D01*
X702304Y73566D01*
Y71434D01*
X702856Y69375D01*
X703922Y67529D01*
X705429Y66022D01*
X707275Y64956D01*
X709334Y64404D01*
X711466D01*
X713525Y64956D01*
X715371Y66022D01*
X716878Y67529D01*
X717944Y69375D01*
X718496Y71434D01*
Y73566D01*
X717944Y75625D01*
X716878Y77471D01*
X715371Y78978D01*
X713525Y80044D01*
X711466Y80596D01*
D02*
G37*
G36*
X686066D02*
X683934D01*
X681875Y80044D01*
X680029Y78978D01*
X678522Y77471D01*
X677456Y75625D01*
X676904Y73566D01*
Y71434D01*
X677456Y69375D01*
X678522Y67529D01*
X680029Y66022D01*
X681875Y64956D01*
X683934Y64404D01*
X686066D01*
X688125Y64956D01*
X689971Y66022D01*
X691478Y67529D01*
X692544Y69375D01*
X693096Y71434D01*
Y73566D01*
X692544Y75625D01*
X691478Y77471D01*
X689971Y78978D01*
X688125Y80044D01*
X686066Y80596D01*
D02*
G37*
G36*
X511466D02*
X509334D01*
X507275Y80044D01*
X505429Y78978D01*
X503922Y77471D01*
X502856Y75625D01*
X502304Y73566D01*
Y71434D01*
X502856Y69375D01*
X503922Y67529D01*
X505429Y66022D01*
X507275Y64956D01*
X509334Y64404D01*
X511466D01*
X513525Y64956D01*
X515371Y66022D01*
X516878Y67529D01*
X517944Y69375D01*
X518496Y71434D01*
Y73566D01*
X517944Y75625D01*
X516878Y77471D01*
X515371Y78978D01*
X513525Y80044D01*
X511466Y80596D01*
D02*
G37*
G36*
X486066D02*
X483934D01*
X481875Y80044D01*
X480029Y78978D01*
X478522Y77471D01*
X477456Y75625D01*
X476904Y73566D01*
Y71434D01*
X477456Y69375D01*
X478522Y67529D01*
X480029Y66022D01*
X481875Y64956D01*
X483934Y64404D01*
X486066D01*
X488125Y64956D01*
X489971Y66022D01*
X491478Y67529D01*
X492544Y69375D01*
X493096Y71434D01*
Y73566D01*
X492544Y75625D01*
X491478Y77471D01*
X489971Y78978D01*
X488125Y80044D01*
X486066Y80596D01*
D02*
G37*
G36*
X311466D02*
X309334D01*
X307275Y80044D01*
X305429Y78978D01*
X303922Y77471D01*
X302856Y75625D01*
X302304Y73566D01*
Y71434D01*
X302856Y69375D01*
X303922Y67529D01*
X305429Y66022D01*
X307275Y64956D01*
X309334Y64404D01*
X311466D01*
X313525Y64956D01*
X315371Y66022D01*
X316878Y67529D01*
X317944Y69375D01*
X318496Y71434D01*
Y73566D01*
X317944Y75625D01*
X316878Y77471D01*
X315371Y78978D01*
X313525Y80044D01*
X311466Y80596D01*
D02*
G37*
G36*
X286066D02*
X283934D01*
X281875Y80044D01*
X280029Y78978D01*
X278522Y77471D01*
X277456Y75625D01*
X276904Y73566D01*
Y71434D01*
X277456Y69375D01*
X278522Y67529D01*
X280029Y66022D01*
X281875Y64956D01*
X283934Y64404D01*
X286066D01*
X288125Y64956D01*
X289971Y66022D01*
X291478Y67529D01*
X292544Y69375D01*
X293096Y71434D01*
Y73566D01*
X292544Y75625D01*
X291478Y77471D01*
X289971Y78978D01*
X288125Y80044D01*
X286066Y80596D01*
D02*
G37*
G36*
X1642040Y79500D02*
X1635000D01*
Y62460D01*
X1642040D01*
Y79500D01*
D02*
G37*
G36*
X1629000D02*
X1621960D01*
Y62460D01*
X1629000D01*
Y79500D01*
D02*
G37*
G36*
X1442040D02*
X1435000D01*
Y62460D01*
X1442040D01*
Y79500D01*
D02*
G37*
G36*
X1429000D02*
X1421960D01*
Y62460D01*
X1429000D01*
Y79500D01*
D02*
G37*
G36*
X1242040D02*
X1235000D01*
Y62460D01*
X1242040D01*
Y79500D01*
D02*
G37*
G36*
X1229000D02*
X1221960D01*
Y62460D01*
X1229000D01*
Y79500D01*
D02*
G37*
G36*
X1042040D02*
X1035000D01*
Y62460D01*
X1042040D01*
Y79500D01*
D02*
G37*
G36*
X1029000D02*
X1021960D01*
Y62460D01*
X1029000D01*
Y79500D01*
D02*
G37*
G36*
X842040D02*
X835000D01*
Y62460D01*
X842040D01*
Y79500D01*
D02*
G37*
G36*
X829000D02*
X821960D01*
Y62460D01*
X829000D01*
Y79500D01*
D02*
G37*
G36*
X642040D02*
X635000D01*
Y62460D01*
X642040D01*
Y79500D01*
D02*
G37*
G36*
X629000D02*
X621960D01*
Y62460D01*
X629000D01*
Y79500D01*
D02*
G37*
G36*
X442040D02*
X435000D01*
Y62460D01*
X442040D01*
Y79500D01*
D02*
G37*
G36*
X429000D02*
X421960D01*
Y62460D01*
X429000D01*
Y79500D01*
D02*
G37*
G36*
X1205040Y62540D02*
X1188000D01*
Y55500D01*
X1205040D01*
Y62540D01*
D02*
G37*
G36*
X1005040D02*
X988000D01*
Y55500D01*
X1005040D01*
Y62540D01*
D02*
G37*
G36*
X805040D02*
X788000D01*
Y55500D01*
X805040D01*
Y62540D01*
D02*
G37*
G36*
X605040D02*
X588000D01*
Y55500D01*
X605040D01*
Y62540D01*
D02*
G37*
G36*
X1182000D02*
X1164960D01*
Y55500D01*
X1182000D01*
Y62540D01*
D02*
G37*
G36*
X982000D02*
X964960D01*
Y55500D01*
X982000D01*
Y62540D01*
D02*
G37*
G36*
X782000D02*
X764960D01*
Y55500D01*
X782000D01*
Y62540D01*
D02*
G37*
G36*
X582000D02*
X564960D01*
Y55500D01*
X582000D01*
Y62540D01*
D02*
G37*
G36*
X405040D02*
X388000D01*
Y55500D01*
X405040D01*
Y62540D01*
D02*
G37*
G36*
X382000D02*
X364960D01*
Y55500D01*
X382000D01*
Y62540D01*
D02*
G37*
G36*
X1605040D02*
X1588000D01*
Y55500D01*
X1605040D01*
Y62540D01*
D02*
G37*
G36*
X1405040D02*
X1388000D01*
Y55500D01*
X1405040D01*
Y62540D01*
D02*
G37*
G36*
X1582000D02*
X1564960D01*
Y55500D01*
X1582000D01*
Y62540D01*
D02*
G37*
G36*
X1382000D02*
X1364960D01*
Y55500D01*
X1382000D01*
Y62540D01*
D02*
G37*
G36*
X1605040Y49500D02*
X1588000D01*
Y42460D01*
X1605040D01*
Y49500D01*
D02*
G37*
G36*
X1582000D02*
X1564960D01*
Y42460D01*
X1582000D01*
Y49500D01*
D02*
G37*
G36*
X1405040D02*
X1388000D01*
Y42460D01*
X1405040D01*
Y49500D01*
D02*
G37*
G36*
X1382000D02*
X1364960D01*
Y42460D01*
X1382000D01*
Y49500D01*
D02*
G37*
G36*
X1205040Y49500D02*
X1188000D01*
Y42460D01*
X1205040D01*
Y49500D01*
D02*
G37*
G36*
X1182000D02*
X1164960D01*
Y42460D01*
X1182000D01*
Y49500D01*
D02*
G37*
G36*
X1005040D02*
X988000D01*
Y42460D01*
X1005040D01*
Y49500D01*
D02*
G37*
G36*
X982000D02*
X964960D01*
Y42460D01*
X982000D01*
Y49500D01*
D02*
G37*
G36*
X805040D02*
X788000D01*
Y42460D01*
X805040D01*
Y49500D01*
D02*
G37*
G36*
X782000D02*
X764960D01*
Y42460D01*
X782000D01*
Y49500D01*
D02*
G37*
G36*
X605040D02*
X588000D01*
Y42460D01*
X605040D01*
Y49500D01*
D02*
G37*
G36*
X582000D02*
X564960D01*
Y42460D01*
X582000D01*
Y49500D01*
D02*
G37*
G36*
X405040Y49500D02*
X388000D01*
Y42460D01*
X405040D01*
Y49500D01*
D02*
G37*
G36*
X382000D02*
X364960D01*
Y42460D01*
X382000D01*
Y49500D01*
D02*
G37*
G36*
X1701871Y69000D02*
X1698129D01*
X1694458Y68270D01*
X1691000Y66838D01*
X1687888Y64758D01*
X1685242Y62112D01*
X1683162Y59000D01*
X1681730Y55542D01*
X1681000Y51871D01*
Y48129D01*
X1681730Y44458D01*
X1683162Y41000D01*
X1685242Y37888D01*
X1687888Y35242D01*
X1691000Y33162D01*
X1694458Y31730D01*
X1698129Y31000D01*
X1701871D01*
X1705542Y31730D01*
X1709000Y33162D01*
X1712112Y35242D01*
X1714758Y37888D01*
X1716838Y41000D01*
X1718270Y44458D01*
X1719000Y48129D01*
Y51871D01*
X1718270Y55542D01*
X1716838Y59000D01*
X1714758Y62112D01*
X1712112Y64758D01*
X1709000Y66838D01*
X1705542Y68270D01*
X1701871Y69000D01*
D02*
G37*
%LPD*%
D12*
X1060000Y291346D02*
X1063036Y294382D01*
Y299384D01*
X1063506Y299855D01*
X955471Y419839D02*
X985681Y450049D01*
X955471Y417201D02*
Y419839D01*
X943270Y405000D02*
X955471Y417201D01*
X1098477Y377810D02*
X1112802D01*
X1091287Y385000D02*
X1098477Y377810D01*
X1099127Y383580D02*
X1115192D01*
X1120000Y377810D02*
Y378476D01*
X1118572Y379903D02*
Y380200D01*
X1115192Y383580D02*
X1118572Y380200D01*
Y379903D02*
X1120000Y378476D01*
X1090207Y392500D02*
X1099127Y383580D01*
X295447Y327500D02*
X298942Y324005D01*
X200000Y327500D02*
X295447D01*
X298942Y324005D02*
X393724D01*
X190535Y319465D02*
X399465D01*
X465000Y385000D01*
X185000Y325000D02*
X190535Y319465D01*
X462219Y392500D02*
X1090207D01*
X465000Y385000D02*
X1091287D01*
X393724Y324005D02*
X462219Y392500D01*
X1322246Y322840D02*
X1325000Y320086D01*
X1320000Y325372D02*
X1322246Y323126D01*
X1320000Y325372D02*
Y360000D01*
X1325000Y310000D02*
Y320086D01*
X1312500Y367500D02*
X1320000Y360000D01*
X1322246Y322840D02*
Y323126D01*
X1312500Y367500D02*
Y375000D01*
X1326040Y388540D01*
X1378865Y356855D02*
X1415040Y393030D01*
X1375000Y350666D02*
X1378865Y354531D01*
X1357500Y352920D02*
Y360000D01*
X1382919Y327500D02*
X1400000D01*
X1357500Y352920D02*
X1382919Y327500D01*
X1423810Y390650D02*
Y416578D01*
X1365000Y351840D02*
Y359045D01*
Y351840D02*
X1372610Y344230D01*
X1378865Y354531D02*
Y356855D01*
X1372610Y344230D02*
X1377390D01*
X1423810Y390650D01*
X1375000Y350000D02*
Y350666D01*
X1365000Y359045D02*
X1370955Y365000D01*
X1375000D01*
X1396400Y397130D02*
X1409270Y410000D01*
X1384000Y384000D02*
X1396400Y396400D01*
X1415040Y393030D02*
Y414960D01*
X1396810Y419310D02*
X1410690D01*
X1415040Y414960D01*
X1396400Y396400D02*
Y397130D01*
X1320202Y370202D02*
X1334000Y384000D01*
X1375000Y388540D02*
X1400000Y413540D01*
X1326040Y388540D02*
X1375000D01*
X1377580Y400080D02*
X1396810Y419310D01*
X1334000Y384000D02*
X1384000D01*
X1323612Y400080D02*
X1377580D01*
X1375000Y405000D02*
X1393850Y423850D01*
X1101540Y443801D02*
X1145381Y399960D01*
X1317072D02*
X1322112Y405000D01*
X1375000D01*
X1393850Y423850D02*
X1416538D01*
X1450000Y425000D02*
X1461802D01*
X1462532Y425730D01*
X1475000D01*
X1642029Y417029D02*
Y419529D01*
X1622500Y397500D02*
X1642029Y417029D01*
X1607500Y397500D02*
X1622500D01*
X1642029Y419529D02*
X1642500Y420000D01*
X1172718Y477500D02*
X1397500D01*
X1450000Y425000D01*
X1170000Y480000D02*
X1170218D01*
X1172718Y477500D01*
X1087549Y456768D02*
X1088061Y457280D01*
X1085444Y456768D02*
X1087549D01*
X1085185D02*
X1085655Y456298D01*
X982500Y457500D02*
X1082500D01*
X1083232Y456768D02*
X1085185D01*
X1082500Y457500D02*
X1083232Y456768D01*
X800000Y405000D02*
X943270D01*
X570000D02*
X800000D01*
X1137129Y395420D02*
X1318952D01*
X1323612Y400080D01*
X1082500Y450049D02*
X1137129Y395420D01*
X1088061Y457280D02*
X1101540Y443801D01*
X1145381Y399960D02*
X1317072D01*
X942500Y417500D02*
X982500Y457500D01*
X940040Y415040D02*
X942500Y417500D01*
X425700Y569300D02*
X552500Y442500D01*
X777540D01*
X425700Y569300D02*
Y572140D01*
X1060000Y282500D02*
Y291346D01*
X805000Y415040D02*
X940040D01*
X777540Y442500D02*
X805000Y415040D01*
X400000Y570000D02*
X432500Y537500D01*
X437500D01*
X570000Y405000D01*
X1416538Y423850D02*
X1423810Y416578D01*
X1371015Y373515D02*
X1386015D01*
X1400000Y387500D01*
X1357500Y360000D02*
X1371015Y373515D01*
X985681Y450049D02*
X1082500D01*
X1320202Y369798D02*
Y370202D01*
X1050000Y272500D02*
X1060000Y282500D01*
D79*
X21800Y121500D02*
D03*
Y198500D02*
D03*
D80*
X95000Y220000D02*
D03*
Y190000D02*
D03*
Y160000D02*
D03*
Y130000D02*
D03*
Y100000D02*
D03*
X65000Y220000D02*
D03*
Y190000D02*
D03*
Y160000D02*
D03*
Y130000D02*
D03*
D81*
Y100000D02*
D03*
D100*
X570000Y460040D02*
Y462500D01*
X1235440Y467985D02*
X1250925Y452500D01*
X1407282D02*
X1441727Y418055D01*
X1250925Y452500D02*
X1407282D01*
X1488055Y418055D02*
X1525456Y455456D01*
X1441727Y418055D02*
X1488055D01*
X1525456Y455456D02*
X1589201D01*
X888262Y452500D02*
X903747Y467985D01*
X1235440D01*
X577540Y452500D02*
X888262D01*
X570000Y460040D02*
X577540Y452500D01*
X1589201Y455456D02*
X1602500Y468754D01*
D101*
X1197795Y374705D02*
G03*
X1165627Y375627I-17813J-59873D01*
G01*
X1219540Y352960D02*
X1277960D01*
X1197795Y374705D02*
X1197795D01*
X1219540Y352960D01*
X962500Y350000D02*
X1140000D01*
X1165627Y375627D01*
X1617024Y497500D02*
X1620000Y494524D01*
Y455000D02*
Y494524D01*
X1312500Y497500D02*
X1617024D01*
X1302500Y507500D02*
X1312500Y497500D01*
X1277960Y352960D02*
X1282500Y357500D01*
X1179956Y515000D02*
X1241401D01*
X1172916Y507960D02*
X1179956Y515000D01*
X1241401D02*
X1248901Y507500D01*
X991688Y512040D02*
X995768Y507960D01*
X814540Y512040D02*
X991688D01*
X995768Y507960D02*
X1172916D01*
X785000Y482500D02*
X814540Y512040D01*
X1248901Y507500D02*
X1302500D01*
X945000Y367500D02*
X962500Y350000D01*
X535000Y482500D02*
X785000D01*
X520000Y497500D02*
X535000Y482500D01*
X507500Y497500D02*
X520000D01*
X1567500Y377976D02*
Y402500D01*
X1570476Y375000D02*
X1717500D01*
X1567500Y377976D02*
X1570476Y375000D01*
X1567500Y402500D02*
X1620000Y455000D01*
X1717500Y375000D02*
X1730000Y362500D01*
D103*
X425700Y572140D02*
D03*
X400300D02*
D03*
X374900D02*
D03*
D104*
X349500D02*
D03*
D105*
X1680000Y247000D02*
D03*
Y323000D02*
D03*
D106*
X285000Y72500D02*
D03*
X310400D02*
D03*
X1222400Y500000D02*
D03*
X1197000D02*
D03*
X510400Y72500D02*
D03*
X485000D02*
D03*
X1510400D02*
D03*
X1485000D02*
D03*
X1310400D02*
D03*
X1285000D02*
D03*
X1110400D02*
D03*
X1085000D02*
D03*
X910400D02*
D03*
X885000D02*
D03*
X710400D02*
D03*
X685000D02*
D03*
X1222400Y420000D02*
D03*
X1197000D02*
D03*
D107*
X385000Y112500D02*
D03*
X1585000D02*
D03*
X1385000D02*
D03*
X1185000D02*
D03*
X985000D02*
D03*
X785000D02*
D03*
X585000D02*
D03*
D108*
X385000Y52500D02*
D03*
X1585000D02*
D03*
X1385000D02*
D03*
X1185000D02*
D03*
X985000D02*
D03*
X785000D02*
D03*
X585000D02*
D03*
X80000Y473000D02*
D03*
D109*
X432000Y82500D02*
D03*
X1632000D02*
D03*
X1432000D02*
D03*
X1232000D02*
D03*
X1032000D02*
D03*
X832000D02*
D03*
X632000D02*
D03*
X50000Y520000D02*
D03*
D110*
X1695700Y397014D02*
D03*
Y483414D02*
D03*
D111*
X1737500Y397014D02*
D03*
Y483414D02*
D03*
D112*
X1700700Y469114D02*
D03*
Y411314D02*
D03*
D113*
X50000Y287000D02*
D03*
Y443000D02*
D03*
D114*
X121500Y394000D02*
D03*
Y336000D02*
D03*
X85000Y390000D02*
D03*
Y340000D02*
D03*
D115*
X30000Y365000D02*
D03*
D116*
X135000Y287000D02*
D03*
Y443000D02*
D03*
D117*
X110000Y520000D02*
D03*
D118*
X1063506Y299855D02*
D03*
X922874Y189518D02*
D03*
X1124250Y429250D02*
D03*
X570000Y462500D02*
D03*
X1443016Y128016D02*
D03*
X1368862Y137854D02*
D03*
X1321688Y237499D02*
D03*
X1321717Y187498D02*
D03*
X1112802Y377810D02*
D03*
X1120000D02*
D03*
X1136580Y180920D02*
D03*
X1125000Y187500D02*
D03*
X723420Y189080D02*
D03*
X735000Y182500D02*
D03*
X535144Y182356D02*
D03*
X524484Y188016D02*
D03*
X200000Y327500D02*
D03*
X1089960Y375000D02*
D03*
X1082500Y400000D02*
D03*
X1290000Y405730D02*
D03*
X1328016Y325230D02*
D03*
X1375000Y350000D02*
D03*
X1409270Y410000D02*
D03*
X1400000Y413540D02*
D03*
X1340056Y394310D02*
D03*
X1391829Y429254D02*
D03*
X1421984Y426944D02*
D03*
X1382540Y444825D02*
D03*
X1327500Y462500D02*
D03*
X1335000D02*
D03*
X1342500D02*
D03*
X1350000D02*
D03*
X1475000Y425730D02*
D03*
X1617500Y403270D02*
D03*
X1252500Y360000D02*
D03*
X1310000Y471730D02*
D03*
X1360000D02*
D03*
X1170000Y515000D02*
D03*
X1082037Y450049D02*
D03*
X1085655Y456298D02*
D03*
X955000Y416730D02*
D03*
X880000Y505000D02*
D03*
X892500Y499270D02*
D03*
X905000Y494230D02*
D03*
X915000Y489690D02*
D03*
X1135000Y490500D02*
D03*
X855040Y425000D02*
D03*
X805000Y415040D02*
D03*
X812540Y369334D02*
D03*
X570000Y272500D02*
D03*
X525000Y236730D02*
D03*
X1338810Y182500D02*
D03*
X1170000Y480000D02*
D03*
X1230000Y275000D02*
D03*
X1240000D02*
D03*
X1250000D02*
D03*
X1089960Y358956D02*
D03*
X1377500Y175000D02*
D03*
Y182500D02*
D03*
X942500Y417500D02*
D03*
X945000Y367500D02*
D03*
X1282500Y357500D02*
D03*
X1250000Y375000D02*
D03*
X1325000Y310000D02*
D03*
X792500Y462500D02*
D03*
X832500D02*
D03*
Y472500D02*
D03*
Y482500D02*
D03*
Y492500D02*
D03*
X850000Y272500D02*
D03*
Y252500D02*
D03*
X840000Y262500D02*
D03*
X830000Y272500D02*
D03*
X840000Y242500D02*
D03*
X850000Y232500D02*
D03*
Y242500D02*
D03*
X830000Y262500D02*
D03*
X840000Y252500D02*
D03*
X830000D02*
D03*
Y232500D02*
D03*
X817500D02*
D03*
X845000Y197500D02*
D03*
X835000D02*
D03*
X805000Y227500D02*
D03*
X817500Y252500D02*
D03*
X820000Y370000D02*
D03*
X830000Y242500D02*
D03*
X582500Y270000D02*
D03*
X625795Y362380D02*
D03*
X985000Y340000D02*
D03*
X1045000Y335000D02*
D03*
X1059954Y329672D02*
D03*
X1372500Y520000D02*
D03*
Y527500D02*
D03*
X1280000Y492500D02*
D03*
X705000Y497500D02*
D03*
X720000D02*
D03*
X727500D02*
D03*
X670000Y512500D02*
D03*
X535000Y502500D02*
D03*
X555000D02*
D03*
X545000D02*
D03*
X535000Y512500D02*
D03*
X545000D02*
D03*
X555000D02*
D03*
Y522500D02*
D03*
X535000D02*
D03*
X545000D02*
D03*
X507500Y497500D02*
D03*
X674163Y506838D02*
D03*
X1556940Y266310D02*
D03*
X840000Y272500D02*
D03*
Y232500D02*
D03*
X850000Y262500D02*
D03*
X915000Y430000D02*
D03*
X880000Y432500D02*
D03*
X425000Y170000D02*
D03*
X392500Y175000D02*
D03*
X329960Y182500D02*
D03*
X355000Y267500D02*
D03*
X375000D02*
D03*
X430000Y272500D02*
D03*
X450000Y262500D02*
D03*
X377500Y182500D02*
D03*
Y190000D02*
D03*
X440000Y252500D02*
D03*
X430000Y242500D02*
D03*
X417500Y252500D02*
D03*
X430000Y262500D02*
D03*
X440000Y272500D02*
D03*
X430000Y252500D02*
D03*
X420000Y230000D02*
D03*
X440000Y262500D02*
D03*
X450000Y272500D02*
D03*
X405000Y227500D02*
D03*
X415000Y197500D02*
D03*
X440000Y232500D02*
D03*
X392500Y182500D02*
D03*
X450000Y242500D02*
D03*
X448936Y233564D02*
D03*
X425000Y197500D02*
D03*
X435000Y197500D02*
D03*
X655000Y420000D02*
D03*
X412500Y170000D02*
D03*
X445000Y197500D02*
D03*
X1667500Y390000D02*
D03*
X1730000Y362500D02*
D03*
X1450000Y272500D02*
D03*
X1422500Y330000D02*
D03*
X1432500D02*
D03*
X1645000D02*
D03*
X790000Y520000D02*
D03*
X1247500Y427460D02*
D03*
X1085000Y430000D02*
D03*
X1072500D02*
D03*
X1522500Y402500D02*
D03*
X1435000Y412500D02*
D03*
X1400000Y327500D02*
D03*
X1375000Y365000D02*
D03*
X1400000Y387500D02*
D03*
X325000Y187500D02*
D03*
Y237500D02*
D03*
X440000Y242500D02*
D03*
X450000Y252500D02*
D03*
X335000Y120000D02*
D03*
X442500Y127500D02*
D03*
X285000Y135000D02*
D03*
X372500Y140000D02*
D03*
X447314Y170186D02*
D03*
X435000Y170000D02*
D03*
X377500Y175000D02*
D03*
X385000Y182500D02*
D03*
X392500Y190000D02*
D03*
X430000Y232500D02*
D03*
X185000Y325000D02*
D03*
X1135000Y447500D02*
D03*
X1170000Y410000D02*
D03*
X1172500Y448055D02*
D03*
X1522500Y437500D02*
D03*
X947500Y430991D02*
D03*
X1330000Y440000D02*
D03*
X1020000Y432540D02*
D03*
X1320202Y369798D02*
D03*
X1645000Y454960D02*
D03*
X1602500Y468754D02*
D03*
X1489919Y278293D02*
D03*
X1607500Y397500D02*
D03*
X1670000Y482500D02*
D03*
X1675000Y405000D02*
D03*
X1642500Y420000D02*
D03*
X315000Y345000D02*
D03*
X370000D02*
D03*
X1340000Y350000D02*
D03*
X712500Y497500D02*
D03*
X784656Y420344D02*
D03*
X667500Y412500D02*
D03*
X310000Y425000D02*
D03*
Y435000D02*
D03*
X320000D02*
D03*
Y425000D02*
D03*
X1250000Y265000D02*
D03*
X1240000D02*
D03*
X1250000Y255000D02*
D03*
Y245000D02*
D03*
X1230000Y265000D02*
D03*
X1240000Y255000D02*
D03*
X925000Y237500D02*
D03*
X1040000Y272500D02*
D03*
X1050000D02*
D03*
X1230000Y255000D02*
D03*
X1250000Y235000D02*
D03*
X1240000Y245000D02*
D03*
X1217500Y252500D02*
D03*
X1240000Y235000D02*
D03*
X1230000Y245000D02*
D03*
X337500Y332500D02*
D03*
X287500Y400000D02*
D03*
X322500Y415000D02*
D03*
X730000Y520000D02*
D03*
X770000D02*
D03*
X750000D02*
D03*
X740000D02*
D03*
X780000D02*
D03*
X760000D02*
D03*
X1290000D02*
D03*
X1280000D02*
D03*
X1270000D02*
D03*
X1260000D02*
D03*
X1525000Y532500D02*
D03*
X1372500Y535000D02*
D03*
X1340000Y365000D02*
D03*
X1525000Y337500D02*
D03*
X1537500Y345000D02*
D03*
X1432250Y488500D02*
D03*
X190000Y100000D02*
D03*
X180000D02*
D03*
X170000D02*
D03*
X160000D02*
D03*
X150000D02*
D03*
Y110000D02*
D03*
Y120000D02*
D03*
Y130000D02*
D03*
Y140000D02*
D03*
Y150000D02*
D03*
X240000Y100000D02*
D03*
Y110000D02*
D03*
Y120000D02*
D03*
Y130000D02*
D03*
Y140000D02*
D03*
Y150000D02*
D03*
X230000D02*
D03*
Y140000D02*
D03*
Y130000D02*
D03*
Y120000D02*
D03*
Y110000D02*
D03*
Y100000D02*
D03*
X220000D02*
D03*
Y110000D02*
D03*
Y120000D02*
D03*
Y130000D02*
D03*
Y140000D02*
D03*
Y150000D02*
D03*
X210000Y100000D02*
D03*
Y110000D02*
D03*
Y120000D02*
D03*
Y130000D02*
D03*
Y140000D02*
D03*
Y150000D02*
D03*
X200000Y100000D02*
D03*
Y110000D02*
D03*
Y120000D02*
D03*
Y130000D02*
D03*
Y140000D02*
D03*
Y150000D02*
D03*
X1432250Y508250D02*
D03*
X1471750Y468750D02*
D03*
X1452000D02*
D03*
X1432250D02*
D03*
X1452000Y508250D02*
D03*
X1471750D02*
D03*
Y488500D02*
D03*
X1452000D02*
D03*
X800000Y405000D02*
D03*
X1530000Y120000D02*
D03*
X1485000Y135000D02*
D03*
X1330000Y120000D02*
D03*
X1125000Y130000D02*
D03*
X925000Y135000D02*
D03*
X725000D02*
D03*
X525000D02*
D03*
X1615000Y172500D02*
D03*
X1630000Y242500D02*
D03*
X1640000Y262500D02*
D03*
X1630000D02*
D03*
X1615000Y197500D02*
D03*
X1645000D02*
D03*
X1640000Y232500D02*
D03*
X1617500D02*
D03*
X1605000Y227500D02*
D03*
X1650000Y272500D02*
D03*
X1640000D02*
D03*
X1630000D02*
D03*
X1625000Y197500D02*
D03*
X1635000D02*
D03*
X1625000Y172500D02*
D03*
X1635000D02*
D03*
X1642500Y127500D02*
D03*
X1525000Y237500D02*
D03*
Y187500D02*
D03*
X1535000Y182500D02*
D03*
X1617500Y252500D02*
D03*
X1575000Y267500D02*
D03*
X1592500Y182500D02*
D03*
Y190000D02*
D03*
Y175000D02*
D03*
X1577500Y190000D02*
D03*
X1585000Y182500D02*
D03*
X1577500D02*
D03*
Y175000D02*
D03*
X1572500Y140000D02*
D03*
X1205000Y227500D02*
D03*
X1245000Y172500D02*
D03*
X1225000Y197500D02*
D03*
X1235000D02*
D03*
Y172500D02*
D03*
X1225000D02*
D03*
X1242500Y127500D02*
D03*
X1125000Y237500D02*
D03*
X1175000Y267500D02*
D03*
X1155000D02*
D03*
X1085000Y135000D02*
D03*
X1192500Y182500D02*
D03*
Y175000D02*
D03*
Y190000D02*
D03*
X1177500D02*
D03*
X1185000Y182500D02*
D03*
X1177500D02*
D03*
Y175000D02*
D03*
X1172500Y140000D02*
D03*
X1440000Y242500D02*
D03*
X1430000Y252500D02*
D03*
Y262500D02*
D03*
X1445000Y197500D02*
D03*
X1430000Y232500D02*
D03*
X1417500D02*
D03*
X1405000Y227500D02*
D03*
X1450000Y242500D02*
D03*
Y252500D02*
D03*
Y262500D02*
D03*
X1440000Y272500D02*
D03*
X1430000D02*
D03*
X1425000Y197500D02*
D03*
X1435000D02*
D03*
Y172500D02*
D03*
X1425000D02*
D03*
X1417500Y252500D02*
D03*
X1375000Y267500D02*
D03*
X1355000D02*
D03*
X1285000Y135000D02*
D03*
X1392500Y182500D02*
D03*
Y175000D02*
D03*
Y190000D02*
D03*
X1377500D02*
D03*
X1385000Y182500D02*
D03*
X1245000Y197500D02*
D03*
X1230000Y235000D02*
D03*
X1217500Y232500D02*
D03*
X1040000Y242500D02*
D03*
X1030000D02*
D03*
X1040000Y262500D02*
D03*
X1030000D02*
D03*
X1015000Y197500D02*
D03*
X1045000D02*
D03*
X1005000Y227500D02*
D03*
X1050000Y262500D02*
D03*
X1030000Y272500D02*
D03*
X1025000Y197500D02*
D03*
X1035000D02*
D03*
Y172500D02*
D03*
X1025000D02*
D03*
X1042500Y127500D02*
D03*
X935000Y182500D02*
D03*
X1017500Y252500D02*
D03*
X975000Y267500D02*
D03*
X955000D02*
D03*
X885000Y135000D02*
D03*
X992500Y182500D02*
D03*
Y175000D02*
D03*
Y190000D02*
D03*
X977500D02*
D03*
X985000Y182500D02*
D03*
X977500D02*
D03*
Y175000D02*
D03*
X972500Y140000D02*
D03*
X825000Y197500D02*
D03*
X835000Y172500D02*
D03*
X825000D02*
D03*
X842500Y127500D02*
D03*
X725000Y237500D02*
D03*
X775000Y267500D02*
D03*
X755000D02*
D03*
X685000Y135000D02*
D03*
X792500Y182500D02*
D03*
Y175000D02*
D03*
Y190000D02*
D03*
X777500D02*
D03*
X785000Y182500D02*
D03*
X777500D02*
D03*
Y175000D02*
D03*
X772500Y140000D02*
D03*
X615000Y172500D02*
D03*
X640000Y242500D02*
D03*
Y262500D02*
D03*
X650000D02*
D03*
Y272500D02*
D03*
X635000Y197500D02*
D03*
X625000D02*
D03*
X635000Y172500D02*
D03*
X625000D02*
D03*
X642500Y127500D02*
D03*
X617500Y252500D02*
D03*
X485000Y135000D02*
D03*
X592500Y182500D02*
D03*
Y175000D02*
D03*
Y190000D02*
D03*
X577500D02*
D03*
X585000Y182500D02*
D03*
X577500D02*
D03*
Y175000D02*
D03*
X572500Y140000D02*
D03*
X815000Y172500D02*
D03*
X845000D02*
D03*
X640000Y252500D02*
D03*
X630000Y262500D02*
D03*
X615000Y197500D02*
D03*
X645000D02*
D03*
X640000Y232500D02*
D03*
X645000Y172500D02*
D03*
X650000Y242500D02*
D03*
X1640000D02*
D03*
Y252500D02*
D03*
X1630000D02*
D03*
Y232500D02*
D03*
X1650000D02*
D03*
X1645000Y172500D02*
D03*
X1650000Y242500D02*
D03*
Y252500D02*
D03*
Y262500D02*
D03*
X1415000Y172500D02*
D03*
X1430000Y242500D02*
D03*
X1440000Y252500D02*
D03*
Y262500D02*
D03*
X1415000Y197500D02*
D03*
X1440000Y232500D02*
D03*
X1450000D02*
D03*
X1445000Y172500D02*
D03*
X1215000D02*
D03*
Y197500D02*
D03*
X1015000Y172500D02*
D03*
X1040000Y252500D02*
D03*
X1030000D02*
D03*
X1040000Y232500D02*
D03*
X1030000D02*
D03*
X1017500D02*
D03*
X1050000D02*
D03*
X1045000Y172500D02*
D03*
X1050000Y242500D02*
D03*
Y252500D02*
D03*
X815000Y197500D02*
D03*
X630000Y242500D02*
D03*
Y252500D02*
D03*
Y232500D02*
D03*
X620000Y230000D02*
D03*
X605000Y227500D02*
D03*
X650000Y232500D02*
D03*
Y252500D02*
D03*
X640000Y272500D02*
D03*
X630000D02*
D03*
M02*
