G04*
G04 #@! TF.GenerationSoftware,Altium Limited,Altium Designer,24.5.2 (23)*
G04*
G04 Layer_Color=8388736*
%FSLAX44Y44*%
%MOMM*%
G71*
G04*
G04 #@! TF.SameCoordinates,89E67EBC-8B33-4F8A-85E1-C4BFE03A709E*
G04*
G04*
G04 #@! TF.FilePolarity,Negative*
G04*
G01*
G75*
G04:AMPARAMS|DCode=21|XSize=1.45mm|YSize=0.3mm|CornerRadius=0.0495mm|HoleSize=0mm|Usage=FLASHONLY|Rotation=90.000|XOffset=0mm|YOffset=0mm|HoleType=Round|Shape=RoundedRectangle|*
%AMROUNDEDRECTD21*
21,1,1.4500,0.2010,0,0,90.0*
21,1,1.3510,0.3000,0,0,90.0*
1,1,0.0990,0.1005,0.6755*
1,1,0.0990,0.1005,-0.6755*
1,1,0.0990,-0.1005,-0.6755*
1,1,0.0990,-0.1005,0.6755*
%
%ADD21ROUNDEDRECTD21*%
%ADD22R,0.6500X3.0000*%
%ADD23R,0.9121X0.9581*%
G04:AMPARAMS|DCode=25|XSize=2.1692mm|YSize=0.5821mm|CornerRadius=0.2911mm|HoleSize=0mm|Usage=FLASHONLY|Rotation=180.000|XOffset=0mm|YOffset=0mm|HoleType=Round|Shape=RoundedRectangle|*
%AMROUNDEDRECTD25*
21,1,2.1692,0.0000,0,0,180.0*
21,1,1.5870,0.5821,0,0,180.0*
1,1,0.5821,-0.7935,0.0000*
1,1,0.5821,0.7935,0.0000*
1,1,0.5821,0.7935,0.0000*
1,1,0.5821,-0.7935,0.0000*
%
%ADD25ROUNDEDRECTD25*%
%ADD26R,2.1692X0.5821*%
%ADD27R,2.5000X1.2500*%
%ADD30R,1.0000X0.7000*%
%ADD33R,0.7000X1.0000*%
%ADD36R,0.3408X1.3554*%
G04:AMPARAMS|DCode=37|XSize=1.3554mm|YSize=0.3408mm|CornerRadius=0.1704mm|HoleSize=0mm|Usage=FLASHONLY|Rotation=90.000|XOffset=0mm|YOffset=0mm|HoleType=Round|Shape=RoundedRectangle|*
%AMROUNDEDRECTD37*
21,1,1.3554,0.0000,0,0,90.0*
21,1,1.0147,0.3408,0,0,90.0*
1,1,0.3408,0.0000,0.5073*
1,1,0.3408,0.0000,-0.5073*
1,1,0.3408,0.0000,-0.5073*
1,1,0.3408,0.0000,0.5073*
%
%ADD37ROUNDEDRECTD37*%
%ADD41R,0.9581X0.9121*%
%ADD45R,0.6000X1.2000*%
%ADD46R,0.6725X0.7154*%
%ADD49R,2.0000X4.1000*%
%ADD50R,0.7581X0.8121*%
%ADD57R,2.8032X1.2532*%
%ADD58R,0.8032X1.0032*%
%ADD59R,1.0032X0.8032*%
%ADD60R,1.7272X1.8796*%
%ADD61R,1.1684X1.2700*%
%ADD62R,1.0032X1.2032*%
%ADD63R,2.9032X1.5032*%
%ADD64R,2.3100X2.4600*%
%ADD65R,1.4532X1.0032*%
%ADD66R,1.2032X1.0032*%
%ADD67R,1.2700X1.1684*%
G04:AMPARAMS|DCode=68|XSize=0.6032mm|YSize=1.4032mm|CornerRadius=0.1516mm|HoleSize=0mm|Usage=FLASHONLY|Rotation=270.000|XOffset=0mm|YOffset=0mm|HoleType=Round|Shape=RoundedRectangle|*
%AMROUNDEDRECTD68*
21,1,0.6032,1.1000,0,0,270.0*
21,1,0.3000,1.4032,0,0,270.0*
1,1,0.3032,-0.5500,-0.1500*
1,1,0.3032,-0.5500,0.1500*
1,1,0.3032,0.5500,0.1500*
1,1,0.3032,0.5500,-0.1500*
%
%ADD68ROUNDEDRECTD68*%
%ADD69R,1.3432X0.8032*%
%ADD70R,1.3432X0.5032*%
G04:AMPARAMS|DCode=71|XSize=1.2032mm|YSize=2.2532mm|CornerRadius=0.1516mm|HoleSize=0mm|Usage=FLASHONLY|Rotation=90.000|XOffset=0mm|YOffset=0mm|HoleType=Round|Shape=RoundedRectangle|*
%AMROUNDEDRECTD71*
21,1,1.2032,1.9500,0,0,90.0*
21,1,0.9000,2.2532,0,0,90.0*
1,1,0.3032,0.9750,0.4500*
1,1,0.3032,0.9750,-0.4500*
1,1,0.3032,-0.9750,-0.4500*
1,1,0.3032,-0.9750,0.4500*
%
%ADD71ROUNDEDRECTD71*%
G04:AMPARAMS|DCode=72|XSize=3.4532mm|YSize=2.2532mm|CornerRadius=0.1529mm|HoleSize=0mm|Usage=FLASHONLY|Rotation=90.000|XOffset=0mm|YOffset=0mm|HoleType=Round|Shape=RoundedRectangle|*
%AMROUNDEDRECTD72*
21,1,3.4532,1.9475,0,0,90.0*
21,1,3.1475,2.2532,0,0,90.0*
1,1,0.3057,0.9738,1.5738*
1,1,0.3057,0.9738,-1.5738*
1,1,0.3057,-0.9738,-1.5738*
1,1,0.3057,-0.9738,1.5738*
%
%ADD72ROUNDEDRECTD72*%
%ADD73R,1.2032X0.8032*%
%ADD74R,3.2032X4.7032*%
%ADD75R,1.0032X0.6032*%
%ADD76R,0.6032X1.0032*%
%ADD77R,1.6532X1.6532*%
%ADD78R,0.9032X0.9032*%
%ADD79C,3.0000*%
%ADD80C,1.5700*%
%ADD81R,1.5700X1.5700*%
%ADD82C,0.2032*%
%ADD83C,1.7272*%
%ADD84R,1.7272X1.7272*%
G04:AMPARAMS|DCode=85|XSize=2.2032mm|YSize=2.2032mm|CornerRadius=0mm|HoleSize=0mm|Usage=FLASHONLY|Rotation=0.000|XOffset=0mm|YOffset=0mm|HoleType=Round|Shape=Octagon|*
%AMOCTAGOND85*
4,1,8,1.1016,-0.5508,1.1016,0.5508,0.5508,1.1016,-0.5508,1.1016,-1.1016,0.5508,-1.1016,-0.5508,-0.5508,-1.1016,0.5508,-1.1016,1.1016,-0.5508,0.0*
%
%ADD85OCTAGOND85*%

%ADD86C,1.4224*%
%ADD87R,4.2032X1.7032*%
%ADD88R,3.7032X1.7032*%
%ADD89R,1.7032X3.7032*%
%ADD90O,2.3032X1.2532*%
%ADD91O,2.0032X1.1032*%
%ADD92C,0.8532*%
%ADD93C,2.7032*%
G04:AMPARAMS|DCode=94|XSize=1.4032mm|YSize=3.4032mm|CornerRadius=0mm|HoleSize=0mm|Usage=FLASHONLY|Rotation=90.000|XOffset=0mm|YOffset=0mm|HoleType=Round|Shape=Octagon|*
%AMOCTAGOND94*
4,1,8,-1.7016,-0.3508,-1.7016,0.3508,-1.3508,0.7016,1.3508,0.7016,1.7016,0.3508,1.7016,-0.3508,1.3508,-0.7016,-1.3508,-0.7016,-1.7016,-0.3508,0.0*
%
%ADD94OCTAGOND94*%

%ADD95O,1.4032X3.2032*%
%ADD96O,3.2032X1.4032*%
%ADD97R,1.7032X4.2032*%
%ADD98C,0.7032*%
G36*
X1440500Y500000D02*
X1424000D01*
Y509900D01*
X1430600Y516500D01*
X1440500D01*
Y500000D01*
D02*
G37*
D21*
X975000Y407000D02*
D03*
X980000D02*
D03*
X985000D02*
D03*
X990000D02*
D03*
X995000D02*
D03*
Y363000D02*
D03*
X990000D02*
D03*
X985000D02*
D03*
X980000D02*
D03*
X975000D02*
D03*
X810000Y392000D02*
D03*
X815000D02*
D03*
X820000D02*
D03*
X825000D02*
D03*
X830000D02*
D03*
Y348000D02*
D03*
X825000D02*
D03*
X820000D02*
D03*
X815000D02*
D03*
X810000D02*
D03*
D22*
X1222500Y347500D02*
D03*
X1235200Y317500D02*
D03*
X1209800D02*
D03*
D23*
X1342500Y317730D02*
D03*
Y332270D02*
D03*
X1538500Y377270D02*
D03*
Y362730D02*
D03*
X1368500Y497270D02*
D03*
Y482730D02*
D03*
X1308500Y497270D02*
D03*
Y482730D02*
D03*
X1240000Y379770D02*
D03*
Y365230D02*
D03*
X370000Y372270D02*
D03*
Y357730D02*
D03*
X1030000Y337730D02*
D03*
Y352270D02*
D03*
D25*
X1261364Y310950D02*
D03*
Y323650D02*
D03*
Y336350D02*
D03*
Y349050D02*
D03*
X1308636D02*
D03*
Y336350D02*
D03*
Y323650D02*
D03*
D26*
Y310950D02*
D03*
D27*
X812500Y475500D02*
D03*
Y509500D02*
D03*
X545000Y467000D02*
D03*
Y433000D02*
D03*
D30*
X867500Y468500D02*
D03*
X927500D02*
D03*
X867500Y431500D02*
D03*
X927500D02*
D03*
D33*
X1512000Y400000D02*
D03*
Y340000D02*
D03*
X1475000Y400000D02*
D03*
Y340000D02*
D03*
X1437000Y400000D02*
D03*
Y340000D02*
D03*
X1400000Y400000D02*
D03*
Y340000D02*
D03*
D36*
X365500Y154746D02*
D03*
X1565500D02*
D03*
X1365500D02*
D03*
X1165500D02*
D03*
X965500D02*
D03*
X765500D02*
D03*
X565500D02*
D03*
D37*
X372000D02*
D03*
X378500D02*
D03*
X385000D02*
D03*
X391500D02*
D03*
X398000D02*
D03*
X404500D02*
D03*
Y210254D02*
D03*
X398000D02*
D03*
X391500D02*
D03*
X385000D02*
D03*
X378500D02*
D03*
X372000D02*
D03*
X365500D02*
D03*
X1565500D02*
D03*
X1572000D02*
D03*
X1578500D02*
D03*
X1585000D02*
D03*
X1591500D02*
D03*
X1598000D02*
D03*
X1604500D02*
D03*
Y154746D02*
D03*
X1598000D02*
D03*
X1591500D02*
D03*
X1585000D02*
D03*
X1578500D02*
D03*
X1572000D02*
D03*
X1365500Y210254D02*
D03*
X1372000D02*
D03*
X1378500D02*
D03*
X1385000D02*
D03*
X1391500D02*
D03*
X1398000D02*
D03*
X1404500D02*
D03*
Y154746D02*
D03*
X1398000D02*
D03*
X1391500D02*
D03*
X1385000D02*
D03*
X1378500D02*
D03*
X1372000D02*
D03*
X1165500Y210254D02*
D03*
X1172000D02*
D03*
X1178500D02*
D03*
X1185000D02*
D03*
X1191500D02*
D03*
X1198000D02*
D03*
X1204500D02*
D03*
Y154746D02*
D03*
X1198000D02*
D03*
X1191500D02*
D03*
X1185000D02*
D03*
X1178500D02*
D03*
X1172000D02*
D03*
X965500Y210254D02*
D03*
X972000D02*
D03*
X978500D02*
D03*
X985000D02*
D03*
X991500D02*
D03*
X998000D02*
D03*
X1004500D02*
D03*
Y154746D02*
D03*
X998000D02*
D03*
X991500D02*
D03*
X985000D02*
D03*
X978500D02*
D03*
X972000D02*
D03*
X765500Y210254D02*
D03*
X772000D02*
D03*
X778500D02*
D03*
X785000D02*
D03*
X791500D02*
D03*
X798000D02*
D03*
X804500D02*
D03*
Y154746D02*
D03*
X798000D02*
D03*
X791500D02*
D03*
X785000D02*
D03*
X778500D02*
D03*
X772000D02*
D03*
X565500Y210254D02*
D03*
X572000D02*
D03*
X578500D02*
D03*
X585000D02*
D03*
X591500D02*
D03*
X598000D02*
D03*
X604500D02*
D03*
Y154746D02*
D03*
X598000D02*
D03*
X591500D02*
D03*
X585000D02*
D03*
X578500D02*
D03*
X572000D02*
D03*
D41*
X342270Y222500D02*
D03*
X327730D02*
D03*
X427730Y142500D02*
D03*
X442270D02*
D03*
X1072730Y417500D02*
D03*
X1087270D02*
D03*
X960230Y432500D02*
D03*
X974770D02*
D03*
X795000Y425000D02*
D03*
X809540D02*
D03*
X1527730Y222500D02*
D03*
X1542270D02*
D03*
X1327730D02*
D03*
X1342270D02*
D03*
X1127730D02*
D03*
X1142270D02*
D03*
X927730D02*
D03*
X942270D02*
D03*
X727730D02*
D03*
X742270D02*
D03*
X842270Y142500D02*
D03*
X827730D02*
D03*
X527730Y222500D02*
D03*
X542270D02*
D03*
X1642270Y142500D02*
D03*
X1627730D02*
D03*
X1442270D02*
D03*
X1427730D02*
D03*
X1242270D02*
D03*
X1227730D02*
D03*
X1042270D02*
D03*
X1027730D02*
D03*
X642270D02*
D03*
X627730D02*
D03*
X362270Y445000D02*
D03*
X347730D02*
D03*
X1340793Y407581D02*
D03*
X1355333D02*
D03*
D45*
X1608000Y436714D02*
D03*
X1617500D02*
D03*
X1627000D02*
D03*
Y413714D02*
D03*
X1617500D02*
D03*
X1608000D02*
D03*
D46*
X1657500Y445429D02*
D03*
Y455000D02*
D03*
Y400000D02*
D03*
Y390429D02*
D03*
D49*
X175000Y134000D02*
D03*
Y221000D02*
D03*
D50*
X1006270Y431509D02*
D03*
X993730D02*
D03*
X845000Y425000D02*
D03*
X832460D02*
D03*
D57*
X1132500Y348250D02*
D03*
Y321750D02*
D03*
D58*
X311500Y400000D02*
D03*
X298500D02*
D03*
Y385000D02*
D03*
X311500D02*
D03*
D59*
X1060000Y351500D02*
D03*
Y338500D02*
D03*
X1080000Y341500D02*
D03*
Y328500D02*
D03*
D60*
X1713796Y362500D02*
D03*
X1676204D02*
D03*
X623796Y457500D02*
D03*
X586204D02*
D03*
X621296Y412500D02*
D03*
X583704D02*
D03*
D61*
X1638000Y355000D02*
D03*
X1657152D02*
D03*
X1647500Y376176D02*
D03*
D62*
X1358293Y442580D02*
D03*
X1343293D02*
D03*
X1423098Y321535D02*
D03*
X1408098D02*
D03*
X312500Y142500D02*
D03*
X297500D02*
D03*
X349000Y242500D02*
D03*
X334000D02*
D03*
X335000Y135000D02*
D03*
X350000D02*
D03*
X1105000Y417500D02*
D03*
X1120000D02*
D03*
X1534000Y242500D02*
D03*
X1549000D02*
D03*
X1334000D02*
D03*
X1349000D02*
D03*
X1134000D02*
D03*
X1149000D02*
D03*
X934000D02*
D03*
X949000D02*
D03*
X734000D02*
D03*
X749000D02*
D03*
X534000D02*
D03*
X549000D02*
D03*
X1550000Y135000D02*
D03*
X1535000D02*
D03*
X1350000D02*
D03*
X1335000D02*
D03*
X1150000D02*
D03*
X1135000D02*
D03*
X950000D02*
D03*
X935000D02*
D03*
X750000D02*
D03*
X735000D02*
D03*
X550000D02*
D03*
X535000D02*
D03*
X1352500Y365000D02*
D03*
X1367500D02*
D03*
X1352500Y350000D02*
D03*
X1367500D02*
D03*
X1497500Y142500D02*
D03*
X1512500D02*
D03*
X1297500D02*
D03*
X1312500D02*
D03*
X1097500D02*
D03*
X1112500D02*
D03*
X897500D02*
D03*
X912500D02*
D03*
X697500D02*
D03*
X712500D02*
D03*
X497500D02*
D03*
X512500D02*
D03*
X1273293Y427581D02*
D03*
X1258293D02*
D03*
D63*
X1338500Y476000D02*
D03*
Y504000D02*
D03*
X432500Y183500D02*
D03*
Y211500D02*
D03*
X1632500D02*
D03*
Y183500D02*
D03*
X1432500Y211500D02*
D03*
Y183500D02*
D03*
X1232500Y211500D02*
D03*
Y183500D02*
D03*
X1032500Y211500D02*
D03*
Y183500D02*
D03*
X832500Y211500D02*
D03*
Y183500D02*
D03*
X632500Y211500D02*
D03*
Y183500D02*
D03*
X340000Y374000D02*
D03*
Y346000D02*
D03*
X650000Y389000D02*
D03*
Y361000D02*
D03*
X655000Y464000D02*
D03*
Y436000D02*
D03*
Y496000D02*
D03*
Y524000D02*
D03*
D64*
X385000Y182500D02*
D03*
X1585000D02*
D03*
X1385000D02*
D03*
X1185000D02*
D03*
X985000D02*
D03*
X785000D02*
D03*
X585000D02*
D03*
D65*
X365000Y244500D02*
D03*
Y260500D02*
D03*
X385000Y244500D02*
D03*
Y260500D02*
D03*
X1585000D02*
D03*
Y244500D02*
D03*
X1565000Y260500D02*
D03*
Y244500D02*
D03*
X1385000Y260500D02*
D03*
Y244500D02*
D03*
X1365000Y260500D02*
D03*
Y244500D02*
D03*
X1185000Y260500D02*
D03*
Y244500D02*
D03*
X1165000Y260500D02*
D03*
Y244500D02*
D03*
X985000Y260500D02*
D03*
Y244500D02*
D03*
X965000Y260500D02*
D03*
Y244500D02*
D03*
X785000Y260500D02*
D03*
Y244500D02*
D03*
X765000Y260500D02*
D03*
Y244500D02*
D03*
X585000Y260500D02*
D03*
Y244500D02*
D03*
X565000Y260500D02*
D03*
Y244500D02*
D03*
D66*
X405000Y253500D02*
D03*
Y238500D02*
D03*
X335000Y155000D02*
D03*
Y170000D02*
D03*
X1605000Y238500D02*
D03*
Y253500D02*
D03*
X1405000Y238500D02*
D03*
Y253500D02*
D03*
X1205000Y238500D02*
D03*
Y253500D02*
D03*
X1005000Y238500D02*
D03*
Y253500D02*
D03*
X805000Y238500D02*
D03*
Y253500D02*
D03*
X605000Y238500D02*
D03*
Y253500D02*
D03*
X1535000Y170000D02*
D03*
Y155000D02*
D03*
X1335000Y170000D02*
D03*
Y155000D02*
D03*
X1135000Y170000D02*
D03*
Y155000D02*
D03*
X935000Y170000D02*
D03*
Y155000D02*
D03*
X735000Y170000D02*
D03*
Y155000D02*
D03*
X535000Y170000D02*
D03*
Y155000D02*
D03*
X1490000Y290000D02*
D03*
Y305000D02*
D03*
X1157500Y410000D02*
D03*
Y425000D02*
D03*
X1160000Y507500D02*
D03*
Y522500D02*
D03*
X1290793Y380081D02*
D03*
Y395081D02*
D03*
D67*
X293824Y172500D02*
D03*
X315000Y182152D02*
D03*
Y163000D02*
D03*
X1515000D02*
D03*
Y182152D02*
D03*
X1493824Y172500D02*
D03*
X1315000Y163000D02*
D03*
Y182152D02*
D03*
X1293824Y172500D02*
D03*
X1115000Y163000D02*
D03*
Y182152D02*
D03*
X1093824Y172500D02*
D03*
X915000Y163000D02*
D03*
Y182152D02*
D03*
X893824Y172500D02*
D03*
X715000Y163000D02*
D03*
Y182152D02*
D03*
X693824Y172500D02*
D03*
X515000Y163000D02*
D03*
Y182152D02*
D03*
X493824Y172500D02*
D03*
X1275793Y378080D02*
D03*
Y397233D02*
D03*
X1254617Y387581D02*
D03*
X1270793Y463081D02*
D03*
Y482233D02*
D03*
X1249617Y472581D02*
D03*
D68*
X1066500Y487750D02*
D03*
Y481250D02*
D03*
Y474750D02*
D03*
Y468250D02*
D03*
Y461750D02*
D03*
Y455250D02*
D03*
Y448750D02*
D03*
Y442250D02*
D03*
X1123500Y487750D02*
D03*
Y481250D02*
D03*
Y474750D02*
D03*
Y468250D02*
D03*
Y461750D02*
D03*
Y455250D02*
D03*
Y448750D02*
D03*
Y442250D02*
D03*
D69*
X1690000Y408214D02*
D03*
Y416214D02*
D03*
Y464214D02*
D03*
Y472214D02*
D03*
D70*
Y422714D02*
D03*
Y427714D02*
D03*
Y432714D02*
D03*
Y437714D02*
D03*
Y442714D02*
D03*
Y447714D02*
D03*
Y452714D02*
D03*
Y457714D02*
D03*
D71*
X688250Y498000D02*
D03*
Y475000D02*
D03*
Y452000D02*
D03*
Y367000D02*
D03*
Y390000D02*
D03*
Y413000D02*
D03*
D72*
X751750Y475000D02*
D03*
Y390000D02*
D03*
D73*
X370000Y424500D02*
D03*
Y415000D02*
D03*
Y405500D02*
D03*
X342500D02*
D03*
Y415000D02*
D03*
Y424500D02*
D03*
D74*
X405000Y425000D02*
D03*
X505000D02*
D03*
D75*
X1393000Y528500D02*
D03*
Y520500D02*
D03*
Y512500D02*
D03*
Y504500D02*
D03*
Y496500D02*
D03*
Y488500D02*
D03*
Y480500D02*
D03*
Y472500D02*
D03*
Y464500D02*
D03*
Y456500D02*
D03*
Y448500D02*
D03*
X1511000D02*
D03*
Y456500D02*
D03*
Y464500D02*
D03*
Y472500D02*
D03*
Y480500D02*
D03*
Y488500D02*
D03*
Y496500D02*
D03*
Y504500D02*
D03*
Y512500D02*
D03*
Y520500D02*
D03*
Y528500D02*
D03*
D76*
X1404000Y439500D02*
D03*
X1412000D02*
D03*
X1420000D02*
D03*
X1428000D02*
D03*
X1436000D02*
D03*
X1444000D02*
D03*
X1452000D02*
D03*
X1460000D02*
D03*
X1468000D02*
D03*
X1476000D02*
D03*
X1484000D02*
D03*
X1492000D02*
D03*
X1500000D02*
D03*
Y537500D02*
D03*
X1492000D02*
D03*
X1484000D02*
D03*
X1476000D02*
D03*
X1468000D02*
D03*
X1460000D02*
D03*
X1452000D02*
D03*
X1444000D02*
D03*
X1436000D02*
D03*
X1428000D02*
D03*
X1420000D02*
D03*
X1412000D02*
D03*
X1404000D02*
D03*
D77*
X1452000Y488500D02*
D03*
X1471750Y508250D02*
D03*
X1452000D02*
D03*
X1432250Y488500D02*
D03*
Y468750D02*
D03*
X1452000D02*
D03*
X1471750D02*
D03*
Y488500D02*
D03*
D78*
X1392500Y538000D02*
D03*
Y439000D02*
D03*
X1511500D02*
D03*
Y538000D02*
D03*
D79*
X21800Y121500D02*
D03*
Y198500D02*
D03*
D80*
X95000Y220000D02*
D03*
Y190000D02*
D03*
Y160000D02*
D03*
Y130000D02*
D03*
Y100000D02*
D03*
X65000Y220000D02*
D03*
Y190000D02*
D03*
Y160000D02*
D03*
Y130000D02*
D03*
D81*
Y100000D02*
D03*
D82*
X235200Y277500D02*
D03*
X540000D02*
D03*
Y556900D02*
D03*
X235200D02*
D03*
X1100000Y550000D02*
D03*
X1700000D02*
D03*
X1590000Y350000D02*
D03*
X167500Y50000D02*
D03*
Y520000D02*
D03*
X450000Y330000D02*
D03*
X900000Y350000D02*
D03*
X1180000D02*
D03*
X1700000Y50000D02*
D03*
X50000Y340000D02*
D03*
Y390000D02*
D03*
D83*
X425700Y572140D02*
D03*
X400300D02*
D03*
X374900D02*
D03*
D84*
X349500D02*
D03*
D85*
X1680000Y247000D02*
D03*
Y323000D02*
D03*
D86*
X285000Y72500D02*
D03*
X310400D02*
D03*
X1222400Y500000D02*
D03*
X1197000D02*
D03*
X510400Y72500D02*
D03*
X485000D02*
D03*
X1510400D02*
D03*
X1485000D02*
D03*
X1310400D02*
D03*
X1285000D02*
D03*
X1110400D02*
D03*
X1085000D02*
D03*
X910400D02*
D03*
X885000D02*
D03*
X710400D02*
D03*
X685000D02*
D03*
X1222400Y420000D02*
D03*
X1197000D02*
D03*
D87*
X385000Y112500D02*
D03*
X1585000D02*
D03*
X1385000D02*
D03*
X1185000D02*
D03*
X985000D02*
D03*
X785000D02*
D03*
X585000D02*
D03*
D88*
X385000Y52500D02*
D03*
X1585000D02*
D03*
X1385000D02*
D03*
X1185000D02*
D03*
X985000D02*
D03*
X785000D02*
D03*
X585000D02*
D03*
X80000Y473000D02*
D03*
D89*
X432000Y82500D02*
D03*
X1632000D02*
D03*
X1432000D02*
D03*
X1232000D02*
D03*
X1032000D02*
D03*
X832000D02*
D03*
X632000D02*
D03*
X50000Y520000D02*
D03*
D90*
X1695700Y397014D02*
D03*
Y483414D02*
D03*
D91*
X1737500Y397014D02*
D03*
Y483414D02*
D03*
D92*
X1700700Y469114D02*
D03*
Y411314D02*
D03*
D93*
X50000Y287000D02*
D03*
Y443000D02*
D03*
D94*
X121500Y394000D02*
D03*
Y336000D02*
D03*
X85000Y390000D02*
D03*
Y340000D02*
D03*
D95*
X30000Y365000D02*
D03*
D96*
X135000Y287000D02*
D03*
Y443000D02*
D03*
D97*
X110000Y520000D02*
D03*
D98*
X1063506Y299855D02*
D03*
X922874Y189518D02*
D03*
X1124250Y429250D02*
D03*
X570000Y462500D02*
D03*
X1443016Y128016D02*
D03*
X1368862Y137854D02*
D03*
X1321688Y237499D02*
D03*
X1321717Y187498D02*
D03*
X1112802Y377810D02*
D03*
X1120000D02*
D03*
X1136580Y180920D02*
D03*
X1125000Y187500D02*
D03*
X723420Y189080D02*
D03*
X735000Y182500D02*
D03*
X535144Y182356D02*
D03*
X524484Y188016D02*
D03*
X200000Y327500D02*
D03*
X1089960Y375000D02*
D03*
X1082500Y400000D02*
D03*
X1290000Y405730D02*
D03*
X1328016Y325230D02*
D03*
X1375000Y350000D02*
D03*
X1409270Y410000D02*
D03*
X1400000Y413540D02*
D03*
X1340056Y394310D02*
D03*
X1391829Y429254D02*
D03*
X1421984Y426944D02*
D03*
X1382540Y444825D02*
D03*
X1327500Y462500D02*
D03*
X1335000D02*
D03*
X1342500D02*
D03*
X1350000D02*
D03*
X1475000Y425730D02*
D03*
X1617500Y403270D02*
D03*
X1252500Y360000D02*
D03*
X1310000Y471730D02*
D03*
X1360000D02*
D03*
X1170000Y515000D02*
D03*
X1082037Y450049D02*
D03*
X1085655Y456298D02*
D03*
X955000Y416730D02*
D03*
X880000Y505000D02*
D03*
X892500Y499270D02*
D03*
X905000Y494230D02*
D03*
X915000Y489690D02*
D03*
X1135000Y490500D02*
D03*
X855040Y425000D02*
D03*
X805000Y415040D02*
D03*
X812540Y369334D02*
D03*
X570000Y272500D02*
D03*
X525000Y236730D02*
D03*
X1338810Y182500D02*
D03*
X1170000Y480000D02*
D03*
X1230000Y275000D02*
D03*
X1240000D02*
D03*
X1250000D02*
D03*
X1089960Y358956D02*
D03*
X1377500Y175000D02*
D03*
Y182500D02*
D03*
X942500Y417500D02*
D03*
X945000Y367500D02*
D03*
X1282500Y357500D02*
D03*
X1250000Y375000D02*
D03*
X1325000Y310000D02*
D03*
X792500Y462500D02*
D03*
X832500D02*
D03*
Y472500D02*
D03*
Y482500D02*
D03*
Y492500D02*
D03*
X850000Y272500D02*
D03*
Y252500D02*
D03*
X840000Y262500D02*
D03*
X830000Y272500D02*
D03*
X840000Y242500D02*
D03*
X850000Y232500D02*
D03*
Y242500D02*
D03*
X830000Y262500D02*
D03*
X840000Y252500D02*
D03*
X830000D02*
D03*
Y232500D02*
D03*
X817500D02*
D03*
X845000Y197500D02*
D03*
X835000D02*
D03*
X805000Y227500D02*
D03*
X817500Y252500D02*
D03*
X820000Y370000D02*
D03*
X830000Y242500D02*
D03*
X582500Y270000D02*
D03*
X625795Y362380D02*
D03*
X985000Y340000D02*
D03*
X1045000Y335000D02*
D03*
X1059954Y329672D02*
D03*
X1372500Y520000D02*
D03*
Y527500D02*
D03*
X1280000Y492500D02*
D03*
X705000Y497500D02*
D03*
X720000D02*
D03*
X727500D02*
D03*
X670000Y512500D02*
D03*
X535000Y502500D02*
D03*
X555000D02*
D03*
X545000D02*
D03*
X535000Y512500D02*
D03*
X545000D02*
D03*
X555000D02*
D03*
Y522500D02*
D03*
X535000D02*
D03*
X545000D02*
D03*
X507500Y497500D02*
D03*
X674163Y506838D02*
D03*
X1556940Y266310D02*
D03*
X840000Y272500D02*
D03*
Y232500D02*
D03*
X850000Y262500D02*
D03*
X915000Y430000D02*
D03*
X880000Y432500D02*
D03*
X425000Y170000D02*
D03*
X392500Y175000D02*
D03*
X329960Y182500D02*
D03*
X355000Y267500D02*
D03*
X375000D02*
D03*
X430000Y272500D02*
D03*
X450000Y262500D02*
D03*
X377500Y182500D02*
D03*
Y190000D02*
D03*
X440000Y252500D02*
D03*
X430000Y242500D02*
D03*
X417500Y252500D02*
D03*
X430000Y262500D02*
D03*
X440000Y272500D02*
D03*
X430000Y252500D02*
D03*
X420000Y230000D02*
D03*
X440000Y262500D02*
D03*
X450000Y272500D02*
D03*
X405000Y227500D02*
D03*
X415000Y197500D02*
D03*
X440000Y232500D02*
D03*
X392500Y182500D02*
D03*
X450000Y242500D02*
D03*
X448936Y233564D02*
D03*
X425000Y197500D02*
D03*
X435000Y197500D02*
D03*
X655000Y420000D02*
D03*
X412500Y170000D02*
D03*
X445000Y197500D02*
D03*
X1667500Y390000D02*
D03*
X1730000Y362500D02*
D03*
X1450000Y272500D02*
D03*
X1422500Y330000D02*
D03*
X1432500D02*
D03*
X1645000D02*
D03*
X790000Y520000D02*
D03*
X1247500Y427460D02*
D03*
X1085000Y430000D02*
D03*
X1072500D02*
D03*
X1522500Y402500D02*
D03*
X1435000Y412500D02*
D03*
X1400000Y327500D02*
D03*
X1375000Y365000D02*
D03*
X1400000Y387500D02*
D03*
X325000Y187500D02*
D03*
Y237500D02*
D03*
X440000Y242500D02*
D03*
X450000Y252500D02*
D03*
X335000Y120000D02*
D03*
X442500Y127500D02*
D03*
X285000Y135000D02*
D03*
X372500Y140000D02*
D03*
X447314Y170186D02*
D03*
X435000Y170000D02*
D03*
X377500Y175000D02*
D03*
X385000Y182500D02*
D03*
X392500Y190000D02*
D03*
X430000Y232500D02*
D03*
X185000Y325000D02*
D03*
X1135000Y447500D02*
D03*
X1170000Y410000D02*
D03*
X1172500Y448055D02*
D03*
X1522500Y437500D02*
D03*
X947500Y430991D02*
D03*
X1330000Y440000D02*
D03*
X1020000Y432540D02*
D03*
X1320202Y369798D02*
D03*
X1645000Y454960D02*
D03*
X1602500Y468754D02*
D03*
X1489919Y278293D02*
D03*
X1607500Y397500D02*
D03*
X1670000Y482500D02*
D03*
X1675000Y405000D02*
D03*
X1642500Y420000D02*
D03*
X315000Y345000D02*
D03*
X370000D02*
D03*
X1340000Y350000D02*
D03*
X712500Y497500D02*
D03*
X784656Y420344D02*
D03*
X667500Y412500D02*
D03*
X310000Y425000D02*
D03*
Y435000D02*
D03*
X320000D02*
D03*
Y425000D02*
D03*
X1250000Y265000D02*
D03*
X1240000D02*
D03*
X1250000Y255000D02*
D03*
Y245000D02*
D03*
X1230000Y265000D02*
D03*
X1240000Y255000D02*
D03*
X925000Y237500D02*
D03*
X1040000Y272500D02*
D03*
X1050000D02*
D03*
X1230000Y255000D02*
D03*
X1250000Y235000D02*
D03*
X1240000Y245000D02*
D03*
X1217500Y252500D02*
D03*
X1240000Y235000D02*
D03*
X1230000Y245000D02*
D03*
X337500Y332500D02*
D03*
X287500Y400000D02*
D03*
X322500Y415000D02*
D03*
X730000Y520000D02*
D03*
X770000D02*
D03*
X750000D02*
D03*
X740000D02*
D03*
X780000D02*
D03*
X760000D02*
D03*
X1290000D02*
D03*
X1280000D02*
D03*
X1270000D02*
D03*
X1260000D02*
D03*
X1525000Y532500D02*
D03*
X1372500Y535000D02*
D03*
X1340000Y365000D02*
D03*
X1525000Y337500D02*
D03*
X1537500Y345000D02*
D03*
X1432250Y488500D02*
D03*
X190000Y100000D02*
D03*
X180000D02*
D03*
X170000D02*
D03*
X160000D02*
D03*
X150000D02*
D03*
Y110000D02*
D03*
Y120000D02*
D03*
Y130000D02*
D03*
Y140000D02*
D03*
Y150000D02*
D03*
X240000Y100000D02*
D03*
Y110000D02*
D03*
Y120000D02*
D03*
Y130000D02*
D03*
Y140000D02*
D03*
Y150000D02*
D03*
X230000D02*
D03*
Y140000D02*
D03*
Y130000D02*
D03*
Y120000D02*
D03*
Y110000D02*
D03*
Y100000D02*
D03*
X220000D02*
D03*
Y110000D02*
D03*
Y120000D02*
D03*
Y130000D02*
D03*
Y140000D02*
D03*
Y150000D02*
D03*
X210000Y100000D02*
D03*
Y110000D02*
D03*
Y120000D02*
D03*
Y130000D02*
D03*
Y140000D02*
D03*
Y150000D02*
D03*
X200000Y100000D02*
D03*
Y110000D02*
D03*
Y120000D02*
D03*
Y130000D02*
D03*
Y140000D02*
D03*
Y150000D02*
D03*
X1432250Y508250D02*
D03*
X1471750Y468750D02*
D03*
X1452000D02*
D03*
X1432250D02*
D03*
X1452000Y508250D02*
D03*
X1471750D02*
D03*
Y488500D02*
D03*
X1452000D02*
D03*
X800000Y405000D02*
D03*
X1530000Y120000D02*
D03*
X1485000Y135000D02*
D03*
X1330000Y120000D02*
D03*
X1125000Y130000D02*
D03*
X925000Y135000D02*
D03*
X725000D02*
D03*
X525000D02*
D03*
X1615000Y172500D02*
D03*
X1630000Y242500D02*
D03*
X1640000Y262500D02*
D03*
X1630000D02*
D03*
X1615000Y197500D02*
D03*
X1645000D02*
D03*
X1640000Y232500D02*
D03*
X1617500D02*
D03*
X1605000Y227500D02*
D03*
X1650000Y272500D02*
D03*
X1640000D02*
D03*
X1630000D02*
D03*
X1625000Y197500D02*
D03*
X1635000D02*
D03*
X1625000Y172500D02*
D03*
X1635000D02*
D03*
X1642500Y127500D02*
D03*
X1525000Y237500D02*
D03*
Y187500D02*
D03*
X1535000Y182500D02*
D03*
X1617500Y252500D02*
D03*
X1575000Y267500D02*
D03*
X1592500Y182500D02*
D03*
Y190000D02*
D03*
Y175000D02*
D03*
X1577500Y190000D02*
D03*
X1585000Y182500D02*
D03*
X1577500D02*
D03*
Y175000D02*
D03*
X1572500Y140000D02*
D03*
X1205000Y227500D02*
D03*
X1245000Y172500D02*
D03*
X1225000Y197500D02*
D03*
X1235000D02*
D03*
Y172500D02*
D03*
X1225000D02*
D03*
X1242500Y127500D02*
D03*
X1125000Y237500D02*
D03*
X1175000Y267500D02*
D03*
X1155000D02*
D03*
X1085000Y135000D02*
D03*
X1192500Y182500D02*
D03*
Y175000D02*
D03*
Y190000D02*
D03*
X1177500D02*
D03*
X1185000Y182500D02*
D03*
X1177500D02*
D03*
Y175000D02*
D03*
X1172500Y140000D02*
D03*
X1440000Y242500D02*
D03*
X1430000Y252500D02*
D03*
Y262500D02*
D03*
X1445000Y197500D02*
D03*
X1430000Y232500D02*
D03*
X1417500D02*
D03*
X1405000Y227500D02*
D03*
X1450000Y242500D02*
D03*
Y252500D02*
D03*
Y262500D02*
D03*
X1440000Y272500D02*
D03*
X1430000D02*
D03*
X1425000Y197500D02*
D03*
X1435000D02*
D03*
Y172500D02*
D03*
X1425000D02*
D03*
X1417500Y252500D02*
D03*
X1375000Y267500D02*
D03*
X1355000D02*
D03*
X1285000Y135000D02*
D03*
X1392500Y182500D02*
D03*
Y175000D02*
D03*
Y190000D02*
D03*
X1377500D02*
D03*
X1385000Y182500D02*
D03*
X1245000Y197500D02*
D03*
X1230000Y235000D02*
D03*
X1217500Y232500D02*
D03*
X1040000Y242500D02*
D03*
X1030000D02*
D03*
X1040000Y262500D02*
D03*
X1030000D02*
D03*
X1015000Y197500D02*
D03*
X1045000D02*
D03*
X1005000Y227500D02*
D03*
X1050000Y262500D02*
D03*
X1030000Y272500D02*
D03*
X1025000Y197500D02*
D03*
X1035000D02*
D03*
Y172500D02*
D03*
X1025000D02*
D03*
X1042500Y127500D02*
D03*
X935000Y182500D02*
D03*
X1017500Y252500D02*
D03*
X975000Y267500D02*
D03*
X955000D02*
D03*
X885000Y135000D02*
D03*
X992500Y182500D02*
D03*
Y175000D02*
D03*
Y190000D02*
D03*
X977500D02*
D03*
X985000Y182500D02*
D03*
X977500D02*
D03*
Y175000D02*
D03*
X972500Y140000D02*
D03*
X825000Y197500D02*
D03*
X835000Y172500D02*
D03*
X825000D02*
D03*
X842500Y127500D02*
D03*
X725000Y237500D02*
D03*
X775000Y267500D02*
D03*
X755000D02*
D03*
X685000Y135000D02*
D03*
X792500Y182500D02*
D03*
Y175000D02*
D03*
Y190000D02*
D03*
X777500D02*
D03*
X785000Y182500D02*
D03*
X777500D02*
D03*
Y175000D02*
D03*
X772500Y140000D02*
D03*
X615000Y172500D02*
D03*
X640000Y242500D02*
D03*
Y262500D02*
D03*
X650000D02*
D03*
Y272500D02*
D03*
X635000Y197500D02*
D03*
X625000D02*
D03*
X635000Y172500D02*
D03*
X625000D02*
D03*
X642500Y127500D02*
D03*
X617500Y252500D02*
D03*
X485000Y135000D02*
D03*
X592500Y182500D02*
D03*
Y175000D02*
D03*
Y190000D02*
D03*
X577500D02*
D03*
X585000Y182500D02*
D03*
X577500D02*
D03*
Y175000D02*
D03*
X572500Y140000D02*
D03*
X815000Y172500D02*
D03*
X845000D02*
D03*
X640000Y252500D02*
D03*
X630000Y262500D02*
D03*
X615000Y197500D02*
D03*
X645000D02*
D03*
X640000Y232500D02*
D03*
X645000Y172500D02*
D03*
X650000Y242500D02*
D03*
X1640000D02*
D03*
Y252500D02*
D03*
X1630000D02*
D03*
Y232500D02*
D03*
X1650000D02*
D03*
X1645000Y172500D02*
D03*
X1650000Y242500D02*
D03*
Y252500D02*
D03*
Y262500D02*
D03*
X1415000Y172500D02*
D03*
X1430000Y242500D02*
D03*
X1440000Y252500D02*
D03*
Y262500D02*
D03*
X1415000Y197500D02*
D03*
X1440000Y232500D02*
D03*
X1450000D02*
D03*
X1445000Y172500D02*
D03*
X1215000D02*
D03*
Y197500D02*
D03*
X1015000Y172500D02*
D03*
X1040000Y252500D02*
D03*
X1030000D02*
D03*
X1040000Y232500D02*
D03*
X1030000D02*
D03*
X1017500D02*
D03*
X1050000D02*
D03*
X1045000Y172500D02*
D03*
X1050000Y242500D02*
D03*
Y252500D02*
D03*
X815000Y197500D02*
D03*
X630000Y242500D02*
D03*
Y252500D02*
D03*
Y232500D02*
D03*
X620000Y230000D02*
D03*
X605000Y227500D02*
D03*
X650000Y232500D02*
D03*
Y252500D02*
D03*
X640000Y272500D02*
D03*
X630000D02*
D03*
M02*
