G04*
G04 #@! TF.GenerationSoftware,Altium Limited,Altium Designer,24.5.2 (23)*
G04*
G04 Layer_Color=8421504*
%FSLAX44Y44*%
%MOMM*%
G71*
G04*
G04 #@! TF.SameCoordinates,89E67EBC-8B33-4F8A-85E1-C4BFE03A709E*
G04*
G04*
G04 #@! TF.FilePolarity,Positive*
G04*
G01*
G75*
%ADD19R,1.4345X1.5845*%
%ADD20R,1.4345X1.5845*%
G04:AMPARAMS|DCode=21|XSize=1.45mm|YSize=0.3mm|CornerRadius=0.0495mm|HoleSize=0mm|Usage=FLASHONLY|Rotation=90.000|XOffset=0mm|YOffset=0mm|HoleType=Round|Shape=RoundedRectangle|*
%AMROUNDEDRECTD21*
21,1,1.4500,0.2010,0,0,90.0*
21,1,1.3510,0.3000,0,0,90.0*
1,1,0.0990,0.1005,0.6755*
1,1,0.0990,0.1005,-0.6755*
1,1,0.0990,-0.1005,-0.6755*
1,1,0.0990,-0.1005,0.6755*
%
%ADD21ROUNDEDRECTD21*%
%ADD22R,0.6500X3.0000*%
%ADD23R,0.9121X0.9581*%
%ADD24R,2.6000X1.0500*%
G04:AMPARAMS|DCode=25|XSize=2.1692mm|YSize=0.5821mm|CornerRadius=0.2911mm|HoleSize=0mm|Usage=FLASHONLY|Rotation=180.000|XOffset=0mm|YOffset=0mm|HoleType=Round|Shape=RoundedRectangle|*
%AMROUNDEDRECTD25*
21,1,2.1692,0.0000,0,0,180.0*
21,1,1.5870,0.5821,0,0,180.0*
1,1,0.5821,-0.7935,0.0000*
1,1,0.5821,0.7935,0.0000*
1,1,0.5821,0.7935,0.0000*
1,1,0.5821,-0.7935,0.0000*
%
%ADD25ROUNDEDRECTD25*%
%ADD26R,2.1692X0.5821*%
%ADD27R,2.5000X1.2500*%
%ADD28R,0.6000X0.8000*%
%ADD29R,0.8000X0.6000*%
%ADD30R,1.0000X0.7000*%
%ADD31R,1.5240X1.6764*%
%ADD32R,0.9652X1.0668*%
%ADD33R,0.7000X1.0000*%
%ADD34R,0.8000X1.0000*%
%ADD35R,2.7000X1.3000*%
%ADD36R,0.3408X1.3554*%
G04:AMPARAMS|DCode=37|XSize=1.3554mm|YSize=0.3408mm|CornerRadius=0.1704mm|HoleSize=0mm|Usage=FLASHONLY|Rotation=90.000|XOffset=0mm|YOffset=0mm|HoleType=Round|Shape=RoundedRectangle|*
%AMROUNDEDRECTD37*
21,1,1.3554,0.0000,0,0,90.0*
21,1,1.0147,0.3408,0,0,90.0*
1,1,0.3408,0.0000,0.5073*
1,1,0.3408,0.0000,-0.5073*
1,1,0.3408,0.0000,-0.5073*
1,1,0.3408,0.0000,0.5073*
%
%ADD37ROUNDEDRECTD37*%
%ADD38R,1.2500X0.8000*%
%ADD39R,1.0000X0.8000*%
%ADD40R,1.0668X0.9652*%
%ADD41R,0.9581X0.9121*%
G04:AMPARAMS|DCode=42|XSize=0.4mm|YSize=1.2mm|CornerRadius=0.05mm|HoleSize=0mm|Usage=FLASHONLY|Rotation=270.000|XOffset=0mm|YOffset=0mm|HoleType=Round|Shape=RoundedRectangle|*
%AMROUNDEDRECTD42*
21,1,0.4000,1.1000,0,0,270.0*
21,1,0.3000,1.2000,0,0,270.0*
1,1,0.1000,-0.5500,-0.1500*
1,1,0.1000,-0.5500,0.1500*
1,1,0.1000,0.5500,0.1500*
1,1,0.1000,0.5500,-0.1500*
%
%ADD42ROUNDEDRECTD42*%
%ADD43R,1.1400X0.6000*%
%ADD44R,1.1400X0.3000*%
%ADD45R,0.6000X1.2000*%
%ADD46R,0.6725X0.7154*%
G04:AMPARAMS|DCode=47|XSize=1mm|YSize=2.05mm|CornerRadius=0.05mm|HoleSize=0mm|Usage=FLASHONLY|Rotation=90.000|XOffset=0mm|YOffset=0mm|HoleType=Round|Shape=RoundedRectangle|*
%AMROUNDEDRECTD47*
21,1,1.0000,1.9500,0,0,90.0*
21,1,0.9000,2.0500,0,0,90.0*
1,1,0.1000,0.9750,0.4500*
1,1,0.1000,0.9750,-0.4500*
1,1,0.1000,-0.9750,-0.4500*
1,1,0.1000,-0.9750,0.4500*
%
%ADD47ROUNDEDRECTD47*%
G04:AMPARAMS|DCode=48|XSize=3.25mm|YSize=2.05mm|CornerRadius=0.0513mm|HoleSize=0mm|Usage=FLASHONLY|Rotation=90.000|XOffset=0mm|YOffset=0mm|HoleType=Round|Shape=RoundedRectangle|*
%AMROUNDEDRECTD48*
21,1,3.2500,1.9475,0,0,90.0*
21,1,3.1475,2.0500,0,0,90.0*
1,1,0.1025,0.9738,1.5738*
1,1,0.1025,0.9738,-1.5738*
1,1,0.1025,-0.9738,-1.5738*
1,1,0.1025,-0.9738,1.5738*
%
%ADD48ROUNDEDRECTD48*%
%ADD49R,2.0000X4.1000*%
%ADD50R,0.7581X0.8121*%
%ADD51R,1.0000X0.6000*%
%ADD52R,3.0000X4.5000*%
%ADD53R,0.8000X0.4000*%
%ADD54R,0.4000X0.8000*%
%ADD55R,1.4500X1.4500*%
%ADD56R,0.7000X0.7000*%
G36*
X1439500Y501000D02*
X1425000D01*
Y509500D01*
X1431000Y515500D01*
X1439500D01*
Y501000D01*
D02*
G37*
D19*
X385000Y182500D02*
D03*
X1585000D02*
D03*
X1385000D02*
D03*
D20*
X1185000D02*
D03*
X985000D02*
D03*
X785000D02*
D03*
X585000D02*
D03*
D21*
X975000Y407000D02*
D03*
X980000D02*
D03*
X985000D02*
D03*
X990000D02*
D03*
X995000D02*
D03*
Y363000D02*
D03*
X990000D02*
D03*
X985000D02*
D03*
X980000D02*
D03*
X975000D02*
D03*
X810000Y392000D02*
D03*
X815000D02*
D03*
X820000D02*
D03*
X825000D02*
D03*
X830000D02*
D03*
Y348000D02*
D03*
X825000D02*
D03*
X820000D02*
D03*
X815000D02*
D03*
X810000D02*
D03*
D22*
X1222500Y347500D02*
D03*
X1235200Y317500D02*
D03*
X1209800D02*
D03*
D23*
X1342500Y317730D02*
D03*
Y332270D02*
D03*
X1538500Y377270D02*
D03*
Y362730D02*
D03*
X1368500Y497270D02*
D03*
Y482730D02*
D03*
X1308500Y497270D02*
D03*
Y482730D02*
D03*
X1240000Y379770D02*
D03*
Y365230D02*
D03*
X370000Y372270D02*
D03*
Y357730D02*
D03*
X1030000Y337730D02*
D03*
Y352270D02*
D03*
D24*
X1132500Y348250D02*
D03*
Y321750D02*
D03*
D25*
X1261364Y310950D02*
D03*
Y323650D02*
D03*
Y336350D02*
D03*
Y349050D02*
D03*
X1308636D02*
D03*
Y336350D02*
D03*
Y323650D02*
D03*
D26*
Y310950D02*
D03*
D27*
X812500Y475500D02*
D03*
Y509500D02*
D03*
X545000Y467000D02*
D03*
Y433000D02*
D03*
D28*
X311500Y400000D02*
D03*
X298500D02*
D03*
Y385000D02*
D03*
X311500D02*
D03*
D29*
X1060000Y351500D02*
D03*
Y338500D02*
D03*
X1080000Y341500D02*
D03*
Y328500D02*
D03*
D30*
X867500Y468500D02*
D03*
X927500D02*
D03*
X867500Y431500D02*
D03*
X927500D02*
D03*
D31*
X1713796Y362500D02*
D03*
X1676204D02*
D03*
X623796Y457500D02*
D03*
X586204D02*
D03*
X621296Y412500D02*
D03*
X583704D02*
D03*
D32*
X1638000Y355000D02*
D03*
X1657152D02*
D03*
X1647500Y376176D02*
D03*
D33*
X1512000Y400000D02*
D03*
Y340000D02*
D03*
X1475000Y400000D02*
D03*
Y340000D02*
D03*
X1437000Y400000D02*
D03*
Y340000D02*
D03*
X1400000Y400000D02*
D03*
Y340000D02*
D03*
D34*
X1358293Y442580D02*
D03*
X1343293D02*
D03*
X1423098Y321535D02*
D03*
X1408098D02*
D03*
X312500Y142500D02*
D03*
X297500D02*
D03*
X349000Y242500D02*
D03*
X334000D02*
D03*
X335000Y135000D02*
D03*
X350000D02*
D03*
X1105000Y417500D02*
D03*
X1120000D02*
D03*
X1534000Y242500D02*
D03*
X1549000D02*
D03*
X1334000D02*
D03*
X1349000D02*
D03*
X1134000D02*
D03*
X1149000D02*
D03*
X934000D02*
D03*
X949000D02*
D03*
X734000D02*
D03*
X749000D02*
D03*
X534000D02*
D03*
X549000D02*
D03*
X1550000Y135000D02*
D03*
X1535000D02*
D03*
X1350000D02*
D03*
X1335000D02*
D03*
X1150000D02*
D03*
X1135000D02*
D03*
X950000D02*
D03*
X935000D02*
D03*
X750000D02*
D03*
X735000D02*
D03*
X550000D02*
D03*
X535000D02*
D03*
X1352500Y365000D02*
D03*
X1367500D02*
D03*
X1352500Y350000D02*
D03*
X1367500D02*
D03*
X1497500Y142500D02*
D03*
X1512500D02*
D03*
X1297500D02*
D03*
X1312500D02*
D03*
X1097500D02*
D03*
X1112500D02*
D03*
X897500D02*
D03*
X912500D02*
D03*
X697500D02*
D03*
X712500D02*
D03*
X497500D02*
D03*
X512500D02*
D03*
X1273293Y427581D02*
D03*
X1258293D02*
D03*
D35*
X1338500Y476000D02*
D03*
Y504000D02*
D03*
X432500Y183500D02*
D03*
Y211500D02*
D03*
X1632500D02*
D03*
Y183500D02*
D03*
X1432500Y211500D02*
D03*
Y183500D02*
D03*
X1232500Y211500D02*
D03*
Y183500D02*
D03*
X1032500Y211500D02*
D03*
Y183500D02*
D03*
X832500Y211500D02*
D03*
Y183500D02*
D03*
X632500Y211500D02*
D03*
Y183500D02*
D03*
X340000Y374000D02*
D03*
Y346000D02*
D03*
X650000Y389000D02*
D03*
Y361000D02*
D03*
X655000Y464000D02*
D03*
Y436000D02*
D03*
Y496000D02*
D03*
Y524000D02*
D03*
D36*
X365500Y154746D02*
D03*
X1565500D02*
D03*
X1365500D02*
D03*
X1165500D02*
D03*
X965500D02*
D03*
X765500D02*
D03*
X565500D02*
D03*
D37*
X372000D02*
D03*
X378500D02*
D03*
X385000D02*
D03*
X391500D02*
D03*
X398000D02*
D03*
X404500D02*
D03*
Y210254D02*
D03*
X398000D02*
D03*
X391500D02*
D03*
X385000D02*
D03*
X378500D02*
D03*
X372000D02*
D03*
X365500D02*
D03*
X1565500D02*
D03*
X1572000D02*
D03*
X1578500D02*
D03*
X1585000D02*
D03*
X1591500D02*
D03*
X1598000D02*
D03*
X1604500D02*
D03*
Y154746D02*
D03*
X1598000D02*
D03*
X1591500D02*
D03*
X1585000D02*
D03*
X1578500D02*
D03*
X1572000D02*
D03*
X1365500Y210254D02*
D03*
X1372000D02*
D03*
X1378500D02*
D03*
X1385000D02*
D03*
X1391500D02*
D03*
X1398000D02*
D03*
X1404500D02*
D03*
Y154746D02*
D03*
X1398000D02*
D03*
X1391500D02*
D03*
X1385000D02*
D03*
X1378500D02*
D03*
X1372000D02*
D03*
X1165500Y210254D02*
D03*
X1172000D02*
D03*
X1178500D02*
D03*
X1185000D02*
D03*
X1191500D02*
D03*
X1198000D02*
D03*
X1204500D02*
D03*
Y154746D02*
D03*
X1198000D02*
D03*
X1191500D02*
D03*
X1185000D02*
D03*
X1178500D02*
D03*
X1172000D02*
D03*
X965500Y210254D02*
D03*
X972000D02*
D03*
X978500D02*
D03*
X985000D02*
D03*
X991500D02*
D03*
X998000D02*
D03*
X1004500D02*
D03*
Y154746D02*
D03*
X998000D02*
D03*
X991500D02*
D03*
X985000D02*
D03*
X978500D02*
D03*
X972000D02*
D03*
X765500Y210254D02*
D03*
X772000D02*
D03*
X778500D02*
D03*
X785000D02*
D03*
X791500D02*
D03*
X798000D02*
D03*
X804500D02*
D03*
Y154746D02*
D03*
X798000D02*
D03*
X791500D02*
D03*
X785000D02*
D03*
X778500D02*
D03*
X772000D02*
D03*
X565500Y210254D02*
D03*
X572000D02*
D03*
X578500D02*
D03*
X585000D02*
D03*
X591500D02*
D03*
X598000D02*
D03*
X604500D02*
D03*
Y154746D02*
D03*
X598000D02*
D03*
X591500D02*
D03*
X585000D02*
D03*
X578500D02*
D03*
X572000D02*
D03*
D38*
X365000Y244500D02*
D03*
Y260500D02*
D03*
X385000Y244500D02*
D03*
Y260500D02*
D03*
X1585000D02*
D03*
Y244500D02*
D03*
X1565000Y260500D02*
D03*
Y244500D02*
D03*
X1385000Y260500D02*
D03*
Y244500D02*
D03*
X1365000Y260500D02*
D03*
Y244500D02*
D03*
X1185000Y260500D02*
D03*
Y244500D02*
D03*
X1165000Y260500D02*
D03*
Y244500D02*
D03*
X985000Y260500D02*
D03*
Y244500D02*
D03*
X965000Y260500D02*
D03*
Y244500D02*
D03*
X785000Y260500D02*
D03*
Y244500D02*
D03*
X765000Y260500D02*
D03*
Y244500D02*
D03*
X585000Y260500D02*
D03*
Y244500D02*
D03*
X565000Y260500D02*
D03*
Y244500D02*
D03*
D39*
X405000Y253500D02*
D03*
Y238500D02*
D03*
X335000Y155000D02*
D03*
Y170000D02*
D03*
X1605000Y238500D02*
D03*
Y253500D02*
D03*
X1405000Y238500D02*
D03*
Y253500D02*
D03*
X1205000Y238500D02*
D03*
Y253500D02*
D03*
X1005000Y238500D02*
D03*
Y253500D02*
D03*
X805000Y238500D02*
D03*
Y253500D02*
D03*
X605000Y238500D02*
D03*
Y253500D02*
D03*
X1535000Y170000D02*
D03*
Y155000D02*
D03*
X1335000Y170000D02*
D03*
Y155000D02*
D03*
X1135000Y170000D02*
D03*
Y155000D02*
D03*
X935000Y170000D02*
D03*
Y155000D02*
D03*
X735000Y170000D02*
D03*
Y155000D02*
D03*
X535000Y170000D02*
D03*
Y155000D02*
D03*
X1490000Y290000D02*
D03*
Y305000D02*
D03*
X1157500Y410000D02*
D03*
Y425000D02*
D03*
X1160000Y507500D02*
D03*
Y522500D02*
D03*
X1290793Y380081D02*
D03*
Y395081D02*
D03*
D40*
X293824Y172500D02*
D03*
X315000Y182152D02*
D03*
Y163000D02*
D03*
X1515000D02*
D03*
Y182152D02*
D03*
X1493824Y172500D02*
D03*
X1315000Y163000D02*
D03*
Y182152D02*
D03*
X1293824Y172500D02*
D03*
X1115000Y163000D02*
D03*
Y182152D02*
D03*
X1093824Y172500D02*
D03*
X915000Y163000D02*
D03*
Y182152D02*
D03*
X893824Y172500D02*
D03*
X715000Y163000D02*
D03*
Y182152D02*
D03*
X693824Y172500D02*
D03*
X515000Y163000D02*
D03*
Y182152D02*
D03*
X493824Y172500D02*
D03*
X1275793Y378080D02*
D03*
Y397233D02*
D03*
X1254617Y387581D02*
D03*
X1270793Y463081D02*
D03*
Y482233D02*
D03*
X1249617Y472581D02*
D03*
D41*
X342270Y222500D02*
D03*
X327730D02*
D03*
X427730Y142500D02*
D03*
X442270D02*
D03*
X1072730Y417500D02*
D03*
X1087270D02*
D03*
X960230Y432500D02*
D03*
X974770D02*
D03*
X795000Y425000D02*
D03*
X809540D02*
D03*
X1527730Y222500D02*
D03*
X1542270D02*
D03*
X1327730D02*
D03*
X1342270D02*
D03*
X1127730D02*
D03*
X1142270D02*
D03*
X927730D02*
D03*
X942270D02*
D03*
X727730D02*
D03*
X742270D02*
D03*
X842270Y142500D02*
D03*
X827730D02*
D03*
X527730Y222500D02*
D03*
X542270D02*
D03*
X1642270Y142500D02*
D03*
X1627730D02*
D03*
X1442270D02*
D03*
X1427730D02*
D03*
X1242270D02*
D03*
X1227730D02*
D03*
X1042270D02*
D03*
X1027730D02*
D03*
X642270D02*
D03*
X627730D02*
D03*
X362270Y445000D02*
D03*
X347730D02*
D03*
X1340793Y407581D02*
D03*
X1355333D02*
D03*
D42*
X1066500Y487750D02*
D03*
Y481250D02*
D03*
Y474750D02*
D03*
Y468250D02*
D03*
Y461750D02*
D03*
Y455250D02*
D03*
Y448750D02*
D03*
Y442250D02*
D03*
X1123500Y487750D02*
D03*
Y481250D02*
D03*
Y474750D02*
D03*
Y468250D02*
D03*
Y461750D02*
D03*
Y455250D02*
D03*
Y448750D02*
D03*
Y442250D02*
D03*
D43*
X1690000Y408214D02*
D03*
Y416214D02*
D03*
Y464214D02*
D03*
Y472214D02*
D03*
D44*
Y422714D02*
D03*
Y427714D02*
D03*
Y432714D02*
D03*
Y437714D02*
D03*
Y442714D02*
D03*
Y447714D02*
D03*
Y452714D02*
D03*
Y457714D02*
D03*
D45*
X1608000Y436714D02*
D03*
X1617500D02*
D03*
X1627000D02*
D03*
Y413714D02*
D03*
X1617500D02*
D03*
X1608000D02*
D03*
D46*
X1657500Y445429D02*
D03*
Y455000D02*
D03*
Y400000D02*
D03*
Y390429D02*
D03*
D47*
X688250Y498000D02*
D03*
Y475000D02*
D03*
Y452000D02*
D03*
Y367000D02*
D03*
Y390000D02*
D03*
Y413000D02*
D03*
D48*
X751750Y475000D02*
D03*
Y390000D02*
D03*
D49*
X175000Y134000D02*
D03*
Y221000D02*
D03*
D50*
X1006270Y431509D02*
D03*
X993730D02*
D03*
X845000Y425000D02*
D03*
X832460D02*
D03*
D51*
X370000Y424500D02*
D03*
Y415000D02*
D03*
Y405500D02*
D03*
X342500D02*
D03*
Y415000D02*
D03*
Y424500D02*
D03*
D52*
X405000Y425000D02*
D03*
X505000D02*
D03*
D53*
X1393000Y528500D02*
D03*
Y520500D02*
D03*
Y512500D02*
D03*
Y504500D02*
D03*
Y496500D02*
D03*
Y488500D02*
D03*
Y480500D02*
D03*
Y472500D02*
D03*
Y464500D02*
D03*
Y456500D02*
D03*
Y448500D02*
D03*
X1511000D02*
D03*
Y456500D02*
D03*
Y464500D02*
D03*
Y472500D02*
D03*
Y480500D02*
D03*
Y488500D02*
D03*
Y496500D02*
D03*
Y504500D02*
D03*
Y512500D02*
D03*
Y520500D02*
D03*
Y528500D02*
D03*
D54*
X1404000Y439500D02*
D03*
X1412000D02*
D03*
X1420000D02*
D03*
X1428000D02*
D03*
X1436000D02*
D03*
X1444000D02*
D03*
X1452000D02*
D03*
X1460000D02*
D03*
X1468000D02*
D03*
X1476000D02*
D03*
X1484000D02*
D03*
X1492000D02*
D03*
X1500000D02*
D03*
Y537500D02*
D03*
X1492000D02*
D03*
X1484000D02*
D03*
X1476000D02*
D03*
X1468000D02*
D03*
X1460000D02*
D03*
X1452000D02*
D03*
X1444000D02*
D03*
X1436000D02*
D03*
X1428000D02*
D03*
X1420000D02*
D03*
X1412000D02*
D03*
X1404000D02*
D03*
D55*
X1452000Y488500D02*
D03*
X1471750Y508250D02*
D03*
X1452000D02*
D03*
X1432250Y488500D02*
D03*
Y468750D02*
D03*
X1452000D02*
D03*
X1471750D02*
D03*
Y488500D02*
D03*
D56*
X1392500Y538000D02*
D03*
Y439000D02*
D03*
X1511500D02*
D03*
Y538000D02*
D03*
M02*
