G04*
G04 #@! TF.GenerationSoftware,Altium Limited,Altium Designer,24.5.2 (23)*
G04*
G04 Layer_Physical_Order=1*
G04 Layer_Color=255*
%FSLAX44Y44*%
%MOMM*%
G71*
G04*
G04 #@! TF.SameCoordinates,89E67EBC-8B33-4F8A-85E1-C4BFE03A709E*
G04*
G04*
G04 #@! TF.FilePolarity,Positive*
G04*
G01*
G75*
%ADD10C,0.5000*%
%ADD12C,0.2540*%
%ADD15C,0.2000*%
G04:AMPARAMS|DCode=21|XSize=1.45mm|YSize=0.3mm|CornerRadius=0.0495mm|HoleSize=0mm|Usage=FLASHONLY|Rotation=90.000|XOffset=0mm|YOffset=0mm|HoleType=Round|Shape=RoundedRectangle|*
%AMROUNDEDRECTD21*
21,1,1.4500,0.2010,0,0,90.0*
21,1,1.3510,0.3000,0,0,90.0*
1,1,0.0990,0.1005,0.6755*
1,1,0.0990,0.1005,-0.6755*
1,1,0.0990,-0.1005,-0.6755*
1,1,0.0990,-0.1005,0.6755*
%
%ADD21ROUNDEDRECTD21*%
%ADD22R,0.6500X3.0000*%
%ADD23R,0.9121X0.9581*%
%ADD24R,2.6000X1.0500*%
G04:AMPARAMS|DCode=25|XSize=2.1692mm|YSize=0.5821mm|CornerRadius=0.2911mm|HoleSize=0mm|Usage=FLASHONLY|Rotation=180.000|XOffset=0mm|YOffset=0mm|HoleType=Round|Shape=RoundedRectangle|*
%AMROUNDEDRECTD25*
21,1,2.1692,0.0000,0,0,180.0*
21,1,1.5870,0.5821,0,0,180.0*
1,1,0.5821,-0.7935,0.0000*
1,1,0.5821,0.7935,0.0000*
1,1,0.5821,0.7935,0.0000*
1,1,0.5821,-0.7935,0.0000*
%
%ADD25ROUNDEDRECTD25*%
%ADD26R,2.1692X0.5821*%
%ADD27R,2.5000X1.2500*%
%ADD28R,0.6000X0.8000*%
%ADD29R,0.8000X0.6000*%
%ADD30R,1.0000X0.7000*%
%ADD31R,1.5240X1.6764*%
%ADD32R,0.9652X1.0668*%
%ADD33R,0.7000X1.0000*%
%ADD34R,0.8000X1.0000*%
%ADD35R,2.7000X1.3000*%
%ADD36R,0.3408X1.3554*%
G04:AMPARAMS|DCode=37|XSize=1.3554mm|YSize=0.3408mm|CornerRadius=0.1704mm|HoleSize=0mm|Usage=FLASHONLY|Rotation=90.000|XOffset=0mm|YOffset=0mm|HoleType=Round|Shape=RoundedRectangle|*
%AMROUNDEDRECTD37*
21,1,1.3554,0.0000,0,0,90.0*
21,1,1.0147,0.3408,0,0,90.0*
1,1,0.3408,0.0000,0.5073*
1,1,0.3408,0.0000,-0.5073*
1,1,0.3408,0.0000,-0.5073*
1,1,0.3408,0.0000,0.5073*
%
%ADD37ROUNDEDRECTD37*%
%ADD38R,1.2500X0.8000*%
%ADD39R,1.0000X0.8000*%
%ADD40R,1.0668X0.9652*%
%ADD41R,0.9581X0.9121*%
G04:AMPARAMS|DCode=42|XSize=0.4mm|YSize=1.2mm|CornerRadius=0.05mm|HoleSize=0mm|Usage=FLASHONLY|Rotation=270.000|XOffset=0mm|YOffset=0mm|HoleType=Round|Shape=RoundedRectangle|*
%AMROUNDEDRECTD42*
21,1,0.4000,1.1000,0,0,270.0*
21,1,0.3000,1.2000,0,0,270.0*
1,1,0.1000,-0.5500,-0.1500*
1,1,0.1000,-0.5500,0.1500*
1,1,0.1000,0.5500,0.1500*
1,1,0.1000,0.5500,-0.1500*
%
%ADD42ROUNDEDRECTD42*%
%ADD43R,1.1400X0.6000*%
%ADD44R,1.1400X0.3000*%
%ADD45R,0.6000X1.2000*%
%ADD46R,0.6725X0.7154*%
G04:AMPARAMS|DCode=47|XSize=1mm|YSize=2.05mm|CornerRadius=0.05mm|HoleSize=0mm|Usage=FLASHONLY|Rotation=90.000|XOffset=0mm|YOffset=0mm|HoleType=Round|Shape=RoundedRectangle|*
%AMROUNDEDRECTD47*
21,1,1.0000,1.9500,0,0,90.0*
21,1,0.9000,2.0500,0,0,90.0*
1,1,0.1000,0.9750,0.4500*
1,1,0.1000,0.9750,-0.4500*
1,1,0.1000,-0.9750,-0.4500*
1,1,0.1000,-0.9750,0.4500*
%
%ADD47ROUNDEDRECTD47*%
G04:AMPARAMS|DCode=48|XSize=3.25mm|YSize=2.05mm|CornerRadius=0.0513mm|HoleSize=0mm|Usage=FLASHONLY|Rotation=90.000|XOffset=0mm|YOffset=0mm|HoleType=Round|Shape=RoundedRectangle|*
%AMROUNDEDRECTD48*
21,1,3.2500,1.9475,0,0,90.0*
21,1,3.1475,2.0500,0,0,90.0*
1,1,0.1025,0.9738,1.5738*
1,1,0.1025,0.9738,-1.5738*
1,1,0.1025,-0.9738,-1.5738*
1,1,0.1025,-0.9738,1.5738*
%
%ADD48ROUNDEDRECTD48*%
%ADD49R,2.0000X4.1000*%
%ADD50R,0.7581X0.8121*%
%ADD51R,1.0000X0.6000*%
%ADD52R,3.0000X4.5000*%
%ADD53R,0.8000X0.4000*%
%ADD54R,0.4000X0.8000*%
%ADD55R,1.4500X1.4500*%
%ADD56R,0.7000X0.7000*%
%ADD64R,2.3100X2.4600*%
%ADD79C,3.0000*%
%ADD80C,1.5700*%
%ADD81R,1.5700X1.5700*%
%ADD99R,0.6000X0.6000*%
%ADD100C,0.6350*%
%ADD101C,0.5080*%
%ADD102C,1.2700*%
%ADD103C,1.5240*%
%ADD104R,1.5240X1.5240*%
G04:AMPARAMS|DCode=105|XSize=2mm|YSize=2mm|CornerRadius=0mm|HoleSize=0mm|Usage=FLASHONLY|Rotation=0.000|XOffset=0mm|YOffset=0mm|HoleType=Round|Shape=Octagon|*
%AMOCTAGOND105*
4,1,8,1.0000,-0.5000,1.0000,0.5000,0.5000,1.0000,-0.5000,1.0000,-1.0000,0.5000,-1.0000,-0.5000,-0.5000,-1.0000,0.5000,-1.0000,1.0000,-0.5000,0.0*
%
%ADD105OCTAGOND105*%

%ADD106C,1.2192*%
%ADD107R,4.0000X1.5000*%
%ADD108R,3.5000X1.5000*%
%ADD109R,1.5000X3.5000*%
%ADD110O,2.1000X1.0500*%
%ADD111O,1.8000X0.9000*%
%ADD112C,0.6500*%
%ADD113C,2.5000*%
G04:AMPARAMS|DCode=114|XSize=1.2mm|YSize=3.2mm|CornerRadius=0mm|HoleSize=0mm|Usage=FLASHONLY|Rotation=90.000|XOffset=0mm|YOffset=0mm|HoleType=Round|Shape=Octagon|*
%AMOCTAGOND114*
4,1,8,-1.6000,-0.3000,-1.6000,0.3000,-1.3000,0.6000,1.3000,0.6000,1.6000,0.3000,1.6000,-0.3000,1.3000,-0.6000,-1.3000,-0.6000,-1.6000,-0.3000,0.0*
%
%ADD114OCTAGOND114*%

%ADD115O,1.2000X3.0000*%
%ADD116O,3.0000X1.2000*%
%ADD117R,1.5000X4.0000*%
%ADD118C,0.5000*%
G36*
X1382500Y516889D02*
X1381744Y516739D01*
X1380256Y515744D01*
X1368572Y504061D01*
X1361939D01*
Y501858D01*
X1354000D01*
Y512500D01*
X1334911D01*
X1326455Y520955D01*
X1324711Y522294D01*
X1322680Y523135D01*
X1320500Y523422D01*
X1298489D01*
X1295955Y525955D01*
X1294211Y527294D01*
X1292180Y528135D01*
X1290000Y528422D01*
X1260000D01*
X1257820Y528135D01*
X1255789Y527294D01*
X1254045Y525955D01*
X1252706Y524211D01*
X1251865Y522180D01*
X1251578Y520000D01*
X1251865Y517820D01*
X1252706Y515789D01*
X1254045Y514045D01*
X1255789Y512706D01*
X1257820Y511865D01*
X1260000Y511578D01*
X1286512D01*
X1289045Y509045D01*
X1290789Y507706D01*
X1292820Y506865D01*
X1295000Y506578D01*
X1317012D01*
X1321812Y501777D01*
X1321326Y500604D01*
X1315061D01*
Y504061D01*
X1301939D01*
Y491107D01*
X1301399Y490061D01*
X1301399Y489433D01*
Y486730D01*
X1308500D01*
Y482730D01*
D01*
Y486730D01*
X1315601D01*
Y490061D01*
X1315061Y491107D01*
Y493936D01*
X1324770D01*
X1326046Y494190D01*
X1327128Y494912D01*
X1327715Y495500D01*
X1348001D01*
X1348986Y494026D01*
X1350474Y493031D01*
X1352230Y492682D01*
X1361041D01*
X1361939Y491784D01*
Y491107D01*
X1361399Y490061D01*
X1361399Y489433D01*
Y486730D01*
X1368500D01*
Y482730D01*
X1372500D01*
Y475399D01*
X1373888D01*
X1374414Y474129D01*
X1355936Y455651D01*
X1355213Y454569D01*
X1354959Y453293D01*
Y449580D01*
X1352293D01*
Y435581D01*
X1361706D01*
X1362192Y434407D01*
X1361119Y433334D01*
X1341713D01*
X1340437Y433080D01*
X1339355Y432357D01*
X1329498Y422500D01*
X1279293D01*
Y434580D01*
X1276627D01*
Y456255D01*
X1278127D01*
Y469907D01*
X1263459D01*
Y456255D01*
X1269959D01*
Y434580D01*
X1267293D01*
Y422500D01*
X1264833D01*
Y423581D01*
X1258293D01*
X1251753D01*
Y422500D01*
X1242500D01*
Y465755D01*
X1256951D01*
Y479407D01*
X1246998D01*
X1242500Y483905D01*
Y540000D01*
X1382500D01*
Y516889D01*
D02*
G37*
G36*
X1439500Y501000D02*
X1425000D01*
Y509500D01*
X1431000Y515500D01*
X1439500D01*
Y501000D01*
D02*
G37*
G36*
X1060000Y514514D02*
X866616D01*
X865340Y514260D01*
X864258Y513537D01*
X861630Y510910D01*
X860908Y509828D01*
X860654Y508552D01*
Y500000D01*
X828516D01*
X827540Y500710D01*
X827540Y501270D01*
Y505500D01*
X812500D01*
X797460D01*
Y500710D01*
X813914D01*
X814440Y499440D01*
X798750Y483750D01*
X798000D01*
Y483000D01*
X770000Y455000D01*
Y440000D01*
X760000Y430000D01*
X670500D01*
Y443930D01*
X671532Y445075D01*
X672650Y444928D01*
X683750D01*
X684039Y444706D01*
X686070Y443865D01*
X688250Y443578D01*
X690430Y443865D01*
X692461Y444706D01*
X692780Y444951D01*
X698000D01*
X698975Y445145D01*
X699802Y445698D01*
X700355Y446525D01*
X700549Y447500D01*
Y456500D01*
X700355Y457475D01*
X699802Y458302D01*
X698975Y458855D01*
X698000Y459049D01*
X693112D01*
X692855Y459305D01*
X691111Y460644D01*
X689080Y461485D01*
X686900Y461772D01*
X676139D01*
X670500Y467411D01*
Y472500D01*
X639500D01*
Y472272D01*
X630000D01*
Y589752D01*
X1060000D01*
Y514514D01*
D02*
G37*
G36*
X822713Y499350D02*
X822830Y498759D01*
X823053Y498425D01*
X823192Y498049D01*
X823600Y497606D01*
X823935Y497105D01*
X824269Y496882D01*
X824541Y496588D01*
X825517Y495878D01*
X826064Y495625D01*
X826565Y495290D01*
X826958Y495212D01*
X827322Y495044D01*
X827925Y495020D01*
X828516Y494902D01*
X860000D01*
Y458422D01*
X809540D01*
X808520Y458288D01*
X807500Y458422D01*
X795000D01*
X792820Y458135D01*
X790789Y457294D01*
X789045Y455955D01*
X776271Y443182D01*
X775098Y443668D01*
Y452888D01*
X796287Y474077D01*
X797460Y473591D01*
Y466710D01*
X808500D01*
Y475500D01*
Y484290D01*
X808159D01*
X807673Y485463D01*
X818045Y495835D01*
X818045Y495835D01*
X819150Y497489D01*
X819538Y499440D01*
X822680D01*
X822713Y499350D01*
D02*
G37*
G36*
X624902Y472272D02*
X624998Y471791D01*
X623435Y471144D01*
X621691Y469805D01*
X620352Y468061D01*
X620278Y467882D01*
X614176D01*
Y456777D01*
X614104Y456230D01*
Y455000D01*
X595824D01*
Y467882D01*
X576584D01*
Y466636D01*
X575314Y466296D01*
X575201Y466491D01*
X573991Y467701D01*
X572509Y468557D01*
X570856Y469000D01*
X569144D01*
X567491Y468557D01*
X566009Y467701D01*
X564799Y466491D01*
X563943Y465009D01*
X563500Y463356D01*
Y461644D01*
X563943Y459991D01*
X564799Y458509D01*
X565075Y458232D01*
X565125Y457981D01*
X566269Y456269D01*
X566365Y456173D01*
X565879Y455000D01*
X525350D01*
X517129Y463221D01*
Y492500D01*
X517129Y492500D01*
X516777Y494271D01*
X515773Y495773D01*
X514000Y497546D01*
Y498356D01*
X513557Y500009D01*
X512701Y501491D01*
X511491Y502701D01*
X510009Y503557D01*
X508356Y504000D01*
X506644D01*
X504991Y503557D01*
X503509Y502701D01*
X502299Y501491D01*
X501443Y500009D01*
X501000Y498356D01*
Y496644D01*
X501443Y494991D01*
X502299Y493509D01*
X503509Y492299D01*
X504991Y491443D01*
X506644Y491000D01*
X507454D01*
X507871Y490583D01*
Y471391D01*
X506698Y470905D01*
X485246Y492357D01*
X484164Y493080D01*
X482888Y493334D01*
X315000D01*
X313724Y493080D01*
X312642Y492357D01*
X277642Y457357D01*
X276920Y456276D01*
X276666Y455000D01*
Y385000D01*
X276920Y383724D01*
X277642Y382643D01*
X284912Y375372D01*
X285994Y374650D01*
X287270Y374396D01*
X302854D01*
X304130Y374650D01*
X304843Y375126D01*
X305103D01*
X306058Y375316D01*
X306764Y374226D01*
X275989Y343451D01*
X195578D01*
X193559Y343050D01*
X191847Y341906D01*
X191218Y341276D01*
X142500D01*
Y341500D01*
X137000Y347000D01*
X112625D01*
X110730Y347785D01*
X108550Y348072D01*
X103428D01*
X100500Y351000D01*
X69500D01*
X64000Y345500D01*
Y334500D01*
X69500Y329000D01*
X100500D01*
X101250Y329750D01*
X106000Y325000D01*
X137000D01*
X142500Y330500D01*
Y330724D01*
X179735D01*
X180261Y329454D01*
X179799Y328991D01*
X178943Y327509D01*
X178500Y325856D01*
Y324144D01*
X178943Y322491D01*
X179799Y321009D01*
X181009Y319799D01*
X182491Y318943D01*
X184144Y318500D01*
X185856D01*
X187509Y318943D01*
X188991Y319799D01*
X190201Y321009D01*
X191057Y322491D01*
X191500Y324144D01*
Y325856D01*
X191057Y327509D01*
X190201Y328991D01*
X189739Y329454D01*
X190265Y330724D01*
X192889D01*
X193145Y330550D01*
X193708Y329813D01*
X193809Y329509D01*
X193500Y328356D01*
Y326644D01*
X193943Y324991D01*
X194799Y323509D01*
X196009Y322299D01*
X197491Y321443D01*
X199144Y321000D01*
X200856D01*
X202509Y321443D01*
X203991Y322299D01*
X205201Y323509D01*
X206057Y324991D01*
X206500Y326644D01*
Y328356D01*
X206057Y330009D01*
X205201Y331491D01*
X205064Y331629D01*
X205590Y332899D01*
X278175D01*
X280194Y333300D01*
X281906Y334444D01*
X316185Y368724D01*
X324000D01*
Y365000D01*
X356000D01*
Y367859D01*
X362939D01*
Y365061D01*
X362899D01*
Y361730D01*
X370000D01*
X377101D01*
Y365061D01*
X377061D01*
Y379561D01*
X375276D01*
Y400000D01*
X377500D01*
Y409500D01*
Y419224D01*
X385000D01*
Y307874D01*
X364540D01*
X363264Y307620D01*
X362183Y306898D01*
X332643Y277358D01*
X331920Y276276D01*
X331666Y275000D01*
Y249500D01*
X328000D01*
Y235500D01*
X336285D01*
X338936Y232849D01*
Y229061D01*
X336107D01*
X335061Y229601D01*
X334433Y229601D01*
X331730D01*
Y222500D01*
Y215399D01*
X335061D01*
X336107Y215939D01*
X336331D01*
X349061D01*
Y229061D01*
X345604D01*
Y234230D01*
X345547Y234518D01*
X346352Y235500D01*
X355000D01*
Y239166D01*
X356750D01*
Y238500D01*
X362166D01*
Y217004D01*
X362011Y216772D01*
X361724Y215327D01*
Y205180D01*
X362011Y203735D01*
X362830Y202510D01*
X364055Y201692D01*
X365500Y201404D01*
X366945Y201692D01*
X368155Y202500D01*
X369345D01*
X369584Y202340D01*
D01*
X370555Y201692D01*
X372000Y201404D01*
X373445Y201692D01*
X374131Y202150D01*
X374416Y202340D01*
D01*
X374655Y202500D01*
X375845D01*
X376508Y202057D01*
X377055Y201692D01*
X378500Y201404D01*
X379945Y201692D01*
X381155Y202500D01*
X382345D01*
X382584Y202340D01*
D01*
X383555Y201692D01*
X385000Y201404D01*
X386445Y201692D01*
X387655Y202500D01*
D01*
X387670Y202510D01*
X387690Y202500D01*
X388235D01*
X388469Y202150D01*
X388806Y201924D01*
D01*
X389860Y201221D01*
X391500Y200894D01*
X393140Y201221D01*
X393778Y201647D01*
X394750Y202057D01*
X395722Y201647D01*
X396360Y201221D01*
X398000Y200894D01*
X399640Y201221D01*
X401031Y202150D01*
X401469D01*
X402860Y201221D01*
X404500Y200894D01*
X406140Y201221D01*
X407531Y202150D01*
X407765Y202500D01*
X407890Y202687D01*
X408827Y202500D01*
X416460D01*
X416492Y202506D01*
X416500Y202500D01*
X448500D01*
X448508Y202506D01*
X448540Y202500D01*
X455000D01*
X456951Y202888D01*
X458605Y203993D01*
X459710Y205647D01*
X460098Y207598D01*
Y262500D01*
X511666D01*
Y243988D01*
X511920Y242712D01*
X512643Y241630D01*
X514130Y240142D01*
X515212Y239420D01*
X516488Y239166D01*
X528000D01*
Y235500D01*
X536285D01*
X538936Y232849D01*
Y229061D01*
X536107D01*
X535061Y229601D01*
X534433Y229601D01*
X531730D01*
Y222500D01*
X527730D01*
D01*
X531730D01*
Y215399D01*
X535061D01*
X536107Y215939D01*
X536331D01*
X549061D01*
Y229061D01*
X545604D01*
Y234230D01*
X545547Y234518D01*
X546352Y235500D01*
X555000D01*
Y239166D01*
X556750D01*
Y238500D01*
X562166D01*
Y217004D01*
X562011Y216772D01*
X561724Y215327D01*
Y205180D01*
X562011Y203735D01*
X562830Y202510D01*
X564055Y201692D01*
X565500Y201404D01*
X566945Y201692D01*
X568155Y202500D01*
X568170Y202510D01*
X569330D01*
X570555Y201692D01*
X572000Y201404D01*
X573445Y201692D01*
X574655Y202500D01*
X574670Y202510D01*
X575830D01*
X577055Y201692D01*
X578500Y201404D01*
X579945Y201692D01*
X581155Y202500D01*
X581170Y202510D01*
X582330D01*
X583555Y201692D01*
X585000Y201404D01*
X586445Y201692D01*
X587655Y202500D01*
D01*
X587670Y202510D01*
X587690Y202500D01*
X588235D01*
X588469Y202150D01*
X589222Y201647D01*
X589860Y201221D01*
X591500Y200894D01*
X593140Y201221D01*
X593778Y201647D01*
D01*
X594436Y201924D01*
X594750Y202057D01*
X595722Y201647D01*
D01*
X596360Y201221D01*
X598000Y200894D01*
X599640Y201221D01*
X601031Y202150D01*
X601469D01*
X602860Y201221D01*
X604500Y200894D01*
X606140Y201221D01*
X607531Y202150D01*
D01*
X607889Y202687D01*
X608827Y202500D01*
X616460D01*
X616492Y202506D01*
X616500Y202500D01*
X648500D01*
X648508Y202506D01*
X648540Y202500D01*
X655000D01*
X656951Y202888D01*
X658605Y203993D01*
X659710Y205647D01*
X660098Y207598D01*
Y262500D01*
X731666D01*
Y249500D01*
X728000D01*
Y235500D01*
X736285D01*
X738936Y232849D01*
Y229061D01*
X736107D01*
X735061Y229601D01*
X734433Y229601D01*
X731730D01*
Y222500D01*
Y215399D01*
X735061D01*
X736107Y215939D01*
X736331D01*
X749061D01*
Y229061D01*
X745604D01*
Y234230D01*
X745547Y234518D01*
X746352Y235500D01*
X755000D01*
Y239166D01*
X756750D01*
Y238500D01*
X762166D01*
Y217004D01*
X762011Y216772D01*
X761724Y215327D01*
Y205180D01*
X762011Y203735D01*
X762830Y202510D01*
X764055Y201692D01*
X765500Y201404D01*
X766945Y201692D01*
X768155Y202500D01*
X768170Y202510D01*
X769330D01*
X770555Y201692D01*
X772000Y201404D01*
X773445Y201692D01*
X774655Y202500D01*
X774670Y202510D01*
X775830D01*
X777055Y201692D01*
X778500Y201404D01*
X779945Y201692D01*
X781155Y202500D01*
X781170Y202510D01*
X782330D01*
X783555Y201692D01*
X785000Y201404D01*
X786445Y201692D01*
X787655Y202500D01*
D01*
X787670Y202510D01*
X787690Y202500D01*
X788235D01*
X788469Y202150D01*
X789222Y201647D01*
X789860Y201221D01*
X791500Y200894D01*
X793140Y201221D01*
X793778Y201647D01*
D01*
X794750Y202057D01*
X795722Y201647D01*
D01*
X796360Y201221D01*
X798000Y200894D01*
X799640Y201221D01*
X801031Y202150D01*
X801469D01*
X802860Y201221D01*
X804500Y200894D01*
X806140Y201221D01*
X807531Y202150D01*
D01*
X807889Y202687D01*
X808827Y202500D01*
X816460D01*
X816492Y202506D01*
X816500Y202500D01*
X848500D01*
X848508Y202506D01*
X848540Y202500D01*
X855000D01*
X856951Y202888D01*
X858605Y203993D01*
X859710Y205647D01*
X860098Y207598D01*
Y262500D01*
X884294D01*
X889151Y257642D01*
X890233Y256920D01*
X891509Y256666D01*
X891509Y256666D01*
X916119D01*
X928000Y244785D01*
Y235500D01*
X936285D01*
X938936Y232849D01*
Y229061D01*
X936107D01*
X935061Y229601D01*
X934433Y229601D01*
X931730D01*
Y222500D01*
Y215399D01*
X935061D01*
X936107Y215939D01*
X936331D01*
X949061D01*
Y229061D01*
X945604D01*
Y234230D01*
X945547Y234518D01*
X946352Y235500D01*
X955000D01*
Y239166D01*
X956750D01*
Y238500D01*
X962166D01*
Y217004D01*
X962011Y216772D01*
X961724Y215327D01*
Y205180D01*
X962011Y203735D01*
X962830Y202510D01*
X963706Y201924D01*
X964055Y201692D01*
X965500Y201404D01*
X966945Y201692D01*
X968170Y202510D01*
X969330D01*
X970206Y201924D01*
X970555Y201692D01*
X972000Y201404D01*
X973445Y201692D01*
X974670Y202510D01*
X975830D01*
X976706Y201924D01*
X977055Y201692D01*
X978500Y201404D01*
X979945Y201692D01*
X981170Y202510D01*
X982330D01*
X983206Y201924D01*
X983555Y201692D01*
X985000Y201404D01*
X986445Y201692D01*
X987655Y202500D01*
D01*
X987670Y202510D01*
X987690Y202500D01*
X988235D01*
X988469Y202150D01*
X989860Y201221D01*
X991500Y200894D01*
X993140Y201221D01*
X993415Y201404D01*
X993778Y201647D01*
D01*
X994750Y202057D01*
X995722Y201647D01*
X995722D01*
X996360Y201221D01*
X998000Y200894D01*
X999640Y201221D01*
X1001031Y202150D01*
X1001469D01*
X1002860Y201221D01*
X1004500Y200894D01*
X1006140Y201221D01*
X1007531Y202150D01*
X1007889Y202687D01*
X1008827Y202500D01*
X1016460D01*
X1016492Y202506D01*
X1016500Y202500D01*
X1048500D01*
X1048508Y202506D01*
X1048540Y202500D01*
X1055000D01*
X1056951Y202888D01*
X1058605Y203993D01*
X1059710Y205647D01*
X1060098Y207598D01*
Y262500D01*
X1127785D01*
X1131666Y258619D01*
Y249500D01*
X1128000D01*
Y235500D01*
X1136285D01*
X1138936Y232849D01*
Y229061D01*
X1136107D01*
X1135061Y229601D01*
X1134433Y229601D01*
X1131730D01*
Y222500D01*
Y215399D01*
X1135061D01*
X1136107Y215939D01*
X1136331D01*
X1149061D01*
Y229061D01*
X1145604D01*
Y234230D01*
X1145547Y234518D01*
X1146352Y235500D01*
X1155000D01*
Y239166D01*
X1156750D01*
Y238500D01*
X1162166D01*
Y217004D01*
X1162011Y216772D01*
X1161724Y215327D01*
Y205180D01*
X1162011Y203735D01*
X1162830Y202510D01*
X1163706Y201924D01*
X1164055Y201692D01*
X1165500Y201404D01*
X1166945Y201692D01*
X1168170Y202510D01*
X1169330D01*
X1170206Y201924D01*
X1170555Y201692D01*
X1172000Y201404D01*
X1173445Y201692D01*
X1174670Y202510D01*
X1175830D01*
X1176706Y201924D01*
X1177055Y201692D01*
X1178500Y201404D01*
X1179945Y201692D01*
X1181170Y202510D01*
X1182330D01*
X1183206Y201924D01*
X1183555Y201692D01*
X1185000Y201404D01*
X1186445Y201692D01*
X1187655Y202500D01*
D01*
X1187670Y202510D01*
X1187690Y202500D01*
X1188235D01*
X1188469Y202150D01*
X1189860Y201221D01*
X1191500Y200894D01*
X1193140Y201221D01*
X1193415Y201404D01*
X1193778Y201647D01*
D01*
X1194750Y202057D01*
X1195722Y201647D01*
X1195722D01*
X1196360Y201221D01*
X1198000Y200894D01*
X1199640Y201221D01*
X1200278Y201647D01*
X1201031Y202150D01*
X1201469D01*
X1202860Y201221D01*
X1204500Y200894D01*
X1206140Y201221D01*
X1207531Y202150D01*
X1207889Y202687D01*
X1208827Y202500D01*
X1216460D01*
X1216492Y202506D01*
X1216500Y202500D01*
X1248500D01*
X1248508Y202506D01*
X1248540Y202500D01*
X1255000D01*
X1256951Y202888D01*
X1258605Y203993D01*
X1259710Y205647D01*
X1260098Y207598D01*
Y262500D01*
X1311285D01*
X1328000Y245785D01*
Y235500D01*
X1336285D01*
X1338936Y232849D01*
Y229061D01*
X1336107D01*
X1335061Y229601D01*
X1334433Y229601D01*
X1331730D01*
Y222500D01*
Y215399D01*
X1335061D01*
X1336107Y215939D01*
X1336331D01*
X1349061D01*
Y229061D01*
X1345604D01*
Y234230D01*
X1345547Y234518D01*
X1346352Y235500D01*
X1355000D01*
Y239166D01*
X1356750D01*
Y238500D01*
X1362166D01*
Y217004D01*
X1362011Y216772D01*
X1361724Y215327D01*
Y205180D01*
X1362011Y203735D01*
X1362830Y202510D01*
X1362845Y202500D01*
X1364055Y201692D01*
X1365500Y201404D01*
X1366945Y201692D01*
X1368170Y202510D01*
X1369330D01*
X1370008Y202057D01*
X1370555Y201692D01*
X1372000Y201404D01*
X1373445Y201692D01*
X1374655Y202500D01*
X1375845D01*
X1377055Y201692D01*
X1378500Y201404D01*
X1379945Y201692D01*
X1381170Y202510D01*
X1382330D01*
X1383008Y202057D01*
X1383555Y201692D01*
X1385000Y201404D01*
X1386445Y201692D01*
X1387655Y202500D01*
D01*
X1387670Y202510D01*
X1387690Y202500D01*
X1388235D01*
X1388469Y202150D01*
X1389860Y201221D01*
X1391500Y200894D01*
X1393140Y201221D01*
X1393778Y201647D01*
X1394750Y202057D01*
D01*
X1395722Y201647D01*
X1396360Y201221D01*
X1398000Y200894D01*
X1399640Y201221D01*
X1401031Y202150D01*
X1401469D01*
X1402860Y201221D01*
X1404500Y200894D01*
X1406140Y201221D01*
X1407531Y202150D01*
X1407725Y202440D01*
X1407765Y202500D01*
X1407889Y202687D01*
X1408827Y202500D01*
X1416460D01*
X1416492Y202506D01*
X1416500Y202500D01*
X1448500D01*
X1448508Y202506D01*
X1448540Y202500D01*
X1455000D01*
X1456951Y202888D01*
X1458605Y203993D01*
X1459710Y205647D01*
X1460098Y207598D01*
Y262500D01*
X1472785D01*
X1492413Y242873D01*
X1493494Y242150D01*
X1494770Y241896D01*
X1528000D01*
Y235500D01*
X1536285D01*
X1538936Y232849D01*
Y229061D01*
X1536107D01*
X1535061Y229601D01*
X1534433Y229601D01*
X1531730D01*
Y222500D01*
Y215399D01*
X1535061D01*
X1536107Y215939D01*
X1536331D01*
X1549061D01*
Y229061D01*
X1545604D01*
Y234230D01*
X1545547Y234518D01*
X1546352Y235500D01*
X1555000D01*
Y239166D01*
X1556750D01*
Y238500D01*
X1562166D01*
Y217004D01*
X1562011Y216772D01*
X1561724Y215327D01*
Y205180D01*
X1562011Y203735D01*
X1562830Y202510D01*
X1562845Y202500D01*
X1564055Y201692D01*
X1565500Y201404D01*
X1566945Y201692D01*
X1568170Y202510D01*
X1569330D01*
X1570008Y202057D01*
X1570555Y201692D01*
X1572000Y201404D01*
X1573445Y201692D01*
X1574655Y202500D01*
X1575845D01*
X1577055Y201692D01*
X1578500Y201404D01*
X1579945Y201692D01*
X1581170Y202510D01*
X1582330D01*
X1583008Y202057D01*
X1583555Y201692D01*
X1585000Y201404D01*
X1586445Y201692D01*
X1587655Y202500D01*
D01*
X1587670Y202510D01*
X1587690Y202500D01*
X1588235D01*
X1588469Y202150D01*
X1589860Y201221D01*
X1591500Y200894D01*
X1593140Y201221D01*
X1593778Y201647D01*
D01*
X1593778D01*
D01*
X1593884Y201692D01*
X1594436Y201924D01*
D01*
D01*
X1594750Y202057D01*
D01*
D01*
X1595064Y201924D01*
X1595722Y201647D01*
X1596360Y201221D01*
X1598000Y200894D01*
X1599640Y201221D01*
X1601031Y202150D01*
X1601469D01*
X1602860Y201221D01*
X1604500Y200894D01*
X1606140Y201221D01*
X1607531Y202150D01*
X1607725Y202440D01*
X1607765Y202500D01*
X1607889Y202687D01*
X1608827Y202500D01*
X1616460D01*
X1616492Y202506D01*
X1616500Y202500D01*
X1648500D01*
X1648508Y202506D01*
X1648540Y202500D01*
X1655000D01*
X1656951Y202888D01*
X1658605Y203993D01*
X1659710Y205647D01*
X1660098Y207598D01*
Y280000D01*
X1675371D01*
Y259000D01*
X1674000D01*
X1668000Y253000D01*
Y241000D01*
X1674000Y235000D01*
X1686000D01*
X1692000Y241000D01*
Y253000D01*
X1686000Y259000D01*
X1684629D01*
Y280000D01*
X1739753D01*
Y30000D01*
X1739752Y28705D01*
X1739415Y26138D01*
X1738744Y23637D01*
X1737753Y21245D01*
X1736459Y19002D01*
X1734883Y16948D01*
X1733052Y15117D01*
X1730997Y13541D01*
X1728755Y12247D01*
X1726363Y11256D01*
X1723862Y10586D01*
X1721295Y10248D01*
X1652500D01*
Y22500D01*
X1640248Y10248D01*
X28705D01*
X26138Y10586D01*
X23637Y11256D01*
X21245Y12247D01*
X19003Y13541D01*
X16948Y15117D01*
X15117Y16948D01*
X13541Y19003D01*
X12247Y21245D01*
X11256Y23637D01*
X10586Y26138D01*
X10248Y28705D01*
Y30000D01*
Y107254D01*
X11518Y107925D01*
X13748Y106435D01*
X16841Y105153D01*
X20126Y104500D01*
X23474D01*
X26759Y105153D01*
X29852Y106435D01*
X32637Y108295D01*
X35005Y110663D01*
X36865Y113448D01*
X38147Y116541D01*
X38800Y119826D01*
Y123174D01*
X38147Y126459D01*
X36865Y129552D01*
X35005Y132337D01*
X32637Y134705D01*
X29852Y136565D01*
X26759Y137847D01*
X23474Y138500D01*
X20126D01*
X16841Y137847D01*
X13748Y136565D01*
X11518Y135075D01*
X10248Y135746D01*
Y184254D01*
X11518Y184925D01*
X13748Y183435D01*
X16841Y182153D01*
X20126Y181500D01*
X23474D01*
X26759Y182153D01*
X29852Y183435D01*
X32637Y185295D01*
X35005Y187663D01*
X36865Y190448D01*
X38147Y193541D01*
X38800Y196826D01*
Y200174D01*
X38147Y203459D01*
X36865Y206553D01*
X35005Y209337D01*
X32637Y211705D01*
X29852Y213565D01*
X26759Y214847D01*
X23474Y215500D01*
X20126D01*
X16841Y214847D01*
X13748Y213565D01*
X11518Y212075D01*
X10248Y212746D01*
Y570000D01*
Y571295D01*
X10586Y573862D01*
X11256Y576363D01*
X12247Y578755D01*
X13541Y580997D01*
X15117Y583051D01*
X16948Y584883D01*
X19003Y586459D01*
X21245Y587753D01*
X23637Y588744D01*
X26138Y589414D01*
X28705Y589752D01*
X624902D01*
Y472272D01*
D02*
G37*
G36*
X666695Y447395D02*
X668439Y446056D01*
X669280Y445708D01*
X668877Y444500D01*
X639500D01*
Y430000D01*
X630000D01*
Y446779D01*
X630140Y447118D01*
X633416D01*
Y455428D01*
X654850D01*
X655397Y455500D01*
X658589D01*
X666695Y447395D01*
D02*
G37*
G36*
X507317Y460856D02*
X507224Y460388D01*
X507625Y458369D01*
X508769Y456657D01*
X509253Y456173D01*
X508767Y455000D01*
X385000D01*
Y429776D01*
X370536D01*
X367546Y432766D01*
Y438439D01*
X369061D01*
Y451561D01*
X355479D01*
Y451561D01*
X354521D01*
Y451561D01*
X340939D01*
Y450276D01*
X333720D01*
X331701Y449875D01*
X329989Y448731D01*
X329989Y448731D01*
X326269Y445011D01*
X325125Y443299D01*
X324724Y441280D01*
Y430000D01*
X325125Y427981D01*
X326269Y426269D01*
X331594Y420944D01*
X333306Y419800D01*
X334960Y419471D01*
Y419000D01*
X342500D01*
X350040D01*
Y420540D01*
X349500D01*
Y429500D01*
X344419D01*
X344344Y429550D01*
X342325Y429951D01*
X337511D01*
X335276Y432186D01*
Y439095D01*
X335905Y439724D01*
X340939D01*
Y438439D01*
X354521D01*
Y438439D01*
X355479D01*
Y438439D01*
X356994D01*
Y430580D01*
X357395Y428561D01*
X358539Y426849D01*
X363000Y422388D01*
Y420500D01*
X362500D01*
Y409500D01*
Y400000D01*
X364724D01*
Y379561D01*
X362939D01*
Y378411D01*
X356000D01*
Y383000D01*
X324000D01*
Y379276D01*
X316500D01*
Y391000D01*
X309874D01*
X309388Y392173D01*
X310627Y393412D01*
X311020Y394000D01*
X316500D01*
Y396666D01*
X335000D01*
X336276Y396920D01*
X337357Y397642D01*
X340215Y400500D01*
X349500D01*
Y409460D01*
X350040D01*
Y411000D01*
X342500D01*
X334960D01*
Y409460D01*
X335500D01*
Y405215D01*
X333619Y403334D01*
X316500D01*
Y406000D01*
X306500D01*
Y399715D01*
X305912Y399128D01*
X305310Y398226D01*
X304568Y398257D01*
X304040Y398437D01*
Y406540D01*
X302500D01*
Y400000D01*
X298500D01*
Y396000D01*
X292960D01*
Y393460D01*
X299586D01*
X300072Y392287D01*
X298785Y391000D01*
X293500D01*
Y381064D01*
X288651D01*
X283334Y386381D01*
Y453619D01*
X316381Y486666D01*
X481507D01*
X507317Y460856D01*
D02*
G37*
G36*
X778156Y419488D02*
X778599Y417835D01*
X779455Y416353D01*
X780000Y415808D01*
Y340000D01*
X773334Y333334D01*
X750108D01*
X748832Y333080D01*
X747750Y332357D01*
X725393Y310000D01*
X530000D01*
Y390000D01*
X601578D01*
Y349939D01*
X601865Y347760D01*
X602706Y345728D01*
X604045Y343984D01*
X611484Y336545D01*
X613228Y335206D01*
X615260Y334365D01*
X617439Y334078D01*
X670000D01*
X672180Y334365D01*
X674211Y335206D01*
X675955Y336545D01*
X690305Y350895D01*
X691644Y352639D01*
X692485Y354670D01*
X692772Y356850D01*
Y359945D01*
X692780Y359951D01*
X698000D01*
X698975Y360145D01*
X699802Y360698D01*
X700355Y361525D01*
X700549Y362500D01*
Y371500D01*
X700355Y372475D01*
X699802Y373302D01*
X698975Y373855D01*
X698000Y374049D01*
X692780D01*
X692461Y374294D01*
X690430Y375135D01*
X688250Y375422D01*
X685700D01*
X683520Y375135D01*
X681489Y374294D01*
X681170Y374049D01*
X678500D01*
X677525Y373855D01*
X676698Y373302D01*
X676145Y372475D01*
X675951Y371500D01*
Y365826D01*
X675928Y365650D01*
Y360339D01*
X666512Y350922D01*
X620928D01*
X618422Y353428D01*
Y359875D01*
X619692Y360042D01*
X619738Y359871D01*
X620594Y358389D01*
X621804Y357179D01*
X623286Y356323D01*
X624939Y355880D01*
X626389D01*
X627175Y355723D01*
X627175Y355724D01*
X634500D01*
Y352500D01*
X665500D01*
Y369500D01*
X634500D01*
Y366276D01*
X631051D01*
X630996Y366371D01*
X629786Y367581D01*
X628304Y368437D01*
X626651Y368880D01*
X624939D01*
X623286Y368437D01*
X621804Y367581D01*
X620594Y366371D01*
X619738Y364889D01*
X619692Y364717D01*
X618422Y364885D01*
Y390000D01*
X630000D01*
X632787Y392787D01*
X633960Y392301D01*
Y379960D01*
X646000D01*
Y389000D01*
Y398040D01*
X639699D01*
X639213Y399213D01*
X653636Y413636D01*
X654144Y413500D01*
X655856D01*
X657509Y413943D01*
X658991Y414799D01*
X660201Y416009D01*
X661057Y417491D01*
X661500Y419144D01*
Y420000D01*
X665470D01*
X665637Y418730D01*
X664991Y418557D01*
X663509Y417701D01*
X662299Y416491D01*
X661443Y415009D01*
X661000Y413356D01*
Y411644D01*
X661443Y409991D01*
X662299Y408509D01*
X663509Y407299D01*
X664991Y406443D01*
X666644Y406000D01*
X668356D01*
X670009Y406443D01*
X671491Y407299D01*
X671916Y407724D01*
X676105D01*
X676145Y407525D01*
X676698Y406698D01*
X677525Y406145D01*
X678500Y405951D01*
X698000D01*
X698975Y406145D01*
X699802Y406698D01*
X700355Y407525D01*
X700549Y408500D01*
Y417500D01*
X700355Y418475D01*
X700185Y418730D01*
X700864Y420000D01*
X778156D01*
Y419488D01*
D02*
G37*
G36*
X385000Y267040D02*
X376210D01*
Y264500D01*
X385000D01*
Y260500D01*
X389000D01*
Y253960D01*
X393790D01*
Y262500D01*
X419902D01*
Y259629D01*
X418895Y258856D01*
X418356Y259000D01*
X416644D01*
X414991Y258557D01*
X413509Y257701D01*
X413270Y257462D01*
X412000Y257988D01*
Y259500D01*
X398000D01*
Y247500D01*
X408697D01*
X409083Y246230D01*
X408895Y246105D01*
Y246105D01*
X407823Y244500D01*
X398000D01*
Y238215D01*
X395619Y235834D01*
X383988D01*
X382712Y235580D01*
X381630Y234858D01*
X376604Y229831D01*
X375334Y230357D01*
Y232369D01*
X381465Y238500D01*
X393250D01*
Y250500D01*
X376750D01*
Y243215D01*
X374423Y240888D01*
X373250Y241374D01*
Y250500D01*
X356750D01*
Y245834D01*
X355000D01*
Y249500D01*
X343000D01*
Y239874D01*
X341827Y239388D01*
X340000Y241215D01*
Y249500D01*
X338334D01*
Y273619D01*
X365921Y301206D01*
X385000D01*
Y267040D01*
D02*
G37*
G36*
X1619902Y259629D02*
X1618895Y258856D01*
X1618356Y259000D01*
X1616644D01*
X1614991Y258557D01*
X1613509Y257701D01*
X1613270Y257462D01*
X1612000Y257988D01*
Y259500D01*
X1598000D01*
Y247500D01*
X1608697D01*
X1609083Y246230D01*
X1608895Y246105D01*
Y246105D01*
X1607823Y244500D01*
X1598000D01*
Y238215D01*
X1595619Y235834D01*
X1583988D01*
X1582712Y235580D01*
X1581630Y234858D01*
X1576604Y229831D01*
X1575334Y230357D01*
Y232369D01*
X1581465Y238500D01*
X1593250D01*
Y250500D01*
X1576750D01*
Y243215D01*
X1574423Y240888D01*
X1573250Y241374D01*
Y250500D01*
X1556750D01*
Y245834D01*
X1555000D01*
Y249500D01*
X1543000D01*
Y239874D01*
X1541827Y239388D01*
X1540000Y241215D01*
Y249500D01*
X1528000D01*
Y248564D01*
X1496151D01*
X1483388Y261327D01*
X1483874Y262500D01*
X1556210D01*
Y253960D01*
X1561000D01*
Y260500D01*
X1569000D01*
Y253960D01*
X1573790D01*
Y262500D01*
X1576210D01*
Y253960D01*
X1581000D01*
Y260500D01*
X1589000D01*
Y253960D01*
X1593790D01*
Y262500D01*
X1619902D01*
Y259629D01*
D02*
G37*
G36*
X1419902D02*
X1418895Y258856D01*
X1418356Y259000D01*
X1416644D01*
X1414991Y258557D01*
X1413509Y257701D01*
X1413270Y257462D01*
X1412000Y257988D01*
Y259500D01*
X1398000D01*
Y247500D01*
X1408697D01*
X1409083Y246230D01*
X1408895Y246105D01*
Y246105D01*
X1407823Y244500D01*
X1398000D01*
Y238215D01*
X1395619Y235834D01*
X1383988D01*
X1382712Y235580D01*
X1381630Y234858D01*
X1376604Y229831D01*
X1375334Y230357D01*
Y232369D01*
X1381465Y238500D01*
X1393250D01*
Y250500D01*
X1376750D01*
Y243215D01*
X1374423Y240888D01*
X1373250Y241374D01*
Y250500D01*
X1356750D01*
Y245834D01*
X1355000D01*
Y249500D01*
X1343000D01*
Y239874D01*
X1341827Y239388D01*
X1340000Y241215D01*
Y249500D01*
X1333715D01*
X1321888Y261327D01*
X1322374Y262500D01*
X1356210D01*
Y253960D01*
X1361000D01*
Y260500D01*
X1369000D01*
Y253960D01*
X1373790D01*
Y262500D01*
X1376210D01*
Y253960D01*
X1381000D01*
Y260500D01*
X1389000D01*
Y253960D01*
X1393790D01*
Y262500D01*
X1419902D01*
Y259629D01*
D02*
G37*
G36*
X1219902D02*
X1218895Y258856D01*
X1218356Y259000D01*
X1216644D01*
X1214991Y258557D01*
X1213509Y257701D01*
X1213270Y257462D01*
X1212000Y257988D01*
Y259500D01*
X1198000D01*
Y247500D01*
X1208697D01*
X1209083Y246230D01*
X1208895Y246105D01*
Y246105D01*
X1207823Y244500D01*
X1198000D01*
Y238215D01*
X1195619Y235834D01*
X1183988D01*
X1182712Y235580D01*
X1181630Y234858D01*
X1176604Y229831D01*
X1175334Y230357D01*
Y232369D01*
X1181465Y238500D01*
X1193250D01*
Y250500D01*
X1176750D01*
Y243215D01*
X1174423Y240888D01*
X1173250Y241374D01*
Y250500D01*
X1156750D01*
Y245834D01*
X1155000D01*
Y249500D01*
X1143000D01*
Y239874D01*
X1141827Y239388D01*
X1140000Y241215D01*
Y249500D01*
X1138334D01*
Y260000D01*
X1138089Y261230D01*
X1138083Y261281D01*
X1138790Y262500D01*
X1156210D01*
Y253960D01*
X1161000D01*
Y260500D01*
X1169000D01*
Y253960D01*
X1173790D01*
Y262500D01*
X1176210D01*
Y253960D01*
X1181000D01*
Y260500D01*
X1189000D01*
Y253960D01*
X1193790D01*
Y262500D01*
X1219902D01*
Y259629D01*
D02*
G37*
G36*
X1019902D02*
X1018895Y258856D01*
X1018356Y259000D01*
X1016644D01*
X1014991Y258557D01*
X1013509Y257701D01*
X1013270Y257462D01*
X1012000Y257988D01*
Y259500D01*
X998000D01*
Y247500D01*
X1008697D01*
X1009083Y246230D01*
X1008895Y246105D01*
Y246105D01*
X1007823Y244500D01*
X998000D01*
Y238215D01*
X995619Y235834D01*
X983988D01*
X982712Y235580D01*
X981630Y234858D01*
X976604Y229831D01*
X975334Y230357D01*
Y232369D01*
X981465Y238500D01*
X993250D01*
Y250500D01*
X976750D01*
Y243215D01*
X974423Y240888D01*
X973250Y241374D01*
Y250500D01*
X956750D01*
Y245834D01*
X955000D01*
Y249500D01*
X943000D01*
Y239874D01*
X941827Y239388D01*
X940000Y241215D01*
Y249500D01*
X932715D01*
X920985Y261230D01*
X921511Y262500D01*
X956210D01*
Y253960D01*
X961000D01*
Y260500D01*
X969000D01*
Y253960D01*
X973790D01*
Y262500D01*
X976210D01*
Y253960D01*
X981000D01*
Y260500D01*
X989000D01*
Y253960D01*
X993790D01*
Y262500D01*
X1019902D01*
Y259629D01*
D02*
G37*
G36*
X819902D02*
X818895Y258856D01*
X818356Y259000D01*
X816644D01*
X814991Y258557D01*
X813509Y257701D01*
X813270Y257462D01*
X812000Y257988D01*
Y259500D01*
X798000D01*
Y247500D01*
X808697D01*
X809083Y246230D01*
X808895Y246105D01*
Y246105D01*
X807823Y244500D01*
X798000D01*
Y238215D01*
X795619Y235834D01*
X783988D01*
X782712Y235580D01*
X781630Y234858D01*
X776604Y229831D01*
X775334Y230357D01*
Y232369D01*
X781465Y238500D01*
X793250D01*
Y250500D01*
X776750D01*
Y243215D01*
X774423Y240888D01*
X773250Y241374D01*
Y250500D01*
X756750D01*
Y245834D01*
X755000D01*
Y249500D01*
X743000D01*
Y239874D01*
X741827Y239388D01*
X740000Y241215D01*
Y249500D01*
X738334D01*
Y262500D01*
X756210D01*
Y253960D01*
X761000D01*
Y260500D01*
X769000D01*
Y253960D01*
X773790D01*
Y262500D01*
X776210D01*
Y253960D01*
X781000D01*
Y260500D01*
X789000D01*
Y253960D01*
X793790D01*
Y262500D01*
X819902D01*
Y259629D01*
D02*
G37*
G36*
X619902D02*
X618895Y258856D01*
X618356Y259000D01*
X616644D01*
X614991Y258557D01*
X613509Y257701D01*
X613270Y257462D01*
X612000Y257988D01*
Y259500D01*
X598000D01*
Y247500D01*
X608697D01*
X609083Y246230D01*
X608895Y246105D01*
Y246105D01*
X607823Y244500D01*
X598000D01*
Y238215D01*
X595619Y235834D01*
X583988D01*
X582712Y235580D01*
X581630Y234858D01*
X576604Y229831D01*
X575334Y230357D01*
Y232369D01*
X581465Y238500D01*
X593250D01*
Y250500D01*
X576750D01*
Y243215D01*
X574423Y240888D01*
X573250Y241374D01*
Y250500D01*
X556750D01*
Y245834D01*
X555000D01*
Y249500D01*
X543000D01*
Y239874D01*
X541827Y239388D01*
X540000Y241215D01*
Y249500D01*
X528000D01*
Y245834D01*
X518334D01*
Y262500D01*
X531418D01*
X531834Y262222D01*
X534971Y260923D01*
X538302Y260260D01*
X541698D01*
X545029Y260923D01*
X548166Y262222D01*
X548582Y262500D01*
X556210D01*
Y253960D01*
X561000D01*
Y260500D01*
X569000D01*
Y253960D01*
X573790D01*
Y262500D01*
X576210D01*
Y253960D01*
X581000D01*
Y260500D01*
X589000D01*
Y253960D01*
X593790D01*
Y262500D01*
X619902D01*
Y259629D01*
D02*
G37*
G36*
X1655000Y207598D02*
X1648540D01*
Y220540D01*
X1636500D01*
Y211500D01*
X1628500D01*
Y220540D01*
X1616460D01*
Y207598D01*
X1608827D01*
Y215327D01*
X1608500Y216971D01*
Y210254D01*
X1602000D01*
Y210254D01*
X1595500D01*
Y210254D01*
X1589287D01*
Y215327D01*
X1588961Y216968D01*
X1588031Y218358D01*
X1587500Y218713D01*
Y219170D01*
X1587500Y219170D01*
Y225000D01*
X1595000D01*
X1602000Y232000D01*
X1612500D01*
Y242500D01*
X1612500Y242500D01*
X1625000D01*
Y280000D01*
X1655000D01*
Y207598D01*
D02*
G37*
G36*
X1455000D02*
X1448540D01*
Y220540D01*
X1436500D01*
Y211500D01*
X1428500D01*
Y220540D01*
X1416460D01*
Y207598D01*
X1408827D01*
Y215327D01*
X1408500Y216971D01*
Y210254D01*
X1402000D01*
Y210254D01*
X1395500D01*
Y210254D01*
X1389287D01*
Y215327D01*
X1388961Y216968D01*
X1388031Y218358D01*
X1387500Y218713D01*
Y219170D01*
X1387500Y219170D01*
Y225000D01*
X1395000D01*
X1402000Y232000D01*
X1412500D01*
Y242500D01*
X1412500Y242500D01*
X1425000D01*
Y280000D01*
X1455000D01*
Y207598D01*
D02*
G37*
G36*
X1255000D02*
X1248540D01*
Y220540D01*
X1236500D01*
Y211500D01*
X1228500D01*
Y220540D01*
X1216460D01*
Y207598D01*
X1208827D01*
Y215327D01*
X1208500Y216971D01*
Y210254D01*
X1202000D01*
Y210254D01*
X1195500D01*
Y210254D01*
X1189287D01*
Y215327D01*
X1188960Y216968D01*
X1188031Y218358D01*
X1187500Y218713D01*
Y219170D01*
X1187500Y219170D01*
Y225000D01*
X1195000D01*
X1202000Y232000D01*
X1212500D01*
Y242500D01*
X1212500Y242500D01*
X1225000D01*
Y281666D01*
X1255000D01*
Y207598D01*
D02*
G37*
G36*
X1055000D02*
X1048540D01*
Y220540D01*
X1036500D01*
Y211500D01*
X1028500D01*
Y220540D01*
X1016460D01*
Y207598D01*
X1008827D01*
Y215327D01*
X1008500Y216971D01*
Y210254D01*
X1002000D01*
Y210254D01*
X995500D01*
Y210254D01*
X989287D01*
Y215327D01*
X988960Y216968D01*
X988031Y218358D01*
X987500Y218713D01*
Y219170D01*
X987500Y219170D01*
Y225000D01*
X995000D01*
X1002000Y232000D01*
X1012500D01*
Y242500D01*
X1012500Y242500D01*
X1025000D01*
Y280000D01*
X1055000D01*
Y207598D01*
D02*
G37*
G36*
X855000D02*
X848540D01*
Y220540D01*
X836500D01*
Y211500D01*
X828500D01*
Y220540D01*
X816460D01*
Y207598D01*
X808827D01*
Y215327D01*
X808500Y216971D01*
Y210254D01*
X802000D01*
Y210254D01*
X795500D01*
Y210254D01*
X789287D01*
Y215327D01*
X788960Y216968D01*
X788031Y218358D01*
X787500Y218713D01*
Y219170D01*
X787500Y219170D01*
Y225000D01*
X795000D01*
X802000Y232000D01*
X812500D01*
Y242500D01*
X812500Y242500D01*
X825000D01*
Y280000D01*
X855000D01*
Y207598D01*
D02*
G37*
G36*
X655000D02*
X648540D01*
Y220540D01*
X636500D01*
Y211500D01*
X628500D01*
Y220540D01*
X616460D01*
Y207598D01*
X608827D01*
Y215327D01*
X608500Y216971D01*
Y210254D01*
X602000D01*
Y210254D01*
X595500D01*
Y210254D01*
X589287D01*
Y215327D01*
X588960Y216968D01*
X588031Y218358D01*
X587500Y218713D01*
Y219170D01*
X587500Y219170D01*
Y225000D01*
X595000D01*
X602000Y232000D01*
X612500D01*
Y242500D01*
X612500Y242500D01*
X625000D01*
Y280000D01*
X655000D01*
Y207598D01*
D02*
G37*
G36*
X455000D02*
X448540D01*
Y220540D01*
X436500D01*
Y211500D01*
X428500D01*
Y220540D01*
X416460D01*
Y207598D01*
X408827D01*
Y215327D01*
X408500Y216971D01*
Y210254D01*
X400500D01*
D01*
X395500D01*
Y210254D01*
X389287D01*
Y215327D01*
X388960Y216968D01*
X388031Y218358D01*
X387500Y218713D01*
Y219170D01*
X387500Y219170D01*
Y225000D01*
X395000D01*
X402000Y232000D01*
X412500D01*
Y242500D01*
X412500Y242500D01*
X425000D01*
Y280000D01*
X455000D01*
Y207598D01*
D02*
G37*
%LPC*%
G36*
X1278667Y489599D02*
X1274793D01*
Y486233D01*
X1278667D01*
Y489599D01*
D02*
G37*
G36*
X1266793D02*
X1262919D01*
Y486233D01*
X1266793D01*
Y489599D01*
D02*
G37*
G36*
X1354540Y485040D02*
X1342500D01*
Y480000D01*
X1354540D01*
Y485040D01*
D02*
G37*
G36*
X1334500D02*
X1322460D01*
Y480000D01*
X1334500D01*
Y485040D01*
D02*
G37*
G36*
X1364500Y478730D02*
X1361399D01*
Y475399D01*
X1364500D01*
Y478730D01*
D02*
G37*
G36*
X1315601Y478730D02*
X1312500D01*
Y475399D01*
X1315601D01*
Y478730D01*
D02*
G37*
G36*
X1304500D02*
X1301399D01*
Y475399D01*
X1304500D01*
Y478730D01*
D02*
G37*
G36*
X1278667Y478233D02*
X1274793D01*
Y474867D01*
X1278667D01*
Y478233D01*
D02*
G37*
G36*
X1266793D02*
X1262919D01*
Y474867D01*
X1266793D01*
Y478233D01*
D02*
G37*
G36*
X1354540Y472000D02*
X1342500D01*
Y466960D01*
X1354540D01*
Y472000D01*
D02*
G37*
G36*
X1334500D02*
X1322460D01*
Y466960D01*
X1334500D01*
Y472000D01*
D02*
G37*
G36*
X1349293Y449580D02*
X1337293D01*
Y445915D01*
X1333246D01*
X1332881Y445842D01*
X1332509Y446057D01*
X1330856Y446500D01*
X1329144D01*
X1327491Y446057D01*
X1326009Y445201D01*
X1324799Y443991D01*
X1323943Y442509D01*
X1323500Y440856D01*
Y439144D01*
X1323943Y437491D01*
X1324799Y436009D01*
X1326009Y434799D01*
X1327491Y433943D01*
X1329144Y433500D01*
X1330856D01*
X1332509Y433943D01*
X1333991Y434799D01*
X1335201Y436009D01*
X1336057Y437491D01*
X1337293Y437198D01*
Y435581D01*
X1349293D01*
Y449580D01*
D02*
G37*
G36*
X1264833Y435121D02*
X1262293D01*
Y431581D01*
X1264833D01*
Y435121D01*
D02*
G37*
G36*
X1254293D02*
X1251753D01*
Y431581D01*
X1254293D01*
Y435121D01*
D02*
G37*
G36*
X827540Y518290D02*
X816500D01*
Y513500D01*
X827540D01*
Y518290D01*
D02*
G37*
G36*
X808500D02*
X797460D01*
Y513500D01*
X808500D01*
Y518290D01*
D02*
G37*
G36*
X651000Y505040D02*
X638960D01*
Y500000D01*
X651000D01*
Y505040D01*
D02*
G37*
G36*
X670500Y532500D02*
X639500D01*
Y515500D01*
X660083D01*
X660450Y513656D01*
X661594Y511944D01*
X664484Y509054D01*
X664799Y508509D01*
X666009Y507299D01*
X666554Y506984D01*
X667228Y506310D01*
X666702Y505040D01*
X659000D01*
Y500000D01*
X671387D01*
X672310Y500605D01*
X673162Y500376D01*
X675951Y497587D01*
Y493500D01*
X676145Y492524D01*
X676698Y491698D01*
X677525Y491145D01*
X678500Y490951D01*
X698000D01*
X698975Y491145D01*
X699802Y491698D01*
X700154Y492224D01*
X701139D01*
X702491Y491443D01*
X704144Y491000D01*
X705856D01*
X707509Y491443D01*
X708750Y492160D01*
X709991Y491443D01*
X711644Y491000D01*
X713356D01*
X715009Y491443D01*
X716250Y492160D01*
X717491Y491443D01*
X719144Y491000D01*
X720856D01*
X722509Y491443D01*
X723750Y492160D01*
X724991Y491443D01*
X726644Y491000D01*
X728356D01*
X730009Y491443D01*
X731491Y492299D01*
X732701Y493509D01*
X733557Y494991D01*
X734000Y496644D01*
Y498356D01*
X733557Y500009D01*
X732701Y501491D01*
X731491Y502701D01*
X730009Y503557D01*
X728356Y504000D01*
X726644D01*
X724991Y503557D01*
X723750Y502840D01*
X722509Y503557D01*
X720856Y504000D01*
X719144D01*
X717491Y503557D01*
X716250Y502840D01*
X715009Y503557D01*
X713356Y504000D01*
X711644D01*
X709991Y503557D01*
X708750Y502840D01*
X707509Y503557D01*
X705856Y504000D01*
X704144D01*
X702491Y503557D01*
X701722Y503113D01*
X700355Y503475D01*
X699802Y504302D01*
X698975Y504855D01*
X698000Y505049D01*
X683413D01*
X680624Y507838D01*
X680219Y509346D01*
X679364Y510829D01*
X678154Y512039D01*
X676671Y512895D01*
X676500Y512940D01*
Y513356D01*
X676057Y515009D01*
X675201Y516491D01*
X673991Y517701D01*
X672509Y518557D01*
X670856Y519000D01*
X670601D01*
Y520675D01*
X670500Y521185D01*
Y532500D01*
D02*
G37*
G36*
X671040Y492000D02*
X659000D01*
Y486960D01*
X671040D01*
Y492000D01*
D02*
G37*
G36*
X651000D02*
X638960D01*
Y486960D01*
X651000D01*
Y492000D01*
D02*
G37*
G36*
X761488Y493850D02*
X755750D01*
Y479000D01*
X764600D01*
Y490737D01*
X764363Y491928D01*
X763688Y492938D01*
X762679Y493613D01*
X761488Y493850D01*
D02*
G37*
G36*
X698000Y482599D02*
X692250D01*
Y479000D01*
X701100D01*
Y479500D01*
X700864Y480686D01*
X700192Y481692D01*
X699186Y482364D01*
X698000Y482599D01*
D02*
G37*
G36*
X684250D02*
X678500D01*
X677314Y482364D01*
X676308Y481692D01*
X675636Y480686D01*
X675400Y479500D01*
Y479000D01*
X684250D01*
Y482599D01*
D02*
G37*
G36*
X747750Y493850D02*
X742012D01*
X740822Y493613D01*
X739812Y492938D01*
X739137Y491928D01*
X738900Y490737D01*
Y479000D01*
X747750D01*
Y493850D01*
D02*
G37*
G36*
X701100Y471000D02*
X692250D01*
Y467400D01*
X698000D01*
X699186Y467636D01*
X700192Y468308D01*
X700864Y469314D01*
X701100Y470500D01*
Y471000D01*
D02*
G37*
G36*
X684250D02*
X675400D01*
Y470500D01*
X675636Y469314D01*
X676308Y468308D01*
X677314Y467636D01*
X678500Y467400D01*
X684250D01*
Y471000D01*
D02*
G37*
G36*
X764600D02*
X755750D01*
Y456150D01*
X761488D01*
X762679Y456387D01*
X763688Y457062D01*
X764363Y458071D01*
X764600Y459263D01*
Y471000D01*
D02*
G37*
G36*
X747750D02*
X738900D01*
Y459263D01*
X739137Y458071D01*
X739812Y457062D01*
X740822Y456387D01*
X742012Y456150D01*
X747750D01*
Y471000D01*
D02*
G37*
G36*
X827540Y484290D02*
X816500D01*
Y479500D01*
X827540D01*
Y484290D01*
D02*
G37*
G36*
Y471500D02*
X816500D01*
Y466710D01*
X827540D01*
Y471500D01*
D02*
G37*
G36*
X377900Y581855D02*
Y575140D01*
X384615D01*
X384368Y576062D01*
X383030Y578378D01*
X381138Y580270D01*
X378822Y581608D01*
X377900Y581855D01*
D02*
G37*
G36*
X371900D02*
X370978Y581608D01*
X368662Y580270D01*
X366770Y578378D01*
X365432Y576062D01*
X365185Y575140D01*
X371900D01*
Y581855D01*
D02*
G37*
G36*
X122561Y588078D02*
X55500D01*
Y573000D01*
X122561D01*
Y588078D01*
D02*
G37*
G36*
X426967Y581760D02*
X424434D01*
X421987Y581104D01*
X419793Y579838D01*
X418002Y578047D01*
X416736Y575853D01*
X416080Y573406D01*
Y570873D01*
X416736Y568427D01*
X418002Y566233D01*
X419793Y564442D01*
X421987Y563176D01*
X424434Y562520D01*
X426967D01*
X429413Y563176D01*
X431607Y564442D01*
X433398Y566233D01*
X434664Y568427D01*
X435320Y570873D01*
Y573406D01*
X434664Y575853D01*
X433398Y578047D01*
X431607Y579838D01*
X429413Y581104D01*
X426967Y581760D01*
D02*
G37*
G36*
X401567D02*
X399034D01*
X396587Y581104D01*
X394393Y579838D01*
X392602Y578047D01*
X391336Y575853D01*
X390680Y573406D01*
Y570873D01*
X391336Y568427D01*
X392602Y566233D01*
X394393Y564442D01*
X396587Y563176D01*
X399034Y562520D01*
X401567D01*
X404013Y563176D01*
X406207Y564442D01*
X407998Y566233D01*
X409264Y568427D01*
X409920Y570873D01*
Y573406D01*
X409264Y575853D01*
X407998Y578047D01*
X406207Y579838D01*
X404013Y581104D01*
X401567Y581760D01*
D02*
G37*
G36*
X359120D02*
X339880D01*
Y562520D01*
X359120D01*
Y569221D01*
Y581760D01*
D02*
G37*
G36*
X384615Y569140D02*
X377900D01*
Y562425D01*
X378822Y562672D01*
X381138Y564010D01*
X383030Y565902D01*
X384368Y568218D01*
X384615Y569140D01*
D02*
G37*
G36*
X371900D02*
X365186D01*
X365432Y568218D01*
X366770Y565902D01*
X368662Y564010D01*
X370978Y562672D01*
X371900Y562425D01*
Y569140D01*
D02*
G37*
G36*
X541698Y574140D02*
X538302D01*
X534971Y573478D01*
X531834Y572178D01*
X529010Y570291D01*
X526609Y567890D01*
X524722Y565066D01*
X523423Y561929D01*
X522760Y558598D01*
Y555202D01*
X523423Y551871D01*
X524722Y548734D01*
X526609Y545910D01*
X529010Y543509D01*
X531834Y541622D01*
X534971Y540322D01*
X538302Y539660D01*
X541698D01*
X545029Y540322D01*
X548166Y541622D01*
X550990Y543509D01*
X553391Y545910D01*
X555278Y548734D01*
X556577Y551871D01*
X557240Y555202D01*
Y558598D01*
X556577Y561929D01*
X555278Y565066D01*
X553391Y567890D01*
X550990Y570291D01*
X548166Y572178D01*
X545029Y573478D01*
X541698Y574140D01*
D02*
G37*
G36*
X236898D02*
X233502D01*
X230171Y573478D01*
X227034Y572178D01*
X224210Y570291D01*
X221809Y567890D01*
X219922Y565066D01*
X218622Y561929D01*
X217960Y558598D01*
Y555202D01*
X218622Y551871D01*
X219922Y548734D01*
X221809Y545910D01*
X224210Y543509D01*
X227034Y541622D01*
X230171Y540322D01*
X233502Y539660D01*
X236898D01*
X240229Y540322D01*
X243366Y541622D01*
X246190Y543509D01*
X248591Y545910D01*
X250478Y548734D01*
X251777Y551871D01*
X252440Y555202D01*
Y558598D01*
X251777Y561929D01*
X250478Y565066D01*
X248591Y567890D01*
X246190Y570291D01*
X243366Y572178D01*
X240229Y573478D01*
X236898Y574140D01*
D02*
G37*
G36*
X60040Y540040D02*
X53000D01*
Y523000D01*
X60040D01*
Y540040D01*
D02*
G37*
G36*
X47000D02*
X39960D01*
Y523000D01*
X47000D01*
Y540040D01*
D02*
G37*
G36*
X169371Y539000D02*
X165629D01*
X161958Y538270D01*
X158500Y536838D01*
X155388Y534758D01*
X152742Y532112D01*
X150662Y529000D01*
X149230Y525542D01*
X148500Y521871D01*
Y518129D01*
X149230Y514458D01*
X150662Y511000D01*
X152742Y507888D01*
X155388Y505242D01*
X158500Y503162D01*
X161958Y501730D01*
X165629Y501000D01*
X169371D01*
X173042Y501730D01*
X176500Y503162D01*
X179612Y505242D01*
X182258Y507888D01*
X184338Y511000D01*
X185770Y514458D01*
X186500Y518129D01*
Y521871D01*
X185770Y525542D01*
X184338Y529000D01*
X182258Y532112D01*
X179612Y534758D01*
X176500Y536838D01*
X173042Y538270D01*
X169371Y539000D01*
D02*
G37*
G36*
X60040Y517000D02*
X53000D01*
Y499960D01*
X60040D01*
Y517000D01*
D02*
G37*
G36*
X47000D02*
X39960D01*
Y499960D01*
X47000D01*
Y517000D01*
D02*
G37*
G36*
X122500Y545000D02*
X97500D01*
Y495000D01*
X122500D01*
Y545000D01*
D02*
G37*
G36*
X100040Y483040D02*
X83000D01*
Y476000D01*
X100040D01*
Y483040D01*
D02*
G37*
G36*
X77000D02*
X59960D01*
Y476000D01*
X77000D01*
Y483040D01*
D02*
G37*
G36*
X560040Y475790D02*
X549000D01*
Y471000D01*
X560040D01*
Y475790D01*
D02*
G37*
G36*
X541000D02*
X529960D01*
Y471000D01*
X541000D01*
Y475790D01*
D02*
G37*
G36*
X100040Y470000D02*
X83000D01*
Y462960D01*
X100040D01*
Y470000D01*
D02*
G37*
G36*
X77000D02*
X59960D01*
Y462960D01*
X77000D01*
Y470000D01*
D02*
G37*
G36*
X560040Y463000D02*
X549000D01*
Y458210D01*
X560040D01*
Y463000D01*
D02*
G37*
G36*
X541000D02*
X529960D01*
Y458210D01*
X541000D01*
Y463000D01*
D02*
G37*
G36*
X144000Y451069D02*
X126000D01*
X123912Y450794D01*
X121966Y449988D01*
X120294Y448706D01*
X119012Y447034D01*
X118206Y445088D01*
X117931Y443000D01*
X118206Y440912D01*
X119012Y438965D01*
X120294Y437294D01*
X121966Y436012D01*
X123912Y435206D01*
X126000Y434931D01*
X144000D01*
X146088Y435206D01*
X148034Y436012D01*
X149706Y437294D01*
X150988Y438965D01*
X151794Y440912D01*
X152069Y443000D01*
X151794Y445088D01*
X150988Y447034D01*
X149706Y448706D01*
X148034Y449988D01*
X146088Y450794D01*
X144000Y451069D01*
D02*
G37*
G36*
X51909Y457500D02*
X48091D01*
X44403Y456512D01*
X41097Y454603D01*
X38397Y451903D01*
X36488Y448597D01*
X35500Y444909D01*
Y441091D01*
X36488Y437403D01*
X38397Y434097D01*
X41097Y431397D01*
X44403Y429488D01*
X48091Y428500D01*
X51909D01*
X55597Y429488D01*
X58903Y431397D01*
X61603Y434097D01*
X63512Y437403D01*
X64500Y441091D01*
Y444909D01*
X63512Y448597D01*
X61603Y451903D01*
X58903Y454603D01*
X55597Y456512D01*
X51909Y457500D01*
D02*
G37*
G36*
X135770Y402540D02*
X124500D01*
Y397000D01*
X140040D01*
Y398270D01*
X135770Y402540D01*
D02*
G37*
G36*
X118500D02*
X107230D01*
X102960Y398270D01*
Y396509D01*
X101787Y396023D01*
X99270Y398540D01*
X88000D01*
Y390000D01*
Y381460D01*
X99270D01*
X103540Y385730D01*
Y387491D01*
X104713Y387977D01*
X107230Y385460D01*
X118500D01*
Y394000D01*
Y402540D01*
D02*
G37*
G36*
X82000Y398540D02*
X70730D01*
X66460Y394270D01*
Y393000D01*
X82000D01*
Y398540D01*
D02*
G37*
G36*
X140040Y391000D02*
X124500D01*
Y385460D01*
X135770D01*
X140040Y389730D01*
Y391000D01*
D02*
G37*
G36*
X82000Y387000D02*
X66460D01*
Y385730D01*
X70730Y381460D01*
X82000D01*
Y387000D01*
D02*
G37*
G36*
X51382Y400500D02*
X48618D01*
X45947Y399784D01*
X43553Y398402D01*
X41598Y396447D01*
X40216Y394053D01*
X39500Y391382D01*
Y388618D01*
X40216Y385947D01*
X41598Y383553D01*
X43553Y381598D01*
X45947Y380216D01*
X48618Y379500D01*
X51382D01*
X54053Y380216D01*
X56447Y381598D01*
X58402Y383553D01*
X59784Y385947D01*
X60500Y388618D01*
Y391382D01*
X59784Y394053D01*
X58402Y396447D01*
X56447Y398402D01*
X54053Y399784D01*
X51382Y400500D01*
D02*
G37*
G36*
X377101Y353730D02*
X374000D01*
Y350399D01*
X377101D01*
Y353730D01*
D02*
G37*
G36*
X366000D02*
X362899D01*
Y350399D01*
X366000D01*
Y353730D01*
D02*
G37*
G36*
X356040Y355040D02*
X344000D01*
Y350000D01*
X356040D01*
Y355040D01*
D02*
G37*
G36*
X336000D02*
X323960D01*
Y350000D01*
X336000D01*
Y355040D01*
D02*
G37*
G36*
X30000Y382069D02*
X27912Y381794D01*
X25965Y380988D01*
X24294Y379706D01*
X23012Y378035D01*
X22206Y376088D01*
X21931Y374000D01*
Y356000D01*
X22206Y353912D01*
X23012Y351965D01*
X24294Y350294D01*
X25965Y349012D01*
X27912Y348206D01*
X30000Y347931D01*
X32088Y348206D01*
X34035Y349012D01*
X35706Y350294D01*
X36988Y351965D01*
X37794Y353912D01*
X38069Y356000D01*
Y374000D01*
X37794Y376088D01*
X36988Y378035D01*
X35706Y379706D01*
X34035Y380988D01*
X32088Y381794D01*
X30000Y382069D01*
D02*
G37*
G36*
X356040Y342000D02*
X344000D01*
Y336960D01*
X356040D01*
Y342000D01*
D02*
G37*
G36*
X336000D02*
X323960D01*
Y336960D01*
X336000D01*
Y342000D01*
D02*
G37*
G36*
X51382Y350500D02*
X48618D01*
X45947Y349784D01*
X43553Y348402D01*
X41598Y346447D01*
X40216Y344053D01*
X39500Y341382D01*
Y338618D01*
X40216Y335947D01*
X41598Y333553D01*
X43553Y331598D01*
X45947Y330216D01*
X48618Y329500D01*
X51382D01*
X54053Y330216D01*
X56447Y331598D01*
X58402Y333553D01*
X59784Y335947D01*
X60500Y338618D01*
Y341382D01*
X59784Y344053D01*
X58402Y346447D01*
X56447Y348402D01*
X54053Y349784D01*
X51382Y350500D01*
D02*
G37*
G36*
X144000Y295069D02*
X126000D01*
X123912Y294794D01*
X121966Y293988D01*
X120294Y292706D01*
X119012Y291035D01*
X118206Y289088D01*
X117931Y287000D01*
X118206Y284912D01*
X119012Y282966D01*
X120294Y281294D01*
X121966Y280012D01*
X123912Y279206D01*
X126000Y278931D01*
X144000D01*
X146088Y279206D01*
X148034Y280012D01*
X149706Y281294D01*
X150988Y282966D01*
X151794Y284912D01*
X152069Y287000D01*
X151794Y289088D01*
X150988Y291035D01*
X149706Y292706D01*
X148034Y293988D01*
X146088Y294794D01*
X144000Y295069D01*
D02*
G37*
G36*
X51909Y301500D02*
X48091D01*
X44403Y300512D01*
X41097Y298603D01*
X38397Y295903D01*
X36488Y292597D01*
X35500Y288909D01*
Y285091D01*
X36488Y281403D01*
X38397Y278097D01*
X41097Y275397D01*
X44403Y273488D01*
X48091Y272500D01*
X51909D01*
X55597Y273488D01*
X58903Y275397D01*
X61603Y278097D01*
X63512Y281403D01*
X64500Y285091D01*
Y288909D01*
X63512Y292597D01*
X61603Y295903D01*
X58903Y298603D01*
X55597Y300512D01*
X51909Y301500D01*
D02*
G37*
G36*
X236898Y294740D02*
X233502D01*
X230171Y294077D01*
X227034Y292778D01*
X224210Y290891D01*
X221809Y288490D01*
X219922Y285666D01*
X218622Y282529D01*
X217960Y279198D01*
Y275802D01*
X218622Y272471D01*
X219922Y269334D01*
X221809Y266510D01*
X224210Y264109D01*
X227034Y262222D01*
X230171Y260923D01*
X233502Y260260D01*
X236898D01*
X240229Y260923D01*
X243366Y262222D01*
X246190Y264109D01*
X248591Y266510D01*
X250478Y269334D01*
X251777Y272471D01*
X252440Y275802D01*
Y279198D01*
X251777Y282529D01*
X250478Y285666D01*
X248591Y288490D01*
X246190Y290891D01*
X243366Y292778D01*
X240229Y294077D01*
X236898Y294740D01*
D02*
G37*
G36*
X523730Y229601D02*
X520399D01*
Y226500D01*
X523730D01*
Y229601D01*
D02*
G37*
G36*
X1123730D02*
X1120399D01*
Y226500D01*
X1123730D01*
Y229601D01*
D02*
G37*
G36*
X923730D02*
X920399D01*
Y226500D01*
X923730D01*
Y229601D01*
D02*
G37*
G36*
X723730D02*
X720399D01*
Y226500D01*
X723730D01*
Y229601D01*
D02*
G37*
G36*
X1523730D02*
X1520399D01*
Y226500D01*
X1523730D01*
Y229601D01*
D02*
G37*
G36*
X1323730D02*
X1320399D01*
Y226500D01*
X1323730D01*
Y229601D01*
D02*
G37*
G36*
X323730D02*
X320399D01*
Y226500D01*
X323730D01*
Y229601D01*
D02*
G37*
G36*
X125000Y247598D02*
X80000D01*
X78049Y247210D01*
X76395Y246105D01*
X75290Y244451D01*
X74902Y242500D01*
Y226169D01*
X73632Y225829D01*
X73314Y226380D01*
X71380Y228314D01*
X69010Y229682D01*
X68000Y229953D01*
Y220000D01*
Y210047D01*
X69010Y210318D01*
X71380Y211686D01*
X73314Y213620D01*
X73632Y214171D01*
X74902Y213831D01*
Y196169D01*
X73632Y195829D01*
X73314Y196380D01*
X71380Y198314D01*
X69010Y199682D01*
X68000Y199953D01*
Y190000D01*
Y180047D01*
X69010Y180318D01*
X71380Y181686D01*
X73314Y183620D01*
X73632Y184171D01*
X74902Y183831D01*
Y165089D01*
X73632Y164749D01*
X72882Y166048D01*
X71048Y167882D01*
X68802Y169179D01*
X66297Y169850D01*
X63703D01*
X61198Y169179D01*
X58952Y167882D01*
X57118Y166048D01*
X55821Y163802D01*
X55150Y161297D01*
Y158703D01*
X55821Y156198D01*
X57118Y153952D01*
X58952Y152118D01*
X61198Y150821D01*
X63703Y150150D01*
X66297D01*
X68802Y150821D01*
X71048Y152118D01*
X72882Y153952D01*
X73632Y155251D01*
X74902Y154911D01*
Y150000D01*
Y136169D01*
X73632Y135829D01*
X73314Y136380D01*
X71380Y138314D01*
X69010Y139682D01*
X68000Y139953D01*
Y130000D01*
Y120047D01*
X69010Y120318D01*
X71380Y121686D01*
X73314Y123620D01*
X73632Y124171D01*
X74902Y123831D01*
Y110390D01*
X68000D01*
Y100000D01*
Y89610D01*
X74980D01*
X75290Y88049D01*
X76395Y86395D01*
X78049Y85290D01*
X80000Y84902D01*
X89001D01*
X89330Y84968D01*
X89666Y84946D01*
X90297Y85160D01*
X90951Y85290D01*
X91231Y85477D01*
X91549Y85585D01*
X92051Y86025D01*
X92605Y86395D01*
X92792Y86675D01*
X93045Y86896D01*
X93186Y87183D01*
X93308Y87150D01*
X96692D01*
X96814Y87183D01*
X96955Y86896D01*
X97208Y86675D01*
X97395Y86395D01*
X97949Y86025D01*
X98450Y85585D01*
X98769Y85477D01*
X99049Y85290D01*
X99703Y85160D01*
X100334Y84946D01*
X100670Y84968D01*
X100999Y84902D01*
X250000Y84902D01*
X251951Y85290D01*
X253605Y86395D01*
X254710Y88049D01*
X255098Y90000D01*
Y92500D01*
X264166D01*
Y58988D01*
X264420Y57712D01*
X265142Y56630D01*
X266630Y55142D01*
X267712Y54420D01*
X268988Y54166D01*
X295400D01*
X296676Y54420D01*
X297758Y55142D01*
X307508Y64893D01*
X309334Y64404D01*
X311466D01*
X313525Y64956D01*
X315371Y66022D01*
X316878Y67529D01*
X317944Y69375D01*
X318496Y71434D01*
Y73566D01*
X317944Y75625D01*
X316878Y77471D01*
X315371Y78978D01*
X313525Y80044D01*
X311466Y80596D01*
X309334D01*
X307275Y80044D01*
X305429Y78978D01*
X303922Y77471D01*
X302856Y75625D01*
X302304Y73566D01*
Y71434D01*
X302793Y69608D01*
X294019Y60834D01*
X270834D01*
Y92500D01*
X298626D01*
X299112Y91327D01*
X287892Y80107D01*
X286066Y80596D01*
X283934D01*
X281875Y80044D01*
X280029Y78978D01*
X278522Y77471D01*
X277456Y75625D01*
X276904Y73566D01*
Y71434D01*
X277456Y69375D01*
X278522Y67529D01*
X280029Y66022D01*
X281875Y64956D01*
X283934Y64404D01*
X286066D01*
X288125Y64956D01*
X289971Y66022D01*
X291478Y67529D01*
X292544Y69375D01*
X293096Y71434D01*
Y73566D01*
X292607Y75392D01*
X309715Y92500D01*
X349902D01*
X350290Y90549D01*
X351395Y88895D01*
X353049Y87790D01*
X355000Y87402D01*
X419500D01*
X420690Y87639D01*
X421960Y86719D01*
Y85500D01*
X442040D01*
Y86719D01*
X443310Y87639D01*
X444500Y87402D01*
X455000D01*
X456951Y87790D01*
X458605Y88895D01*
X459710Y90549D01*
X460098Y92500D01*
X469166D01*
Y65000D01*
X469420Y63724D01*
X470143Y62642D01*
X472643Y60142D01*
X473724Y59420D01*
X475000Y59166D01*
X492644D01*
X493920Y59420D01*
X495002Y60142D01*
X501525Y66666D01*
X504086D01*
X504669Y66782D01*
X505429Y66022D01*
X507275Y64956D01*
X509334Y64404D01*
X511466D01*
X513525Y64956D01*
X515371Y66022D01*
X516878Y67529D01*
X517944Y69375D01*
X518496Y71434D01*
Y73566D01*
X517944Y75625D01*
X516878Y77471D01*
X515371Y78978D01*
X513525Y80044D01*
X511466Y80596D01*
X509334D01*
X507275Y80044D01*
X505429Y78978D01*
X503922Y77471D01*
X502856Y75625D01*
X502304Y73566D01*
Y73334D01*
X500144D01*
X498868Y73080D01*
X497786Y72358D01*
X492927Y67498D01*
X491911Y68278D01*
X492544Y69375D01*
X493096Y71434D01*
Y73566D01*
X492607Y75392D01*
X509715Y92500D01*
X549902D01*
X550290Y90549D01*
X551395Y88895D01*
X553049Y87790D01*
X555000Y87402D01*
X619500D01*
X620690Y87639D01*
X621960Y86719D01*
Y85500D01*
X642040D01*
Y86719D01*
X643310Y87639D01*
X644500Y87402D01*
X655000D01*
X656951Y87790D01*
X658605Y88895D01*
X659710Y90549D01*
X660098Y92500D01*
X666666D01*
Y62500D01*
X666920Y61224D01*
X667643Y60142D01*
X677643Y50142D01*
X678724Y49420D01*
X680000Y49166D01*
X695000D01*
X696276Y49420D01*
X697357Y50142D01*
X710911Y63696D01*
X711384Y64404D01*
X711466D01*
X713525Y64956D01*
X715371Y66022D01*
X716878Y67529D01*
X717944Y69375D01*
X718496Y71434D01*
Y73566D01*
X717944Y75625D01*
X716878Y77471D01*
X715371Y78978D01*
X713525Y80044D01*
X711466Y80596D01*
X709334D01*
X707275Y80044D01*
X705429Y78978D01*
X703922Y77471D01*
X702856Y75625D01*
X702304Y73566D01*
Y71434D01*
X702856Y69375D01*
X703922Y67529D01*
X704618Y66833D01*
X693619Y55834D01*
X681381D01*
X673334Y63881D01*
Y92500D01*
X698626D01*
X699112Y91327D01*
X687892Y80107D01*
X686066Y80596D01*
X683934D01*
X681875Y80044D01*
X680029Y78978D01*
X678522Y77471D01*
X677456Y75625D01*
X676904Y73566D01*
Y71434D01*
X677456Y69375D01*
X678522Y67529D01*
X680029Y66022D01*
X681875Y64956D01*
X683934Y64404D01*
X686066D01*
X688125Y64956D01*
X689971Y66022D01*
X691478Y67529D01*
X692544Y69375D01*
X693096Y71434D01*
Y73566D01*
X692607Y75392D01*
X709715Y92500D01*
X749902D01*
X750290Y90549D01*
X751395Y88895D01*
X753049Y87790D01*
X755000Y87402D01*
X819500D01*
X820690Y87639D01*
X821960Y86719D01*
Y85500D01*
X842040D01*
Y86719D01*
X843310Y87639D01*
X844500Y87402D01*
X855000D01*
X856951Y87790D01*
X858605Y88895D01*
X859710Y90549D01*
X860098Y92500D01*
X866666D01*
Y65000D01*
X866666Y65000D01*
X866920Y63724D01*
X867643Y62642D01*
X875142Y55142D01*
X876224Y54420D01*
X877500Y54166D01*
X897500D01*
X898776Y54420D01*
X899857Y55142D01*
X909165Y64450D01*
X909334Y64404D01*
X911466D01*
X913525Y64956D01*
X915371Y66022D01*
X916878Y67529D01*
X917944Y69375D01*
X918496Y71434D01*
Y73566D01*
X917944Y75625D01*
X916878Y77471D01*
X915371Y78978D01*
X913525Y80044D01*
X911466Y80596D01*
X909334D01*
X907275Y80044D01*
X905429Y78978D01*
X903922Y77471D01*
X902856Y75625D01*
X902304Y73566D01*
Y71434D01*
X902856Y69375D01*
X903516Y68231D01*
X896119Y60834D01*
X878881D01*
X873334Y66381D01*
Y92500D01*
X898626D01*
X899112Y91327D01*
X887892Y80107D01*
X886066Y80596D01*
X883934D01*
X881875Y80044D01*
X880029Y78978D01*
X878522Y77471D01*
X877456Y75625D01*
X876904Y73566D01*
Y71434D01*
X877456Y69375D01*
X878522Y67529D01*
X880029Y66022D01*
X881875Y64956D01*
X883934Y64404D01*
X886066D01*
X888125Y64956D01*
X889971Y66022D01*
X891478Y67529D01*
X892544Y69375D01*
X893096Y71434D01*
Y73566D01*
X892607Y75392D01*
X909715Y92500D01*
X949902D01*
X950290Y90549D01*
X951395Y88895D01*
X953049Y87790D01*
X955000Y87402D01*
X1019500D01*
X1020690Y87639D01*
X1021960Y86719D01*
Y85500D01*
X1042040D01*
Y86719D01*
X1043310Y87639D01*
X1044500Y87402D01*
X1055000D01*
X1056951Y87790D01*
X1058605Y88895D01*
X1059710Y90549D01*
X1060098Y92500D01*
X1066666D01*
Y65000D01*
X1066920Y63724D01*
X1067643Y62642D01*
X1075143Y55142D01*
X1076224Y54420D01*
X1077500Y54166D01*
X1095400D01*
X1096676Y54420D01*
X1097758Y55142D01*
X1107508Y64893D01*
X1109334Y64404D01*
X1111466D01*
X1113525Y64956D01*
X1115371Y66022D01*
X1116878Y67529D01*
X1117944Y69375D01*
X1118496Y71434D01*
Y73566D01*
X1117944Y75625D01*
X1116878Y77471D01*
X1115371Y78978D01*
X1113525Y80044D01*
X1111466Y80596D01*
X1109334D01*
X1107275Y80044D01*
X1105429Y78978D01*
X1103922Y77471D01*
X1102856Y75625D01*
X1102304Y73566D01*
Y71434D01*
X1102793Y69608D01*
X1094019Y60834D01*
X1078881D01*
X1073334Y66381D01*
Y92500D01*
X1098626D01*
X1099112Y91327D01*
X1087892Y80107D01*
X1086066Y80596D01*
X1083934D01*
X1081875Y80044D01*
X1080029Y78978D01*
X1078522Y77471D01*
X1077456Y75625D01*
X1076904Y73566D01*
Y71434D01*
X1077456Y69375D01*
X1078522Y67529D01*
X1080029Y66022D01*
X1081875Y64956D01*
X1083934Y64404D01*
X1086066D01*
X1088125Y64956D01*
X1089971Y66022D01*
X1091478Y67529D01*
X1092544Y69375D01*
X1093096Y71434D01*
Y73566D01*
X1092607Y75392D01*
X1109715Y92500D01*
X1149902D01*
X1150290Y90549D01*
X1151395Y88895D01*
X1153049Y87790D01*
X1155000Y87402D01*
X1219500D01*
X1220690Y87639D01*
X1221960Y86719D01*
Y85500D01*
X1242040D01*
Y86719D01*
X1243310Y87639D01*
X1244500Y87402D01*
X1255000D01*
X1256951Y87790D01*
X1258605Y88895D01*
X1259710Y90549D01*
X1260098Y92500D01*
X1266666D01*
Y57500D01*
X1266666Y57500D01*
X1266920Y56224D01*
X1267642Y55142D01*
X1270143Y52642D01*
X1271224Y51920D01*
X1272500Y51666D01*
X1285356D01*
X1286632Y51920D01*
X1287713Y52642D01*
X1302754Y67683D01*
X1303922Y67529D01*
X1305429Y66022D01*
X1307275Y64956D01*
X1309334Y64404D01*
X1311466D01*
X1313525Y64956D01*
X1315371Y66022D01*
X1316878Y67529D01*
X1317944Y69375D01*
X1318496Y71434D01*
Y73566D01*
X1317944Y75625D01*
X1316878Y77471D01*
X1315371Y78978D01*
X1313525Y80044D01*
X1311466Y80596D01*
X1309334D01*
X1307275Y80044D01*
X1305429Y78978D01*
X1303922Y77471D01*
X1302856Y75625D01*
X1302726Y75142D01*
X1302163D01*
X1300887Y74888D01*
X1299806Y74165D01*
X1292638Y66997D01*
X1291622Y67777D01*
X1292544Y69375D01*
X1293096Y71434D01*
Y73566D01*
X1292607Y75392D01*
X1309715Y92500D01*
X1349902D01*
X1350290Y90549D01*
X1351395Y88895D01*
X1353049Y87790D01*
X1355000Y87402D01*
X1419500D01*
X1420690Y87639D01*
X1421960Y86719D01*
Y85500D01*
X1442040D01*
Y86719D01*
X1443310Y87639D01*
X1444500Y87402D01*
X1455000D01*
X1456951Y87790D01*
X1458605Y88895D01*
X1459710Y90549D01*
X1460098Y92500D01*
X1469166D01*
Y57589D01*
X1469420Y56313D01*
X1470143Y55231D01*
X1471630Y53743D01*
X1472712Y53021D01*
X1473988Y52767D01*
X1494001D01*
X1495277Y53021D01*
X1496358Y53743D01*
X1507508Y64893D01*
X1509334Y64404D01*
X1511466D01*
X1513525Y64956D01*
X1515371Y66022D01*
X1516878Y67529D01*
X1517944Y69375D01*
X1518496Y71434D01*
Y73566D01*
X1517944Y75625D01*
X1516878Y77471D01*
X1515371Y78978D01*
X1513525Y80044D01*
X1511466Y80596D01*
X1509334D01*
X1507275Y80044D01*
X1505429Y78978D01*
X1503922Y77471D01*
X1502856Y75625D01*
X1502304Y73566D01*
Y71434D01*
X1502793Y69608D01*
X1492620Y59435D01*
X1475834D01*
Y70520D01*
X1477104Y70687D01*
X1477456Y69375D01*
X1478522Y67529D01*
X1480029Y66022D01*
X1481875Y64956D01*
X1483934Y64404D01*
X1486066D01*
X1488125Y64956D01*
X1489971Y66022D01*
X1491478Y67529D01*
X1492544Y69375D01*
X1493096Y71434D01*
Y73566D01*
X1492607Y75392D01*
X1509715Y92500D01*
X1549902D01*
X1550290Y90549D01*
X1551395Y88895D01*
X1553049Y87790D01*
X1555000Y87402D01*
X1619500D01*
X1620690Y87639D01*
X1621960Y86719D01*
Y85500D01*
X1642040D01*
Y86719D01*
X1643310Y87639D01*
X1644500Y87402D01*
X1655000D01*
X1656951Y87790D01*
X1658605Y88895D01*
X1659710Y90549D01*
X1660098Y92500D01*
Y110000D01*
Y152402D01*
X1659710Y154353D01*
X1658605Y156007D01*
X1656951Y157112D01*
X1655000Y157500D01*
X1615000D01*
X1613605Y158895D01*
X1611951Y160000D01*
X1610000Y160388D01*
X1610000D01*
X1609604Y160309D01*
X1608548Y161015D01*
X1608460Y161460D01*
X1607765Y162500D01*
X1607531Y162850D01*
X1606140Y163779D01*
X1604500Y164106D01*
X1602860Y163779D01*
X1601469Y162850D01*
X1601031D01*
X1599640Y163779D01*
X1598000Y164106D01*
X1596360Y163779D01*
X1594969Y162850D01*
X1594531D01*
X1593140Y163779D01*
X1591500Y164106D01*
X1589860Y163779D01*
X1588806Y163076D01*
D01*
X1588469Y162850D01*
X1588235Y162500D01*
X1587690D01*
X1587670Y162490D01*
X1587655Y162500D01*
X1586445Y163308D01*
X1585000Y163596D01*
X1583555Y163308D01*
X1582913Y162880D01*
X1582345Y162500D01*
X1581155D01*
X1580587Y162880D01*
X1579945Y163308D01*
X1578500Y163596D01*
X1577055Y163308D01*
X1575845Y162500D01*
D01*
X1575830Y162490D01*
X1575811Y162500D01*
X1575314D01*
X1575575Y162109D01*
X1575011Y161265D01*
X1574723Y159819D01*
Y154746D01*
X1569204D01*
Y163056D01*
X1570343Y163817D01*
X1569204Y163523D01*
X1569204Y163523D01*
X1569204Y163523D01*
X1561796D01*
Y162500D01*
Y145969D01*
X1569204D01*
X1569204Y145969D01*
X1570340Y145677D01*
X1570344Y145675D01*
X1570344Y145675D01*
X1572000Y145346D01*
X1573656Y145675D01*
X1573896Y145836D01*
X1575166Y145157D01*
Y135834D01*
X1556000D01*
Y142000D01*
X1544000D01*
Y128000D01*
X1551631D01*
X1552117Y126827D01*
X1551395Y126105D01*
X1550290Y124451D01*
X1549902Y122500D01*
Y110000D01*
X1515834D01*
Y135500D01*
X1518500D01*
Y149500D01*
X1506500D01*
Y135500D01*
X1509166D01*
Y110000D01*
X1475834D01*
Y149795D01*
X1491713Y165674D01*
X1501158D01*
Y179326D01*
X1486490D01*
Y169881D01*
X1470143Y153533D01*
X1469420Y152452D01*
X1469166Y151176D01*
Y110000D01*
X1460098D01*
Y152402D01*
X1459710Y154353D01*
X1458605Y156007D01*
X1456951Y157112D01*
X1455000Y157500D01*
X1415000D01*
X1413605Y158895D01*
X1411951Y160000D01*
X1410000Y160388D01*
X1410000D01*
X1409604Y160309D01*
X1408548Y161015D01*
X1408460Y161460D01*
X1407765Y162500D01*
X1407531Y162850D01*
X1406140Y163779D01*
X1404500Y164106D01*
X1402860Y163779D01*
X1401469Y162850D01*
X1401031D01*
X1399640Y163779D01*
X1398000Y164106D01*
X1396360Y163779D01*
X1394969Y162850D01*
X1394531D01*
X1393140Y163779D01*
X1391500Y164106D01*
X1389860Y163779D01*
X1388806Y163076D01*
D01*
X1388469Y162850D01*
X1388235Y162500D01*
X1387690D01*
X1387670Y162490D01*
X1387655Y162500D01*
X1386445Y163308D01*
X1385000Y163596D01*
X1383555Y163308D01*
X1382913Y162880D01*
X1382345Y162500D01*
X1381155D01*
X1380587Y162880D01*
X1379945Y163308D01*
X1378500Y163596D01*
X1377055Y163308D01*
X1375845Y162500D01*
D01*
X1375830Y162490D01*
X1375811Y162500D01*
X1375314D01*
X1375575Y162109D01*
X1375011Y161265D01*
X1374723Y159819D01*
Y154746D01*
X1369204D01*
Y163056D01*
X1370343Y163817D01*
X1369204Y163523D01*
X1369204Y163523D01*
X1369204Y163523D01*
X1361796D01*
Y162500D01*
Y145969D01*
X1369204D01*
X1369204Y145969D01*
X1370340Y145677D01*
X1370344Y145675D01*
X1370344Y145675D01*
X1372000Y145346D01*
X1373656Y145675D01*
X1373896Y145836D01*
X1375166Y145157D01*
Y135419D01*
X1356000D01*
Y142000D01*
X1344000D01*
Y128000D01*
X1351631D01*
X1352117Y126827D01*
X1351395Y126105D01*
X1350290Y124451D01*
X1349902Y122500D01*
Y110000D01*
X1315834D01*
Y135500D01*
X1318500D01*
Y149500D01*
X1306500D01*
Y135500D01*
X1309166D01*
Y110000D01*
X1273334D01*
Y147295D01*
X1291713Y165674D01*
X1301158D01*
Y179326D01*
X1286490D01*
Y169881D01*
X1267643Y151033D01*
X1266920Y149952D01*
X1266666Y148676D01*
Y110000D01*
X1260098D01*
Y152402D01*
X1259710Y154353D01*
X1258605Y156007D01*
X1256951Y157112D01*
X1255000Y157500D01*
X1215000D01*
X1213605Y158895D01*
X1211951Y160000D01*
X1210000Y160388D01*
X1210000D01*
X1209604Y160309D01*
X1208548Y161015D01*
X1208460Y161460D01*
X1207765Y162500D01*
X1207531Y162850D01*
X1206140Y163779D01*
X1204500Y164106D01*
X1202860Y163779D01*
X1201469Y162850D01*
X1201031D01*
X1199640Y163779D01*
X1198000Y164106D01*
X1196360Y163779D01*
X1195976Y163523D01*
X1195722Y163353D01*
X1194750Y162943D01*
X1193778Y163353D01*
D01*
X1193140Y163779D01*
X1191500Y164106D01*
X1189860Y163779D01*
X1188469Y162850D01*
X1188235Y162500D01*
X1187690D01*
X1187670Y162490D01*
X1187655Y162500D01*
X1186445Y163308D01*
X1185000Y163596D01*
X1183555Y163308D01*
X1183177Y163056D01*
X1182345Y162500D01*
X1182330Y162490D01*
X1181170D01*
X1179945Y163308D01*
X1178500Y163596D01*
X1177055Y163308D01*
X1175845Y162500D01*
D01*
X1175830Y162490D01*
X1175811Y162500D01*
X1175314D01*
X1175575Y162109D01*
X1175011Y161265D01*
X1174723Y159819D01*
Y154746D01*
X1169204D01*
Y163056D01*
X1170342Y163817D01*
X1169204Y163523D01*
X1169204Y163523D01*
X1169204Y163523D01*
X1161796D01*
Y162500D01*
Y145969D01*
X1169204D01*
X1169204Y145969D01*
X1170340Y145677D01*
X1170344Y145675D01*
X1170344Y145675D01*
X1172000Y145346D01*
X1173656Y145675D01*
X1173896Y145836D01*
X1175166Y145157D01*
Y135834D01*
X1156000D01*
Y142000D01*
X1144000D01*
Y128000D01*
X1151631D01*
X1152117Y126827D01*
X1151395Y126105D01*
X1150290Y124451D01*
X1149902Y122500D01*
Y110000D01*
X1115834D01*
Y135500D01*
X1118500D01*
Y149500D01*
X1106500D01*
Y135500D01*
X1109166D01*
Y110000D01*
X1073334D01*
Y147295D01*
X1091713Y165674D01*
X1101158D01*
Y179326D01*
X1086490D01*
Y169881D01*
X1067643Y151033D01*
X1066920Y149952D01*
X1066666Y148676D01*
Y110000D01*
X1060098D01*
Y152402D01*
X1059710Y154353D01*
X1058605Y156007D01*
X1056951Y157112D01*
X1055000Y157500D01*
X1015000D01*
X1013605Y158895D01*
X1011951Y160000D01*
X1010000Y160388D01*
X1010000D01*
X1009604Y160309D01*
X1008548Y161015D01*
X1008460Y161460D01*
X1007765Y162500D01*
X1007531Y162850D01*
X1006140Y163779D01*
X1004500Y164106D01*
X1002860Y163779D01*
X1001469Y162850D01*
X1001031D01*
X999640Y163779D01*
X998000Y164106D01*
X996360Y163779D01*
X995976Y163523D01*
X995722Y163353D01*
X994750Y162943D01*
X993778Y163353D01*
D01*
X993140Y163779D01*
X991500Y164106D01*
X989860Y163779D01*
X988469Y162850D01*
X988235Y162500D01*
X987690D01*
X987670Y162490D01*
X987655Y162500D01*
X986445Y163308D01*
X985000Y163596D01*
X983555Y163308D01*
X983177Y163056D01*
X982345Y162500D01*
X982330Y162490D01*
X981170D01*
X979945Y163308D01*
X978500Y163596D01*
X977055Y163308D01*
X975845Y162500D01*
D01*
X975830Y162490D01*
X975811Y162500D01*
X975314D01*
X975575Y162109D01*
X975011Y161265D01*
X974723Y159819D01*
Y154746D01*
X969204D01*
Y163056D01*
X970342Y163817D01*
X969204Y163523D01*
X969204Y163523D01*
X969204Y163523D01*
X961796D01*
Y162500D01*
Y145969D01*
X969204D01*
X969204Y145969D01*
X970340Y145677D01*
X970344Y145675D01*
X970344Y145675D01*
X972000Y145346D01*
X973656Y145675D01*
X973896Y145836D01*
X975166Y145157D01*
Y135834D01*
X956000D01*
Y142000D01*
X944000D01*
Y128000D01*
X951631D01*
X952117Y126827D01*
X951395Y126105D01*
X950290Y124451D01*
X949902Y122500D01*
Y110000D01*
X915834D01*
Y134602D01*
X916732Y135500D01*
X918500Y135500D01*
Y134144D01*
X918943Y132491D01*
X919799Y131009D01*
X921009Y129799D01*
X922491Y128943D01*
X924144Y128500D01*
X925856D01*
X927509Y128943D01*
X927730Y129071D01*
X929000Y128337D01*
Y128000D01*
X941000D01*
Y142000D01*
X939334D01*
Y149000D01*
X942000D01*
Y161000D01*
X932715D01*
X931428Y162287D01*
X931914Y163460D01*
X942540D01*
Y166000D01*
X935000D01*
Y170000D01*
X931000D01*
Y176540D01*
X927460D01*
Y167339D01*
X926190Y166296D01*
X926000Y166334D01*
X922334D01*
Y169826D01*
X907666D01*
Y156174D01*
X922334D01*
Y159666D01*
X924619D01*
X928000Y156285D01*
Y149000D01*
X932666D01*
Y142000D01*
X929000D01*
Y141663D01*
X927730Y140929D01*
X927509Y141057D01*
X925856Y141500D01*
X924144D01*
X922491Y141057D01*
X921009Y140201D01*
X919799Y138991D01*
X919770Y138941D01*
X918500Y139282D01*
Y149500D01*
X906500D01*
Y135500D01*
X909166D01*
Y110000D01*
X873334D01*
Y147295D01*
X891713Y165674D01*
X901158D01*
Y179326D01*
X886490D01*
Y169881D01*
X867643Y151033D01*
X866920Y149952D01*
X866666Y148676D01*
Y110000D01*
X860098D01*
Y152402D01*
X859710Y154353D01*
X858605Y156007D01*
X856951Y157112D01*
X855000Y157500D01*
X815000D01*
X813605Y158895D01*
X811951Y160000D01*
X810000Y160388D01*
X810000D01*
X809604Y160309D01*
X808548Y161015D01*
X808460Y161460D01*
X807765Y162500D01*
X807531Y162850D01*
X806140Y163779D01*
X804500Y164106D01*
X802860Y163779D01*
X801469Y162850D01*
X801031D01*
X799640Y163779D01*
X798000Y164106D01*
X796360Y163779D01*
X795976Y163523D01*
X795722Y163353D01*
X794750Y162943D01*
X793778Y163353D01*
D01*
X793140Y163779D01*
X791500Y164106D01*
X789860Y163779D01*
X788469Y162850D01*
X788235Y162500D01*
X787690D01*
X787670Y162490D01*
X786992Y162943D01*
X786445Y163308D01*
X785000Y163596D01*
X783555Y163308D01*
X783177Y163056D01*
X782345Y162500D01*
X782330Y162490D01*
X781170D01*
X779945Y163308D01*
X778500Y163596D01*
X777055Y163308D01*
X775845Y162500D01*
D01*
X775830Y162490D01*
X775811Y162500D01*
X775314D01*
X775575Y162109D01*
X775011Y161265D01*
X774723Y159819D01*
Y154746D01*
X769204D01*
Y163056D01*
X770342Y163817D01*
X769204Y163523D01*
X769204Y163523D01*
X769204Y163523D01*
X761796D01*
Y162500D01*
Y145969D01*
X769204D01*
X769204Y145969D01*
X770340Y145677D01*
X770344Y145675D01*
X770344Y145675D01*
X772000Y145346D01*
X773656Y145675D01*
X773896Y145836D01*
X775166Y145157D01*
Y135834D01*
X756000D01*
Y142000D01*
X744000D01*
Y128000D01*
X751631D01*
X752117Y126827D01*
X751395Y126105D01*
X750290Y124451D01*
X749902Y122500D01*
Y110000D01*
X715834D01*
Y134602D01*
X716732Y135500D01*
X718500Y135500D01*
Y134144D01*
X718943Y132491D01*
X719799Y131009D01*
X721009Y129799D01*
X722491Y128943D01*
X724144Y128500D01*
X725856D01*
X727509Y128943D01*
X727730Y129071D01*
X729000Y128337D01*
Y128000D01*
X741000D01*
Y142000D01*
X739334D01*
Y149000D01*
X742000D01*
Y161000D01*
X732715D01*
X731428Y162287D01*
X731914Y163460D01*
X742540D01*
Y166000D01*
X735000D01*
Y170000D01*
X731000D01*
Y176540D01*
X727460D01*
Y167339D01*
X726190Y166296D01*
X726000Y166334D01*
X722334D01*
Y169826D01*
X707666D01*
Y156174D01*
X722334D01*
Y159666D01*
X724619D01*
X728000Y156285D01*
Y149000D01*
X732666D01*
Y142000D01*
X729000D01*
Y141663D01*
X727730Y140929D01*
X727509Y141057D01*
X725856Y141500D01*
X724144D01*
X722491Y141057D01*
X721009Y140201D01*
X719799Y138991D01*
X719770Y138941D01*
X718500Y139282D01*
Y149500D01*
X706500D01*
Y135500D01*
X709166D01*
Y110000D01*
X673334D01*
Y147295D01*
X691713Y165674D01*
X701158D01*
Y179326D01*
X686490D01*
Y169881D01*
X667643Y151033D01*
X666920Y149952D01*
X666666Y148676D01*
Y110000D01*
X660098D01*
Y152402D01*
X659710Y154353D01*
X658605Y156007D01*
X656951Y157112D01*
X655000Y157500D01*
X615000D01*
X613605Y158895D01*
X611951Y160000D01*
X610000Y160388D01*
X610000D01*
X609604Y160309D01*
X608548Y161015D01*
X608460Y161460D01*
X607765Y162500D01*
X607531Y162850D01*
X606140Y163779D01*
X604500Y164106D01*
X602860Y163779D01*
X601469Y162850D01*
X601031D01*
X599640Y163779D01*
X598000Y164106D01*
X596360Y163779D01*
X595976Y163523D01*
X595722Y163353D01*
X594750Y162943D01*
X593778Y163353D01*
D01*
X593140Y163779D01*
X591500Y164106D01*
X589860Y163779D01*
X588469Y162850D01*
X588235Y162500D01*
X587690D01*
X587670Y162490D01*
X586992Y162943D01*
X586445Y163308D01*
X585000Y163596D01*
X583555Y163308D01*
X583177Y163056D01*
X582345Y162500D01*
X582330Y162490D01*
X581170D01*
X579945Y163308D01*
X578500Y163596D01*
X577055Y163308D01*
X575845Y162500D01*
D01*
X575830Y162490D01*
X575811Y162500D01*
X575314D01*
X575575Y162109D01*
X575011Y161265D01*
X574723Y159819D01*
Y154746D01*
X569204D01*
Y163056D01*
X570342Y163817D01*
X569204Y163523D01*
X569204Y163523D01*
X569204Y163523D01*
X561796D01*
Y162500D01*
Y145969D01*
X569204D01*
X569204Y145969D01*
X570340Y145677D01*
X570344Y145675D01*
X570344Y145675D01*
X572000Y145346D01*
X573656Y145675D01*
X573896Y145836D01*
X575166Y145157D01*
Y135834D01*
X556000D01*
Y142000D01*
X544000D01*
Y128000D01*
X551631D01*
X552117Y126827D01*
X551395Y126105D01*
X550290Y124451D01*
X549902Y122500D01*
Y110000D01*
X515834D01*
Y134602D01*
X516732Y135500D01*
X518500Y135500D01*
X518500Y134144D01*
X518943Y132491D01*
X519799Y131009D01*
X521009Y129799D01*
X522491Y128943D01*
X524144Y128500D01*
X525856D01*
X527509Y128943D01*
X527730Y129071D01*
X529000Y128337D01*
Y128000D01*
X541000D01*
Y142000D01*
X539334D01*
Y149000D01*
X542000D01*
Y161000D01*
X532715D01*
X531428Y162287D01*
X531914Y163460D01*
X542540D01*
Y166000D01*
X535000D01*
Y170000D01*
X531000D01*
Y176540D01*
X527460D01*
Y167339D01*
X526190Y166296D01*
X526000Y166334D01*
X522334D01*
Y169826D01*
X507666D01*
Y156174D01*
X522334D01*
Y159666D01*
X524619D01*
X528000Y156285D01*
Y149000D01*
X532666D01*
Y142000D01*
X529000D01*
Y141663D01*
X527730Y140929D01*
X527509Y141057D01*
X525856Y141500D01*
X524144D01*
X522491Y141057D01*
X521009Y140201D01*
X519799Y138991D01*
X519770Y138941D01*
X518500Y139282D01*
Y149500D01*
X506500D01*
Y135500D01*
X509166D01*
Y110000D01*
X475834D01*
Y149795D01*
X491713Y165674D01*
X501158D01*
Y179326D01*
X486490D01*
Y169881D01*
X470143Y153533D01*
X469420Y152452D01*
X469166Y151176D01*
Y110000D01*
X460098D01*
Y152402D01*
X459710Y154353D01*
X458605Y156007D01*
X456951Y157112D01*
X455000Y157500D01*
X415000D01*
X413605Y158895D01*
X411951Y160000D01*
X410000Y160388D01*
X410000D01*
X409604Y160309D01*
X408548Y161015D01*
X408460Y161460D01*
X407765Y162500D01*
X407531Y162850D01*
X406140Y163779D01*
X404500Y164106D01*
X402860Y163779D01*
X401469Y162850D01*
X401031D01*
X399640Y163779D01*
X398000Y164106D01*
X396360Y163779D01*
X395722Y163353D01*
X394750Y162943D01*
X393778Y163353D01*
X393140Y163779D01*
X391500Y164106D01*
X389860Y163779D01*
X388469Y162850D01*
X388235Y162500D01*
X387690D01*
X387670Y162490D01*
X387655Y162500D01*
D01*
X386445Y163308D01*
X385000Y163596D01*
X383555Y163308D01*
X382869Y162850D01*
X382345Y162500D01*
X382330Y162490D01*
X381170D01*
X381155Y162500D01*
X380631Y162850D01*
X379945Y163308D01*
X378500Y163596D01*
X377055Y163308D01*
X375845Y162500D01*
D01*
X375830Y162490D01*
X375811Y162500D01*
X375314D01*
X375575Y162109D01*
X375011Y161265D01*
X374723Y159819D01*
Y154746D01*
X369204D01*
Y163056D01*
X370343Y163817D01*
X369204Y163523D01*
X369204Y163523D01*
X369204Y163523D01*
X361796D01*
Y162500D01*
Y145969D01*
X369204D01*
X369204Y145969D01*
X370340Y145677D01*
X370344Y145675D01*
X370344Y145675D01*
X372000Y145346D01*
X373656Y145675D01*
X373896Y145836D01*
X375166Y145157D01*
Y135834D01*
X356000D01*
Y142000D01*
X344000D01*
Y128000D01*
X351631D01*
X352117Y126827D01*
X351395Y126105D01*
X350290Y124451D01*
X349902Y122500D01*
Y110000D01*
X315834D01*
Y135500D01*
X318500D01*
Y149500D01*
X306500D01*
Y135500D01*
X309166D01*
Y110000D01*
X270834D01*
Y144795D01*
X291713Y165674D01*
X301158D01*
Y179326D01*
X286490D01*
Y169881D01*
X265142Y148533D01*
X264420Y147452D01*
X264166Y146176D01*
Y110000D01*
X255098D01*
X255098Y160000D01*
X254710Y161951D01*
X253605Y163605D01*
X251951Y164710D01*
X250000Y165098D01*
X130098D01*
Y242500D01*
X129710Y244451D01*
X128605Y246105D01*
X126951Y247210D01*
X125000Y247598D01*
D02*
G37*
G36*
X187540Y244040D02*
X179000D01*
Y225000D01*
X187540D01*
Y244040D01*
D02*
G37*
G36*
X171000D02*
X162460D01*
Y225000D01*
X171000D01*
Y244040D01*
D02*
G37*
G36*
X62000Y229953D02*
X60990Y229682D01*
X58620Y228314D01*
X56686Y226380D01*
X55318Y224010D01*
X55047Y223000D01*
X62000D01*
Y229953D01*
D02*
G37*
G36*
X1123730Y218500D02*
X1120399D01*
Y215399D01*
X1123730D01*
Y218500D01*
D02*
G37*
G36*
X923730D02*
X920399D01*
Y215399D01*
X923730D01*
Y218500D01*
D02*
G37*
G36*
X723730D02*
X720399D01*
Y215399D01*
X723730D01*
Y218500D01*
D02*
G37*
G36*
X523730D02*
X520399D01*
Y215399D01*
X523730D01*
Y218500D01*
D02*
G37*
G36*
X1523730D02*
X1520399D01*
Y215399D01*
X1523730D01*
Y218500D01*
D02*
G37*
G36*
X1323730D02*
X1320399D01*
Y215399D01*
X1323730D01*
Y218500D01*
D02*
G37*
G36*
X323730D02*
X320399D01*
Y215399D01*
X323730D01*
Y218500D01*
D02*
G37*
G36*
X62000Y217000D02*
X55047D01*
X55318Y215990D01*
X56686Y213620D01*
X58620Y211686D01*
X60990Y210318D01*
X62000Y210047D01*
Y217000D01*
D02*
G37*
G36*
X187540D02*
X179000D01*
Y197960D01*
X187540D01*
Y217000D01*
D02*
G37*
G36*
X171000D02*
X162460D01*
Y197960D01*
X171000D01*
Y217000D01*
D02*
G37*
G36*
X62000Y199953D02*
X60990Y199682D01*
X58620Y198314D01*
X56686Y196380D01*
X55318Y194010D01*
X55047Y193000D01*
X62000D01*
Y199953D01*
D02*
G37*
G36*
X1048540Y192540D02*
X1036500D01*
Y187500D01*
X1048540D01*
Y192540D01*
D02*
G37*
G36*
X848540D02*
X836500D01*
Y187500D01*
X848540D01*
Y192540D01*
D02*
G37*
G36*
X648540D02*
X636500D01*
Y187500D01*
X648540D01*
Y192540D01*
D02*
G37*
G36*
X1248540D02*
X1236500D01*
Y187500D01*
X1248540D01*
Y192540D01*
D02*
G37*
G36*
X448540D02*
X436500D01*
Y187500D01*
X448540D01*
Y192540D01*
D02*
G37*
G36*
X1648540D02*
X1636500D01*
Y187500D01*
X1648540D01*
Y192540D01*
D02*
G37*
G36*
X1448540D02*
X1436500D01*
Y187500D01*
X1448540D01*
Y192540D01*
D02*
G37*
G36*
X1628500D02*
X1616460D01*
Y187500D01*
X1628500D01*
Y192540D01*
D02*
G37*
G36*
X1428500D02*
X1416460D01*
Y187500D01*
X1428500D01*
Y192540D01*
D02*
G37*
G36*
X428500D02*
X416460D01*
Y187500D01*
X428500D01*
Y192540D01*
D02*
G37*
G36*
X1028500D02*
X1016460D01*
Y187500D01*
X1028500D01*
Y192540D01*
D02*
G37*
G36*
X828500D02*
X816460D01*
Y187500D01*
X828500D01*
Y192540D01*
D02*
G37*
G36*
X628500D02*
X616460D01*
Y187500D01*
X628500D01*
Y192540D01*
D02*
G37*
G36*
X1228500D02*
X1216460D01*
Y187500D01*
X1228500D01*
Y192540D01*
D02*
G37*
G36*
X1599090Y197340D02*
X1589000D01*
Y186500D01*
X1599090D01*
Y197340D01*
D02*
G37*
G36*
X1399090D02*
X1389000D01*
Y186500D01*
X1399090D01*
Y197340D01*
D02*
G37*
G36*
X1581000D02*
X1570910D01*
Y186500D01*
X1581000D01*
Y197340D01*
D02*
G37*
G36*
X1381000D02*
X1370910D01*
Y186500D01*
X1381000D01*
Y197340D01*
D02*
G37*
G36*
X399090D02*
X389000D01*
Y186500D01*
X399090D01*
Y197340D01*
D02*
G37*
G36*
X381000D02*
X370910D01*
Y186500D01*
X381000D01*
Y197340D01*
D02*
G37*
G36*
X1199090D02*
X1189000D01*
Y186500D01*
X1199090D01*
Y197340D01*
D02*
G37*
G36*
X999090D02*
X989000D01*
Y186500D01*
X999090D01*
Y197340D01*
D02*
G37*
G36*
X799090D02*
X789000D01*
Y186500D01*
X799090D01*
Y197340D01*
D02*
G37*
G36*
X599090D02*
X589000D01*
Y186500D01*
X599090D01*
Y197340D01*
D02*
G37*
G36*
X1181000D02*
X1170910D01*
Y186500D01*
X1181000D01*
Y197340D01*
D02*
G37*
G36*
X981000D02*
X970910D01*
Y186500D01*
X981000D01*
Y197340D01*
D02*
G37*
G36*
X781000D02*
X770910D01*
Y186500D01*
X781000D01*
Y197340D01*
D02*
G37*
G36*
X581000D02*
X570910D01*
Y186500D01*
X581000D01*
Y197340D01*
D02*
G37*
G36*
X1522874Y189518D02*
X1519000D01*
Y186152D01*
X1522874D01*
Y189518D01*
D02*
G37*
G36*
X1322874D02*
X1319000D01*
Y186152D01*
X1322874D01*
Y189518D01*
D02*
G37*
G36*
X1511000D02*
X1507126D01*
Y186152D01*
X1511000D01*
Y189518D01*
D02*
G37*
G36*
X1311000D02*
X1307126D01*
Y186152D01*
X1311000D01*
Y189518D01*
D02*
G37*
G36*
X322874D02*
X319000D01*
Y186152D01*
X322874D01*
Y189518D01*
D02*
G37*
G36*
X311000D02*
X307126D01*
Y186152D01*
X311000D01*
Y189518D01*
D02*
G37*
G36*
X1122874D02*
X1119000D01*
Y186152D01*
X1122874D01*
Y189518D01*
D02*
G37*
G36*
X922874D02*
X919000D01*
Y186152D01*
X922874D01*
Y189518D01*
D02*
G37*
G36*
X722874D02*
X719000D01*
Y186152D01*
X722874D01*
Y189518D01*
D02*
G37*
G36*
X522874D02*
X519000D01*
Y186152D01*
X522874D01*
Y189518D01*
D02*
G37*
G36*
X1111000D02*
X1107126D01*
Y186152D01*
X1111000D01*
Y189518D01*
D02*
G37*
G36*
X911000D02*
X907126D01*
Y186152D01*
X911000D01*
Y189518D01*
D02*
G37*
G36*
X711000D02*
X707126D01*
Y186152D01*
X711000D01*
Y189518D01*
D02*
G37*
G36*
X511000D02*
X507126D01*
Y186152D01*
X511000D01*
Y189518D01*
D02*
G37*
G36*
X62000Y187000D02*
X55047D01*
X55318Y185990D01*
X56686Y183620D01*
X58620Y181686D01*
X60990Y180318D01*
X62000Y180047D01*
Y187000D01*
D02*
G37*
G36*
X1522874Y178152D02*
X1519000D01*
Y174786D01*
X1522874D01*
Y178152D01*
D02*
G37*
G36*
X1511000D02*
X1507126D01*
Y174786D01*
X1511000D01*
Y178152D01*
D02*
G37*
G36*
X1322874D02*
X1319000D01*
Y174786D01*
X1322874D01*
Y178152D01*
D02*
G37*
G36*
X1311000D02*
X1307126D01*
Y174786D01*
X1311000D01*
Y178152D01*
D02*
G37*
G36*
X1122874Y178152D02*
X1119000D01*
Y174786D01*
X1122874D01*
Y178152D01*
D02*
G37*
G36*
X1111000D02*
X1107126D01*
Y174786D01*
X1111000D01*
Y178152D01*
D02*
G37*
G36*
X922874D02*
X919000D01*
Y174786D01*
X922874D01*
Y178152D01*
D02*
G37*
G36*
X911000D02*
X907126D01*
Y174786D01*
X911000D01*
Y178152D01*
D02*
G37*
G36*
X722874D02*
X719000D01*
Y174786D01*
X722874D01*
Y178152D01*
D02*
G37*
G36*
X711000D02*
X707126D01*
Y174786D01*
X711000D01*
Y178152D01*
D02*
G37*
G36*
X522874D02*
X519000D01*
Y174786D01*
X522874D01*
Y178152D01*
D02*
G37*
G36*
X511000D02*
X507126D01*
Y174786D01*
X511000D01*
Y178152D01*
D02*
G37*
G36*
X322874Y178152D02*
X319000D01*
Y174786D01*
X322874D01*
Y178152D01*
D02*
G37*
G36*
X311000D02*
X307126D01*
Y174786D01*
X311000D01*
Y178152D01*
D02*
G37*
G36*
X1648540Y179500D02*
X1636500D01*
Y174460D01*
X1648540D01*
Y179500D01*
D02*
G37*
G36*
X1628500D02*
X1616460D01*
Y174460D01*
X1628500D01*
Y179500D01*
D02*
G37*
G36*
X1448540D02*
X1436500D01*
Y174460D01*
X1448540D01*
Y179500D01*
D02*
G37*
G36*
X1428500D02*
X1416460D01*
Y174460D01*
X1428500D01*
Y179500D01*
D02*
G37*
G36*
X1248540D02*
X1236500D01*
Y174460D01*
X1248540D01*
Y179500D01*
D02*
G37*
G36*
X1228500D02*
X1216460D01*
Y174460D01*
X1228500D01*
Y179500D01*
D02*
G37*
G36*
X1048540D02*
X1036500D01*
Y174460D01*
X1048540D01*
Y179500D01*
D02*
G37*
G36*
X1028500D02*
X1016460D01*
Y174460D01*
X1028500D01*
Y179500D01*
D02*
G37*
G36*
X848540D02*
X836500D01*
Y174460D01*
X848540D01*
Y179500D01*
D02*
G37*
G36*
X828500D02*
X816460D01*
Y174460D01*
X828500D01*
Y179500D01*
D02*
G37*
G36*
X648540D02*
X636500D01*
Y174460D01*
X648540D01*
Y179500D01*
D02*
G37*
G36*
X628500D02*
X616460D01*
Y174460D01*
X628500D01*
Y179500D01*
D02*
G37*
G36*
X448540D02*
X436500D01*
Y174460D01*
X448540D01*
Y179500D01*
D02*
G37*
G36*
X428500D02*
X416460D01*
Y174460D01*
X428500D01*
Y179500D01*
D02*
G37*
G36*
X1342540Y176540D02*
X1339000D01*
Y174000D01*
X1342540D01*
Y176540D01*
D02*
G37*
G36*
X1142540D02*
X1139000D01*
Y174000D01*
X1142540D01*
Y176540D01*
D02*
G37*
G36*
X742540D02*
X739000D01*
Y174000D01*
X742540D01*
Y176540D01*
D02*
G37*
G36*
X542540D02*
X539000D01*
Y174000D01*
X542540D01*
Y176540D01*
D02*
G37*
G36*
X942540D02*
X939000D01*
Y174000D01*
X942540D01*
Y176540D01*
D02*
G37*
G36*
X342540D02*
X339000D01*
Y174000D01*
X342540D01*
Y176540D01*
D02*
G37*
G36*
X1542540D02*
X1539000D01*
Y174000D01*
X1542540D01*
Y176540D01*
D02*
G37*
G36*
X1599090Y178500D02*
X1589000D01*
Y167660D01*
X1599090D01*
Y178500D01*
D02*
G37*
G36*
X1581000D02*
X1570910D01*
Y167660D01*
X1581000D01*
Y178500D01*
D02*
G37*
G36*
X1399090D02*
X1389000D01*
Y167660D01*
X1399090D01*
Y178500D01*
D02*
G37*
G36*
X1381000D02*
X1370910D01*
Y167660D01*
X1381000D01*
Y178500D01*
D02*
G37*
G36*
X1199090Y178500D02*
X1189000D01*
Y167660D01*
X1199090D01*
Y178500D01*
D02*
G37*
G36*
X1181000D02*
X1170910D01*
Y167660D01*
X1181000D01*
Y178500D01*
D02*
G37*
G36*
X999090D02*
X989000D01*
Y167660D01*
X999090D01*
Y178500D01*
D02*
G37*
G36*
X981000D02*
X970910D01*
Y167660D01*
X981000D01*
Y178500D01*
D02*
G37*
G36*
X799090D02*
X789000D01*
Y167660D01*
X799090D01*
Y178500D01*
D02*
G37*
G36*
X781000D02*
X770910D01*
Y167660D01*
X781000D01*
Y178500D01*
D02*
G37*
G36*
X599090D02*
X589000D01*
Y167660D01*
X599090D01*
Y178500D01*
D02*
G37*
G36*
X581000D02*
X570910D01*
Y167660D01*
X581000D01*
Y178500D01*
D02*
G37*
G36*
X399090Y178500D02*
X389000D01*
Y167660D01*
X399090D01*
Y178500D01*
D02*
G37*
G36*
X381000D02*
X370910D01*
Y167660D01*
X381000D01*
Y178500D01*
D02*
G37*
G36*
X1531000Y176540D02*
X1527460D01*
Y167339D01*
X1526190Y166296D01*
X1526000Y166334D01*
X1522334D01*
Y169826D01*
X1507666D01*
Y156174D01*
X1522334D01*
Y159666D01*
X1524619D01*
X1528000Y156285D01*
Y149000D01*
X1532666D01*
Y142000D01*
X1529000D01*
Y131715D01*
X1527643Y130358D01*
X1526920Y129276D01*
X1526666Y128000D01*
Y125581D01*
X1526009Y125201D01*
X1524799Y123991D01*
X1523943Y122509D01*
X1523500Y120856D01*
Y119144D01*
X1523943Y117491D01*
X1524799Y116009D01*
X1526009Y114799D01*
X1527491Y113943D01*
X1529144Y113500D01*
X1530856D01*
X1532509Y113943D01*
X1533991Y114799D01*
X1535201Y116009D01*
X1536057Y117491D01*
X1536500Y119144D01*
Y120856D01*
X1536057Y122509D01*
X1535201Y123991D01*
X1533991Y125201D01*
X1533568Y125446D01*
X1533462Y126747D01*
X1534715Y128000D01*
X1541000D01*
Y142000D01*
X1539334D01*
Y149000D01*
X1542000D01*
Y161000D01*
X1532715D01*
X1531428Y162287D01*
X1531914Y163460D01*
X1542540D01*
Y166000D01*
X1535000D01*
Y170000D01*
X1531000D01*
Y176540D01*
D02*
G37*
G36*
X1331000D02*
X1327460D01*
Y167339D01*
X1326190Y166296D01*
X1326000Y166334D01*
X1322334D01*
Y169826D01*
X1307666D01*
Y156174D01*
X1322334D01*
Y159666D01*
X1324619D01*
X1328000Y156285D01*
Y149000D01*
X1332666D01*
Y142000D01*
X1329000D01*
Y131715D01*
X1327643Y130358D01*
X1326920Y129276D01*
X1326666Y128000D01*
Y125581D01*
X1326009Y125201D01*
X1324799Y123991D01*
X1323943Y122509D01*
X1323500Y120856D01*
Y119144D01*
X1323943Y117491D01*
X1324799Y116009D01*
X1326009Y114799D01*
X1327491Y113943D01*
X1329144Y113500D01*
X1330856D01*
X1332509Y113943D01*
X1333991Y114799D01*
X1335201Y116009D01*
X1336057Y117491D01*
X1336500Y119144D01*
Y120856D01*
X1336057Y122509D01*
X1335201Y123991D01*
X1333991Y125201D01*
X1333568Y125446D01*
X1333462Y126747D01*
X1334715Y128000D01*
X1341000D01*
Y142000D01*
X1339334D01*
Y149000D01*
X1342000D01*
Y161000D01*
X1332715D01*
X1331428Y162287D01*
X1331914Y163460D01*
X1342540D01*
Y166000D01*
X1335000D01*
Y170000D01*
X1331000D01*
Y176540D01*
D02*
G37*
G36*
X1131000D02*
X1127460D01*
Y167339D01*
X1126190Y166296D01*
X1126000Y166334D01*
X1122334D01*
Y169826D01*
X1107666D01*
Y156174D01*
X1122334D01*
Y159666D01*
X1124619D01*
X1128000Y156285D01*
Y149000D01*
X1132666D01*
Y142000D01*
X1129000D01*
Y138135D01*
X1128724Y138080D01*
X1127643Y137358D01*
X1126589Y136304D01*
X1125856Y136500D01*
X1124144D01*
X1122491Y136057D01*
X1121009Y135201D01*
X1119799Y133991D01*
X1118943Y132509D01*
X1118500Y130856D01*
Y129144D01*
X1118943Y127491D01*
X1119799Y126009D01*
X1121009Y124799D01*
X1122491Y123943D01*
X1124144Y123500D01*
X1125856D01*
X1127509Y123943D01*
X1128991Y124799D01*
X1130201Y126009D01*
X1131057Y127491D01*
X1131193Y128000D01*
X1141000D01*
Y142000D01*
X1139334D01*
Y149000D01*
X1142000D01*
Y161000D01*
X1132715D01*
X1131428Y162287D01*
X1131914Y163460D01*
X1142540D01*
Y166000D01*
X1135000D01*
Y170000D01*
X1131000D01*
Y176540D01*
D02*
G37*
G36*
X331000D02*
X327460D01*
Y167339D01*
X326190Y166296D01*
X326000Y166334D01*
X322334D01*
Y169826D01*
X307666D01*
Y156174D01*
X322334D01*
Y159666D01*
X324619D01*
X328000Y156285D01*
Y149000D01*
X332666D01*
Y142000D01*
X329000D01*
Y128000D01*
X332137D01*
Y125852D01*
X331009Y125201D01*
X329799Y123991D01*
X328943Y122509D01*
X328500Y120856D01*
Y119144D01*
X328943Y117491D01*
X329799Y116009D01*
X331009Y114799D01*
X332491Y113943D01*
X334144Y113500D01*
X335856D01*
X337509Y113943D01*
X338991Y114799D01*
X340201Y116009D01*
X341057Y117491D01*
X341500Y119144D01*
Y120856D01*
X341057Y122509D01*
X340201Y123991D01*
X338991Y125201D01*
X338805Y125309D01*
Y128000D01*
X341000D01*
Y142000D01*
X339334D01*
Y149000D01*
X342000D01*
Y161000D01*
X332715D01*
X331428Y162287D01*
X331914Y163460D01*
X342540D01*
Y166000D01*
X335000D01*
Y170000D01*
X331000D01*
Y176540D01*
D02*
G37*
G36*
X1503500Y149500D02*
X1491500D01*
Y141186D01*
X1491413Y141128D01*
X1489739Y139454D01*
X1488991Y140201D01*
X1487509Y141057D01*
X1485856Y141500D01*
X1484144D01*
X1482491Y141057D01*
X1481009Y140201D01*
X1479799Y138991D01*
X1478943Y137509D01*
X1478500Y135856D01*
Y134144D01*
X1478943Y132491D01*
X1479799Y131009D01*
X1481009Y129799D01*
X1482491Y128943D01*
X1484144Y128500D01*
X1485856D01*
X1487509Y128943D01*
X1488991Y129799D01*
X1490201Y131009D01*
X1490902Y132222D01*
X1491747Y132390D01*
X1492828Y133113D01*
X1495215Y135500D01*
X1503500D01*
Y149500D01*
D02*
G37*
G36*
X1303500D02*
X1291500D01*
Y141186D01*
X1291413Y141128D01*
X1289739Y139454D01*
X1288991Y140201D01*
X1287509Y141057D01*
X1285856Y141500D01*
X1284144D01*
X1282491Y141057D01*
X1281009Y140201D01*
X1279799Y138991D01*
X1278943Y137509D01*
X1278500Y135856D01*
Y134144D01*
X1278943Y132491D01*
X1279799Y131009D01*
X1281009Y129799D01*
X1282491Y128943D01*
X1284144Y128500D01*
X1285856D01*
X1287509Y128943D01*
X1288991Y129799D01*
X1290201Y131009D01*
X1290902Y132222D01*
X1291747Y132390D01*
X1292828Y133113D01*
X1295215Y135500D01*
X1303500D01*
Y149500D01*
D02*
G37*
G36*
X1103500D02*
X1091500D01*
Y141186D01*
X1091413Y141128D01*
X1089739Y139454D01*
X1088991Y140201D01*
X1087509Y141057D01*
X1085856Y141500D01*
X1084144D01*
X1082491Y141057D01*
X1081009Y140201D01*
X1079799Y138991D01*
X1078943Y137509D01*
X1078500Y135856D01*
Y134144D01*
X1078943Y132491D01*
X1079799Y131009D01*
X1081009Y129799D01*
X1082491Y128943D01*
X1084144Y128500D01*
X1085856D01*
X1087509Y128943D01*
X1088991Y129799D01*
X1090201Y131009D01*
X1090902Y132222D01*
X1091747Y132390D01*
X1092828Y133113D01*
X1095215Y135500D01*
X1103500D01*
Y149500D01*
D02*
G37*
G36*
X903500D02*
X891500D01*
Y141186D01*
X891413Y141128D01*
X889739Y139454D01*
X888991Y140201D01*
X887509Y141057D01*
X885856Y141500D01*
X884144D01*
X882491Y141057D01*
X881009Y140201D01*
X879799Y138991D01*
X878943Y137509D01*
X878500Y135856D01*
Y134144D01*
X878943Y132491D01*
X879799Y131009D01*
X881009Y129799D01*
X882491Y128943D01*
X884144Y128500D01*
X885856D01*
X887509Y128943D01*
X888991Y129799D01*
X890201Y131009D01*
X890902Y132222D01*
X891747Y132390D01*
X892828Y133113D01*
X895215Y135500D01*
X903500D01*
Y149500D01*
D02*
G37*
G36*
X703500D02*
X691500D01*
Y141186D01*
X691413Y141128D01*
X689739Y139454D01*
X688991Y140201D01*
X687509Y141057D01*
X685856Y141500D01*
X684144D01*
X682491Y141057D01*
X681009Y140201D01*
X679799Y138991D01*
X678943Y137509D01*
X678500Y135856D01*
Y134144D01*
X678943Y132491D01*
X679799Y131009D01*
X681009Y129799D01*
X682491Y128943D01*
X684144Y128500D01*
X685856D01*
X687509Y128943D01*
X688991Y129799D01*
X690201Y131009D01*
X690902Y132222D01*
X691747Y132390D01*
X692828Y133113D01*
X695215Y135500D01*
X703500D01*
Y149500D01*
D02*
G37*
G36*
X503500D02*
X491500D01*
Y141186D01*
X491413Y141128D01*
X489739Y139454D01*
X488991Y140201D01*
X487509Y141057D01*
X485856Y141500D01*
X484144D01*
X482491Y141057D01*
X481009Y140201D01*
X479799Y138991D01*
X478943Y137509D01*
X478500Y135856D01*
Y134144D01*
X478943Y132491D01*
X479799Y131009D01*
X481009Y129799D01*
X482491Y128943D01*
X484144Y128500D01*
X485856D01*
X487509Y128943D01*
X488991Y129799D01*
X490201Y131009D01*
X490902Y132222D01*
X491747Y132390D01*
X492828Y133113D01*
X495215Y135500D01*
X503500D01*
Y149500D01*
D02*
G37*
G36*
X303500D02*
X291500D01*
Y141186D01*
X291413Y141128D01*
X289739Y139454D01*
X288991Y140201D01*
X287509Y141057D01*
X285856Y141500D01*
X284144D01*
X282491Y141057D01*
X281009Y140201D01*
X279799Y138991D01*
X278943Y137509D01*
X278500Y135856D01*
Y134144D01*
X278943Y132491D01*
X279799Y131009D01*
X281009Y129799D01*
X282491Y128943D01*
X284144Y128500D01*
X285856D01*
X287509Y128943D01*
X288991Y129799D01*
X290201Y131009D01*
X290902Y132222D01*
X291747Y132390D01*
X292828Y133113D01*
X295215Y135500D01*
X303500D01*
Y149500D01*
D02*
G37*
G36*
X62000Y139953D02*
X60990Y139682D01*
X58620Y138314D01*
X56686Y136380D01*
X55318Y134010D01*
X55047Y133000D01*
X62000D01*
Y139953D01*
D02*
G37*
G36*
Y127000D02*
X55047D01*
X55318Y125990D01*
X56686Y123620D01*
X58620Y121686D01*
X60990Y120318D01*
X62000Y120047D01*
Y127000D01*
D02*
G37*
G36*
X62000Y110390D02*
X54610D01*
Y110000D01*
Y103000D01*
X62000D01*
Y110390D01*
D02*
G37*
G36*
Y97000D02*
X54610D01*
Y89610D01*
X62000D01*
Y97000D01*
D02*
G37*
G36*
X1642040Y79500D02*
X1635000D01*
Y62460D01*
X1642040D01*
Y79500D01*
D02*
G37*
G36*
X1629000D02*
X1621960D01*
Y62460D01*
X1629000D01*
Y79500D01*
D02*
G37*
G36*
X1442040D02*
X1435000D01*
Y62460D01*
X1442040D01*
Y79500D01*
D02*
G37*
G36*
X1429000D02*
X1421960D01*
Y62460D01*
X1429000D01*
Y79500D01*
D02*
G37*
G36*
X1242040D02*
X1235000D01*
Y62460D01*
X1242040D01*
Y79500D01*
D02*
G37*
G36*
X1229000D02*
X1221960D01*
Y62460D01*
X1229000D01*
Y79500D01*
D02*
G37*
G36*
X1042040D02*
X1035000D01*
Y62460D01*
X1042040D01*
Y79500D01*
D02*
G37*
G36*
X1029000D02*
X1021960D01*
Y62460D01*
X1029000D01*
Y79500D01*
D02*
G37*
G36*
X842040D02*
X835000D01*
Y62460D01*
X842040D01*
Y79500D01*
D02*
G37*
G36*
X829000D02*
X821960D01*
Y62460D01*
X829000D01*
Y79500D01*
D02*
G37*
G36*
X642040D02*
X635000D01*
Y62460D01*
X642040D01*
Y79500D01*
D02*
G37*
G36*
X629000D02*
X621960D01*
Y62460D01*
X629000D01*
Y79500D01*
D02*
G37*
G36*
X442040D02*
X435000D01*
Y62460D01*
X442040D01*
Y79500D01*
D02*
G37*
G36*
X429000D02*
X421960D01*
Y62460D01*
X429000D01*
Y79500D01*
D02*
G37*
G36*
X1205040Y62540D02*
X1188000D01*
Y55500D01*
X1205040D01*
Y62540D01*
D02*
G37*
G36*
X1005040D02*
X988000D01*
Y55500D01*
X1005040D01*
Y62540D01*
D02*
G37*
G36*
X805040D02*
X788000D01*
Y55500D01*
X805040D01*
Y62540D01*
D02*
G37*
G36*
X605040D02*
X588000D01*
Y55500D01*
X605040D01*
Y62540D01*
D02*
G37*
G36*
X1182000D02*
X1164960D01*
Y55500D01*
X1182000D01*
Y62540D01*
D02*
G37*
G36*
X982000D02*
X964960D01*
Y55500D01*
X982000D01*
Y62540D01*
D02*
G37*
G36*
X782000D02*
X764960D01*
Y55500D01*
X782000D01*
Y62540D01*
D02*
G37*
G36*
X582000D02*
X564960D01*
Y55500D01*
X582000D01*
Y62540D01*
D02*
G37*
G36*
X405040D02*
X388000D01*
Y55500D01*
X405040D01*
Y62540D01*
D02*
G37*
G36*
X382000D02*
X364960D01*
Y55500D01*
X382000D01*
Y62540D01*
D02*
G37*
G36*
X1605040D02*
X1588000D01*
Y55500D01*
X1605040D01*
Y62540D01*
D02*
G37*
G36*
X1405040D02*
X1388000D01*
Y55500D01*
X1405040D01*
Y62540D01*
D02*
G37*
G36*
X1582000D02*
X1564960D01*
Y55500D01*
X1582000D01*
Y62540D01*
D02*
G37*
G36*
X1382000D02*
X1364960D01*
Y55500D01*
X1382000D01*
Y62540D01*
D02*
G37*
G36*
X1605040Y49500D02*
X1588000D01*
Y42460D01*
X1605040D01*
Y49500D01*
D02*
G37*
G36*
X1582000D02*
X1564960D01*
Y42460D01*
X1582000D01*
Y49500D01*
D02*
G37*
G36*
X1405040D02*
X1388000D01*
Y42460D01*
X1405040D01*
Y49500D01*
D02*
G37*
G36*
X1382000D02*
X1364960D01*
Y42460D01*
X1382000D01*
Y49500D01*
D02*
G37*
G36*
X1205040Y49500D02*
X1188000D01*
Y42460D01*
X1205040D01*
Y49500D01*
D02*
G37*
G36*
X1182000D02*
X1164960D01*
Y42460D01*
X1182000D01*
Y49500D01*
D02*
G37*
G36*
X1005040D02*
X988000D01*
Y42460D01*
X1005040D01*
Y49500D01*
D02*
G37*
G36*
X982000D02*
X964960D01*
Y42460D01*
X982000D01*
Y49500D01*
D02*
G37*
G36*
X805040D02*
X788000D01*
Y42460D01*
X805040D01*
Y49500D01*
D02*
G37*
G36*
X782000D02*
X764960D01*
Y42460D01*
X782000D01*
Y49500D01*
D02*
G37*
G36*
X605040D02*
X588000D01*
Y42460D01*
X605040D01*
Y49500D01*
D02*
G37*
G36*
X582000D02*
X564960D01*
Y42460D01*
X582000D01*
Y49500D01*
D02*
G37*
G36*
X405040Y49500D02*
X388000D01*
Y42460D01*
X405040D01*
Y49500D01*
D02*
G37*
G36*
X382000D02*
X364960D01*
Y42460D01*
X382000D01*
Y49500D01*
D02*
G37*
G36*
X1701871Y69000D02*
X1698129D01*
X1694458Y68270D01*
X1691000Y66838D01*
X1687888Y64758D01*
X1685242Y62112D01*
X1683162Y59000D01*
X1681730Y55542D01*
X1681000Y51871D01*
Y48129D01*
X1681730Y44458D01*
X1683162Y41000D01*
X1685242Y37888D01*
X1687888Y35242D01*
X1691000Y33162D01*
X1694458Y31730D01*
X1698129Y31000D01*
X1701871D01*
X1705542Y31730D01*
X1709000Y33162D01*
X1712112Y35242D01*
X1714758Y37888D01*
X1716838Y41000D01*
X1718270Y44458D01*
X1719000Y48129D01*
Y51871D01*
X1718270Y55542D01*
X1716838Y59000D01*
X1714758Y62112D01*
X1712112Y64758D01*
X1709000Y66838D01*
X1705542Y68270D01*
X1701871Y69000D01*
D02*
G37*
G36*
X169371D02*
X165629D01*
X161958Y68270D01*
X158500Y66838D01*
X155388Y64758D01*
X152742Y62112D01*
X150662Y59000D01*
X149230Y55542D01*
X148500Y51871D01*
Y48129D01*
X149230Y44458D01*
X150662Y41000D01*
X152742Y37888D01*
X155388Y35242D01*
X158500Y33162D01*
X161958Y31730D01*
X165629Y31000D01*
X169371D01*
X173042Y31730D01*
X176500Y33162D01*
X179612Y35242D01*
X182258Y37888D01*
X184338Y41000D01*
X185770Y44458D01*
X186500Y48129D01*
Y51871D01*
X185770Y55542D01*
X184338Y59000D01*
X182258Y62112D01*
X179612Y64758D01*
X176500Y66838D01*
X173042Y68270D01*
X169371Y69000D01*
D02*
G37*
%LPD*%
G36*
X1611395Y153895D02*
X1613049Y152790D01*
X1615000Y152402D01*
X1655000D01*
Y92500D01*
X1644500D01*
Y105000D01*
X1619500D01*
Y92500D01*
X1555000D01*
Y122500D01*
X1560000Y127500D01*
X1580000D01*
Y130773D01*
X1580858Y131630D01*
X1581580Y132712D01*
X1581834Y133988D01*
Y145205D01*
X1583104Y145884D01*
X1583360Y145713D01*
X1585000Y145387D01*
X1586640Y145713D01*
X1587245Y146117D01*
X1587500Y146223D01*
Y146287D01*
X1588031Y146642D01*
X1588961Y148032D01*
X1589287Y149673D01*
Y154746D01*
X1594000D01*
Y154746D01*
X1600500D01*
Y154746D01*
X1608500D01*
Y148029D01*
X1608827Y149673D01*
Y154804D01*
X1610000Y155290D01*
X1611395Y153895D01*
D02*
G37*
G36*
X1411395D02*
X1413049Y152790D01*
X1415000Y152402D01*
X1455000D01*
Y92500D01*
X1444500D01*
Y105000D01*
X1419500D01*
Y92500D01*
X1355000D01*
Y122500D01*
X1360000Y127500D01*
X1380000D01*
Y130773D01*
X1380858Y131630D01*
X1381580Y132712D01*
X1381834Y133988D01*
Y145205D01*
X1383104Y145884D01*
X1383360Y145713D01*
X1385000Y145387D01*
X1386640Y145713D01*
X1387245Y146117D01*
X1387500Y146223D01*
Y146287D01*
X1388031Y146642D01*
X1388961Y148032D01*
X1389287Y149673D01*
Y154746D01*
X1394000D01*
Y154746D01*
X1400500D01*
Y154746D01*
X1408500D01*
Y148029D01*
X1408827Y149673D01*
Y154804D01*
X1410000Y155290D01*
X1411395Y153895D01*
D02*
G37*
G36*
X411395D02*
X413049Y152790D01*
X415000Y152402D01*
X455000D01*
Y92500D01*
X444500D01*
Y105000D01*
X419500D01*
Y92500D01*
X355000D01*
Y122500D01*
X360000Y127500D01*
X380000D01*
Y130773D01*
X380858Y131630D01*
X381580Y132712D01*
X381834Y133988D01*
Y145205D01*
X383104Y145884D01*
X383360Y145713D01*
X385000Y145387D01*
X386640Y145713D01*
X387245Y146117D01*
X387500Y146223D01*
Y146287D01*
X388031Y146642D01*
X388960Y148032D01*
X389287Y149673D01*
Y154746D01*
X394000D01*
Y154746D01*
X402000D01*
D01*
X408500D01*
Y148029D01*
X408827Y149673D01*
Y154804D01*
X410000Y155290D01*
X411395Y153895D01*
D02*
G37*
G36*
X1011395D02*
X1013049Y152790D01*
X1015000Y152402D01*
X1055000D01*
Y92500D01*
X1044500D01*
Y105000D01*
X1019500D01*
Y92500D01*
X955000D01*
Y122500D01*
X960000Y127500D01*
X980000D01*
Y130773D01*
X980857Y131630D01*
X981580Y132712D01*
X981834Y133988D01*
Y145205D01*
X983104Y145884D01*
X983360Y145713D01*
X985000Y145387D01*
X986640Y145713D01*
X987245Y146117D01*
X987500Y146223D01*
Y146287D01*
X988031Y146642D01*
X988960Y148032D01*
X989287Y149673D01*
Y154746D01*
X994000D01*
Y154746D01*
X1000500D01*
Y154746D01*
X1008500D01*
Y148029D01*
X1008827Y149673D01*
Y154804D01*
X1010000Y155290D01*
X1011395Y153895D01*
D02*
G37*
G36*
X1211395D02*
X1213049Y152790D01*
X1215000Y152402D01*
X1255000D01*
Y92500D01*
X1244500D01*
Y105000D01*
X1219500D01*
Y92500D01*
X1155000D01*
Y122500D01*
X1160000Y127500D01*
X1180000D01*
Y130773D01*
X1180857Y131630D01*
X1181580Y132712D01*
X1181834Y133988D01*
Y145205D01*
X1183104Y145884D01*
X1183360Y145713D01*
X1185000Y145387D01*
X1186640Y145713D01*
X1187245Y146117D01*
X1187500Y146223D01*
Y146287D01*
X1188031Y146642D01*
X1188960Y148032D01*
X1189287Y149673D01*
Y154746D01*
X1194000D01*
Y154746D01*
X1200500D01*
Y154746D01*
X1208500D01*
Y148029D01*
X1208827Y149673D01*
Y154804D01*
X1210000Y155290D01*
X1211395Y153895D01*
D02*
G37*
G36*
X811395D02*
X813049Y152790D01*
X815000Y152402D01*
X855000D01*
Y92500D01*
X844500D01*
Y105000D01*
X819500D01*
Y92500D01*
X755000D01*
Y122500D01*
X760000Y127500D01*
X780000D01*
Y130773D01*
X780857Y131630D01*
X781580Y132712D01*
X781834Y133988D01*
Y145205D01*
X783104Y145884D01*
X783360Y145713D01*
X785000Y145387D01*
X786640Y145713D01*
X787245Y146117D01*
X787500Y146223D01*
Y146287D01*
X788031Y146642D01*
X788960Y148032D01*
X789287Y149673D01*
Y154746D01*
X794000D01*
Y154746D01*
X800500D01*
Y154746D01*
X808500D01*
Y148029D01*
X808827Y149673D01*
Y154804D01*
X810000Y155290D01*
X811395Y153895D01*
D02*
G37*
G36*
X611395D02*
X613049Y152790D01*
X615000Y152402D01*
X655000D01*
Y92500D01*
X644500D01*
Y105000D01*
X619500D01*
Y92500D01*
X555000D01*
Y122500D01*
X560000Y127500D01*
X580000D01*
Y130773D01*
X580858Y131630D01*
X581580Y132712D01*
X581834Y133988D01*
Y145205D01*
X583104Y145884D01*
X583360Y145713D01*
X585000Y145387D01*
X586640Y145713D01*
X587245Y146117D01*
X587500Y146223D01*
Y146287D01*
X588031Y146642D01*
X588960Y148032D01*
X589287Y149673D01*
Y154746D01*
X594000D01*
Y154746D01*
X600500D01*
Y154746D01*
X608500D01*
Y148029D01*
X608827Y149673D01*
Y154804D01*
X610000Y155290D01*
X611395Y153895D01*
D02*
G37*
G36*
X125000Y160000D02*
X250000D01*
X250000Y90000D01*
X100999Y90000D01*
X100659Y91270D01*
X101380Y91686D01*
X103314Y93620D01*
X104682Y95990D01*
X104953Y97000D01*
X95000D01*
X85047D01*
X85318Y95990D01*
X86686Y93620D01*
X88620Y91686D01*
X89341Y91270D01*
X89001Y90000D01*
X80000D01*
Y150000D01*
Y242500D01*
X125000D01*
Y160000D01*
D02*
G37*
G36*
X1499112Y91327D02*
X1487892Y80107D01*
X1486066Y80596D01*
X1483934D01*
X1481875Y80044D01*
X1480029Y78978D01*
X1478522Y77471D01*
X1477456Y75625D01*
X1477104Y74312D01*
X1475834Y74480D01*
Y92500D01*
X1498626D01*
X1499112Y91327D01*
D02*
G37*
G36*
X1299112D02*
X1287892Y80107D01*
X1286066Y80596D01*
X1283934D01*
X1281875Y80044D01*
X1280029Y78978D01*
X1278522Y77471D01*
X1277456Y75625D01*
X1276904Y73566D01*
Y71434D01*
X1277456Y69375D01*
X1278522Y67529D01*
X1280029Y66022D01*
X1281875Y64956D01*
X1283934Y64404D01*
X1286066D01*
X1288125Y64956D01*
X1289723Y65878D01*
X1290503Y64862D01*
X1283975Y58334D01*
X1273881D01*
X1273334Y58881D01*
Y92500D01*
X1298626D01*
X1299112Y91327D01*
D02*
G37*
G36*
X499112D02*
X487892Y80107D01*
X486066Y80596D01*
X483934D01*
X481875Y80044D01*
X480029Y78978D01*
X478522Y77471D01*
X477456Y75625D01*
X477104Y74313D01*
X475834Y74480D01*
Y92500D01*
X498626D01*
X499112Y91327D01*
D02*
G37*
%LPC*%
G36*
X1623730Y149601D02*
X1620399D01*
Y146500D01*
X1623730D01*
Y149601D01*
D02*
G37*
G36*
Y138500D02*
X1620399D01*
Y135399D01*
X1623730D01*
Y138500D01*
D02*
G37*
G36*
X1635061Y149601D02*
X1631730D01*
Y142500D01*
Y135399D01*
X1635061D01*
Y135439D01*
X1639166D01*
Y134235D01*
X1637895Y133502D01*
X1636499Y132105D01*
X1635511Y130395D01*
X1635000Y128487D01*
Y126513D01*
X1635511Y124605D01*
X1636499Y122895D01*
X1637895Y121498D01*
X1639605Y120511D01*
X1641513Y120000D01*
X1643487D01*
X1645395Y120511D01*
X1647105Y121498D01*
X1648501Y122895D01*
X1649489Y124605D01*
X1650000Y126513D01*
Y128487D01*
X1649489Y130395D01*
X1648501Y132105D01*
X1647105Y133502D01*
X1645834Y134235D01*
Y135439D01*
X1649561D01*
Y149561D01*
X1635061D01*
Y149601D01*
D02*
G37*
G36*
X1607540Y122540D02*
X1588000D01*
Y115500D01*
X1607540D01*
Y122540D01*
D02*
G37*
G36*
X1582000D02*
X1562460D01*
Y115500D01*
X1582000D01*
Y122540D01*
D02*
G37*
G36*
X1607540Y109500D02*
X1588000D01*
Y102460D01*
X1607540D01*
Y109500D01*
D02*
G37*
G36*
X1582000D02*
X1562460D01*
Y102460D01*
X1582000D01*
Y109500D01*
D02*
G37*
G36*
X1423730Y149601D02*
X1420399D01*
Y146500D01*
X1423730D01*
Y149601D01*
D02*
G37*
G36*
Y138500D02*
X1420399D01*
Y135399D01*
X1423730D01*
Y138500D01*
D02*
G37*
G36*
X1435061Y149601D02*
X1431730D01*
Y142500D01*
Y135399D01*
X1435061D01*
Y135439D01*
X1438333D01*
X1438674Y134169D01*
X1438411Y134018D01*
X1437015Y132621D01*
X1436027Y130911D01*
X1435516Y129004D01*
Y127029D01*
X1436027Y125121D01*
X1437015Y123411D01*
X1438411Y122015D01*
X1440121Y121027D01*
X1442029Y120516D01*
X1444004D01*
X1445911Y121027D01*
X1447621Y122015D01*
X1449018Y123411D01*
X1450005Y125121D01*
X1450516Y127029D01*
Y129004D01*
X1450005Y130911D01*
X1449018Y132621D01*
X1447621Y134018D01*
X1447359Y134169D01*
X1447699Y135439D01*
X1449561D01*
Y149561D01*
X1435061D01*
Y149601D01*
D02*
G37*
G36*
X1407540Y122540D02*
X1388000D01*
Y115500D01*
X1407540D01*
Y122540D01*
D02*
G37*
G36*
X1382000D02*
X1362460D01*
Y115500D01*
X1382000D01*
Y122540D01*
D02*
G37*
G36*
X1407540Y109500D02*
X1388000D01*
Y102460D01*
X1407540D01*
Y109500D01*
D02*
G37*
G36*
X1382000D02*
X1362460D01*
Y102460D01*
X1382000D01*
Y109500D01*
D02*
G37*
G36*
X423730Y149601D02*
X420399D01*
Y146500D01*
X423730D01*
Y149601D01*
D02*
G37*
G36*
Y138500D02*
X420399D01*
Y135399D01*
X423730D01*
Y138500D01*
D02*
G37*
G36*
X435061Y149601D02*
X431730D01*
Y142500D01*
Y135399D01*
X435061D01*
Y135439D01*
X439166D01*
Y134235D01*
X437895Y133502D01*
X436498Y132105D01*
X435511Y130395D01*
X435000Y128487D01*
Y126513D01*
X435511Y124605D01*
X436498Y122895D01*
X437895Y121498D01*
X439605Y120511D01*
X441513Y120000D01*
X443487D01*
X445395Y120511D01*
X447105Y121498D01*
X448502Y122895D01*
X449489Y124605D01*
X450000Y126513D01*
Y128487D01*
X449489Y130395D01*
X448502Y132105D01*
X447105Y133502D01*
X445834Y134235D01*
Y135439D01*
X449561D01*
Y149561D01*
X435061D01*
Y149601D01*
D02*
G37*
G36*
X407540Y122540D02*
X388000D01*
Y115500D01*
X407540D01*
Y122540D01*
D02*
G37*
G36*
X382000D02*
X362460D01*
Y115500D01*
X382000D01*
Y122540D01*
D02*
G37*
G36*
X407540Y109500D02*
X388000D01*
Y102460D01*
X407540D01*
Y109500D01*
D02*
G37*
G36*
X382000D02*
X362460D01*
Y102460D01*
X382000D01*
Y109500D01*
D02*
G37*
G36*
X1023730Y149601D02*
X1020399D01*
Y146500D01*
X1023730D01*
Y149601D01*
D02*
G37*
G36*
Y138500D02*
X1020399D01*
Y135399D01*
X1023730D01*
Y138500D01*
D02*
G37*
G36*
X1035061Y149601D02*
X1031730D01*
Y142500D01*
Y135399D01*
X1035061D01*
Y135439D01*
X1039166D01*
Y134235D01*
X1037895Y133502D01*
X1036498Y132105D01*
X1035511Y130395D01*
X1035000Y128487D01*
Y126513D01*
X1035511Y124605D01*
X1036498Y122895D01*
X1037895Y121498D01*
X1039605Y120511D01*
X1041513Y120000D01*
X1043487D01*
X1045395Y120511D01*
X1047105Y121498D01*
X1048502Y122895D01*
X1049489Y124605D01*
X1050000Y126513D01*
Y128487D01*
X1049489Y130395D01*
X1048502Y132105D01*
X1047105Y133502D01*
X1045834Y134235D01*
Y135439D01*
X1049561D01*
Y149561D01*
X1035061D01*
Y149601D01*
D02*
G37*
G36*
X1007540Y122540D02*
X988000D01*
Y115500D01*
X1007540D01*
Y122540D01*
D02*
G37*
G36*
X982000D02*
X962460D01*
Y115500D01*
X982000D01*
Y122540D01*
D02*
G37*
G36*
X1007540Y109500D02*
X988000D01*
Y102460D01*
X1007540D01*
Y109500D01*
D02*
G37*
G36*
X982000D02*
X962460D01*
Y102460D01*
X982000D01*
Y109500D01*
D02*
G37*
G36*
X1223730Y149601D02*
X1220399D01*
Y146500D01*
X1223730D01*
Y149601D01*
D02*
G37*
G36*
Y138500D02*
X1220399D01*
Y135399D01*
X1223730D01*
Y138500D01*
D02*
G37*
G36*
X1235061Y149601D02*
X1231730D01*
Y142500D01*
Y135399D01*
X1235061D01*
Y135439D01*
X1239166D01*
Y134235D01*
X1237895Y133502D01*
X1236498Y132105D01*
X1235511Y130395D01*
X1235000Y128487D01*
Y126513D01*
X1235511Y124605D01*
X1236498Y122895D01*
X1237895Y121498D01*
X1239605Y120511D01*
X1241513Y120000D01*
X1243487D01*
X1245395Y120511D01*
X1247105Y121498D01*
X1248502Y122895D01*
X1249489Y124605D01*
X1250000Y126513D01*
Y128487D01*
X1249489Y130395D01*
X1248502Y132105D01*
X1247105Y133502D01*
X1245834Y134235D01*
Y135439D01*
X1249561D01*
Y149561D01*
X1235061D01*
Y149601D01*
D02*
G37*
G36*
X1207540Y122540D02*
X1188000D01*
Y115500D01*
X1207540D01*
Y122540D01*
D02*
G37*
G36*
X1182000D02*
X1162460D01*
Y115500D01*
X1182000D01*
Y122540D01*
D02*
G37*
G36*
X1207540Y109500D02*
X1188000D01*
Y102460D01*
X1207540D01*
Y109500D01*
D02*
G37*
G36*
X1182000D02*
X1162460D01*
Y102460D01*
X1182000D01*
Y109500D01*
D02*
G37*
G36*
X823730Y149601D02*
X820399D01*
Y146500D01*
X823730D01*
Y149601D01*
D02*
G37*
G36*
Y138500D02*
X820399D01*
Y135399D01*
X823730D01*
Y138500D01*
D02*
G37*
G36*
X835061Y149601D02*
X831730D01*
Y142500D01*
Y135399D01*
X835061D01*
Y135439D01*
X839166D01*
Y134235D01*
X837895Y133502D01*
X836498Y132105D01*
X835511Y130395D01*
X835000Y128487D01*
Y126513D01*
X835511Y124605D01*
X836498Y122895D01*
X837895Y121498D01*
X839605Y120511D01*
X841513Y120000D01*
X843487D01*
X845395Y120511D01*
X847105Y121498D01*
X848502Y122895D01*
X849489Y124605D01*
X850000Y126513D01*
Y128487D01*
X849489Y130395D01*
X848502Y132105D01*
X847105Y133502D01*
X845834Y134235D01*
Y135439D01*
X849561D01*
Y149561D01*
X835061D01*
Y149601D01*
D02*
G37*
G36*
X807540Y122540D02*
X788000D01*
Y115500D01*
X807540D01*
Y122540D01*
D02*
G37*
G36*
X782000D02*
X762460D01*
Y115500D01*
X782000D01*
Y122540D01*
D02*
G37*
G36*
X807540Y109500D02*
X788000D01*
Y102460D01*
X807540D01*
Y109500D01*
D02*
G37*
G36*
X782000D02*
X762460D01*
Y102460D01*
X782000D01*
Y109500D01*
D02*
G37*
G36*
X623730Y149601D02*
X620399D01*
Y146500D01*
X623730D01*
Y149601D01*
D02*
G37*
G36*
Y138500D02*
X620399D01*
Y135399D01*
X623730D01*
Y138500D01*
D02*
G37*
G36*
X635061Y149601D02*
X631730D01*
Y142500D01*
Y135399D01*
X635061D01*
Y135439D01*
X639166D01*
Y134235D01*
X637895Y133502D01*
X636498Y132105D01*
X635511Y130395D01*
X635000Y128487D01*
Y126513D01*
X635511Y124605D01*
X636498Y122895D01*
X637895Y121498D01*
X639605Y120511D01*
X641513Y120000D01*
X643487D01*
X645395Y120511D01*
X647105Y121498D01*
X648502Y122895D01*
X649489Y124605D01*
X650000Y126513D01*
Y128487D01*
X649489Y130395D01*
X648502Y132105D01*
X647105Y133502D01*
X645834Y134235D01*
Y135439D01*
X649561D01*
Y149561D01*
X635061D01*
Y149601D01*
D02*
G37*
G36*
X607540Y122540D02*
X588000D01*
Y115500D01*
X607540D01*
Y122540D01*
D02*
G37*
G36*
X582000D02*
X562460D01*
Y115500D01*
X582000D01*
Y122540D01*
D02*
G37*
G36*
X607540Y109500D02*
X588000D01*
Y102460D01*
X607540D01*
Y109500D01*
D02*
G37*
G36*
X582000D02*
X562460D01*
Y102460D01*
X582000D01*
Y109500D01*
D02*
G37*
G36*
X98000Y229953D02*
Y223000D01*
X104953D01*
X104682Y224010D01*
X103314Y226380D01*
X101380Y228314D01*
X99010Y229682D01*
X98000Y229953D01*
D02*
G37*
G36*
X92000Y229953D02*
X90990Y229682D01*
X88620Y228314D01*
X86686Y226380D01*
X85318Y224010D01*
X85047Y223000D01*
X92000D01*
Y229953D01*
D02*
G37*
G36*
Y217000D02*
X85047D01*
X85318Y215990D01*
X86686Y213620D01*
X88620Y211686D01*
X90990Y210318D01*
X92000Y210047D01*
Y217000D01*
D02*
G37*
G36*
X104953D02*
X98000D01*
Y210047D01*
X99010Y210318D01*
X101380Y211686D01*
X103314Y213620D01*
X104682Y215990D01*
X104953Y217000D01*
D02*
G37*
G36*
X98000Y199953D02*
Y193000D01*
X104953D01*
X104682Y194010D01*
X103314Y196380D01*
X101380Y198314D01*
X99010Y199682D01*
X98000Y199953D01*
D02*
G37*
G36*
X92000Y199953D02*
X90990Y199682D01*
X88620Y198314D01*
X86686Y196380D01*
X85318Y194010D01*
X85047Y193000D01*
X92000D01*
Y199953D01*
D02*
G37*
G36*
Y187000D02*
X85047D01*
X85318Y185990D01*
X86686Y183620D01*
X88620Y181686D01*
X90990Y180318D01*
X92000Y180047D01*
Y187000D01*
D02*
G37*
G36*
X104953D02*
X98000D01*
Y180047D01*
X99010Y180318D01*
X101380Y181686D01*
X103314Y183620D01*
X104682Y185990D01*
X104953Y187000D01*
D02*
G37*
G36*
X96692Y172850D02*
X93308D01*
X90040Y171974D01*
X87110Y170282D01*
X84718Y167890D01*
X83026Y164960D01*
X82150Y161692D01*
Y160000D01*
Y158308D01*
X83026Y155040D01*
X84718Y152110D01*
X87110Y149718D01*
X90040Y148026D01*
X93308Y147150D01*
X96692D01*
X99960Y148026D01*
X102890Y149718D01*
X104346Y151173D01*
X105282Y152110D01*
X106974Y155040D01*
X107850Y158308D01*
Y161692D01*
X106974Y164960D01*
X105282Y167890D01*
X102890Y170282D01*
X99960Y171974D01*
X96692Y172850D01*
D02*
G37*
G36*
X187540Y157040D02*
X179000D01*
Y138000D01*
X187540D01*
Y157040D01*
D02*
G37*
G36*
X171000D02*
X162460D01*
Y138000D01*
X171000D01*
Y157040D01*
D02*
G37*
G36*
X98000Y139953D02*
Y133000D01*
X104953D01*
X104682Y134010D01*
X103314Y136380D01*
X101380Y138314D01*
X99010Y139682D01*
X98000Y139953D01*
D02*
G37*
G36*
X92000Y139953D02*
X90990Y139682D01*
X88620Y138314D01*
X86686Y136380D01*
X85318Y134010D01*
X85047Y133000D01*
X92000D01*
Y139953D01*
D02*
G37*
G36*
Y127000D02*
X85047D01*
X85318Y125990D01*
X86686Y123620D01*
X88620Y121686D01*
X90990Y120318D01*
X92000Y120047D01*
Y127000D01*
D02*
G37*
G36*
X104953D02*
X98000D01*
Y120047D01*
X99010Y120318D01*
X101380Y121686D01*
X103314Y123620D01*
X104682Y125990D01*
X104953Y127000D01*
D02*
G37*
G36*
X187540Y130000D02*
X179000D01*
Y110960D01*
X187540D01*
Y130000D01*
D02*
G37*
G36*
X171000D02*
X162460D01*
Y110960D01*
X171000D01*
Y130000D01*
D02*
G37*
G36*
X98000Y109953D02*
Y103000D01*
X104953D01*
X104682Y104010D01*
X103314Y106380D01*
X101380Y108314D01*
X99010Y109682D01*
X98000Y109953D01*
D02*
G37*
G36*
X92000Y109953D02*
X90990Y109682D01*
X88620Y108314D01*
X86686Y106380D01*
X85318Y104010D01*
X85047Y103000D01*
X92000D01*
Y109953D01*
D02*
G37*
G36*
X294500Y406540D02*
X292960D01*
Y404000D01*
X294500D01*
Y406540D01*
D02*
G37*
G36*
X761488Y408850D02*
X755750D01*
Y394000D01*
X764600D01*
Y405737D01*
X764363Y406928D01*
X763688Y407938D01*
X762679Y408613D01*
X761488Y408850D01*
D02*
G37*
G36*
X698000Y397599D02*
X692250D01*
Y394000D01*
X701100D01*
Y394500D01*
X700864Y395686D01*
X700192Y396692D01*
X699186Y397364D01*
X698000Y397599D01*
D02*
G37*
G36*
X684250D02*
X678500D01*
X677314Y397364D01*
X676308Y396692D01*
X675636Y395686D01*
X675400Y394500D01*
Y394000D01*
X684250D01*
Y397599D01*
D02*
G37*
G36*
X747750Y408850D02*
X742012D01*
X740822Y408613D01*
X739812Y407938D01*
X739137Y406928D01*
X738900Y405737D01*
Y394000D01*
X747750D01*
Y408850D01*
D02*
G37*
G36*
X666040Y398040D02*
X654000D01*
Y393000D01*
X666040D01*
Y398040D01*
D02*
G37*
G36*
X701100Y386000D02*
X692250D01*
Y382400D01*
X698000D01*
X699186Y382636D01*
X700192Y383308D01*
X700864Y384314D01*
X701100Y385500D01*
Y386000D01*
D02*
G37*
G36*
X684250D02*
X675400D01*
Y385500D01*
X675636Y384314D01*
X676308Y383308D01*
X677314Y382636D01*
X678500Y382400D01*
X684250D01*
Y386000D01*
D02*
G37*
G36*
X666040Y385000D02*
X654000D01*
Y379960D01*
X666040D01*
Y385000D01*
D02*
G37*
G36*
X764600Y386000D02*
X755750D01*
Y371150D01*
X761488D01*
X762679Y371387D01*
X763688Y372062D01*
X764363Y373071D01*
X764600Y374263D01*
Y386000D01*
D02*
G37*
G36*
X747750D02*
X738900D01*
Y374263D01*
X739137Y373071D01*
X739812Y372062D01*
X740822Y371387D01*
X742012Y371150D01*
X747750D01*
Y386000D01*
D02*
G37*
G36*
X373790Y267040D02*
X369000D01*
Y264500D01*
X373790D01*
Y267040D01*
D02*
G37*
G36*
X361000D02*
X356210D01*
Y264500D01*
X361000D01*
Y267040D01*
D02*
G37*
G36*
X381000Y256500D02*
X376210D01*
Y253960D01*
X381000D01*
Y256500D01*
D02*
G37*
G36*
X373790D02*
X369000D01*
Y253960D01*
X373790D01*
Y256500D01*
D02*
G37*
G36*
X361000D02*
X356210D01*
Y253960D01*
X361000D01*
Y256500D01*
D02*
G37*
%LPD*%
D10*
X1352230Y497270D02*
X1368500D01*
Y497500D02*
X1383500Y512500D01*
X1393000D01*
D12*
X1062221Y280460D02*
X1114540D01*
X1135000Y260000D01*
X1062841Y299855D02*
X1063506D01*
X1065959Y285000D02*
X1293500D01*
X1060527Y302169D02*
X1062841Y299855D01*
X1060000Y302169D02*
X1060527D01*
X995314Y355645D02*
X1065959Y285000D01*
X990230Y352451D02*
X1062221Y280460D01*
X990230Y352451D02*
Y356106D01*
X990230Y356106D02*
X990230Y356106D01*
X990230Y356106D02*
Y363261D01*
X990000Y363491D02*
X990230Y363261D01*
X1130460Y289540D02*
X1450460D01*
X1455920Y294080D02*
X1480000Y270000D01*
X1450460Y289540D02*
X1494770Y245230D01*
X1095730Y331770D02*
X1133420Y294080D01*
X1091190Y328810D02*
X1130460Y289540D01*
X1133420Y294080D02*
X1455920D01*
X1293500Y285000D02*
X1335000Y243500D01*
X915508Y182152D02*
X922874Y189518D01*
X1121834Y427500D02*
X1123585Y429250D01*
X1124250D01*
X1120000Y417500D02*
Y426012D01*
X1121488Y427500D01*
X1121834D01*
X1112500Y334000D02*
Y370230D01*
Y334000D02*
X1124750Y321750D01*
X287270Y377730D02*
X302854D01*
X280000Y385000D02*
X287270Y377730D01*
X302854D02*
X303584Y378460D01*
X280000Y385000D02*
Y455000D01*
X303584Y378460D02*
X305103D01*
X1349000Y134230D02*
X1351145Y132085D01*
X1376597D01*
X1368862Y137854D02*
Y138262D01*
X1443016Y128016D02*
Y141754D01*
X1442270Y142500D02*
X1443016Y141754D01*
X1368862Y138262D02*
X1372000Y141400D01*
X1376597Y132085D02*
X1378500Y133988D01*
X1321688Y236833D02*
Y237499D01*
Y236833D02*
X1324209Y234312D01*
Y225791D02*
X1327500Y222500D01*
X1320383Y187027D02*
X1321246D01*
X1315000Y182152D02*
X1315508D01*
X1321246Y187027D02*
X1321717Y187498D01*
X1315508Y182152D02*
X1320383Y187027D01*
X1327500Y222500D02*
X1327730D01*
X1324209Y225791D02*
Y234312D01*
X1112500Y370230D02*
X1112802Y370532D01*
X1219690Y377810D02*
X1230399Y367101D01*
X1112802Y370532D02*
Y377810D01*
X1120000D02*
X1219690D01*
X1135000Y170000D02*
Y178674D01*
X1136580Y180254D01*
Y180920D01*
X1122542Y185708D02*
X1124334Y187500D01*
X1125000D01*
X915000Y182152D02*
X915508D01*
X722949Y188609D02*
X723420Y189080D01*
X721965Y188609D02*
X722949D01*
X715000Y182152D02*
X715508D01*
X721965Y188609D01*
X735000Y170000D02*
Y182500D01*
X535144Y170144D02*
Y182356D01*
X522542Y185708D02*
X524484Y187649D01*
X535000Y170000D02*
X535144Y170144D01*
X524484Y187649D02*
Y188016D01*
X1044540Y420420D02*
Y472040D01*
Y420420D02*
X1089960Y375000D01*
X1065331Y409669D02*
X1072831D01*
X1082500Y400000D01*
X1290000Y395874D02*
Y405730D01*
X1325771Y323650D02*
X1327350Y325230D01*
X1308636Y323650D02*
X1325771D01*
X1327350Y325230D02*
X1328016D01*
X1456190Y401489D02*
X1468000Y413299D01*
Y439500D01*
X1428452Y313265D02*
X1451650Y336463D01*
Y405570D01*
X1380770Y331730D02*
Y353422D01*
X1399235Y313265D02*
X1428452D01*
X1380770Y331730D02*
X1399235Y313265D01*
X1390887Y308725D02*
X1430332D01*
X1375310Y324302D02*
X1390887Y308725D01*
X1430332D02*
X1456190Y334582D01*
Y401489D01*
X1367500Y350000D02*
X1375000D01*
X1375310Y349690D01*
Y324302D02*
Y349690D01*
X1375000Y359192D02*
X1380770Y353422D01*
X1375000Y359192D02*
Y365000D01*
X1409270Y410000D02*
X1409334D01*
X1412000Y412666D01*
X1400000Y413540D02*
Y414206D01*
X1404000Y418206D02*
Y439500D01*
X1340056Y394310D02*
Y406843D01*
X1400000Y414206D02*
X1404000Y418206D01*
X1392164Y429590D02*
Y438665D01*
X1392500Y439000D01*
X1391829Y429254D02*
X1392164Y429590D01*
X1420000Y429593D02*
X1421984Y427609D01*
X1420000Y429593D02*
Y439500D01*
X1421984Y426944D02*
Y427609D01*
X1383011Y445296D02*
Y446321D01*
X1385190Y448500D02*
X1393000D01*
X1383011Y446321D02*
X1385190Y448500D01*
X1382540Y444825D02*
X1383011Y445296D01*
X1475471Y438971D02*
X1476000Y439500D01*
X1475471Y426201D02*
Y438971D01*
X1475000Y425730D02*
X1475471Y426201D01*
X1617500Y403270D02*
Y413714D01*
X1615786Y438429D02*
X1617500Y436714D01*
X1615786Y438429D02*
Y464214D01*
X1547500Y270000D02*
X1628436Y350936D01*
X1634444D01*
X1480000Y270000D02*
X1547500D01*
X1715000Y420000D02*
X1720000Y425000D01*
X1690000Y416214D02*
X1691730Y417944D01*
X1695918D02*
X1695918Y417944D01*
X1699110Y420000D02*
X1715000D01*
X1691730Y417944D02*
X1695918D01*
X1695918Y417944D02*
X1697054D01*
X1699110Y420000D01*
X1691730Y462484D02*
X1695918D01*
X1712500Y460000D02*
X1720000Y452500D01*
X1690000Y464214D02*
X1691730Y462484D01*
X1695918D02*
X1695918Y462484D01*
X1697054D01*
X1699539Y460000D01*
X1712500D01*
X1666984Y441984D02*
X1670564D01*
X1642971Y420471D02*
X1645471D01*
X1642500Y420000D02*
X1642971Y420471D01*
X1645471D02*
X1666984Y441984D01*
X1607500Y397500D02*
X1607718D01*
X1610218Y395000D01*
X1635000D02*
X1672714Y432714D01*
X1610218Y395000D02*
X1635000D01*
X1625000Y422500D02*
Y422592D01*
X1625739Y414976D02*
Y421761D01*
Y414976D02*
X1627000Y413714D01*
X1622592Y425000D02*
X1625000Y422592D01*
X1597122Y425000D02*
X1622592D01*
X1625000Y422500D02*
X1625739Y421761D01*
X1551000Y456500D02*
X1589056Y418444D01*
X1607750Y397750D02*
Y416964D01*
X1606270Y418444D02*
X1607750Y416964D01*
X1557622Y464500D02*
X1597122Y425000D01*
X1589056Y418444D02*
X1606270D01*
X1612476Y467524D02*
X1615786Y464214D01*
X1690000D01*
X1375000Y427247D02*
Y457159D01*
X1362500Y430000D02*
X1370460Y437960D01*
X1358854Y411101D02*
X1375000Y427247D01*
Y457159D02*
X1387611Y469770D01*
X1370460Y459039D02*
X1384540Y473120D01*
X1370460Y437960D02*
Y459039D01*
X1390270Y471770D02*
X1392270D01*
X1393000Y472500D01*
X1387611Y469770D02*
X1388270D01*
X1384540Y473120D02*
Y487012D01*
X1388270Y469770D02*
X1390270Y471770D01*
X1358293Y453293D02*
X1380000Y475000D01*
Y490000D01*
X1358293Y442580D02*
Y453293D01*
X1265000Y405000D02*
X1273293Y413293D01*
X1265000Y368988D02*
Y405000D01*
X1273293Y413293D02*
Y427581D01*
X1265000Y368988D02*
X1266488Y367500D01*
X1295372D01*
X1305372Y377500D01*
X1140250Y321750D02*
X1162770Y299230D01*
X1239805D01*
X1246152Y305577D01*
Y316373D01*
X1230399Y359387D02*
Y367101D01*
X1251834Y360000D02*
X1252500D01*
X1252971Y350566D02*
X1254699D01*
X1252971D02*
Y359529D01*
X1246604Y365230D02*
X1251834Y360000D01*
X1252500D02*
X1252971Y359529D01*
X1254699Y350566D02*
X1256215Y349050D01*
X1237500Y365230D02*
X1246604D01*
X1256215Y349050D02*
X1261364D01*
X1171000Y317500D02*
X1182500D01*
X1202020Y337020D02*
X1220520D01*
X1182500Y317500D02*
X1202020Y337020D01*
X1220520D02*
X1222500Y339000D01*
Y347500D01*
X1310000Y471730D02*
Y472396D01*
X1308500Y473896D02*
Y482730D01*
Y473896D02*
X1310000Y472396D01*
X1163730Y503770D02*
X1180000Y487500D01*
X1172500Y469320D02*
X1180000Y476820D01*
Y487500D01*
X1155120Y487380D02*
Y488570D01*
Y487380D02*
X1162500Y480000D01*
X1146580Y482659D02*
Y486310D01*
X1124230Y475480D02*
X1132980D01*
X1142040Y484540D01*
Y488951D01*
X1132900Y468980D02*
X1146580Y482659D01*
X1124230Y468980D02*
X1132900D01*
X1161000Y507500D02*
X1168029Y514529D01*
X1160000Y507500D02*
X1161000D01*
X1168029Y514529D02*
X1169529D01*
X1161750Y506750D02*
X1163730Y504770D01*
X1169529Y514529D02*
X1170000Y515000D01*
X1161000Y507500D02*
X1161750Y506750D01*
X1160000Y507500D02*
X1161000D01*
X1049080Y425920D02*
Y469080D01*
Y425920D02*
X1065331Y409669D01*
X1055000Y475000D02*
X1066250D01*
X1066500Y474750D01*
X1536000Y134000D02*
Y154000D01*
X1530000Y128000D02*
X1536000Y134000D01*
X1049080Y469080D02*
X1055000Y475000D01*
X1081718Y450049D02*
X1082037D01*
X1084945Y444279D02*
X1089119Y448453D01*
X1085655Y455632D02*
X1089119Y452168D01*
X1085655Y455632D02*
Y456298D01*
X1076517Y455250D02*
X1081718Y450049D01*
X1089119Y448453D02*
Y452168D01*
X1075176Y448750D02*
X1079647Y444279D01*
X1066500Y448750D02*
X1075176D01*
X1079647Y444279D02*
X1084945D01*
X1066500Y455250D02*
X1076517D01*
X974770Y406739D02*
Y413512D01*
X973282Y415000D02*
X974770Y413512D01*
X955666Y416730D02*
X957396Y415000D01*
X973282D01*
X974770Y406739D02*
X974816Y406692D01*
X955000Y416730D02*
X955666D01*
X942500Y417500D02*
X947500Y422500D01*
X973921D02*
X979816Y416604D01*
X947500Y422500D02*
X973921D01*
X902610Y500000D02*
X1040739D01*
X892500Y499270D02*
X901880D01*
X880000Y505000D02*
X880040Y505040D01*
X900222D01*
X901880Y499270D02*
X902610Y500000D01*
X863988Y508552D02*
X866616Y511180D01*
X1145561D01*
X1146895Y509847D01*
X1079203Y506640D02*
X1080398Y505445D01*
X1043270Y489690D02*
X1046600Y493020D01*
X1075442Y497560D02*
X1076637Y496365D01*
X1044719Y497560D02*
X1075442D01*
X901822Y506640D02*
X1079203D01*
X1073562Y493020D02*
X1085332Y481250D01*
X1042839Y502100D02*
X1077323D01*
X1040739Y500000D02*
X1042839Y502100D01*
X1080398Y505445D02*
X1144494D01*
X900222Y505040D02*
X901822Y506640D01*
X1042619Y495460D02*
X1044719Y497560D01*
X1140540Y496365D02*
X1141338Y495568D01*
X1078517Y500905D02*
X1142590D01*
X1077323Y502100D02*
X1078517Y500905D01*
X1076637Y496365D02*
X1140540D01*
X1046600Y493020D02*
X1073562D01*
X905000Y494230D02*
X911380D01*
X912610Y495460D01*
X915000Y489690D02*
X1043270D01*
X912610Y495460D02*
X1042619D01*
X1085332Y481250D02*
X1123500D01*
Y487750D02*
X1124230Y488480D01*
X1132314D01*
X1134334Y490500D01*
X1135000D01*
X825000Y391509D02*
Y406012D01*
X826488Y407500D01*
X838512D01*
X840000Y376509D02*
Y406012D01*
X838512Y407500D02*
X840000Y406012D01*
X830000Y362091D02*
X837500Y354591D01*
Y331079D02*
Y354591D01*
X826421Y320000D02*
X837500Y331079D01*
X569529Y272029D02*
X570000Y272500D01*
X565000Y268310D02*
X568719Y272029D01*
X569529D01*
X364540Y304540D02*
X724648D01*
X750108Y330000D01*
X515000Y287500D02*
X527500Y300000D01*
X726529D02*
X751529Y325000D01*
X527500Y300000D02*
X726529D01*
X335000Y275000D02*
X364540Y304540D01*
X515000Y243988D02*
Y287500D01*
Y243988D02*
X516488Y242500D01*
X534000D01*
X525000Y225230D02*
Y236730D01*
X979816Y406692D02*
Y416604D01*
X973139Y430869D02*
X985000Y419008D01*
Y422509D01*
X1372000Y141400D02*
Y154746D01*
X1338810Y181834D02*
Y182500D01*
X1335000Y170000D02*
Y178024D01*
X1338810Y181834D01*
X1511000Y456500D02*
X1551000D01*
X1627000Y413714D02*
X1647294D01*
X1670834Y437254D01*
X1672714Y432714D02*
X1690000D01*
X1670834Y437254D02*
X1672254D01*
X1672714Y437714D01*
X1664024Y446524D02*
X1667500Y450000D01*
X1669856D02*
X1677571Y457714D01*
X1658596Y446524D02*
X1664024D01*
X1670564Y441984D02*
X1671294Y442714D01*
X1667500Y450000D02*
X1669856D01*
X1671294Y442714D02*
X1690000D01*
X1447110Y384610D02*
Y408245D01*
X1440000Y377500D02*
X1447110Y384610D01*
X1451650Y405570D02*
X1460000Y413921D01*
X1462500Y401379D02*
X1484000Y422879D01*
X1460000Y413921D02*
Y439500D01*
X1462500Y332500D02*
Y401379D01*
Y332500D02*
X1490000Y305000D01*
X1447110Y408245D02*
X1452000Y413135D01*
X1384540Y487012D02*
X1386028Y488500D01*
X1393000D01*
X1123500Y468250D02*
X1124230Y468980D01*
X1123500Y474750D02*
X1124230Y475480D01*
X1162500Y480000D02*
X1170000D01*
X1172500Y448055D02*
X1172500Y448055D01*
X1172500Y448055D02*
Y469320D01*
X1091190Y328810D02*
Y348810D01*
X1060000Y302169D02*
Y308500D01*
X985000Y406509D02*
Y419008D01*
Y390110D02*
Y406509D01*
X1095730Y331770D02*
Y384248D01*
X1102500Y391018D01*
X1020000Y420000D02*
X1091190Y348810D01*
X1000959Y420000D02*
X1020000D01*
X1044540Y472040D02*
X1053750Y481250D01*
X1040000Y415372D02*
Y480000D01*
Y415372D02*
X1089960Y365412D01*
X1040000Y480000D02*
X1047750Y487750D01*
X805000Y415040D02*
X814816Y405224D01*
Y391692D02*
Y405224D01*
X800000Y405000D02*
X804041D01*
X810000Y399041D01*
Y391509D02*
Y399041D01*
X751529Y325000D02*
X825000D01*
X771495Y320000D02*
X826421D01*
X829816Y329816D02*
Y348308D01*
X825000Y325000D02*
X829816Y329816D01*
X840000Y376509D02*
X845000Y371509D01*
X311500Y384857D02*
Y385000D01*
X305103Y378460D02*
X311500Y384857D01*
X1124750Y321750D02*
X1132500D01*
X1235200Y329250D02*
Y354587D01*
Y317500D02*
Y329250D01*
X1230399Y359387D02*
X1235200Y354587D01*
Y329250D02*
X1237180Y331230D01*
X1248309D01*
X1253429Y336350D01*
X1261364D01*
X1140250Y348250D02*
X1171000Y317500D01*
X1132500Y348250D02*
X1140250D01*
X1253429Y323650D02*
X1261364D01*
X1132500Y321750D02*
X1140250D01*
X1246152Y316373D02*
X1253429Y323650D01*
X1089960Y358956D02*
Y365412D01*
X1102500Y391018D02*
Y391018D01*
X1102500D02*
Y415000D01*
X1105000Y417500D01*
X1327500Y325000D02*
X1334770Y317730D01*
X1342500D01*
X1324529Y310471D02*
X1325000Y310000D01*
X1308636Y310950D02*
X1309115Y310471D01*
X1324529D01*
X1300701Y323650D02*
X1308636D01*
X1133638Y319250D02*
X1135250D01*
X915000Y430000D02*
X915666D01*
X917166Y431500D02*
X927500D01*
X915666Y430000D02*
X917166Y431500D01*
X878334D02*
X879334Y432500D01*
X867500Y431500D02*
X878334D01*
X879334Y432500D02*
X880000D01*
X810000Y366794D02*
X812540Y369334D01*
X810000Y348492D02*
Y366794D01*
X805000Y252500D02*
X817500D01*
X820000Y348492D02*
Y370000D01*
X866218Y468500D02*
X927500D01*
X863988Y470730D02*
X866218Y468500D01*
X863988Y470730D02*
Y508552D01*
X582500Y263000D02*
Y270000D01*
Y263000D02*
X585000Y260500D01*
X985000Y340000D02*
Y363491D01*
X1044334Y335000D02*
X1045000D01*
X1041604Y337730D02*
X1044334Y335000D01*
X1030000Y337730D02*
X1041604D01*
X1059954Y329672D02*
Y338454D01*
X1060000Y338500D01*
X1372750Y520250D02*
X1392750D01*
X1372500Y520000D02*
X1372750Y520250D01*
X1372971Y527971D02*
X1373716D01*
X1374246Y528500D01*
X1372500Y527500D02*
X1372971Y527971D01*
X1374246Y528500D02*
X1393000D01*
X1270793Y482233D02*
X1271301D01*
X1274857Y485789D02*
Y487357D01*
X1280000Y492500D01*
X1271301Y482233D02*
X1274857Y485789D01*
X482888Y490000D02*
X512500Y460388D01*
X1605000Y252500D02*
X1617500D01*
X1405000D02*
X1417500D01*
X1205000D02*
X1217500D01*
X1005000D02*
X1017500D01*
X405000D02*
X417500D01*
X605000D02*
X617500D01*
X1657500Y344939D02*
Y352500D01*
Y344939D02*
X1657668Y344772D01*
X1645000Y330000D02*
X1657668Y342668D01*
Y344772D01*
X1637500Y353992D02*
Y355000D01*
X1634444Y350936D02*
X1637500Y353992D01*
X1556940Y266310D02*
X1556940D01*
X1562750Y260500D01*
X845000Y425000D02*
X855040D01*
X330310Y182500D02*
X335000Y177810D01*
X329960Y182500D02*
X330310D01*
X335000Y170000D02*
Y177810D01*
X355000Y267500D02*
X355471Y267029D01*
X356221D02*
X362750Y260500D01*
X355471Y267029D02*
X356221D01*
X375000Y267500D02*
X375471Y267029D01*
X376221D01*
X382750Y260500D01*
X565000D02*
Y268310D01*
X535000Y241500D02*
Y242500D01*
X525000Y225230D02*
X527730Y222500D01*
X995000Y363491D02*
X995314Y363178D01*
Y355645D02*
Y363178D01*
X1667286Y390214D02*
X1667500Y390000D01*
X1657714Y390214D02*
X1667286D01*
X1657500Y390429D02*
X1657714Y390214D01*
X1102500Y422500D02*
X1106250Y418750D01*
X1434770Y332936D02*
Y337770D01*
X1432500Y330000D02*
Y330666D01*
X1434770Y332936D01*
X1422500Y322132D02*
Y330000D01*
X1434770Y337770D02*
X1437000Y340000D01*
X1422500Y322132D02*
X1423098Y321535D01*
X1403603Y327029D02*
X1408098Y322535D01*
X1400000Y327500D02*
X1400471Y327029D01*
X1408098Y321535D02*
Y322535D01*
X1400471Y327029D02*
X1403603D01*
X1368500Y482500D02*
Y482730D01*
X1247500Y427460D02*
X1258173D01*
X1258293Y427581D01*
X1085000Y419770D02*
Y430000D01*
X1087270Y417500D02*
X1087500D01*
X1085000Y419770D02*
X1087270Y417500D01*
X1085000Y430000D02*
X1085000Y430000D01*
X1087270Y417500D02*
X1089750Y419980D01*
X1072500Y417730D02*
X1072730Y417500D01*
X1060000Y430000D02*
X1060000D01*
X1057500Y432500D02*
Y440762D01*
X1060000Y430000D02*
X1072500Y417500D01*
X1057500Y432500D02*
X1060000Y430000D01*
X1072500Y417730D02*
Y430000D01*
X1521834Y402500D02*
X1522500D01*
X1512000Y400000D02*
X1519334D01*
X1521834Y402500D01*
X1530000Y385000D02*
X1538500Y376500D01*
X1475000Y385000D02*
X1530000D01*
X1475000D02*
X1475000D01*
Y400000D01*
Y340000D02*
Y385000D01*
X1435000Y411834D02*
X1437000Y409834D01*
Y400000D02*
Y409834D01*
X1435000Y411834D02*
Y412500D01*
X1400000Y327500D02*
Y340000D01*
X1400000Y340000D01*
Y387500D02*
Y400000D01*
X1400000Y387500D02*
X1400000Y387500D01*
X1452000Y413135D02*
Y439500D01*
X324334Y187500D02*
X325000D01*
X315000Y182152D02*
X318556Y185708D01*
X322542D01*
X324334Y187500D01*
X325000Y225230D02*
X327730Y222500D01*
X365500Y210254D02*
Y244000D01*
X342270Y222500D02*
Y234230D01*
X335000Y241500D02*
X342270Y234230D01*
X335000Y241500D02*
Y242500D01*
X348000D02*
X363000D01*
X365000Y244500D01*
X365500Y244000D01*
X362750Y260500D02*
X365000D01*
X378500Y210254D02*
Y227012D01*
X372000Y210254D02*
Y233750D01*
X378500Y227012D02*
X383988Y232500D01*
X397000D01*
X404000Y239500D01*
X372000Y233750D02*
X382750Y244500D01*
X404000Y239500D02*
X405000D01*
X382750Y244500D02*
X385000D01*
X382750Y260500D02*
X385000D01*
X325000Y225230D02*
Y237500D01*
X335000Y120000D02*
X335471Y120471D01*
X312500Y100000D02*
Y142500D01*
X335471Y120471D02*
Y134471D01*
X350730Y132500D02*
X377012D01*
X378500Y133988D01*
X349000Y134230D02*
X350730Y132500D01*
X349000Y134230D02*
Y135000D01*
X335471Y134471D02*
X336000Y135000D01*
X285000D02*
X285471Y135471D01*
X290471D01*
X442500Y127500D02*
Y142270D01*
X290471Y135471D02*
X293770Y138770D01*
X294770D01*
X297500Y141500D01*
X372166Y140334D02*
X372500Y140000D01*
X297500Y141500D02*
Y142500D01*
X336000Y135000D02*
Y154000D01*
X372166Y140334D02*
Y154580D01*
X335000Y155000D02*
X336000Y154000D01*
X372000Y154746D02*
X372166Y154580D01*
X334000Y155000D02*
X335000D01*
X267500Y146176D02*
X289760Y168436D01*
X326000Y163000D02*
X334000Y155000D01*
X315000Y163000D02*
X326000D01*
X289760Y168436D02*
Y168944D01*
X293316Y172500D01*
X293824D01*
X442270Y142500D02*
X442500Y142270D01*
X378500Y133988D02*
Y154746D01*
X268988Y57500D02*
X295400D01*
X267500Y58988D02*
X268988Y57500D01*
X295400D02*
X310400Y72500D01*
X285000D02*
X312500Y100000D01*
X267500Y58988D02*
Y146176D01*
X1083878Y468250D02*
X1102500Y449628D01*
Y422500D02*
Y449628D01*
X1066500Y468250D02*
X1083878D01*
X1133310Y461750D02*
X1150120Y478560D01*
X1123500Y461750D02*
X1133310D01*
X1053750Y481250D02*
X1066500D01*
X1047750Y487750D02*
X1066500D01*
X1127500Y442250D02*
X1132279Y447029D01*
X1134529D01*
X1123500Y442250D02*
X1127500D01*
X1134529Y447029D02*
X1135000Y447500D01*
X1123500Y448750D02*
X1133084D01*
X1127500Y455250D02*
X1135000Y447750D01*
X1123500Y455250D02*
X1127500D01*
X1135000Y447500D02*
Y447750D01*
X1072500Y417500D02*
X1072730D01*
X1057500Y440762D02*
X1058988Y442250D01*
X1066500D01*
X1136000Y135000D02*
Y154000D01*
X1135000Y135000D02*
X1136000D01*
X1130000D02*
X1135000D01*
X1157500Y410000D02*
X1170000D01*
X1165000Y440000D02*
X1172500Y447500D01*
Y448055D01*
X1333246Y442580D02*
X1343293D01*
X948166Y430991D02*
X949674Y432500D01*
X1019334Y432540D02*
X1020000D01*
X1520334Y439000D02*
X1521834Y437500D01*
X947500Y430991D02*
X948166D01*
X1330000Y440000D02*
X1330666D01*
X1521834Y437500D02*
X1522500D01*
X1330666Y440000D02*
X1333246Y442580D01*
X1018303Y431509D02*
X1019334Y432540D01*
X1511500Y439000D02*
X1520334D01*
X1142500Y430000D02*
X1152500Y440000D01*
X1142500Y415000D02*
Y430000D01*
X1006270Y431509D02*
X1018303D01*
X1142500Y415000D02*
X1147500Y410000D01*
X949674Y432500D02*
X960230D01*
X1152500Y440000D02*
X1165000D01*
X1319798Y369798D02*
X1320202D01*
X1340056Y406843D02*
X1340793Y407581D01*
X1315301Y365301D02*
X1319798Y369798D01*
X1511000Y464500D02*
X1557622D01*
X1645020Y454980D02*
X1657480D01*
X1657500Y455000D01*
X1603166Y468754D02*
X1604396Y467524D01*
X1602500Y468754D02*
X1603166D01*
X1604396Y467524D02*
X1612476D01*
X1645000Y454960D02*
X1645020Y454980D01*
X1670000Y482500D02*
X1680286Y472214D01*
X1690000D01*
X1672714Y437714D02*
X1690000D01*
X1703727D01*
X1677571Y457714D02*
X1690000D01*
X1607500Y397500D02*
X1607750Y397750D01*
X1657500Y400000D02*
Y409612D01*
X1678214Y408214D02*
X1690000D01*
X1675000Y405000D02*
X1678214Y408214D01*
X1657500Y409612D02*
X1675603Y427714D01*
X1690000D01*
X1657500Y445429D02*
X1658596Y446524D01*
X1690000Y447714D02*
X1704786D01*
X1707500Y445000D01*
Y441488D02*
Y445000D01*
X1703727Y437714D02*
X1707500Y441488D01*
X1720000Y425000D02*
Y452500D01*
X280000Y455000D02*
X315000Y490000D01*
X482888D01*
X1412000Y412666D02*
Y439500D01*
X1313785Y349050D02*
X1315301Y350566D01*
X1308636Y349050D02*
X1313785D01*
X1315301Y350566D02*
Y365301D01*
X1288001Y310950D02*
X1300701Y323650D01*
X1261364Y310950D02*
X1288001D01*
X1340000Y350000D02*
X1352500D01*
X1367500Y365000D02*
X1375000D01*
X1335000Y241500D02*
Y243500D01*
X809540Y425000D02*
Y452040D01*
X785127Y422554D02*
X787572Y425000D01*
X785127Y420815D02*
Y422554D01*
X784656Y420344D02*
X785127Y420815D01*
X787572Y425000D02*
X795000D01*
X845000Y425000D02*
X845000Y425000D01*
X815108Y330000D02*
X824816Y339708D01*
X750108Y330000D02*
X815108D01*
X845000Y306509D02*
Y371509D01*
X1285356Y55000D02*
X1302163Y71807D01*
X1270000Y57500D02*
X1272500Y55000D01*
X1285356D01*
X1077500Y57500D02*
X1095400D01*
X1110400Y72500D01*
X1070000Y65000D02*
X1077500Y57500D01*
X1070000Y65000D02*
Y148676D01*
X877500Y57500D02*
X897500D01*
X870000Y65000D02*
X877500Y57500D01*
X897500D02*
X910400Y70400D01*
Y72500D01*
X1288793Y378080D02*
X1290793Y380081D01*
X1275793Y378080D02*
X1288793D01*
X845000Y306509D02*
X891509Y260000D01*
Y260000D02*
X917500D01*
X942270Y222500D02*
Y234230D01*
X830000Y362091D02*
Y391509D01*
X935000Y241500D02*
X942270Y234230D01*
X925000Y225230D02*
Y237500D01*
X917500Y260000D02*
X935000Y242500D01*
X925000Y225230D02*
X927730Y222500D01*
X1079000Y328500D02*
X1080000D01*
X1077270Y326770D02*
X1079000Y328500D01*
X1077270Y325770D02*
Y326770D01*
X1060000Y308500D02*
X1077270Y325770D01*
X1494770Y245230D02*
X1533270D01*
X335000Y400000D02*
X340500Y405500D01*
X311500Y400000D02*
X335000D01*
X340500Y405500D02*
X342500D01*
X298500Y385000D02*
Y386000D01*
X308270Y395770D01*
Y396770D01*
X311500Y400000D01*
X1511500Y538000D02*
X1519500D01*
X1525000Y532500D01*
X1373166Y535000D02*
X1376166Y538000D01*
X1392500D01*
X1372500Y535000D02*
X1373166D01*
X1500500Y538000D02*
X1511500D01*
X1500000Y537500D02*
X1500500Y538000D01*
X1492000Y537500D02*
X1500000D01*
X1484000D02*
X1492000D01*
X1476000D02*
X1484000D01*
X1468000D02*
X1476000D01*
X1460000D02*
X1468000D01*
X1452000D02*
X1460000D01*
X1444000D02*
X1452000D01*
X1436000D02*
X1444000D01*
X1428000D02*
X1436000D01*
X1420000D02*
X1428000D01*
X1412000D02*
X1420000D01*
X1404000D02*
X1412000D01*
X1392500Y538000D02*
X1403500D01*
X1404000Y537500D01*
X1305372Y377500D02*
X1440000D01*
X1340000Y365000D02*
X1352500D01*
X1512000Y340000D02*
X1522500D01*
X1525000Y337500D01*
X1537500Y345666D02*
X1538500Y346666D01*
X1537500Y345000D02*
Y345666D01*
X1538500Y346666D02*
Y362730D01*
Y376500D02*
Y377270D01*
X1489919Y278293D02*
Y289919D01*
X1490000Y290000D01*
X1484000Y422879D02*
Y439500D01*
X1492000Y418500D02*
Y439500D01*
X1475000Y400000D02*
Y401500D01*
X1492000Y418500D01*
X1392750Y520250D02*
X1393000Y520500D01*
X1290000Y395874D02*
X1290793Y395081D01*
X1275793Y397233D02*
X1277945Y395081D01*
X1290793D01*
X1273293Y427581D02*
Y460581D01*
X1270793Y463081D02*
X1273293Y460581D01*
X1355563Y407581D02*
X1393919D01*
X1358854Y410871D02*
Y411101D01*
X1355333Y407581D02*
X1355563D01*
X1358854Y410871D01*
X1393919Y407581D02*
X1400000Y401500D01*
Y400000D02*
Y401500D01*
X1291793Y380081D02*
X1341713Y430000D01*
X1362500D01*
X1290793Y380081D02*
X1291793D01*
X1380000Y490000D02*
X1386500Y496500D01*
X1393000D01*
X1324770Y497270D02*
X1331500Y504000D01*
X1308500Y497270D02*
X1324770D01*
X1331500Y504000D02*
X1338500D01*
X1345500D02*
X1352230Y497270D01*
X1338500Y504000D02*
X1345500D01*
X1368500Y497270D02*
Y497500D01*
X504086Y70000D02*
X504739Y70653D01*
X500144Y70000D02*
X504086D01*
X507247Y70653D02*
X507900Y70000D01*
X504739Y70653D02*
X507247D01*
X492644Y62500D02*
X500144Y70000D01*
X475000Y62500D02*
X492644D01*
X472500Y65000D02*
Y151176D01*
Y65000D02*
X475000Y62500D01*
X472500Y151176D02*
X489760Y168436D01*
X670000Y62500D02*
X680000Y52500D01*
X695000D01*
X670000Y62500D02*
Y148676D01*
X885000Y72500D02*
X912500Y100000D01*
X708553Y66053D02*
Y70653D01*
X695000Y52500D02*
X708553Y66053D01*
X670000Y148676D02*
X689760Y168436D01*
X870000Y65000D02*
Y148676D01*
X889760Y168436D01*
X1070000Y148676D02*
X1089760Y168436D01*
X1309707Y71807D02*
X1310400Y72500D01*
X1302163Y71807D02*
X1309707D01*
X1270000Y57500D02*
Y148676D01*
X1289760Y168436D01*
X1472500Y57589D02*
Y151176D01*
X1473988Y56101D02*
X1494001D01*
X1472500Y57589D02*
X1473988Y56101D01*
X1494001D02*
X1510400Y72500D01*
X1472500Y151176D02*
X1489760Y168436D01*
X1222400Y419290D02*
X1254109Y387581D01*
X1254617D01*
X1222400Y419290D02*
Y420000D01*
Y499290D02*
Y500000D01*
Y499290D02*
X1249109Y472581D01*
X1249617D01*
X1163730Y503770D02*
Y504770D01*
X1147500Y410000D02*
X1157500D01*
X1160000Y522500D02*
X1174500D01*
X1197000Y500000D01*
X1189388Y425000D02*
X1194388Y420000D01*
X1197000D01*
X1157500Y425000D02*
X1189388D01*
X809540Y425000D02*
X832460D01*
X795000Y425000D02*
X795000Y425000D01*
X814816Y391692D02*
X815000Y391509D01*
X820000D02*
Y412270D01*
X832460Y424730D01*
X979816Y406692D02*
X980000Y406509D01*
X1530000Y120000D02*
Y128000D01*
X1485000Y135000D02*
X1485471Y135471D01*
X1490471D02*
X1493770Y138770D01*
X1485471Y135471D02*
X1490471D01*
X1330000Y128000D02*
X1336000Y134000D01*
X1330000Y120000D02*
Y128000D01*
X1125000Y130000D02*
X1130000Y135000D01*
X925000D02*
X936000D01*
X725000D02*
X736000D01*
X525000D02*
X536000D01*
X518556Y185708D02*
X522542D01*
X975000Y363491D02*
Y380110D01*
X985000Y390110D01*
X993730Y431239D02*
Y431509D01*
X985000Y422509D02*
X993730Y431239D01*
X990000Y390000D02*
X995000Y385000D01*
X990000Y390000D02*
Y406509D01*
X997500Y385000D02*
X1030000Y352500D01*
Y352270D02*
Y352500D01*
X995000Y385000D02*
X997500D01*
X1059230Y352270D02*
X1060000Y351500D01*
X1030000Y352270D02*
X1059230D01*
X1070500Y341500D02*
X1080000D01*
X1060500Y351500D02*
X1070500Y341500D01*
X1060000Y351500D02*
X1060500D01*
X1535000Y242500D02*
Y243500D01*
X1533270Y245230D02*
X1535000Y243500D01*
X1342270Y222500D02*
Y234230D01*
X1335000Y241500D02*
X1342270Y234230D01*
X995000Y406509D02*
Y414041D01*
X1000959Y420000D01*
X1135000Y242500D02*
Y260000D01*
X735000Y242500D02*
Y283505D01*
X771495Y320000D01*
X829816Y348308D02*
X830000Y348492D01*
X335000Y242500D02*
Y275000D01*
X824816Y339708D02*
Y348308D01*
X832460Y424730D02*
Y425000D01*
X1642270Y142500D02*
X1642500Y142270D01*
Y127500D02*
Y142270D01*
X1525000Y225230D02*
Y237500D01*
Y225230D02*
X1527730Y222500D01*
X1524334Y187500D02*
X1525000D01*
X1522542Y185708D02*
X1524334Y187500D01*
X1518556Y185708D02*
X1522542D01*
X1515000Y182152D02*
X1518556Y185708D01*
X1489760Y168436D02*
Y168944D01*
X1535000Y170000D02*
Y182500D01*
Y155000D02*
X1536000Y154000D01*
X1534000Y155000D02*
X1535000D01*
X1515000Y163000D02*
X1526000D01*
X1534000Y155000D01*
X1549000Y134230D02*
X1550730Y132500D01*
X1575000Y267500D02*
X1575471Y267029D01*
X1576221D01*
X1582750Y260500D01*
X1585000D01*
X1562750D02*
X1565000D01*
Y244500D02*
X1565500Y244000D01*
X1563000Y242500D02*
X1565000Y244500D01*
X1548000Y242500D02*
X1563000D01*
X1542270Y222500D02*
Y234230D01*
X1535000Y241500D02*
Y242500D01*
Y241500D02*
X1542270Y234230D01*
X1497500Y141500D02*
Y142500D01*
X1493770Y138770D02*
X1494770D01*
X1497500Y141500D01*
X1565500Y210254D02*
Y244000D01*
X1582750Y244500D02*
X1585000D01*
X1572000Y210254D02*
Y233750D01*
X1582750Y244500D01*
X1604000Y239500D02*
X1605000D01*
X1597000Y232500D02*
X1604000Y239500D01*
X1583988Y232500D02*
X1597000D01*
X1578500Y227012D02*
X1583988Y232500D01*
X1578500Y210254D02*
Y227012D01*
Y133988D02*
Y154746D01*
X1577012Y132500D02*
X1578500Y133988D01*
X1550730Y132500D02*
X1577012D01*
X1549000Y134230D02*
Y135000D01*
X1572000Y154746D02*
X1572166Y154580D01*
Y140334D02*
Y154580D01*
Y140334D02*
X1572500Y140000D01*
X1493316Y172500D02*
X1493824D01*
X1489760Y168944D02*
X1493316Y172500D01*
X1512500Y100000D02*
Y142500D01*
X1485000Y72500D02*
X1512500Y100000D01*
X1242270Y142500D02*
X1242500Y142270D01*
Y127500D02*
Y142270D01*
X1125000Y225230D02*
Y237500D01*
Y225230D02*
X1127730Y222500D01*
X1118556Y185708D02*
X1122542D01*
X1115000Y182152D02*
X1118556Y185708D01*
X1089760Y168436D02*
Y168944D01*
X1135000Y155000D02*
X1136000Y154000D01*
X1134000Y155000D02*
X1135000D01*
X1115000Y163000D02*
X1126000D01*
X1134000Y155000D01*
X1149000Y134230D02*
X1150730Y132500D01*
X1175000Y267500D02*
X1175471Y267029D01*
X1176221D01*
X1182750Y260500D01*
X1185000D01*
X1162750D02*
X1165000D01*
X1155000Y267500D02*
X1155471Y267029D01*
X1156221D02*
X1162750Y260500D01*
X1155471Y267029D02*
X1156221D01*
X1165000Y244500D02*
X1165500Y244000D01*
X1163000Y242500D02*
X1165000Y244500D01*
X1148000Y242500D02*
X1163000D01*
X1142270Y222500D02*
Y234230D01*
X1135000Y241500D02*
Y242500D01*
Y241500D02*
X1142270Y234230D01*
X1097500Y141500D02*
Y142500D01*
X1093770Y138770D02*
X1094770D01*
X1097500Y141500D01*
X1090471Y135471D02*
X1093770Y138770D01*
X1085471Y135471D02*
X1090471D01*
X1085000Y135000D02*
X1085471Y135471D01*
X1165500Y210254D02*
Y244000D01*
X1182750Y244500D02*
X1185000D01*
X1172000Y210254D02*
Y233750D01*
X1182750Y244500D01*
X1204000Y239500D02*
X1205000D01*
X1197000Y232500D02*
X1204000Y239500D01*
X1183988Y232500D02*
X1197000D01*
X1178500Y227012D02*
X1183988Y232500D01*
X1178500Y210254D02*
Y227012D01*
Y133988D02*
Y154746D01*
X1177012Y132500D02*
X1178500Y133988D01*
X1150730Y132500D02*
X1177012D01*
X1149000Y134230D02*
Y135000D01*
X1172000Y154746D02*
X1172166Y154580D01*
Y140334D02*
Y154580D01*
Y140334D02*
X1172500Y140000D01*
X1093316Y172500D02*
X1093824D01*
X1089760Y168944D02*
X1093316Y172500D01*
X1112500Y100000D02*
Y142500D01*
X1085000Y72500D02*
X1112500Y100000D01*
X1289760Y168436D02*
Y168944D01*
X1335000Y155000D02*
X1336000Y154000D01*
X1334000Y155000D02*
X1335000D01*
X1315000Y163000D02*
X1326000D01*
X1334000Y155000D01*
X1336000Y134000D02*
Y154000D01*
X1375000Y267500D02*
X1375471Y267029D01*
X1376221D01*
X1382750Y260500D01*
X1385000D01*
X1362750D02*
X1365000D01*
X1355000Y267500D02*
X1355471Y267029D01*
X1356221D02*
X1362750Y260500D01*
X1355471Y267029D02*
X1356221D01*
X1365000Y244500D02*
X1365500Y244000D01*
X1363000Y242500D02*
X1365000Y244500D01*
X1348000Y242500D02*
X1363000D01*
X1297500Y141500D02*
Y142500D01*
X1293770Y138770D02*
X1294770D01*
X1297500Y141500D01*
X1290471Y135471D02*
X1293770Y138770D01*
X1285471Y135471D02*
X1290471D01*
X1285000Y135000D02*
X1285471Y135471D01*
X1365500Y210254D02*
Y244000D01*
X1382750Y244500D02*
X1385000D01*
X1372000Y210254D02*
Y233750D01*
X1382750Y244500D01*
X1404000Y239500D02*
X1405000D01*
X1397000Y232500D02*
X1404000Y239500D01*
X1383988Y232500D02*
X1397000D01*
X1378500Y227012D02*
X1383988Y232500D01*
X1378500Y210254D02*
Y227012D01*
Y133988D02*
Y154746D01*
X1293316Y172500D02*
X1293824D01*
X1289760Y168944D02*
X1293316Y172500D01*
X1312500Y100000D02*
Y142500D01*
X1285000Y72500D02*
X1312500Y100000D01*
X1042270Y142500D02*
X1042500Y142270D01*
Y127500D02*
Y142270D01*
X889760Y168436D02*
Y168944D01*
X935000Y170000D02*
Y182500D01*
Y155000D02*
X936000Y154000D01*
X934000Y155000D02*
X935000D01*
X915000Y163000D02*
X926000D01*
X934000Y155000D01*
X936000Y135000D02*
Y154000D01*
X949000Y134230D02*
X950730Y132500D01*
X982750Y260500D02*
X985000D01*
X975000Y267500D02*
X975471Y267029D01*
X976221D01*
X982750Y260500D01*
X962750D02*
X965000D01*
X955000Y267500D02*
X955471Y267029D01*
X956221D02*
X962750Y260500D01*
X955471Y267029D02*
X956221D01*
X965000Y244500D02*
X965500Y244000D01*
X963000Y242500D02*
X965000Y244500D01*
X948000Y242500D02*
X963000D01*
X897500Y141500D02*
Y142500D01*
X893770Y138770D02*
X894770D01*
X897500Y141500D01*
X890471Y135471D02*
X893770Y138770D01*
X885471Y135471D02*
X890471D01*
X885000Y135000D02*
X885471Y135471D01*
X965500Y210254D02*
Y244000D01*
X982750Y244500D02*
X985000D01*
X972000Y210254D02*
Y233750D01*
X982750Y244500D01*
X1004000Y239500D02*
X1005000D01*
X997000Y232500D02*
X1004000Y239500D01*
X983988Y232500D02*
X997000D01*
X978500Y227012D02*
X983988Y232500D01*
X978500Y210254D02*
Y227012D01*
Y133988D02*
Y154746D01*
X977012Y132500D02*
X978500Y133988D01*
X950730Y132500D02*
X977012D01*
X949000Y134230D02*
Y135000D01*
X972000Y154746D02*
X972166Y154580D01*
Y140334D02*
Y154580D01*
Y140334D02*
X972500Y140000D01*
X893316Y172500D02*
X893824D01*
X889760Y168944D02*
X893316Y172500D01*
X912500Y100000D02*
Y142500D01*
X842270D02*
X842500Y142270D01*
Y127500D02*
Y142270D01*
X725000Y225230D02*
Y237500D01*
Y225230D02*
X727730Y222500D01*
X689760Y168436D02*
Y168944D01*
X735000Y155000D02*
X736000Y154000D01*
X734000Y155000D02*
X735000D01*
X715000Y163000D02*
X726000D01*
X734000Y155000D01*
X736000Y135000D02*
Y154000D01*
X749000Y134230D02*
X750730Y132500D01*
X782750Y260500D02*
X785000D01*
X775000Y267500D02*
X775471Y267029D01*
X776221D01*
X782750Y260500D01*
X756221Y267029D02*
X762750Y260500D01*
X755471Y267029D02*
X756221D01*
X755000Y267500D02*
X755471Y267029D01*
X762750Y260500D02*
X765000D01*
Y244500D02*
X765500Y244000D01*
X763000Y242500D02*
X765000Y244500D01*
X748000Y242500D02*
X763000D01*
X742270Y222500D02*
Y234230D01*
X735000Y241500D02*
Y242500D01*
Y241500D02*
X742270Y234230D01*
X697500Y141500D02*
Y142500D01*
X693770Y138770D02*
X694770D01*
X697500Y141500D01*
X690471Y135471D02*
X693770Y138770D01*
X685471Y135471D02*
X690471D01*
X685000Y135000D02*
X685471Y135471D01*
X765500Y210254D02*
Y244000D01*
X782750Y244500D02*
X785000D01*
X772000Y210254D02*
Y233750D01*
X782750Y244500D01*
X804000Y239500D02*
X805000D01*
X797000Y232500D02*
X804000Y239500D01*
X783988Y232500D02*
X797000D01*
X778500Y227012D02*
X783988Y232500D01*
X778500Y210254D02*
Y227012D01*
Y133988D02*
Y154746D01*
X777012Y132500D02*
X778500Y133988D01*
X750730Y132500D02*
X777012D01*
X749000Y134230D02*
Y135000D01*
X772000Y154746D02*
X772166Y154580D01*
Y140334D02*
Y154580D01*
Y140334D02*
X772500Y140000D01*
X693316Y172500D02*
X693824D01*
X689760Y168944D02*
X693316Y172500D01*
X712500Y100000D02*
Y142500D01*
X687500Y75000D02*
X712500Y100000D01*
X642270Y142500D02*
X642500Y142270D01*
Y127500D02*
Y142270D01*
X515000Y182152D02*
X518556Y185708D01*
X489760Y168436D02*
Y168944D01*
X535000Y155000D02*
X536000Y154000D01*
X534000Y155000D02*
X535000D01*
X515000Y163000D02*
X526000D01*
X534000Y155000D01*
X536000Y135000D02*
Y154000D01*
X549000Y134230D02*
X550730Y132500D01*
X565000Y244500D02*
X565500Y244000D01*
X563000Y242500D02*
X565000Y244500D01*
X548000Y242500D02*
X563000D01*
X542270Y222500D02*
Y234230D01*
X535000Y241500D02*
X542270Y234230D01*
X497500Y141500D02*
Y142500D01*
X493770Y138770D02*
X494770D01*
X497500Y141500D01*
X490471Y135471D02*
X493770Y138770D01*
X485471Y135471D02*
X490471D01*
X485000Y135000D02*
X485471Y135471D01*
X565500Y210254D02*
Y244000D01*
X582750Y244500D02*
X585000D01*
X572000Y210254D02*
Y233750D01*
X582750Y244500D01*
X604000Y239500D02*
X605000D01*
X597000Y232500D02*
X604000Y239500D01*
X583988Y232500D02*
X597000D01*
X578500Y227012D02*
X583988Y232500D01*
X578500Y210254D02*
Y227012D01*
Y133988D02*
Y154746D01*
X577012Y132500D02*
X578500Y133988D01*
X550730Y132500D02*
X577012D01*
X549000Y134230D02*
Y135000D01*
X572000Y154746D02*
X572166Y154580D01*
Y140334D02*
Y154580D01*
Y140334D02*
X572500Y140000D01*
X493316Y172500D02*
X493824D01*
X489760Y168944D02*
X493316Y172500D01*
X512500Y100000D02*
Y142500D01*
X485000Y72500D02*
X512500Y100000D01*
X60040Y577540D02*
Y583538D01*
X63039D01*
X64039Y582538D01*
Y580539D01*
X63039Y579539D01*
X60040D01*
X70037Y582538D02*
X69037Y583538D01*
X67038D01*
X66038Y582538D01*
Y578540D01*
X67038Y577540D01*
X69037D01*
X70037Y578540D01*
X72036Y583538D02*
Y577540D01*
X75035D01*
X76035Y578540D01*
Y579539D01*
X75035Y580539D01*
X72036D01*
X75035D01*
X76035Y581539D01*
Y582538D01*
X75035Y583538D01*
X72036D01*
X84032Y577540D02*
Y583538D01*
X87031D01*
X88031Y582538D01*
Y580539D01*
X87031Y579539D01*
X84032D01*
X86032D02*
X88031Y577540D01*
X94029Y583538D02*
X90030D01*
Y577540D01*
X94029D01*
X90030Y580539D02*
X92030D01*
X96028Y583538D02*
Y579539D01*
X98028Y577540D01*
X100027Y579539D01*
Y583538D01*
X108025D02*
Y577540D01*
X111024D01*
X112023Y578540D01*
Y579539D01*
X111024Y580539D01*
X108025D01*
X111024D01*
X112023Y581539D01*
Y582538D01*
X111024Y583538D01*
X108025D01*
X118021Y577540D02*
X114023D01*
X118021Y581539D01*
Y582538D01*
X117022Y583538D01*
X115022D01*
X114023Y582538D01*
D15*
X1150850Y479290D02*
Y497751D01*
X1150120Y478560D02*
X1150850Y479290D01*
X1148000Y500601D02*
X1150850Y497751D01*
X1146580Y486310D02*
Y496364D01*
X1144000Y498944D02*
X1146580Y496364D01*
X1154850Y488840D02*
Y499407D01*
Y488840D02*
X1155120Y488570D01*
X1142590Y500905D02*
X1144000Y499496D01*
Y498944D02*
Y499496D01*
X1144494Y505445D02*
X1144494D01*
X1148000Y501939D01*
X1141338Y495568D02*
X1141719D01*
X1152000Y502257D02*
Y504741D01*
Y502257D02*
X1154850Y499407D01*
X1146895Y509847D02*
X1152000Y504741D01*
X1148000Y500601D02*
Y501939D01*
X1142040Y488951D02*
Y495247D01*
X1141719Y495568D02*
X1142040Y495247D01*
D21*
X975000Y407000D02*
D03*
X980000D02*
D03*
X985000D02*
D03*
X990000D02*
D03*
X995000D02*
D03*
Y363000D02*
D03*
X990000D02*
D03*
X985000D02*
D03*
X980000D02*
D03*
X975000D02*
D03*
X810000Y392000D02*
D03*
X815000D02*
D03*
X820000D02*
D03*
X825000D02*
D03*
X830000D02*
D03*
Y348000D02*
D03*
X825000D02*
D03*
X820000D02*
D03*
X815000D02*
D03*
X810000D02*
D03*
D22*
X1222500Y347500D02*
D03*
X1235200Y317500D02*
D03*
X1209800D02*
D03*
D23*
X1342500Y317730D02*
D03*
Y332270D02*
D03*
X1538500Y377270D02*
D03*
Y362730D02*
D03*
X1368500Y497270D02*
D03*
Y482730D02*
D03*
X1308500Y497270D02*
D03*
Y482730D02*
D03*
X1240000Y379770D02*
D03*
Y365230D02*
D03*
X370000Y372270D02*
D03*
Y357730D02*
D03*
X1030000Y337730D02*
D03*
Y352270D02*
D03*
D24*
X1132500Y348250D02*
D03*
Y321750D02*
D03*
D25*
X1261364Y310950D02*
D03*
Y323650D02*
D03*
Y336350D02*
D03*
Y349050D02*
D03*
X1308636D02*
D03*
Y336350D02*
D03*
Y323650D02*
D03*
D26*
Y310950D02*
D03*
D27*
X812500Y475500D02*
D03*
Y509500D02*
D03*
X545000Y467000D02*
D03*
Y433000D02*
D03*
D28*
X311500Y400000D02*
D03*
X298500D02*
D03*
Y385000D02*
D03*
X311500D02*
D03*
D29*
X1060000Y351500D02*
D03*
Y338500D02*
D03*
X1080000Y341500D02*
D03*
Y328500D02*
D03*
D30*
X867500Y468500D02*
D03*
X927500D02*
D03*
X867500Y431500D02*
D03*
X927500D02*
D03*
D31*
X1713796Y362500D02*
D03*
X1676204D02*
D03*
X623796Y457500D02*
D03*
X586204D02*
D03*
X621296Y412500D02*
D03*
X583704D02*
D03*
D32*
X1638000Y355000D02*
D03*
X1657152D02*
D03*
X1647500Y376176D02*
D03*
D33*
X1512000Y400000D02*
D03*
Y340000D02*
D03*
X1475000Y400000D02*
D03*
Y340000D02*
D03*
X1437000Y400000D02*
D03*
Y340000D02*
D03*
X1400000Y400000D02*
D03*
Y340000D02*
D03*
D34*
X1358293Y442580D02*
D03*
X1343293D02*
D03*
X1423098Y321535D02*
D03*
X1408098D02*
D03*
X312500Y142500D02*
D03*
X297500D02*
D03*
X349000Y242500D02*
D03*
X334000D02*
D03*
X335000Y135000D02*
D03*
X350000D02*
D03*
X1105000Y417500D02*
D03*
X1120000D02*
D03*
X1534000Y242500D02*
D03*
X1549000D02*
D03*
X1334000D02*
D03*
X1349000D02*
D03*
X1134000D02*
D03*
X1149000D02*
D03*
X934000D02*
D03*
X949000D02*
D03*
X734000D02*
D03*
X749000D02*
D03*
X534000D02*
D03*
X549000D02*
D03*
X1550000Y135000D02*
D03*
X1535000D02*
D03*
X1350000D02*
D03*
X1335000D02*
D03*
X1150000D02*
D03*
X1135000D02*
D03*
X950000D02*
D03*
X935000D02*
D03*
X750000D02*
D03*
X735000D02*
D03*
X550000D02*
D03*
X535000D02*
D03*
X1352500Y365000D02*
D03*
X1367500D02*
D03*
X1352500Y350000D02*
D03*
X1367500D02*
D03*
X1497500Y142500D02*
D03*
X1512500D02*
D03*
X1297500D02*
D03*
X1312500D02*
D03*
X1097500D02*
D03*
X1112500D02*
D03*
X897500D02*
D03*
X912500D02*
D03*
X697500D02*
D03*
X712500D02*
D03*
X497500D02*
D03*
X512500D02*
D03*
X1273293Y427581D02*
D03*
X1258293D02*
D03*
D35*
X1338500Y476000D02*
D03*
Y504000D02*
D03*
X432500Y183500D02*
D03*
Y211500D02*
D03*
X1632500D02*
D03*
Y183500D02*
D03*
X1432500Y211500D02*
D03*
Y183500D02*
D03*
X1232500Y211500D02*
D03*
Y183500D02*
D03*
X1032500Y211500D02*
D03*
Y183500D02*
D03*
X832500Y211500D02*
D03*
Y183500D02*
D03*
X632500Y211500D02*
D03*
Y183500D02*
D03*
X340000Y374000D02*
D03*
Y346000D02*
D03*
X650000Y389000D02*
D03*
Y361000D02*
D03*
X655000Y464000D02*
D03*
Y436000D02*
D03*
Y496000D02*
D03*
Y524000D02*
D03*
D36*
X365500Y154746D02*
D03*
X1565500D02*
D03*
X1365500D02*
D03*
X1165500D02*
D03*
X965500D02*
D03*
X765500D02*
D03*
X565500D02*
D03*
D37*
X372000D02*
D03*
X378500D02*
D03*
X385000D02*
D03*
X391500D02*
D03*
X398000D02*
D03*
X404500D02*
D03*
Y210254D02*
D03*
X398000D02*
D03*
X391500D02*
D03*
X385000D02*
D03*
X378500D02*
D03*
X372000D02*
D03*
X365500D02*
D03*
X1565500D02*
D03*
X1572000D02*
D03*
X1578500D02*
D03*
X1585000D02*
D03*
X1591500D02*
D03*
X1598000D02*
D03*
X1604500D02*
D03*
Y154746D02*
D03*
X1598000D02*
D03*
X1591500D02*
D03*
X1585000D02*
D03*
X1578500D02*
D03*
X1572000D02*
D03*
X1365500Y210254D02*
D03*
X1372000D02*
D03*
X1378500D02*
D03*
X1385000D02*
D03*
X1391500D02*
D03*
X1398000D02*
D03*
X1404500D02*
D03*
Y154746D02*
D03*
X1398000D02*
D03*
X1391500D02*
D03*
X1385000D02*
D03*
X1378500D02*
D03*
X1372000D02*
D03*
X1165500Y210254D02*
D03*
X1172000D02*
D03*
X1178500D02*
D03*
X1185000D02*
D03*
X1191500D02*
D03*
X1198000D02*
D03*
X1204500D02*
D03*
Y154746D02*
D03*
X1198000D02*
D03*
X1191500D02*
D03*
X1185000D02*
D03*
X1178500D02*
D03*
X1172000D02*
D03*
X965500Y210254D02*
D03*
X972000D02*
D03*
X978500D02*
D03*
X985000D02*
D03*
X991500D02*
D03*
X998000D02*
D03*
X1004500D02*
D03*
Y154746D02*
D03*
X998000D02*
D03*
X991500D02*
D03*
X985000D02*
D03*
X978500D02*
D03*
X972000D02*
D03*
X765500Y210254D02*
D03*
X772000D02*
D03*
X778500D02*
D03*
X785000D02*
D03*
X791500D02*
D03*
X798000D02*
D03*
X804500D02*
D03*
Y154746D02*
D03*
X798000D02*
D03*
X791500D02*
D03*
X785000D02*
D03*
X778500D02*
D03*
X772000D02*
D03*
X565500Y210254D02*
D03*
X572000D02*
D03*
X578500D02*
D03*
X585000D02*
D03*
X591500D02*
D03*
X598000D02*
D03*
X604500D02*
D03*
Y154746D02*
D03*
X598000D02*
D03*
X591500D02*
D03*
X585000D02*
D03*
X578500D02*
D03*
X572000D02*
D03*
D38*
X365000Y244500D02*
D03*
Y260500D02*
D03*
X385000Y244500D02*
D03*
Y260500D02*
D03*
X1585000D02*
D03*
Y244500D02*
D03*
X1565000Y260500D02*
D03*
Y244500D02*
D03*
X1385000Y260500D02*
D03*
Y244500D02*
D03*
X1365000Y260500D02*
D03*
Y244500D02*
D03*
X1185000Y260500D02*
D03*
Y244500D02*
D03*
X1165000Y260500D02*
D03*
Y244500D02*
D03*
X985000Y260500D02*
D03*
Y244500D02*
D03*
X965000Y260500D02*
D03*
Y244500D02*
D03*
X785000Y260500D02*
D03*
Y244500D02*
D03*
X765000Y260500D02*
D03*
Y244500D02*
D03*
X585000Y260500D02*
D03*
Y244500D02*
D03*
X565000Y260500D02*
D03*
Y244500D02*
D03*
D39*
X405000Y253500D02*
D03*
Y238500D02*
D03*
X335000Y155000D02*
D03*
Y170000D02*
D03*
X1605000Y238500D02*
D03*
Y253500D02*
D03*
X1405000Y238500D02*
D03*
Y253500D02*
D03*
X1205000Y238500D02*
D03*
Y253500D02*
D03*
X1005000Y238500D02*
D03*
Y253500D02*
D03*
X805000Y238500D02*
D03*
Y253500D02*
D03*
X605000Y238500D02*
D03*
Y253500D02*
D03*
X1535000Y170000D02*
D03*
Y155000D02*
D03*
X1335000Y170000D02*
D03*
Y155000D02*
D03*
X1135000Y170000D02*
D03*
Y155000D02*
D03*
X935000Y170000D02*
D03*
Y155000D02*
D03*
X735000Y170000D02*
D03*
Y155000D02*
D03*
X535000Y170000D02*
D03*
Y155000D02*
D03*
X1490000Y290000D02*
D03*
Y305000D02*
D03*
X1157500Y410000D02*
D03*
Y425000D02*
D03*
X1160000Y507500D02*
D03*
Y522500D02*
D03*
X1290793Y380081D02*
D03*
Y395081D02*
D03*
D40*
X293824Y172500D02*
D03*
X315000Y182152D02*
D03*
Y163000D02*
D03*
X1515000D02*
D03*
Y182152D02*
D03*
X1493824Y172500D02*
D03*
X1315000Y163000D02*
D03*
Y182152D02*
D03*
X1293824Y172500D02*
D03*
X1115000Y163000D02*
D03*
Y182152D02*
D03*
X1093824Y172500D02*
D03*
X915000Y163000D02*
D03*
Y182152D02*
D03*
X893824Y172500D02*
D03*
X715000Y163000D02*
D03*
Y182152D02*
D03*
X693824Y172500D02*
D03*
X515000Y163000D02*
D03*
Y182152D02*
D03*
X493824Y172500D02*
D03*
X1275793Y378080D02*
D03*
Y397233D02*
D03*
X1254617Y387581D02*
D03*
X1270793Y463081D02*
D03*
Y482233D02*
D03*
X1249617Y472581D02*
D03*
D41*
X342270Y222500D02*
D03*
X327730D02*
D03*
X427730Y142500D02*
D03*
X442270D02*
D03*
X1072730Y417500D02*
D03*
X1087270D02*
D03*
X960230Y432500D02*
D03*
X974770D02*
D03*
X795000Y425000D02*
D03*
X809540D02*
D03*
X1527730Y222500D02*
D03*
X1542270D02*
D03*
X1327730D02*
D03*
X1342270D02*
D03*
X1127730D02*
D03*
X1142270D02*
D03*
X927730D02*
D03*
X942270D02*
D03*
X727730D02*
D03*
X742270D02*
D03*
X842270Y142500D02*
D03*
X827730D02*
D03*
X527730Y222500D02*
D03*
X542270D02*
D03*
X1642270Y142500D02*
D03*
X1627730D02*
D03*
X1442270D02*
D03*
X1427730D02*
D03*
X1242270D02*
D03*
X1227730D02*
D03*
X1042270D02*
D03*
X1027730D02*
D03*
X642270D02*
D03*
X627730D02*
D03*
X362270Y445000D02*
D03*
X347730D02*
D03*
X1340793Y407581D02*
D03*
X1355333D02*
D03*
D42*
X1066500Y487750D02*
D03*
Y481250D02*
D03*
Y474750D02*
D03*
Y468250D02*
D03*
Y461750D02*
D03*
Y455250D02*
D03*
Y448750D02*
D03*
Y442250D02*
D03*
X1123500Y487750D02*
D03*
Y481250D02*
D03*
Y474750D02*
D03*
Y468250D02*
D03*
Y461750D02*
D03*
Y455250D02*
D03*
Y448750D02*
D03*
Y442250D02*
D03*
D43*
X1690000Y408214D02*
D03*
Y416214D02*
D03*
Y464214D02*
D03*
Y472214D02*
D03*
D44*
Y422714D02*
D03*
Y427714D02*
D03*
Y432714D02*
D03*
Y437714D02*
D03*
Y442714D02*
D03*
Y447714D02*
D03*
Y452714D02*
D03*
Y457714D02*
D03*
D45*
X1608000Y436714D02*
D03*
X1617500D02*
D03*
X1627000D02*
D03*
Y413714D02*
D03*
X1617500D02*
D03*
X1608000D02*
D03*
D46*
X1657500Y445429D02*
D03*
Y455000D02*
D03*
Y400000D02*
D03*
Y390429D02*
D03*
D47*
X688250Y498000D02*
D03*
Y475000D02*
D03*
Y452000D02*
D03*
Y367000D02*
D03*
Y390000D02*
D03*
Y413000D02*
D03*
D48*
X751750Y475000D02*
D03*
Y390000D02*
D03*
D49*
X175000Y134000D02*
D03*
Y221000D02*
D03*
D50*
X1006270Y431509D02*
D03*
X993730D02*
D03*
X845000Y425000D02*
D03*
X832460D02*
D03*
D51*
X370000Y424500D02*
D03*
Y415000D02*
D03*
Y405500D02*
D03*
X342500D02*
D03*
Y415000D02*
D03*
Y424500D02*
D03*
D52*
X405000Y425000D02*
D03*
X505000D02*
D03*
D53*
X1393000Y528500D02*
D03*
Y520500D02*
D03*
Y512500D02*
D03*
Y504500D02*
D03*
Y496500D02*
D03*
Y488500D02*
D03*
Y480500D02*
D03*
Y472500D02*
D03*
Y464500D02*
D03*
Y456500D02*
D03*
Y448500D02*
D03*
X1511000D02*
D03*
Y456500D02*
D03*
Y464500D02*
D03*
Y472500D02*
D03*
Y480500D02*
D03*
Y488500D02*
D03*
Y496500D02*
D03*
Y504500D02*
D03*
Y512500D02*
D03*
Y520500D02*
D03*
Y528500D02*
D03*
D54*
X1404000Y439500D02*
D03*
X1412000D02*
D03*
X1420000D02*
D03*
X1428000D02*
D03*
X1436000D02*
D03*
X1444000D02*
D03*
X1452000D02*
D03*
X1460000D02*
D03*
X1468000D02*
D03*
X1476000D02*
D03*
X1484000D02*
D03*
X1492000D02*
D03*
X1500000D02*
D03*
Y537500D02*
D03*
X1492000D02*
D03*
X1484000D02*
D03*
X1476000D02*
D03*
X1468000D02*
D03*
X1460000D02*
D03*
X1452000D02*
D03*
X1444000D02*
D03*
X1436000D02*
D03*
X1428000D02*
D03*
X1420000D02*
D03*
X1412000D02*
D03*
X1404000D02*
D03*
D55*
X1452000Y488500D02*
D03*
X1471750Y508250D02*
D03*
X1452000D02*
D03*
X1432250Y488500D02*
D03*
Y468750D02*
D03*
X1452000D02*
D03*
X1471750D02*
D03*
Y488500D02*
D03*
D56*
X1392500Y538000D02*
D03*
Y439000D02*
D03*
X1511500D02*
D03*
Y538000D02*
D03*
D64*
X385000Y182500D02*
D03*
X1585000D02*
D03*
X1385000D02*
D03*
X1185000D02*
D03*
X985000D02*
D03*
X785000D02*
D03*
X585000D02*
D03*
D79*
X21800Y121500D02*
D03*
Y198500D02*
D03*
D80*
X95000Y220000D02*
D03*
Y190000D02*
D03*
Y160000D02*
D03*
Y130000D02*
D03*
Y100000D02*
D03*
X65000Y220000D02*
D03*
Y190000D02*
D03*
Y160000D02*
D03*
Y130000D02*
D03*
D81*
Y100000D02*
D03*
D99*
X1432250Y508250D02*
D03*
D100*
X570000Y460000D02*
Y462500D01*
X195578Y338175D02*
X278175D01*
X193403Y336000D02*
X195578Y338175D01*
X278175D02*
X314000Y374000D01*
X85000Y336000D02*
X193403D01*
X370000Y405500D02*
X370000Y405500D01*
X370000Y405500D02*
Y410000D01*
X314000Y374000D02*
X340000D01*
X627175Y361000D02*
X650000D01*
X625795Y362380D02*
X627175Y361000D01*
X688250Y498000D02*
X688750Y497500D01*
X712500D01*
X712500Y497500D02*
X727500D01*
X712500Y497500D02*
X712500Y497500D01*
X545000Y467000D02*
Y522500D01*
X512500Y460388D02*
X525000Y447888D01*
X665325Y515675D02*
X683000Y498000D01*
X665325Y515675D02*
Y520675D01*
X683000Y498000D02*
X688250D01*
X662000Y524000D02*
X665325Y520675D01*
X655000Y524000D02*
X662000D01*
X655000Y420000D02*
Y436000D01*
X370000Y345000D02*
Y357730D01*
X370000Y345000D02*
X370000Y345000D01*
X572500Y457500D02*
X586204D01*
X570000Y460000D02*
X572500Y457500D01*
X667500Y412500D02*
X668000Y413000D01*
X337500Y343500D02*
X340000Y346000D01*
X337500Y332500D02*
Y343500D01*
X287500Y400000D02*
X298500D01*
X322500Y415000D02*
X342500D01*
X369135Y373135D02*
X370000Y372270D01*
X340865Y373135D02*
X369135D01*
X340000Y374000D02*
X340865Y373135D01*
X370000Y372270D02*
Y405500D01*
X330000Y430000D02*
X335325Y424675D01*
X342325D02*
X342500Y424500D01*
X335325Y424675D02*
X342325D01*
X330000Y441280D02*
X333720Y445000D01*
X347730D01*
X330000Y430000D02*
Y441280D01*
X362270Y430580D02*
X368350Y424500D01*
X370000D01*
X362270Y430580D02*
Y445000D01*
X404500Y424500D02*
X405000Y425000D01*
X370000Y424500D02*
X404500D01*
X668000Y413000D02*
X688250D01*
D101*
X1662500Y303591D02*
X1680000Y286091D01*
X1662500Y327843D02*
X1676204Y341547D01*
X1662500Y303591D02*
Y327843D01*
X972500Y457500D02*
X990000D01*
X905000Y407500D02*
Y450000D01*
Y407500D02*
X945000Y367500D01*
X1300701Y336350D02*
X1308636D01*
X1282500Y354551D02*
X1300701Y336350D01*
X1282500Y354551D02*
Y357500D01*
X1240000Y379540D02*
X1242021Y377519D01*
X1242251D01*
X1244770Y375000D01*
X1250000D01*
X1240000Y379540D02*
Y379770D01*
X1316772Y336350D02*
X1320852Y332270D01*
X1342500D01*
X1308636Y336350D02*
X1316772D01*
X507500Y497500D02*
X512500Y492500D01*
Y460388D02*
Y492500D01*
X1647500Y376176D02*
X1662528D01*
X1676204Y362500D01*
Y341547D02*
Y362500D01*
X525000Y438961D02*
Y447888D01*
Y438961D02*
X535083Y428878D01*
X1713796Y362500D02*
X1730000D01*
X1680000Y247000D02*
Y286091D01*
X1708716Y357420D02*
X1713796Y362500D01*
X1680000Y323000D02*
X1708716Y351716D01*
Y357420D01*
X974770Y432500D02*
Y455230D01*
X993730Y431509D02*
Y453770D01*
X990000Y457500D02*
X993730Y453770D01*
X972500Y457500D02*
X974770Y455230D01*
D102*
X685700Y367000D02*
X688250D01*
X617439Y342500D02*
X670000D01*
X684350Y356850D02*
Y365650D01*
X685700Y367000D01*
X670000Y342500D02*
X684350Y356850D01*
X610000Y349939D02*
X617439Y342500D01*
X610000Y349939D02*
Y400442D01*
X620026Y410468D01*
X905000Y450000D02*
X927500D01*
X809540D02*
X905000D01*
X732500Y522500D02*
X790000D01*
X750000Y520000D02*
X755000Y515000D01*
X620026Y410468D02*
Y420792D01*
X539204Y433000D02*
X546050D01*
X730000Y520000D02*
X732500Y522500D01*
X751750Y475000D02*
X755000Y478250D01*
Y515000D01*
X1260000Y520000D02*
X1270000D01*
X927500Y450000D02*
X932730Y455230D01*
X755650Y410650D02*
X795000Y450000D01*
X755650Y393900D02*
Y410650D01*
X795000Y450000D02*
X807500D01*
X932730Y455230D02*
X974770D01*
X688250Y475000D02*
X751750D01*
Y390000D02*
X755650Y393900D01*
X559705Y412500D02*
X583704D01*
X546150Y426054D02*
X559705Y412500D01*
X546150Y426054D02*
Y432900D01*
X508878Y428878D02*
X535083D01*
X505000Y425000D02*
X508878Y428878D01*
X535083D02*
X539204Y433000D01*
X1270000Y520000D02*
X1280000D01*
X1290000D01*
X1295000Y515000D02*
X1320500D01*
X1290000Y520000D02*
X1295000Y515000D01*
X1320500D02*
X1331350Y504150D01*
X85350Y339650D02*
X108550D01*
X85000Y340000D02*
X85350Y339650D01*
X108550D02*
X112200Y336000D01*
X662000Y496000D02*
X681650Y476350D01*
X655000Y496000D02*
X662000D01*
X620000Y420818D02*
Y448028D01*
X622526Y450555D01*
X620000Y420818D02*
X620026Y420792D01*
X622526Y450555D02*
Y456230D01*
X623796Y457500D01*
X672650Y453350D02*
X686900D01*
X688250Y452000D01*
X655000Y464000D02*
X662000D01*
X672650Y453350D01*
X627646Y463850D02*
X654850D01*
X655000Y464000D01*
X650150Y389150D02*
X687400D01*
X650000Y389000D02*
X650150Y389150D01*
X687400D02*
X688250Y390000D01*
X751750D01*
D103*
X425700Y572140D02*
D03*
X400300D02*
D03*
X374900D02*
D03*
D104*
X349500D02*
D03*
D105*
X1680000Y247000D02*
D03*
Y323000D02*
D03*
D106*
X285000Y72500D02*
D03*
X310400D02*
D03*
X1222400Y500000D02*
D03*
X1197000D02*
D03*
X510400Y72500D02*
D03*
X485000D02*
D03*
X1510400D02*
D03*
X1485000D02*
D03*
X1310400D02*
D03*
X1285000D02*
D03*
X1110400D02*
D03*
X1085000D02*
D03*
X910400D02*
D03*
X885000D02*
D03*
X710400D02*
D03*
X685000D02*
D03*
X1222400Y420000D02*
D03*
X1197000D02*
D03*
D107*
X385000Y112500D02*
D03*
X1585000D02*
D03*
X1385000D02*
D03*
X1185000D02*
D03*
X985000D02*
D03*
X785000D02*
D03*
X585000D02*
D03*
D108*
X385000Y52500D02*
D03*
X1585000D02*
D03*
X1385000D02*
D03*
X1185000D02*
D03*
X985000D02*
D03*
X785000D02*
D03*
X585000D02*
D03*
X80000Y473000D02*
D03*
D109*
X432000Y82500D02*
D03*
X1632000D02*
D03*
X1432000D02*
D03*
X1232000D02*
D03*
X1032000D02*
D03*
X832000D02*
D03*
X632000D02*
D03*
X50000Y520000D02*
D03*
D110*
X1695700Y397014D02*
D03*
Y483414D02*
D03*
D111*
X1737500Y397014D02*
D03*
Y483414D02*
D03*
D112*
X1700700Y469114D02*
D03*
Y411314D02*
D03*
D113*
X50000Y287000D02*
D03*
Y443000D02*
D03*
D114*
X121500Y394000D02*
D03*
Y336000D02*
D03*
X85000Y390000D02*
D03*
Y340000D02*
D03*
D115*
X30000Y365000D02*
D03*
D116*
X135000Y287000D02*
D03*
Y443000D02*
D03*
D117*
X110000Y520000D02*
D03*
D118*
X1063506Y299855D02*
D03*
X922874Y189518D02*
D03*
X1124250Y429250D02*
D03*
X570000Y462500D02*
D03*
X1443016Y128016D02*
D03*
X1368862Y137854D02*
D03*
X1321688Y237499D02*
D03*
X1321717Y187498D02*
D03*
X1112802Y377810D02*
D03*
X1120000D02*
D03*
X1136580Y180920D02*
D03*
X1125000Y187500D02*
D03*
X723420Y189080D02*
D03*
X735000Y182500D02*
D03*
X535144Y182356D02*
D03*
X524484Y188016D02*
D03*
X200000Y327500D02*
D03*
X1089960Y375000D02*
D03*
X1082500Y400000D02*
D03*
X1290000Y405730D02*
D03*
X1328016Y325230D02*
D03*
X1375000Y350000D02*
D03*
X1409270Y410000D02*
D03*
X1400000Y413540D02*
D03*
X1340056Y394310D02*
D03*
X1391829Y429254D02*
D03*
X1421984Y426944D02*
D03*
X1382540Y444825D02*
D03*
X1327500Y462500D02*
D03*
X1335000D02*
D03*
X1342500D02*
D03*
X1350000D02*
D03*
X1475000Y425730D02*
D03*
X1617500Y403270D02*
D03*
X1252500Y360000D02*
D03*
X1310000Y471730D02*
D03*
X1360000D02*
D03*
X1170000Y515000D02*
D03*
X1082037Y450049D02*
D03*
X1085655Y456298D02*
D03*
X955000Y416730D02*
D03*
X880000Y505000D02*
D03*
X892500Y499270D02*
D03*
X905000Y494230D02*
D03*
X915000Y489690D02*
D03*
X1135000Y490500D02*
D03*
X855040Y425000D02*
D03*
X805000Y415040D02*
D03*
X812540Y369334D02*
D03*
X570000Y272500D02*
D03*
X525000Y236730D02*
D03*
X1338810Y182500D02*
D03*
X1170000Y480000D02*
D03*
X1230000Y275000D02*
D03*
X1240000D02*
D03*
X1250000D02*
D03*
X1089960Y358956D02*
D03*
X1377500Y175000D02*
D03*
Y182500D02*
D03*
X942500Y417500D02*
D03*
X945000Y367500D02*
D03*
X1282500Y357500D02*
D03*
X1250000Y375000D02*
D03*
X1325000Y310000D02*
D03*
X792500Y462500D02*
D03*
X832500D02*
D03*
Y472500D02*
D03*
Y482500D02*
D03*
Y492500D02*
D03*
X850000Y272500D02*
D03*
Y252500D02*
D03*
X840000Y262500D02*
D03*
X830000Y272500D02*
D03*
X840000Y242500D02*
D03*
X850000Y232500D02*
D03*
Y242500D02*
D03*
X830000Y262500D02*
D03*
X840000Y252500D02*
D03*
X830000D02*
D03*
Y232500D02*
D03*
X817500D02*
D03*
X845000Y197500D02*
D03*
X835000D02*
D03*
X805000Y227500D02*
D03*
X817500Y252500D02*
D03*
X820000Y370000D02*
D03*
X830000Y242500D02*
D03*
X582500Y270000D02*
D03*
X625795Y362380D02*
D03*
X985000Y340000D02*
D03*
X1045000Y335000D02*
D03*
X1059954Y329672D02*
D03*
X1372500Y520000D02*
D03*
Y527500D02*
D03*
X1280000Y492500D02*
D03*
X705000Y497500D02*
D03*
X720000D02*
D03*
X727500D02*
D03*
X670000Y512500D02*
D03*
X535000Y502500D02*
D03*
X555000D02*
D03*
X545000D02*
D03*
X535000Y512500D02*
D03*
X545000D02*
D03*
X555000D02*
D03*
Y522500D02*
D03*
X535000D02*
D03*
X545000D02*
D03*
X507500Y497500D02*
D03*
X674163Y506838D02*
D03*
X1556940Y266310D02*
D03*
X840000Y272500D02*
D03*
Y232500D02*
D03*
X850000Y262500D02*
D03*
X915000Y430000D02*
D03*
X880000Y432500D02*
D03*
X425000Y170000D02*
D03*
X392500Y175000D02*
D03*
X329960Y182500D02*
D03*
X355000Y267500D02*
D03*
X375000D02*
D03*
X430000Y272500D02*
D03*
X450000Y262500D02*
D03*
X377500Y182500D02*
D03*
Y190000D02*
D03*
X440000Y252500D02*
D03*
X430000Y242500D02*
D03*
X417500Y252500D02*
D03*
X430000Y262500D02*
D03*
X440000Y272500D02*
D03*
X430000Y252500D02*
D03*
X420000Y230000D02*
D03*
X440000Y262500D02*
D03*
X450000Y272500D02*
D03*
X405000Y227500D02*
D03*
X415000Y197500D02*
D03*
X440000Y232500D02*
D03*
X392500Y182500D02*
D03*
X450000Y242500D02*
D03*
X448936Y233564D02*
D03*
X425000Y197500D02*
D03*
X435000Y197500D02*
D03*
X655000Y420000D02*
D03*
X412500Y170000D02*
D03*
X445000Y197500D02*
D03*
X1667500Y390000D02*
D03*
X1730000Y362500D02*
D03*
X1450000Y272500D02*
D03*
X1422500Y330000D02*
D03*
X1432500D02*
D03*
X1645000D02*
D03*
X790000Y520000D02*
D03*
X1247500Y427460D02*
D03*
X1085000Y430000D02*
D03*
X1072500D02*
D03*
X1522500Y402500D02*
D03*
X1435000Y412500D02*
D03*
X1400000Y327500D02*
D03*
X1375000Y365000D02*
D03*
X1400000Y387500D02*
D03*
X325000Y187500D02*
D03*
Y237500D02*
D03*
X440000Y242500D02*
D03*
X450000Y252500D02*
D03*
X335000Y120000D02*
D03*
X442500Y127500D02*
D03*
X285000Y135000D02*
D03*
X372500Y140000D02*
D03*
X447314Y170186D02*
D03*
X435000Y170000D02*
D03*
X377500Y175000D02*
D03*
X385000Y182500D02*
D03*
X392500Y190000D02*
D03*
X430000Y232500D02*
D03*
X185000Y325000D02*
D03*
X1135000Y447500D02*
D03*
X1170000Y410000D02*
D03*
X1172500Y448055D02*
D03*
X1522500Y437500D02*
D03*
X947500Y430991D02*
D03*
X1330000Y440000D02*
D03*
X1020000Y432540D02*
D03*
X1320202Y369798D02*
D03*
X1645000Y454960D02*
D03*
X1602500Y468754D02*
D03*
X1489919Y278293D02*
D03*
X1607500Y397500D02*
D03*
X1670000Y482500D02*
D03*
X1675000Y405000D02*
D03*
X1642500Y420000D02*
D03*
X315000Y345000D02*
D03*
X370000D02*
D03*
X1340000Y350000D02*
D03*
X712500Y497500D02*
D03*
X784656Y420344D02*
D03*
X667500Y412500D02*
D03*
X310000Y425000D02*
D03*
Y435000D02*
D03*
X320000D02*
D03*
Y425000D02*
D03*
X1250000Y265000D02*
D03*
X1240000D02*
D03*
X1250000Y255000D02*
D03*
Y245000D02*
D03*
X1230000Y265000D02*
D03*
X1240000Y255000D02*
D03*
X925000Y237500D02*
D03*
X1040000Y272500D02*
D03*
X1050000D02*
D03*
X1230000Y255000D02*
D03*
X1250000Y235000D02*
D03*
X1240000Y245000D02*
D03*
X1217500Y252500D02*
D03*
X1240000Y235000D02*
D03*
X1230000Y245000D02*
D03*
X337500Y332500D02*
D03*
X287500Y400000D02*
D03*
X322500Y415000D02*
D03*
X730000Y520000D02*
D03*
X770000D02*
D03*
X750000D02*
D03*
X740000D02*
D03*
X780000D02*
D03*
X760000D02*
D03*
X1290000D02*
D03*
X1280000D02*
D03*
X1270000D02*
D03*
X1260000D02*
D03*
X1525000Y532500D02*
D03*
X1372500Y535000D02*
D03*
X1340000Y365000D02*
D03*
X1525000Y337500D02*
D03*
X1537500Y345000D02*
D03*
X1432250Y488500D02*
D03*
X190000Y100000D02*
D03*
X180000D02*
D03*
X170000D02*
D03*
X160000D02*
D03*
X150000D02*
D03*
Y110000D02*
D03*
Y120000D02*
D03*
Y130000D02*
D03*
Y140000D02*
D03*
Y150000D02*
D03*
X240000Y100000D02*
D03*
Y110000D02*
D03*
Y120000D02*
D03*
Y130000D02*
D03*
Y140000D02*
D03*
Y150000D02*
D03*
X230000D02*
D03*
Y140000D02*
D03*
Y130000D02*
D03*
Y120000D02*
D03*
Y110000D02*
D03*
Y100000D02*
D03*
X220000D02*
D03*
Y110000D02*
D03*
Y120000D02*
D03*
Y130000D02*
D03*
Y140000D02*
D03*
Y150000D02*
D03*
X210000Y100000D02*
D03*
Y110000D02*
D03*
Y120000D02*
D03*
Y130000D02*
D03*
Y140000D02*
D03*
Y150000D02*
D03*
X200000Y100000D02*
D03*
Y110000D02*
D03*
Y120000D02*
D03*
Y130000D02*
D03*
Y140000D02*
D03*
Y150000D02*
D03*
X1432250Y508250D02*
D03*
X1471750Y468750D02*
D03*
X1452000D02*
D03*
X1432250D02*
D03*
X1452000Y508250D02*
D03*
X1471750D02*
D03*
Y488500D02*
D03*
X1452000D02*
D03*
X800000Y405000D02*
D03*
X1530000Y120000D02*
D03*
X1485000Y135000D02*
D03*
X1330000Y120000D02*
D03*
X1125000Y130000D02*
D03*
X925000Y135000D02*
D03*
X725000D02*
D03*
X525000D02*
D03*
X1615000Y172500D02*
D03*
X1630000Y242500D02*
D03*
X1640000Y262500D02*
D03*
X1630000D02*
D03*
X1615000Y197500D02*
D03*
X1645000D02*
D03*
X1640000Y232500D02*
D03*
X1617500D02*
D03*
X1605000Y227500D02*
D03*
X1650000Y272500D02*
D03*
X1640000D02*
D03*
X1630000D02*
D03*
X1625000Y197500D02*
D03*
X1635000D02*
D03*
X1625000Y172500D02*
D03*
X1635000D02*
D03*
X1642500Y127500D02*
D03*
X1525000Y237500D02*
D03*
Y187500D02*
D03*
X1535000Y182500D02*
D03*
X1617500Y252500D02*
D03*
X1575000Y267500D02*
D03*
X1592500Y182500D02*
D03*
Y190000D02*
D03*
Y175000D02*
D03*
X1577500Y190000D02*
D03*
X1585000Y182500D02*
D03*
X1577500D02*
D03*
Y175000D02*
D03*
X1572500Y140000D02*
D03*
X1205000Y227500D02*
D03*
X1245000Y172500D02*
D03*
X1225000Y197500D02*
D03*
X1235000D02*
D03*
Y172500D02*
D03*
X1225000D02*
D03*
X1242500Y127500D02*
D03*
X1125000Y237500D02*
D03*
X1175000Y267500D02*
D03*
X1155000D02*
D03*
X1085000Y135000D02*
D03*
X1192500Y182500D02*
D03*
Y175000D02*
D03*
Y190000D02*
D03*
X1177500D02*
D03*
X1185000Y182500D02*
D03*
X1177500D02*
D03*
Y175000D02*
D03*
X1172500Y140000D02*
D03*
X1440000Y242500D02*
D03*
X1430000Y252500D02*
D03*
Y262500D02*
D03*
X1445000Y197500D02*
D03*
X1430000Y232500D02*
D03*
X1417500D02*
D03*
X1405000Y227500D02*
D03*
X1450000Y242500D02*
D03*
Y252500D02*
D03*
Y262500D02*
D03*
X1440000Y272500D02*
D03*
X1430000D02*
D03*
X1425000Y197500D02*
D03*
X1435000D02*
D03*
Y172500D02*
D03*
X1425000D02*
D03*
X1417500Y252500D02*
D03*
X1375000Y267500D02*
D03*
X1355000D02*
D03*
X1285000Y135000D02*
D03*
X1392500Y182500D02*
D03*
Y175000D02*
D03*
Y190000D02*
D03*
X1377500D02*
D03*
X1385000Y182500D02*
D03*
X1245000Y197500D02*
D03*
X1230000Y235000D02*
D03*
X1217500Y232500D02*
D03*
X1040000Y242500D02*
D03*
X1030000D02*
D03*
X1040000Y262500D02*
D03*
X1030000D02*
D03*
X1015000Y197500D02*
D03*
X1045000D02*
D03*
X1005000Y227500D02*
D03*
X1050000Y262500D02*
D03*
X1030000Y272500D02*
D03*
X1025000Y197500D02*
D03*
X1035000D02*
D03*
Y172500D02*
D03*
X1025000D02*
D03*
X1042500Y127500D02*
D03*
X935000Y182500D02*
D03*
X1017500Y252500D02*
D03*
X975000Y267500D02*
D03*
X955000D02*
D03*
X885000Y135000D02*
D03*
X992500Y182500D02*
D03*
Y175000D02*
D03*
Y190000D02*
D03*
X977500D02*
D03*
X985000Y182500D02*
D03*
X977500D02*
D03*
Y175000D02*
D03*
X972500Y140000D02*
D03*
X825000Y197500D02*
D03*
X835000Y172500D02*
D03*
X825000D02*
D03*
X842500Y127500D02*
D03*
X725000Y237500D02*
D03*
X775000Y267500D02*
D03*
X755000D02*
D03*
X685000Y135000D02*
D03*
X792500Y182500D02*
D03*
Y175000D02*
D03*
Y190000D02*
D03*
X777500D02*
D03*
X785000Y182500D02*
D03*
X777500D02*
D03*
Y175000D02*
D03*
X772500Y140000D02*
D03*
X615000Y172500D02*
D03*
X640000Y242500D02*
D03*
Y262500D02*
D03*
X650000D02*
D03*
Y272500D02*
D03*
X635000Y197500D02*
D03*
X625000D02*
D03*
X635000Y172500D02*
D03*
X625000D02*
D03*
X642500Y127500D02*
D03*
X617500Y252500D02*
D03*
X485000Y135000D02*
D03*
X592500Y182500D02*
D03*
Y175000D02*
D03*
Y190000D02*
D03*
X577500D02*
D03*
X585000Y182500D02*
D03*
X577500D02*
D03*
Y175000D02*
D03*
X572500Y140000D02*
D03*
X815000Y172500D02*
D03*
X845000D02*
D03*
X640000Y252500D02*
D03*
X630000Y262500D02*
D03*
X615000Y197500D02*
D03*
X645000D02*
D03*
X640000Y232500D02*
D03*
X645000Y172500D02*
D03*
X650000Y242500D02*
D03*
X1640000D02*
D03*
Y252500D02*
D03*
X1630000D02*
D03*
Y232500D02*
D03*
X1650000D02*
D03*
X1645000Y172500D02*
D03*
X1650000Y242500D02*
D03*
Y252500D02*
D03*
Y262500D02*
D03*
X1415000Y172500D02*
D03*
X1430000Y242500D02*
D03*
X1440000Y252500D02*
D03*
Y262500D02*
D03*
X1415000Y197500D02*
D03*
X1440000Y232500D02*
D03*
X1450000D02*
D03*
X1445000Y172500D02*
D03*
X1215000D02*
D03*
Y197500D02*
D03*
X1015000Y172500D02*
D03*
X1040000Y252500D02*
D03*
X1030000D02*
D03*
X1040000Y232500D02*
D03*
X1030000D02*
D03*
X1017500D02*
D03*
X1050000D02*
D03*
X1045000Y172500D02*
D03*
X1050000Y242500D02*
D03*
Y252500D02*
D03*
X815000Y197500D02*
D03*
X630000Y242500D02*
D03*
Y252500D02*
D03*
Y232500D02*
D03*
X620000Y230000D02*
D03*
X605000Y227500D02*
D03*
X650000Y232500D02*
D03*
Y252500D02*
D03*
X640000Y272500D02*
D03*
X630000D02*
D03*
M02*
