G04*
G04 #@! TF.GenerationSoftware,Altium Limited,Altium Designer,24.5.2 (23)*
G04*
G04 Layer_Physical_Order=3*
G04 Layer_Color=16440176*
%FSLAX44Y44*%
%MOMM*%
G71*
G04*
G04 #@! TF.SameCoordinates,89E67EBC-8B33-4F8A-85E1-C4BFE03A709E*
G04*
G04*
G04 #@! TF.FilePolarity,Positive*
G04*
G01*
G75*
%ADD12C,0.2540*%
%ADD79C,3.0000*%
%ADD80C,1.5700*%
%ADD81R,1.5700X1.5700*%
%ADD100C,0.6350*%
%ADD103C,1.5240*%
%ADD104R,1.5240X1.5240*%
G04:AMPARAMS|DCode=105|XSize=2mm|YSize=2mm|CornerRadius=0mm|HoleSize=0mm|Usage=FLASHONLY|Rotation=0.000|XOffset=0mm|YOffset=0mm|HoleType=Round|Shape=Octagon|*
%AMOCTAGOND105*
4,1,8,1.0000,-0.5000,1.0000,0.5000,0.5000,1.0000,-0.5000,1.0000,-1.0000,0.5000,-1.0000,-0.5000,-0.5000,-1.0000,0.5000,-1.0000,1.0000,-0.5000,0.0*
%
%ADD105OCTAGOND105*%

%ADD106C,1.2192*%
%ADD107R,4.0000X1.5000*%
%ADD108R,3.5000X1.5000*%
%ADD109R,1.5000X3.5000*%
%ADD110O,2.1000X1.0500*%
%ADD111O,1.8000X0.9000*%
%ADD112C,0.6500*%
%ADD113C,2.5000*%
G04:AMPARAMS|DCode=114|XSize=1.2mm|YSize=3.2mm|CornerRadius=0mm|HoleSize=0mm|Usage=FLASHONLY|Rotation=90.000|XOffset=0mm|YOffset=0mm|HoleType=Round|Shape=Octagon|*
%AMOCTAGOND114*
4,1,8,-1.6000,-0.3000,-1.6000,0.3000,-1.3000,0.6000,1.3000,0.6000,1.6000,0.3000,1.6000,-0.3000,1.3000,-0.6000,-1.3000,-0.6000,-1.6000,-0.3000,0.0*
%
%ADD114OCTAGOND114*%

%ADD115O,1.2000X3.0000*%
%ADD116O,3.0000X1.2000*%
%ADD117R,1.5000X4.0000*%
%ADD118C,0.5000*%
G36*
X1180000Y540000D02*
X1366686D01*
X1367148Y538730D01*
X1366443Y537509D01*
X1366000Y535856D01*
Y534144D01*
X1366443Y532491D01*
X1367159Y531250D01*
X1366443Y530009D01*
X1366000Y528356D01*
Y526644D01*
X1366443Y524991D01*
X1367159Y523750D01*
X1366443Y522509D01*
X1366000Y520856D01*
Y519144D01*
X1366443Y517491D01*
X1367299Y516009D01*
X1368509Y514799D01*
X1369991Y513943D01*
X1371644Y513500D01*
X1373356D01*
X1375009Y513943D01*
X1376491Y514799D01*
X1377701Y516009D01*
X1378557Y517491D01*
X1379000Y519144D01*
Y520856D01*
X1378557Y522509D01*
X1377841Y523750D01*
X1378557Y524991D01*
X1379000Y526644D01*
Y528356D01*
X1378557Y530009D01*
X1377841Y531250D01*
X1378557Y532491D01*
X1379000Y534144D01*
Y535856D01*
X1378557Y537509D01*
X1377852Y538730D01*
X1378314Y540000D01*
X1522969D01*
X1523137Y538730D01*
X1522491Y538557D01*
X1521009Y537701D01*
X1519799Y536491D01*
X1518943Y535009D01*
X1518500Y533356D01*
Y531644D01*
X1518943Y529991D01*
X1519799Y528509D01*
X1521009Y527299D01*
X1522491Y526443D01*
X1524144Y526000D01*
X1525856D01*
X1527509Y526443D01*
X1528991Y527299D01*
X1530201Y528509D01*
X1531057Y529991D01*
X1531500Y531644D01*
Y533356D01*
X1531057Y535009D01*
X1530201Y536491D01*
X1528991Y537701D01*
X1527509Y538557D01*
X1526863Y538730D01*
X1527031Y540000D01*
X1683831D01*
X1685242Y537888D01*
X1687888Y535242D01*
X1690000Y533831D01*
Y490668D01*
X1688557Y490478D01*
X1686794Y489747D01*
X1685279Y488585D01*
X1684117Y487071D01*
X1683387Y485307D01*
X1683138Y483414D01*
X1683387Y481522D01*
X1684117Y479758D01*
X1685279Y478244D01*
X1686794Y477081D01*
X1688557Y476351D01*
X1690000Y476161D01*
Y404268D01*
X1688557Y404078D01*
X1686794Y403347D01*
X1685279Y402185D01*
X1684117Y400671D01*
X1683387Y398907D01*
X1683138Y397014D01*
X1683387Y395122D01*
X1684117Y393358D01*
X1685279Y391844D01*
X1686794Y390681D01*
X1688557Y389951D01*
X1690000Y389761D01*
Y332659D01*
X1688827Y332173D01*
X1686000Y335000D01*
X1674000D01*
X1668000Y329000D01*
Y317000D01*
X1674000Y311000D01*
X1686000D01*
X1688827Y313827D01*
X1690000Y313341D01*
Y256659D01*
X1688827Y256173D01*
X1686000Y259000D01*
X1674000D01*
X1668000Y253000D01*
Y241000D01*
X1674000Y235000D01*
X1686000D01*
X1688827Y237827D01*
X1690000Y237341D01*
Y66169D01*
X1687888Y64758D01*
X1685242Y62112D01*
X1683162Y59000D01*
X1681730Y55542D01*
X1681000Y51871D01*
Y48129D01*
X1681730Y44458D01*
X1683162Y41000D01*
X1685242Y37888D01*
X1687888Y35242D01*
X1690000Y33831D01*
Y30000D01*
X250000D01*
Y268619D01*
X250478Y269334D01*
X251777Y272471D01*
X252440Y275802D01*
Y279198D01*
X251777Y282529D01*
X250478Y285666D01*
X250000Y286381D01*
Y290000D01*
X356126D01*
X356612Y288827D01*
X335143Y267358D01*
X334420Y266276D01*
X334166Y265000D01*
Y189044D01*
X332896Y188311D01*
X332469Y188557D01*
X331367Y188852D01*
X331057Y190009D01*
X330201Y191491D01*
X328991Y192701D01*
X327509Y193557D01*
X325856Y194000D01*
X324144D01*
X322491Y193557D01*
X321009Y192701D01*
X319799Y191491D01*
X318943Y190009D01*
X318500Y188356D01*
Y186644D01*
X318943Y184991D01*
X319799Y183509D01*
X321009Y182299D01*
X322491Y181443D01*
X323593Y181148D01*
X323903Y179991D01*
X324759Y178509D01*
X325969Y177299D01*
X327451Y176443D01*
X329104Y176000D01*
X330816D01*
X332469Y176443D01*
X332896Y176689D01*
X334166Y175956D01*
Y126500D01*
X334144D01*
X332491Y126057D01*
X331009Y125201D01*
X329799Y123991D01*
X328943Y122509D01*
X328500Y120856D01*
Y119144D01*
X328943Y117491D01*
X329799Y116009D01*
X331009Y114799D01*
X332491Y113943D01*
X334144Y113500D01*
X335856D01*
X337509Y113943D01*
X338991Y114799D01*
X340201Y116009D01*
X341057Y117491D01*
X341500Y119144D01*
Y120856D01*
X341057Y122509D01*
X340834Y122895D01*
Y263619D01*
X347589Y270374D01*
X348855Y270007D01*
X348915Y269904D01*
X348500Y268356D01*
Y266644D01*
X348943Y264991D01*
X349799Y263509D01*
X351009Y262299D01*
X352491Y261443D01*
X354144Y261000D01*
X355856D01*
X357509Y261443D01*
X358991Y262299D01*
X360201Y263509D01*
X361057Y264991D01*
X361500Y266644D01*
Y268356D01*
X361057Y270009D01*
X360201Y271491D01*
X358991Y272701D01*
X357509Y273557D01*
X355856Y274000D01*
X354144D01*
X352596Y273585D01*
X352492Y273645D01*
X352126Y274911D01*
X367215Y290000D01*
X470000D01*
Y392785D01*
X528881Y451666D01*
X734632D01*
X735118Y450493D01*
X558065Y273440D01*
X556895Y274066D01*
X557240Y275802D01*
Y279198D01*
X556577Y282529D01*
X555278Y285666D01*
X553391Y288490D01*
X550990Y290891D01*
X548166Y292778D01*
X545029Y294077D01*
X541698Y294740D01*
X538302D01*
X534971Y294077D01*
X531834Y292778D01*
X529010Y290891D01*
X526609Y288490D01*
X524722Y285666D01*
X523423Y282529D01*
X522760Y279198D01*
Y275802D01*
X523423Y272471D01*
X524722Y269334D01*
X526609Y266510D01*
X529010Y264109D01*
X531834Y262222D01*
X534971Y260923D01*
X538302Y260260D01*
X541698D01*
X543434Y260605D01*
X544060Y259435D01*
X537643Y253018D01*
X536920Y251936D01*
X536666Y250660D01*
Y196753D01*
X531241Y191328D01*
X529981Y191494D01*
X529685Y192007D01*
X528475Y193217D01*
X526993Y194073D01*
X525340Y194516D01*
X523628D01*
X521975Y194073D01*
X520493Y193217D01*
X519282Y192007D01*
X518427Y190525D01*
X517984Y188872D01*
Y187160D01*
X518427Y185507D01*
X519282Y184025D01*
X520493Y182815D01*
X520983Y182532D01*
X521920Y181648D01*
X521666Y180372D01*
Y140581D01*
X521009Y140201D01*
X519799Y138991D01*
X518943Y137509D01*
X518500Y135856D01*
Y134144D01*
X518943Y132491D01*
X519799Y131009D01*
X521009Y129799D01*
X522491Y128943D01*
X524144Y128500D01*
X525856D01*
X527509Y128943D01*
X528991Y129799D01*
X530201Y131009D01*
X531057Y132491D01*
X531500Y134144D01*
Y135856D01*
X531057Y137509D01*
X530201Y138991D01*
X528991Y140201D01*
X528334Y140581D01*
Y178484D01*
X529484Y178900D01*
X529646Y178878D01*
X529943Y178365D01*
X531153Y177155D01*
X532635Y176299D01*
X534288Y175856D01*
X535999D01*
X537653Y176299D01*
X539135Y177155D01*
X540345Y178365D01*
X541201Y179847D01*
X541644Y181500D01*
Y183212D01*
X541201Y184865D01*
X540345Y186347D01*
X539135Y187558D01*
X538621Y187854D01*
X538456Y189113D01*
X542357Y193015D01*
X543080Y194097D01*
X543334Y195372D01*
Y249279D01*
X563243Y269188D01*
X564502Y269022D01*
X564799Y268509D01*
X566009Y267299D01*
X567491Y266443D01*
X569144Y266000D01*
X570856D01*
X572509Y266443D01*
X573991Y267299D01*
X574929Y268236D01*
X575971Y268107D01*
X576328Y267920D01*
X576443Y267491D01*
X577299Y266009D01*
X578509Y264799D01*
X579991Y263943D01*
X581644Y263500D01*
X583356D01*
X585009Y263943D01*
X586491Y264799D01*
X587701Y266009D01*
X588557Y267491D01*
X589000Y269144D01*
Y270856D01*
X588557Y272509D01*
X587701Y273991D01*
X586491Y275201D01*
X585009Y276057D01*
X583356Y276500D01*
X581644D01*
X579991Y276057D01*
X578509Y275201D01*
X577571Y274264D01*
X576529Y274393D01*
X576172Y274580D01*
X576057Y275009D01*
X575201Y276491D01*
X573991Y277701D01*
X573478Y277998D01*
X573312Y279257D01*
X740721Y446666D01*
X843230D01*
X844506Y446920D01*
X845587Y447643D01*
X890911Y492966D01*
X891644Y492770D01*
X893356D01*
X895009Y493213D01*
X896491Y494069D01*
X896834Y494412D01*
X897971Y494077D01*
X897461Y492994D01*
X897344Y492970D01*
X896263Y492248D01*
X807689Y403674D01*
X806834Y404012D01*
X806500Y404281D01*
Y405856D01*
X806095Y407369D01*
X806064Y407520D01*
X806785Y408789D01*
X807509Y408983D01*
X808991Y409839D01*
X810201Y411049D01*
X811057Y412531D01*
X811500Y414184D01*
Y415896D01*
X811057Y417549D01*
X810201Y419031D01*
X808991Y420241D01*
X807509Y421097D01*
X805856Y421540D01*
X804144D01*
X802491Y421097D01*
X801009Y420241D01*
X799799Y419031D01*
X798943Y417549D01*
X798500Y415896D01*
Y414184D01*
X798905Y412671D01*
X798936Y412519D01*
X798215Y411251D01*
X797491Y411057D01*
X796009Y410201D01*
X794799Y408991D01*
X793943Y407509D01*
X793500Y405856D01*
Y404144D01*
X793943Y402491D01*
X794799Y401009D01*
X796009Y399799D01*
X797491Y398943D01*
X799144Y398500D01*
X800719D01*
X800988Y398166D01*
X801326Y397311D01*
X795143Y391128D01*
X794420Y390046D01*
X794166Y388770D01*
Y256381D01*
X730177Y192392D01*
X728918Y192558D01*
X728621Y193071D01*
X727411Y194281D01*
X725929Y195137D01*
X724276Y195580D01*
X722564D01*
X720911Y195137D01*
X719429Y194281D01*
X718219Y193071D01*
X717363Y191589D01*
X716920Y189936D01*
Y188224D01*
X717363Y186571D01*
X718219Y185089D01*
X719429Y183879D01*
X720911Y183023D01*
X721727Y182805D01*
X721666Y182500D01*
Y140581D01*
X721009Y140201D01*
X719799Y138991D01*
X718943Y137509D01*
X718500Y135856D01*
Y134144D01*
X718943Y132491D01*
X719799Y131009D01*
X721009Y129799D01*
X722491Y128943D01*
X724144Y128500D01*
X725856D01*
X727509Y128943D01*
X728991Y129799D01*
X730201Y131009D01*
X731057Y132491D01*
X731500Y134144D01*
Y135856D01*
X731057Y137509D01*
X730201Y138991D01*
X728991Y140201D01*
X728334Y140581D01*
Y178506D01*
X729604Y178846D01*
X729799Y178509D01*
X731009Y177299D01*
X732491Y176443D01*
X734144Y176000D01*
X735856D01*
X737509Y176443D01*
X738991Y177299D01*
X740201Y178509D01*
X741057Y179991D01*
X741500Y181644D01*
Y183356D01*
X741057Y185009D01*
X740201Y186491D01*
X738991Y187701D01*
X737509Y188557D01*
X737366Y188595D01*
X737037Y189822D01*
X799858Y252642D01*
X800580Y253724D01*
X800834Y255000D01*
Y387389D01*
X900001Y486556D01*
X900416D01*
X901692Y486810D01*
X902774Y487533D01*
X903219Y487978D01*
X904144Y487730D01*
X904489D01*
X905015Y486460D01*
X859999Y441444D01*
X859990D01*
X858714Y441190D01*
X857632Y440467D01*
X804413Y387248D01*
X803690Y386166D01*
X803436Y384890D01*
Y333230D01*
X803690Y331954D01*
X804413Y330872D01*
X925310Y209975D01*
Y196638D01*
X924302Y195865D01*
X923730Y196018D01*
X922018D01*
X920365Y195575D01*
X918883Y194719D01*
X917673Y193509D01*
X916817Y192027D01*
X916374Y190374D01*
Y188662D01*
X916817Y187009D01*
X917673Y185527D01*
X918883Y184317D01*
X920365Y183461D01*
X922018Y183018D01*
X923730D01*
X924302Y183171D01*
X925310Y182398D01*
Y166990D01*
X922643Y164322D01*
X921920Y163241D01*
X921666Y161965D01*
Y140581D01*
X921009Y140201D01*
X919799Y138991D01*
X918943Y137509D01*
X918500Y135856D01*
Y134144D01*
X918943Y132491D01*
X919799Y131009D01*
X921009Y129799D01*
X922491Y128943D01*
X924144Y128500D01*
X925856D01*
X927509Y128943D01*
X928991Y129799D01*
X930201Y131009D01*
X931057Y132491D01*
X931500Y134144D01*
Y135856D01*
X931057Y137509D01*
X930201Y138991D01*
X928991Y140201D01*
X928334Y140581D01*
Y160584D01*
X931002Y163251D01*
X931724Y164333D01*
X931978Y165609D01*
Y175358D01*
X933248Y176240D01*
X934144Y176000D01*
X935856D01*
X937509Y176443D01*
X938991Y177299D01*
X940201Y178509D01*
X941057Y179991D01*
X941500Y181644D01*
Y183356D01*
X941057Y185009D01*
X940201Y186491D01*
X938991Y187701D01*
X937509Y188557D01*
X935856Y189000D01*
X934144D01*
X933248Y188760D01*
X931978Y189642D01*
Y211356D01*
X931724Y212632D01*
X931002Y213713D01*
X810104Y334611D01*
Y362215D01*
X811112Y362988D01*
X811684Y362834D01*
X813396D01*
X815049Y363277D01*
X816531Y364133D01*
X816762Y364364D01*
X817491Y363943D01*
X819144Y363500D01*
X820856D01*
X822509Y363943D01*
X823991Y364799D01*
X825201Y366009D01*
X826057Y367491D01*
X826500Y369144D01*
Y370856D01*
X826057Y372509D01*
X825201Y373991D01*
X823991Y375201D01*
X822509Y376057D01*
X820856Y376500D01*
X819144D01*
X817491Y376057D01*
X816009Y375201D01*
X815778Y374970D01*
X815049Y375391D01*
X813396Y375834D01*
X811684D01*
X811112Y375681D01*
X810104Y376454D01*
Y383509D01*
X848283Y421688D01*
X849542Y421522D01*
X849839Y421009D01*
X851049Y419799D01*
X852531Y418943D01*
X854184Y418500D01*
X855896D01*
X857549Y418943D01*
X859031Y419799D01*
X860241Y421009D01*
X861097Y422491D01*
X861540Y424144D01*
Y425856D01*
X861097Y427509D01*
X860241Y428991D01*
X859031Y430201D01*
X858518Y430498D01*
X858352Y431757D01*
X861371Y434776D01*
X861380D01*
X862655Y435029D01*
X863737Y435752D01*
X910001Y482016D01*
X910416D01*
X911692Y482270D01*
X912774Y482993D01*
X913219Y483438D01*
X914144Y483190D01*
X915856D01*
X917509Y483633D01*
X918991Y484489D01*
X920201Y485699D01*
X921057Y487181D01*
X921500Y488834D01*
Y490546D01*
X921057Y492199D01*
X920201Y493681D01*
X918991Y494891D01*
X917509Y495747D01*
X915856Y496190D01*
X914144D01*
X912491Y495747D01*
X912383Y495684D01*
X911209Y496170D01*
X911057Y496739D01*
X910201Y498221D01*
X908991Y499431D01*
X907509Y500287D01*
X905856Y500730D01*
X904144D01*
X902491Y500287D01*
X901009Y499431D01*
X900270Y498692D01*
X899000Y499218D01*
Y500126D01*
X898557Y501779D01*
X897701Y503261D01*
X896491Y504471D01*
X895009Y505327D01*
X893356Y505770D01*
X891644D01*
X889991Y505327D01*
X888509Y504471D01*
X887680Y503643D01*
X886778Y504026D01*
X886500Y504258D01*
Y505856D01*
X886057Y507509D01*
X885201Y508991D01*
X883991Y510201D01*
X882509Y511057D01*
X880856Y511500D01*
X879144D01*
X877491Y511057D01*
X876009Y510201D01*
X874799Y508991D01*
X874419Y508334D01*
X822500D01*
X821224Y508080D01*
X820143Y507357D01*
X771119Y458334D01*
X576567D01*
X575834Y459604D01*
X576057Y459991D01*
X576500Y461644D01*
Y463356D01*
X576057Y465009D01*
X575201Y466491D01*
X573991Y467701D01*
X572509Y468557D01*
X570856Y469000D01*
X569144D01*
X567491Y468557D01*
X566009Y467701D01*
X564799Y466491D01*
X563943Y465009D01*
X563500Y463356D01*
Y461644D01*
X563943Y459991D01*
X564166Y459604D01*
X563433Y458334D01*
X527500D01*
X526224Y458080D01*
X525143Y457358D01*
X471173Y403388D01*
X470000Y403874D01*
Y589752D01*
X1180000D01*
Y540000D01*
D02*
G37*
G36*
X874799Y501009D02*
X876009Y499799D01*
X877491Y498943D01*
X879144Y498500D01*
X880856D01*
X882509Y498943D01*
X883991Y499799D01*
X884820Y500627D01*
X885722Y500244D01*
X886000Y500012D01*
Y498414D01*
X886196Y497682D01*
X841849Y453334D01*
X777208D01*
X776722Y454507D01*
X784730Y462515D01*
X786000Y461989D01*
Y461644D01*
X786443Y459991D01*
X787299Y458509D01*
X788509Y457299D01*
X789991Y456443D01*
X791644Y456000D01*
X793356D01*
X795009Y456443D01*
X796491Y457299D01*
X797701Y458509D01*
X798557Y459991D01*
X799000Y461644D01*
Y463356D01*
X798557Y465009D01*
X797701Y466491D01*
X796491Y467701D01*
X795009Y468557D01*
X793356Y469000D01*
X793011D01*
X792485Y470270D01*
X823881Y501666D01*
X874419D01*
X874799Y501009D01*
D02*
G37*
%LPC*%
G36*
X541698Y574140D02*
X538302D01*
X534971Y573478D01*
X531834Y572178D01*
X529010Y570291D01*
X526609Y567890D01*
X524722Y565066D01*
X523423Y561929D01*
X522760Y558598D01*
Y555202D01*
X523423Y551871D01*
X524722Y548734D01*
X526609Y545910D01*
X529010Y543509D01*
X531834Y541622D01*
X534971Y540322D01*
X538302Y539660D01*
X541698D01*
X545029Y540322D01*
X548166Y541622D01*
X550990Y543509D01*
X553391Y545910D01*
X555278Y548734D01*
X556577Y551871D01*
X557240Y555202D01*
Y558598D01*
X556577Y561929D01*
X555278Y565066D01*
X553391Y567890D01*
X550990Y570291D01*
X548166Y572178D01*
X545029Y573478D01*
X541698Y574140D01*
D02*
G37*
G36*
X1101871Y569000D02*
X1098129D01*
X1094458Y568270D01*
X1091000Y566838D01*
X1087888Y564758D01*
X1085242Y562112D01*
X1083163Y559000D01*
X1081730Y555542D01*
X1081000Y551871D01*
Y548129D01*
X1081730Y544458D01*
X1083163Y541000D01*
X1085242Y537888D01*
X1087888Y535242D01*
X1091000Y533162D01*
X1094458Y531730D01*
X1098129Y531000D01*
X1101871D01*
X1105542Y531730D01*
X1109000Y533162D01*
X1112112Y535242D01*
X1114758Y537888D01*
X1116838Y541000D01*
X1118270Y544458D01*
X1119000Y548129D01*
Y551871D01*
X1118270Y555542D01*
X1116838Y559000D01*
X1114758Y562112D01*
X1112112Y564758D01*
X1109000Y566838D01*
X1105542Y568270D01*
X1101871Y569000D01*
D02*
G37*
G36*
X555856Y529000D02*
X554144D01*
X552491Y528557D01*
X551009Y527701D01*
X550000Y526692D01*
X548991Y527701D01*
X547509Y528557D01*
X545856Y529000D01*
X544144D01*
X542491Y528557D01*
X541009Y527701D01*
X540000Y526692D01*
X538991Y527701D01*
X537509Y528557D01*
X535856Y529000D01*
X534144D01*
X532491Y528557D01*
X531009Y527701D01*
X529799Y526491D01*
X528943Y525009D01*
X528500Y523356D01*
Y521644D01*
X528943Y519991D01*
X529799Y518509D01*
X530808Y517500D01*
X529799Y516491D01*
X528943Y515009D01*
X528500Y513356D01*
Y511644D01*
X528943Y509991D01*
X529799Y508509D01*
X530808Y507500D01*
X529799Y506491D01*
X528943Y505009D01*
X528500Y503356D01*
Y501644D01*
X528943Y499991D01*
X529799Y498509D01*
X531009Y497299D01*
X532491Y496443D01*
X534144Y496000D01*
X535856D01*
X537509Y496443D01*
X538991Y497299D01*
X540000Y498308D01*
X541009Y497299D01*
X542491Y496443D01*
X544144Y496000D01*
X545856D01*
X547509Y496443D01*
X548991Y497299D01*
X550000Y498308D01*
X551009Y497299D01*
X552491Y496443D01*
X554144Y496000D01*
X555856D01*
X557509Y496443D01*
X558991Y497299D01*
X560201Y498509D01*
X561057Y499991D01*
X561500Y501644D01*
Y503356D01*
X561057Y505009D01*
X560201Y506491D01*
X559192Y507500D01*
X560201Y508509D01*
X561057Y509991D01*
X561500Y511644D01*
Y513356D01*
X561057Y515009D01*
X560201Y516491D01*
X559192Y517500D01*
X560201Y518509D01*
X561057Y519991D01*
X561500Y521644D01*
Y523356D01*
X561057Y525009D01*
X560201Y526491D01*
X558991Y527701D01*
X557509Y528557D01*
X555856Y529000D01*
D02*
G37*
G36*
X728356Y504000D02*
X726644D01*
X724991Y503557D01*
X723750Y502840D01*
X722509Y503557D01*
X720856Y504000D01*
X719144D01*
X717491Y503557D01*
X716250Y502840D01*
X715009Y503557D01*
X713356Y504000D01*
X711644D01*
X709991Y503557D01*
X708750Y502840D01*
X707509Y503557D01*
X705856Y504000D01*
X704144D01*
X702491Y503557D01*
X701009Y502701D01*
X699799Y501491D01*
X698943Y500009D01*
X698500Y498356D01*
Y496644D01*
X698943Y494991D01*
X699799Y493509D01*
X701009Y492299D01*
X702491Y491443D01*
X704144Y491000D01*
X705856D01*
X707509Y491443D01*
X708750Y492160D01*
X709991Y491443D01*
X711644Y491000D01*
X713356D01*
X715009Y491443D01*
X716250Y492160D01*
X717491Y491443D01*
X719144Y491000D01*
X720856D01*
X722509Y491443D01*
X723750Y492160D01*
X724991Y491443D01*
X726644Y491000D01*
X728356D01*
X730009Y491443D01*
X731491Y492299D01*
X732701Y493509D01*
X733557Y494991D01*
X734000Y496644D01*
Y498356D01*
X733557Y500009D01*
X732701Y501491D01*
X731491Y502701D01*
X730009Y503557D01*
X728356Y504000D01*
D02*
G37*
G36*
X1472606Y514750D02*
X1470894D01*
X1469241Y514307D01*
X1467759Y513451D01*
X1466549Y512241D01*
X1465693Y510759D01*
X1465250Y509106D01*
Y507394D01*
X1465693Y505741D01*
X1466549Y504259D01*
X1467759Y503049D01*
X1469241Y502193D01*
X1470894Y501750D01*
X1472606D01*
X1474259Y502193D01*
X1475741Y503049D01*
X1476951Y504259D01*
X1477807Y505741D01*
X1478250Y507394D01*
Y509106D01*
X1477807Y510759D01*
X1476951Y512241D01*
X1475741Y513451D01*
X1474259Y514307D01*
X1472606Y514750D01*
D02*
G37*
G36*
X1452856D02*
X1451144D01*
X1449491Y514307D01*
X1448009Y513451D01*
X1446799Y512241D01*
X1445943Y510759D01*
X1445500Y509106D01*
Y507394D01*
X1445943Y505741D01*
X1446799Y504259D01*
X1448009Y503049D01*
X1449491Y502193D01*
X1451144Y501750D01*
X1452856D01*
X1454509Y502193D01*
X1455991Y503049D01*
X1457201Y504259D01*
X1458057Y505741D01*
X1458500Y507394D01*
Y509106D01*
X1458057Y510759D01*
X1457201Y512241D01*
X1455991Y513451D01*
X1454509Y514307D01*
X1452856Y514750D01*
D02*
G37*
G36*
X1433106D02*
X1431394D01*
X1429741Y514307D01*
X1428259Y513451D01*
X1427049Y512241D01*
X1426193Y510759D01*
X1425750Y509106D01*
Y507394D01*
X1426193Y505741D01*
X1427049Y504259D01*
X1428259Y503049D01*
X1429741Y502193D01*
X1431394Y501750D01*
X1433106D01*
X1434759Y502193D01*
X1436241Y503049D01*
X1437451Y504259D01*
X1438307Y505741D01*
X1438750Y507394D01*
Y509106D01*
X1438307Y510759D01*
X1437451Y512241D01*
X1436241Y513451D01*
X1434759Y514307D01*
X1433106Y514750D01*
D02*
G37*
G36*
X670856Y519000D02*
X669144D01*
X667491Y518557D01*
X666009Y517701D01*
X664799Y516491D01*
X663943Y515009D01*
X663500Y513356D01*
Y511644D01*
X663943Y509991D01*
X664799Y508509D01*
X666009Y507299D01*
X667491Y506443D01*
X667663Y506397D01*
Y505982D01*
X668105Y504329D01*
X668961Y502846D01*
X670171Y501636D01*
X671654Y500780D01*
X673307Y500337D01*
X675018D01*
X676671Y500780D01*
X678154Y501636D01*
X679364Y502846D01*
X680219Y504329D01*
X680663Y505982D01*
Y507693D01*
X680219Y509346D01*
X679364Y510829D01*
X678154Y512039D01*
X676671Y512895D01*
X676500Y512940D01*
Y513356D01*
X676057Y515009D01*
X675201Y516491D01*
X673991Y517701D01*
X672509Y518557D01*
X670856Y519000D01*
D02*
G37*
G36*
X1223466Y508096D02*
X1221334D01*
X1219275Y507544D01*
X1217429Y506478D01*
X1215922Y504971D01*
X1214856Y503125D01*
X1214304Y501066D01*
Y498934D01*
X1214856Y496875D01*
X1215922Y495029D01*
X1217429Y493522D01*
X1219275Y492456D01*
X1221334Y491904D01*
X1223466D01*
X1225525Y492456D01*
X1227371Y493522D01*
X1228878Y495029D01*
X1229944Y496875D01*
X1230496Y498934D01*
Y501066D01*
X1229944Y503125D01*
X1228878Y504971D01*
X1227371Y506478D01*
X1225525Y507544D01*
X1223466Y508096D01*
D02*
G37*
G36*
X1198066D02*
X1195934D01*
X1193875Y507544D01*
X1192029Y506478D01*
X1190522Y504971D01*
X1189456Y503125D01*
X1188904Y501066D01*
Y498934D01*
X1189456Y496875D01*
X1190522Y495029D01*
X1192029Y493522D01*
X1193875Y492456D01*
X1195934Y491904D01*
X1198066D01*
X1200125Y492456D01*
X1201971Y493522D01*
X1203478Y495029D01*
X1204544Y496875D01*
X1205096Y498934D01*
Y501066D01*
X1204544Y503125D01*
X1203478Y504971D01*
X1201971Y506478D01*
X1200125Y507544D01*
X1198066Y508096D01*
D02*
G37*
G36*
X508356Y504000D02*
X506644D01*
X504991Y503557D01*
X503509Y502701D01*
X502299Y501491D01*
X501443Y500009D01*
X501000Y498356D01*
Y496644D01*
X501443Y494991D01*
X502299Y493509D01*
X503509Y492299D01*
X504991Y491443D01*
X506644Y491000D01*
X508356D01*
X510009Y491443D01*
X511491Y492299D01*
X512701Y493509D01*
X513557Y494991D01*
X514000Y496644D01*
Y498356D01*
X513557Y500009D01*
X512701Y501491D01*
X511491Y502701D01*
X510009Y503557D01*
X508356Y504000D01*
D02*
G37*
G36*
X1280856Y499000D02*
X1279144D01*
X1277491Y498557D01*
X1276009Y497701D01*
X1274799Y496491D01*
X1273943Y495009D01*
X1273500Y493356D01*
Y491644D01*
X1273943Y489991D01*
X1274799Y488509D01*
X1276009Y487299D01*
X1277491Y486443D01*
X1279144Y486000D01*
X1280856D01*
X1282509Y486443D01*
X1283991Y487299D01*
X1285201Y488509D01*
X1286057Y489991D01*
X1286500Y491644D01*
Y493356D01*
X1286057Y495009D01*
X1285201Y496491D01*
X1283991Y497701D01*
X1282509Y498557D01*
X1280856Y499000D01*
D02*
G37*
G36*
X1135856Y497000D02*
X1134144D01*
X1132491Y496557D01*
X1131009Y495701D01*
X1129799Y494491D01*
X1128943Y493009D01*
X1128500Y491356D01*
Y489644D01*
X1128943Y487991D01*
X1129799Y486509D01*
X1131009Y485299D01*
X1132491Y484443D01*
X1134144Y484000D01*
X1135856D01*
X1137509Y484443D01*
X1138991Y485299D01*
X1140201Y486509D01*
X1141057Y487991D01*
X1141500Y489644D01*
Y491356D01*
X1141057Y493009D01*
X1140201Y494491D01*
X1138991Y495701D01*
X1137509Y496557D01*
X1135856Y497000D01*
D02*
G37*
G36*
X1472606Y495000D02*
X1470894D01*
X1469241Y494557D01*
X1467759Y493701D01*
X1466549Y492491D01*
X1465693Y491009D01*
X1465250Y489356D01*
Y487644D01*
X1465693Y485991D01*
X1466549Y484509D01*
X1467759Y483299D01*
X1469241Y482443D01*
X1470894Y482000D01*
X1472606D01*
X1474259Y482443D01*
X1475741Y483299D01*
X1476951Y484509D01*
X1477807Y485991D01*
X1478250Y487644D01*
Y489356D01*
X1477807Y491009D01*
X1476951Y492491D01*
X1475741Y493701D01*
X1474259Y494557D01*
X1472606Y495000D01*
D02*
G37*
G36*
X1452856D02*
X1451144D01*
X1449491Y494557D01*
X1448009Y493701D01*
X1446799Y492491D01*
X1445943Y491009D01*
X1445500Y489356D01*
Y487644D01*
X1445943Y485991D01*
X1446799Y484509D01*
X1448009Y483299D01*
X1449491Y482443D01*
X1451144Y482000D01*
X1452856D01*
X1454509Y482443D01*
X1455991Y483299D01*
X1457201Y484509D01*
X1458057Y485991D01*
X1458500Y487644D01*
Y489356D01*
X1458057Y491009D01*
X1457201Y492491D01*
X1455991Y493701D01*
X1454509Y494557D01*
X1452856Y495000D01*
D02*
G37*
G36*
X1433106D02*
X1431394D01*
X1429741Y494557D01*
X1428259Y493701D01*
X1427049Y492491D01*
X1426193Y491009D01*
X1425750Y489356D01*
Y487644D01*
X1426193Y485991D01*
X1427049Y484509D01*
X1428259Y483299D01*
X1429741Y482443D01*
X1431394Y482000D01*
X1433106D01*
X1434759Y482443D01*
X1436241Y483299D01*
X1437451Y484509D01*
X1438307Y485991D01*
X1438750Y487644D01*
Y489356D01*
X1438307Y491009D01*
X1437451Y492491D01*
X1436241Y493701D01*
X1434759Y494557D01*
X1433106Y495000D01*
D02*
G37*
G36*
X1670856Y489000D02*
X1669144D01*
X1667491Y488557D01*
X1666009Y487701D01*
X1664799Y486491D01*
X1663943Y485009D01*
X1663500Y483356D01*
Y481644D01*
X1663943Y479991D01*
X1664799Y478509D01*
X1666009Y477299D01*
X1667491Y476443D01*
X1669144Y476000D01*
X1670856D01*
X1672509Y476443D01*
X1673991Y477299D01*
X1675201Y478509D01*
X1676057Y479991D01*
X1676500Y481644D01*
Y483356D01*
X1676057Y485009D01*
X1675201Y486491D01*
X1673991Y487701D01*
X1672509Y488557D01*
X1670856Y489000D01*
D02*
G37*
G36*
X1170856Y486500D02*
X1169144D01*
X1167491Y486057D01*
X1166009Y485201D01*
X1164799Y483991D01*
X1163943Y482509D01*
X1163500Y480856D01*
Y479144D01*
X1163943Y477491D01*
X1164799Y476009D01*
X1166009Y474799D01*
X1167491Y473943D01*
X1169144Y473500D01*
X1170856D01*
X1172509Y473943D01*
X1173991Y474799D01*
X1175201Y476009D01*
X1176057Y477491D01*
X1176500Y479144D01*
Y480856D01*
X1176057Y482509D01*
X1175201Y483991D01*
X1173991Y485201D01*
X1172509Y486057D01*
X1170856Y486500D01*
D02*
G37*
G36*
X1360856Y478230D02*
X1359144D01*
X1357491Y477787D01*
X1356009Y476931D01*
X1354799Y475721D01*
X1353943Y474239D01*
X1353500Y472586D01*
Y470874D01*
X1353943Y469221D01*
X1353965Y469183D01*
X1353035Y468253D01*
X1352509Y468557D01*
X1350856Y469000D01*
X1349144D01*
X1347491Y468557D01*
X1346250Y467840D01*
X1345009Y468557D01*
X1343356Y469000D01*
X1341644D01*
X1339991Y468557D01*
X1338750Y467840D01*
X1337509Y468557D01*
X1335856Y469000D01*
X1334144D01*
X1332491Y468557D01*
X1331250Y467840D01*
X1330009Y468557D01*
X1328356Y469000D01*
X1326644D01*
X1324991Y468557D01*
X1323509Y467701D01*
X1322299Y466491D01*
X1321443Y465009D01*
X1321000Y463356D01*
Y461644D01*
X1321443Y459991D01*
X1322299Y458509D01*
X1323509Y457299D01*
X1324991Y456443D01*
X1326644Y456000D01*
X1328356D01*
X1330009Y456443D01*
X1331250Y457160D01*
X1332491Y456443D01*
X1334144Y456000D01*
X1335856D01*
X1337509Y456443D01*
X1338750Y457160D01*
X1339991Y456443D01*
X1341644Y456000D01*
X1343356D01*
X1345009Y456443D01*
X1346250Y457160D01*
X1347491Y456443D01*
X1349144Y456000D01*
X1350856D01*
X1352509Y456443D01*
X1353991Y457299D01*
X1355201Y458509D01*
X1356057Y459991D01*
X1356500Y461644D01*
Y463356D01*
X1356057Y465009D01*
X1356035Y465047D01*
X1356965Y465977D01*
X1357491Y465673D01*
X1359144Y465230D01*
X1360856D01*
X1362509Y465673D01*
X1363991Y466529D01*
X1365201Y467739D01*
X1366057Y469221D01*
X1366500Y470874D01*
Y472586D01*
X1366057Y474239D01*
X1365201Y475721D01*
X1363991Y476931D01*
X1362509Y477787D01*
X1360856Y478230D01*
D02*
G37*
G36*
X1310856D02*
X1309144D01*
X1307491Y477787D01*
X1306009Y476931D01*
X1304799Y475721D01*
X1303943Y474239D01*
X1303500Y472586D01*
Y470874D01*
X1303943Y469221D01*
X1304799Y467739D01*
X1306009Y466529D01*
X1307491Y465673D01*
X1309144Y465230D01*
X1310856D01*
X1312509Y465673D01*
X1313991Y466529D01*
X1315201Y467739D01*
X1316057Y469221D01*
X1316500Y470874D01*
Y472586D01*
X1316057Y474239D01*
X1315201Y475721D01*
X1313991Y476931D01*
X1312509Y477787D01*
X1310856Y478230D01*
D02*
G37*
G36*
X1603356Y475254D02*
X1601644D01*
X1599991Y474811D01*
X1598509Y473956D01*
X1597299Y472745D01*
X1596443Y471263D01*
X1596000Y469610D01*
Y467899D01*
X1596443Y466245D01*
X1597299Y464763D01*
X1598509Y463553D01*
X1599991Y462697D01*
X1601644Y462254D01*
X1603356D01*
X1605009Y462697D01*
X1606491Y463553D01*
X1607701Y464763D01*
X1608557Y466245D01*
X1609000Y467899D01*
Y469610D01*
X1608557Y471263D01*
X1607701Y472745D01*
X1606491Y473956D01*
X1605009Y474811D01*
X1603356Y475254D01*
D02*
G37*
G36*
X1472606Y475250D02*
X1470894D01*
X1469241Y474807D01*
X1467759Y473951D01*
X1466549Y472741D01*
X1465693Y471259D01*
X1465250Y469606D01*
Y467894D01*
X1465693Y466241D01*
X1466549Y464759D01*
X1467759Y463549D01*
X1469241Y462693D01*
X1470894Y462250D01*
X1472606D01*
X1474259Y462693D01*
X1475741Y463549D01*
X1476951Y464759D01*
X1477807Y466241D01*
X1478250Y467894D01*
Y469606D01*
X1477807Y471259D01*
X1476951Y472741D01*
X1475741Y473951D01*
X1474259Y474807D01*
X1472606Y475250D01*
D02*
G37*
G36*
X1452856D02*
X1451144D01*
X1449491Y474807D01*
X1448009Y473951D01*
X1446799Y472741D01*
X1445943Y471259D01*
X1445500Y469606D01*
Y467894D01*
X1445943Y466241D01*
X1446799Y464759D01*
X1448009Y463549D01*
X1449491Y462693D01*
X1451144Y462250D01*
X1452856D01*
X1454509Y462693D01*
X1455991Y463549D01*
X1457201Y464759D01*
X1458057Y466241D01*
X1458500Y467894D01*
Y469606D01*
X1458057Y471259D01*
X1457201Y472741D01*
X1455991Y473951D01*
X1454509Y474807D01*
X1452856Y475250D01*
D02*
G37*
G36*
X1433106D02*
X1431394D01*
X1429741Y474807D01*
X1428259Y473951D01*
X1427049Y472741D01*
X1426193Y471259D01*
X1425750Y469606D01*
Y467894D01*
X1426193Y466241D01*
X1427049Y464759D01*
X1428259Y463549D01*
X1429741Y462693D01*
X1431394Y462250D01*
X1433106D01*
X1434759Y462693D01*
X1436241Y463549D01*
X1437451Y464759D01*
X1438307Y466241D01*
X1438750Y467894D01*
Y469606D01*
X1438307Y471259D01*
X1437451Y472741D01*
X1436241Y473951D01*
X1434759Y474807D01*
X1433106Y475250D01*
D02*
G37*
G36*
X1645856Y461460D02*
X1644144D01*
X1642491Y461017D01*
X1641009Y460161D01*
X1639799Y458951D01*
X1638943Y457469D01*
X1638500Y455816D01*
Y454104D01*
X1638943Y452451D01*
X1639799Y450969D01*
X1641009Y449759D01*
X1642491Y448903D01*
X1644144Y448460D01*
X1645856D01*
X1647509Y448903D01*
X1648991Y449759D01*
X1650201Y450969D01*
X1651057Y452451D01*
X1651500Y454104D01*
Y455816D01*
X1651057Y457469D01*
X1650201Y458951D01*
X1648991Y460161D01*
X1647509Y461017D01*
X1645856Y461460D01*
D02*
G37*
G36*
X1086511Y462798D02*
X1084799D01*
X1083146Y462355D01*
X1081664Y461499D01*
X1080454Y460289D01*
X1079598Y458807D01*
X1079155Y457153D01*
Y455891D01*
X1078045Y455251D01*
X1076835Y454040D01*
X1075980Y452558D01*
X1075536Y450905D01*
Y449193D01*
X1075980Y447540D01*
X1076835Y446058D01*
X1078045Y444848D01*
X1079528Y443992D01*
X1081181Y443549D01*
X1082892D01*
X1084545Y443992D01*
X1086028Y444848D01*
X1087238Y446058D01*
X1088093Y447540D01*
X1088537Y449193D01*
Y450456D01*
X1089646Y451096D01*
X1090857Y452307D01*
X1091712Y453789D01*
X1092155Y455442D01*
Y457153D01*
X1091712Y458807D01*
X1090857Y460289D01*
X1089646Y461499D01*
X1088164Y462355D01*
X1086511Y462798D01*
D02*
G37*
G36*
X1135856Y454000D02*
X1134144D01*
X1132491Y453557D01*
X1131009Y452701D01*
X1129799Y451491D01*
X1128943Y450009D01*
X1128500Y448356D01*
Y446644D01*
X1128943Y444991D01*
X1129799Y443509D01*
X1131009Y442299D01*
X1132491Y441443D01*
X1134144Y441000D01*
X1135856D01*
X1137509Y441443D01*
X1138991Y442299D01*
X1140201Y443509D01*
X1141057Y444991D01*
X1141500Y446644D01*
Y448356D01*
X1141057Y450009D01*
X1140201Y451491D01*
X1138991Y452701D01*
X1137509Y453557D01*
X1135856Y454000D01*
D02*
G37*
G36*
X1383396Y451325D02*
X1381684D01*
X1380031Y450882D01*
X1378549Y450026D01*
X1377339Y448816D01*
X1376483Y447334D01*
X1376040Y445681D01*
Y443969D01*
X1376483Y442316D01*
X1377339Y440834D01*
X1378549Y439624D01*
X1380031Y438768D01*
X1381684Y438325D01*
X1383396D01*
X1385049Y438768D01*
X1386531Y439624D01*
X1387741Y440834D01*
X1388597Y442316D01*
X1389040Y443969D01*
Y445681D01*
X1388597Y447334D01*
X1387741Y448816D01*
X1386531Y450026D01*
X1385049Y450882D01*
X1383396Y451325D01*
D02*
G37*
G36*
X1523356Y444000D02*
X1521644D01*
X1519991Y443557D01*
X1518509Y442701D01*
X1517299Y441491D01*
X1516443Y440009D01*
X1516000Y438356D01*
Y436644D01*
X1516443Y434991D01*
X1517299Y433509D01*
X1518509Y432299D01*
X1519991Y431443D01*
X1521644Y431000D01*
X1523356D01*
X1525009Y431443D01*
X1526491Y432299D01*
X1527701Y433509D01*
X1528557Y434991D01*
X1529000Y436644D01*
Y438356D01*
X1528557Y440009D01*
X1527701Y441491D01*
X1526491Y442701D01*
X1525009Y443557D01*
X1523356Y444000D01*
D02*
G37*
G36*
X1020856Y439040D02*
X1019144D01*
X1017491Y438597D01*
X1016009Y437741D01*
X1014799Y436531D01*
X1013943Y435049D01*
X1013500Y433396D01*
Y431684D01*
X1013943Y430031D01*
X1014799Y428549D01*
X1016009Y427339D01*
X1017491Y426483D01*
X1019144Y426040D01*
X1020856D01*
X1022509Y426483D01*
X1023991Y427339D01*
X1025201Y428549D01*
X1026057Y430031D01*
X1026500Y431684D01*
Y433396D01*
X1026057Y435049D01*
X1025201Y436531D01*
X1023991Y437741D01*
X1022509Y438597D01*
X1020856Y439040D01*
D02*
G37*
G36*
X880856Y439000D02*
X879144D01*
X877491Y438557D01*
X876009Y437701D01*
X874799Y436491D01*
X873943Y435009D01*
X873500Y433356D01*
Y431644D01*
X873943Y429991D01*
X874799Y428509D01*
X876009Y427299D01*
X877491Y426443D01*
X879144Y426000D01*
X880856D01*
X882509Y426443D01*
X883991Y427299D01*
X885201Y428509D01*
X886057Y429991D01*
X886500Y431644D01*
Y433356D01*
X886057Y435009D01*
X885201Y436491D01*
X883991Y437701D01*
X882509Y438557D01*
X880856Y439000D01*
D02*
G37*
G36*
X948356Y437491D02*
X946644D01*
X944991Y437048D01*
X943509Y436193D01*
X942299Y434982D01*
X941443Y433500D01*
X941000Y431847D01*
Y430136D01*
X941443Y428483D01*
X942299Y427000D01*
X943509Y425790D01*
X944991Y424934D01*
X946644Y424491D01*
X948356D01*
X950009Y424934D01*
X951491Y425790D01*
X952701Y427000D01*
X953557Y428483D01*
X954000Y430136D01*
Y431847D01*
X953557Y433500D01*
X952701Y434982D01*
X951491Y436193D01*
X950009Y437048D01*
X948356Y437491D01*
D02*
G37*
G36*
X1085856Y436500D02*
X1084144D01*
X1082491Y436057D01*
X1081009Y435201D01*
X1079799Y433991D01*
X1078943Y432509D01*
X1078500Y430856D01*
Y429144D01*
X1078943Y427491D01*
X1079799Y426009D01*
X1081009Y424799D01*
X1082491Y423943D01*
X1084144Y423500D01*
X1085856D01*
X1087509Y423943D01*
X1088991Y424799D01*
X1090201Y426009D01*
X1091057Y427491D01*
X1091500Y429144D01*
Y430856D01*
X1091057Y432509D01*
X1090201Y433991D01*
X1088991Y435201D01*
X1087509Y436057D01*
X1085856Y436500D01*
D02*
G37*
G36*
X915856D02*
X914144D01*
X912491Y436057D01*
X911009Y435201D01*
X909799Y433991D01*
X908943Y432509D01*
X908500Y430856D01*
Y429144D01*
X908943Y427491D01*
X909799Y426009D01*
X911009Y424799D01*
X912491Y423943D01*
X914144Y423500D01*
X915856D01*
X917509Y423943D01*
X918991Y424799D01*
X920201Y426009D01*
X921057Y427491D01*
X921500Y429144D01*
Y430856D01*
X921057Y432509D01*
X920201Y433991D01*
X918991Y435201D01*
X917509Y436057D01*
X915856Y436500D01*
D02*
G37*
G36*
X1392685Y435754D02*
X1390973D01*
X1389320Y435312D01*
X1387838Y434456D01*
X1386628Y433246D01*
X1385772Y431763D01*
X1385329Y430110D01*
Y428399D01*
X1385772Y426746D01*
X1386628Y425263D01*
X1387838Y424053D01*
X1389320Y423198D01*
X1390973Y422755D01*
X1392685D01*
X1394338Y423198D01*
X1395820Y424053D01*
X1397030Y425263D01*
X1397886Y426746D01*
X1398329Y428399D01*
Y430110D01*
X1397886Y431763D01*
X1397030Y433246D01*
X1395820Y434456D01*
X1394338Y435312D01*
X1392685Y435754D01*
D02*
G37*
G36*
X1125106Y435751D02*
X1123395D01*
X1121742Y435308D01*
X1120259Y434452D01*
X1119049Y433242D01*
X1118194Y431759D01*
X1117750Y430106D01*
Y428395D01*
X1118194Y426742D01*
X1119049Y425259D01*
X1120259Y424049D01*
X1121742Y423194D01*
X1123395Y422751D01*
X1125106D01*
X1126759Y423194D01*
X1128242Y424049D01*
X1129452Y425259D01*
X1130307Y426742D01*
X1130751Y428395D01*
Y430106D01*
X1130307Y431759D01*
X1129452Y433242D01*
X1128242Y434452D01*
X1126759Y435308D01*
X1125106Y435751D01*
D02*
G37*
G36*
X1248356Y433960D02*
X1246644D01*
X1244991Y433517D01*
X1243509Y432661D01*
X1242299Y431451D01*
X1241443Y429969D01*
X1241000Y428316D01*
Y426604D01*
X1241443Y424951D01*
X1242299Y423469D01*
X1243509Y422259D01*
X1244991Y421403D01*
X1246644Y420960D01*
X1248356D01*
X1250009Y421403D01*
X1251491Y422259D01*
X1252701Y423469D01*
X1253557Y424951D01*
X1254000Y426604D01*
Y428316D01*
X1253557Y429969D01*
X1252701Y431451D01*
X1251491Y432661D01*
X1250009Y433517D01*
X1248356Y433960D01*
D02*
G37*
G36*
X1422840Y433444D02*
X1421128D01*
X1419475Y433001D01*
X1417993Y432145D01*
X1416783Y430935D01*
X1415927Y429453D01*
X1415484Y427800D01*
Y426088D01*
X1415927Y424435D01*
X1416783Y422953D01*
X1417993Y421743D01*
X1419475Y420887D01*
X1421128Y420444D01*
X1422840D01*
X1424493Y420887D01*
X1425975Y421743D01*
X1427185Y422953D01*
X1428041Y424435D01*
X1428484Y426088D01*
Y427800D01*
X1428041Y429453D01*
X1427185Y430935D01*
X1425975Y432145D01*
X1424493Y433001D01*
X1422840Y433444D01*
D02*
G37*
G36*
X1475856Y432230D02*
X1474144D01*
X1472491Y431787D01*
X1471009Y430931D01*
X1469799Y429721D01*
X1468943Y428239D01*
X1468500Y426586D01*
Y424874D01*
X1468943Y423221D01*
X1469799Y421739D01*
X1471009Y420529D01*
X1472491Y419673D01*
X1474144Y419230D01*
X1475856D01*
X1477509Y419673D01*
X1478991Y420529D01*
X1480201Y421739D01*
X1481057Y423221D01*
X1481500Y424874D01*
Y426586D01*
X1481057Y428239D01*
X1480201Y429721D01*
X1478991Y430931D01*
X1477509Y431787D01*
X1475856Y432230D01*
D02*
G37*
G36*
X785512Y426844D02*
X783800D01*
X782147Y426401D01*
X780665Y425545D01*
X779455Y424335D01*
X778599Y422853D01*
X778156Y421200D01*
Y419488D01*
X778599Y417835D01*
X779455Y416353D01*
X780665Y415143D01*
X782147Y414287D01*
X783800Y413844D01*
X785512D01*
X787165Y414287D01*
X788647Y415143D01*
X789857Y416353D01*
X790713Y417835D01*
X791156Y419488D01*
Y421200D01*
X790713Y422853D01*
X789857Y424335D01*
X788647Y425545D01*
X787165Y426401D01*
X785512Y426844D01*
D02*
G37*
G36*
X1643356Y426500D02*
X1641644D01*
X1639991Y426057D01*
X1638509Y425201D01*
X1637299Y423991D01*
X1636443Y422509D01*
X1636000Y420856D01*
Y419144D01*
X1636443Y417491D01*
X1637299Y416009D01*
X1638509Y414799D01*
X1639991Y413943D01*
X1641644Y413500D01*
X1643356D01*
X1645009Y413943D01*
X1646491Y414799D01*
X1647701Y416009D01*
X1648557Y417491D01*
X1649000Y419144D01*
Y420856D01*
X1648557Y422509D01*
X1647701Y423991D01*
X1646491Y425201D01*
X1645009Y426057D01*
X1643356Y426500D01*
D02*
G37*
G36*
X655856Y426500D02*
X654144D01*
X652491Y426057D01*
X651009Y425201D01*
X649799Y423991D01*
X648943Y422509D01*
X648500Y420856D01*
Y419144D01*
X648943Y417491D01*
X649799Y416009D01*
X651009Y414799D01*
X652491Y413943D01*
X654144Y413500D01*
X655856D01*
X657509Y413943D01*
X658991Y414799D01*
X660201Y416009D01*
X661057Y417491D01*
X661500Y419144D01*
Y420856D01*
X661057Y422509D01*
X660201Y423991D01*
X658991Y425201D01*
X657509Y426057D01*
X655856Y426500D01*
D02*
G37*
G36*
X1223466Y428096D02*
X1221334D01*
X1219275Y427544D01*
X1217429Y426478D01*
X1215922Y424971D01*
X1214856Y423125D01*
X1214304Y421066D01*
Y418934D01*
X1214856Y416875D01*
X1215922Y415029D01*
X1217429Y413522D01*
X1219275Y412456D01*
X1221334Y411904D01*
X1223466D01*
X1225525Y412456D01*
X1227371Y413522D01*
X1228878Y415029D01*
X1229944Y416875D01*
X1230496Y418934D01*
Y421066D01*
X1229944Y423125D01*
X1228878Y424971D01*
X1227371Y426478D01*
X1225525Y427544D01*
X1223466Y428096D01*
D02*
G37*
G36*
X1198066D02*
X1195934D01*
X1193875Y427544D01*
X1192029Y426478D01*
X1190522Y424971D01*
X1189456Y423125D01*
X1188904Y421066D01*
Y418934D01*
X1189456Y416875D01*
X1190522Y415029D01*
X1192029Y413522D01*
X1193875Y412456D01*
X1195934Y411904D01*
X1198066D01*
X1200125Y412456D01*
X1201971Y413522D01*
X1203478Y415029D01*
X1204544Y416875D01*
X1205096Y418934D01*
Y421066D01*
X1204544Y423125D01*
X1203478Y424971D01*
X1201971Y426478D01*
X1200125Y427544D01*
X1198066Y428096D01*
D02*
G37*
G36*
X943356Y424000D02*
X941644D01*
X939991Y423557D01*
X938509Y422701D01*
X937299Y421491D01*
X936443Y420009D01*
X936000Y418356D01*
Y416644D01*
X936443Y414991D01*
X937299Y413509D01*
X938509Y412299D01*
X939991Y411443D01*
X941644Y411000D01*
X943356D01*
X945009Y411443D01*
X946491Y412299D01*
X947701Y413509D01*
X947825Y413723D01*
X949261Y413670D01*
X949799Y412739D01*
X951009Y411529D01*
X952491Y410673D01*
X954144Y410230D01*
X955856D01*
X957509Y410673D01*
X958991Y411529D01*
X960201Y412739D01*
X961057Y414221D01*
X961500Y415874D01*
Y417586D01*
X961057Y419239D01*
X960201Y420721D01*
X958991Y421931D01*
X957509Y422787D01*
X955856Y423230D01*
X954144D01*
X952491Y422787D01*
X951009Y421931D01*
X949799Y420721D01*
X949675Y420507D01*
X948239Y420560D01*
X947701Y421491D01*
X946491Y422701D01*
X945009Y423557D01*
X943356Y424000D01*
D02*
G37*
G36*
X1435856Y419000D02*
X1434144D01*
X1432491Y418557D01*
X1431009Y417701D01*
X1429799Y416491D01*
X1428943Y415009D01*
X1428500Y413356D01*
Y411644D01*
X1428943Y409991D01*
X1429799Y408509D01*
X1431009Y407299D01*
X1432491Y406443D01*
X1434144Y406000D01*
X1435856D01*
X1437509Y406443D01*
X1438991Y407299D01*
X1440201Y408509D01*
X1441057Y409991D01*
X1441500Y411644D01*
Y413356D01*
X1441057Y415009D01*
X1440201Y416491D01*
X1438991Y417701D01*
X1437509Y418557D01*
X1435856Y419000D01*
D02*
G37*
G36*
X668356Y419000D02*
X666644D01*
X664991Y418557D01*
X663509Y417701D01*
X662299Y416491D01*
X661443Y415009D01*
X661000Y413356D01*
Y411644D01*
X661443Y409991D01*
X662299Y408509D01*
X663509Y407299D01*
X664991Y406443D01*
X666644Y406000D01*
X668356D01*
X670009Y406443D01*
X671491Y407299D01*
X672701Y408509D01*
X673557Y409991D01*
X674000Y411644D01*
Y413356D01*
X673557Y415009D01*
X672701Y416491D01*
X671491Y417701D01*
X670009Y418557D01*
X668356Y419000D01*
D02*
G37*
G36*
X1618356Y409770D02*
X1616644D01*
X1614991Y409327D01*
X1613509Y408471D01*
X1612299Y407261D01*
X1611443Y405779D01*
X1611075Y404408D01*
X1610457Y403915D01*
X1609730Y403632D01*
X1608356Y404000D01*
X1606644D01*
X1604991Y403557D01*
X1603509Y402701D01*
X1602299Y401491D01*
X1601443Y400009D01*
X1601000Y398356D01*
Y396644D01*
X1601443Y394991D01*
X1602299Y393509D01*
X1603509Y392299D01*
X1604991Y391443D01*
X1606644Y391000D01*
X1608356D01*
X1610009Y391443D01*
X1611491Y392299D01*
X1612701Y393509D01*
X1613557Y394991D01*
X1613924Y396362D01*
X1614543Y396855D01*
X1615270Y397138D01*
X1616644Y396770D01*
X1618356D01*
X1620009Y397213D01*
X1621491Y398069D01*
X1622701Y399279D01*
X1623557Y400761D01*
X1624000Y402414D01*
Y404126D01*
X1623557Y405779D01*
X1622701Y407261D01*
X1621491Y408471D01*
X1620009Y409327D01*
X1618356Y409770D01*
D02*
G37*
G36*
X1400856Y420040D02*
X1399144D01*
X1397491Y419597D01*
X1396009Y418741D01*
X1394799Y417531D01*
X1393943Y416049D01*
X1393500Y414396D01*
Y412684D01*
X1393943Y411031D01*
X1394799Y409549D01*
X1396009Y408339D01*
X1397491Y407483D01*
X1399144Y407040D01*
X1400856D01*
X1402509Y407483D01*
X1403621Y406785D01*
X1404069Y406009D01*
X1405279Y404799D01*
X1406761Y403943D01*
X1408414Y403500D01*
X1410126D01*
X1411779Y403943D01*
X1413261Y404799D01*
X1414471Y406009D01*
X1415327Y407491D01*
X1415770Y409144D01*
Y410856D01*
X1415327Y412509D01*
X1414471Y413991D01*
X1413261Y415201D01*
X1411779Y416057D01*
X1410126Y416500D01*
X1408414D01*
X1406761Y416057D01*
X1405649Y416755D01*
X1405201Y417531D01*
X1403991Y418741D01*
X1402509Y419597D01*
X1400856Y420040D01*
D02*
G37*
G36*
X1290856Y412230D02*
X1289144D01*
X1287491Y411787D01*
X1286009Y410931D01*
X1284799Y409721D01*
X1283943Y408239D01*
X1283500Y406586D01*
Y404874D01*
X1283943Y403221D01*
X1284799Y401739D01*
X1286009Y400529D01*
X1287491Y399673D01*
X1289144Y399230D01*
X1290856D01*
X1292509Y399673D01*
X1293991Y400529D01*
X1295201Y401739D01*
X1296057Y403221D01*
X1296500Y404874D01*
Y406586D01*
X1296057Y408239D01*
X1295201Y409721D01*
X1293991Y410931D01*
X1292509Y411787D01*
X1290856Y412230D01*
D02*
G37*
G36*
X1675856Y411500D02*
X1674144D01*
X1672491Y411057D01*
X1671009Y410201D01*
X1669799Y408991D01*
X1668943Y407509D01*
X1668500Y405856D01*
Y404144D01*
X1668943Y402491D01*
X1669799Y401009D01*
X1671009Y399799D01*
X1672491Y398943D01*
X1674144Y398500D01*
X1675856D01*
X1677509Y398943D01*
X1678991Y399799D01*
X1680201Y401009D01*
X1681057Y402491D01*
X1681500Y404144D01*
Y405856D01*
X1681057Y407509D01*
X1680201Y408991D01*
X1678991Y410201D01*
X1677509Y411057D01*
X1675856Y411500D01*
D02*
G37*
G36*
X1523356Y409000D02*
X1521644D01*
X1519991Y408557D01*
X1518509Y407701D01*
X1517299Y406491D01*
X1516443Y405009D01*
X1516000Y403356D01*
Y401644D01*
X1516443Y399991D01*
X1517299Y398509D01*
X1518509Y397299D01*
X1519991Y396443D01*
X1521644Y396000D01*
X1523356D01*
X1525009Y396443D01*
X1526491Y397299D01*
X1527701Y398509D01*
X1528557Y399991D01*
X1529000Y401644D01*
Y403356D01*
X1528557Y405009D01*
X1527701Y406491D01*
X1526491Y407701D01*
X1525009Y408557D01*
X1523356Y409000D01*
D02*
G37*
G36*
X1340911Y400810D02*
X1339200D01*
X1337547Y400367D01*
X1336065Y399511D01*
X1334854Y398301D01*
X1333999Y396819D01*
X1333556Y395166D01*
Y393454D01*
X1333999Y391801D01*
X1334854Y390319D01*
X1336065Y389109D01*
X1337547Y388253D01*
X1339200Y387810D01*
X1340911D01*
X1342565Y388253D01*
X1344047Y389109D01*
X1345257Y390319D01*
X1346113Y391801D01*
X1346556Y393454D01*
Y395166D01*
X1346113Y396819D01*
X1345257Y398301D01*
X1344047Y399511D01*
X1342565Y400367D01*
X1340911Y400810D01*
D02*
G37*
G36*
X1668356Y396500D02*
X1666644D01*
X1664991Y396057D01*
X1663509Y395201D01*
X1662299Y393991D01*
X1661443Y392509D01*
X1661000Y390856D01*
Y389144D01*
X1661443Y387491D01*
X1662299Y386009D01*
X1663509Y384799D01*
X1664991Y383943D01*
X1666644Y383500D01*
X1668356D01*
X1670009Y383943D01*
X1671491Y384799D01*
X1672701Y386009D01*
X1673557Y387491D01*
X1674000Y389144D01*
Y390856D01*
X1673557Y392509D01*
X1672701Y393991D01*
X1671491Y395201D01*
X1670009Y396057D01*
X1668356Y396500D01*
D02*
G37*
G36*
X1400856Y394000D02*
X1399144D01*
X1397491Y393557D01*
X1396009Y392701D01*
X1394799Y391491D01*
X1393943Y390009D01*
X1393500Y388356D01*
Y386644D01*
X1393943Y384991D01*
X1394799Y383509D01*
X1396009Y382299D01*
X1397491Y381443D01*
X1399144Y381000D01*
X1400856D01*
X1402509Y381443D01*
X1403991Y382299D01*
X1405201Y383509D01*
X1406057Y384991D01*
X1406500Y386644D01*
Y388356D01*
X1406057Y390009D01*
X1405201Y391491D01*
X1403991Y392701D01*
X1402509Y393557D01*
X1400856Y394000D01*
D02*
G37*
G36*
X1250856Y381500D02*
X1249144D01*
X1247491Y381057D01*
X1246009Y380201D01*
X1244799Y378991D01*
X1243943Y377509D01*
X1243500Y375856D01*
Y374144D01*
X1243943Y372491D01*
X1244799Y371009D01*
X1246009Y369799D01*
X1247491Y368943D01*
X1249144Y368500D01*
X1250856D01*
X1252509Y368943D01*
X1253991Y369799D01*
X1255201Y371009D01*
X1256057Y372491D01*
X1256500Y374144D01*
Y375856D01*
X1256057Y377509D01*
X1255201Y378991D01*
X1253991Y380201D01*
X1252509Y381057D01*
X1250856Y381500D01*
D02*
G37*
G36*
X1321058Y376298D02*
X1319346D01*
X1317693Y375855D01*
X1316211Y374999D01*
X1315001Y373789D01*
X1314145Y372307D01*
X1313702Y370654D01*
Y368942D01*
X1314145Y367289D01*
X1315001Y365807D01*
X1316211Y364597D01*
X1317693Y363741D01*
X1319346Y363298D01*
X1321058D01*
X1322711Y363741D01*
X1324193Y364597D01*
X1325403Y365807D01*
X1326259Y367289D01*
X1326702Y368942D01*
Y370654D01*
X1326259Y372307D01*
X1325403Y373789D01*
X1324193Y374999D01*
X1322711Y375855D01*
X1321058Y376298D01*
D02*
G37*
G36*
X945856Y374000D02*
X944144D01*
X942491Y373557D01*
X941009Y372701D01*
X939799Y371491D01*
X938943Y370009D01*
X938500Y368356D01*
Y366644D01*
X938943Y364991D01*
X939799Y363509D01*
X941009Y362299D01*
X942491Y361443D01*
X944144Y361000D01*
X945856D01*
X947509Y361443D01*
X948991Y362299D01*
X950201Y363509D01*
X951057Y364991D01*
X951500Y366644D01*
Y368356D01*
X951057Y370009D01*
X950201Y371491D01*
X948991Y372701D01*
X947509Y373557D01*
X945856Y374000D01*
D02*
G37*
G36*
X1375856Y371500D02*
X1374144D01*
X1372491Y371057D01*
X1371009Y370201D01*
X1369799Y368991D01*
X1368943Y367509D01*
X1368500Y365856D01*
Y364144D01*
X1368943Y362491D01*
X1369799Y361009D01*
X1371009Y359799D01*
X1372491Y358943D01*
X1374144Y358500D01*
X1375856D01*
X1377509Y358943D01*
X1378991Y359799D01*
X1380201Y361009D01*
X1381057Y362491D01*
X1381500Y364144D01*
Y365856D01*
X1381057Y367509D01*
X1380201Y368991D01*
X1378991Y370201D01*
X1377509Y371057D01*
X1375856Y371500D01*
D02*
G37*
G36*
X626651Y368880D02*
X624939D01*
X623286Y368437D01*
X621804Y367581D01*
X620594Y366371D01*
X619738Y364889D01*
X619295Y363236D01*
Y361524D01*
X619738Y359871D01*
X620594Y358389D01*
X621804Y357179D01*
X623286Y356323D01*
X624939Y355880D01*
X626651D01*
X628304Y356323D01*
X629786Y357179D01*
X630996Y358389D01*
X631852Y359871D01*
X632295Y361524D01*
Y363236D01*
X631852Y364889D01*
X630996Y366371D01*
X629786Y367581D01*
X628304Y368437D01*
X626651Y368880D01*
D02*
G37*
G36*
X1283356Y364000D02*
X1281644D01*
X1279991Y363557D01*
X1278509Y362701D01*
X1277299Y361491D01*
X1276443Y360009D01*
X1276000Y358356D01*
Y356644D01*
X1276443Y354991D01*
X1277299Y353509D01*
X1278509Y352299D01*
X1279991Y351443D01*
X1281644Y351000D01*
X1283356D01*
X1285009Y351443D01*
X1286491Y352299D01*
X1287701Y353509D01*
X1288557Y354991D01*
X1289000Y356644D01*
Y358356D01*
X1288557Y360009D01*
X1287701Y361491D01*
X1286491Y362701D01*
X1285009Y363557D01*
X1283356Y364000D01*
D02*
G37*
G36*
X1375856Y356500D02*
X1374144D01*
X1372491Y356057D01*
X1371009Y355201D01*
X1369799Y353991D01*
X1368943Y352509D01*
X1368500Y350856D01*
Y349144D01*
X1368943Y347491D01*
X1369799Y346009D01*
X1371009Y344799D01*
X1372491Y343943D01*
X1374144Y343500D01*
X1375856D01*
X1377509Y343943D01*
X1378991Y344799D01*
X1380201Y346009D01*
X1381057Y347491D01*
X1381500Y349144D01*
Y350856D01*
X1381057Y352509D01*
X1380201Y353991D01*
X1378991Y355201D01*
X1377509Y356057D01*
X1375856Y356500D01*
D02*
G37*
G36*
X1538356Y351500D02*
X1536644D01*
X1534991Y351057D01*
X1533509Y350201D01*
X1532299Y348991D01*
X1531443Y347509D01*
X1531000Y345856D01*
Y344144D01*
X1531443Y342491D01*
X1532299Y341009D01*
X1533509Y339799D01*
X1534991Y338943D01*
X1536644Y338500D01*
X1538356D01*
X1540009Y338943D01*
X1541491Y339799D01*
X1542701Y341009D01*
X1543557Y342491D01*
X1544000Y344144D01*
Y345856D01*
X1543557Y347509D01*
X1542701Y348991D01*
X1541491Y350201D01*
X1540009Y351057D01*
X1538356Y351500D01*
D02*
G37*
G36*
X985856Y346500D02*
X984144D01*
X982491Y346057D01*
X981009Y345201D01*
X979799Y343991D01*
X978943Y342509D01*
X978500Y340856D01*
Y339144D01*
X978943Y337491D01*
X979799Y336009D01*
X981009Y334799D01*
X982491Y333943D01*
X984144Y333500D01*
X985856D01*
X987509Y333943D01*
X988991Y334799D01*
X990201Y336009D01*
X991057Y337491D01*
X991500Y339144D01*
Y340856D01*
X991057Y342509D01*
X990201Y343991D01*
X988991Y345201D01*
X987509Y346057D01*
X985856Y346500D01*
D02*
G37*
G36*
X1591871Y369000D02*
X1588129D01*
X1584458Y368270D01*
X1581000Y366838D01*
X1577888Y364758D01*
X1575242Y362112D01*
X1573162Y359000D01*
X1571730Y355542D01*
X1571000Y351871D01*
Y348129D01*
X1571730Y344458D01*
X1573162Y341000D01*
X1575242Y337888D01*
X1577888Y335242D01*
X1581000Y333162D01*
X1584458Y331730D01*
X1588129Y331000D01*
X1591871D01*
X1595542Y331730D01*
X1599000Y333162D01*
X1602112Y335242D01*
X1604758Y337888D01*
X1606838Y341000D01*
X1608270Y344458D01*
X1609000Y348129D01*
Y351871D01*
X1608270Y355542D01*
X1606838Y359000D01*
X1604758Y362112D01*
X1602112Y364758D01*
X1599000Y366838D01*
X1595542Y368270D01*
X1591871Y369000D01*
D02*
G37*
G36*
X901871D02*
X898129D01*
X894458Y368270D01*
X891000Y366838D01*
X887888Y364758D01*
X885242Y362112D01*
X883162Y359000D01*
X881730Y355542D01*
X881000Y351871D01*
Y348129D01*
X881730Y344458D01*
X883162Y341000D01*
X885242Y337888D01*
X887888Y335242D01*
X891000Y333162D01*
X894458Y331730D01*
X898129Y331000D01*
X901871D01*
X905542Y331730D01*
X909000Y333162D01*
X912112Y335242D01*
X914758Y337888D01*
X916838Y341000D01*
X918270Y344458D01*
X919000Y348129D01*
Y351871D01*
X918270Y355542D01*
X916838Y359000D01*
X914758Y362112D01*
X912112Y364758D01*
X909000Y366838D01*
X905542Y368270D01*
X901871Y369000D01*
D02*
G37*
G36*
X1525856Y344000D02*
X1524144D01*
X1522491Y343557D01*
X1521009Y342701D01*
X1519799Y341491D01*
X1518943Y340009D01*
X1518500Y338356D01*
Y336644D01*
X1518943Y334991D01*
X1519799Y333509D01*
X1521009Y332299D01*
X1522491Y331443D01*
X1524144Y331000D01*
X1525856D01*
X1527509Y331443D01*
X1528991Y332299D01*
X1530201Y333509D01*
X1531057Y334991D01*
X1531500Y336644D01*
Y338356D01*
X1531057Y340009D01*
X1530201Y341491D01*
X1528991Y342701D01*
X1527509Y343557D01*
X1525856Y344000D01*
D02*
G37*
G36*
X1045856Y341500D02*
X1044144D01*
X1042491Y341057D01*
X1041009Y340201D01*
X1039799Y338991D01*
X1038943Y337509D01*
X1038500Y335856D01*
Y334144D01*
X1038943Y332491D01*
X1039799Y331009D01*
X1041009Y329799D01*
X1042491Y328943D01*
X1044144Y328500D01*
X1045856D01*
X1047509Y328943D01*
X1048991Y329799D01*
X1050201Y331009D01*
X1051057Y332491D01*
X1051500Y334144D01*
Y335856D01*
X1051057Y337509D01*
X1050201Y338991D01*
X1048991Y340201D01*
X1047509Y341057D01*
X1045856Y341500D01*
D02*
G37*
G36*
X1645856Y336500D02*
X1644144D01*
X1642491Y336057D01*
X1641009Y335201D01*
X1639799Y333991D01*
X1638943Y332509D01*
X1638500Y330856D01*
Y329144D01*
X1638943Y327491D01*
X1639799Y326009D01*
X1641009Y324799D01*
X1642491Y323943D01*
X1644144Y323500D01*
X1645856D01*
X1647509Y323943D01*
X1648991Y324799D01*
X1650201Y326009D01*
X1651057Y327491D01*
X1651500Y329144D01*
Y330856D01*
X1651057Y332509D01*
X1650201Y333991D01*
X1648991Y335201D01*
X1647509Y336057D01*
X1645856Y336500D01*
D02*
G37*
G36*
X1433356D02*
X1431644D01*
X1429991Y336057D01*
X1428509Y335201D01*
X1427299Y333991D01*
X1426443Y332509D01*
X1426000Y330856D01*
Y329144D01*
X1426443Y327491D01*
X1427299Y326009D01*
X1428509Y324799D01*
X1429991Y323943D01*
X1431644Y323500D01*
X1433356D01*
X1435009Y323943D01*
X1436491Y324799D01*
X1437701Y326009D01*
X1438557Y327491D01*
X1439000Y329144D01*
Y330856D01*
X1438557Y332509D01*
X1437701Y333991D01*
X1436491Y335201D01*
X1435009Y336057D01*
X1433356Y336500D01*
D02*
G37*
G36*
X1060810Y336172D02*
X1059098D01*
X1057445Y335729D01*
X1055963Y334873D01*
X1054753Y333663D01*
X1053897Y332181D01*
X1053454Y330527D01*
Y328816D01*
X1053897Y327163D01*
X1054753Y325681D01*
X1055963Y324470D01*
X1057445Y323615D01*
X1059098Y323172D01*
X1060810D01*
X1062463Y323615D01*
X1063945Y324470D01*
X1065155Y325681D01*
X1066011Y327163D01*
X1066454Y328816D01*
Y330527D01*
X1066011Y332181D01*
X1065155Y333663D01*
X1063945Y334873D01*
X1062463Y335729D01*
X1060810Y336172D01*
D02*
G37*
G36*
X1400856Y334000D02*
X1399144D01*
X1397491Y333557D01*
X1396009Y332701D01*
X1394799Y331491D01*
X1393943Y330009D01*
X1393500Y328356D01*
Y326644D01*
X1393943Y324991D01*
X1394799Y323509D01*
X1396009Y322299D01*
X1397491Y321443D01*
X1399144Y321000D01*
X1400856D01*
X1402509Y321443D01*
X1403991Y322299D01*
X1405201Y323509D01*
X1406057Y324991D01*
X1406500Y326644D01*
Y328356D01*
X1406057Y330009D01*
X1405201Y331491D01*
X1403991Y332701D01*
X1402509Y333557D01*
X1400856Y334000D01*
D02*
G37*
G36*
X1328872Y331730D02*
X1327160D01*
X1325507Y331287D01*
X1324025Y330431D01*
X1322815Y329221D01*
X1321959Y327739D01*
X1321516Y326086D01*
Y324374D01*
X1321959Y322721D01*
X1322815Y321239D01*
X1324025Y320029D01*
X1325507Y319173D01*
X1327160Y318730D01*
X1328872D01*
X1330525Y319173D01*
X1332007Y320029D01*
X1333217Y321239D01*
X1334073Y322721D01*
X1334516Y324374D01*
Y326086D01*
X1334073Y327739D01*
X1333217Y329221D01*
X1332007Y330431D01*
X1330525Y331287D01*
X1328872Y331730D01*
D02*
G37*
G36*
X1325856Y316500D02*
X1324144D01*
X1322491Y316057D01*
X1321009Y315201D01*
X1319799Y313991D01*
X1318943Y312509D01*
X1318500Y310856D01*
Y309144D01*
X1318943Y307491D01*
X1319799Y306009D01*
X1321009Y304799D01*
X1322491Y303943D01*
X1324144Y303500D01*
X1325856D01*
X1327509Y303943D01*
X1328991Y304799D01*
X1330201Y306009D01*
X1331057Y307491D01*
X1331500Y309144D01*
Y310856D01*
X1331057Y312509D01*
X1330201Y313991D01*
X1328991Y315201D01*
X1327509Y316057D01*
X1325856Y316500D01*
D02*
G37*
G36*
X1064494Y307355D02*
X1062519D01*
X1060611Y306844D01*
X1058901Y305857D01*
X1057505Y304460D01*
X1056517Y302750D01*
X1056006Y300843D01*
Y298868D01*
X1056517Y296960D01*
X1057505Y295250D01*
X1058901Y293854D01*
X1060611Y292866D01*
X1062519Y292355D01*
X1064494D01*
X1066401Y292866D01*
X1068111Y293854D01*
X1069508Y295250D01*
X1070495Y296960D01*
X1071006Y298868D01*
Y300843D01*
X1070495Y302750D01*
X1069508Y304460D01*
X1068111Y305857D01*
X1066401Y306844D01*
X1064494Y307355D01*
D02*
G37*
G36*
X1250987Y282500D02*
X1249013D01*
X1247105Y281989D01*
X1245395Y281001D01*
X1245000Y280607D01*
X1244605Y281001D01*
X1242895Y281989D01*
X1240987Y282500D01*
X1239013D01*
X1237105Y281989D01*
X1235395Y281001D01*
X1235000Y280607D01*
X1234605Y281001D01*
X1232895Y281989D01*
X1230987Y282500D01*
X1229013D01*
X1227105Y281989D01*
X1225395Y281001D01*
X1223998Y279605D01*
X1223011Y277895D01*
X1222500Y275987D01*
Y274013D01*
X1223011Y272105D01*
X1223998Y270395D01*
X1224393Y270000D01*
X1223998Y269605D01*
X1223011Y267895D01*
X1222500Y265987D01*
Y264013D01*
X1223011Y262105D01*
X1223998Y260395D01*
X1224393Y260000D01*
X1223998Y259605D01*
X1223011Y257895D01*
X1222500Y255987D01*
Y254013D01*
X1223011Y252105D01*
X1223998Y250395D01*
X1224393Y250000D01*
X1223998Y249605D01*
X1223011Y247895D01*
X1222500Y245987D01*
Y244013D01*
X1223011Y242105D01*
X1223998Y240395D01*
X1224393Y240000D01*
X1223998Y239605D01*
X1223559Y238844D01*
X1222105Y238501D01*
X1220395Y239489D01*
X1218487Y240000D01*
X1216513D01*
X1214605Y239489D01*
X1212895Y238501D01*
X1211498Y237105D01*
X1210511Y235395D01*
X1210283Y234545D01*
X1208812Y233960D01*
X1207895Y234489D01*
X1205987Y235000D01*
X1204013D01*
X1202105Y234489D01*
X1200395Y233501D01*
X1198998Y232105D01*
X1198011Y230395D01*
X1197500Y228487D01*
Y226513D01*
X1198011Y224605D01*
X1198998Y222895D01*
X1200395Y221499D01*
X1202105Y220511D01*
X1204013Y220000D01*
X1205987D01*
X1207895Y220511D01*
X1209605Y221499D01*
X1211002Y222895D01*
X1211989Y224605D01*
X1212217Y225455D01*
X1213688Y226040D01*
X1214605Y225511D01*
X1216513Y225000D01*
X1218487D01*
X1220395Y225511D01*
X1222105Y226499D01*
X1223502Y227895D01*
X1223941Y228656D01*
X1225395Y228999D01*
X1227105Y228011D01*
X1229013Y227500D01*
X1230987D01*
X1232895Y228011D01*
X1234605Y228999D01*
X1235000Y229393D01*
X1235395Y228999D01*
X1237105Y228011D01*
X1239013Y227500D01*
X1240987D01*
X1242895Y228011D01*
X1244605Y228999D01*
X1245000Y229393D01*
X1245395Y228999D01*
X1247105Y228011D01*
X1249013Y227500D01*
X1250987D01*
X1252895Y228011D01*
X1254605Y228999D01*
X1256002Y230395D01*
X1256989Y232105D01*
X1257500Y234013D01*
Y235987D01*
X1256989Y237895D01*
X1256002Y239605D01*
X1255607Y240000D01*
X1256002Y240395D01*
X1256989Y242105D01*
X1257500Y244013D01*
Y245987D01*
X1256989Y247895D01*
X1256002Y249605D01*
X1255607Y250000D01*
X1256002Y250395D01*
X1256989Y252105D01*
X1257500Y254013D01*
Y255987D01*
X1256989Y257895D01*
X1256002Y259605D01*
X1255607Y260000D01*
X1256002Y260395D01*
X1256989Y262105D01*
X1257500Y264013D01*
Y265987D01*
X1256989Y267895D01*
X1256002Y269605D01*
X1255607Y270000D01*
X1256002Y270395D01*
X1256989Y272105D01*
X1257500Y274013D01*
Y275987D01*
X1256989Y277895D01*
X1256002Y279605D01*
X1254605Y281001D01*
X1252895Y281989D01*
X1250987Y282500D01*
D02*
G37*
G36*
X1650987Y280000D02*
X1649013D01*
X1647105Y279489D01*
X1645395Y278501D01*
X1645000Y278107D01*
X1644605Y278501D01*
X1642895Y279489D01*
X1640987Y280000D01*
X1639013D01*
X1637105Y279489D01*
X1635395Y278501D01*
X1635000Y278107D01*
X1634605Y278501D01*
X1632895Y279489D01*
X1630987Y280000D01*
X1629013D01*
X1627105Y279489D01*
X1625395Y278501D01*
X1623999Y277105D01*
X1623011Y275395D01*
X1622500Y273487D01*
Y271513D01*
X1623011Y269605D01*
X1623999Y267895D01*
X1624393Y267500D01*
X1623999Y267105D01*
X1623011Y265395D01*
X1622500Y263487D01*
Y261513D01*
X1623011Y259605D01*
X1623999Y257895D01*
X1624393Y257500D01*
X1623999Y257105D01*
X1623011Y255395D01*
X1622500Y253487D01*
Y251513D01*
X1623011Y249605D01*
X1623999Y247895D01*
X1624393Y247500D01*
X1623999Y247105D01*
X1623011Y245395D01*
X1622500Y243487D01*
Y241513D01*
X1623011Y239605D01*
X1623303Y239100D01*
X1622287Y238320D01*
X1622105Y238501D01*
X1620395Y239489D01*
X1618487Y240000D01*
X1616513D01*
X1614605Y239489D01*
X1612895Y238501D01*
X1611499Y237105D01*
X1610511Y235395D01*
X1610283Y234545D01*
X1608812Y233960D01*
X1607895Y234489D01*
X1605987Y235000D01*
X1604013D01*
X1602105Y234489D01*
X1600395Y233501D01*
X1598999Y232105D01*
X1598011Y230395D01*
X1597500Y228487D01*
Y226513D01*
X1598011Y224605D01*
X1598999Y222895D01*
X1600395Y221499D01*
X1602105Y220511D01*
X1604013Y220000D01*
X1605987D01*
X1607895Y220511D01*
X1609605Y221499D01*
X1611001Y222895D01*
X1611989Y224605D01*
X1612217Y225455D01*
X1613688Y226040D01*
X1614605Y225511D01*
X1616513Y225000D01*
X1618487D01*
X1620395Y225511D01*
X1622105Y226499D01*
X1622887Y227280D01*
X1623750Y227757D01*
X1624613Y227280D01*
X1625395Y226499D01*
X1627105Y225511D01*
X1629013Y225000D01*
X1630987D01*
X1632895Y225511D01*
X1634605Y226499D01*
X1635000Y226893D01*
X1635395Y226499D01*
X1637105Y225511D01*
X1639013Y225000D01*
X1640987D01*
X1642895Y225511D01*
X1644605Y226499D01*
X1645000Y226893D01*
X1645395Y226499D01*
X1647105Y225511D01*
X1649013Y225000D01*
X1650987D01*
X1652895Y225511D01*
X1654605Y226499D01*
X1656001Y227895D01*
X1656989Y229605D01*
X1657500Y231513D01*
Y233487D01*
X1656989Y235395D01*
X1656001Y237105D01*
X1655607Y237500D01*
X1656001Y237895D01*
X1656989Y239605D01*
X1657500Y241513D01*
Y243487D01*
X1656989Y245395D01*
X1656001Y247105D01*
X1655607Y247500D01*
X1656001Y247895D01*
X1656989Y249605D01*
X1657500Y251513D01*
Y253487D01*
X1656989Y255395D01*
X1656001Y257105D01*
X1655607Y257500D01*
X1656001Y257895D01*
X1656989Y259605D01*
X1657500Y261513D01*
Y263487D01*
X1656989Y265395D01*
X1656001Y267105D01*
X1655607Y267500D01*
X1656001Y267895D01*
X1656989Y269605D01*
X1657500Y271513D01*
Y273487D01*
X1656989Y275395D01*
X1656001Y277105D01*
X1654605Y278501D01*
X1652895Y279489D01*
X1650987Y280000D01*
D02*
G37*
G36*
X1450987D02*
X1449013D01*
X1447105Y279489D01*
X1445395Y278501D01*
X1445000Y278107D01*
X1444605Y278501D01*
X1442895Y279489D01*
X1440987Y280000D01*
X1439013D01*
X1437105Y279489D01*
X1435395Y278501D01*
X1435000Y278107D01*
X1434605Y278501D01*
X1432895Y279489D01*
X1430987Y280000D01*
X1429013D01*
X1427105Y279489D01*
X1425395Y278501D01*
X1423999Y277105D01*
X1423011Y275395D01*
X1422500Y273487D01*
Y271513D01*
X1423011Y269605D01*
X1423999Y267895D01*
X1424393Y267500D01*
X1423999Y267105D01*
X1423011Y265395D01*
X1422500Y263487D01*
Y261513D01*
X1423011Y259605D01*
X1423999Y257895D01*
X1424393Y257500D01*
X1423999Y257105D01*
X1423011Y255395D01*
X1422500Y253487D01*
Y251513D01*
X1423011Y249605D01*
X1423999Y247895D01*
X1424393Y247500D01*
X1423999Y247105D01*
X1423011Y245395D01*
X1422500Y243487D01*
Y241513D01*
X1423011Y239605D01*
X1423303Y239100D01*
X1422287Y238320D01*
X1422105Y238501D01*
X1420395Y239489D01*
X1418487Y240000D01*
X1416513D01*
X1414605Y239489D01*
X1412895Y238501D01*
X1411499Y237105D01*
X1410511Y235395D01*
X1410283Y234545D01*
X1408812Y233960D01*
X1407895Y234489D01*
X1405987Y235000D01*
X1404013D01*
X1402105Y234489D01*
X1400395Y233501D01*
X1398999Y232105D01*
X1398011Y230395D01*
X1397500Y228487D01*
Y226513D01*
X1398011Y224605D01*
X1398999Y222895D01*
X1400395Y221499D01*
X1402105Y220511D01*
X1404013Y220000D01*
X1405987D01*
X1407895Y220511D01*
X1409605Y221499D01*
X1411001Y222895D01*
X1411989Y224605D01*
X1412217Y225455D01*
X1413688Y226040D01*
X1414605Y225511D01*
X1416513Y225000D01*
X1418487D01*
X1420395Y225511D01*
X1422105Y226499D01*
X1422887Y227280D01*
X1423750Y227757D01*
X1424613Y227280D01*
X1425395Y226499D01*
X1427105Y225511D01*
X1429013Y225000D01*
X1430987D01*
X1432895Y225511D01*
X1434605Y226499D01*
X1435000Y226893D01*
X1435395Y226499D01*
X1437105Y225511D01*
X1439013Y225000D01*
X1440987D01*
X1442895Y225511D01*
X1444605Y226499D01*
X1445000Y226893D01*
X1445395Y226499D01*
X1447105Y225511D01*
X1449013Y225000D01*
X1450987D01*
X1452895Y225511D01*
X1454605Y226499D01*
X1456001Y227895D01*
X1456989Y229605D01*
X1457500Y231513D01*
Y233487D01*
X1456989Y235395D01*
X1456001Y237105D01*
X1455607Y237500D01*
X1456001Y237895D01*
X1456989Y239605D01*
X1457500Y241513D01*
Y243487D01*
X1456989Y245395D01*
X1456001Y247105D01*
X1455607Y247500D01*
X1456001Y247895D01*
X1456989Y249605D01*
X1457500Y251513D01*
Y253487D01*
X1456989Y255395D01*
X1456001Y257105D01*
X1455607Y257500D01*
X1456001Y257895D01*
X1456989Y259605D01*
X1457500Y261513D01*
Y263487D01*
X1456989Y265395D01*
X1456001Y267105D01*
X1455607Y267500D01*
X1456001Y267895D01*
X1456989Y269605D01*
X1457500Y271513D01*
Y273487D01*
X1456989Y275395D01*
X1456001Y277105D01*
X1454605Y278501D01*
X1452895Y279489D01*
X1450987Y280000D01*
D02*
G37*
G36*
X1050987D02*
X1049013D01*
X1047105Y279489D01*
X1045395Y278501D01*
X1045000Y278107D01*
X1044605Y278501D01*
X1042895Y279489D01*
X1040987Y280000D01*
X1039013D01*
X1037105Y279489D01*
X1035395Y278501D01*
X1035000Y278107D01*
X1034605Y278501D01*
X1032895Y279489D01*
X1030987Y280000D01*
X1029013D01*
X1027105Y279489D01*
X1025395Y278501D01*
X1023998Y277105D01*
X1023011Y275395D01*
X1022500Y273487D01*
Y271513D01*
X1023011Y269605D01*
X1023998Y267895D01*
X1024393Y267500D01*
X1023998Y267105D01*
X1023011Y265395D01*
X1022500Y263487D01*
Y261513D01*
X1023011Y259605D01*
X1023998Y257895D01*
X1024393Y257500D01*
X1023998Y257105D01*
X1023011Y255395D01*
X1022500Y253487D01*
Y251513D01*
X1023011Y249605D01*
X1023998Y247895D01*
X1024393Y247500D01*
X1023998Y247105D01*
X1023011Y245395D01*
X1022500Y243487D01*
Y241513D01*
X1023011Y239605D01*
X1023303Y239100D01*
X1022287Y238320D01*
X1022105Y238501D01*
X1020395Y239489D01*
X1018487Y240000D01*
X1016513D01*
X1014605Y239489D01*
X1012895Y238501D01*
X1011498Y237105D01*
X1010511Y235395D01*
X1010283Y234545D01*
X1008812Y233960D01*
X1007895Y234489D01*
X1005987Y235000D01*
X1004013D01*
X1002105Y234489D01*
X1000395Y233501D01*
X998998Y232105D01*
X998011Y230395D01*
X997500Y228487D01*
Y226513D01*
X998011Y224605D01*
X998998Y222895D01*
X1000395Y221499D01*
X1002105Y220511D01*
X1004013Y220000D01*
X1005987D01*
X1007895Y220511D01*
X1009605Y221499D01*
X1011002Y222895D01*
X1011989Y224605D01*
X1012217Y225455D01*
X1013688Y226040D01*
X1014605Y225511D01*
X1016513Y225000D01*
X1018487D01*
X1020395Y225511D01*
X1022105Y226499D01*
X1022887Y227280D01*
X1023750Y227757D01*
X1024613Y227280D01*
X1025395Y226499D01*
X1027105Y225511D01*
X1029013Y225000D01*
X1030987D01*
X1032895Y225511D01*
X1034605Y226499D01*
X1035000Y226893D01*
X1035395Y226499D01*
X1037105Y225511D01*
X1039013Y225000D01*
X1040987D01*
X1042895Y225511D01*
X1044605Y226499D01*
X1045000Y226893D01*
X1045395Y226499D01*
X1047105Y225511D01*
X1049013Y225000D01*
X1050987D01*
X1052895Y225511D01*
X1054605Y226499D01*
X1056002Y227895D01*
X1056989Y229605D01*
X1057500Y231513D01*
Y233487D01*
X1056989Y235395D01*
X1056002Y237105D01*
X1055607Y237500D01*
X1056002Y237895D01*
X1056989Y239605D01*
X1057500Y241513D01*
Y243487D01*
X1056989Y245395D01*
X1056002Y247105D01*
X1055607Y247500D01*
X1056002Y247895D01*
X1056989Y249605D01*
X1057500Y251513D01*
Y253487D01*
X1056989Y255395D01*
X1056002Y257105D01*
X1055607Y257500D01*
X1056002Y257895D01*
X1056989Y259605D01*
X1057500Y261513D01*
Y263487D01*
X1056989Y265395D01*
X1056002Y267105D01*
X1055607Y267500D01*
X1056002Y267895D01*
X1056989Y269605D01*
X1057500Y271513D01*
Y273487D01*
X1056989Y275395D01*
X1056002Y277105D01*
X1054605Y278501D01*
X1052895Y279489D01*
X1050987Y280000D01*
D02*
G37*
G36*
X850987D02*
X849013D01*
X847105Y279489D01*
X845395Y278501D01*
X845000Y278107D01*
X844605Y278501D01*
X842895Y279489D01*
X840987Y280000D01*
X839013D01*
X837105Y279489D01*
X835395Y278501D01*
X835000Y278107D01*
X834605Y278501D01*
X832895Y279489D01*
X830987Y280000D01*
X829013D01*
X827105Y279489D01*
X825395Y278501D01*
X823998Y277105D01*
X823011Y275395D01*
X822500Y273487D01*
Y271513D01*
X823011Y269605D01*
X823998Y267895D01*
X824393Y267500D01*
X823998Y267105D01*
X823011Y265395D01*
X822500Y263487D01*
Y261513D01*
X823011Y259605D01*
X823998Y257895D01*
X824393Y257500D01*
X823998Y257105D01*
X823011Y255395D01*
X822500Y253487D01*
Y251513D01*
X823011Y249605D01*
X823998Y247895D01*
X824393Y247500D01*
X823998Y247105D01*
X823011Y245395D01*
X822500Y243487D01*
Y241513D01*
X823011Y239605D01*
X823303Y239100D01*
X822287Y238320D01*
X822105Y238501D01*
X820395Y239489D01*
X818487Y240000D01*
X816513D01*
X814605Y239489D01*
X812895Y238501D01*
X811498Y237105D01*
X810511Y235395D01*
X810283Y234545D01*
X808812Y233960D01*
X807895Y234489D01*
X805987Y235000D01*
X804013D01*
X802105Y234489D01*
X800395Y233501D01*
X798998Y232105D01*
X798011Y230395D01*
X797500Y228487D01*
Y226513D01*
X798011Y224605D01*
X798998Y222895D01*
X800395Y221499D01*
X802105Y220511D01*
X804013Y220000D01*
X805987D01*
X807895Y220511D01*
X809605Y221499D01*
X811002Y222895D01*
X811989Y224605D01*
X812217Y225455D01*
X813688Y226040D01*
X814605Y225511D01*
X816513Y225000D01*
X818487D01*
X820395Y225511D01*
X822105Y226499D01*
X822887Y227280D01*
X823750Y227757D01*
X824613Y227280D01*
X825395Y226499D01*
X827105Y225511D01*
X829013Y225000D01*
X830987D01*
X832895Y225511D01*
X834605Y226499D01*
X835000Y226893D01*
X835395Y226499D01*
X837105Y225511D01*
X839013Y225000D01*
X840987D01*
X842895Y225511D01*
X844605Y226499D01*
X845000Y226893D01*
X845395Y226499D01*
X847105Y225511D01*
X849013Y225000D01*
X850987D01*
X852895Y225511D01*
X854605Y226499D01*
X856002Y227895D01*
X856989Y229605D01*
X857500Y231513D01*
Y233487D01*
X856989Y235395D01*
X856002Y237105D01*
X855607Y237500D01*
X856002Y237895D01*
X856989Y239605D01*
X857500Y241513D01*
Y243487D01*
X856989Y245395D01*
X856002Y247105D01*
X855607Y247500D01*
X856002Y247895D01*
X856989Y249605D01*
X857500Y251513D01*
Y253487D01*
X856989Y255395D01*
X856002Y257105D01*
X855607Y257500D01*
X856002Y257895D01*
X856989Y259605D01*
X857500Y261513D01*
Y263487D01*
X856989Y265395D01*
X856002Y267105D01*
X855607Y267500D01*
X856002Y267895D01*
X856989Y269605D01*
X857500Y271513D01*
Y273487D01*
X856989Y275395D01*
X856002Y277105D01*
X854605Y278501D01*
X852895Y279489D01*
X850987Y280000D01*
D02*
G37*
G36*
X650987D02*
X649013D01*
X647105Y279489D01*
X645395Y278501D01*
X645000Y278107D01*
X644605Y278501D01*
X642895Y279489D01*
X640987Y280000D01*
X639013D01*
X637105Y279489D01*
X635395Y278501D01*
X635000Y278107D01*
X634605Y278501D01*
X632895Y279489D01*
X630987Y280000D01*
X629013D01*
X627105Y279489D01*
X625395Y278501D01*
X623998Y277105D01*
X623011Y275395D01*
X622500Y273487D01*
Y271513D01*
X623011Y269605D01*
X623998Y267895D01*
X624393Y267500D01*
X623998Y267105D01*
X623011Y265395D01*
X622500Y263487D01*
Y261513D01*
X623011Y259605D01*
X623998Y257895D01*
X624393Y257500D01*
X623998Y257105D01*
X623011Y255395D01*
X622500Y253487D01*
Y251513D01*
X623011Y249605D01*
X623998Y247895D01*
X624393Y247500D01*
X623998Y247105D01*
X623011Y245395D01*
X622500Y243487D01*
Y241513D01*
X623011Y239605D01*
X623998Y237895D01*
X624180Y237713D01*
X623400Y236697D01*
X622895Y236989D01*
X620987Y237500D01*
X619013D01*
X617105Y236989D01*
X615395Y236001D01*
X613998Y234605D01*
X613011Y232895D01*
X612694Y231713D01*
X611331Y231534D01*
X611002Y232105D01*
X609605Y233501D01*
X607895Y234489D01*
X605987Y235000D01*
X604013D01*
X602105Y234489D01*
X600395Y233501D01*
X598998Y232105D01*
X598011Y230395D01*
X597500Y228487D01*
Y226513D01*
X598011Y224605D01*
X598998Y222895D01*
X600395Y221499D01*
X602105Y220511D01*
X604013Y220000D01*
X605987D01*
X607895Y220511D01*
X609605Y221499D01*
X611002Y222895D01*
X611989Y224605D01*
X612306Y225787D01*
X613669Y225966D01*
X613998Y225395D01*
X615395Y223999D01*
X617105Y223011D01*
X619013Y222500D01*
X620987D01*
X622895Y223011D01*
X624605Y223999D01*
X626002Y225395D01*
X626328Y225960D01*
X627105Y225511D01*
X629013Y225000D01*
X630987D01*
X632895Y225511D01*
X634605Y226499D01*
X635000Y226893D01*
X635395Y226499D01*
X637105Y225511D01*
X639013Y225000D01*
X640987D01*
X642895Y225511D01*
X644605Y226499D01*
X645000Y226893D01*
X645395Y226499D01*
X647105Y225511D01*
X649013Y225000D01*
X650987D01*
X652895Y225511D01*
X654605Y226499D01*
X656002Y227895D01*
X656989Y229605D01*
X657500Y231513D01*
Y233487D01*
X656989Y235395D01*
X656002Y237105D01*
X655607Y237500D01*
X656002Y237895D01*
X656989Y239605D01*
X657500Y241513D01*
Y243487D01*
X656989Y245395D01*
X656002Y247105D01*
X655607Y247500D01*
X656002Y247895D01*
X656989Y249605D01*
X657500Y251513D01*
Y253487D01*
X656989Y255395D01*
X656002Y257105D01*
X655607Y257500D01*
X656002Y257895D01*
X656989Y259605D01*
X657500Y261513D01*
Y263487D01*
X656989Y265395D01*
X656002Y267105D01*
X655607Y267500D01*
X656002Y267895D01*
X656989Y269605D01*
X657500Y271513D01*
Y273487D01*
X656989Y275395D01*
X656002Y277105D01*
X654605Y278501D01*
X652895Y279489D01*
X650987Y280000D01*
D02*
G37*
G36*
X450987D02*
X449013D01*
X447105Y279489D01*
X445395Y278501D01*
X445000Y278107D01*
X444605Y278501D01*
X442895Y279489D01*
X440987Y280000D01*
X439013D01*
X437105Y279489D01*
X435395Y278501D01*
X435000Y278107D01*
X434605Y278501D01*
X432895Y279489D01*
X430987Y280000D01*
X429013D01*
X427105Y279489D01*
X425395Y278501D01*
X423998Y277105D01*
X423011Y275395D01*
X422500Y273487D01*
Y271513D01*
X423011Y269605D01*
X423998Y267895D01*
X424394Y267500D01*
X423998Y267105D01*
X423011Y265395D01*
X422500Y263487D01*
Y261513D01*
X423011Y259605D01*
X423998Y257895D01*
X424393Y257500D01*
X423998Y257105D01*
X423011Y255395D01*
X422500Y253487D01*
Y251513D01*
X423011Y249605D01*
X423998Y247895D01*
X424394Y247500D01*
X423998Y247105D01*
X423011Y245395D01*
X422500Y243487D01*
Y241513D01*
X423011Y239605D01*
X423998Y237895D01*
X424180Y237713D01*
X423400Y236697D01*
X422895Y236989D01*
X420987Y237500D01*
X419013D01*
X417105Y236989D01*
X415395Y236001D01*
X413998Y234605D01*
X413011Y232895D01*
X412694Y231713D01*
X411331Y231534D01*
X411002Y232105D01*
X409605Y233501D01*
X407895Y234489D01*
X405987Y235000D01*
X404013D01*
X402105Y234489D01*
X400395Y233501D01*
X398998Y232105D01*
X398011Y230395D01*
X397500Y228487D01*
Y226513D01*
X398011Y224605D01*
X398998Y222895D01*
X400395Y221499D01*
X402105Y220511D01*
X404013Y220000D01*
X405987D01*
X407895Y220511D01*
X409605Y221499D01*
X411002Y222895D01*
X411989Y224605D01*
X412306Y225787D01*
X413669Y225966D01*
X413998Y225395D01*
X415395Y223999D01*
X417105Y223011D01*
X419013Y222500D01*
X420987D01*
X422895Y223011D01*
X424605Y223999D01*
X426002Y225395D01*
X426328Y225960D01*
X427105Y225511D01*
X429013Y225000D01*
X430987D01*
X432895Y225511D01*
X434605Y226499D01*
X435000Y226893D01*
X435395Y226499D01*
X437105Y225511D01*
X439013Y225000D01*
X440987D01*
X442895Y225511D01*
X444605Y226499D01*
X445179Y227073D01*
X446041Y226575D01*
X447949Y226064D01*
X449924D01*
X451831Y226575D01*
X453541Y227562D01*
X454938Y228959D01*
X455925Y230669D01*
X456436Y232576D01*
Y234551D01*
X455925Y236459D01*
X455427Y237321D01*
X456002Y237895D01*
X456989Y239605D01*
X457500Y241513D01*
Y243487D01*
X456989Y245395D01*
X456002Y247105D01*
X455607Y247500D01*
X456002Y247895D01*
X456989Y249605D01*
X457500Y251513D01*
Y253487D01*
X456989Y255395D01*
X456002Y257105D01*
X455607Y257500D01*
X456002Y257895D01*
X456989Y259605D01*
X457500Y261513D01*
Y263487D01*
X456989Y265395D01*
X456002Y267105D01*
X455607Y267500D01*
X456002Y267895D01*
X456989Y269605D01*
X457500Y271513D01*
Y273487D01*
X456989Y275395D01*
X456002Y277105D01*
X454605Y278501D01*
X452895Y279489D01*
X450987Y280000D01*
D02*
G37*
G36*
X1575856Y274000D02*
X1574144D01*
X1572491Y273557D01*
X1571009Y272701D01*
X1569799Y271491D01*
X1568943Y270009D01*
X1568500Y268356D01*
Y266644D01*
X1568943Y264991D01*
X1569799Y263509D01*
X1571009Y262299D01*
X1572491Y261443D01*
X1574144Y261000D01*
X1575856D01*
X1577509Y261443D01*
X1578991Y262299D01*
X1580201Y263509D01*
X1581057Y264991D01*
X1581500Y266644D01*
Y268356D01*
X1581057Y270009D01*
X1580201Y271491D01*
X1578991Y272701D01*
X1577509Y273557D01*
X1575856Y274000D01*
D02*
G37*
G36*
X1375856D02*
X1374144D01*
X1372491Y273557D01*
X1371009Y272701D01*
X1369799Y271491D01*
X1368943Y270009D01*
X1368500Y268356D01*
Y266644D01*
X1368943Y264991D01*
X1369799Y263509D01*
X1371009Y262299D01*
X1372491Y261443D01*
X1374144Y261000D01*
X1375856D01*
X1377509Y261443D01*
X1378991Y262299D01*
X1380201Y263509D01*
X1381057Y264991D01*
X1381500Y266644D01*
Y268356D01*
X1381057Y270009D01*
X1380201Y271491D01*
X1378991Y272701D01*
X1377509Y273557D01*
X1375856Y274000D01*
D02*
G37*
G36*
X1355856D02*
X1354144D01*
X1352491Y273557D01*
X1351009Y272701D01*
X1349799Y271491D01*
X1348943Y270009D01*
X1348500Y268356D01*
Y266644D01*
X1348943Y264991D01*
X1349799Y263509D01*
X1351009Y262299D01*
X1352491Y261443D01*
X1354144Y261000D01*
X1355856D01*
X1357509Y261443D01*
X1358991Y262299D01*
X1360201Y263509D01*
X1361057Y264991D01*
X1361500Y266644D01*
Y268356D01*
X1361057Y270009D01*
X1360201Y271491D01*
X1358991Y272701D01*
X1357509Y273557D01*
X1355856Y274000D01*
D02*
G37*
G36*
X1175856D02*
X1174144D01*
X1172491Y273557D01*
X1171009Y272701D01*
X1169799Y271491D01*
X1168943Y270009D01*
X1168500Y268356D01*
Y266644D01*
X1168943Y264991D01*
X1169799Y263509D01*
X1171009Y262299D01*
X1172491Y261443D01*
X1174144Y261000D01*
X1175856D01*
X1177509Y261443D01*
X1178991Y262299D01*
X1180201Y263509D01*
X1181057Y264991D01*
X1181500Y266644D01*
Y268356D01*
X1181057Y270009D01*
X1180201Y271491D01*
X1178991Y272701D01*
X1177509Y273557D01*
X1175856Y274000D01*
D02*
G37*
G36*
X1155856D02*
X1154144D01*
X1152491Y273557D01*
X1151009Y272701D01*
X1149799Y271491D01*
X1148943Y270009D01*
X1148500Y268356D01*
Y266644D01*
X1148943Y264991D01*
X1149799Y263509D01*
X1151009Y262299D01*
X1152491Y261443D01*
X1154144Y261000D01*
X1155856D01*
X1157509Y261443D01*
X1158991Y262299D01*
X1160201Y263509D01*
X1161057Y264991D01*
X1161500Y266644D01*
Y268356D01*
X1161057Y270009D01*
X1160201Y271491D01*
X1158991Y272701D01*
X1157509Y273557D01*
X1155856Y274000D01*
D02*
G37*
G36*
X975856D02*
X974144D01*
X972491Y273557D01*
X971009Y272701D01*
X969799Y271491D01*
X968943Y270009D01*
X968500Y268356D01*
Y266644D01*
X968943Y264991D01*
X969799Y263509D01*
X971009Y262299D01*
X972491Y261443D01*
X974144Y261000D01*
X975856D01*
X977509Y261443D01*
X978991Y262299D01*
X980201Y263509D01*
X981057Y264991D01*
X981500Y266644D01*
Y268356D01*
X981057Y270009D01*
X980201Y271491D01*
X978991Y272701D01*
X977509Y273557D01*
X975856Y274000D01*
D02*
G37*
G36*
X955856D02*
X954144D01*
X952491Y273557D01*
X951009Y272701D01*
X949799Y271491D01*
X948943Y270009D01*
X948500Y268356D01*
Y266644D01*
X948943Y264991D01*
X949799Y263509D01*
X951009Y262299D01*
X952491Y261443D01*
X954144Y261000D01*
X955856D01*
X957509Y261443D01*
X958991Y262299D01*
X960201Y263509D01*
X961057Y264991D01*
X961500Y266644D01*
Y268356D01*
X961057Y270009D01*
X960201Y271491D01*
X958991Y272701D01*
X957509Y273557D01*
X955856Y274000D01*
D02*
G37*
G36*
X775856D02*
X774144D01*
X772491Y273557D01*
X771009Y272701D01*
X769799Y271491D01*
X768943Y270009D01*
X768500Y268356D01*
Y266644D01*
X768943Y264991D01*
X769799Y263509D01*
X771009Y262299D01*
X772491Y261443D01*
X774144Y261000D01*
X775856D01*
X777509Y261443D01*
X778991Y262299D01*
X780201Y263509D01*
X781057Y264991D01*
X781500Y266644D01*
Y268356D01*
X781057Y270009D01*
X780201Y271491D01*
X778991Y272701D01*
X777509Y273557D01*
X775856Y274000D01*
D02*
G37*
G36*
X755856D02*
X754144D01*
X752491Y273557D01*
X751009Y272701D01*
X749799Y271491D01*
X748943Y270009D01*
X748500Y268356D01*
Y266644D01*
X748943Y264991D01*
X749799Y263509D01*
X751009Y262299D01*
X752491Y261443D01*
X754144Y261000D01*
X755856D01*
X757509Y261443D01*
X758991Y262299D01*
X760201Y263509D01*
X761057Y264991D01*
X761500Y266644D01*
Y268356D01*
X761057Y270009D01*
X760201Y271491D01*
X758991Y272701D01*
X757509Y273557D01*
X755856Y274000D01*
D02*
G37*
G36*
X375856D02*
X374144D01*
X372491Y273557D01*
X371009Y272701D01*
X369799Y271491D01*
X368943Y270009D01*
X368500Y268356D01*
Y266644D01*
X368943Y264991D01*
X369799Y263509D01*
X371009Y262299D01*
X372491Y261443D01*
X374144Y261000D01*
X375856D01*
X377509Y261443D01*
X378991Y262299D01*
X380201Y263509D01*
X381057Y264991D01*
X381500Y266644D01*
Y268356D01*
X381057Y270009D01*
X380201Y271491D01*
X378991Y272701D01*
X377509Y273557D01*
X375856Y274000D01*
D02*
G37*
G36*
X1557796Y272810D02*
X1556085D01*
X1554432Y272367D01*
X1552949Y271511D01*
X1551739Y270301D01*
X1550883Y268818D01*
X1550441Y267165D01*
Y265454D01*
X1550883Y263801D01*
X1551739Y262318D01*
X1552949Y261108D01*
X1554432Y260252D01*
X1556085Y259809D01*
X1557796D01*
X1559449Y260252D01*
X1560932Y261108D01*
X1562142Y262318D01*
X1562997Y263801D01*
X1563441Y265454D01*
Y267165D01*
X1562997Y268818D01*
X1562142Y270301D01*
X1560932Y271511D01*
X1559449Y272367D01*
X1557796Y272810D01*
D02*
G37*
G36*
X1083356Y406500D02*
X1081644D01*
X1079991Y406057D01*
X1078509Y405201D01*
X1077299Y403991D01*
X1076443Y402509D01*
X1076000Y400856D01*
Y399144D01*
X1076443Y397491D01*
X1077299Y396009D01*
X1078509Y394799D01*
X1079991Y393943D01*
X1081644Y393500D01*
X1082963D01*
Y393077D01*
X1083217Y391801D01*
X1083256Y391743D01*
Y390910D01*
X1083510Y389634D01*
X1084232Y388553D01*
X1090015Y382770D01*
X1089489Y381500D01*
X1089104D01*
X1087451Y381057D01*
X1085969Y380201D01*
X1084759Y378991D01*
X1083903Y377509D01*
X1083460Y375856D01*
Y374144D01*
X1083903Y372491D01*
X1084759Y371009D01*
X1085969Y369799D01*
X1087451Y368943D01*
X1089104Y368500D01*
X1090816D01*
X1091829Y368772D01*
X1092242Y368358D01*
X1093324Y367636D01*
X1094600Y367382D01*
X1095015D01*
X1096510Y365886D01*
X1096510Y365886D01*
X1097254Y365142D01*
X1098336Y364420D01*
X1099612Y364166D01*
X1165637D01*
X1166123Y362993D01*
X1165242Y362112D01*
X1163162Y359000D01*
X1161730Y355542D01*
X1161000Y351871D01*
Y348129D01*
X1161730Y344458D01*
X1163162Y341000D01*
X1165242Y337888D01*
X1167888Y335242D01*
X1171000Y333162D01*
X1174458Y331730D01*
X1178129Y331000D01*
X1181871D01*
X1185542Y331730D01*
X1189000Y333162D01*
X1192112Y335242D01*
X1194758Y337888D01*
X1196838Y341000D01*
X1198270Y344458D01*
X1199000Y348129D01*
Y351871D01*
X1198270Y355542D01*
X1196838Y359000D01*
X1194758Y362112D01*
X1192112Y364758D01*
X1189000Y366838D01*
X1187234Y367569D01*
X1187439Y368859D01*
X1190231Y369079D01*
X1195894Y368633D01*
X1201417Y367307D01*
X1206665Y365133D01*
X1211508Y362165D01*
X1214618Y359510D01*
X1214646Y359540D01*
X1324190Y259223D01*
Y244601D01*
X1323183Y243828D01*
X1322544Y243999D01*
X1320833D01*
X1319179Y243556D01*
X1317697Y242700D01*
X1316487Y241490D01*
X1315631Y240008D01*
X1315188Y238355D01*
Y236643D01*
X1315631Y234990D01*
X1316487Y233508D01*
X1317697Y232298D01*
X1319179Y231442D01*
X1320833Y230999D01*
X1322544D01*
X1323183Y231170D01*
X1324190Y230397D01*
Y194608D01*
X1323183Y193835D01*
X1322573Y193998D01*
X1320861D01*
X1319208Y193555D01*
X1317726Y192699D01*
X1316516Y191489D01*
X1315660Y190007D01*
X1315217Y188354D01*
Y186642D01*
X1315660Y184989D01*
X1316516Y183507D01*
X1317726Y182297D01*
X1319208Y181441D01*
X1320861Y180998D01*
X1322573D01*
X1323183Y181162D01*
X1324190Y180389D01*
Y122937D01*
X1323943Y122509D01*
X1323500Y120856D01*
Y119144D01*
X1323943Y117491D01*
X1324799Y116009D01*
X1326009Y114799D01*
X1327491Y113943D01*
X1329144Y113500D01*
X1330856D01*
X1332509Y113943D01*
X1333991Y114799D01*
X1335201Y116009D01*
X1336057Y117491D01*
X1336500Y119144D01*
Y120856D01*
X1336057Y122509D01*
X1335201Y123991D01*
X1333991Y125201D01*
X1332509Y126057D01*
X1330858Y126499D01*
Y204587D01*
X1332128Y204934D01*
X1340954Y189970D01*
X1340124Y188877D01*
X1339666Y189000D01*
X1337954D01*
X1336301Y188557D01*
X1334819Y187701D01*
X1333609Y186491D01*
X1332753Y185009D01*
X1332310Y183356D01*
Y181644D01*
X1332753Y179991D01*
X1333609Y178509D01*
X1334819Y177299D01*
X1336301Y176443D01*
X1337954Y176000D01*
X1339666D01*
X1341319Y176443D01*
X1342801Y177299D01*
X1344011Y178509D01*
X1344867Y179991D01*
X1345022Y180571D01*
X1346387Y180757D01*
X1367344Y145224D01*
X1366863Y144048D01*
X1366353Y143912D01*
X1364871Y143056D01*
X1363661Y141846D01*
X1362805Y140363D01*
X1362362Y138710D01*
Y136999D01*
X1362805Y135346D01*
X1363661Y133863D01*
X1364871Y132653D01*
X1366353Y131798D01*
X1368006Y131355D01*
X1369718D01*
X1371371Y131798D01*
X1372853Y132653D01*
X1373318Y133118D01*
X1374578Y132958D01*
X1375728Y131008D01*
X1376009Y130694D01*
X1376243Y130344D01*
X1376438Y130213D01*
X1376595Y130037D01*
X1376974Y129855D01*
X1377324Y129621D01*
X1377555Y129575D01*
X1377767Y129473D01*
X1378187Y129449D01*
X1378600Y129367D01*
X1428790D01*
X1440515Y117642D01*
X1441597Y116920D01*
X1442872Y116666D01*
X1524419D01*
X1524799Y116009D01*
X1526009Y114799D01*
X1527491Y113943D01*
X1529144Y113500D01*
X1530856D01*
X1532509Y113943D01*
X1533991Y114799D01*
X1535201Y116009D01*
X1536057Y117491D01*
X1536500Y119144D01*
Y120856D01*
X1536057Y122509D01*
X1535201Y123991D01*
X1533991Y125201D01*
X1532509Y126057D01*
X1530856Y126500D01*
X1529144D01*
X1527491Y126057D01*
X1526009Y125201D01*
X1524799Y123991D01*
X1524419Y123334D01*
X1449244D01*
X1448552Y124604D01*
X1449073Y125507D01*
X1449516Y127160D01*
Y128872D01*
X1449073Y130525D01*
X1448217Y132007D01*
X1447007Y133217D01*
X1445525Y134073D01*
X1443872Y134516D01*
X1442160D01*
X1440507Y134073D01*
X1439025Y133217D01*
X1437815Y132007D01*
X1437518Y131494D01*
X1436259Y131328D01*
X1432529Y135059D01*
X1431447Y135781D01*
X1430171Y136035D01*
X1380504D01*
X1337104Y209623D01*
Y261618D01*
X1336850Y262894D01*
X1336127Y263976D01*
X1225140Y374964D01*
X1224396Y375708D01*
X1224020Y375959D01*
X1223678Y376253D01*
X1223484Y376317D01*
X1223314Y376430D01*
X1222871Y376518D01*
X1222442Y376660D01*
X1196033Y379882D01*
X1196021Y379896D01*
Y379896D01*
X1190231Y380276D01*
X1184045Y379870D01*
X1180893Y379243D01*
X1180560Y379240D01*
X1165518Y376102D01*
X1127148Y375455D01*
X1126366Y376456D01*
X1126500Y376954D01*
Y378666D01*
X1126057Y380319D01*
X1125201Y381801D01*
X1123991Y383011D01*
X1122509Y383867D01*
X1120856Y384310D01*
X1119144D01*
X1117491Y383867D01*
X1116401Y383238D01*
X1115311Y383867D01*
X1113658Y384310D01*
X1111947D01*
X1110294Y383867D01*
X1108811Y383011D01*
X1107601Y381801D01*
X1106745Y380319D01*
X1106322Y378740D01*
X1106176Y378433D01*
X1105245Y377813D01*
X1100072Y379976D01*
X1100026Y380022D01*
Y380808D01*
X1099772Y382084D01*
X1099049Y383166D01*
X1089924Y392291D01*
Y392785D01*
X1089670Y394060D01*
X1089631Y394119D01*
Y395537D01*
X1089377Y396813D01*
X1088662Y397883D01*
X1089000Y399144D01*
Y400856D01*
X1088557Y402509D01*
X1087701Y403991D01*
X1086491Y405201D01*
X1085009Y406057D01*
X1083356Y406500D01*
D02*
G37*
G36*
X1090816Y365456D02*
X1089104D01*
X1087451Y365013D01*
X1085969Y364157D01*
X1084759Y362947D01*
X1083903Y361465D01*
X1083460Y359812D01*
Y358100D01*
X1083903Y356447D01*
X1084759Y354965D01*
X1085969Y353755D01*
X1087451Y352899D01*
X1089104Y352456D01*
X1090816D01*
X1092469Y352899D01*
X1093951Y353755D01*
X1095161Y354965D01*
X1096264Y355405D01*
X1097540Y355151D01*
X1100134D01*
X1131666Y323619D01*
Y241494D01*
X1130396Y241154D01*
X1130201Y241491D01*
X1128991Y242701D01*
X1127509Y243557D01*
X1125856Y244000D01*
X1124144D01*
X1122491Y243557D01*
X1121009Y242701D01*
X1119799Y241491D01*
X1118943Y240009D01*
X1118500Y238356D01*
Y236644D01*
X1118943Y234991D01*
X1119799Y233509D01*
X1121009Y232299D01*
X1122491Y231443D01*
X1124144Y231000D01*
X1125856D01*
X1127509Y231443D01*
X1128991Y232299D01*
X1130201Y233509D01*
X1130396Y233846D01*
X1131666Y233506D01*
Y191494D01*
X1130396Y191154D01*
X1130201Y191491D01*
X1128991Y192701D01*
X1127509Y193557D01*
X1125856Y194000D01*
X1124144D01*
X1122491Y193557D01*
X1121009Y192701D01*
X1119799Y191491D01*
X1118943Y190009D01*
X1118500Y188356D01*
Y186644D01*
X1118943Y184991D01*
X1119799Y183509D01*
X1121009Y182299D01*
X1122491Y181443D01*
X1122634Y181405D01*
X1122963Y180178D01*
X1122643Y179858D01*
X1121920Y178776D01*
X1121666Y177500D01*
Y135581D01*
X1121009Y135201D01*
X1119799Y133991D01*
X1118943Y132509D01*
X1118500Y130856D01*
Y129144D01*
X1118943Y127491D01*
X1119799Y126009D01*
X1121009Y124799D01*
X1122491Y123943D01*
X1124144Y123500D01*
X1125856D01*
X1127509Y123943D01*
X1128991Y124799D01*
X1130201Y126009D01*
X1131057Y127491D01*
X1131500Y129144D01*
Y130856D01*
X1131057Y132509D01*
X1130201Y133991D01*
X1128991Y135201D01*
X1128334Y135581D01*
Y176119D01*
X1129823Y177608D01*
X1131082Y177442D01*
X1131379Y176929D01*
X1132589Y175719D01*
X1134071Y174863D01*
X1135724Y174420D01*
X1137436D01*
X1139089Y174863D01*
X1140571Y175719D01*
X1141781Y176929D01*
X1142637Y178411D01*
X1143080Y180064D01*
Y181776D01*
X1142637Y183429D01*
X1141781Y184911D01*
X1140571Y186121D01*
X1139089Y186977D01*
X1138273Y187195D01*
X1138334Y187500D01*
Y325000D01*
X1138080Y326276D01*
X1137357Y327357D01*
X1103872Y360843D01*
X1102790Y361566D01*
X1101515Y361819D01*
X1098670D01*
X1098345Y362036D01*
X1097069Y362290D01*
X1095541D01*
X1095161Y362947D01*
X1093951Y364157D01*
X1092469Y365013D01*
X1090816Y365456D01*
D02*
G37*
G36*
X1525856Y244000D02*
X1524144D01*
X1522491Y243557D01*
X1521009Y242701D01*
X1519799Y241491D01*
X1518943Y240009D01*
X1518500Y238356D01*
Y236644D01*
X1518943Y234991D01*
X1519799Y233509D01*
X1521009Y232299D01*
X1522491Y231443D01*
X1524144Y231000D01*
X1525856D01*
X1527509Y231443D01*
X1528991Y232299D01*
X1530201Y233509D01*
X1531057Y234991D01*
X1531500Y236644D01*
Y238356D01*
X1531057Y240009D01*
X1530201Y241491D01*
X1528991Y242701D01*
X1527509Y243557D01*
X1525856Y244000D01*
D02*
G37*
G36*
X925856D02*
X924144D01*
X922491Y243557D01*
X921009Y242701D01*
X919799Y241491D01*
X918943Y240009D01*
X918500Y238356D01*
Y236644D01*
X918943Y234991D01*
X919799Y233509D01*
X921009Y232299D01*
X922491Y231443D01*
X924144Y231000D01*
X925856D01*
X927509Y231443D01*
X928991Y232299D01*
X930201Y233509D01*
X931057Y234991D01*
X931500Y236644D01*
Y238356D01*
X931057Y240009D01*
X930201Y241491D01*
X928991Y242701D01*
X927509Y243557D01*
X925856Y244000D01*
D02*
G37*
G36*
X725856D02*
X724144D01*
X722491Y243557D01*
X721009Y242701D01*
X719799Y241491D01*
X718943Y240009D01*
X718500Y238356D01*
Y236644D01*
X718943Y234991D01*
X719799Y233509D01*
X721009Y232299D01*
X722491Y231443D01*
X724144Y231000D01*
X725856D01*
X727509Y231443D01*
X728991Y232299D01*
X730201Y233509D01*
X731057Y234991D01*
X731500Y236644D01*
Y238356D01*
X731057Y240009D01*
X730201Y241491D01*
X728991Y242701D01*
X727509Y243557D01*
X725856Y244000D01*
D02*
G37*
G36*
X325856D02*
X324144D01*
X322491Y243557D01*
X321009Y242701D01*
X319799Y241491D01*
X318943Y240009D01*
X318500Y238356D01*
Y236644D01*
X318943Y234991D01*
X319799Y233509D01*
X321009Y232299D01*
X322491Y231443D01*
X324144Y231000D01*
X325856D01*
X327509Y231443D01*
X328991Y232299D01*
X330201Y233509D01*
X331057Y234991D01*
X331500Y236644D01*
Y238356D01*
X331057Y240009D01*
X330201Y241491D01*
X328991Y242701D01*
X327509Y243557D01*
X325856Y244000D01*
D02*
G37*
G36*
X525856Y243230D02*
X524144D01*
X522491Y242787D01*
X521009Y241931D01*
X519799Y240721D01*
X518943Y239239D01*
X518500Y237586D01*
Y235874D01*
X518943Y234221D01*
X519799Y232739D01*
X521009Y231529D01*
X522491Y230673D01*
X524144Y230230D01*
X525856D01*
X527509Y230673D01*
X528991Y231529D01*
X530201Y232739D01*
X531057Y234221D01*
X531500Y235874D01*
Y237586D01*
X531057Y239239D01*
X530201Y240721D01*
X528991Y241931D01*
X527509Y242787D01*
X525856Y243230D01*
D02*
G37*
G36*
X425856Y204000D02*
X424144D01*
X422491Y203557D01*
X421009Y202701D01*
X420000Y201692D01*
X418991Y202701D01*
X417509Y203557D01*
X415856Y204000D01*
X414144D01*
X412491Y203557D01*
X411009Y202701D01*
X409799Y201491D01*
X408943Y200009D01*
X408500Y198356D01*
Y196644D01*
X408943Y194991D01*
X409799Y193509D01*
X411009Y192299D01*
X412491Y191443D01*
X414144Y191000D01*
X415856D01*
X417509Y191443D01*
X418991Y192299D01*
X420000Y193308D01*
X421009Y192299D01*
X422491Y191443D01*
X424144Y191000D01*
X425856D01*
X427509Y191443D01*
X428991Y192299D01*
X430000Y193308D01*
X431009Y192299D01*
X432491Y191443D01*
X434144Y191000D01*
X435856D01*
X437509Y191443D01*
X438991Y192299D01*
X440000Y193308D01*
X441009Y192299D01*
X442491Y191443D01*
X444144Y191000D01*
X445856D01*
X447509Y191443D01*
X448991Y192299D01*
X450201Y193509D01*
X451057Y194991D01*
X451500Y196644D01*
Y198356D01*
X451057Y200009D01*
X450201Y201491D01*
X448991Y202701D01*
X447509Y203557D01*
X445856Y204000D01*
X444144D01*
X442491Y203557D01*
X441009Y202701D01*
X440000Y201692D01*
X438991Y202701D01*
X437509Y203557D01*
X435856Y204000D01*
X434144D01*
X432491Y203557D01*
X431009Y202701D01*
X430000Y201692D01*
X428991Y202701D01*
X427509Y203557D01*
X425856Y204000D01*
D02*
G37*
G36*
X1645856Y204000D02*
X1644144D01*
X1642491Y203557D01*
X1641009Y202701D01*
X1640000Y201692D01*
X1638991Y202701D01*
X1637509Y203557D01*
X1635856Y204000D01*
X1634144D01*
X1632491Y203557D01*
X1631009Y202701D01*
X1630000Y201692D01*
X1628991Y202701D01*
X1627509Y203557D01*
X1625856Y204000D01*
X1624144D01*
X1622491Y203557D01*
X1621009Y202701D01*
X1620000Y201692D01*
X1618991Y202701D01*
X1617509Y203557D01*
X1615856Y204000D01*
X1614144D01*
X1612491Y203557D01*
X1611009Y202701D01*
X1609799Y201491D01*
X1608943Y200009D01*
X1608500Y198356D01*
Y196644D01*
X1608943Y194991D01*
X1609799Y193509D01*
X1611009Y192299D01*
X1612491Y191443D01*
X1614144Y191000D01*
X1615856D01*
X1617509Y191443D01*
X1618991Y192299D01*
X1620000Y193308D01*
X1621009Y192299D01*
X1622491Y191443D01*
X1624144Y191000D01*
X1625856D01*
X1627509Y191443D01*
X1628991Y192299D01*
X1630000Y193308D01*
X1631009Y192299D01*
X1632491Y191443D01*
X1634144Y191000D01*
X1635856D01*
X1637509Y191443D01*
X1638991Y192299D01*
X1640000Y193308D01*
X1641009Y192299D01*
X1642491Y191443D01*
X1644144Y191000D01*
X1645856D01*
X1647509Y191443D01*
X1648991Y192299D01*
X1650201Y193509D01*
X1651057Y194991D01*
X1651500Y196644D01*
Y198356D01*
X1651057Y200009D01*
X1650201Y201491D01*
X1648991Y202701D01*
X1647509Y203557D01*
X1645856Y204000D01*
D02*
G37*
G36*
X1445856D02*
X1444144D01*
X1442491Y203557D01*
X1441009Y202701D01*
X1440000Y201692D01*
X1438991Y202701D01*
X1437509Y203557D01*
X1435856Y204000D01*
X1434144D01*
X1432491Y203557D01*
X1431009Y202701D01*
X1430000Y201692D01*
X1428991Y202701D01*
X1427509Y203557D01*
X1425856Y204000D01*
X1424144D01*
X1422491Y203557D01*
X1421009Y202701D01*
X1420000Y201692D01*
X1418991Y202701D01*
X1417509Y203557D01*
X1415856Y204000D01*
X1414144D01*
X1412491Y203557D01*
X1411009Y202701D01*
X1409799Y201491D01*
X1408943Y200009D01*
X1408500Y198356D01*
Y196644D01*
X1408943Y194991D01*
X1409799Y193509D01*
X1411009Y192299D01*
X1412491Y191443D01*
X1414144Y191000D01*
X1415856D01*
X1417509Y191443D01*
X1418991Y192299D01*
X1420000Y193308D01*
X1421009Y192299D01*
X1422491Y191443D01*
X1424144Y191000D01*
X1425856D01*
X1427509Y191443D01*
X1428991Y192299D01*
X1430000Y193308D01*
X1431009Y192299D01*
X1432491Y191443D01*
X1434144Y191000D01*
X1435856D01*
X1437509Y191443D01*
X1438991Y192299D01*
X1440000Y193308D01*
X1441009Y192299D01*
X1442491Y191443D01*
X1444144Y191000D01*
X1445856D01*
X1447509Y191443D01*
X1448991Y192299D01*
X1450201Y193509D01*
X1451057Y194991D01*
X1451500Y196644D01*
Y198356D01*
X1451057Y200009D01*
X1450201Y201491D01*
X1448991Y202701D01*
X1447509Y203557D01*
X1445856Y204000D01*
D02*
G37*
G36*
X1245856D02*
X1244144D01*
X1242491Y203557D01*
X1241009Y202701D01*
X1240000Y201692D01*
X1238991Y202701D01*
X1237509Y203557D01*
X1235856Y204000D01*
X1234144D01*
X1232491Y203557D01*
X1231009Y202701D01*
X1230000Y201692D01*
X1228991Y202701D01*
X1227509Y203557D01*
X1225856Y204000D01*
X1224144D01*
X1222491Y203557D01*
X1221009Y202701D01*
X1220000Y201692D01*
X1218991Y202701D01*
X1217509Y203557D01*
X1215856Y204000D01*
X1214144D01*
X1212491Y203557D01*
X1211009Y202701D01*
X1209799Y201491D01*
X1208943Y200009D01*
X1208500Y198356D01*
Y196644D01*
X1208943Y194991D01*
X1209799Y193509D01*
X1211009Y192299D01*
X1212491Y191443D01*
X1214144Y191000D01*
X1215856D01*
X1217509Y191443D01*
X1218991Y192299D01*
X1220000Y193308D01*
X1221009Y192299D01*
X1222491Y191443D01*
X1224144Y191000D01*
X1225856D01*
X1227509Y191443D01*
X1228991Y192299D01*
X1230000Y193308D01*
X1231009Y192299D01*
X1232491Y191443D01*
X1234144Y191000D01*
X1235856D01*
X1237509Y191443D01*
X1238991Y192299D01*
X1240000Y193308D01*
X1241009Y192299D01*
X1242491Y191443D01*
X1244144Y191000D01*
X1245856D01*
X1247509Y191443D01*
X1248991Y192299D01*
X1250201Y193509D01*
X1251057Y194991D01*
X1251500Y196644D01*
Y198356D01*
X1251057Y200009D01*
X1250201Y201491D01*
X1248991Y202701D01*
X1247509Y203557D01*
X1245856Y204000D01*
D02*
G37*
G36*
X1045856D02*
X1044144D01*
X1042491Y203557D01*
X1041009Y202701D01*
X1040000Y201692D01*
X1038991Y202701D01*
X1037509Y203557D01*
X1035856Y204000D01*
X1034144D01*
X1032491Y203557D01*
X1031009Y202701D01*
X1030000Y201692D01*
X1028991Y202701D01*
X1027509Y203557D01*
X1025856Y204000D01*
X1024144D01*
X1022491Y203557D01*
X1021009Y202701D01*
X1020000Y201692D01*
X1018991Y202701D01*
X1017509Y203557D01*
X1015856Y204000D01*
X1014144D01*
X1012491Y203557D01*
X1011009Y202701D01*
X1009799Y201491D01*
X1008943Y200009D01*
X1008500Y198356D01*
Y196644D01*
X1008943Y194991D01*
X1009799Y193509D01*
X1011009Y192299D01*
X1012491Y191443D01*
X1014144Y191000D01*
X1015856D01*
X1017509Y191443D01*
X1018991Y192299D01*
X1020000Y193308D01*
X1021009Y192299D01*
X1022491Y191443D01*
X1024144Y191000D01*
X1025856D01*
X1027509Y191443D01*
X1028991Y192299D01*
X1030000Y193308D01*
X1031009Y192299D01*
X1032491Y191443D01*
X1034144Y191000D01*
X1035856D01*
X1037509Y191443D01*
X1038991Y192299D01*
X1040000Y193308D01*
X1041009Y192299D01*
X1042491Y191443D01*
X1044144Y191000D01*
X1045856D01*
X1047509Y191443D01*
X1048991Y192299D01*
X1050201Y193509D01*
X1051057Y194991D01*
X1051500Y196644D01*
Y198356D01*
X1051057Y200009D01*
X1050201Y201491D01*
X1048991Y202701D01*
X1047509Y203557D01*
X1045856Y204000D01*
D02*
G37*
G36*
X845856D02*
X844144D01*
X842491Y203557D01*
X841009Y202701D01*
X840000Y201692D01*
X838991Y202701D01*
X837509Y203557D01*
X835856Y204000D01*
X834144D01*
X832491Y203557D01*
X831009Y202701D01*
X830000Y201692D01*
X828991Y202701D01*
X827509Y203557D01*
X825856Y204000D01*
X824144D01*
X822491Y203557D01*
X821009Y202701D01*
X820000Y201692D01*
X818991Y202701D01*
X817509Y203557D01*
X815856Y204000D01*
X814144D01*
X812491Y203557D01*
X811009Y202701D01*
X809799Y201491D01*
X808943Y200009D01*
X808500Y198356D01*
Y196644D01*
X808943Y194991D01*
X809799Y193509D01*
X811009Y192299D01*
X812491Y191443D01*
X814144Y191000D01*
X815856D01*
X817509Y191443D01*
X818991Y192299D01*
X820000Y193308D01*
X821009Y192299D01*
X822491Y191443D01*
X824144Y191000D01*
X825856D01*
X827509Y191443D01*
X828991Y192299D01*
X830000Y193308D01*
X831009Y192299D01*
X832491Y191443D01*
X834144Y191000D01*
X835856D01*
X837509Y191443D01*
X838991Y192299D01*
X840000Y193308D01*
X841009Y192299D01*
X842491Y191443D01*
X844144Y191000D01*
X845856D01*
X847509Y191443D01*
X848991Y192299D01*
X850201Y193509D01*
X851057Y194991D01*
X851500Y196644D01*
Y198356D01*
X851057Y200009D01*
X850201Y201491D01*
X848991Y202701D01*
X847509Y203557D01*
X845856Y204000D01*
D02*
G37*
G36*
X645856D02*
X644144D01*
X642491Y203557D01*
X641009Y202701D01*
X640000Y201692D01*
X638991Y202701D01*
X637509Y203557D01*
X635856Y204000D01*
X634144D01*
X632491Y203557D01*
X631009Y202701D01*
X630000Y201692D01*
X628991Y202701D01*
X627509Y203557D01*
X625856Y204000D01*
X624144D01*
X622491Y203557D01*
X621009Y202701D01*
X620000Y201692D01*
X618991Y202701D01*
X617509Y203557D01*
X615856Y204000D01*
X614144D01*
X612491Y203557D01*
X611009Y202701D01*
X609799Y201491D01*
X608943Y200009D01*
X608500Y198356D01*
Y196644D01*
X608943Y194991D01*
X609799Y193509D01*
X611009Y192299D01*
X612491Y191443D01*
X614144Y191000D01*
X615856D01*
X617509Y191443D01*
X618991Y192299D01*
X620000Y193308D01*
X621009Y192299D01*
X622491Y191443D01*
X624144Y191000D01*
X625856D01*
X627509Y191443D01*
X628991Y192299D01*
X630000Y193308D01*
X631009Y192299D01*
X632491Y191443D01*
X634144Y191000D01*
X635856D01*
X637509Y191443D01*
X638991Y192299D01*
X640000Y193308D01*
X641009Y192299D01*
X642491Y191443D01*
X644144Y191000D01*
X645856D01*
X647509Y191443D01*
X648991Y192299D01*
X650201Y193509D01*
X651057Y194991D01*
X651500Y196644D01*
Y198356D01*
X651057Y200009D01*
X650201Y201491D01*
X648991Y202701D01*
X647509Y203557D01*
X645856Y204000D01*
D02*
G37*
G36*
X1593356Y196500D02*
X1591644D01*
X1589991Y196057D01*
X1588509Y195201D01*
X1587299Y193991D01*
X1586443Y192509D01*
X1586000Y190856D01*
Y190202D01*
X1585992Y190139D01*
X1584634Y189480D01*
X1584044Y189833D01*
X1584000Y190202D01*
Y190856D01*
X1583557Y192509D01*
X1582701Y193991D01*
X1581491Y195201D01*
X1580009Y196057D01*
X1578356Y196500D01*
X1576644D01*
X1574991Y196057D01*
X1573509Y195201D01*
X1572299Y193991D01*
X1571443Y192509D01*
X1571000Y190856D01*
Y189144D01*
X1571443Y187491D01*
X1572159Y186250D01*
X1571443Y185009D01*
X1571000Y183356D01*
Y181644D01*
X1571443Y179991D01*
X1572159Y178750D01*
X1571443Y177509D01*
X1571000Y175856D01*
Y174144D01*
X1571443Y172491D01*
X1572299Y171009D01*
X1573509Y169799D01*
X1574991Y168943D01*
X1576644Y168500D01*
X1578356D01*
X1580009Y168943D01*
X1581491Y169799D01*
X1582701Y171009D01*
X1583557Y172491D01*
X1584000Y174144D01*
Y174797D01*
X1584044Y175167D01*
X1584634Y175520D01*
X1585992Y174861D01*
X1586000Y174797D01*
Y174144D01*
X1586443Y172491D01*
X1587299Y171009D01*
X1588509Y169799D01*
X1589991Y168943D01*
X1591644Y168500D01*
X1593356D01*
X1595009Y168943D01*
X1596491Y169799D01*
X1597701Y171009D01*
X1598557Y172491D01*
X1599000Y174144D01*
Y175856D01*
X1598557Y177509D01*
X1597841Y178750D01*
X1598557Y179991D01*
X1599000Y181644D01*
Y183356D01*
X1598557Y185009D01*
X1597841Y186250D01*
X1598557Y187491D01*
X1599000Y189144D01*
Y190856D01*
X1598557Y192509D01*
X1597701Y193991D01*
X1596491Y195201D01*
X1595009Y196057D01*
X1593356Y196500D01*
D02*
G37*
G36*
X1193356D02*
X1191644D01*
X1189991Y196057D01*
X1188509Y195201D01*
X1187299Y193991D01*
X1186443Y192509D01*
X1186000Y190856D01*
Y190202D01*
X1185967Y189927D01*
X1185000Y189401D01*
X1184033Y189927D01*
X1184000Y190202D01*
Y190856D01*
X1183557Y192509D01*
X1182701Y193991D01*
X1181491Y195201D01*
X1180009Y196057D01*
X1178356Y196500D01*
X1176644D01*
X1174991Y196057D01*
X1173509Y195201D01*
X1172299Y193991D01*
X1171443Y192509D01*
X1171000Y190856D01*
Y189144D01*
X1171443Y187491D01*
X1172160Y186250D01*
X1171443Y185009D01*
X1171000Y183356D01*
Y181644D01*
X1171443Y179991D01*
X1172160Y178750D01*
X1171443Y177509D01*
X1171000Y175856D01*
Y174144D01*
X1171443Y172491D01*
X1172299Y171009D01*
X1173509Y169799D01*
X1174991Y168943D01*
X1176644Y168500D01*
X1178356D01*
X1180009Y168943D01*
X1181491Y169799D01*
X1182701Y171009D01*
X1183557Y172491D01*
X1184000Y174144D01*
Y174797D01*
X1184033Y175073D01*
X1185000Y175599D01*
X1185967Y175073D01*
X1186000Y174797D01*
Y174144D01*
X1186443Y172491D01*
X1187299Y171009D01*
X1188509Y169799D01*
X1189991Y168943D01*
X1191644Y168500D01*
X1193356D01*
X1195009Y168943D01*
X1196491Y169799D01*
X1197701Y171009D01*
X1198557Y172491D01*
X1199000Y174144D01*
Y175856D01*
X1198557Y177509D01*
X1197840Y178750D01*
X1198557Y179991D01*
X1199000Y181644D01*
Y183356D01*
X1198557Y185009D01*
X1197840Y186250D01*
X1198557Y187491D01*
X1199000Y189144D01*
Y190856D01*
X1198557Y192509D01*
X1197701Y193991D01*
X1196491Y195201D01*
X1195009Y196057D01*
X1193356Y196500D01*
D02*
G37*
G36*
X593356D02*
X591644D01*
X589991Y196057D01*
X588509Y195201D01*
X587299Y193991D01*
X586443Y192509D01*
X586000Y190856D01*
Y190202D01*
X585967Y189927D01*
X585000Y189401D01*
X584033Y189927D01*
X584000Y190202D01*
Y190856D01*
X583557Y192509D01*
X582701Y193991D01*
X581491Y195201D01*
X580009Y196057D01*
X578356Y196500D01*
X576644D01*
X574991Y196057D01*
X573509Y195201D01*
X572299Y193991D01*
X571443Y192509D01*
X571000Y190856D01*
Y189144D01*
X571443Y187491D01*
X572160Y186250D01*
X571443Y185009D01*
X571000Y183356D01*
Y181644D01*
X571443Y179991D01*
X572160Y178750D01*
X571443Y177509D01*
X571000Y175856D01*
Y174144D01*
X571443Y172491D01*
X572299Y171009D01*
X573509Y169799D01*
X574991Y168943D01*
X576644Y168500D01*
X578356D01*
X580009Y168943D01*
X581491Y169799D01*
X582701Y171009D01*
X583557Y172491D01*
X584000Y174144D01*
Y174797D01*
X584033Y175073D01*
X585000Y175599D01*
X585967Y175073D01*
X586000Y174797D01*
Y174144D01*
X586443Y172491D01*
X587299Y171009D01*
X588509Y169799D01*
X589991Y168943D01*
X591644Y168500D01*
X593356D01*
X595009Y168943D01*
X596491Y169799D01*
X597701Y171009D01*
X598557Y172491D01*
X599000Y174144D01*
Y175856D01*
X598557Y177509D01*
X597840Y178750D01*
X598557Y179991D01*
X599000Y181644D01*
Y183356D01*
X598557Y185009D01*
X597840Y186250D01*
X598557Y187491D01*
X599000Y189144D01*
Y190856D01*
X598557Y192509D01*
X597701Y193991D01*
X596491Y195201D01*
X595009Y196057D01*
X593356Y196500D01*
D02*
G37*
G36*
X993356D02*
X991644D01*
X989991Y196057D01*
X988509Y195201D01*
X987299Y193991D01*
X986443Y192509D01*
X986000Y190856D01*
Y190202D01*
X985967Y189927D01*
X985000Y189401D01*
X984033Y189927D01*
X984000Y190202D01*
Y190856D01*
X983557Y192509D01*
X982701Y193991D01*
X981491Y195201D01*
X980009Y196057D01*
X978356Y196500D01*
X976644D01*
X974991Y196057D01*
X973509Y195201D01*
X972299Y193991D01*
X971443Y192509D01*
X971000Y190856D01*
Y189144D01*
X971443Y187491D01*
X972160Y186250D01*
X971443Y185009D01*
X971000Y183356D01*
Y181644D01*
X971443Y179991D01*
X972160Y178750D01*
X971443Y177509D01*
X971000Y175856D01*
Y174144D01*
X971443Y172491D01*
X972299Y171009D01*
X973509Y169799D01*
X974991Y168943D01*
X976644Y168500D01*
X978356D01*
X980009Y168943D01*
X981491Y169799D01*
X982701Y171009D01*
X983557Y172491D01*
X984000Y174144D01*
Y174797D01*
X984033Y175073D01*
X985000Y175599D01*
X985967Y175073D01*
X986000Y174797D01*
Y174144D01*
X986443Y172491D01*
X987299Y171009D01*
X988509Y169799D01*
X989991Y168943D01*
X991644Y168500D01*
X993356D01*
X995009Y168943D01*
X996491Y169799D01*
X997701Y171009D01*
X998557Y172491D01*
X999000Y174144D01*
Y175856D01*
X998557Y177509D01*
X997840Y178750D01*
X998557Y179991D01*
X999000Y181644D01*
Y183356D01*
X998557Y185009D01*
X997840Y186250D01*
X998557Y187491D01*
X999000Y189144D01*
Y190856D01*
X998557Y192509D01*
X997701Y193991D01*
X996491Y195201D01*
X995009Y196057D01*
X993356Y196500D01*
D02*
G37*
G36*
X793356D02*
X791644D01*
X789991Y196057D01*
X788509Y195201D01*
X787299Y193991D01*
X786443Y192509D01*
X786000Y190856D01*
Y190202D01*
X785967Y189927D01*
X785000Y189401D01*
X784033Y189927D01*
X784000Y190202D01*
Y190856D01*
X783557Y192509D01*
X782701Y193991D01*
X781491Y195201D01*
X780009Y196057D01*
X778356Y196500D01*
X776644D01*
X774991Y196057D01*
X773509Y195201D01*
X772299Y193991D01*
X771443Y192509D01*
X771000Y190856D01*
Y189144D01*
X771443Y187491D01*
X772160Y186250D01*
X771443Y185009D01*
X771000Y183356D01*
Y181644D01*
X771443Y179991D01*
X772160Y178750D01*
X771443Y177509D01*
X771000Y175856D01*
Y174144D01*
X771443Y172491D01*
X772299Y171009D01*
X773509Y169799D01*
X774991Y168943D01*
X776644Y168500D01*
X778356D01*
X780009Y168943D01*
X781491Y169799D01*
X782701Y171009D01*
X783557Y172491D01*
X784000Y174144D01*
Y174797D01*
X784033Y175073D01*
X785000Y175599D01*
X785967Y175073D01*
X786000Y174797D01*
Y174144D01*
X786443Y172491D01*
X787299Y171009D01*
X788509Y169799D01*
X789991Y168943D01*
X791644Y168500D01*
X793356D01*
X795009Y168943D01*
X796491Y169799D01*
X797701Y171009D01*
X798557Y172491D01*
X799000Y174144D01*
Y175856D01*
X798557Y177509D01*
X797840Y178750D01*
X798557Y179991D01*
X799000Y181644D01*
Y183356D01*
X798557Y185009D01*
X797840Y186250D01*
X798557Y187491D01*
X799000Y189144D01*
Y190856D01*
X798557Y192509D01*
X797701Y193991D01*
X796491Y195201D01*
X795009Y196057D01*
X793356Y196500D01*
D02*
G37*
G36*
X393356D02*
X391644D01*
X389991Y196057D01*
X388509Y195201D01*
X387299Y193991D01*
X386443Y192509D01*
X386000Y190856D01*
Y190202D01*
X385967Y189927D01*
X385000Y189401D01*
X384033Y189927D01*
X384000Y190202D01*
Y190856D01*
X383557Y192509D01*
X382701Y193991D01*
X381491Y195201D01*
X380009Y196057D01*
X378356Y196500D01*
X376644D01*
X374991Y196057D01*
X373509Y195201D01*
X372299Y193991D01*
X371443Y192509D01*
X371000Y190856D01*
Y189144D01*
X371443Y187491D01*
X372160Y186250D01*
X371443Y185009D01*
X371000Y183356D01*
Y181644D01*
X371443Y179991D01*
X372160Y178750D01*
X371443Y177509D01*
X371000Y175856D01*
Y174144D01*
X371443Y172491D01*
X372299Y171009D01*
X373509Y169799D01*
X374991Y168943D01*
X376644Y168500D01*
X378356D01*
X380009Y168943D01*
X381491Y169799D01*
X382701Y171009D01*
X383557Y172491D01*
X384000Y174144D01*
Y174797D01*
X384033Y175073D01*
X385000Y175599D01*
X385967Y175073D01*
X386000Y174797D01*
Y174144D01*
X386443Y172491D01*
X387299Y171009D01*
X388509Y169799D01*
X389991Y168943D01*
X391644Y168500D01*
X393356D01*
X395009Y168943D01*
X396491Y169799D01*
X397701Y171009D01*
X398557Y172491D01*
X399000Y174144D01*
Y175856D01*
X398557Y177509D01*
X397840Y178750D01*
X398557Y179991D01*
X399000Y181644D01*
Y183356D01*
X398557Y185009D01*
X397840Y186250D01*
X398557Y187491D01*
X399000Y189144D01*
Y190856D01*
X398557Y192509D01*
X397701Y193991D01*
X396491Y195201D01*
X395009Y196057D01*
X393356Y196500D01*
D02*
G37*
G36*
X1393356D02*
X1391644D01*
X1389991Y196057D01*
X1388509Y195201D01*
X1387299Y193991D01*
X1386443Y192509D01*
X1386000Y190856D01*
Y190202D01*
X1385967Y189927D01*
X1385000Y189401D01*
X1384033Y189927D01*
X1384000Y190202D01*
Y190856D01*
X1383557Y192509D01*
X1382701Y193991D01*
X1381491Y195201D01*
X1380009Y196057D01*
X1378356Y196500D01*
X1376644D01*
X1374991Y196057D01*
X1373509Y195201D01*
X1372299Y193991D01*
X1371443Y192509D01*
X1371000Y190856D01*
Y189144D01*
X1371443Y187491D01*
X1372159Y186250D01*
X1371443Y185009D01*
X1371000Y183356D01*
Y181644D01*
X1371443Y179991D01*
X1372159Y178750D01*
X1371443Y177509D01*
X1371000Y175856D01*
Y174144D01*
X1371443Y172491D01*
X1372299Y171009D01*
X1373509Y169799D01*
X1374991Y168943D01*
X1376644Y168500D01*
X1378356D01*
X1380009Y168943D01*
X1381491Y169799D01*
X1382701Y171009D01*
X1383557Y172491D01*
X1384000Y174144D01*
Y174797D01*
X1384044Y175167D01*
X1384634Y175520D01*
X1385992Y174861D01*
X1386000Y174797D01*
Y174144D01*
X1386443Y172491D01*
X1387299Y171009D01*
X1388509Y169799D01*
X1389991Y168943D01*
X1391644Y168500D01*
X1393356D01*
X1395009Y168943D01*
X1396491Y169799D01*
X1397701Y171009D01*
X1398557Y172491D01*
X1399000Y174144D01*
Y175856D01*
X1398557Y177509D01*
X1397841Y178750D01*
X1398557Y179991D01*
X1399000Y181644D01*
Y183356D01*
X1398557Y185009D01*
X1397841Y186250D01*
X1398557Y187491D01*
X1399000Y189144D01*
Y190856D01*
X1398557Y192509D01*
X1397701Y193991D01*
X1396491Y195201D01*
X1395009Y196057D01*
X1393356Y196500D01*
D02*
G37*
G36*
X1645856Y179000D02*
X1644144D01*
X1642491Y178557D01*
X1641009Y177701D01*
X1640000Y176692D01*
X1638991Y177701D01*
X1637509Y178557D01*
X1635856Y179000D01*
X1634144D01*
X1632491Y178557D01*
X1631009Y177701D01*
X1630000Y176692D01*
X1628991Y177701D01*
X1627509Y178557D01*
X1625856Y179000D01*
X1624144D01*
X1622491Y178557D01*
X1621009Y177701D01*
X1620000Y176692D01*
X1618991Y177701D01*
X1617509Y178557D01*
X1615856Y179000D01*
X1614144D01*
X1612491Y178557D01*
X1611009Y177701D01*
X1609799Y176491D01*
X1608943Y175009D01*
X1608500Y173356D01*
Y171644D01*
X1608943Y169991D01*
X1609799Y168509D01*
X1611009Y167299D01*
X1612491Y166443D01*
X1614144Y166000D01*
X1615856D01*
X1617509Y166443D01*
X1618991Y167299D01*
X1620000Y168308D01*
X1621009Y167299D01*
X1622491Y166443D01*
X1624144Y166000D01*
X1625856D01*
X1627509Y166443D01*
X1628991Y167299D01*
X1630000Y168308D01*
X1631009Y167299D01*
X1632491Y166443D01*
X1634144Y166000D01*
X1635856D01*
X1637509Y166443D01*
X1638991Y167299D01*
X1640000Y168308D01*
X1641009Y167299D01*
X1642491Y166443D01*
X1644144Y166000D01*
X1645856D01*
X1647509Y166443D01*
X1648991Y167299D01*
X1650201Y168509D01*
X1651057Y169991D01*
X1651500Y171644D01*
Y173356D01*
X1651057Y175009D01*
X1650201Y176491D01*
X1648991Y177701D01*
X1647509Y178557D01*
X1645856Y179000D01*
D02*
G37*
G36*
X1445856D02*
X1444144D01*
X1442491Y178557D01*
X1441009Y177701D01*
X1440000Y176692D01*
X1438991Y177701D01*
X1437509Y178557D01*
X1435856Y179000D01*
X1434144D01*
X1432491Y178557D01*
X1431009Y177701D01*
X1430000Y176692D01*
X1428991Y177701D01*
X1427509Y178557D01*
X1425856Y179000D01*
X1424144D01*
X1422491Y178557D01*
X1421009Y177701D01*
X1420000Y176692D01*
X1418991Y177701D01*
X1417509Y178557D01*
X1415856Y179000D01*
X1414144D01*
X1412491Y178557D01*
X1411009Y177701D01*
X1409799Y176491D01*
X1408943Y175009D01*
X1408500Y173356D01*
Y171644D01*
X1408943Y169991D01*
X1409799Y168509D01*
X1411009Y167299D01*
X1412491Y166443D01*
X1414144Y166000D01*
X1415856D01*
X1417509Y166443D01*
X1418991Y167299D01*
X1420000Y168308D01*
X1421009Y167299D01*
X1422491Y166443D01*
X1424144Y166000D01*
X1425856D01*
X1427509Y166443D01*
X1428991Y167299D01*
X1430000Y168308D01*
X1431009Y167299D01*
X1432491Y166443D01*
X1434144Y166000D01*
X1435856D01*
X1437509Y166443D01*
X1438991Y167299D01*
X1440000Y168308D01*
X1441009Y167299D01*
X1442491Y166443D01*
X1444144Y166000D01*
X1445856D01*
X1447509Y166443D01*
X1448991Y167299D01*
X1450201Y168509D01*
X1451057Y169991D01*
X1451500Y171644D01*
Y173356D01*
X1451057Y175009D01*
X1450201Y176491D01*
X1448991Y177701D01*
X1447509Y178557D01*
X1445856Y179000D01*
D02*
G37*
G36*
X1245856D02*
X1244144D01*
X1242491Y178557D01*
X1241009Y177701D01*
X1240000Y176692D01*
X1238991Y177701D01*
X1237509Y178557D01*
X1235856Y179000D01*
X1234144D01*
X1232491Y178557D01*
X1231009Y177701D01*
X1230000Y176692D01*
X1228991Y177701D01*
X1227509Y178557D01*
X1225856Y179000D01*
X1224144D01*
X1222491Y178557D01*
X1221009Y177701D01*
X1220000Y176692D01*
X1218991Y177701D01*
X1217509Y178557D01*
X1215856Y179000D01*
X1214144D01*
X1212491Y178557D01*
X1211009Y177701D01*
X1209799Y176491D01*
X1208943Y175009D01*
X1208500Y173356D01*
Y171644D01*
X1208943Y169991D01*
X1209799Y168509D01*
X1211009Y167299D01*
X1212491Y166443D01*
X1214144Y166000D01*
X1215856D01*
X1217509Y166443D01*
X1218991Y167299D01*
X1220000Y168308D01*
X1221009Y167299D01*
X1222491Y166443D01*
X1224144Y166000D01*
X1225856D01*
X1227509Y166443D01*
X1228991Y167299D01*
X1230000Y168308D01*
X1231009Y167299D01*
X1232491Y166443D01*
X1234144Y166000D01*
X1235856D01*
X1237509Y166443D01*
X1238991Y167299D01*
X1240000Y168308D01*
X1241009Y167299D01*
X1242491Y166443D01*
X1244144Y166000D01*
X1245856D01*
X1247509Y166443D01*
X1248991Y167299D01*
X1250201Y168509D01*
X1251057Y169991D01*
X1251500Y171644D01*
Y173356D01*
X1251057Y175009D01*
X1250201Y176491D01*
X1248991Y177701D01*
X1247509Y178557D01*
X1245856Y179000D01*
D02*
G37*
G36*
X1045856D02*
X1044144D01*
X1042491Y178557D01*
X1041009Y177701D01*
X1040000Y176692D01*
X1038991Y177701D01*
X1037509Y178557D01*
X1035856Y179000D01*
X1034144D01*
X1032491Y178557D01*
X1031009Y177701D01*
X1030000Y176692D01*
X1028991Y177701D01*
X1027509Y178557D01*
X1025856Y179000D01*
X1024144D01*
X1022491Y178557D01*
X1021009Y177701D01*
X1020000Y176692D01*
X1018991Y177701D01*
X1017509Y178557D01*
X1015856Y179000D01*
X1014144D01*
X1012491Y178557D01*
X1011009Y177701D01*
X1009799Y176491D01*
X1008943Y175009D01*
X1008500Y173356D01*
Y171644D01*
X1008943Y169991D01*
X1009799Y168509D01*
X1011009Y167299D01*
X1012491Y166443D01*
X1014144Y166000D01*
X1015856D01*
X1017509Y166443D01*
X1018991Y167299D01*
X1020000Y168308D01*
X1021009Y167299D01*
X1022491Y166443D01*
X1024144Y166000D01*
X1025856D01*
X1027509Y166443D01*
X1028991Y167299D01*
X1030000Y168308D01*
X1031009Y167299D01*
X1032491Y166443D01*
X1034144Y166000D01*
X1035856D01*
X1037509Y166443D01*
X1038991Y167299D01*
X1040000Y168308D01*
X1041009Y167299D01*
X1042491Y166443D01*
X1044144Y166000D01*
X1045856D01*
X1047509Y166443D01*
X1048991Y167299D01*
X1050201Y168509D01*
X1051057Y169991D01*
X1051500Y171644D01*
Y173356D01*
X1051057Y175009D01*
X1050201Y176491D01*
X1048991Y177701D01*
X1047509Y178557D01*
X1045856Y179000D01*
D02*
G37*
G36*
X845856D02*
X844144D01*
X842491Y178557D01*
X841009Y177701D01*
X840000Y176692D01*
X838991Y177701D01*
X837509Y178557D01*
X835856Y179000D01*
X834144D01*
X832491Y178557D01*
X831009Y177701D01*
X830000Y176692D01*
X828991Y177701D01*
X827509Y178557D01*
X825856Y179000D01*
X824144D01*
X822491Y178557D01*
X821009Y177701D01*
X820000Y176692D01*
X818991Y177701D01*
X817509Y178557D01*
X815856Y179000D01*
X814144D01*
X812491Y178557D01*
X811009Y177701D01*
X809799Y176491D01*
X808943Y175009D01*
X808500Y173356D01*
Y171644D01*
X808943Y169991D01*
X809799Y168509D01*
X811009Y167299D01*
X812491Y166443D01*
X814144Y166000D01*
X815856D01*
X817509Y166443D01*
X818991Y167299D01*
X820000Y168308D01*
X821009Y167299D01*
X822491Y166443D01*
X824144Y166000D01*
X825856D01*
X827509Y166443D01*
X828991Y167299D01*
X830000Y168308D01*
X831009Y167299D01*
X832491Y166443D01*
X834144Y166000D01*
X835856D01*
X837509Y166443D01*
X838991Y167299D01*
X840000Y168308D01*
X841009Y167299D01*
X842491Y166443D01*
X844144Y166000D01*
X845856D01*
X847509Y166443D01*
X848991Y167299D01*
X850201Y168509D01*
X851057Y169991D01*
X851500Y171644D01*
Y173356D01*
X851057Y175009D01*
X850201Y176491D01*
X848991Y177701D01*
X847509Y178557D01*
X845856Y179000D01*
D02*
G37*
G36*
X645856D02*
X644144D01*
X642491Y178557D01*
X641009Y177701D01*
X640000Y176692D01*
X638991Y177701D01*
X637509Y178557D01*
X635856Y179000D01*
X634144D01*
X632491Y178557D01*
X631009Y177701D01*
X630000Y176692D01*
X628991Y177701D01*
X627509Y178557D01*
X625856Y179000D01*
X624144D01*
X622491Y178557D01*
X621009Y177701D01*
X620000Y176692D01*
X618991Y177701D01*
X617509Y178557D01*
X615856Y179000D01*
X614144D01*
X612491Y178557D01*
X611009Y177701D01*
X609799Y176491D01*
X608943Y175009D01*
X608500Y173356D01*
Y171644D01*
X608943Y169991D01*
X609799Y168509D01*
X611009Y167299D01*
X612491Y166443D01*
X614144Y166000D01*
X615856D01*
X617509Y166443D01*
X618991Y167299D01*
X620000Y168308D01*
X621009Y167299D01*
X622491Y166443D01*
X624144Y166000D01*
X625856D01*
X627509Y166443D01*
X628991Y167299D01*
X630000Y168308D01*
X631009Y167299D01*
X632491Y166443D01*
X634144Y166000D01*
X635856D01*
X637509Y166443D01*
X638991Y167299D01*
X640000Y168308D01*
X641009Y167299D01*
X642491Y166443D01*
X644144Y166000D01*
X645856D01*
X647509Y166443D01*
X648991Y167299D01*
X650201Y168509D01*
X651057Y169991D01*
X651500Y171644D01*
Y173356D01*
X651057Y175009D01*
X650201Y176491D01*
X648991Y177701D01*
X647509Y178557D01*
X645856Y179000D01*
D02*
G37*
G36*
X1525856Y194000D02*
X1524144D01*
X1522491Y193557D01*
X1521009Y192701D01*
X1519799Y191491D01*
X1518943Y190009D01*
X1518500Y188356D01*
Y186644D01*
X1518943Y184991D01*
X1519799Y183509D01*
X1521009Y182299D01*
X1522491Y181443D01*
X1524144Y181000D01*
X1525856D01*
X1527333Y181396D01*
X1527521Y181436D01*
X1528754Y180695D01*
X1528943Y179991D01*
X1529799Y178509D01*
X1531009Y177299D01*
X1532491Y176443D01*
X1534144Y176000D01*
X1535856D01*
X1537509Y176443D01*
X1538991Y177299D01*
X1540201Y178509D01*
X1541057Y179991D01*
X1541500Y181644D01*
Y183356D01*
X1541057Y185009D01*
X1540201Y186491D01*
X1538991Y187701D01*
X1537509Y188557D01*
X1535856Y189000D01*
X1534144D01*
X1532667Y188604D01*
X1532479Y188564D01*
X1531246Y189305D01*
X1531057Y190009D01*
X1530201Y191491D01*
X1528991Y192701D01*
X1527509Y193557D01*
X1525856Y194000D01*
D02*
G37*
G36*
X448170Y176686D02*
X446458D01*
X444805Y176243D01*
X443323Y175387D01*
X442113Y174177D01*
X441836Y173699D01*
X440370D01*
X440201Y173991D01*
X438991Y175201D01*
X437509Y176057D01*
X435856Y176500D01*
X434144D01*
X432491Y176057D01*
X431009Y175201D01*
X430000Y174192D01*
X428991Y175201D01*
X427509Y176057D01*
X425856Y176500D01*
X424144D01*
X422491Y176057D01*
X421009Y175201D01*
X419799Y173991D01*
X419483Y173445D01*
X418017D01*
X417701Y173991D01*
X416491Y175201D01*
X415009Y176057D01*
X413356Y176500D01*
X411644D01*
X409991Y176057D01*
X408509Y175201D01*
X407299Y173991D01*
X406443Y172509D01*
X406000Y170856D01*
Y169144D01*
X406443Y167491D01*
X407299Y166009D01*
X408509Y164799D01*
X409991Y163943D01*
X411644Y163500D01*
X413356D01*
X415009Y163943D01*
X416491Y164799D01*
X417701Y166009D01*
X418017Y166555D01*
X419483D01*
X419799Y166009D01*
X421009Y164799D01*
X422491Y163943D01*
X424144Y163500D01*
X425856D01*
X427509Y163943D01*
X428991Y164799D01*
X430000Y165808D01*
X431009Y164799D01*
X432491Y163943D01*
X434144Y163500D01*
X435856D01*
X437509Y163943D01*
X438991Y164799D01*
X440201Y166009D01*
X440477Y166487D01*
X441944D01*
X442113Y166195D01*
X443323Y164985D01*
X444805Y164129D01*
X446458Y163686D01*
X448170D01*
X449823Y164129D01*
X451305Y164985D01*
X452515Y166195D01*
X453371Y167677D01*
X453814Y169330D01*
Y171042D01*
X453371Y172695D01*
X452515Y174177D01*
X451305Y175387D01*
X449823Y176243D01*
X448170Y176686D01*
D02*
G37*
G36*
X1573356Y146500D02*
X1571644D01*
X1569991Y146057D01*
X1568509Y145201D01*
X1567299Y143991D01*
X1566443Y142509D01*
X1566000Y140856D01*
Y139144D01*
X1566443Y137491D01*
X1567299Y136009D01*
X1568509Y134799D01*
X1569991Y133943D01*
X1571644Y133500D01*
X1573356D01*
X1575009Y133943D01*
X1576491Y134799D01*
X1577701Y136009D01*
X1578557Y137491D01*
X1579000Y139144D01*
Y140856D01*
X1578557Y142509D01*
X1577701Y143991D01*
X1576491Y145201D01*
X1575009Y146057D01*
X1573356Y146500D01*
D02*
G37*
G36*
X1173356D02*
X1171644D01*
X1169991Y146057D01*
X1168509Y145201D01*
X1167299Y143991D01*
X1166443Y142509D01*
X1166000Y140856D01*
Y139144D01*
X1166443Y137491D01*
X1167299Y136009D01*
X1168509Y134799D01*
X1169991Y133943D01*
X1171644Y133500D01*
X1173356D01*
X1175009Y133943D01*
X1176491Y134799D01*
X1177701Y136009D01*
X1178557Y137491D01*
X1179000Y139144D01*
Y140856D01*
X1178557Y142509D01*
X1177701Y143991D01*
X1176491Y145201D01*
X1175009Y146057D01*
X1173356Y146500D01*
D02*
G37*
G36*
X973356D02*
X971644D01*
X969991Y146057D01*
X968509Y145201D01*
X967299Y143991D01*
X966443Y142509D01*
X966000Y140856D01*
Y139144D01*
X966443Y137491D01*
X967299Y136009D01*
X968509Y134799D01*
X969991Y133943D01*
X971644Y133500D01*
X973356D01*
X975009Y133943D01*
X976491Y134799D01*
X977701Y136009D01*
X978557Y137491D01*
X979000Y139144D01*
Y140856D01*
X978557Y142509D01*
X977701Y143991D01*
X976491Y145201D01*
X975009Y146057D01*
X973356Y146500D01*
D02*
G37*
G36*
X773356D02*
X771644D01*
X769991Y146057D01*
X768509Y145201D01*
X767299Y143991D01*
X766443Y142509D01*
X766000Y140856D01*
Y139144D01*
X766443Y137491D01*
X767299Y136009D01*
X768509Y134799D01*
X769991Y133943D01*
X771644Y133500D01*
X773356D01*
X775009Y133943D01*
X776491Y134799D01*
X777701Y136009D01*
X778557Y137491D01*
X779000Y139144D01*
Y140856D01*
X778557Y142509D01*
X777701Y143991D01*
X776491Y145201D01*
X775009Y146057D01*
X773356Y146500D01*
D02*
G37*
G36*
X573356D02*
X571644D01*
X569991Y146057D01*
X568509Y145201D01*
X567299Y143991D01*
X566443Y142509D01*
X566000Y140856D01*
Y139144D01*
X566443Y137491D01*
X567299Y136009D01*
X568509Y134799D01*
X569991Y133943D01*
X571644Y133500D01*
X573356D01*
X575009Y133943D01*
X576491Y134799D01*
X577701Y136009D01*
X578557Y137491D01*
X579000Y139144D01*
Y140856D01*
X578557Y142509D01*
X577701Y143991D01*
X576491Y145201D01*
X575009Y146057D01*
X573356Y146500D01*
D02*
G37*
G36*
X373356D02*
X371644D01*
X369991Y146057D01*
X368509Y145201D01*
X367299Y143991D01*
X366443Y142509D01*
X366000Y140856D01*
Y139144D01*
X366443Y137491D01*
X367299Y136009D01*
X368509Y134799D01*
X369991Y133943D01*
X371644Y133500D01*
X373356D01*
X375009Y133943D01*
X376491Y134799D01*
X377701Y136009D01*
X378557Y137491D01*
X379000Y139144D01*
Y140856D01*
X378557Y142509D01*
X377701Y143991D01*
X376491Y145201D01*
X375009Y146057D01*
X373356Y146500D01*
D02*
G37*
G36*
X1643356Y134000D02*
X1641644D01*
X1639991Y133557D01*
X1638509Y132701D01*
X1637299Y131491D01*
X1636443Y130009D01*
X1636000Y128356D01*
Y126644D01*
X1636443Y124991D01*
X1637299Y123509D01*
X1638509Y122299D01*
X1639991Y121443D01*
X1641644Y121000D01*
X1643356D01*
X1645009Y121443D01*
X1646491Y122299D01*
X1647701Y123509D01*
X1648557Y124991D01*
X1649000Y126644D01*
Y128356D01*
X1648557Y130009D01*
X1647701Y131491D01*
X1646491Y132701D01*
X1645009Y133557D01*
X1643356Y134000D01*
D02*
G37*
G36*
X1243356D02*
X1241644D01*
X1239991Y133557D01*
X1238509Y132701D01*
X1237299Y131491D01*
X1236443Y130009D01*
X1236000Y128356D01*
Y126644D01*
X1236443Y124991D01*
X1237299Y123509D01*
X1238509Y122299D01*
X1239991Y121443D01*
X1241644Y121000D01*
X1243356D01*
X1245009Y121443D01*
X1246491Y122299D01*
X1247701Y123509D01*
X1248557Y124991D01*
X1249000Y126644D01*
Y128356D01*
X1248557Y130009D01*
X1247701Y131491D01*
X1246491Y132701D01*
X1245009Y133557D01*
X1243356Y134000D01*
D02*
G37*
G36*
X1043356D02*
X1041644D01*
X1039991Y133557D01*
X1038509Y132701D01*
X1037299Y131491D01*
X1036443Y130009D01*
X1036000Y128356D01*
Y126644D01*
X1036443Y124991D01*
X1037299Y123509D01*
X1038509Y122299D01*
X1039991Y121443D01*
X1041644Y121000D01*
X1043356D01*
X1045009Y121443D01*
X1046491Y122299D01*
X1047701Y123509D01*
X1048557Y124991D01*
X1049000Y126644D01*
Y128356D01*
X1048557Y130009D01*
X1047701Y131491D01*
X1046491Y132701D01*
X1045009Y133557D01*
X1043356Y134000D01*
D02*
G37*
G36*
X843356D02*
X841644D01*
X839991Y133557D01*
X838509Y132701D01*
X837299Y131491D01*
X836443Y130009D01*
X836000Y128356D01*
Y126644D01*
X836443Y124991D01*
X837299Y123509D01*
X838509Y122299D01*
X839991Y121443D01*
X841644Y121000D01*
X843356D01*
X845009Y121443D01*
X846491Y122299D01*
X847701Y123509D01*
X848557Y124991D01*
X849000Y126644D01*
Y128356D01*
X848557Y130009D01*
X847701Y131491D01*
X846491Y132701D01*
X845009Y133557D01*
X843356Y134000D01*
D02*
G37*
G36*
X643356D02*
X641644D01*
X639991Y133557D01*
X638509Y132701D01*
X637299Y131491D01*
X636443Y130009D01*
X636000Y128356D01*
Y126644D01*
X636443Y124991D01*
X637299Y123509D01*
X638509Y122299D01*
X639991Y121443D01*
X641644Y121000D01*
X643356D01*
X645009Y121443D01*
X646491Y122299D01*
X647701Y123509D01*
X648557Y124991D01*
X649000Y126644D01*
Y128356D01*
X648557Y130009D01*
X647701Y131491D01*
X646491Y132701D01*
X645009Y133557D01*
X643356Y134000D01*
D02*
G37*
G36*
X443356D02*
X441644D01*
X439991Y133557D01*
X438509Y132701D01*
X437299Y131491D01*
X436443Y130009D01*
X436000Y128356D01*
Y126644D01*
X436443Y124991D01*
X437299Y123509D01*
X438509Y122299D01*
X439991Y121443D01*
X441644Y121000D01*
X443356D01*
X445009Y121443D01*
X446491Y122299D01*
X447701Y123509D01*
X448557Y124991D01*
X449000Y126644D01*
Y128356D01*
X448557Y130009D01*
X447701Y131491D01*
X446491Y132701D01*
X445009Y133557D01*
X443356Y134000D01*
D02*
G37*
G36*
X1610000Y125000D02*
X1560000D01*
Y100000D01*
X1610000D01*
Y125000D01*
D02*
G37*
G36*
X1410000D02*
X1360000D01*
Y100000D01*
X1410000D01*
Y125000D01*
D02*
G37*
G36*
X1210000D02*
X1160000D01*
Y100000D01*
X1210000D01*
Y125000D01*
D02*
G37*
G36*
X1010000D02*
X960000D01*
Y100000D01*
X1010000D01*
Y125000D01*
D02*
G37*
G36*
X810000D02*
X760000D01*
Y100000D01*
X810000D01*
Y125000D01*
D02*
G37*
G36*
X610000D02*
X560000D01*
Y100000D01*
X610000D01*
Y125000D01*
D02*
G37*
G36*
X410000D02*
X360000D01*
Y100000D01*
X410000D01*
Y125000D01*
D02*
G37*
G36*
X1511466Y80596D02*
X1509334D01*
X1507275Y80044D01*
X1505429Y78978D01*
X1503922Y77471D01*
X1502856Y75625D01*
X1502304Y73566D01*
Y71434D01*
X1502856Y69375D01*
X1503922Y67529D01*
X1505429Y66022D01*
X1507275Y64956D01*
X1509334Y64404D01*
X1511466D01*
X1513525Y64956D01*
X1515371Y66022D01*
X1516878Y67529D01*
X1517944Y69375D01*
X1518496Y71434D01*
Y73566D01*
X1517944Y75625D01*
X1516878Y77471D01*
X1515371Y78978D01*
X1513525Y80044D01*
X1511466Y80596D01*
D02*
G37*
G36*
X1486066D02*
X1483934D01*
X1481875Y80044D01*
X1480029Y78978D01*
X1478522Y77471D01*
X1477456Y75625D01*
X1476904Y73566D01*
Y71434D01*
X1477456Y69375D01*
X1478522Y67529D01*
X1480029Y66022D01*
X1481875Y64956D01*
X1483934Y64404D01*
X1486066D01*
X1488125Y64956D01*
X1489971Y66022D01*
X1491478Y67529D01*
X1492544Y69375D01*
X1493096Y71434D01*
Y73566D01*
X1492544Y75625D01*
X1491478Y77471D01*
X1489971Y78978D01*
X1488125Y80044D01*
X1486066Y80596D01*
D02*
G37*
G36*
X1311466D02*
X1309334D01*
X1307275Y80044D01*
X1305429Y78978D01*
X1303922Y77471D01*
X1302856Y75625D01*
X1302304Y73566D01*
Y71434D01*
X1302856Y69375D01*
X1303922Y67529D01*
X1305429Y66022D01*
X1307275Y64956D01*
X1309334Y64404D01*
X1311466D01*
X1313525Y64956D01*
X1315371Y66022D01*
X1316878Y67529D01*
X1317944Y69375D01*
X1318496Y71434D01*
Y73566D01*
X1317944Y75625D01*
X1316878Y77471D01*
X1315371Y78978D01*
X1313525Y80044D01*
X1311466Y80596D01*
D02*
G37*
G36*
X1286066D02*
X1283934D01*
X1281875Y80044D01*
X1280029Y78978D01*
X1278522Y77471D01*
X1277456Y75625D01*
X1276904Y73566D01*
Y71434D01*
X1277456Y69375D01*
X1278522Y67529D01*
X1280029Y66022D01*
X1281875Y64956D01*
X1283934Y64404D01*
X1286066D01*
X1288125Y64956D01*
X1289971Y66022D01*
X1291478Y67529D01*
X1292544Y69375D01*
X1293096Y71434D01*
Y73566D01*
X1292544Y75625D01*
X1291478Y77471D01*
X1289971Y78978D01*
X1288125Y80044D01*
X1286066Y80596D01*
D02*
G37*
G36*
X1111466D02*
X1109334D01*
X1107275Y80044D01*
X1105429Y78978D01*
X1103922Y77471D01*
X1102856Y75625D01*
X1102304Y73566D01*
Y71434D01*
X1102856Y69375D01*
X1103922Y67529D01*
X1105429Y66022D01*
X1107275Y64956D01*
X1109334Y64404D01*
X1111466D01*
X1113525Y64956D01*
X1115371Y66022D01*
X1116878Y67529D01*
X1117944Y69375D01*
X1118496Y71434D01*
Y73566D01*
X1117944Y75625D01*
X1116878Y77471D01*
X1115371Y78978D01*
X1113525Y80044D01*
X1111466Y80596D01*
D02*
G37*
G36*
X1086066D02*
X1083934D01*
X1081875Y80044D01*
X1080029Y78978D01*
X1078522Y77471D01*
X1077456Y75625D01*
X1076904Y73566D01*
Y71434D01*
X1077456Y69375D01*
X1078522Y67529D01*
X1080029Y66022D01*
X1081875Y64956D01*
X1083934Y64404D01*
X1086066D01*
X1088125Y64956D01*
X1089971Y66022D01*
X1091478Y67529D01*
X1092544Y69375D01*
X1093096Y71434D01*
Y73566D01*
X1092544Y75625D01*
X1091478Y77471D01*
X1089971Y78978D01*
X1088125Y80044D01*
X1086066Y80596D01*
D02*
G37*
G36*
X911466D02*
X909334D01*
X907275Y80044D01*
X905429Y78978D01*
X903922Y77471D01*
X902856Y75625D01*
X902304Y73566D01*
Y71434D01*
X902856Y69375D01*
X903922Y67529D01*
X905429Y66022D01*
X907275Y64956D01*
X909334Y64404D01*
X911466D01*
X913525Y64956D01*
X915371Y66022D01*
X916878Y67529D01*
X917944Y69375D01*
X918496Y71434D01*
Y73566D01*
X917944Y75625D01*
X916878Y77471D01*
X915371Y78978D01*
X913525Y80044D01*
X911466Y80596D01*
D02*
G37*
G36*
X886066D02*
X883934D01*
X881875Y80044D01*
X880029Y78978D01*
X878522Y77471D01*
X877456Y75625D01*
X876904Y73566D01*
Y71434D01*
X877456Y69375D01*
X878522Y67529D01*
X880029Y66022D01*
X881875Y64956D01*
X883934Y64404D01*
X886066D01*
X888125Y64956D01*
X889971Y66022D01*
X891478Y67529D01*
X892544Y69375D01*
X893096Y71434D01*
Y73566D01*
X892544Y75625D01*
X891478Y77471D01*
X889971Y78978D01*
X888125Y80044D01*
X886066Y80596D01*
D02*
G37*
G36*
X711466D02*
X709334D01*
X707275Y80044D01*
X705429Y78978D01*
X703922Y77471D01*
X702856Y75625D01*
X702304Y73566D01*
Y71434D01*
X702856Y69375D01*
X703922Y67529D01*
X705429Y66022D01*
X707275Y64956D01*
X709334Y64404D01*
X711466D01*
X713525Y64956D01*
X715371Y66022D01*
X716878Y67529D01*
X717944Y69375D01*
X718496Y71434D01*
Y73566D01*
X717944Y75625D01*
X716878Y77471D01*
X715371Y78978D01*
X713525Y80044D01*
X711466Y80596D01*
D02*
G37*
G36*
X686066D02*
X683934D01*
X681875Y80044D01*
X680029Y78978D01*
X678522Y77471D01*
X677456Y75625D01*
X676904Y73566D01*
Y71434D01*
X677456Y69375D01*
X678522Y67529D01*
X680029Y66022D01*
X681875Y64956D01*
X683934Y64404D01*
X686066D01*
X688125Y64956D01*
X689971Y66022D01*
X691478Y67529D01*
X692544Y69375D01*
X693096Y71434D01*
Y73566D01*
X692544Y75625D01*
X691478Y77471D01*
X689971Y78978D01*
X688125Y80044D01*
X686066Y80596D01*
D02*
G37*
G36*
X511466D02*
X509334D01*
X507275Y80044D01*
X505429Y78978D01*
X503922Y77471D01*
X502856Y75625D01*
X502304Y73566D01*
Y71434D01*
X502856Y69375D01*
X503922Y67529D01*
X505429Y66022D01*
X507275Y64956D01*
X509334Y64404D01*
X511466D01*
X513525Y64956D01*
X515371Y66022D01*
X516878Y67529D01*
X517944Y69375D01*
X518496Y71434D01*
Y73566D01*
X517944Y75625D01*
X516878Y77471D01*
X515371Y78978D01*
X513525Y80044D01*
X511466Y80596D01*
D02*
G37*
G36*
X486066D02*
X483934D01*
X481875Y80044D01*
X480029Y78978D01*
X478522Y77471D01*
X477456Y75625D01*
X476904Y73566D01*
Y71434D01*
X477456Y69375D01*
X478522Y67529D01*
X480029Y66022D01*
X481875Y64956D01*
X483934Y64404D01*
X486066D01*
X488125Y64956D01*
X489971Y66022D01*
X491478Y67529D01*
X492544Y69375D01*
X493096Y71434D01*
Y73566D01*
X492544Y75625D01*
X491478Y77471D01*
X489971Y78978D01*
X488125Y80044D01*
X486066Y80596D01*
D02*
G37*
G36*
X311466D02*
X309334D01*
X307275Y80044D01*
X305429Y78978D01*
X303922Y77471D01*
X302856Y75625D01*
X302304Y73566D01*
Y71434D01*
X302856Y69375D01*
X303922Y67529D01*
X305429Y66022D01*
X307275Y64956D01*
X309334Y64404D01*
X311466D01*
X313525Y64956D01*
X315371Y66022D01*
X316878Y67529D01*
X317944Y69375D01*
X318496Y71434D01*
Y73566D01*
X317944Y75625D01*
X316878Y77471D01*
X315371Y78978D01*
X313525Y80044D01*
X311466Y80596D01*
D02*
G37*
G36*
X286066D02*
X283934D01*
X281875Y80044D01*
X280029Y78978D01*
X278522Y77471D01*
X277456Y75625D01*
X276904Y73566D01*
Y71434D01*
X277456Y69375D01*
X278522Y67529D01*
X280029Y66022D01*
X281875Y64956D01*
X283934Y64404D01*
X286066D01*
X288125Y64956D01*
X289971Y66022D01*
X291478Y67529D01*
X292544Y69375D01*
X293096Y71434D01*
Y73566D01*
X292544Y75625D01*
X291478Y77471D01*
X289971Y78978D01*
X288125Y80044D01*
X286066Y80596D01*
D02*
G37*
G36*
X1641500Y102000D02*
X1622500D01*
Y63000D01*
X1641500D01*
Y102000D01*
D02*
G37*
G36*
X1441500D02*
X1422500D01*
Y63000D01*
X1441500D01*
Y102000D01*
D02*
G37*
G36*
X1241500D02*
X1222500D01*
Y63000D01*
X1241500D01*
Y102000D01*
D02*
G37*
G36*
X1041500D02*
X1022500D01*
Y63000D01*
X1041500D01*
Y102000D01*
D02*
G37*
G36*
X841500D02*
X822500D01*
Y63000D01*
X841500D01*
Y102000D01*
D02*
G37*
G36*
X641500D02*
X622500D01*
Y63000D01*
X641500D01*
Y102000D01*
D02*
G37*
G36*
X441500D02*
X422500D01*
Y63000D01*
X441500D01*
Y102000D01*
D02*
G37*
G36*
X1604500Y62000D02*
X1565500D01*
Y43000D01*
X1604500D01*
Y62000D01*
D02*
G37*
G36*
X1404500D02*
X1365500D01*
Y43000D01*
X1404500D01*
Y62000D01*
D02*
G37*
G36*
X1204500D02*
X1165500D01*
Y43000D01*
X1204500D01*
Y62000D01*
D02*
G37*
G36*
X1004500D02*
X965500D01*
Y43000D01*
X1004500D01*
Y62000D01*
D02*
G37*
G36*
X804500D02*
X765500D01*
Y43000D01*
X804500D01*
Y62000D01*
D02*
G37*
G36*
X604500D02*
X565500D01*
Y43000D01*
X604500D01*
Y62000D01*
D02*
G37*
G36*
X404500D02*
X365500D01*
Y43000D01*
X404500D01*
Y62000D01*
D02*
G37*
%LPD*%
G36*
X1220493Y370180D02*
X1282597Y308076D01*
X1281719Y307159D01*
X1219149Y364458D01*
X1218883Y364619D01*
X1216314Y366872D01*
X1211654Y369986D01*
X1211624Y370000D01*
X1211987Y371217D01*
X1220493Y370180D01*
D02*
G37*
%LPC*%
G36*
X833356Y499000D02*
X831644D01*
X829991Y498557D01*
X828509Y497701D01*
X827299Y496491D01*
X826443Y495009D01*
X826000Y493356D01*
Y491644D01*
X826443Y489991D01*
X827299Y488509D01*
X828308Y487500D01*
X827299Y486491D01*
X826443Y485009D01*
X826000Y483356D01*
Y481644D01*
X826443Y479991D01*
X827299Y478509D01*
X828308Y477500D01*
X827299Y476491D01*
X826443Y475009D01*
X826000Y473356D01*
Y471644D01*
X826443Y469991D01*
X827299Y468509D01*
X828308Y467500D01*
X827299Y466491D01*
X826443Y465009D01*
X826000Y463356D01*
Y461644D01*
X826443Y459991D01*
X827299Y458509D01*
X828509Y457299D01*
X829991Y456443D01*
X831644Y456000D01*
X833356D01*
X835009Y456443D01*
X836491Y457299D01*
X837701Y458509D01*
X838557Y459991D01*
X839000Y461644D01*
Y463356D01*
X838557Y465009D01*
X837701Y466491D01*
X836692Y467500D01*
X837701Y468509D01*
X838557Y469991D01*
X839000Y471644D01*
Y473356D01*
X838557Y475009D01*
X837701Y476491D01*
X836692Y477500D01*
X837701Y478509D01*
X838557Y479991D01*
X839000Y481644D01*
Y483356D01*
X838557Y485009D01*
X837701Y486491D01*
X836692Y487500D01*
X837701Y488509D01*
X838557Y489991D01*
X839000Y491644D01*
Y493356D01*
X838557Y495009D01*
X837701Y496491D01*
X836491Y497701D01*
X835009Y498557D01*
X833356Y499000D01*
D02*
G37*
%LPD*%
D12*
X1175418Y369745D02*
G03*
X1172838Y368963I4582J-19745D01*
G01*
X1216897Y361999D02*
G03*
X1177261Y370173I-26666J-29119D01*
G01*
X1195612Y376574D02*
G03*
X1181241Y375976I-5381J-43694D01*
G01*
X806770Y333230D02*
X928644Y211356D01*
Y165609D02*
Y211356D01*
X925000Y135000D02*
Y161965D01*
X928644Y165609D01*
X527500Y455000D02*
X772500D01*
X337500Y265000D02*
X527500Y455000D01*
X1333770Y208713D02*
X1378600Y132701D01*
X1430171D02*
X1442872Y120000D01*
X1378600Y132701D02*
X1430171D01*
X1327525Y122718D02*
X1330000Y120242D01*
X1216897Y361999D02*
X1326700Y261446D01*
X1330000Y120000D02*
Y120242D01*
X1326700Y261446D02*
X1327525Y260621D01*
Y122718D02*
Y260621D01*
X1096692Y378641D02*
X1098179Y377153D01*
X1122390Y372040D02*
X1165890Y372774D01*
X1181241Y375976D01*
X1096692Y379693D02*
X1096692Y378641D01*
X1096692Y379693D02*
Y380808D01*
X1096396Y370716D02*
X1098868Y368244D01*
X1099612Y367500D01*
X1169399Y367664D02*
X1172838Y368963D01*
X1110412Y372040D02*
X1122390D01*
X1099612Y367500D02*
X1168966D01*
X1169399Y367664D01*
X1098179Y377153D02*
X1110412Y372040D01*
X1175418Y369745D02*
X1177261Y370173D01*
X1195612Y376574D02*
X1222038Y373350D01*
X1222782Y372606D02*
X1333770Y261618D01*
X1222038Y373350D02*
X1222782Y372606D01*
X1135000Y187500D02*
Y325000D01*
X1125000Y130000D02*
Y177500D01*
X1135000Y187500D01*
X725000Y182500D02*
X797500Y255000D01*
X725000Y135000D02*
Y182500D01*
X797500Y255000D02*
Y388770D01*
X525000Y180372D02*
X540000Y195372D01*
Y250660D01*
X739340Y450000D01*
X335000Y120218D02*
X337500Y122718D01*
Y265000D01*
X335000Y120000D02*
Y120218D01*
X135000Y200000D02*
Y262500D01*
X200000Y327500D01*
X1090316Y375000D02*
X1094600Y370716D01*
X1089960Y375000D02*
X1090316D01*
X1094600Y370716D02*
X1096396D01*
X1082500Y399334D02*
Y400000D01*
Y399334D02*
X1086297Y395537D01*
Y393077D02*
X1086590Y392785D01*
X1086297Y393077D02*
Y395537D01*
X843230Y450000D02*
X892500Y499270D01*
X822500Y505000D02*
X880000D01*
X739340Y450000D02*
X843230D01*
X772500Y455000D02*
X822500Y505000D01*
X904756Y494230D02*
X905000D01*
X861380Y438110D02*
X908620Y485350D01*
X900416Y489890D02*
X904756Y494230D01*
X797500Y388770D02*
X898620Y489890D01*
X914756Y489690D02*
X915000D01*
X898620Y489890D02*
X900416D01*
X910416Y485350D02*
X914756Y489690D01*
X908620Y485350D02*
X910416D01*
X859990Y438110D02*
X861380D01*
X806770Y384890D02*
X859990Y438110D01*
X806770Y333230D02*
Y384890D01*
X1086590Y390910D02*
X1096692Y380808D01*
X1086590Y390910D02*
Y392785D01*
X120000Y310000D02*
X130000D01*
X45000Y235000D02*
X120000Y310000D01*
X145000Y325000D02*
X185000D01*
X130000Y310000D02*
X145000Y325000D01*
X1333770Y208713D02*
Y261618D01*
X1089960Y358956D02*
X1097069D01*
X1097540Y358485D01*
X1101515D01*
X1135000Y325000D01*
X95000Y160000D02*
X135000Y200000D01*
X45000Y180000D02*
Y235000D01*
Y180000D02*
X65000Y160000D01*
X1442872Y120000D02*
X1530000D01*
X525000Y135000D02*
Y180372D01*
D79*
X21800Y121500D02*
D03*
Y198500D02*
D03*
D80*
X95000Y220000D02*
D03*
Y190000D02*
D03*
Y160000D02*
D03*
Y130000D02*
D03*
Y100000D02*
D03*
X65000Y220000D02*
D03*
Y190000D02*
D03*
Y160000D02*
D03*
Y130000D02*
D03*
D81*
Y100000D02*
D03*
D100*
X348253Y573253D02*
X350613D01*
X353945Y578945D02*
X360000Y585000D01*
X482500D01*
X350613Y573253D02*
X353945Y576585D01*
Y578945D01*
D103*
X425700Y572140D02*
D03*
X400300D02*
D03*
X374900D02*
D03*
D104*
X349500D02*
D03*
D105*
X1680000Y247000D02*
D03*
Y323000D02*
D03*
D106*
X285000Y72500D02*
D03*
X310400D02*
D03*
X1222400Y500000D02*
D03*
X1197000D02*
D03*
X510400Y72500D02*
D03*
X485000D02*
D03*
X1510400D02*
D03*
X1485000D02*
D03*
X1310400D02*
D03*
X1285000D02*
D03*
X1110400D02*
D03*
X1085000D02*
D03*
X910400D02*
D03*
X885000D02*
D03*
X710400D02*
D03*
X685000D02*
D03*
X1222400Y420000D02*
D03*
X1197000D02*
D03*
D107*
X385000Y112500D02*
D03*
X1585000D02*
D03*
X1385000D02*
D03*
X1185000D02*
D03*
X985000D02*
D03*
X785000D02*
D03*
X585000D02*
D03*
D108*
X385000Y52500D02*
D03*
X1585000D02*
D03*
X1385000D02*
D03*
X1185000D02*
D03*
X985000D02*
D03*
X785000D02*
D03*
X585000D02*
D03*
X80000Y473000D02*
D03*
D109*
X432000Y82500D02*
D03*
X1632000D02*
D03*
X1432000D02*
D03*
X1232000D02*
D03*
X1032000D02*
D03*
X832000D02*
D03*
X632000D02*
D03*
X50000Y520000D02*
D03*
D110*
X1695700Y397014D02*
D03*
Y483414D02*
D03*
D111*
X1737500Y397014D02*
D03*
Y483414D02*
D03*
D112*
X1700700Y469114D02*
D03*
Y411314D02*
D03*
D113*
X50000Y287000D02*
D03*
Y443000D02*
D03*
D114*
X121500Y394000D02*
D03*
Y336000D02*
D03*
X85000Y390000D02*
D03*
Y340000D02*
D03*
D115*
X30000Y365000D02*
D03*
D116*
X135000Y287000D02*
D03*
Y443000D02*
D03*
D117*
X110000Y520000D02*
D03*
D118*
X1063506Y299855D02*
D03*
X922874Y189518D02*
D03*
X1124250Y429250D02*
D03*
X570000Y462500D02*
D03*
X1443016Y128016D02*
D03*
X1368862Y137854D02*
D03*
X1321688Y237499D02*
D03*
X1321717Y187498D02*
D03*
X1112802Y377810D02*
D03*
X1120000D02*
D03*
X1136580Y180920D02*
D03*
X1125000Y187500D02*
D03*
X723420Y189080D02*
D03*
X735000Y182500D02*
D03*
X535144Y182356D02*
D03*
X524484Y188016D02*
D03*
X200000Y327500D02*
D03*
X1089960Y375000D02*
D03*
X1082500Y400000D02*
D03*
X1290000Y405730D02*
D03*
X1328016Y325230D02*
D03*
X1375000Y350000D02*
D03*
X1409270Y410000D02*
D03*
X1400000Y413540D02*
D03*
X1340056Y394310D02*
D03*
X1391829Y429254D02*
D03*
X1421984Y426944D02*
D03*
X1382540Y444825D02*
D03*
X1327500Y462500D02*
D03*
X1335000D02*
D03*
X1342500D02*
D03*
X1350000D02*
D03*
X1475000Y425730D02*
D03*
X1617500Y403270D02*
D03*
X1252500Y360000D02*
D03*
X1310000Y471730D02*
D03*
X1360000D02*
D03*
X1170000Y515000D02*
D03*
X1082037Y450049D02*
D03*
X1085655Y456298D02*
D03*
X955000Y416730D02*
D03*
X880000Y505000D02*
D03*
X892500Y499270D02*
D03*
X905000Y494230D02*
D03*
X915000Y489690D02*
D03*
X1135000Y490500D02*
D03*
X855040Y425000D02*
D03*
X805000Y415040D02*
D03*
X812540Y369334D02*
D03*
X570000Y272500D02*
D03*
X525000Y236730D02*
D03*
X1338810Y182500D02*
D03*
X1170000Y480000D02*
D03*
X1230000Y275000D02*
D03*
X1240000D02*
D03*
X1250000D02*
D03*
X1089960Y358956D02*
D03*
X1377500Y175000D02*
D03*
Y182500D02*
D03*
X942500Y417500D02*
D03*
X945000Y367500D02*
D03*
X1282500Y357500D02*
D03*
X1250000Y375000D02*
D03*
X1325000Y310000D02*
D03*
X792500Y462500D02*
D03*
X832500D02*
D03*
Y472500D02*
D03*
Y482500D02*
D03*
Y492500D02*
D03*
X850000Y272500D02*
D03*
Y252500D02*
D03*
X840000Y262500D02*
D03*
X830000Y272500D02*
D03*
X840000Y242500D02*
D03*
X850000Y232500D02*
D03*
Y242500D02*
D03*
X830000Y262500D02*
D03*
X840000Y252500D02*
D03*
X830000D02*
D03*
Y232500D02*
D03*
X817500D02*
D03*
X845000Y197500D02*
D03*
X835000D02*
D03*
X805000Y227500D02*
D03*
X817500Y252500D02*
D03*
X820000Y370000D02*
D03*
X830000Y242500D02*
D03*
X582500Y270000D02*
D03*
X625795Y362380D02*
D03*
X985000Y340000D02*
D03*
X1045000Y335000D02*
D03*
X1059954Y329672D02*
D03*
X1372500Y520000D02*
D03*
Y527500D02*
D03*
X1280000Y492500D02*
D03*
X705000Y497500D02*
D03*
X720000D02*
D03*
X727500D02*
D03*
X670000Y512500D02*
D03*
X535000Y502500D02*
D03*
X555000D02*
D03*
X545000D02*
D03*
X535000Y512500D02*
D03*
X545000D02*
D03*
X555000D02*
D03*
Y522500D02*
D03*
X535000D02*
D03*
X545000D02*
D03*
X507500Y497500D02*
D03*
X674163Y506838D02*
D03*
X1556940Y266310D02*
D03*
X840000Y272500D02*
D03*
Y232500D02*
D03*
X850000Y262500D02*
D03*
X915000Y430000D02*
D03*
X880000Y432500D02*
D03*
X425000Y170000D02*
D03*
X392500Y175000D02*
D03*
X329960Y182500D02*
D03*
X355000Y267500D02*
D03*
X375000D02*
D03*
X430000Y272500D02*
D03*
X450000Y262500D02*
D03*
X377500Y182500D02*
D03*
Y190000D02*
D03*
X440000Y252500D02*
D03*
X430000Y242500D02*
D03*
X417500Y252500D02*
D03*
X430000Y262500D02*
D03*
X440000Y272500D02*
D03*
X430000Y252500D02*
D03*
X420000Y230000D02*
D03*
X440000Y262500D02*
D03*
X450000Y272500D02*
D03*
X405000Y227500D02*
D03*
X415000Y197500D02*
D03*
X440000Y232500D02*
D03*
X392500Y182500D02*
D03*
X450000Y242500D02*
D03*
X448936Y233564D02*
D03*
X425000Y197500D02*
D03*
X435000Y197500D02*
D03*
X655000Y420000D02*
D03*
X412500Y170000D02*
D03*
X445000Y197500D02*
D03*
X1667500Y390000D02*
D03*
X1730000Y362500D02*
D03*
X1450000Y272500D02*
D03*
X1422500Y330000D02*
D03*
X1432500D02*
D03*
X1645000D02*
D03*
X790000Y520000D02*
D03*
X1247500Y427460D02*
D03*
X1085000Y430000D02*
D03*
X1072500D02*
D03*
X1522500Y402500D02*
D03*
X1435000Y412500D02*
D03*
X1400000Y327500D02*
D03*
X1375000Y365000D02*
D03*
X1400000Y387500D02*
D03*
X325000Y187500D02*
D03*
Y237500D02*
D03*
X440000Y242500D02*
D03*
X450000Y252500D02*
D03*
X335000Y120000D02*
D03*
X442500Y127500D02*
D03*
X285000Y135000D02*
D03*
X372500Y140000D02*
D03*
X447314Y170186D02*
D03*
X435000Y170000D02*
D03*
X377500Y175000D02*
D03*
X385000Y182500D02*
D03*
X392500Y190000D02*
D03*
X430000Y232500D02*
D03*
X185000Y325000D02*
D03*
X1135000Y447500D02*
D03*
X1170000Y410000D02*
D03*
X1172500Y448055D02*
D03*
X1522500Y437500D02*
D03*
X947500Y430991D02*
D03*
X1330000Y440000D02*
D03*
X1020000Y432540D02*
D03*
X1320202Y369798D02*
D03*
X1645000Y454960D02*
D03*
X1602500Y468754D02*
D03*
X1489919Y278293D02*
D03*
X1607500Y397500D02*
D03*
X1670000Y482500D02*
D03*
X1675000Y405000D02*
D03*
X1642500Y420000D02*
D03*
X315000Y345000D02*
D03*
X370000D02*
D03*
X1340000Y350000D02*
D03*
X712500Y497500D02*
D03*
X784656Y420344D02*
D03*
X667500Y412500D02*
D03*
X310000Y425000D02*
D03*
Y435000D02*
D03*
X320000D02*
D03*
Y425000D02*
D03*
X1250000Y265000D02*
D03*
X1240000D02*
D03*
X1250000Y255000D02*
D03*
Y245000D02*
D03*
X1230000Y265000D02*
D03*
X1240000Y255000D02*
D03*
X925000Y237500D02*
D03*
X1040000Y272500D02*
D03*
X1050000D02*
D03*
X1230000Y255000D02*
D03*
X1250000Y235000D02*
D03*
X1240000Y245000D02*
D03*
X1217500Y252500D02*
D03*
X1240000Y235000D02*
D03*
X1230000Y245000D02*
D03*
X337500Y332500D02*
D03*
X287500Y400000D02*
D03*
X322500Y415000D02*
D03*
X730000Y520000D02*
D03*
X770000D02*
D03*
X750000D02*
D03*
X740000D02*
D03*
X780000D02*
D03*
X760000D02*
D03*
X1290000D02*
D03*
X1280000D02*
D03*
X1270000D02*
D03*
X1260000D02*
D03*
X1525000Y532500D02*
D03*
X1372500Y535000D02*
D03*
X1340000Y365000D02*
D03*
X1525000Y337500D02*
D03*
X1537500Y345000D02*
D03*
X1432250Y488500D02*
D03*
X190000Y100000D02*
D03*
X180000D02*
D03*
X170000D02*
D03*
X160000D02*
D03*
X150000D02*
D03*
Y110000D02*
D03*
Y120000D02*
D03*
Y130000D02*
D03*
Y140000D02*
D03*
Y150000D02*
D03*
X240000Y100000D02*
D03*
Y110000D02*
D03*
Y120000D02*
D03*
Y130000D02*
D03*
Y140000D02*
D03*
Y150000D02*
D03*
X230000D02*
D03*
Y140000D02*
D03*
Y130000D02*
D03*
Y120000D02*
D03*
Y110000D02*
D03*
Y100000D02*
D03*
X220000D02*
D03*
Y110000D02*
D03*
Y120000D02*
D03*
Y130000D02*
D03*
Y140000D02*
D03*
Y150000D02*
D03*
X210000Y100000D02*
D03*
Y110000D02*
D03*
Y120000D02*
D03*
Y130000D02*
D03*
Y140000D02*
D03*
Y150000D02*
D03*
X200000Y100000D02*
D03*
Y110000D02*
D03*
Y120000D02*
D03*
Y130000D02*
D03*
Y140000D02*
D03*
Y150000D02*
D03*
X1432250Y508250D02*
D03*
X1471750Y468750D02*
D03*
X1452000D02*
D03*
X1432250D02*
D03*
X1452000Y508250D02*
D03*
X1471750D02*
D03*
Y488500D02*
D03*
X1452000D02*
D03*
X800000Y405000D02*
D03*
X1530000Y120000D02*
D03*
X1485000Y135000D02*
D03*
X1330000Y120000D02*
D03*
X1125000Y130000D02*
D03*
X925000Y135000D02*
D03*
X725000D02*
D03*
X525000D02*
D03*
X1615000Y172500D02*
D03*
X1630000Y242500D02*
D03*
X1640000Y262500D02*
D03*
X1630000D02*
D03*
X1615000Y197500D02*
D03*
X1645000D02*
D03*
X1640000Y232500D02*
D03*
X1617500D02*
D03*
X1605000Y227500D02*
D03*
X1650000Y272500D02*
D03*
X1640000D02*
D03*
X1630000D02*
D03*
X1625000Y197500D02*
D03*
X1635000D02*
D03*
X1625000Y172500D02*
D03*
X1635000D02*
D03*
X1642500Y127500D02*
D03*
X1525000Y237500D02*
D03*
Y187500D02*
D03*
X1535000Y182500D02*
D03*
X1617500Y252500D02*
D03*
X1575000Y267500D02*
D03*
X1592500Y182500D02*
D03*
Y190000D02*
D03*
Y175000D02*
D03*
X1577500Y190000D02*
D03*
X1585000Y182500D02*
D03*
X1577500D02*
D03*
Y175000D02*
D03*
X1572500Y140000D02*
D03*
X1205000Y227500D02*
D03*
X1245000Y172500D02*
D03*
X1225000Y197500D02*
D03*
X1235000D02*
D03*
Y172500D02*
D03*
X1225000D02*
D03*
X1242500Y127500D02*
D03*
X1125000Y237500D02*
D03*
X1175000Y267500D02*
D03*
X1155000D02*
D03*
X1085000Y135000D02*
D03*
X1192500Y182500D02*
D03*
Y175000D02*
D03*
Y190000D02*
D03*
X1177500D02*
D03*
X1185000Y182500D02*
D03*
X1177500D02*
D03*
Y175000D02*
D03*
X1172500Y140000D02*
D03*
X1440000Y242500D02*
D03*
X1430000Y252500D02*
D03*
Y262500D02*
D03*
X1445000Y197500D02*
D03*
X1430000Y232500D02*
D03*
X1417500D02*
D03*
X1405000Y227500D02*
D03*
X1450000Y242500D02*
D03*
Y252500D02*
D03*
Y262500D02*
D03*
X1440000Y272500D02*
D03*
X1430000D02*
D03*
X1425000Y197500D02*
D03*
X1435000D02*
D03*
Y172500D02*
D03*
X1425000D02*
D03*
X1417500Y252500D02*
D03*
X1375000Y267500D02*
D03*
X1355000D02*
D03*
X1285000Y135000D02*
D03*
X1392500Y182500D02*
D03*
Y175000D02*
D03*
Y190000D02*
D03*
X1377500D02*
D03*
X1385000Y182500D02*
D03*
X1245000Y197500D02*
D03*
X1230000Y235000D02*
D03*
X1217500Y232500D02*
D03*
X1040000Y242500D02*
D03*
X1030000D02*
D03*
X1040000Y262500D02*
D03*
X1030000D02*
D03*
X1015000Y197500D02*
D03*
X1045000D02*
D03*
X1005000Y227500D02*
D03*
X1050000Y262500D02*
D03*
X1030000Y272500D02*
D03*
X1025000Y197500D02*
D03*
X1035000D02*
D03*
Y172500D02*
D03*
X1025000D02*
D03*
X1042500Y127500D02*
D03*
X935000Y182500D02*
D03*
X1017500Y252500D02*
D03*
X975000Y267500D02*
D03*
X955000D02*
D03*
X885000Y135000D02*
D03*
X992500Y182500D02*
D03*
Y175000D02*
D03*
Y190000D02*
D03*
X977500D02*
D03*
X985000Y182500D02*
D03*
X977500D02*
D03*
Y175000D02*
D03*
X972500Y140000D02*
D03*
X825000Y197500D02*
D03*
X835000Y172500D02*
D03*
X825000D02*
D03*
X842500Y127500D02*
D03*
X725000Y237500D02*
D03*
X775000Y267500D02*
D03*
X755000D02*
D03*
X685000Y135000D02*
D03*
X792500Y182500D02*
D03*
Y175000D02*
D03*
Y190000D02*
D03*
X777500D02*
D03*
X785000Y182500D02*
D03*
X777500D02*
D03*
Y175000D02*
D03*
X772500Y140000D02*
D03*
X615000Y172500D02*
D03*
X640000Y242500D02*
D03*
Y262500D02*
D03*
X650000D02*
D03*
Y272500D02*
D03*
X635000Y197500D02*
D03*
X625000D02*
D03*
X635000Y172500D02*
D03*
X625000D02*
D03*
X642500Y127500D02*
D03*
X617500Y252500D02*
D03*
X485000Y135000D02*
D03*
X592500Y182500D02*
D03*
Y175000D02*
D03*
Y190000D02*
D03*
X577500D02*
D03*
X585000Y182500D02*
D03*
X577500D02*
D03*
Y175000D02*
D03*
X572500Y140000D02*
D03*
X815000Y172500D02*
D03*
X845000D02*
D03*
X640000Y252500D02*
D03*
X630000Y262500D02*
D03*
X615000Y197500D02*
D03*
X645000D02*
D03*
X640000Y232500D02*
D03*
X645000Y172500D02*
D03*
X650000Y242500D02*
D03*
X1640000D02*
D03*
Y252500D02*
D03*
X1630000D02*
D03*
Y232500D02*
D03*
X1650000D02*
D03*
X1645000Y172500D02*
D03*
X1650000Y242500D02*
D03*
Y252500D02*
D03*
Y262500D02*
D03*
X1415000Y172500D02*
D03*
X1430000Y242500D02*
D03*
X1440000Y252500D02*
D03*
Y262500D02*
D03*
X1415000Y197500D02*
D03*
X1440000Y232500D02*
D03*
X1450000D02*
D03*
X1445000Y172500D02*
D03*
X1215000D02*
D03*
Y197500D02*
D03*
X1015000Y172500D02*
D03*
X1040000Y252500D02*
D03*
X1030000D02*
D03*
X1040000Y232500D02*
D03*
X1030000D02*
D03*
X1017500D02*
D03*
X1050000D02*
D03*
X1045000Y172500D02*
D03*
X1050000Y242500D02*
D03*
Y252500D02*
D03*
X815000Y197500D02*
D03*
X630000Y242500D02*
D03*
Y252500D02*
D03*
Y232500D02*
D03*
X620000Y230000D02*
D03*
X605000Y227500D02*
D03*
X650000Y232500D02*
D03*
Y252500D02*
D03*
X640000Y272500D02*
D03*
X630000D02*
D03*
M02*
