G04*
G04 #@! TF.GenerationSoftware,Altium Limited,Altium Designer,24.4.1 (13)*
G04*
G04 Layer_Physical_Order=2*
G04 Layer_Color=36540*
%FSLAX44Y44*%
%MOMM*%
G71*
G04*
G04 #@! TF.SameCoordinates,002769C6-68FF-4E06-BC95-C638BAA8078C*
G04*
G04*
G04 #@! TF.FilePolarity,Positive*
G04*
G01*
G75*
%ADD88C,3.0000*%
%ADD89C,1.5700*%
%ADD90R,1.5700X1.5700*%
%ADD104C,1.5240*%
%ADD105R,1.5240X1.5240*%
G04:AMPARAMS|DCode=106|XSize=2mm|YSize=2mm|CornerRadius=0mm|HoleSize=0mm|Usage=FLASHONLY|Rotation=0.000|XOffset=0mm|YOffset=0mm|HoleType=Round|Shape=Octagon|*
%AMOCTAGOND106*
4,1,8,1.0000,-0.5000,1.0000,0.5000,0.5000,1.0000,-0.5000,1.0000,-1.0000,0.5000,-1.0000,-0.5000,-0.5000,-1.0000,0.5000,-1.0000,1.0000,-0.5000,0.0*
%
%ADD106OCTAGOND106*%

%ADD107C,1.2192*%
%ADD108R,4.0000X1.5000*%
%ADD109R,3.5000X1.5000*%
%ADD110R,1.5000X3.5000*%
%ADD111O,2.1000X1.0500*%
%ADD112O,1.8000X0.9000*%
%ADD113C,0.6500*%
%ADD114C,2.5000*%
G04:AMPARAMS|DCode=115|XSize=1.2mm|YSize=3.2mm|CornerRadius=0mm|HoleSize=0mm|Usage=FLASHONLY|Rotation=90.000|XOffset=0mm|YOffset=0mm|HoleType=Round|Shape=Octagon|*
%AMOCTAGOND115*
4,1,8,-1.6000,-0.3000,-1.6000,0.3000,-1.3000,0.6000,1.3000,0.6000,1.6000,0.3000,1.6000,-0.3000,1.3000,-0.6000,-1.3000,-0.6000,-1.6000,-0.3000,0.0*
%
%ADD115OCTAGOND115*%

%ADD116O,1.2000X3.0000*%
%ADD117O,3.0000X1.2000*%
%ADD118R,1.5000X4.0000*%
%ADD119C,0.5000*%
G36*
X1180000Y540000D02*
X1684709D01*
X1685809Y538354D01*
X1688354Y535809D01*
X1691346Y533809D01*
X1694671Y532432D01*
X1698201Y531730D01*
X1701799D01*
X1705329Y532432D01*
X1708654Y533809D01*
X1711646Y535809D01*
X1714191Y538354D01*
X1715291Y540000D01*
X1739752D01*
Y490515D01*
X1733000D01*
X1731162Y490273D01*
X1729450Y489564D01*
X1727979Y488435D01*
X1726851Y486965D01*
X1726623Y486414D01*
X1737500D01*
Y480414D01*
X1726623D01*
X1726851Y479864D01*
X1727979Y478393D01*
X1729450Y477265D01*
X1731162Y476556D01*
X1733000Y476314D01*
X1739752D01*
Y404115D01*
X1733000D01*
X1731162Y403873D01*
X1729450Y403164D01*
X1727979Y402035D01*
X1726851Y400565D01*
X1726623Y400014D01*
X1737500D01*
Y394014D01*
X1726623D01*
X1726851Y393464D01*
X1727979Y391993D01*
X1729450Y390865D01*
X1731162Y390156D01*
X1733000Y389914D01*
X1739752D01*
X1739753Y30000D01*
X1739752Y28705D01*
X1739415Y26138D01*
X1738744Y23637D01*
X1737753Y21245D01*
X1736459Y19002D01*
X1734883Y16948D01*
X1733052Y15117D01*
X1730997Y13541D01*
X1728755Y12247D01*
X1726363Y11256D01*
X1723862Y10586D01*
X1721295Y10248D01*
X28705D01*
X26138Y10586D01*
X23637Y11256D01*
X21245Y12247D01*
X19003Y13541D01*
X16948Y15117D01*
X15117Y16948D01*
X13541Y19003D01*
X12247Y21245D01*
X11256Y23637D01*
X10586Y26138D01*
X10248Y28705D01*
Y30000D01*
Y143384D01*
X10953Y143676D01*
X11518Y143803D01*
X14093Y142082D01*
X17054Y140855D01*
X20198Y140230D01*
X23402D01*
X26546Y140855D01*
X29507Y142082D01*
X32171Y143862D01*
X34438Y146129D01*
X36218Y148793D01*
X37445Y151754D01*
X38070Y154897D01*
Y158103D01*
X37445Y161246D01*
X36218Y164207D01*
X34438Y166871D01*
X32171Y169138D01*
X29507Y170918D01*
X26546Y172145D01*
X23402Y172770D01*
X20198D01*
X17054Y172145D01*
X14093Y170918D01*
X11518Y169197D01*
X10953Y169324D01*
X10248Y169616D01*
Y190384D01*
X10953Y190676D01*
X11518Y190803D01*
X14093Y189082D01*
X17054Y187855D01*
X20198Y187230D01*
X23402D01*
X26546Y187855D01*
X29507Y189082D01*
X32171Y190862D01*
X34438Y193129D01*
X36218Y195793D01*
X37445Y198754D01*
X38070Y201898D01*
Y205103D01*
X37445Y208246D01*
X36218Y211207D01*
X34438Y213871D01*
X32171Y216138D01*
X29507Y217918D01*
X26546Y219145D01*
X23402Y219770D01*
X20198D01*
X17054Y219145D01*
X14093Y217918D01*
X11518Y216197D01*
X10953Y216324D01*
X10248Y216616D01*
Y570000D01*
Y571295D01*
X10586Y573862D01*
X11256Y576363D01*
X12247Y578755D01*
X13541Y580997D01*
X15117Y583051D01*
X16948Y584883D01*
X19003Y586459D01*
X21245Y587753D01*
X23637Y588744D01*
X26138Y589414D01*
X28705Y589752D01*
X1180000D01*
Y540000D01*
D02*
G37*
%LPC*%
G36*
X377900Y581855D02*
Y575140D01*
X384615D01*
X384368Y576062D01*
X383030Y578378D01*
X381138Y580270D01*
X378822Y581608D01*
X377900Y581855D01*
D02*
G37*
G36*
X371900D02*
X370978Y581608D01*
X368662Y580270D01*
X366770Y578378D01*
X365432Y576062D01*
X365185Y575140D01*
X371900D01*
Y581855D01*
D02*
G37*
G36*
X426870Y581030D02*
X424530D01*
X422269Y580424D01*
X420241Y579254D01*
X418586Y577599D01*
X417416Y575571D01*
X416810Y573310D01*
Y570970D01*
X417416Y568709D01*
X418586Y566681D01*
X420241Y565026D01*
X422269Y563856D01*
X424530Y563250D01*
X426870D01*
X429131Y563856D01*
X431159Y565026D01*
X432814Y566681D01*
X433984Y568709D01*
X434590Y570970D01*
Y573310D01*
X433984Y575571D01*
X432814Y577599D01*
X431159Y579254D01*
X429131Y580424D01*
X426870Y581030D01*
D02*
G37*
G36*
X401470D02*
X399130D01*
X396869Y580424D01*
X394841Y579254D01*
X393186Y577599D01*
X392016Y575571D01*
X391410Y573310D01*
Y570970D01*
X392016Y568709D01*
X393186Y566681D01*
X394841Y565026D01*
X396869Y563856D01*
X399130Y563250D01*
X401470D01*
X403731Y563856D01*
X405759Y565026D01*
X407414Y566681D01*
X408584Y568709D01*
X409190Y570970D01*
Y573310D01*
X408584Y575571D01*
X407414Y577599D01*
X405759Y579254D01*
X403731Y580424D01*
X401470Y581030D01*
D02*
G37*
G36*
X358390D02*
X340610D01*
Y563250D01*
X358390D01*
Y581030D01*
D02*
G37*
G36*
X384615Y569140D02*
X377900D01*
Y562425D01*
X378822Y562672D01*
X381138Y564010D01*
X383030Y565902D01*
X384368Y568218D01*
X384615Y569140D01*
D02*
G37*
G36*
X371900D02*
X365186D01*
X365432Y568218D01*
X366770Y565902D01*
X368662Y564010D01*
X370978Y562672D01*
X371900Y562425D01*
Y569140D01*
D02*
G37*
G36*
X541626Y573410D02*
X538374D01*
X535184Y572775D01*
X532180Y571531D01*
X529476Y569724D01*
X527176Y567425D01*
X525369Y564720D01*
X524124Y561716D01*
X523490Y558526D01*
Y555274D01*
X524124Y552084D01*
X525369Y549080D01*
X527176Y546376D01*
X529476Y544076D01*
X532180Y542269D01*
X535184Y541025D01*
X538374Y540390D01*
X541626D01*
X544816Y541025D01*
X547820Y542269D01*
X550524Y544076D01*
X552824Y546376D01*
X554631Y549080D01*
X555876Y552084D01*
X556510Y555274D01*
Y558526D01*
X555876Y561716D01*
X554631Y564720D01*
X552824Y567425D01*
X550524Y569724D01*
X547820Y571531D01*
X544816Y572775D01*
X541626Y573410D01*
D02*
G37*
G36*
X236826D02*
X233574D01*
X230384Y572775D01*
X227380Y571531D01*
X224676Y569724D01*
X222376Y567425D01*
X220569Y564720D01*
X219324Y561716D01*
X218690Y558526D01*
Y555274D01*
X219324Y552084D01*
X220569Y549080D01*
X222376Y546376D01*
X224676Y544076D01*
X227380Y542269D01*
X230384Y541025D01*
X233574Y540390D01*
X236826D01*
X240016Y541025D01*
X243020Y542269D01*
X245725Y544076D01*
X248024Y546376D01*
X249831Y549080D01*
X251075Y552084D01*
X251710Y555274D01*
Y558526D01*
X251075Y561716D01*
X249831Y564720D01*
X248024Y567425D01*
X245725Y569724D01*
X243020Y571531D01*
X240016Y572775D01*
X236826Y573410D01*
D02*
G37*
G36*
X1101799Y568270D02*
X1098201D01*
X1094671Y567568D01*
X1091346Y566191D01*
X1088354Y564191D01*
X1085809Y561646D01*
X1083809Y558654D01*
X1082432Y555329D01*
X1081730Y551799D01*
Y548201D01*
X1082432Y544671D01*
X1083809Y541346D01*
X1085809Y538354D01*
X1088354Y535809D01*
X1091346Y533809D01*
X1094671Y532432D01*
X1098201Y531730D01*
X1101799D01*
X1105329Y532432D01*
X1108654Y533809D01*
X1111646Y535809D01*
X1114191Y538354D01*
X1116191Y541346D01*
X1117568Y544671D01*
X1118270Y548201D01*
Y551799D01*
X1117568Y555329D01*
X1116191Y558654D01*
X1114191Y561646D01*
X1111646Y564191D01*
X1108654Y566191D01*
X1105329Y567568D01*
X1101799Y568270D01*
D02*
G37*
G36*
X60040Y540040D02*
X53000D01*
Y523000D01*
X60040D01*
Y540040D01*
D02*
G37*
G36*
X47000D02*
X39960D01*
Y523000D01*
X47000D01*
Y540040D01*
D02*
G37*
G36*
X1290750Y523770D02*
X1289250D01*
X1287865Y523196D01*
X1286804Y522136D01*
X1286230Y520750D01*
Y519250D01*
X1286804Y517864D01*
X1287865Y516804D01*
X1289250Y516230D01*
X1290750D01*
X1292135Y516804D01*
X1293196Y517864D01*
X1293770Y519250D01*
Y520750D01*
X1293196Y522136D01*
X1292135Y523196D01*
X1290750Y523770D01*
D02*
G37*
G36*
X1280750D02*
X1279250D01*
X1277865Y523196D01*
X1276804Y522136D01*
X1276230Y520750D01*
Y519250D01*
X1276804Y517864D01*
X1277865Y516804D01*
X1279250Y516230D01*
X1280750D01*
X1282135Y516804D01*
X1283196Y517864D01*
X1283770Y519250D01*
Y520750D01*
X1283196Y522136D01*
X1282135Y523196D01*
X1280750Y523770D01*
D02*
G37*
G36*
X1270750D02*
X1269250D01*
X1267865Y523196D01*
X1266804Y522136D01*
X1266230Y520750D01*
Y519250D01*
X1266804Y517864D01*
X1267865Y516804D01*
X1269250Y516230D01*
X1270750D01*
X1272135Y516804D01*
X1273196Y517864D01*
X1273770Y519250D01*
Y520750D01*
X1273196Y522136D01*
X1272135Y523196D01*
X1270750Y523770D01*
D02*
G37*
G36*
X1260750D02*
X1259250D01*
X1257865Y523196D01*
X1256804Y522136D01*
X1256230Y520750D01*
Y519250D01*
X1256804Y517864D01*
X1257865Y516804D01*
X1259250Y516230D01*
X1260750D01*
X1262136Y516804D01*
X1263196Y517864D01*
X1263770Y519250D01*
Y520750D01*
X1263196Y522136D01*
X1262136Y523196D01*
X1260750Y523770D01*
D02*
G37*
G36*
X790750D02*
X789250D01*
X787865Y523196D01*
X786804Y522136D01*
X786230Y520750D01*
Y519250D01*
X786804Y517864D01*
X787865Y516804D01*
X789250Y516230D01*
X790750D01*
X792136Y516804D01*
X793196Y517864D01*
X793770Y519250D01*
Y520750D01*
X793196Y522136D01*
X792136Y523196D01*
X790750Y523770D01*
D02*
G37*
G36*
X780750D02*
X779250D01*
X777865Y523196D01*
X776804Y522136D01*
X776230Y520750D01*
Y519250D01*
X776804Y517864D01*
X777865Y516804D01*
X779250Y516230D01*
X780750D01*
X782135Y516804D01*
X783196Y517864D01*
X783770Y519250D01*
Y520750D01*
X783196Y522136D01*
X782135Y523196D01*
X780750Y523770D01*
D02*
G37*
G36*
X770750D02*
X769250D01*
X767865Y523196D01*
X766804Y522136D01*
X766230Y520750D01*
Y519250D01*
X766804Y517864D01*
X767865Y516804D01*
X769250Y516230D01*
X770750D01*
X772135Y516804D01*
X773196Y517864D01*
X773770Y519250D01*
Y520750D01*
X773196Y522136D01*
X772135Y523196D01*
X770750Y523770D01*
D02*
G37*
G36*
X760750D02*
X759250D01*
X757865Y523196D01*
X756804Y522136D01*
X756230Y520750D01*
Y519250D01*
X756804Y517864D01*
X757865Y516804D01*
X759250Y516230D01*
X760750D01*
X762135Y516804D01*
X763196Y517864D01*
X763770Y519250D01*
Y520750D01*
X763196Y522136D01*
X762135Y523196D01*
X760750Y523770D01*
D02*
G37*
G36*
X750750D02*
X749250D01*
X747865Y523196D01*
X746804Y522136D01*
X746230Y520750D01*
Y519250D01*
X746804Y517864D01*
X747865Y516804D01*
X749250Y516230D01*
X750750D01*
X752135Y516804D01*
X753196Y517864D01*
X753770Y519250D01*
Y520750D01*
X753196Y522136D01*
X752135Y523196D01*
X750750Y523770D01*
D02*
G37*
G36*
X740750D02*
X739250D01*
X737865Y523196D01*
X736804Y522136D01*
X736230Y520750D01*
Y519250D01*
X736804Y517864D01*
X737865Y516804D01*
X739250Y516230D01*
X740750D01*
X742135Y516804D01*
X743196Y517864D01*
X743770Y519250D01*
Y520750D01*
X743196Y522136D01*
X742135Y523196D01*
X740750Y523770D01*
D02*
G37*
G36*
X730750D02*
X729250D01*
X727865Y523196D01*
X726804Y522136D01*
X726230Y520750D01*
Y519250D01*
X726804Y517864D01*
X727865Y516804D01*
X729250Y516230D01*
X730750D01*
X732135Y516804D01*
X733196Y517864D01*
X733770Y519250D01*
Y520750D01*
X733196Y522136D01*
X732135Y523196D01*
X730750Y523770D01*
D02*
G37*
G36*
X1148718Y517224D02*
X1147218D01*
X1145833Y516650D01*
X1144772Y515589D01*
X1144198Y514204D01*
Y512704D01*
X1144772Y511318D01*
X1145833Y510258D01*
X1147218Y509684D01*
X1148718D01*
X1150104Y510258D01*
X1151164Y511318D01*
X1151738Y512704D01*
Y514204D01*
X1151164Y515589D01*
X1150104Y516650D01*
X1148718Y517224D01*
D02*
G37*
G36*
X169299Y538270D02*
X165701D01*
X162171Y537568D01*
X158846Y536191D01*
X155854Y534191D01*
X153309Y531646D01*
X151309Y528654D01*
X149932Y525329D01*
X149230Y521799D01*
Y518201D01*
X149932Y514671D01*
X151309Y511346D01*
X153309Y508354D01*
X155854Y505809D01*
X158846Y503809D01*
X162171Y502432D01*
X165701Y501730D01*
X169299D01*
X172829Y502432D01*
X176154Y503809D01*
X179146Y505809D01*
X181691Y508354D01*
X183691Y511346D01*
X185068Y514671D01*
X185770Y518201D01*
Y521799D01*
X185068Y525329D01*
X183691Y528654D01*
X181691Y531646D01*
X179146Y534191D01*
X176154Y536191D01*
X172829Y537568D01*
X169299Y538270D01*
D02*
G37*
G36*
X60040Y517000D02*
X53000D01*
Y499960D01*
X60040D01*
Y517000D01*
D02*
G37*
G36*
X47000D02*
X39960D01*
Y499960D01*
X47000D01*
Y517000D01*
D02*
G37*
G36*
X118770Y541270D02*
X101230D01*
Y498730D01*
X118770D01*
Y541270D01*
D02*
G37*
G36*
X1223370Y507366D02*
X1221430D01*
X1219557Y506864D01*
X1217877Y505894D01*
X1216506Y504523D01*
X1215536Y502843D01*
X1215034Y500970D01*
Y499030D01*
X1215536Y497157D01*
X1216506Y495477D01*
X1217877Y494106D01*
X1219557Y493136D01*
X1221430Y492634D01*
X1223370D01*
X1225243Y493136D01*
X1226923Y494106D01*
X1228294Y495477D01*
X1229264Y497157D01*
X1229766Y499030D01*
Y500970D01*
X1229264Y502843D01*
X1228294Y504523D01*
X1226923Y505894D01*
X1225243Y506864D01*
X1223370Y507366D01*
D02*
G37*
G36*
X1197970D02*
X1196030D01*
X1194157Y506864D01*
X1192477Y505894D01*
X1191106Y504523D01*
X1190136Y502843D01*
X1189634Y500970D01*
Y499030D01*
X1190136Y497157D01*
X1191106Y495477D01*
X1192477Y494106D01*
X1194157Y493136D01*
X1196030Y492634D01*
X1197970D01*
X1199843Y493136D01*
X1201523Y494106D01*
X1202894Y495477D01*
X1203864Y497157D01*
X1204366Y499030D01*
Y500970D01*
X1203864Y502843D01*
X1202894Y504523D01*
X1201523Y505894D01*
X1199843Y506864D01*
X1197970Y507366D01*
D02*
G37*
G36*
X525750Y496270D02*
X524250D01*
X522864Y495696D01*
X521804Y494636D01*
X521230Y493250D01*
Y491750D01*
X521804Y490364D01*
X522864Y489304D01*
X524250Y488730D01*
X525750D01*
X527136Y489304D01*
X528196Y490364D01*
X528770Y491750D01*
Y493250D01*
X528196Y494636D01*
X527136Y495696D01*
X525750Y496270D01*
D02*
G37*
G36*
X1700950Y491272D02*
X1698700D01*
Y486414D01*
X1708139D01*
X1707755Y487343D01*
X1706506Y488970D01*
X1704879Y490219D01*
X1702984Y491004D01*
X1700950Y491272D01*
D02*
G37*
G36*
X1692700D02*
X1690450D01*
X1688416Y491004D01*
X1686521Y490219D01*
X1684894Y488970D01*
X1683645Y487343D01*
X1683261Y486414D01*
X1692700D01*
Y491272D01*
D02*
G37*
G36*
X1163250Y483770D02*
X1161750D01*
X1160365Y483196D01*
X1159304Y482136D01*
X1158730Y480750D01*
Y479250D01*
X1159304Y477864D01*
X1160365Y476804D01*
X1161750Y476230D01*
X1163250D01*
X1164635Y476804D01*
X1165696Y477864D01*
X1166270Y479250D01*
Y480750D01*
X1165696Y482136D01*
X1164635Y483196D01*
X1163250Y483770D01*
D02*
G37*
G36*
X100040Y483040D02*
X83000D01*
Y476000D01*
X100040D01*
Y483040D01*
D02*
G37*
G36*
X77000D02*
X59960D01*
Y476000D01*
X77000D01*
Y483040D01*
D02*
G37*
G36*
X1708139Y480414D02*
X1698700D01*
Y475557D01*
X1700950D01*
X1702984Y475825D01*
X1704879Y476610D01*
X1706506Y477859D01*
X1707755Y479486D01*
X1708139Y480414D01*
D02*
G37*
G36*
X1692700D02*
X1683261D01*
X1683645Y479486D01*
X1684894Y477859D01*
X1686521Y476610D01*
X1688416Y475825D01*
X1690450Y475557D01*
X1692700D01*
Y480414D01*
D02*
G37*
G36*
X833250Y471270D02*
X831750D01*
X830365Y470696D01*
X829493Y469824D01*
X828750Y469716D01*
X828007Y469824D01*
X827135Y470696D01*
X825750Y471270D01*
X824250D01*
X822865Y470696D01*
X821804Y469636D01*
X821230Y468250D01*
Y466750D01*
X821804Y465364D01*
X822865Y464304D01*
X824250Y463730D01*
X825750D01*
X827135Y464304D01*
X828007Y465176D01*
X828750Y465284D01*
X829493Y465176D01*
X830365Y464304D01*
X831750Y463730D01*
X833250D01*
X834635Y464304D01*
X835696Y465364D01*
X836270Y466750D01*
Y468250D01*
X835696Y469636D01*
X834635Y470696D01*
X833250Y471270D01*
D02*
G37*
G36*
X815750Y473770D02*
X814250D01*
X812865Y473196D01*
X811804Y472136D01*
X811230Y470750D01*
Y469250D01*
X811804Y467864D01*
X812865Y466804D01*
X814250Y466230D01*
X815750D01*
X817135Y466804D01*
X818196Y467864D01*
X818770Y469250D01*
Y470750D01*
X818196Y472136D01*
X817135Y473196D01*
X815750Y473770D01*
D02*
G37*
G36*
X1603250Y472524D02*
X1601750D01*
X1600365Y471950D01*
X1599304Y470890D01*
X1598730Y469504D01*
Y468004D01*
X1599304Y466619D01*
X1600365Y465558D01*
X1601750Y464984D01*
X1603250D01*
X1604635Y465558D01*
X1605696Y466619D01*
X1606270Y468004D01*
Y469504D01*
X1605696Y470890D01*
X1604635Y471950D01*
X1603250Y472524D01*
D02*
G37*
G36*
X1701599Y473634D02*
X1699801D01*
X1698140Y472946D01*
X1696868Y471675D01*
X1696180Y470014D01*
Y468215D01*
X1696868Y466554D01*
X1698140Y465283D01*
X1699801Y464594D01*
X1701599D01*
X1703260Y465283D01*
X1704532Y466554D01*
X1705220Y468215D01*
Y470014D01*
X1704532Y471675D01*
X1703260Y472946D01*
X1701599Y473634D01*
D02*
G37*
G36*
X795750Y470715D02*
X794250D01*
X792865Y470141D01*
X791804Y469081D01*
X791230Y467695D01*
Y466195D01*
X791804Y464809D01*
X792865Y463749D01*
X794250Y463175D01*
X795750D01*
X797135Y463749D01*
X798196Y464809D01*
X798770Y466195D01*
Y467695D01*
X798196Y469081D01*
X797135Y470141D01*
X795750Y470715D01*
D02*
G37*
G36*
X100040Y470000D02*
X83000D01*
Y462960D01*
X100040D01*
Y470000D01*
D02*
G37*
G36*
X77000D02*
X59960D01*
Y462960D01*
X77000D01*
Y470000D01*
D02*
G37*
G36*
X570750Y463810D02*
X569250D01*
X567864Y463236D01*
X566804Y462175D01*
X566230Y460790D01*
Y459290D01*
X566804Y457905D01*
X567864Y456844D01*
X569250Y456270D01*
X570750D01*
X572136Y456844D01*
X573196Y457905D01*
X573770Y459290D01*
Y460790D01*
X573196Y462175D01*
X572136Y463236D01*
X570750Y463810D01*
D02*
G37*
G36*
X1093250Y456270D02*
X1091750D01*
X1090365Y455696D01*
X1089304Y454636D01*
X1088730Y453250D01*
Y451750D01*
X1089304Y450364D01*
X1090365Y449304D01*
X1091750Y448730D01*
X1093250D01*
X1094635Y449304D01*
X1095696Y450364D01*
X1096270Y451750D01*
Y453250D01*
X1095696Y454636D01*
X1094635Y455696D01*
X1093250Y456270D01*
D02*
G37*
G36*
X1083250Y453819D02*
X1081750D01*
X1080365Y453245D01*
X1079304Y452185D01*
X1078730Y450799D01*
Y449299D01*
X1079304Y447914D01*
X1080365Y446853D01*
X1081750Y446279D01*
X1083250D01*
X1084635Y446853D01*
X1085696Y447914D01*
X1086270Y449299D01*
Y450799D01*
X1085696Y452185D01*
X1084635Y453245D01*
X1083250Y453819D01*
D02*
G37*
G36*
X1173250Y451825D02*
X1171750D01*
X1170365Y451251D01*
X1169304Y450191D01*
X1168730Y448805D01*
Y447305D01*
X1169304Y445919D01*
X1170365Y444859D01*
X1171750Y444285D01*
X1173250D01*
X1174635Y444859D01*
X1175696Y445919D01*
X1176270Y447305D01*
Y448805D01*
X1175696Y450191D01*
X1174635Y451251D01*
X1173250Y451825D01*
D02*
G37*
G36*
X1330750Y443770D02*
X1329250D01*
X1327865Y443196D01*
X1326804Y442136D01*
X1326230Y440750D01*
Y439250D01*
X1326804Y437864D01*
X1327865Y436804D01*
X1329250Y436230D01*
X1330750D01*
X1332135Y436804D01*
X1333196Y437864D01*
X1333770Y439250D01*
Y440750D01*
X1333196Y442136D01*
X1332135Y443196D01*
X1330750Y443770D01*
D02*
G37*
G36*
X144000Y450333D02*
X126000D01*
X124102Y450083D01*
X122334Y449350D01*
X120815Y448185D01*
X119650Y446666D01*
X118917Y444898D01*
X118667Y443000D01*
X118917Y441102D01*
X119650Y439334D01*
X120815Y437815D01*
X122334Y436650D01*
X124102Y435917D01*
X126000Y435667D01*
X144000D01*
X145898Y435917D01*
X147666Y436650D01*
X149185Y437815D01*
X150350Y439334D01*
X151083Y441102D01*
X151333Y443000D01*
X151083Y444898D01*
X150350Y446666D01*
X149185Y448185D01*
X147666Y449350D01*
X145898Y450083D01*
X144000Y450333D01*
D02*
G37*
G36*
X51813Y456770D02*
X48187D01*
X44685Y455832D01*
X41545Y454019D01*
X38981Y451455D01*
X37168Y448315D01*
X36230Y444813D01*
Y441187D01*
X37168Y437685D01*
X38981Y434545D01*
X41545Y431981D01*
X44685Y430168D01*
X48187Y429230D01*
X51813D01*
X55315Y430168D01*
X58455Y431981D01*
X61019Y434545D01*
X62832Y437685D01*
X63770Y441187D01*
Y444813D01*
X62832Y448315D01*
X61019Y451455D01*
X58455Y454019D01*
X55315Y455832D01*
X51813Y456770D01*
D02*
G37*
G36*
X1073250Y433770D02*
X1071750D01*
X1070365Y433196D01*
X1069304Y432136D01*
X1068730Y430750D01*
Y429250D01*
X1069304Y427864D01*
X1070365Y426804D01*
X1071750Y426230D01*
X1073250D01*
X1074635Y426804D01*
X1075696Y427864D01*
X1076270Y429250D01*
Y430750D01*
X1075696Y432136D01*
X1074635Y433196D01*
X1073250Y433770D01*
D02*
G37*
G36*
X1475750Y428770D02*
X1474250D01*
X1472865Y428196D01*
X1471804Y427136D01*
X1471230Y425750D01*
Y424250D01*
X1471804Y422864D01*
X1472865Y421804D01*
X1474250Y421230D01*
X1475750D01*
X1477135Y421804D01*
X1478196Y422864D01*
X1478770Y424250D01*
Y425750D01*
X1478196Y427136D01*
X1477135Y428196D01*
X1475750Y428770D01*
D02*
G37*
G36*
X1643250Y423770D02*
X1641750D01*
X1640365Y423196D01*
X1639304Y422136D01*
X1638730Y420750D01*
Y419250D01*
X1639304Y417864D01*
X1640365Y416804D01*
X1641750Y416230D01*
X1643250D01*
X1644635Y416804D01*
X1645696Y417864D01*
X1646270Y419250D01*
Y420750D01*
X1645696Y422136D01*
X1644635Y423196D01*
X1643250Y423770D01*
D02*
G37*
G36*
X955750Y423138D02*
X954250D01*
X952865Y422564D01*
X951804Y421503D01*
X951230Y420118D01*
Y418618D01*
X951804Y417232D01*
X952865Y416172D01*
X954250Y415598D01*
X955750D01*
X957136Y416172D01*
X958196Y417232D01*
X958770Y418618D01*
Y420118D01*
X958196Y421503D01*
X957136Y422564D01*
X955750Y423138D01*
D02*
G37*
G36*
X943250Y421270D02*
X941750D01*
X940365Y420696D01*
X939304Y419636D01*
X938730Y418250D01*
Y416750D01*
X939304Y415364D01*
X940365Y414304D01*
X941750Y413730D01*
X943250D01*
X944636Y414304D01*
X945696Y415364D01*
X946270Y416750D01*
Y418250D01*
X945696Y419636D01*
X944636Y420696D01*
X943250Y421270D01*
D02*
G37*
G36*
X1223370Y427366D02*
X1221430D01*
X1219557Y426864D01*
X1217877Y425894D01*
X1216506Y424523D01*
X1215536Y422843D01*
X1215034Y420970D01*
Y419030D01*
X1215536Y417157D01*
X1216506Y415477D01*
X1217877Y414106D01*
X1219557Y413136D01*
X1221430Y412634D01*
X1223370D01*
X1225243Y413136D01*
X1226923Y414106D01*
X1228294Y415477D01*
X1229264Y417157D01*
X1229766Y419030D01*
Y420970D01*
X1229264Y422843D01*
X1228294Y424523D01*
X1226923Y425894D01*
X1225243Y426864D01*
X1223370Y427366D01*
D02*
G37*
G36*
X1197970D02*
X1196030D01*
X1194157Y426864D01*
X1192477Y425894D01*
X1191106Y424523D01*
X1190136Y422843D01*
X1189634Y420970D01*
Y419030D01*
X1190136Y417157D01*
X1191106Y415477D01*
X1192477Y414106D01*
X1194157Y413136D01*
X1196030Y412634D01*
X1197970D01*
X1199843Y413136D01*
X1201523Y414106D01*
X1202894Y415477D01*
X1203864Y417157D01*
X1204366Y419030D01*
Y420970D01*
X1203864Y422843D01*
X1202894Y424523D01*
X1201523Y425894D01*
X1199843Y426864D01*
X1197970Y427366D01*
D02*
G37*
G36*
X805750Y418810D02*
X804250D01*
X802865Y418236D01*
X801804Y417175D01*
X801230Y415790D01*
Y414290D01*
X801804Y412905D01*
X802865Y411844D01*
X804250Y411270D01*
X805750D01*
X807136Y411844D01*
X808196Y412905D01*
X808770Y414290D01*
Y415790D01*
X808196Y417175D01*
X807136Y418236D01*
X805750Y418810D01*
D02*
G37*
G36*
X1400750Y418770D02*
X1399250D01*
X1397865Y418196D01*
X1396804Y417136D01*
X1396230Y415750D01*
Y414250D01*
X1396804Y412864D01*
X1397865Y411804D01*
X1399250Y411230D01*
X1400750D01*
X1402135Y411804D01*
X1403196Y412864D01*
X1403770Y414250D01*
Y415750D01*
X1403196Y417136D01*
X1402135Y418196D01*
X1400750Y418770D01*
D02*
G37*
G36*
X1701599Y415834D02*
X1699801D01*
X1698140Y415146D01*
X1696868Y413875D01*
X1696180Y412214D01*
Y410415D01*
X1696868Y408754D01*
X1698140Y407482D01*
X1699801Y406794D01*
X1701599D01*
X1703260Y407482D01*
X1704532Y408754D01*
X1705220Y410415D01*
Y412214D01*
X1704532Y413875D01*
X1703260Y415146D01*
X1701599Y415834D01*
D02*
G37*
G36*
X1410750Y413770D02*
X1409250D01*
X1407865Y413196D01*
X1406804Y412136D01*
X1406230Y410750D01*
Y409250D01*
X1406804Y407864D01*
X1407865Y406804D01*
X1409250Y406230D01*
X1410750D01*
X1412135Y406804D01*
X1413196Y407864D01*
X1413770Y409250D01*
Y410750D01*
X1413196Y412136D01*
X1412135Y413196D01*
X1410750Y413770D01*
D02*
G37*
G36*
X1170750D02*
X1169250D01*
X1167865Y413196D01*
X1166804Y412136D01*
X1166230Y410750D01*
Y409250D01*
X1166804Y407864D01*
X1167865Y406804D01*
X1169250Y406230D01*
X1170750D01*
X1172135Y406804D01*
X1173196Y407864D01*
X1173770Y409250D01*
Y410750D01*
X1173196Y412136D01*
X1172135Y413196D01*
X1170750Y413770D01*
D02*
G37*
G36*
X800750Y408770D02*
X799250D01*
X797865Y408196D01*
X796804Y407136D01*
X796230Y405750D01*
Y404250D01*
X796804Y402864D01*
X797865Y401804D01*
X799250Y401230D01*
X800750D01*
X802136Y401804D01*
X803196Y402864D01*
X803770Y404250D01*
Y405750D01*
X803196Y407136D01*
X802136Y408196D01*
X800750Y408770D01*
D02*
G37*
G36*
X1700950Y404872D02*
X1698700D01*
Y400014D01*
X1708139D01*
X1707755Y400943D01*
X1706506Y402570D01*
X1704879Y403819D01*
X1702984Y404604D01*
X1700950Y404872D01*
D02*
G37*
G36*
X1692700D02*
X1690450D01*
X1688416Y404604D01*
X1686521Y403819D01*
X1684894Y402570D01*
X1683645Y400943D01*
X1683261Y400014D01*
X1692700D01*
Y404872D01*
D02*
G37*
G36*
X135770Y402540D02*
X124500D01*
Y397000D01*
X140040D01*
Y398270D01*
X135770Y402540D01*
D02*
G37*
G36*
X118500D02*
X107230D01*
X102960Y398270D01*
Y396509D01*
X101787Y396023D01*
X99270Y398540D01*
X88000D01*
Y390000D01*
Y381460D01*
X99270D01*
X103540Y385730D01*
Y387491D01*
X104713Y387977D01*
X107230Y385460D01*
X118500D01*
Y394000D01*
Y402540D01*
D02*
G37*
G36*
X1608250Y401270D02*
X1606750D01*
X1605365Y400696D01*
X1604304Y399636D01*
X1603730Y398250D01*
Y396750D01*
X1604304Y395364D01*
X1605365Y394304D01*
X1606750Y393730D01*
X1608250D01*
X1609635Y394304D01*
X1610696Y395364D01*
X1611270Y396750D01*
Y398250D01*
X1610696Y399636D01*
X1609635Y400696D01*
X1608250Y401270D01*
D02*
G37*
G36*
X82000Y398540D02*
X70730D01*
X66460Y394270D01*
Y393000D01*
X82000D01*
Y398540D01*
D02*
G37*
G36*
X1708139Y394014D02*
X1698700D01*
Y389157D01*
X1700950D01*
X1702984Y389425D01*
X1704879Y390210D01*
X1706506Y391459D01*
X1707755Y393086D01*
X1708139Y394014D01*
D02*
G37*
G36*
X1692700D02*
X1683261D01*
X1683645Y393086D01*
X1684894Y391459D01*
X1686521Y390210D01*
X1688416Y389425D01*
X1690450Y389157D01*
X1692700D01*
Y394014D01*
D02*
G37*
G36*
X140040Y391000D02*
X124500D01*
Y385460D01*
X135770D01*
X140040Y389730D01*
Y391000D01*
D02*
G37*
G36*
X1400750Y391270D02*
X1399250D01*
X1397865Y390696D01*
X1396804Y389636D01*
X1396230Y388250D01*
Y386750D01*
X1396804Y385364D01*
X1397865Y384304D01*
X1399250Y383730D01*
X1400750D01*
X1402135Y384304D01*
X1403196Y385364D01*
X1403770Y386750D01*
Y388250D01*
X1403196Y389636D01*
X1402135Y390696D01*
X1400750Y391270D01*
D02*
G37*
G36*
X82000Y387000D02*
X66460D01*
Y385730D01*
X70730Y381460D01*
X82000D01*
Y387000D01*
D02*
G37*
G36*
X51286Y399770D02*
X48714D01*
X46229Y399104D01*
X44001Y397818D01*
X42182Y395999D01*
X40896Y393771D01*
X40230Y391286D01*
Y388714D01*
X40896Y386229D01*
X42182Y384001D01*
X44001Y382182D01*
X46229Y380896D01*
X48714Y380230D01*
X51286D01*
X53771Y380896D01*
X55999Y382182D01*
X57818Y384001D01*
X59104Y386229D01*
X59770Y388714D01*
Y391286D01*
X59104Y393771D01*
X57818Y395999D01*
X55999Y397818D01*
X53771Y399104D01*
X51286Y399770D01*
D02*
G37*
G36*
X1115750Y373770D02*
X1114250D01*
X1112865Y373196D01*
X1111804Y372136D01*
X1111230Y370750D01*
Y369250D01*
X1111804Y367864D01*
X1112865Y366804D01*
X1114250Y366230D01*
X1115750D01*
X1117135Y366804D01*
X1118196Y367864D01*
X1118770Y369250D01*
Y370750D01*
X1118196Y372136D01*
X1117135Y373196D01*
X1115750Y373770D01*
D02*
G37*
G36*
X1320952Y373568D02*
X1319452D01*
X1318066Y372994D01*
X1317006Y371934D01*
X1316432Y370548D01*
Y369048D01*
X1317006Y367663D01*
X1318066Y366602D01*
X1319452Y366028D01*
X1320952D01*
X1322337Y366602D01*
X1323398Y367663D01*
X1323972Y369048D01*
Y370548D01*
X1323398Y371934D01*
X1322337Y372994D01*
X1320952Y373568D01*
D02*
G37*
G36*
X1375750Y368770D02*
X1374250D01*
X1372865Y368196D01*
X1371804Y367136D01*
X1371230Y365750D01*
Y364250D01*
X1371804Y362864D01*
X1372865Y361804D01*
X1374250Y361230D01*
X1375750D01*
X1377135Y361804D01*
X1378196Y362864D01*
X1378770Y364250D01*
Y365750D01*
X1378196Y367136D01*
X1377135Y368196D01*
X1375750Y368770D01*
D02*
G37*
G36*
X1340750D02*
X1339250D01*
X1337865Y368196D01*
X1336804Y367136D01*
X1336230Y365750D01*
Y364250D01*
X1336804Y362864D01*
X1337865Y361804D01*
X1339250Y361230D01*
X1340750D01*
X1342135Y361804D01*
X1343196Y362864D01*
X1343770Y364250D01*
Y365750D01*
X1343196Y367136D01*
X1342135Y368196D01*
X1340750Y368770D01*
D02*
G37*
G36*
X1730750Y366270D02*
X1729250D01*
X1727865Y365696D01*
X1726804Y364636D01*
X1726230Y363250D01*
Y361750D01*
X1726804Y360364D01*
X1727865Y359304D01*
X1729250Y358730D01*
X1730750D01*
X1732135Y359304D01*
X1733196Y360364D01*
X1733770Y361750D01*
Y363250D01*
X1733196Y364636D01*
X1732135Y365696D01*
X1730750Y366270D01*
D02*
G37*
G36*
X1105750Y368770D02*
X1104250D01*
X1102865Y368196D01*
X1101804Y367136D01*
X1101230Y365750D01*
Y364943D01*
X1100889Y364111D01*
X1100057Y363770D01*
X1099250D01*
X1097865Y363196D01*
X1096804Y362136D01*
X1096230Y360750D01*
Y359250D01*
X1096804Y357864D01*
X1097865Y356804D01*
X1099250Y356230D01*
X1100750D01*
X1102135Y356804D01*
X1103196Y357864D01*
X1103770Y359250D01*
Y360057D01*
X1104111Y360889D01*
X1104943Y361230D01*
X1105750D01*
X1107135Y361804D01*
X1108196Y362864D01*
X1108770Y364250D01*
Y365750D01*
X1108196Y367136D01*
X1107135Y368196D01*
X1105750Y368770D01*
D02*
G37*
G36*
X30000Y381333D02*
X28102Y381083D01*
X26334Y380350D01*
X24815Y379185D01*
X23650Y377666D01*
X22917Y375898D01*
X22667Y374000D01*
Y356000D01*
X22917Y354102D01*
X23650Y352334D01*
X24815Y350815D01*
X26334Y349650D01*
X28102Y348917D01*
X30000Y348667D01*
X31898Y348917D01*
X33666Y349650D01*
X35185Y350815D01*
X36350Y352334D01*
X37083Y354102D01*
X37333Y356000D01*
Y374000D01*
X37083Y375898D01*
X36350Y377666D01*
X35185Y379185D01*
X33666Y380350D01*
X31898Y381083D01*
X30000Y381333D01*
D02*
G37*
G36*
X1373922Y355598D02*
X1372422D01*
X1371037Y355024D01*
X1369976Y353963D01*
X1369402Y352578D01*
Y351078D01*
X1369976Y349692D01*
X1371037Y348632D01*
X1372422Y348058D01*
X1373922D01*
X1375308Y348632D01*
X1376368Y349692D01*
X1376942Y351078D01*
Y352578D01*
X1376368Y353963D01*
X1375308Y355024D01*
X1373922Y355598D01*
D02*
G37*
G36*
X1340750Y353770D02*
X1339250D01*
X1337865Y353196D01*
X1336804Y352136D01*
X1336230Y350750D01*
Y349250D01*
X1336804Y347864D01*
X1337865Y346804D01*
X1339250Y346230D01*
X1340750D01*
X1342135Y346804D01*
X1343196Y347864D01*
X1343770Y349250D01*
Y350750D01*
X1343196Y352136D01*
X1342135Y353196D01*
X1340750Y353770D01*
D02*
G37*
G36*
Y343770D02*
X1339250D01*
X1337865Y343196D01*
X1336804Y342136D01*
X1336230Y340750D01*
Y339250D01*
X1336804Y337864D01*
X1337865Y336804D01*
X1339250Y336230D01*
X1340750D01*
X1342135Y336804D01*
X1343196Y337864D01*
X1343770Y339250D01*
Y340750D01*
X1343196Y342136D01*
X1342135Y343196D01*
X1340750Y343770D01*
D02*
G37*
G36*
X1225750D02*
X1224250D01*
X1222865Y343196D01*
X1221804Y342136D01*
X1221230Y340750D01*
Y339250D01*
X1221804Y337864D01*
X1222865Y336804D01*
X1224250Y336230D01*
X1225750D01*
X1227135Y336804D01*
X1228196Y337864D01*
X1228770Y339250D01*
Y340750D01*
X1228196Y342136D01*
X1227135Y343196D01*
X1225750Y343770D01*
D02*
G37*
G36*
X98635Y347270D02*
X71365D01*
X67730Y343635D01*
Y336365D01*
X71365Y332730D01*
X98635D01*
X102270Y336365D01*
Y343635D01*
X98635Y347270D01*
D02*
G37*
G36*
X1591799Y368270D02*
X1588201D01*
X1584671Y367568D01*
X1581346Y366191D01*
X1578354Y364191D01*
X1575809Y361646D01*
X1573809Y358654D01*
X1572432Y355329D01*
X1571730Y351799D01*
Y348201D01*
X1572432Y344671D01*
X1573809Y341346D01*
X1575809Y338354D01*
X1578354Y335809D01*
X1581346Y333809D01*
X1584671Y332432D01*
X1588201Y331730D01*
X1591799D01*
X1595329Y332432D01*
X1598654Y333809D01*
X1601646Y335809D01*
X1604191Y338354D01*
X1606191Y341346D01*
X1607568Y344671D01*
X1608270Y348201D01*
Y351799D01*
X1607568Y355329D01*
X1606191Y358654D01*
X1604191Y361646D01*
X1601646Y364191D01*
X1598654Y366191D01*
X1595329Y367568D01*
X1591799Y368270D01*
D02*
G37*
G36*
X1181799D02*
X1178201D01*
X1174671Y367568D01*
X1171346Y366191D01*
X1168354Y364191D01*
X1165809Y361646D01*
X1163809Y358654D01*
X1162432Y355329D01*
X1161730Y351799D01*
Y348201D01*
X1162432Y344671D01*
X1163809Y341346D01*
X1165809Y338354D01*
X1168354Y335809D01*
X1171346Y333809D01*
X1174671Y332432D01*
X1178201Y331730D01*
X1181799D01*
X1185329Y332432D01*
X1188654Y333809D01*
X1191646Y335809D01*
X1194191Y338354D01*
X1196191Y341346D01*
X1197568Y344671D01*
X1198270Y348201D01*
Y351799D01*
X1197568Y355329D01*
X1196191Y358654D01*
X1194191Y361646D01*
X1191646Y364191D01*
X1188654Y366191D01*
X1185329Y367568D01*
X1181799Y368270D01*
D02*
G37*
G36*
X901799D02*
X898201D01*
X894671Y367568D01*
X891346Y366191D01*
X888354Y364191D01*
X885809Y361646D01*
X883809Y358654D01*
X882432Y355329D01*
X881730Y351799D01*
Y348201D01*
X882432Y344671D01*
X883809Y341346D01*
X885809Y338354D01*
X888354Y335809D01*
X891346Y333809D01*
X894671Y332432D01*
X898201Y331730D01*
X901799D01*
X905329Y332432D01*
X908654Y333809D01*
X911646Y335809D01*
X914191Y338354D01*
X916191Y341346D01*
X917568Y344671D01*
X918270Y348201D01*
Y351799D01*
X917568Y355329D01*
X916191Y358654D01*
X914191Y361646D01*
X911646Y364191D01*
X908654Y366191D01*
X905329Y367568D01*
X901799Y368270D01*
D02*
G37*
G36*
X51286Y349770D02*
X48714D01*
X46229Y349104D01*
X44001Y347818D01*
X42182Y345999D01*
X40896Y343771D01*
X40230Y341286D01*
Y338714D01*
X40896Y336229D01*
X42182Y334001D01*
X44001Y332182D01*
X46229Y330896D01*
X48714Y330230D01*
X51286D01*
X53771Y330896D01*
X55999Y332182D01*
X57818Y334001D01*
X59104Y336229D01*
X59770Y338714D01*
Y341286D01*
X59104Y343771D01*
X57818Y345999D01*
X55999Y347818D01*
X53771Y349104D01*
X51286Y349770D01*
D02*
G37*
G36*
X135135Y343270D02*
X107865D01*
X104230Y339635D01*
Y332365D01*
X107865Y328730D01*
X135135D01*
X138770Y332365D01*
Y339635D01*
X135135Y343270D01*
D02*
G37*
G36*
X1423250Y333770D02*
X1421750D01*
X1420365Y333196D01*
X1419304Y332136D01*
X1418730Y330750D01*
Y329250D01*
X1419304Y327864D01*
X1420365Y326804D01*
X1421750Y326230D01*
X1423250D01*
X1424635Y326804D01*
X1425696Y327864D01*
X1426270Y329250D01*
Y330750D01*
X1425696Y332136D01*
X1424635Y333196D01*
X1423250Y333770D01*
D02*
G37*
G36*
X1400750Y331270D02*
X1399250D01*
X1397865Y330696D01*
X1396804Y329636D01*
X1396230Y328250D01*
Y326750D01*
X1396804Y325364D01*
X1397865Y324304D01*
X1399250Y323730D01*
X1400750D01*
X1402135Y324304D01*
X1403196Y325364D01*
X1403770Y326750D01*
Y328250D01*
X1403196Y329636D01*
X1402135Y330696D01*
X1400750Y331270D01*
D02*
G37*
G36*
X1225750Y328810D02*
X1224250D01*
X1222865Y328236D01*
X1221804Y327175D01*
X1221230Y325790D01*
Y324290D01*
X1221804Y322905D01*
X1222865Y321844D01*
X1224250Y321270D01*
X1225750D01*
X1227135Y321844D01*
X1228196Y322905D01*
X1228770Y324290D01*
Y325790D01*
X1228196Y327175D01*
X1227135Y328236D01*
X1225750Y328810D01*
D02*
G37*
G36*
X202020D02*
X200520D01*
X199135Y328236D01*
X198074Y327175D01*
X197500Y325790D01*
Y324290D01*
X198074Y322905D01*
X199135Y321844D01*
X200520Y321270D01*
X202020D01*
X203405Y321844D01*
X204466Y322905D01*
X205040Y324290D01*
Y325790D01*
X204466Y327175D01*
X203405Y328236D01*
X202020Y328810D01*
D02*
G37*
G36*
X185750Y328770D02*
X184250D01*
X182864Y328196D01*
X181804Y327136D01*
X181230Y325750D01*
Y324250D01*
X181804Y322864D01*
X182864Y321804D01*
X184250Y321230D01*
X185750D01*
X187136Y321804D01*
X188196Y322864D01*
X188770Y324250D01*
Y325750D01*
X188196Y327136D01*
X187136Y328196D01*
X185750Y328770D01*
D02*
G37*
G36*
X451799Y348270D02*
X448201D01*
X444671Y347568D01*
X441346Y346191D01*
X438354Y344191D01*
X435809Y341646D01*
X433809Y338654D01*
X432432Y335329D01*
X431730Y331799D01*
Y328201D01*
X432432Y324671D01*
X433809Y321346D01*
X435809Y318354D01*
X438354Y315809D01*
X441346Y313809D01*
X444671Y312432D01*
X448201Y311730D01*
X451799D01*
X455329Y312432D01*
X458654Y313809D01*
X461646Y315809D01*
X464191Y318354D01*
X466191Y321346D01*
X467568Y324671D01*
X468270Y328201D01*
Y331799D01*
X467568Y335329D01*
X466191Y338654D01*
X464191Y341646D01*
X461646Y344191D01*
X458654Y346191D01*
X455329Y347568D01*
X451799Y348270D01*
D02*
G37*
G36*
X1685635Y334270D02*
X1674365D01*
X1668730Y328635D01*
Y317365D01*
X1674365Y311730D01*
X1685635D01*
X1691270Y317365D01*
Y328635D01*
X1685635Y334270D01*
D02*
G37*
G36*
X1325750Y313770D02*
X1324250D01*
X1322865Y313196D01*
X1321804Y312136D01*
X1321230Y310750D01*
Y309250D01*
X1321804Y307864D01*
X1322865Y306804D01*
X1324250Y306230D01*
X1325750D01*
X1327135Y306804D01*
X1328196Y307864D01*
X1328770Y309250D01*
Y310750D01*
X1328196Y312136D01*
X1327135Y313196D01*
X1325750Y313770D01*
D02*
G37*
G36*
X1060750Y298966D02*
X1059250D01*
X1057865Y298392D01*
X1056804Y297332D01*
X1056230Y295946D01*
Y294446D01*
X1056804Y293061D01*
X1057865Y292000D01*
X1059250Y291426D01*
X1060750D01*
X1062135Y292000D01*
X1063196Y293061D01*
X1063770Y294446D01*
Y295946D01*
X1063196Y297332D01*
X1062135Y298392D01*
X1060750Y298966D01*
D02*
G37*
G36*
X144000Y294333D02*
X126000D01*
X124102Y294083D01*
X122334Y293350D01*
X120815Y292185D01*
X119650Y290666D01*
X118917Y288898D01*
X118667Y287000D01*
X118917Y285102D01*
X119650Y283334D01*
X120815Y281815D01*
X122334Y280650D01*
X124102Y279917D01*
X126000Y279667D01*
X144000D01*
X145898Y279917D01*
X147666Y280650D01*
X149185Y281815D01*
X150350Y283334D01*
X151083Y285102D01*
X151333Y287000D01*
X151083Y288898D01*
X150350Y290666D01*
X149185Y292185D01*
X147666Y293350D01*
X145898Y294083D01*
X144000Y294333D01*
D02*
G37*
G36*
X1490669Y282063D02*
X1489169D01*
X1487784Y281489D01*
X1486723Y280429D01*
X1486149Y279043D01*
Y277543D01*
X1486723Y276158D01*
X1487784Y275097D01*
X1489169Y274523D01*
X1490669D01*
X1492055Y275097D01*
X1493116Y276158D01*
X1493689Y277543D01*
Y279043D01*
X1493116Y280429D01*
X1492055Y281489D01*
X1490669Y282063D01*
D02*
G37*
G36*
X51813Y300770D02*
X48187D01*
X44685Y299832D01*
X41545Y298019D01*
X38981Y295455D01*
X37168Y292315D01*
X36230Y288813D01*
Y285187D01*
X37168Y281685D01*
X38981Y278545D01*
X41545Y275981D01*
X44685Y274168D01*
X48187Y273230D01*
X51813D01*
X55315Y274168D01*
X58455Y275981D01*
X61019Y278545D01*
X62832Y281685D01*
X63770Y285187D01*
Y288813D01*
X62832Y292315D01*
X61019Y295455D01*
X58455Y298019D01*
X55315Y299832D01*
X51813Y300770D01*
D02*
G37*
G36*
X1250750Y278770D02*
X1249250D01*
X1247865Y278196D01*
X1246804Y277136D01*
X1246230Y275750D01*
Y274250D01*
X1246804Y272864D01*
X1247865Y271804D01*
X1249250Y271230D01*
X1250750D01*
X1252135Y271804D01*
X1253196Y272864D01*
X1253770Y274250D01*
Y275750D01*
X1253196Y277136D01*
X1252135Y278196D01*
X1250750Y278770D01*
D02*
G37*
G36*
X1240750D02*
X1239250D01*
X1237865Y278196D01*
X1236804Y277136D01*
X1236230Y275750D01*
Y274250D01*
X1236804Y272864D01*
X1237865Y271804D01*
X1239250Y271230D01*
X1240750D01*
X1242135Y271804D01*
X1243196Y272864D01*
X1243770Y274250D01*
Y275750D01*
X1243196Y277136D01*
X1242135Y278196D01*
X1240750Y278770D01*
D02*
G37*
G36*
X1230750D02*
X1229250D01*
X1227865Y278196D01*
X1226804Y277136D01*
X1226230Y275750D01*
Y274250D01*
X1226804Y272864D01*
X1227865Y271804D01*
X1229250Y271230D01*
X1230750D01*
X1232135Y271804D01*
X1233196Y272864D01*
X1233770Y274250D01*
Y275750D01*
X1233196Y277136D01*
X1232135Y278196D01*
X1230750Y278770D01*
D02*
G37*
G36*
X1650750Y276270D02*
X1649250D01*
X1647865Y275696D01*
X1646804Y274636D01*
X1646230Y273250D01*
Y271750D01*
X1646804Y270364D01*
X1647865Y269304D01*
X1649250Y268730D01*
X1650750D01*
X1652135Y269304D01*
X1653196Y270364D01*
X1653770Y271750D01*
Y273250D01*
X1653196Y274636D01*
X1652135Y275696D01*
X1650750Y276270D01*
D02*
G37*
G36*
X1640750D02*
X1639250D01*
X1637865Y275696D01*
X1636804Y274636D01*
X1636230Y273250D01*
Y271750D01*
X1636804Y270364D01*
X1637865Y269304D01*
X1639250Y268730D01*
X1640750D01*
X1642135Y269304D01*
X1643196Y270364D01*
X1643770Y271750D01*
Y273250D01*
X1643196Y274636D01*
X1642135Y275696D01*
X1640750Y276270D01*
D02*
G37*
G36*
X1630750D02*
X1629250D01*
X1627865Y275696D01*
X1626804Y274636D01*
X1626230Y273250D01*
Y271750D01*
X1626804Y270364D01*
X1627865Y269304D01*
X1629250Y268730D01*
X1630750D01*
X1632135Y269304D01*
X1633196Y270364D01*
X1633770Y271750D01*
Y273250D01*
X1633196Y274636D01*
X1632135Y275696D01*
X1630750Y276270D01*
D02*
G37*
G36*
X1450750D02*
X1449250D01*
X1447865Y275696D01*
X1446804Y274636D01*
X1446230Y273250D01*
Y271750D01*
X1446804Y270364D01*
X1447865Y269304D01*
X1449250Y268730D01*
X1450750D01*
X1452135Y269304D01*
X1453196Y270364D01*
X1453770Y271750D01*
Y273250D01*
X1453196Y274636D01*
X1452135Y275696D01*
X1450750Y276270D01*
D02*
G37*
G36*
X1440750D02*
X1439250D01*
X1437865Y275696D01*
X1436804Y274636D01*
X1436230Y273250D01*
Y271750D01*
X1436804Y270364D01*
X1437865Y269304D01*
X1439250Y268730D01*
X1440750D01*
X1442135Y269304D01*
X1443196Y270364D01*
X1443770Y271750D01*
Y273250D01*
X1443196Y274636D01*
X1442135Y275696D01*
X1440750Y276270D01*
D02*
G37*
G36*
X1430750D02*
X1429250D01*
X1427865Y275696D01*
X1426804Y274636D01*
X1426230Y273250D01*
Y271750D01*
X1426804Y270364D01*
X1427865Y269304D01*
X1429250Y268730D01*
X1430750D01*
X1432135Y269304D01*
X1433196Y270364D01*
X1433770Y271750D01*
Y273250D01*
X1433196Y274636D01*
X1432135Y275696D01*
X1430750Y276270D01*
D02*
G37*
G36*
X1050750D02*
X1049250D01*
X1047865Y275696D01*
X1046804Y274636D01*
X1046230Y273250D01*
Y271750D01*
X1046804Y270364D01*
X1047865Y269304D01*
X1049250Y268730D01*
X1050750D01*
X1052135Y269304D01*
X1053196Y270364D01*
X1053770Y271750D01*
Y273250D01*
X1053196Y274636D01*
X1052135Y275696D01*
X1050750Y276270D01*
D02*
G37*
G36*
X1040750D02*
X1039250D01*
X1037865Y275696D01*
X1036804Y274636D01*
X1036230Y273250D01*
Y271750D01*
X1036804Y270364D01*
X1037865Y269304D01*
X1039250Y268730D01*
X1040750D01*
X1042135Y269304D01*
X1043196Y270364D01*
X1043770Y271750D01*
Y273250D01*
X1043196Y274636D01*
X1042135Y275696D01*
X1040750Y276270D01*
D02*
G37*
G36*
X1030750D02*
X1029250D01*
X1027865Y275696D01*
X1026804Y274636D01*
X1026230Y273250D01*
Y271750D01*
X1026804Y270364D01*
X1027865Y269304D01*
X1029250Y268730D01*
X1030750D01*
X1032136Y269304D01*
X1033196Y270364D01*
X1033770Y271750D01*
Y273250D01*
X1033196Y274636D01*
X1032136Y275696D01*
X1030750Y276270D01*
D02*
G37*
G36*
X850750D02*
X849250D01*
X847865Y275696D01*
X846804Y274636D01*
X846230Y273250D01*
Y271750D01*
X846804Y270364D01*
X847865Y269304D01*
X849250Y268730D01*
X850750D01*
X852135Y269304D01*
X853196Y270364D01*
X853770Y271750D01*
Y273250D01*
X853196Y274636D01*
X852135Y275696D01*
X850750Y276270D01*
D02*
G37*
G36*
X840750D02*
X839250D01*
X837865Y275696D01*
X836804Y274636D01*
X836230Y273250D01*
Y271750D01*
X836804Y270364D01*
X837865Y269304D01*
X839250Y268730D01*
X840750D01*
X842135Y269304D01*
X843196Y270364D01*
X843770Y271750D01*
Y273250D01*
X843196Y274636D01*
X842135Y275696D01*
X840750Y276270D01*
D02*
G37*
G36*
X828210D02*
X826710D01*
X825324Y275696D01*
X824264Y274636D01*
X823690Y273250D01*
Y271750D01*
X824264Y270364D01*
X825324Y269304D01*
X826710Y268730D01*
X828210D01*
X829595Y269304D01*
X830656Y270364D01*
X831230Y271750D01*
Y273250D01*
X830656Y274636D01*
X829595Y275696D01*
X828210Y276270D01*
D02*
G37*
G36*
X650750D02*
X649250D01*
X647865Y275696D01*
X646804Y274636D01*
X646230Y273250D01*
Y271750D01*
X646804Y270364D01*
X647865Y269304D01*
X649250Y268730D01*
X650750D01*
X652135Y269304D01*
X653196Y270364D01*
X653770Y271750D01*
Y273250D01*
X653196Y274636D01*
X652135Y275696D01*
X650750Y276270D01*
D02*
G37*
G36*
X640750D02*
X639250D01*
X637864Y275696D01*
X636804Y274636D01*
X636230Y273250D01*
Y271750D01*
X636804Y270364D01*
X637864Y269304D01*
X639250Y268730D01*
X640750D01*
X642135Y269304D01*
X643196Y270364D01*
X643770Y271750D01*
Y273250D01*
X643196Y274636D01*
X642135Y275696D01*
X640750Y276270D01*
D02*
G37*
G36*
X630750D02*
X629250D01*
X627864Y275696D01*
X626804Y274636D01*
X626230Y273250D01*
Y271750D01*
X626804Y270364D01*
X627864Y269304D01*
X629250Y268730D01*
X630750D01*
X632136Y269304D01*
X633196Y270364D01*
X633770Y271750D01*
Y273250D01*
X633196Y274636D01*
X632136Y275696D01*
X630750Y276270D01*
D02*
G37*
G36*
X450750D02*
X449250D01*
X447864Y275696D01*
X446804Y274636D01*
X446230Y273250D01*
Y271750D01*
X446804Y270364D01*
X447864Y269304D01*
X449250Y268730D01*
X450750D01*
X452136Y269304D01*
X453196Y270364D01*
X453770Y271750D01*
Y273250D01*
X453196Y274636D01*
X452136Y275696D01*
X450750Y276270D01*
D02*
G37*
G36*
X440750D02*
X439250D01*
X437864Y275696D01*
X436804Y274636D01*
X436230Y273250D01*
Y271750D01*
X436804Y270364D01*
X437864Y269304D01*
X439250Y268730D01*
X440750D01*
X442136Y269304D01*
X443196Y270364D01*
X443770Y271750D01*
Y273250D01*
X443196Y274636D01*
X442136Y275696D01*
X440750Y276270D01*
D02*
G37*
G36*
X430750D02*
X429250D01*
X427864Y275696D01*
X426804Y274636D01*
X426230Y273250D01*
Y271750D01*
X426804Y270364D01*
X427864Y269304D01*
X429250Y268730D01*
X430750D01*
X432136Y269304D01*
X433196Y270364D01*
X433770Y271750D01*
Y273250D01*
X433196Y274636D01*
X432136Y275696D01*
X430750Y276270D01*
D02*
G37*
G36*
X1250750Y268770D02*
X1249250D01*
X1247865Y268196D01*
X1246804Y267136D01*
X1246230Y265750D01*
Y264250D01*
X1246804Y262864D01*
X1247865Y261804D01*
X1249250Y261230D01*
X1250750D01*
X1252135Y261804D01*
X1253196Y262864D01*
X1253770Y264250D01*
Y265750D01*
X1253196Y267136D01*
X1252135Y268196D01*
X1250750Y268770D01*
D02*
G37*
G36*
X1240750D02*
X1239250D01*
X1237865Y268196D01*
X1236804Y267136D01*
X1236230Y265750D01*
Y264250D01*
X1236804Y262864D01*
X1237865Y261804D01*
X1239250Y261230D01*
X1240750D01*
X1242135Y261804D01*
X1243196Y262864D01*
X1243770Y264250D01*
Y265750D01*
X1243196Y267136D01*
X1242135Y268196D01*
X1240750Y268770D01*
D02*
G37*
G36*
X1230750D02*
X1229250D01*
X1227865Y268196D01*
X1226804Y267136D01*
X1226230Y265750D01*
Y264250D01*
X1226804Y262864D01*
X1227865Y261804D01*
X1229250Y261230D01*
X1230750D01*
X1232135Y261804D01*
X1233196Y262864D01*
X1233770Y264250D01*
Y265750D01*
X1233196Y267136D01*
X1232135Y268196D01*
X1230750Y268770D01*
D02*
G37*
G36*
X541626Y294010D02*
X538374D01*
X535184Y293375D01*
X532180Y292131D01*
X529476Y290324D01*
X527176Y288025D01*
X525369Y285320D01*
X524124Y282316D01*
X523490Y279126D01*
Y275874D01*
X524124Y272684D01*
X525369Y269680D01*
X527176Y266975D01*
X529476Y264676D01*
X532180Y262869D01*
X535184Y261625D01*
X538374Y260990D01*
X541626D01*
X544816Y261625D01*
X547820Y262869D01*
X550524Y264676D01*
X552824Y266975D01*
X554631Y269680D01*
X555876Y272684D01*
X556510Y275874D01*
Y279126D01*
X555876Y282316D01*
X554631Y285320D01*
X552824Y288025D01*
X550524Y290324D01*
X547820Y292131D01*
X544816Y293375D01*
X541626Y294010D01*
D02*
G37*
G36*
X236826D02*
X233574D01*
X230384Y293375D01*
X227380Y292131D01*
X224676Y290324D01*
X222376Y288025D01*
X220569Y285320D01*
X219324Y282316D01*
X218690Y279126D01*
Y275874D01*
X219324Y272684D01*
X220569Y269680D01*
X222376Y266975D01*
X224676Y264676D01*
X227380Y262869D01*
X230384Y261625D01*
X233574Y260990D01*
X236826D01*
X240016Y261625D01*
X243020Y262869D01*
X245725Y264676D01*
X248024Y266975D01*
X249831Y269680D01*
X251075Y272684D01*
X251710Y275874D01*
Y279126D01*
X251075Y282316D01*
X249831Y285320D01*
X248024Y288025D01*
X245725Y290324D01*
X243020Y292131D01*
X240016Y293375D01*
X236826Y294010D01*
D02*
G37*
G36*
X1650750Y266270D02*
X1649250D01*
X1647865Y265696D01*
X1646804Y264636D01*
X1646230Y263250D01*
Y261750D01*
X1646804Y260364D01*
X1647865Y259304D01*
X1649250Y258730D01*
X1650750D01*
X1652135Y259304D01*
X1653196Y260364D01*
X1653770Y261750D01*
Y263250D01*
X1653196Y264636D01*
X1652135Y265696D01*
X1650750Y266270D01*
D02*
G37*
G36*
X1640750D02*
X1639250D01*
X1637865Y265696D01*
X1636804Y264636D01*
X1636230Y263250D01*
Y261750D01*
X1636804Y260364D01*
X1637865Y259304D01*
X1639250Y258730D01*
X1640750D01*
X1642135Y259304D01*
X1643196Y260364D01*
X1643770Y261750D01*
Y263250D01*
X1643196Y264636D01*
X1642135Y265696D01*
X1640750Y266270D01*
D02*
G37*
G36*
X1630750D02*
X1629250D01*
X1627865Y265696D01*
X1626804Y264636D01*
X1626230Y263250D01*
Y261750D01*
X1626804Y260364D01*
X1627865Y259304D01*
X1629250Y258730D01*
X1630750D01*
X1632135Y259304D01*
X1633196Y260364D01*
X1633770Y261750D01*
Y263250D01*
X1633196Y264636D01*
X1632135Y265696D01*
X1630750Y266270D01*
D02*
G37*
G36*
X1450750D02*
X1449250D01*
X1447865Y265696D01*
X1446804Y264636D01*
X1446230Y263250D01*
Y261750D01*
X1446804Y260364D01*
X1447865Y259304D01*
X1449250Y258730D01*
X1450750D01*
X1452135Y259304D01*
X1453196Y260364D01*
X1453770Y261750D01*
Y263250D01*
X1453196Y264636D01*
X1452135Y265696D01*
X1450750Y266270D01*
D02*
G37*
G36*
X1440750D02*
X1439250D01*
X1437865Y265696D01*
X1436804Y264636D01*
X1436230Y263250D01*
Y261750D01*
X1436804Y260364D01*
X1437865Y259304D01*
X1439250Y258730D01*
X1440750D01*
X1442135Y259304D01*
X1443196Y260364D01*
X1443770Y261750D01*
Y263250D01*
X1443196Y264636D01*
X1442135Y265696D01*
X1440750Y266270D01*
D02*
G37*
G36*
X1430750D02*
X1429250D01*
X1427865Y265696D01*
X1426804Y264636D01*
X1426230Y263250D01*
Y261750D01*
X1426804Y260364D01*
X1427865Y259304D01*
X1429250Y258730D01*
X1430750D01*
X1432135Y259304D01*
X1433196Y260364D01*
X1433770Y261750D01*
Y263250D01*
X1433196Y264636D01*
X1432135Y265696D01*
X1430750Y266270D01*
D02*
G37*
G36*
X1050750D02*
X1049250D01*
X1047865Y265696D01*
X1046804Y264636D01*
X1046230Y263250D01*
Y261750D01*
X1046804Y260364D01*
X1047865Y259304D01*
X1049250Y258730D01*
X1050750D01*
X1052135Y259304D01*
X1053196Y260364D01*
X1053770Y261750D01*
Y263250D01*
X1053196Y264636D01*
X1052135Y265696D01*
X1050750Y266270D01*
D02*
G37*
G36*
X1040750D02*
X1039250D01*
X1037865Y265696D01*
X1036804Y264636D01*
X1036230Y263250D01*
Y261750D01*
X1036804Y260364D01*
X1037865Y259304D01*
X1039250Y258730D01*
X1040750D01*
X1042135Y259304D01*
X1043196Y260364D01*
X1043770Y261750D01*
Y263250D01*
X1043196Y264636D01*
X1042135Y265696D01*
X1040750Y266270D01*
D02*
G37*
G36*
X1030750D02*
X1029250D01*
X1027865Y265696D01*
X1026804Y264636D01*
X1026230Y263250D01*
Y261750D01*
X1026804Y260364D01*
X1027865Y259304D01*
X1029250Y258730D01*
X1030750D01*
X1032136Y259304D01*
X1033196Y260364D01*
X1033770Y261750D01*
Y263250D01*
X1033196Y264636D01*
X1032136Y265696D01*
X1030750Y266270D01*
D02*
G37*
G36*
X850750D02*
X849250D01*
X847865Y265696D01*
X846804Y264636D01*
X846230Y263250D01*
Y261750D01*
X846804Y260364D01*
X847865Y259304D01*
X849250Y258730D01*
X850750D01*
X852135Y259304D01*
X853196Y260364D01*
X853770Y261750D01*
Y263250D01*
X853196Y264636D01*
X852135Y265696D01*
X850750Y266270D01*
D02*
G37*
G36*
X840750D02*
X839250D01*
X837865Y265696D01*
X836804Y264636D01*
X836230Y263250D01*
Y261750D01*
X836804Y260364D01*
X837865Y259304D01*
X839250Y258730D01*
X840750D01*
X842135Y259304D01*
X843196Y260364D01*
X843770Y261750D01*
Y263250D01*
X843196Y264636D01*
X842135Y265696D01*
X840750Y266270D01*
D02*
G37*
G36*
X828210D02*
X826710D01*
X825324Y265696D01*
X824264Y264636D01*
X823690Y263250D01*
Y261750D01*
X824264Y260364D01*
X825324Y259304D01*
X826710Y258730D01*
X828210D01*
X829595Y259304D01*
X830656Y260364D01*
X831230Y261750D01*
Y263250D01*
X830656Y264636D01*
X829595Y265696D01*
X828210Y266270D01*
D02*
G37*
G36*
X650750D02*
X649250D01*
X647865Y265696D01*
X646804Y264636D01*
X646230Y263250D01*
Y261750D01*
X646804Y260364D01*
X647865Y259304D01*
X649250Y258730D01*
X650750D01*
X652135Y259304D01*
X653196Y260364D01*
X653770Y261750D01*
Y263250D01*
X653196Y264636D01*
X652135Y265696D01*
X650750Y266270D01*
D02*
G37*
G36*
X640750D02*
X639250D01*
X637864Y265696D01*
X636804Y264636D01*
X636230Y263250D01*
Y261750D01*
X636804Y260364D01*
X637864Y259304D01*
X639250Y258730D01*
X640750D01*
X642135Y259304D01*
X643196Y260364D01*
X643770Y261750D01*
Y263250D01*
X643196Y264636D01*
X642135Y265696D01*
X640750Y266270D01*
D02*
G37*
G36*
X630750D02*
X629250D01*
X627864Y265696D01*
X626804Y264636D01*
X626230Y263250D01*
Y261750D01*
X626804Y260364D01*
X627864Y259304D01*
X629250Y258730D01*
X630750D01*
X632136Y259304D01*
X633196Y260364D01*
X633770Y261750D01*
Y263250D01*
X633196Y264636D01*
X632136Y265696D01*
X630750Y266270D01*
D02*
G37*
G36*
X450750D02*
X449250D01*
X447864Y265696D01*
X446804Y264636D01*
X446230Y263250D01*
Y261750D01*
X446804Y260364D01*
X447864Y259304D01*
X449250Y258730D01*
X450750D01*
X452136Y259304D01*
X453196Y260364D01*
X453770Y261750D01*
Y263250D01*
X453196Y264636D01*
X452136Y265696D01*
X450750Y266270D01*
D02*
G37*
G36*
X440750D02*
X439250D01*
X437864Y265696D01*
X436804Y264636D01*
X436230Y263250D01*
Y261750D01*
X436804Y260364D01*
X437864Y259304D01*
X439250Y258730D01*
X440750D01*
X442136Y259304D01*
X443196Y260364D01*
X443770Y261750D01*
Y263250D01*
X443196Y264636D01*
X442136Y265696D01*
X440750Y266270D01*
D02*
G37*
G36*
X430750D02*
X429250D01*
X427864Y265696D01*
X426804Y264636D01*
X426230Y263250D01*
Y261750D01*
X426804Y260364D01*
X427864Y259304D01*
X429250Y258730D01*
X430750D01*
X432136Y259304D01*
X433196Y260364D01*
X433770Y261750D01*
Y263250D01*
X433196Y264636D01*
X432136Y265696D01*
X430750Y266270D01*
D02*
G37*
G36*
X1250750Y258770D02*
X1249250D01*
X1247865Y258196D01*
X1246804Y257136D01*
X1246230Y255750D01*
Y254250D01*
X1246804Y252864D01*
X1247865Y251804D01*
X1249250Y251230D01*
X1250750D01*
X1252135Y251804D01*
X1253196Y252864D01*
X1253770Y254250D01*
Y255750D01*
X1253196Y257136D01*
X1252135Y258196D01*
X1250750Y258770D01*
D02*
G37*
G36*
X1240750D02*
X1239250D01*
X1237865Y258196D01*
X1236804Y257136D01*
X1236230Y255750D01*
Y254250D01*
X1236804Y252864D01*
X1237865Y251804D01*
X1239250Y251230D01*
X1240750D01*
X1242135Y251804D01*
X1243196Y252864D01*
X1243770Y254250D01*
Y255750D01*
X1243196Y257136D01*
X1242135Y258196D01*
X1240750Y258770D01*
D02*
G37*
G36*
X1230750D02*
X1229250D01*
X1227865Y258196D01*
X1226804Y257136D01*
X1226230Y255750D01*
Y254250D01*
X1226804Y252864D01*
X1227865Y251804D01*
X1229250Y251230D01*
X1230750D01*
X1232135Y251804D01*
X1233196Y252864D01*
X1233770Y254250D01*
Y255750D01*
X1233196Y257136D01*
X1232135Y258196D01*
X1230750Y258770D01*
D02*
G37*
G36*
X1650750Y256270D02*
X1649250D01*
X1647865Y255696D01*
X1646804Y254636D01*
X1646230Y253250D01*
Y251750D01*
X1646804Y250364D01*
X1647865Y249304D01*
X1649250Y248730D01*
X1650750D01*
X1652135Y249304D01*
X1653196Y250364D01*
X1653770Y251750D01*
Y253250D01*
X1653196Y254636D01*
X1652135Y255696D01*
X1650750Y256270D01*
D02*
G37*
G36*
X1640750D02*
X1639250D01*
X1637865Y255696D01*
X1636804Y254636D01*
X1636230Y253250D01*
Y251750D01*
X1636804Y250364D01*
X1637865Y249304D01*
X1639250Y248730D01*
X1640750D01*
X1642135Y249304D01*
X1643196Y250364D01*
X1643770Y251750D01*
Y253250D01*
X1643196Y254636D01*
X1642135Y255696D01*
X1640750Y256270D01*
D02*
G37*
G36*
X1630750D02*
X1629250D01*
X1627865Y255696D01*
X1626804Y254636D01*
X1626230Y253250D01*
Y251750D01*
X1626804Y250364D01*
X1627865Y249304D01*
X1629250Y248730D01*
X1630750D01*
X1632135Y249304D01*
X1633196Y250364D01*
X1633770Y251750D01*
Y253250D01*
X1633196Y254636D01*
X1632135Y255696D01*
X1630750Y256270D01*
D02*
G37*
G36*
X1618250D02*
X1616750D01*
X1615365Y255696D01*
X1614304Y254636D01*
X1613730Y253250D01*
Y251750D01*
X1614304Y250364D01*
X1615365Y249304D01*
X1616750Y248730D01*
X1618250D01*
X1619635Y249304D01*
X1620696Y250364D01*
X1621270Y251750D01*
Y253250D01*
X1620696Y254636D01*
X1619635Y255696D01*
X1618250Y256270D01*
D02*
G37*
G36*
X1450750D02*
X1449250D01*
X1447865Y255696D01*
X1446804Y254636D01*
X1446230Y253250D01*
Y251750D01*
X1446804Y250364D01*
X1447865Y249304D01*
X1449250Y248730D01*
X1450750D01*
X1452135Y249304D01*
X1453196Y250364D01*
X1453770Y251750D01*
Y253250D01*
X1453196Y254636D01*
X1452135Y255696D01*
X1450750Y256270D01*
D02*
G37*
G36*
X1440750D02*
X1439250D01*
X1437865Y255696D01*
X1436804Y254636D01*
X1436230Y253250D01*
Y251750D01*
X1436804Y250364D01*
X1437865Y249304D01*
X1439250Y248730D01*
X1440750D01*
X1442135Y249304D01*
X1443196Y250364D01*
X1443770Y251750D01*
Y253250D01*
X1443196Y254636D01*
X1442135Y255696D01*
X1440750Y256270D01*
D02*
G37*
G36*
X1430750D02*
X1429250D01*
X1427865Y255696D01*
X1426804Y254636D01*
X1426230Y253250D01*
Y251750D01*
X1426804Y250364D01*
X1427865Y249304D01*
X1429250Y248730D01*
X1430750D01*
X1432135Y249304D01*
X1433196Y250364D01*
X1433770Y251750D01*
Y253250D01*
X1433196Y254636D01*
X1432135Y255696D01*
X1430750Y256270D01*
D02*
G37*
G36*
X1418250D02*
X1416750D01*
X1415365Y255696D01*
X1414304Y254636D01*
X1413730Y253250D01*
Y251750D01*
X1414304Y250364D01*
X1415365Y249304D01*
X1416750Y248730D01*
X1418250D01*
X1419635Y249304D01*
X1420696Y250364D01*
X1421270Y251750D01*
Y253250D01*
X1420696Y254636D01*
X1419635Y255696D01*
X1418250Y256270D01*
D02*
G37*
G36*
X1218250D02*
X1216750D01*
X1215365Y255696D01*
X1214304Y254636D01*
X1213730Y253250D01*
Y251750D01*
X1214304Y250364D01*
X1215365Y249304D01*
X1216750Y248730D01*
X1218250D01*
X1219636Y249304D01*
X1220696Y250364D01*
X1221270Y251750D01*
Y253250D01*
X1220696Y254636D01*
X1219636Y255696D01*
X1218250Y256270D01*
D02*
G37*
G36*
X1050750D02*
X1049250D01*
X1047865Y255696D01*
X1046804Y254636D01*
X1046230Y253250D01*
Y251750D01*
X1046804Y250364D01*
X1047865Y249304D01*
X1049250Y248730D01*
X1050750D01*
X1052135Y249304D01*
X1053196Y250364D01*
X1053770Y251750D01*
Y253250D01*
X1053196Y254636D01*
X1052135Y255696D01*
X1050750Y256270D01*
D02*
G37*
G36*
X1040750D02*
X1039250D01*
X1037865Y255696D01*
X1036804Y254636D01*
X1036230Y253250D01*
Y251750D01*
X1036804Y250364D01*
X1037865Y249304D01*
X1039250Y248730D01*
X1040750D01*
X1042135Y249304D01*
X1043196Y250364D01*
X1043770Y251750D01*
Y253250D01*
X1043196Y254636D01*
X1042135Y255696D01*
X1040750Y256270D01*
D02*
G37*
G36*
X1030750D02*
X1029250D01*
X1027865Y255696D01*
X1026804Y254636D01*
X1026230Y253250D01*
Y251750D01*
X1026804Y250364D01*
X1027865Y249304D01*
X1029250Y248730D01*
X1030750D01*
X1032136Y249304D01*
X1033196Y250364D01*
X1033770Y251750D01*
Y253250D01*
X1033196Y254636D01*
X1032136Y255696D01*
X1030750Y256270D01*
D02*
G37*
G36*
X1018250D02*
X1016750D01*
X1015365Y255696D01*
X1014304Y254636D01*
X1013730Y253250D01*
Y251750D01*
X1014304Y250364D01*
X1015365Y249304D01*
X1016750Y248730D01*
X1018250D01*
X1019636Y249304D01*
X1020696Y250364D01*
X1021270Y251750D01*
Y253250D01*
X1020696Y254636D01*
X1019636Y255696D01*
X1018250Y256270D01*
D02*
G37*
G36*
X850750D02*
X849250D01*
X847865Y255696D01*
X846804Y254636D01*
X846230Y253250D01*
Y251750D01*
X846804Y250364D01*
X847865Y249304D01*
X849250Y248730D01*
X850750D01*
X852135Y249304D01*
X853196Y250364D01*
X853770Y251750D01*
Y253250D01*
X853196Y254636D01*
X852135Y255696D01*
X850750Y256270D01*
D02*
G37*
G36*
X840750D02*
X839250D01*
X837865Y255696D01*
X836804Y254636D01*
X836230Y253250D01*
Y251750D01*
X836804Y250364D01*
X837865Y249304D01*
X839250Y248730D01*
X840750D01*
X842135Y249304D01*
X843196Y250364D01*
X843770Y251750D01*
Y253250D01*
X843196Y254636D01*
X842135Y255696D01*
X840750Y256270D01*
D02*
G37*
G36*
X828210D02*
X826710D01*
X825324Y255696D01*
X824264Y254636D01*
X823690Y253250D01*
Y251750D01*
X824264Y250364D01*
X825324Y249304D01*
X826710Y248730D01*
X828210D01*
X829595Y249304D01*
X830656Y250364D01*
X831230Y251750D01*
Y253250D01*
X830656Y254636D01*
X829595Y255696D01*
X828210Y256270D01*
D02*
G37*
G36*
X818250D02*
X816750D01*
X815365Y255696D01*
X814304Y254636D01*
X813730Y253250D01*
Y251750D01*
X814304Y250364D01*
X815365Y249304D01*
X816750Y248730D01*
X818250D01*
X819635Y249304D01*
X820696Y250364D01*
X821270Y251750D01*
Y253250D01*
X820696Y254636D01*
X819635Y255696D01*
X818250Y256270D01*
D02*
G37*
G36*
X650750D02*
X649250D01*
X647865Y255696D01*
X646804Y254636D01*
X646230Y253250D01*
Y251750D01*
X646804Y250364D01*
X647865Y249304D01*
X649250Y248730D01*
X650750D01*
X652135Y249304D01*
X653196Y250364D01*
X653770Y251750D01*
Y253250D01*
X653196Y254636D01*
X652135Y255696D01*
X650750Y256270D01*
D02*
G37*
G36*
X640750D02*
X639250D01*
X637864Y255696D01*
X636804Y254636D01*
X636230Y253250D01*
Y251750D01*
X636804Y250364D01*
X637864Y249304D01*
X639250Y248730D01*
X640750D01*
X642135Y249304D01*
X643196Y250364D01*
X643770Y251750D01*
Y253250D01*
X643196Y254636D01*
X642135Y255696D01*
X640750Y256270D01*
D02*
G37*
G36*
X630750D02*
X629250D01*
X627864Y255696D01*
X626804Y254636D01*
X626230Y253250D01*
Y251750D01*
X626804Y250364D01*
X627864Y249304D01*
X629250Y248730D01*
X630750D01*
X632136Y249304D01*
X633196Y250364D01*
X633770Y251750D01*
Y253250D01*
X633196Y254636D01*
X632136Y255696D01*
X630750Y256270D01*
D02*
G37*
G36*
X618250D02*
X616750D01*
X615364Y255696D01*
X614304Y254636D01*
X613730Y253250D01*
Y251750D01*
X614304Y250364D01*
X615364Y249304D01*
X616750Y248730D01*
X618250D01*
X619636Y249304D01*
X620696Y250364D01*
X621270Y251750D01*
Y253250D01*
X620696Y254636D01*
X619636Y255696D01*
X618250Y256270D01*
D02*
G37*
G36*
X450750D02*
X449250D01*
X447864Y255696D01*
X446804Y254636D01*
X446230Y253250D01*
Y251750D01*
X446804Y250364D01*
X447864Y249304D01*
X449250Y248730D01*
X450750D01*
X452136Y249304D01*
X453196Y250364D01*
X453770Y251750D01*
Y253250D01*
X453196Y254636D01*
X452136Y255696D01*
X450750Y256270D01*
D02*
G37*
G36*
X440750D02*
X439250D01*
X437864Y255696D01*
X436804Y254636D01*
X436230Y253250D01*
Y251750D01*
X436804Y250364D01*
X437864Y249304D01*
X439250Y248730D01*
X440750D01*
X442136Y249304D01*
X443196Y250364D01*
X443770Y251750D01*
Y253250D01*
X443196Y254636D01*
X442136Y255696D01*
X440750Y256270D01*
D02*
G37*
G36*
X430750D02*
X429250D01*
X427864Y255696D01*
X426804Y254636D01*
X426230Y253250D01*
Y251750D01*
X426804Y250364D01*
X427864Y249304D01*
X429250Y248730D01*
X430750D01*
X432136Y249304D01*
X433196Y250364D01*
X433770Y251750D01*
Y253250D01*
X433196Y254636D01*
X432136Y255696D01*
X430750Y256270D01*
D02*
G37*
G36*
X418250D02*
X416750D01*
X415364Y255696D01*
X414304Y254636D01*
X413730Y253250D01*
Y251750D01*
X414304Y250364D01*
X415364Y249304D01*
X416750Y248730D01*
X418250D01*
X419636Y249304D01*
X420696Y250364D01*
X421270Y251750D01*
Y253250D01*
X420696Y254636D01*
X419636Y255696D01*
X418250Y256270D01*
D02*
G37*
G36*
X1250750Y248770D02*
X1249250D01*
X1247865Y248196D01*
X1246804Y247136D01*
X1246230Y245750D01*
Y244250D01*
X1246804Y242864D01*
X1247865Y241804D01*
X1249250Y241230D01*
X1250750D01*
X1252135Y241804D01*
X1253196Y242864D01*
X1253770Y244250D01*
Y245750D01*
X1253196Y247136D01*
X1252135Y248196D01*
X1250750Y248770D01*
D02*
G37*
G36*
X1240750D02*
X1239250D01*
X1237865Y248196D01*
X1236804Y247136D01*
X1236230Y245750D01*
Y244250D01*
X1236804Y242864D01*
X1237865Y241804D01*
X1239250Y241230D01*
X1240750D01*
X1242135Y241804D01*
X1243196Y242864D01*
X1243770Y244250D01*
Y245750D01*
X1243196Y247136D01*
X1242135Y248196D01*
X1240750Y248770D01*
D02*
G37*
G36*
X1230750D02*
X1229250D01*
X1227865Y248196D01*
X1226804Y247136D01*
X1226230Y245750D01*
Y244250D01*
X1226804Y242864D01*
X1227865Y241804D01*
X1229250Y241230D01*
X1230750D01*
X1232135Y241804D01*
X1233196Y242864D01*
X1233770Y244250D01*
Y245750D01*
X1233196Y247136D01*
X1232135Y248196D01*
X1230750Y248770D01*
D02*
G37*
G36*
X1650750Y246270D02*
X1649250D01*
X1647865Y245696D01*
X1646804Y244636D01*
X1646230Y243250D01*
Y241750D01*
X1646804Y240364D01*
X1647865Y239304D01*
X1649250Y238730D01*
X1650750D01*
X1652135Y239304D01*
X1653196Y240364D01*
X1653770Y241750D01*
Y243250D01*
X1653196Y244636D01*
X1652135Y245696D01*
X1650750Y246270D01*
D02*
G37*
G36*
X1640750D02*
X1639250D01*
X1637865Y245696D01*
X1636804Y244636D01*
X1636230Y243250D01*
Y241750D01*
X1636804Y240364D01*
X1637865Y239304D01*
X1639250Y238730D01*
X1640750D01*
X1642135Y239304D01*
X1643196Y240364D01*
X1643770Y241750D01*
Y243250D01*
X1643196Y244636D01*
X1642135Y245696D01*
X1640750Y246270D01*
D02*
G37*
G36*
X1630750D02*
X1629250D01*
X1627865Y245696D01*
X1626804Y244636D01*
X1626230Y243250D01*
Y241750D01*
X1626804Y240364D01*
X1627865Y239304D01*
X1629250Y238730D01*
X1630750D01*
X1632135Y239304D01*
X1633196Y240364D01*
X1633770Y241750D01*
Y243250D01*
X1633196Y244636D01*
X1632135Y245696D01*
X1630750Y246270D01*
D02*
G37*
G36*
X1450750D02*
X1449250D01*
X1447865Y245696D01*
X1446804Y244636D01*
X1446230Y243250D01*
Y241750D01*
X1446804Y240364D01*
X1447865Y239304D01*
X1449250Y238730D01*
X1450750D01*
X1452135Y239304D01*
X1453196Y240364D01*
X1453770Y241750D01*
Y243250D01*
X1453196Y244636D01*
X1452135Y245696D01*
X1450750Y246270D01*
D02*
G37*
G36*
X1440750D02*
X1439250D01*
X1437865Y245696D01*
X1436804Y244636D01*
X1436230Y243250D01*
Y241750D01*
X1436804Y240364D01*
X1437865Y239304D01*
X1439250Y238730D01*
X1440750D01*
X1442135Y239304D01*
X1443196Y240364D01*
X1443770Y241750D01*
Y243250D01*
X1443196Y244636D01*
X1442135Y245696D01*
X1440750Y246270D01*
D02*
G37*
G36*
X1430750D02*
X1429250D01*
X1427865Y245696D01*
X1426804Y244636D01*
X1426230Y243250D01*
Y241750D01*
X1426804Y240364D01*
X1427865Y239304D01*
X1429250Y238730D01*
X1430750D01*
X1432135Y239304D01*
X1433196Y240364D01*
X1433770Y241750D01*
Y243250D01*
X1433196Y244636D01*
X1432135Y245696D01*
X1430750Y246270D01*
D02*
G37*
G36*
X1050750D02*
X1049250D01*
X1047865Y245696D01*
X1046804Y244636D01*
X1046230Y243250D01*
Y241750D01*
X1046804Y240364D01*
X1047865Y239304D01*
X1049250Y238730D01*
X1050750D01*
X1052135Y239304D01*
X1053196Y240364D01*
X1053770Y241750D01*
Y243250D01*
X1053196Y244636D01*
X1052135Y245696D01*
X1050750Y246270D01*
D02*
G37*
G36*
X1040750D02*
X1039250D01*
X1037865Y245696D01*
X1036804Y244636D01*
X1036230Y243250D01*
Y241750D01*
X1036804Y240364D01*
X1037865Y239304D01*
X1039250Y238730D01*
X1040750D01*
X1042135Y239304D01*
X1043196Y240364D01*
X1043770Y241750D01*
Y243250D01*
X1043196Y244636D01*
X1042135Y245696D01*
X1040750Y246270D01*
D02*
G37*
G36*
X1030750D02*
X1029250D01*
X1027865Y245696D01*
X1026804Y244636D01*
X1026230Y243250D01*
Y241750D01*
X1026804Y240364D01*
X1027865Y239304D01*
X1029250Y238730D01*
X1030750D01*
X1032136Y239304D01*
X1033196Y240364D01*
X1033770Y241750D01*
Y243250D01*
X1033196Y244636D01*
X1032136Y245696D01*
X1030750Y246270D01*
D02*
G37*
G36*
X850750D02*
X849250D01*
X847865Y245696D01*
X846804Y244636D01*
X846230Y243250D01*
Y241750D01*
X846804Y240364D01*
X847865Y239304D01*
X849250Y238730D01*
X850750D01*
X852135Y239304D01*
X853196Y240364D01*
X853770Y241750D01*
Y243250D01*
X853196Y244636D01*
X852135Y245696D01*
X850750Y246270D01*
D02*
G37*
G36*
X840750D02*
X839250D01*
X837865Y245696D01*
X836804Y244636D01*
X836230Y243250D01*
Y241750D01*
X836804Y240364D01*
X837865Y239304D01*
X839250Y238730D01*
X840750D01*
X842135Y239304D01*
X843196Y240364D01*
X843770Y241750D01*
Y243250D01*
X843196Y244636D01*
X842135Y245696D01*
X840750Y246270D01*
D02*
G37*
G36*
X828210D02*
X826710D01*
X825324Y245696D01*
X824264Y244636D01*
X823690Y243250D01*
Y241750D01*
X824264Y240364D01*
X825324Y239304D01*
X826710Y238730D01*
X828210D01*
X829595Y239304D01*
X830656Y240364D01*
X831230Y241750D01*
Y243250D01*
X830656Y244636D01*
X829595Y245696D01*
X828210Y246270D01*
D02*
G37*
G36*
X650750D02*
X649250D01*
X647865Y245696D01*
X646804Y244636D01*
X646230Y243250D01*
Y241750D01*
X646804Y240364D01*
X647865Y239304D01*
X649250Y238730D01*
X650750D01*
X652135Y239304D01*
X653196Y240364D01*
X653770Y241750D01*
Y243250D01*
X653196Y244636D01*
X652135Y245696D01*
X650750Y246270D01*
D02*
G37*
G36*
X640750D02*
X639250D01*
X637864Y245696D01*
X636804Y244636D01*
X636230Y243250D01*
Y241750D01*
X636804Y240364D01*
X637864Y239304D01*
X639250Y238730D01*
X640750D01*
X642135Y239304D01*
X643196Y240364D01*
X643770Y241750D01*
Y243250D01*
X643196Y244636D01*
X642135Y245696D01*
X640750Y246270D01*
D02*
G37*
G36*
X630750D02*
X629250D01*
X627864Y245696D01*
X626804Y244636D01*
X626230Y243250D01*
Y241750D01*
X626804Y240364D01*
X627864Y239304D01*
X629250Y238730D01*
X630750D01*
X632136Y239304D01*
X633196Y240364D01*
X633770Y241750D01*
Y243250D01*
X633196Y244636D01*
X632136Y245696D01*
X630750Y246270D01*
D02*
G37*
G36*
X450750D02*
X449250D01*
X447864Y245696D01*
X446804Y244636D01*
X446230Y243250D01*
Y241750D01*
X446804Y240364D01*
X447864Y239304D01*
X449250Y238730D01*
X450750D01*
X452136Y239304D01*
X453196Y240364D01*
X453770Y241750D01*
Y243250D01*
X453196Y244636D01*
X452136Y245696D01*
X450750Y246270D01*
D02*
G37*
G36*
X440750D02*
X439250D01*
X437864Y245696D01*
X436804Y244636D01*
X436230Y243250D01*
Y241750D01*
X436804Y240364D01*
X437864Y239304D01*
X439250Y238730D01*
X440750D01*
X442136Y239304D01*
X443196Y240364D01*
X443770Y241750D01*
Y243250D01*
X443196Y244636D01*
X442136Y245696D01*
X440750Y246270D01*
D02*
G37*
G36*
X430750D02*
X429250D01*
X427864Y245696D01*
X426804Y244636D01*
X426230Y243250D01*
Y241750D01*
X426804Y240364D01*
X427864Y239304D01*
X429250Y238730D01*
X430750D01*
X432136Y239304D01*
X433196Y240364D01*
X433770Y241750D01*
Y243250D01*
X433196Y244636D01*
X432136Y245696D01*
X430750Y246270D01*
D02*
G37*
G36*
X1685635Y258270D02*
X1674365D01*
X1668730Y252635D01*
Y241365D01*
X1674365Y235730D01*
X1685635D01*
X1691270Y241365D01*
Y252635D01*
X1685635Y258270D01*
D02*
G37*
G36*
X1250750Y238770D02*
X1249250D01*
X1247865Y238196D01*
X1246804Y237136D01*
X1246230Y235750D01*
Y234250D01*
X1246804Y232864D01*
X1247865Y231804D01*
X1249250Y231230D01*
X1250750D01*
X1252135Y231804D01*
X1253196Y232864D01*
X1253770Y234250D01*
Y235750D01*
X1253196Y237136D01*
X1252135Y238196D01*
X1250750Y238770D01*
D02*
G37*
G36*
X1240750D02*
X1239250D01*
X1237865Y238196D01*
X1236804Y237136D01*
X1236230Y235750D01*
Y234250D01*
X1236804Y232864D01*
X1237865Y231804D01*
X1239250Y231230D01*
X1240750D01*
X1242135Y231804D01*
X1243196Y232864D01*
X1243770Y234250D01*
Y235750D01*
X1243196Y237136D01*
X1242135Y238196D01*
X1240750Y238770D01*
D02*
G37*
G36*
X1230750D02*
X1229250D01*
X1227865Y238196D01*
X1226804Y237136D01*
X1226230Y235750D01*
Y234250D01*
X1226804Y232864D01*
X1227865Y231804D01*
X1229250Y231230D01*
X1230750D01*
X1232135Y231804D01*
X1233196Y232864D01*
X1233770Y234250D01*
Y235750D01*
X1233196Y237136D01*
X1232135Y238196D01*
X1230750Y238770D01*
D02*
G37*
G36*
X449686Y237334D02*
X448186D01*
X446801Y236760D01*
X445740Y235699D01*
X445166Y234314D01*
Y232814D01*
X445740Y231428D01*
X446801Y230368D01*
X448186Y229794D01*
X449686D01*
X451072Y230368D01*
X452132Y231428D01*
X452706Y232814D01*
Y234314D01*
X452132Y235699D01*
X451072Y236760D01*
X449686Y237334D01*
D02*
G37*
G36*
X1650750Y236270D02*
X1649250D01*
X1647865Y235696D01*
X1646804Y234636D01*
X1646230Y233250D01*
Y231750D01*
X1646804Y230364D01*
X1647865Y229304D01*
X1649250Y228730D01*
X1650750D01*
X1652135Y229304D01*
X1653196Y230364D01*
X1653770Y231750D01*
Y233250D01*
X1653196Y234636D01*
X1652135Y235696D01*
X1650750Y236270D01*
D02*
G37*
G36*
X1640750D02*
X1639250D01*
X1637865Y235696D01*
X1636804Y234636D01*
X1636230Y233250D01*
Y231750D01*
X1636804Y230364D01*
X1637865Y229304D01*
X1639250Y228730D01*
X1640750D01*
X1642135Y229304D01*
X1643196Y230364D01*
X1643770Y231750D01*
Y233250D01*
X1643196Y234636D01*
X1642135Y235696D01*
X1640750Y236270D01*
D02*
G37*
G36*
X1630750D02*
X1629250D01*
X1627865Y235696D01*
X1626804Y234636D01*
X1626230Y233250D01*
Y231750D01*
X1626804Y230364D01*
X1627865Y229304D01*
X1629250Y228730D01*
X1630750D01*
X1632135Y229304D01*
X1633196Y230364D01*
X1633770Y231750D01*
Y233250D01*
X1633196Y234636D01*
X1632135Y235696D01*
X1630750Y236270D01*
D02*
G37*
G36*
X1615750D02*
X1614250D01*
X1612865Y235696D01*
X1611804Y234636D01*
X1611230Y233250D01*
Y231750D01*
X1611804Y230364D01*
X1612865Y229304D01*
X1614250Y228730D01*
X1615750D01*
X1617136Y229304D01*
X1618196Y230364D01*
X1618770Y231750D01*
Y233250D01*
X1618196Y234636D01*
X1617136Y235696D01*
X1615750Y236270D01*
D02*
G37*
G36*
X1450750D02*
X1449250D01*
X1447865Y235696D01*
X1446804Y234636D01*
X1446230Y233250D01*
Y231750D01*
X1446804Y230364D01*
X1447865Y229304D01*
X1449250Y228730D01*
X1450750D01*
X1452135Y229304D01*
X1453196Y230364D01*
X1453770Y231750D01*
Y233250D01*
X1453196Y234636D01*
X1452135Y235696D01*
X1450750Y236270D01*
D02*
G37*
G36*
X1440750D02*
X1439250D01*
X1437865Y235696D01*
X1436804Y234636D01*
X1436230Y233250D01*
Y231750D01*
X1436804Y230364D01*
X1437865Y229304D01*
X1439250Y228730D01*
X1440750D01*
X1442135Y229304D01*
X1443196Y230364D01*
X1443770Y231750D01*
Y233250D01*
X1443196Y234636D01*
X1442135Y235696D01*
X1440750Y236270D01*
D02*
G37*
G36*
X1430750D02*
X1429250D01*
X1427865Y235696D01*
X1426804Y234636D01*
X1426230Y233250D01*
Y231750D01*
X1426804Y230364D01*
X1427865Y229304D01*
X1429250Y228730D01*
X1430750D01*
X1432135Y229304D01*
X1433196Y230364D01*
X1433770Y231750D01*
Y233250D01*
X1433196Y234636D01*
X1432135Y235696D01*
X1430750Y236270D01*
D02*
G37*
G36*
X1415750D02*
X1414250D01*
X1412865Y235696D01*
X1411804Y234636D01*
X1411230Y233250D01*
Y231750D01*
X1411804Y230364D01*
X1412865Y229304D01*
X1414250Y228730D01*
X1415750D01*
X1417135Y229304D01*
X1418196Y230364D01*
X1418770Y231750D01*
Y233250D01*
X1418196Y234636D01*
X1417135Y235696D01*
X1415750Y236270D01*
D02*
G37*
G36*
X1215750D02*
X1214250D01*
X1212865Y235696D01*
X1211804Y234636D01*
X1211230Y233250D01*
Y231750D01*
X1211804Y230364D01*
X1212865Y229304D01*
X1214250Y228730D01*
X1215750D01*
X1217136Y229304D01*
X1218196Y230364D01*
X1218770Y231750D01*
Y233250D01*
X1218196Y234636D01*
X1217136Y235696D01*
X1215750Y236270D01*
D02*
G37*
G36*
X1050750D02*
X1049250D01*
X1047865Y235696D01*
X1046804Y234636D01*
X1046230Y233250D01*
Y231750D01*
X1046804Y230364D01*
X1047865Y229304D01*
X1049250Y228730D01*
X1050750D01*
X1052135Y229304D01*
X1053196Y230364D01*
X1053770Y231750D01*
Y233250D01*
X1053196Y234636D01*
X1052135Y235696D01*
X1050750Y236270D01*
D02*
G37*
G36*
X1040750D02*
X1039250D01*
X1037865Y235696D01*
X1036804Y234636D01*
X1036230Y233250D01*
Y231750D01*
X1036804Y230364D01*
X1037865Y229304D01*
X1039250Y228730D01*
X1040750D01*
X1042135Y229304D01*
X1043196Y230364D01*
X1043770Y231750D01*
Y233250D01*
X1043196Y234636D01*
X1042135Y235696D01*
X1040750Y236270D01*
D02*
G37*
G36*
X1030750D02*
X1029250D01*
X1027865Y235696D01*
X1026804Y234636D01*
X1026230Y233250D01*
Y231750D01*
X1026804Y230364D01*
X1027865Y229304D01*
X1029250Y228730D01*
X1030750D01*
X1032136Y229304D01*
X1033196Y230364D01*
X1033770Y231750D01*
Y233250D01*
X1033196Y234636D01*
X1032136Y235696D01*
X1030750Y236270D01*
D02*
G37*
G36*
X1015750D02*
X1014250D01*
X1012865Y235696D01*
X1011804Y234636D01*
X1011230Y233250D01*
Y231750D01*
X1011804Y230364D01*
X1012865Y229304D01*
X1014250Y228730D01*
X1015750D01*
X1017136Y229304D01*
X1018196Y230364D01*
X1018770Y231750D01*
Y233250D01*
X1018196Y234636D01*
X1017136Y235696D01*
X1015750Y236270D01*
D02*
G37*
G36*
X850750D02*
X849250D01*
X847865Y235696D01*
X846804Y234636D01*
X846230Y233250D01*
Y231750D01*
X846804Y230364D01*
X847865Y229304D01*
X849250Y228730D01*
X850750D01*
X852135Y229304D01*
X853196Y230364D01*
X853770Y231750D01*
Y233250D01*
X853196Y234636D01*
X852135Y235696D01*
X850750Y236270D01*
D02*
G37*
G36*
X840750D02*
X839250D01*
X837865Y235696D01*
X836804Y234636D01*
X836230Y233250D01*
Y231750D01*
X836804Y230364D01*
X837865Y229304D01*
X839250Y228730D01*
X840750D01*
X842135Y229304D01*
X843196Y230364D01*
X843770Y231750D01*
Y233250D01*
X843196Y234636D01*
X842135Y235696D01*
X840750Y236270D01*
D02*
G37*
G36*
X828210D02*
X826710D01*
X825324Y235696D01*
X824264Y234636D01*
X823690Y233250D01*
Y231750D01*
X824264Y230364D01*
X825324Y229304D01*
X826710Y228730D01*
X828210D01*
X829595Y229304D01*
X830656Y230364D01*
X831230Y231750D01*
Y233250D01*
X830656Y234636D01*
X829595Y235696D01*
X828210Y236270D01*
D02*
G37*
G36*
X815750D02*
X814250D01*
X812865Y235696D01*
X811804Y234636D01*
X811230Y233250D01*
Y231750D01*
X811804Y230364D01*
X812865Y229304D01*
X814250Y228730D01*
X815750D01*
X817136Y229304D01*
X818196Y230364D01*
X818770Y231750D01*
Y233250D01*
X818196Y234636D01*
X817136Y235696D01*
X815750Y236270D01*
D02*
G37*
G36*
X650750D02*
X649250D01*
X647865Y235696D01*
X646804Y234636D01*
X646230Y233250D01*
Y231750D01*
X646804Y230364D01*
X647865Y229304D01*
X649250Y228730D01*
X650750D01*
X652135Y229304D01*
X653196Y230364D01*
X653770Y231750D01*
Y233250D01*
X653196Y234636D01*
X652135Y235696D01*
X650750Y236270D01*
D02*
G37*
G36*
X640750D02*
X639250D01*
X637864Y235696D01*
X636804Y234636D01*
X636230Y233250D01*
Y231750D01*
X636804Y230364D01*
X637864Y229304D01*
X639250Y228730D01*
X640750D01*
X642135Y229304D01*
X643196Y230364D01*
X643770Y231750D01*
Y233250D01*
X643196Y234636D01*
X642135Y235696D01*
X640750Y236270D01*
D02*
G37*
G36*
X630750D02*
X629250D01*
X627864Y235696D01*
X626804Y234636D01*
X626230Y233250D01*
Y231750D01*
X626804Y230364D01*
X627864Y229304D01*
X629250Y228730D01*
X630750D01*
X632136Y229304D01*
X633196Y230364D01*
X633770Y231750D01*
Y233250D01*
X633196Y234636D01*
X632136Y235696D01*
X630750Y236270D01*
D02*
G37*
G36*
X615750D02*
X614250D01*
X612864Y235696D01*
X611804Y234636D01*
X611230Y233250D01*
Y231750D01*
X611804Y230364D01*
X612864Y229304D01*
X614250Y228730D01*
X615750D01*
X617136Y229304D01*
X618196Y230364D01*
X618770Y231750D01*
Y233250D01*
X618196Y234636D01*
X617136Y235696D01*
X615750Y236270D01*
D02*
G37*
G36*
X440750D02*
X439250D01*
X437864Y235696D01*
X436804Y234636D01*
X436230Y233250D01*
Y231750D01*
X436804Y230364D01*
X437864Y229304D01*
X439250Y228730D01*
X440750D01*
X442136Y229304D01*
X443196Y230364D01*
X443770Y231750D01*
Y233250D01*
X443196Y234636D01*
X442136Y235696D01*
X440750Y236270D01*
D02*
G37*
G36*
X430750D02*
X429250D01*
X427864Y235696D01*
X426804Y234636D01*
X426230Y233250D01*
Y231750D01*
X426804Y230364D01*
X427864Y229304D01*
X429250Y228730D01*
X430750D01*
X432136Y229304D01*
X433196Y230364D01*
X433770Y231750D01*
Y233250D01*
X433196Y234636D01*
X432136Y235696D01*
X430750Y236270D01*
D02*
G37*
G36*
X415750D02*
X414250D01*
X412864Y235696D01*
X411804Y234636D01*
X411230Y233250D01*
Y231750D01*
X411804Y230364D01*
X412864Y229304D01*
X414250Y228730D01*
X415750D01*
X417136Y229304D01*
X418196Y230364D01*
X418770Y231750D01*
Y233250D01*
X418196Y234636D01*
X417136Y235696D01*
X415750Y236270D01*
D02*
G37*
G36*
X1605750Y231270D02*
X1604250D01*
X1602865Y230696D01*
X1601804Y229636D01*
X1601230Y228250D01*
Y226750D01*
X1601804Y225364D01*
X1602865Y224304D01*
X1604250Y223730D01*
X1605750D01*
X1607135Y224304D01*
X1608196Y225364D01*
X1608770Y226750D01*
Y228250D01*
X1608196Y229636D01*
X1607135Y230696D01*
X1605750Y231270D01*
D02*
G37*
G36*
X1405750D02*
X1404250D01*
X1402865Y230696D01*
X1401804Y229636D01*
X1401230Y228250D01*
Y226750D01*
X1401804Y225364D01*
X1402865Y224304D01*
X1404250Y223730D01*
X1405750D01*
X1407135Y224304D01*
X1408196Y225364D01*
X1408770Y226750D01*
Y228250D01*
X1408196Y229636D01*
X1407135Y230696D01*
X1405750Y231270D01*
D02*
G37*
G36*
X1205750D02*
X1204250D01*
X1202865Y230696D01*
X1201804Y229636D01*
X1201230Y228250D01*
Y226750D01*
X1201804Y225364D01*
X1202865Y224304D01*
X1204250Y223730D01*
X1205750D01*
X1207136Y224304D01*
X1208196Y225364D01*
X1208770Y226750D01*
Y228250D01*
X1208196Y229636D01*
X1207136Y230696D01*
X1205750Y231270D01*
D02*
G37*
G36*
X1005750D02*
X1004250D01*
X1002865Y230696D01*
X1001804Y229636D01*
X1001230Y228250D01*
Y226750D01*
X1001804Y225364D01*
X1002865Y224304D01*
X1004250Y223730D01*
X1005750D01*
X1007136Y224304D01*
X1008196Y225364D01*
X1008770Y226750D01*
Y228250D01*
X1008196Y229636D01*
X1007136Y230696D01*
X1005750Y231270D01*
D02*
G37*
G36*
X805750D02*
X804250D01*
X802865Y230696D01*
X801804Y229636D01*
X801230Y228250D01*
Y226750D01*
X801804Y225364D01*
X802865Y224304D01*
X804250Y223730D01*
X805750D01*
X807135Y224304D01*
X808196Y225364D01*
X808770Y226750D01*
Y228250D01*
X808196Y229636D01*
X807135Y230696D01*
X805750Y231270D01*
D02*
G37*
G36*
X605750D02*
X604250D01*
X602864Y230696D01*
X601804Y229636D01*
X601230Y228250D01*
Y226750D01*
X601804Y225364D01*
X602864Y224304D01*
X604250Y223730D01*
X605750D01*
X607136Y224304D01*
X608196Y225364D01*
X608770Y226750D01*
Y228250D01*
X608196Y229636D01*
X607136Y230696D01*
X605750Y231270D01*
D02*
G37*
G36*
X405750D02*
X404250D01*
X402864Y230696D01*
X401804Y229636D01*
X401230Y228250D01*
Y226750D01*
X401804Y225364D01*
X402864Y224304D01*
X404250Y223730D01*
X405750D01*
X407136Y224304D01*
X408196Y225364D01*
X408770Y226750D01*
Y228250D01*
X408196Y229636D01*
X407136Y230696D01*
X405750Y231270D01*
D02*
G37*
G36*
X96201Y234220D02*
X93799D01*
X91480Y233598D01*
X89400Y232398D01*
X87702Y230700D01*
X86502Y228620D01*
X85880Y226301D01*
Y223899D01*
X86502Y221580D01*
X87702Y219500D01*
X89400Y217802D01*
X91480Y216602D01*
X93799Y215980D01*
X96201D01*
X98520Y216602D01*
X100600Y217802D01*
X102298Y219500D01*
X103498Y221580D01*
X104120Y223899D01*
Y226301D01*
X103498Y228620D01*
X102298Y230700D01*
X100600Y232398D01*
X98520Y233598D01*
X96201Y234220D01*
D02*
G37*
G36*
X66201D02*
X63799D01*
X61480Y233598D01*
X59400Y232398D01*
X57702Y230700D01*
X56501Y228620D01*
X55880Y226301D01*
Y223899D01*
X56501Y221580D01*
X57702Y219500D01*
X59400Y217802D01*
X61480Y216602D01*
X63799Y215980D01*
X66201D01*
X68520Y216602D01*
X70600Y217802D01*
X72298Y219500D01*
X73499Y221580D01*
X74120Y223899D01*
Y226301D01*
X73499Y228620D01*
X72298Y230700D01*
X70600Y232398D01*
X68520Y233598D01*
X66201Y234220D01*
D02*
G37*
G36*
X68000Y205053D02*
Y198100D01*
X74953D01*
X74682Y199110D01*
X73314Y201480D01*
X71380Y203414D01*
X69010Y204782D01*
X68000Y205053D01*
D02*
G37*
G36*
X62000D02*
X60990Y204782D01*
X58620Y203414D01*
X56686Y201480D01*
X55318Y199110D01*
X55047Y198100D01*
X62000D01*
Y205053D01*
D02*
G37*
G36*
X96201Y204220D02*
X93799D01*
X91480Y203598D01*
X89400Y202398D01*
X87702Y200700D01*
X86502Y198620D01*
X85880Y196301D01*
Y193899D01*
X86502Y191580D01*
X87702Y189500D01*
X89400Y187802D01*
X91480Y186602D01*
X93799Y185980D01*
X96201D01*
X98520Y186602D01*
X100600Y187802D01*
X102298Y189500D01*
X103498Y191580D01*
X104120Y193899D01*
Y196301D01*
X103498Y198620D01*
X102298Y200700D01*
X100600Y202398D01*
X98520Y203598D01*
X96201Y204220D01*
D02*
G37*
G36*
X74953Y192100D02*
X68000D01*
Y185147D01*
X69010Y185418D01*
X71380Y186786D01*
X73314Y188720D01*
X74682Y191090D01*
X74953Y192100D01*
D02*
G37*
G36*
X62000D02*
X55047D01*
X55318Y191090D01*
X56686Y188720D01*
X58620Y186786D01*
X60990Y185418D01*
X62000Y185147D01*
Y192100D01*
D02*
G37*
G36*
X68000Y175053D02*
Y168100D01*
X74953D01*
X74682Y169110D01*
X73314Y171480D01*
X71380Y173414D01*
X69010Y174782D01*
X68000Y175053D01*
D02*
G37*
G36*
X62000D02*
X60990Y174782D01*
X58620Y173414D01*
X56686Y171480D01*
X55318Y169110D01*
X55047Y168100D01*
X62000D01*
Y175053D01*
D02*
G37*
G36*
X96201Y174220D02*
X93799D01*
X91480Y173598D01*
X89400Y172398D01*
X87702Y170700D01*
X86502Y168620D01*
X85880Y166301D01*
Y163899D01*
X86502Y161580D01*
X87702Y159500D01*
X89400Y157802D01*
X91480Y156601D01*
X93799Y155980D01*
X96201D01*
X98520Y156601D01*
X100600Y157802D01*
X102298Y159500D01*
X103498Y161580D01*
X104120Y163899D01*
Y166301D01*
X103498Y168620D01*
X102298Y170700D01*
X100600Y172398D01*
X98520Y173598D01*
X96201Y174220D01*
D02*
G37*
G36*
X74953Y162100D02*
X68000D01*
Y155147D01*
X69010Y155418D01*
X71380Y156786D01*
X73314Y158720D01*
X74682Y161090D01*
X74953Y162100D01*
D02*
G37*
G36*
X62000D02*
X55047D01*
X55318Y161090D01*
X56686Y158720D01*
X58620Y156786D01*
X60990Y155418D01*
X62000Y155147D01*
Y162100D01*
D02*
G37*
G36*
X240750Y153770D02*
X239250D01*
X237864Y153196D01*
X236804Y152135D01*
X236230Y150750D01*
Y149250D01*
X236804Y147864D01*
X237864Y146804D01*
X239250Y146230D01*
X240750D01*
X242136Y146804D01*
X243196Y147864D01*
X243770Y149250D01*
Y150750D01*
X243196Y152135D01*
X242136Y153196D01*
X240750Y153770D01*
D02*
G37*
G36*
X230750D02*
X229250D01*
X227864Y153196D01*
X226804Y152135D01*
X226230Y150750D01*
Y149250D01*
X226804Y147864D01*
X227864Y146804D01*
X229250Y146230D01*
X230750D01*
X232136Y146804D01*
X233196Y147864D01*
X233770Y149250D01*
Y150750D01*
X233196Y152135D01*
X232136Y153196D01*
X230750Y153770D01*
D02*
G37*
G36*
X220750D02*
X219250D01*
X217864Y153196D01*
X216804Y152135D01*
X216230Y150750D01*
Y149250D01*
X216804Y147864D01*
X217864Y146804D01*
X219250Y146230D01*
X220750D01*
X222136Y146804D01*
X223196Y147864D01*
X223770Y149250D01*
Y150750D01*
X223196Y152135D01*
X222136Y153196D01*
X220750Y153770D01*
D02*
G37*
G36*
X210750D02*
X209250D01*
X207864Y153196D01*
X206804Y152135D01*
X206230Y150750D01*
Y149250D01*
X206804Y147864D01*
X207864Y146804D01*
X209250Y146230D01*
X210750D01*
X212136Y146804D01*
X213196Y147864D01*
X213770Y149250D01*
Y150750D01*
X213196Y152135D01*
X212136Y153196D01*
X210750Y153770D01*
D02*
G37*
G36*
X200750D02*
X199250D01*
X197864Y153196D01*
X196804Y152135D01*
X196230Y150750D01*
Y149250D01*
X196804Y147864D01*
X197864Y146804D01*
X199250Y146230D01*
X200750D01*
X202136Y146804D01*
X203196Y147864D01*
X203770Y149250D01*
Y150750D01*
X203196Y152135D01*
X202136Y153196D01*
X200750Y153770D01*
D02*
G37*
G36*
X150750D02*
X149250D01*
X147865Y153196D01*
X146804Y152135D01*
X146230Y150750D01*
Y149250D01*
X146804Y147864D01*
X147865Y146804D01*
X149250Y146230D01*
X150750D01*
X152135Y146804D01*
X153196Y147864D01*
X153770Y149250D01*
Y150750D01*
X153196Y152135D01*
X152135Y153196D01*
X150750Y153770D01*
D02*
G37*
G36*
X75390Y145490D02*
X68000D01*
Y138100D01*
X75390D01*
Y145490D01*
D02*
G37*
G36*
X62000D02*
X54610D01*
Y138100D01*
X62000D01*
Y145490D01*
D02*
G37*
G36*
X240750Y143770D02*
X239250D01*
X237864Y143196D01*
X236804Y142135D01*
X236230Y140750D01*
Y139250D01*
X236804Y137865D01*
X237864Y136804D01*
X239250Y136230D01*
X240750D01*
X242136Y136804D01*
X243196Y137865D01*
X243770Y139250D01*
Y140750D01*
X243196Y142135D01*
X242136Y143196D01*
X240750Y143770D01*
D02*
G37*
G36*
X230750D02*
X229250D01*
X227864Y143196D01*
X226804Y142135D01*
X226230Y140750D01*
Y139250D01*
X226804Y137865D01*
X227864Y136804D01*
X229250Y136230D01*
X230750D01*
X232136Y136804D01*
X233196Y137865D01*
X233770Y139250D01*
Y140750D01*
X233196Y142135D01*
X232136Y143196D01*
X230750Y143770D01*
D02*
G37*
G36*
X220750D02*
X219250D01*
X217864Y143196D01*
X216804Y142135D01*
X216230Y140750D01*
Y139250D01*
X216804Y137865D01*
X217864Y136804D01*
X219250Y136230D01*
X220750D01*
X222136Y136804D01*
X223196Y137865D01*
X223770Y139250D01*
Y140750D01*
X223196Y142135D01*
X222136Y143196D01*
X220750Y143770D01*
D02*
G37*
G36*
X210750D02*
X209250D01*
X207864Y143196D01*
X206804Y142135D01*
X206230Y140750D01*
Y139250D01*
X206804Y137865D01*
X207864Y136804D01*
X209250Y136230D01*
X210750D01*
X212136Y136804D01*
X213196Y137865D01*
X213770Y139250D01*
Y140750D01*
X213196Y142135D01*
X212136Y143196D01*
X210750Y143770D01*
D02*
G37*
G36*
X200750D02*
X199250D01*
X197864Y143196D01*
X196804Y142135D01*
X196230Y140750D01*
Y139250D01*
X196804Y137865D01*
X197864Y136804D01*
X199250Y136230D01*
X200750D01*
X202136Y136804D01*
X203196Y137865D01*
X203770Y139250D01*
Y140750D01*
X203196Y142135D01*
X202136Y143196D01*
X200750Y143770D01*
D02*
G37*
G36*
X150750D02*
X149250D01*
X147865Y143196D01*
X146804Y142135D01*
X146230Y140750D01*
Y139250D01*
X146804Y137865D01*
X147865Y136804D01*
X149250Y136230D01*
X150750D01*
X152135Y136804D01*
X153196Y137865D01*
X153770Y139250D01*
Y140750D01*
X153196Y142135D01*
X152135Y143196D01*
X150750Y143770D01*
D02*
G37*
G36*
X1485750Y138770D02*
X1484250D01*
X1482865Y138196D01*
X1481804Y137135D01*
X1481230Y135750D01*
Y134250D01*
X1481804Y132865D01*
X1482865Y131804D01*
X1484250Y131230D01*
X1485750D01*
X1487135Y131804D01*
X1488196Y132865D01*
X1488770Y134250D01*
Y135750D01*
X1488196Y137135D01*
X1487135Y138196D01*
X1485750Y138770D01*
D02*
G37*
G36*
X1285750D02*
X1284250D01*
X1282865Y138196D01*
X1281804Y137135D01*
X1281230Y135750D01*
Y134250D01*
X1281804Y132865D01*
X1282865Y131804D01*
X1284250Y131230D01*
X1285750D01*
X1287135Y131804D01*
X1288196Y132865D01*
X1288770Y134250D01*
Y135750D01*
X1288196Y137135D01*
X1287135Y138196D01*
X1285750Y138770D01*
D02*
G37*
G36*
X1085750D02*
X1084250D01*
X1082865Y138196D01*
X1081804Y137135D01*
X1081230Y135750D01*
Y134250D01*
X1081804Y132865D01*
X1082865Y131804D01*
X1084250Y131230D01*
X1085750D01*
X1087135Y131804D01*
X1088196Y132865D01*
X1088770Y134250D01*
Y135750D01*
X1088196Y137135D01*
X1087135Y138196D01*
X1085750Y138770D01*
D02*
G37*
G36*
X925750D02*
X924250D01*
X922865Y138196D01*
X921804Y137135D01*
X921230Y135750D01*
Y134250D01*
X921804Y132865D01*
X922865Y131804D01*
X924250Y131230D01*
X925750D01*
X927135Y131804D01*
X928196Y132865D01*
X928770Y134250D01*
Y135750D01*
X928196Y137135D01*
X927135Y138196D01*
X925750Y138770D01*
D02*
G37*
G36*
X885750D02*
X884250D01*
X882865Y138196D01*
X881804Y137135D01*
X881230Y135750D01*
Y134250D01*
X881804Y132865D01*
X882865Y131804D01*
X884250Y131230D01*
X885750D01*
X887135Y131804D01*
X888196Y132865D01*
X888770Y134250D01*
Y135750D01*
X888196Y137135D01*
X887135Y138196D01*
X885750Y138770D01*
D02*
G37*
G36*
X725750D02*
X724250D01*
X722865Y138196D01*
X721804Y137135D01*
X721230Y135750D01*
Y134250D01*
X721804Y132865D01*
X722865Y131804D01*
X724250Y131230D01*
X725750D01*
X727135Y131804D01*
X728196Y132865D01*
X728770Y134250D01*
Y135750D01*
X728196Y137135D01*
X727135Y138196D01*
X725750Y138770D01*
D02*
G37*
G36*
X685750D02*
X684250D01*
X682865Y138196D01*
X681804Y137135D01*
X681230Y135750D01*
Y134250D01*
X681804Y132865D01*
X682865Y131804D01*
X684250Y131230D01*
X685750D01*
X687135Y131804D01*
X688196Y132865D01*
X688770Y134250D01*
Y135750D01*
X688196Y137135D01*
X687135Y138196D01*
X685750Y138770D01*
D02*
G37*
G36*
X525750D02*
X524250D01*
X522864Y138196D01*
X521804Y137135D01*
X521230Y135750D01*
Y134250D01*
X521804Y132865D01*
X522864Y131804D01*
X524250Y131230D01*
X525750D01*
X527136Y131804D01*
X528196Y132865D01*
X528770Y134250D01*
Y135750D01*
X528196Y137135D01*
X527136Y138196D01*
X525750Y138770D01*
D02*
G37*
G36*
X485750D02*
X484250D01*
X482864Y138196D01*
X481804Y137135D01*
X481230Y135750D01*
Y134250D01*
X481804Y132865D01*
X482864Y131804D01*
X484250Y131230D01*
X485750D01*
X487136Y131804D01*
X488196Y132865D01*
X488770Y134250D01*
Y135750D01*
X488196Y137135D01*
X487136Y138196D01*
X485750Y138770D01*
D02*
G37*
G36*
X285750D02*
X284250D01*
X282864Y138196D01*
X281804Y137135D01*
X281230Y135750D01*
Y134250D01*
X281804Y132865D01*
X282864Y131804D01*
X284250Y131230D01*
X285750D01*
X287136Y131804D01*
X288196Y132865D01*
X288770Y134250D01*
Y135750D01*
X288196Y137135D01*
X287136Y138196D01*
X285750Y138770D01*
D02*
G37*
G36*
X1125750Y133770D02*
X1124250D01*
X1122865Y133196D01*
X1121804Y132135D01*
X1121230Y130750D01*
Y129250D01*
X1121804Y127865D01*
X1122865Y126804D01*
X1124250Y126230D01*
X1125750D01*
X1127135Y126804D01*
X1128196Y127865D01*
X1128770Y129250D01*
Y130750D01*
X1128196Y132135D01*
X1127135Y133196D01*
X1125750Y133770D01*
D02*
G37*
G36*
X240750D02*
X239250D01*
X237864Y133196D01*
X236804Y132135D01*
X236230Y130750D01*
Y129250D01*
X236804Y127865D01*
X237864Y126804D01*
X239250Y126230D01*
X240750D01*
X242136Y126804D01*
X243196Y127865D01*
X243770Y129250D01*
Y130750D01*
X243196Y132135D01*
X242136Y133196D01*
X240750Y133770D01*
D02*
G37*
G36*
X230750D02*
X229250D01*
X227864Y133196D01*
X226804Y132135D01*
X226230Y130750D01*
Y129250D01*
X226804Y127865D01*
X227864Y126804D01*
X229250Y126230D01*
X230750D01*
X232136Y126804D01*
X233196Y127865D01*
X233770Y129250D01*
Y130750D01*
X233196Y132135D01*
X232136Y133196D01*
X230750Y133770D01*
D02*
G37*
G36*
X220750D02*
X219250D01*
X217864Y133196D01*
X216804Y132135D01*
X216230Y130750D01*
Y129250D01*
X216804Y127865D01*
X217864Y126804D01*
X219250Y126230D01*
X220750D01*
X222136Y126804D01*
X223196Y127865D01*
X223770Y129250D01*
Y130750D01*
X223196Y132135D01*
X222136Y133196D01*
X220750Y133770D01*
D02*
G37*
G36*
X210750D02*
X209250D01*
X207864Y133196D01*
X206804Y132135D01*
X206230Y130750D01*
Y129250D01*
X206804Y127865D01*
X207864Y126804D01*
X209250Y126230D01*
X210750D01*
X212136Y126804D01*
X213196Y127865D01*
X213770Y129250D01*
Y130750D01*
X213196Y132135D01*
X212136Y133196D01*
X210750Y133770D01*
D02*
G37*
G36*
X200750D02*
X199250D01*
X197864Y133196D01*
X196804Y132135D01*
X196230Y130750D01*
Y129250D01*
X196804Y127865D01*
X197864Y126804D01*
X199250Y126230D01*
X200750D01*
X202136Y126804D01*
X203196Y127865D01*
X203770Y129250D01*
Y130750D01*
X203196Y132135D01*
X202136Y133196D01*
X200750Y133770D01*
D02*
G37*
G36*
X150750D02*
X149250D01*
X147865Y133196D01*
X146804Y132135D01*
X146230Y130750D01*
Y129250D01*
X146804Y127865D01*
X147865Y126804D01*
X149250Y126230D01*
X150750D01*
X152135Y126804D01*
X153196Y127865D01*
X153770Y129250D01*
Y130750D01*
X153196Y132135D01*
X152135Y133196D01*
X150750Y133770D01*
D02*
G37*
G36*
X96201Y144220D02*
X93799D01*
X91480Y143598D01*
X89400Y142398D01*
X87702Y140700D01*
X86502Y138620D01*
X85880Y136301D01*
Y133899D01*
X86502Y131580D01*
X87702Y129500D01*
X89400Y127802D01*
X91480Y126601D01*
X93799Y125980D01*
X96201D01*
X98520Y126601D01*
X100600Y127802D01*
X102298Y129500D01*
X103498Y131580D01*
X104120Y133899D01*
Y136301D01*
X103498Y138620D01*
X102298Y140700D01*
X100600Y142398D01*
X98520Y143598D01*
X96201Y144220D01*
D02*
G37*
G36*
X75390Y132100D02*
X68000D01*
Y124710D01*
X75390D01*
Y132100D01*
D02*
G37*
G36*
X62000D02*
X54610D01*
Y124710D01*
X62000D01*
Y132100D01*
D02*
G37*
G36*
X1530750Y123770D02*
X1529250D01*
X1527865Y123196D01*
X1526804Y122135D01*
X1526230Y120750D01*
Y119250D01*
X1526804Y117865D01*
X1527865Y116804D01*
X1529250Y116230D01*
X1530750D01*
X1532135Y116804D01*
X1533196Y117865D01*
X1533770Y119250D01*
Y120750D01*
X1533196Y122135D01*
X1532135Y123196D01*
X1530750Y123770D01*
D02*
G37*
G36*
X1330750D02*
X1329250D01*
X1327865Y123196D01*
X1326804Y122135D01*
X1326230Y120750D01*
Y119250D01*
X1326804Y117865D01*
X1327865Y116804D01*
X1329250Y116230D01*
X1330750D01*
X1332135Y116804D01*
X1333196Y117865D01*
X1333770Y119250D01*
Y120750D01*
X1333196Y122135D01*
X1332135Y123196D01*
X1330750Y123770D01*
D02*
G37*
G36*
X335750D02*
X334250D01*
X332864Y123196D01*
X331804Y122135D01*
X331230Y120750D01*
Y119250D01*
X331804Y117865D01*
X332864Y116804D01*
X334250Y116230D01*
X335750D01*
X337136Y116804D01*
X338196Y117865D01*
X338770Y119250D01*
Y120750D01*
X338196Y122135D01*
X337136Y123196D01*
X335750Y123770D01*
D02*
G37*
G36*
X240750D02*
X239250D01*
X237864Y123196D01*
X236804Y122135D01*
X236230Y120750D01*
Y119250D01*
X236804Y117865D01*
X237864Y116804D01*
X239250Y116230D01*
X240750D01*
X242136Y116804D01*
X243196Y117865D01*
X243770Y119250D01*
Y120750D01*
X243196Y122135D01*
X242136Y123196D01*
X240750Y123770D01*
D02*
G37*
G36*
X230750D02*
X229250D01*
X227864Y123196D01*
X226804Y122135D01*
X226230Y120750D01*
Y119250D01*
X226804Y117865D01*
X227864Y116804D01*
X229250Y116230D01*
X230750D01*
X232136Y116804D01*
X233196Y117865D01*
X233770Y119250D01*
Y120750D01*
X233196Y122135D01*
X232136Y123196D01*
X230750Y123770D01*
D02*
G37*
G36*
X220750D02*
X219250D01*
X217864Y123196D01*
X216804Y122135D01*
X216230Y120750D01*
Y119250D01*
X216804Y117865D01*
X217864Y116804D01*
X219250Y116230D01*
X220750D01*
X222136Y116804D01*
X223196Y117865D01*
X223770Y119250D01*
Y120750D01*
X223196Y122135D01*
X222136Y123196D01*
X220750Y123770D01*
D02*
G37*
G36*
X210750D02*
X209250D01*
X207864Y123196D01*
X206804Y122135D01*
X206230Y120750D01*
Y119250D01*
X206804Y117865D01*
X207864Y116804D01*
X209250Y116230D01*
X210750D01*
X212136Y116804D01*
X213196Y117865D01*
X213770Y119250D01*
Y120750D01*
X213196Y122135D01*
X212136Y123196D01*
X210750Y123770D01*
D02*
G37*
G36*
X200750D02*
X199250D01*
X197864Y123196D01*
X196804Y122135D01*
X196230Y120750D01*
Y119250D01*
X196804Y117865D01*
X197864Y116804D01*
X199250Y116230D01*
X200750D01*
X202136Y116804D01*
X203196Y117865D01*
X203770Y119250D01*
Y120750D01*
X203196Y122135D01*
X202136Y123196D01*
X200750Y123770D01*
D02*
G37*
G36*
X150750D02*
X149250D01*
X147865Y123196D01*
X146804Y122135D01*
X146230Y120750D01*
Y119250D01*
X146804Y117865D01*
X147865Y116804D01*
X149250Y116230D01*
X150750D01*
X152135Y116804D01*
X153196Y117865D01*
X153770Y119250D01*
Y120750D01*
X153196Y122135D01*
X152135Y123196D01*
X150750Y123770D01*
D02*
G37*
G36*
X240750Y113770D02*
X239250D01*
X237864Y113196D01*
X236804Y112135D01*
X236230Y110750D01*
Y109250D01*
X236804Y107865D01*
X237864Y106804D01*
X239250Y106230D01*
X240750D01*
X242136Y106804D01*
X243196Y107865D01*
X243770Y109250D01*
Y110750D01*
X243196Y112135D01*
X242136Y113196D01*
X240750Y113770D01*
D02*
G37*
G36*
X230750D02*
X229250D01*
X227864Y113196D01*
X226804Y112135D01*
X226230Y110750D01*
Y109250D01*
X226804Y107865D01*
X227864Y106804D01*
X229250Y106230D01*
X230750D01*
X232136Y106804D01*
X233196Y107865D01*
X233770Y109250D01*
Y110750D01*
X233196Y112135D01*
X232136Y113196D01*
X230750Y113770D01*
D02*
G37*
G36*
X220750D02*
X219250D01*
X217864Y113196D01*
X216804Y112135D01*
X216230Y110750D01*
Y109250D01*
X216804Y107865D01*
X217864Y106804D01*
X219250Y106230D01*
X220750D01*
X222136Y106804D01*
X223196Y107865D01*
X223770Y109250D01*
Y110750D01*
X223196Y112135D01*
X222136Y113196D01*
X220750Y113770D01*
D02*
G37*
G36*
X210750D02*
X209250D01*
X207864Y113196D01*
X206804Y112135D01*
X206230Y110750D01*
Y109250D01*
X206804Y107865D01*
X207864Y106804D01*
X209250Y106230D01*
X210750D01*
X212136Y106804D01*
X213196Y107865D01*
X213770Y109250D01*
Y110750D01*
X213196Y112135D01*
X212136Y113196D01*
X210750Y113770D01*
D02*
G37*
G36*
X200750D02*
X199250D01*
X197864Y113196D01*
X196804Y112135D01*
X196230Y110750D01*
Y109250D01*
X196804Y107865D01*
X197864Y106804D01*
X199250Y106230D01*
X200750D01*
X202136Y106804D01*
X203196Y107865D01*
X203770Y109250D01*
Y110750D01*
X203196Y112135D01*
X202136Y113196D01*
X200750Y113770D01*
D02*
G37*
G36*
X150750D02*
X149250D01*
X147865Y113196D01*
X146804Y112135D01*
X146230Y110750D01*
Y109250D01*
X146804Y107865D01*
X147865Y106804D01*
X149250Y106230D01*
X150750D01*
X152135Y106804D01*
X153196Y107865D01*
X153770Y109250D01*
Y110750D01*
X153196Y112135D01*
X152135Y113196D01*
X150750Y113770D01*
D02*
G37*
G36*
X1606270Y121270D02*
X1563730D01*
Y103730D01*
X1606270D01*
Y121270D01*
D02*
G37*
G36*
X1406270D02*
X1363730D01*
Y103730D01*
X1406270D01*
Y121270D01*
D02*
G37*
G36*
X1206270D02*
X1163730D01*
Y103730D01*
X1206270D01*
Y121270D01*
D02*
G37*
G36*
X1006270D02*
X963730D01*
Y103730D01*
X1006270D01*
Y121270D01*
D02*
G37*
G36*
X806270D02*
X763730D01*
Y103730D01*
X806270D01*
Y121270D01*
D02*
G37*
G36*
X606270D02*
X563730D01*
Y103730D01*
X606270D01*
Y121270D01*
D02*
G37*
G36*
X406270D02*
X363730D01*
Y103730D01*
X406270D01*
Y121270D01*
D02*
G37*
G36*
X240750Y103770D02*
X239250D01*
X237864Y103196D01*
X236804Y102135D01*
X236230Y100750D01*
Y99250D01*
X236804Y97864D01*
X237864Y96804D01*
X239250Y96230D01*
X240750D01*
X242136Y96804D01*
X243196Y97864D01*
X243770Y99250D01*
Y100750D01*
X243196Y102135D01*
X242136Y103196D01*
X240750Y103770D01*
D02*
G37*
G36*
X230750D02*
X229250D01*
X227864Y103196D01*
X226804Y102135D01*
X226230Y100750D01*
Y99250D01*
X226804Y97864D01*
X227864Y96804D01*
X229250Y96230D01*
X230750D01*
X232136Y96804D01*
X233196Y97864D01*
X233770Y99250D01*
Y100750D01*
X233196Y102135D01*
X232136Y103196D01*
X230750Y103770D01*
D02*
G37*
G36*
X220750D02*
X219250D01*
X217864Y103196D01*
X216804Y102135D01*
X216230Y100750D01*
Y99250D01*
X216804Y97864D01*
X217864Y96804D01*
X219250Y96230D01*
X220750D01*
X222136Y96804D01*
X223196Y97864D01*
X223770Y99250D01*
Y100750D01*
X223196Y102135D01*
X222136Y103196D01*
X220750Y103770D01*
D02*
G37*
G36*
X210750D02*
X209250D01*
X207864Y103196D01*
X206804Y102135D01*
X206230Y100750D01*
Y99250D01*
X206804Y97864D01*
X207864Y96804D01*
X209250Y96230D01*
X210750D01*
X212136Y96804D01*
X213196Y97864D01*
X213770Y99250D01*
Y100750D01*
X213196Y102135D01*
X212136Y103196D01*
X210750Y103770D01*
D02*
G37*
G36*
X200750D02*
X199250D01*
X197864Y103196D01*
X196804Y102135D01*
X196230Y100750D01*
Y99250D01*
X196804Y97864D01*
X197864Y96804D01*
X199250Y96230D01*
X200750D01*
X202136Y96804D01*
X203196Y97864D01*
X203770Y99250D01*
Y100750D01*
X203196Y102135D01*
X202136Y103196D01*
X200750Y103770D01*
D02*
G37*
G36*
X190750D02*
X189250D01*
X187864Y103196D01*
X186804Y102135D01*
X186230Y100750D01*
Y99250D01*
X186804Y97864D01*
X187864Y96804D01*
X189250Y96230D01*
X190750D01*
X192136Y96804D01*
X193196Y97864D01*
X193770Y99250D01*
Y100750D01*
X193196Y102135D01*
X192136Y103196D01*
X190750Y103770D01*
D02*
G37*
G36*
X180750D02*
X179250D01*
X177864Y103196D01*
X176804Y102135D01*
X176230Y100750D01*
Y99250D01*
X176804Y97864D01*
X177864Y96804D01*
X179250Y96230D01*
X180750D01*
X182136Y96804D01*
X183196Y97864D01*
X183770Y99250D01*
Y100750D01*
X183196Y102135D01*
X182136Y103196D01*
X180750Y103770D01*
D02*
G37*
G36*
X170750D02*
X169250D01*
X167864Y103196D01*
X166804Y102135D01*
X166230Y100750D01*
Y99250D01*
X166804Y97864D01*
X167864Y96804D01*
X169250Y96230D01*
X170750D01*
X172136Y96804D01*
X173196Y97864D01*
X173770Y99250D01*
Y100750D01*
X173196Y102135D01*
X172136Y103196D01*
X170750Y103770D01*
D02*
G37*
G36*
X160750D02*
X159250D01*
X157865Y103196D01*
X156804Y102135D01*
X156230Y100750D01*
Y99250D01*
X156804Y97864D01*
X157865Y96804D01*
X159250Y96230D01*
X160750D01*
X162136Y96804D01*
X163196Y97864D01*
X163770Y99250D01*
Y100750D01*
X163196Y102135D01*
X162136Y103196D01*
X160750Y103770D01*
D02*
G37*
G36*
X150750D02*
X149250D01*
X147865Y103196D01*
X146804Y102135D01*
X146230Y100750D01*
Y99250D01*
X146804Y97864D01*
X147865Y96804D01*
X149250Y96230D01*
X150750D01*
X152135Y96804D01*
X153196Y97864D01*
X153770Y99250D01*
Y100750D01*
X153196Y102135D01*
X152135Y103196D01*
X150750Y103770D01*
D02*
G37*
G36*
X1642040Y102540D02*
X1635000D01*
Y85500D01*
X1642040D01*
Y102540D01*
D02*
G37*
G36*
X1629000D02*
X1621960D01*
Y85500D01*
X1629000D01*
Y102540D01*
D02*
G37*
G36*
X1442040D02*
X1435000D01*
Y85500D01*
X1442040D01*
Y102540D01*
D02*
G37*
G36*
X1429000D02*
X1421960D01*
Y85500D01*
X1429000D01*
Y102540D01*
D02*
G37*
G36*
X1242040D02*
X1235000D01*
Y85500D01*
X1242040D01*
Y102540D01*
D02*
G37*
G36*
X1229000D02*
X1221960D01*
Y85500D01*
X1229000D01*
Y102540D01*
D02*
G37*
G36*
X1042040D02*
X1035000D01*
Y85500D01*
X1042040D01*
Y102540D01*
D02*
G37*
G36*
X1029000D02*
X1021960D01*
Y85500D01*
X1029000D01*
Y102540D01*
D02*
G37*
G36*
X842040D02*
X835000D01*
Y85500D01*
X842040D01*
Y102540D01*
D02*
G37*
G36*
X829000D02*
X821960D01*
Y85500D01*
X829000D01*
Y102540D01*
D02*
G37*
G36*
X642040D02*
X635000D01*
Y85500D01*
X642040D01*
Y102540D01*
D02*
G37*
G36*
X629000D02*
X621960D01*
Y85500D01*
X629000D01*
Y102540D01*
D02*
G37*
G36*
X442040D02*
X435000D01*
Y85500D01*
X442040D01*
Y102540D01*
D02*
G37*
G36*
X429000D02*
X421960D01*
Y85500D01*
X429000D01*
Y102540D01*
D02*
G37*
G36*
X1511370Y79866D02*
X1509430D01*
X1507557Y79364D01*
X1505877Y78394D01*
X1504506Y77023D01*
X1503536Y75343D01*
X1503034Y73470D01*
Y71530D01*
X1503536Y69657D01*
X1504506Y67977D01*
X1505877Y66606D01*
X1507557Y65636D01*
X1509430Y65134D01*
X1511370D01*
X1513243Y65636D01*
X1514923Y66606D01*
X1516294Y67977D01*
X1517264Y69657D01*
X1517766Y71530D01*
Y73470D01*
X1517264Y75343D01*
X1516294Y77023D01*
X1514923Y78394D01*
X1513243Y79364D01*
X1511370Y79866D01*
D02*
G37*
G36*
X1485970D02*
X1484030D01*
X1482157Y79364D01*
X1480477Y78394D01*
X1479106Y77023D01*
X1478136Y75343D01*
X1477634Y73470D01*
Y71530D01*
X1478136Y69657D01*
X1479106Y67977D01*
X1480477Y66606D01*
X1482157Y65636D01*
X1484030Y65134D01*
X1485970D01*
X1487843Y65636D01*
X1489523Y66606D01*
X1490894Y67977D01*
X1491864Y69657D01*
X1492366Y71530D01*
Y73470D01*
X1491864Y75343D01*
X1490894Y77023D01*
X1489523Y78394D01*
X1487843Y79364D01*
X1485970Y79866D01*
D02*
G37*
G36*
X1311370D02*
X1309430D01*
X1307557Y79364D01*
X1305877Y78394D01*
X1304506Y77023D01*
X1303536Y75343D01*
X1303034Y73470D01*
Y71530D01*
X1303536Y69657D01*
X1304506Y67977D01*
X1305877Y66606D01*
X1307557Y65636D01*
X1309430Y65134D01*
X1311370D01*
X1313243Y65636D01*
X1314923Y66606D01*
X1316294Y67977D01*
X1317264Y69657D01*
X1317766Y71530D01*
Y73470D01*
X1317264Y75343D01*
X1316294Y77023D01*
X1314923Y78394D01*
X1313243Y79364D01*
X1311370Y79866D01*
D02*
G37*
G36*
X1285970D02*
X1284030D01*
X1282157Y79364D01*
X1280477Y78394D01*
X1279106Y77023D01*
X1278136Y75343D01*
X1277634Y73470D01*
Y71530D01*
X1278136Y69657D01*
X1279106Y67977D01*
X1280477Y66606D01*
X1282157Y65636D01*
X1284030Y65134D01*
X1285970D01*
X1287843Y65636D01*
X1289523Y66606D01*
X1290894Y67977D01*
X1291864Y69657D01*
X1292366Y71530D01*
Y73470D01*
X1291864Y75343D01*
X1290894Y77023D01*
X1289523Y78394D01*
X1287843Y79364D01*
X1285970Y79866D01*
D02*
G37*
G36*
X1111370D02*
X1109430D01*
X1107557Y79364D01*
X1105877Y78394D01*
X1104506Y77023D01*
X1103536Y75343D01*
X1103034Y73470D01*
Y71530D01*
X1103536Y69657D01*
X1104506Y67977D01*
X1105877Y66606D01*
X1107557Y65636D01*
X1109430Y65134D01*
X1111370D01*
X1113243Y65636D01*
X1114923Y66606D01*
X1116294Y67977D01*
X1117264Y69657D01*
X1117766Y71530D01*
Y73470D01*
X1117264Y75343D01*
X1116294Y77023D01*
X1114923Y78394D01*
X1113243Y79364D01*
X1111370Y79866D01*
D02*
G37*
G36*
X1085970D02*
X1084030D01*
X1082157Y79364D01*
X1080477Y78394D01*
X1079106Y77023D01*
X1078136Y75343D01*
X1077634Y73470D01*
Y71530D01*
X1078136Y69657D01*
X1079106Y67977D01*
X1080477Y66606D01*
X1082157Y65636D01*
X1084030Y65134D01*
X1085970D01*
X1087843Y65636D01*
X1089523Y66606D01*
X1090894Y67977D01*
X1091864Y69657D01*
X1092366Y71530D01*
Y73470D01*
X1091864Y75343D01*
X1090894Y77023D01*
X1089523Y78394D01*
X1087843Y79364D01*
X1085970Y79866D01*
D02*
G37*
G36*
X911370D02*
X909430D01*
X907557Y79364D01*
X905877Y78394D01*
X904506Y77023D01*
X903536Y75343D01*
X903034Y73470D01*
Y71530D01*
X903536Y69657D01*
X904506Y67977D01*
X905877Y66606D01*
X907557Y65636D01*
X909430Y65134D01*
X911370D01*
X913243Y65636D01*
X914923Y66606D01*
X916294Y67977D01*
X917264Y69657D01*
X917766Y71530D01*
Y73470D01*
X917264Y75343D01*
X916294Y77023D01*
X914923Y78394D01*
X913243Y79364D01*
X911370Y79866D01*
D02*
G37*
G36*
X885970D02*
X884030D01*
X882157Y79364D01*
X880477Y78394D01*
X879106Y77023D01*
X878136Y75343D01*
X877634Y73470D01*
Y71530D01*
X878136Y69657D01*
X879106Y67977D01*
X880477Y66606D01*
X882157Y65636D01*
X884030Y65134D01*
X885970D01*
X887843Y65636D01*
X889523Y66606D01*
X890894Y67977D01*
X891864Y69657D01*
X892366Y71530D01*
Y73470D01*
X891864Y75343D01*
X890894Y77023D01*
X889523Y78394D01*
X887843Y79364D01*
X885970Y79866D01*
D02*
G37*
G36*
X711370D02*
X709430D01*
X707557Y79364D01*
X705877Y78394D01*
X704506Y77023D01*
X703536Y75343D01*
X703034Y73470D01*
Y71530D01*
X703536Y69657D01*
X704506Y67977D01*
X705877Y66606D01*
X707557Y65636D01*
X709430Y65134D01*
X711370D01*
X713243Y65636D01*
X714923Y66606D01*
X716294Y67977D01*
X717264Y69657D01*
X717766Y71530D01*
Y73470D01*
X717264Y75343D01*
X716294Y77023D01*
X714923Y78394D01*
X713243Y79364D01*
X711370Y79866D01*
D02*
G37*
G36*
X685970D02*
X684030D01*
X682157Y79364D01*
X680477Y78394D01*
X679106Y77023D01*
X678136Y75343D01*
X677634Y73470D01*
Y71530D01*
X678136Y69657D01*
X679106Y67977D01*
X680477Y66606D01*
X682157Y65636D01*
X684030Y65134D01*
X685970D01*
X687843Y65636D01*
X689523Y66606D01*
X690894Y67977D01*
X691864Y69657D01*
X692366Y71530D01*
Y73470D01*
X691864Y75343D01*
X690894Y77023D01*
X689523Y78394D01*
X687843Y79364D01*
X685970Y79866D01*
D02*
G37*
G36*
X511370D02*
X509430D01*
X507557Y79364D01*
X505877Y78394D01*
X504506Y77023D01*
X503536Y75343D01*
X503034Y73470D01*
Y71530D01*
X503536Y69657D01*
X504506Y67977D01*
X505877Y66606D01*
X507557Y65636D01*
X509430Y65134D01*
X511370D01*
X513243Y65636D01*
X514923Y66606D01*
X516294Y67977D01*
X517264Y69657D01*
X517766Y71530D01*
Y73470D01*
X517264Y75343D01*
X516294Y77023D01*
X514923Y78394D01*
X513243Y79364D01*
X511370Y79866D01*
D02*
G37*
G36*
X485970D02*
X484030D01*
X482157Y79364D01*
X480477Y78394D01*
X479106Y77023D01*
X478136Y75343D01*
X477634Y73470D01*
Y71530D01*
X478136Y69657D01*
X479106Y67977D01*
X480477Y66606D01*
X482157Y65636D01*
X484030Y65134D01*
X485970D01*
X487843Y65636D01*
X489523Y66606D01*
X490894Y67977D01*
X491864Y69657D01*
X492366Y71530D01*
Y73470D01*
X491864Y75343D01*
X490894Y77023D01*
X489523Y78394D01*
X487843Y79364D01*
X485970Y79866D01*
D02*
G37*
G36*
X311370D02*
X309430D01*
X307557Y79364D01*
X305877Y78394D01*
X304506Y77023D01*
X303536Y75343D01*
X303034Y73470D01*
Y71530D01*
X303536Y69657D01*
X304506Y67977D01*
X305877Y66606D01*
X307557Y65636D01*
X309430Y65134D01*
X311370D01*
X313243Y65636D01*
X314923Y66606D01*
X316294Y67977D01*
X317264Y69657D01*
X317766Y71530D01*
Y73470D01*
X317264Y75343D01*
X316294Y77023D01*
X314923Y78394D01*
X313243Y79364D01*
X311370Y79866D01*
D02*
G37*
G36*
X285970D02*
X284030D01*
X282157Y79364D01*
X280477Y78394D01*
X279106Y77023D01*
X278136Y75343D01*
X277634Y73470D01*
Y71530D01*
X278136Y69657D01*
X279106Y67977D01*
X280477Y66606D01*
X282157Y65636D01*
X284030Y65134D01*
X285970D01*
X287843Y65636D01*
X289523Y66606D01*
X290894Y67977D01*
X291864Y69657D01*
X292366Y71530D01*
Y73470D01*
X291864Y75343D01*
X290894Y77023D01*
X289523Y78394D01*
X287843Y79364D01*
X285970Y79866D01*
D02*
G37*
G36*
X1642040Y79500D02*
X1635000D01*
Y62460D01*
X1642040D01*
Y79500D01*
D02*
G37*
G36*
X1629000D02*
X1621960D01*
Y62460D01*
X1629000D01*
Y79500D01*
D02*
G37*
G36*
X1442040D02*
X1435000D01*
Y62460D01*
X1442040D01*
Y79500D01*
D02*
G37*
G36*
X1429000D02*
X1421960D01*
Y62460D01*
X1429000D01*
Y79500D01*
D02*
G37*
G36*
X1242040D02*
X1235000D01*
Y62460D01*
X1242040D01*
Y79500D01*
D02*
G37*
G36*
X1229000D02*
X1221960D01*
Y62460D01*
X1229000D01*
Y79500D01*
D02*
G37*
G36*
X1042040D02*
X1035000D01*
Y62460D01*
X1042040D01*
Y79500D01*
D02*
G37*
G36*
X1029000D02*
X1021960D01*
Y62460D01*
X1029000D01*
Y79500D01*
D02*
G37*
G36*
X842040D02*
X835000D01*
Y62460D01*
X842040D01*
Y79500D01*
D02*
G37*
G36*
X829000D02*
X821960D01*
Y62460D01*
X829000D01*
Y79500D01*
D02*
G37*
G36*
X642040D02*
X635000D01*
Y62460D01*
X642040D01*
Y79500D01*
D02*
G37*
G36*
X629000D02*
X621960D01*
Y62460D01*
X629000D01*
Y79500D01*
D02*
G37*
G36*
X442040D02*
X435000D01*
Y62460D01*
X442040D01*
Y79500D01*
D02*
G37*
G36*
X429000D02*
X421960D01*
Y62460D01*
X429000D01*
Y79500D01*
D02*
G37*
G36*
X1205040Y62540D02*
X1188000D01*
Y55500D01*
X1205040D01*
Y62540D01*
D02*
G37*
G36*
X1005040D02*
X988000D01*
Y55500D01*
X1005040D01*
Y62540D01*
D02*
G37*
G36*
X805040D02*
X788000D01*
Y55500D01*
X805040D01*
Y62540D01*
D02*
G37*
G36*
X605040D02*
X588000D01*
Y55500D01*
X605040D01*
Y62540D01*
D02*
G37*
G36*
X1182000D02*
X1164960D01*
Y55500D01*
X1182000D01*
Y62540D01*
D02*
G37*
G36*
X982000D02*
X964960D01*
Y55500D01*
X982000D01*
Y62540D01*
D02*
G37*
G36*
X782000D02*
X764960D01*
Y55500D01*
X782000D01*
Y62540D01*
D02*
G37*
G36*
X582000D02*
X564960D01*
Y55500D01*
X582000D01*
Y62540D01*
D02*
G37*
G36*
X405040D02*
X388000D01*
Y55500D01*
X405040D01*
Y62540D01*
D02*
G37*
G36*
X382000D02*
X364960D01*
Y55500D01*
X382000D01*
Y62540D01*
D02*
G37*
G36*
X1605040D02*
X1588000D01*
Y55500D01*
X1605040D01*
Y62540D01*
D02*
G37*
G36*
X1405040D02*
X1388000D01*
Y55500D01*
X1405040D01*
Y62540D01*
D02*
G37*
G36*
X1582000D02*
X1564960D01*
Y55500D01*
X1582000D01*
Y62540D01*
D02*
G37*
G36*
X1382000D02*
X1364960D01*
Y55500D01*
X1382000D01*
Y62540D01*
D02*
G37*
G36*
X1605040Y49500D02*
X1588000D01*
Y42460D01*
X1605040D01*
Y49500D01*
D02*
G37*
G36*
X1582000D02*
X1564960D01*
Y42460D01*
X1582000D01*
Y49500D01*
D02*
G37*
G36*
X1405040D02*
X1388000D01*
Y42460D01*
X1405040D01*
Y49500D01*
D02*
G37*
G36*
X1382000D02*
X1364960D01*
Y42460D01*
X1382000D01*
Y49500D01*
D02*
G37*
G36*
X1205040Y49500D02*
X1188000D01*
Y42460D01*
X1205040D01*
Y49500D01*
D02*
G37*
G36*
X1182000D02*
X1164960D01*
Y42460D01*
X1182000D01*
Y49500D01*
D02*
G37*
G36*
X1005040D02*
X988000D01*
Y42460D01*
X1005040D01*
Y49500D01*
D02*
G37*
G36*
X982000D02*
X964960D01*
Y42460D01*
X982000D01*
Y49500D01*
D02*
G37*
G36*
X805040D02*
X788000D01*
Y42460D01*
X805040D01*
Y49500D01*
D02*
G37*
G36*
X782000D02*
X764960D01*
Y42460D01*
X782000D01*
Y49500D01*
D02*
G37*
G36*
X605040D02*
X588000D01*
Y42460D01*
X605040D01*
Y49500D01*
D02*
G37*
G36*
X582000D02*
X564960D01*
Y42460D01*
X582000D01*
Y49500D01*
D02*
G37*
G36*
X405040Y49500D02*
X388000D01*
Y42460D01*
X405040D01*
Y49500D01*
D02*
G37*
G36*
X382000D02*
X364960D01*
Y42460D01*
X382000D01*
Y49500D01*
D02*
G37*
G36*
X1701799Y68270D02*
X1698201D01*
X1694671Y67568D01*
X1691346Y66191D01*
X1688354Y64191D01*
X1685809Y61646D01*
X1683809Y58654D01*
X1682432Y55329D01*
X1681730Y51799D01*
Y48201D01*
X1682432Y44671D01*
X1683809Y41346D01*
X1685809Y38354D01*
X1688354Y35809D01*
X1691346Y33809D01*
X1694671Y32432D01*
X1698201Y31730D01*
X1701799D01*
X1705329Y32432D01*
X1708654Y33809D01*
X1711646Y35809D01*
X1714191Y38354D01*
X1716191Y41346D01*
X1717568Y44671D01*
X1718270Y48201D01*
Y51799D01*
X1717568Y55329D01*
X1716191Y58654D01*
X1714191Y61646D01*
X1711646Y64191D01*
X1708654Y66191D01*
X1705329Y67568D01*
X1701799Y68270D01*
D02*
G37*
G36*
X51799D02*
X48201D01*
X44671Y67568D01*
X41346Y66191D01*
X38354Y64191D01*
X35809Y61646D01*
X33809Y58654D01*
X32432Y55329D01*
X31730Y51799D01*
Y48201D01*
X32432Y44671D01*
X33809Y41346D01*
X35809Y38354D01*
X38354Y35809D01*
X41346Y33809D01*
X44671Y32432D01*
X48201Y31730D01*
X51799D01*
X55329Y32432D01*
X58654Y33809D01*
X61646Y35809D01*
X64191Y38354D01*
X66191Y41346D01*
X67568Y44671D01*
X68270Y48201D01*
Y51799D01*
X67568Y55329D01*
X66191Y58654D01*
X64191Y61646D01*
X61646Y64191D01*
X58654Y66191D01*
X55329Y67568D01*
X51799Y68270D01*
D02*
G37*
%LPD*%
D88*
X21800Y156500D02*
D03*
Y203500D02*
D03*
D89*
X65000Y225100D02*
D03*
Y195100D02*
D03*
Y165100D02*
D03*
X95000Y135100D02*
D03*
Y165100D02*
D03*
Y195100D02*
D03*
Y225100D02*
D03*
D90*
X65000Y135100D02*
D03*
D104*
X425700Y572140D02*
D03*
X400300D02*
D03*
X374900D02*
D03*
D105*
X349500D02*
D03*
D106*
X1680000Y247000D02*
D03*
Y323000D02*
D03*
D107*
X285000Y72500D02*
D03*
X310400D02*
D03*
X1222400Y500000D02*
D03*
X1197000D02*
D03*
X510400Y72500D02*
D03*
X485000D02*
D03*
X1510400D02*
D03*
X1485000D02*
D03*
X1310400D02*
D03*
X1285000D02*
D03*
X1110400D02*
D03*
X1085000D02*
D03*
X910400D02*
D03*
X885000D02*
D03*
X710400D02*
D03*
X685000D02*
D03*
X1222400Y420000D02*
D03*
X1197000D02*
D03*
D108*
X385000Y112500D02*
D03*
X1585000D02*
D03*
X1385000D02*
D03*
X1185000D02*
D03*
X985000D02*
D03*
X785000D02*
D03*
X585000D02*
D03*
D109*
X385000Y52500D02*
D03*
X1585000D02*
D03*
X1385000D02*
D03*
X1185000D02*
D03*
X985000D02*
D03*
X785000D02*
D03*
X585000D02*
D03*
X80000Y473000D02*
D03*
D110*
X432000Y82500D02*
D03*
X1632000D02*
D03*
X1432000D02*
D03*
X1232000D02*
D03*
X1032000D02*
D03*
X832000D02*
D03*
X632000D02*
D03*
X50000Y520000D02*
D03*
D111*
X1695700Y397014D02*
D03*
Y483414D02*
D03*
D112*
X1737500Y397014D02*
D03*
Y483414D02*
D03*
D113*
X1700700Y469114D02*
D03*
Y411314D02*
D03*
D114*
X50000Y287000D02*
D03*
Y443000D02*
D03*
D115*
X121500Y394000D02*
D03*
Y336000D02*
D03*
X85000Y390000D02*
D03*
Y340000D02*
D03*
D116*
X30000Y365000D02*
D03*
D117*
X135000Y287000D02*
D03*
Y443000D02*
D03*
D118*
X110000Y520000D02*
D03*
D119*
X1556940Y266310D02*
D03*
X827460Y272500D02*
D03*
X832500Y467500D02*
D03*
X827460Y232500D02*
D03*
Y242500D02*
D03*
Y252500D02*
D03*
Y262500D02*
D03*
X840000D02*
D03*
Y242500D02*
D03*
Y252500D02*
D03*
Y272500D02*
D03*
Y232500D02*
D03*
X850000Y242500D02*
D03*
Y272500D02*
D03*
Y252500D02*
D03*
Y232500D02*
D03*
Y262500D02*
D03*
X855040Y425000D02*
D03*
X825000Y467500D02*
D03*
X915000Y430000D02*
D03*
X880000Y432500D02*
D03*
X425000Y170000D02*
D03*
X392500Y175000D02*
D03*
X329960Y182500D02*
D03*
X570000Y460040D02*
D03*
X355000Y267500D02*
D03*
X375000D02*
D03*
X430000Y272500D02*
D03*
X450000Y262500D02*
D03*
X377500Y182500D02*
D03*
Y190000D02*
D03*
X440000Y252500D02*
D03*
X430000Y242500D02*
D03*
X417500Y252500D02*
D03*
X430000Y262500D02*
D03*
X440000Y272500D02*
D03*
X430000Y252500D02*
D03*
X415000Y232500D02*
D03*
X440000Y262500D02*
D03*
X450000Y272500D02*
D03*
X405000Y227500D02*
D03*
X415000Y197500D02*
D03*
X440000Y232500D02*
D03*
X392500Y182500D02*
D03*
X450000Y242500D02*
D03*
X448936Y233564D02*
D03*
X425000Y197500D02*
D03*
X435000Y197500D02*
D03*
X655000Y420000D02*
D03*
X412500Y170000D02*
D03*
X445000Y197500D02*
D03*
X571064Y268936D02*
D03*
X525000Y237500D02*
D03*
X1060000Y295196D02*
D03*
X625795Y362380D02*
D03*
X525000Y492500D02*
D03*
X550000Y480000D02*
D03*
X1135000Y492460D02*
D03*
X1147968Y513454D02*
D03*
X1667500Y390000D02*
D03*
X1730000Y362500D02*
D03*
X1115000Y370000D02*
D03*
X1450000Y272500D02*
D03*
X1422500Y330000D02*
D03*
X1432500D02*
D03*
X1340000Y340000D02*
D03*
X1645000Y330000D02*
D03*
X1370000Y520000D02*
D03*
X1367500Y527500D02*
D03*
X790000Y520000D02*
D03*
X1162500Y480000D02*
D03*
X1280000Y485040D02*
D03*
X1360000Y474960D02*
D03*
X1310000Y472500D02*
D03*
X1337599Y462401D02*
D03*
X1382540Y447500D02*
D03*
X1247500Y427460D02*
D03*
X1422500D02*
D03*
X1392500D02*
D03*
X1120000Y427500D02*
D03*
X1085000Y430000D02*
D03*
X1072500D02*
D03*
X1400000Y415000D02*
D03*
X1475000Y425000D02*
D03*
X1522500Y402500D02*
D03*
X1435000Y412500D02*
D03*
X1400000Y327500D02*
D03*
X1375000Y365000D02*
D03*
X1400000Y387500D02*
D03*
X325000Y187500D02*
D03*
Y237500D02*
D03*
X440000Y242500D02*
D03*
X450000Y252500D02*
D03*
X335000Y120000D02*
D03*
X442500Y127500D02*
D03*
X285000Y135000D02*
D03*
X372500Y140000D02*
D03*
X447314Y170186D02*
D03*
X435000Y170000D02*
D03*
X377500Y175000D02*
D03*
X385000Y182500D02*
D03*
X392500Y190000D02*
D03*
X430000Y232500D02*
D03*
X185000Y325000D02*
D03*
X1060000Y328850D02*
D03*
X201270Y325040D02*
D03*
X1082500Y450049D02*
D03*
X1092500Y452500D02*
D03*
X1135000Y447500D02*
D03*
X1170000Y410000D02*
D03*
X1172500Y448055D02*
D03*
X1522500Y437500D02*
D03*
X947500Y430991D02*
D03*
X1330000Y440000D02*
D03*
X1020000Y432540D02*
D03*
X1340056Y395040D02*
D03*
X1320202Y369798D02*
D03*
X1373172Y351828D02*
D03*
X1225000Y325040D02*
D03*
X1645000Y454960D02*
D03*
X1602500Y468754D02*
D03*
X1489919Y278293D02*
D03*
X1607500Y397500D02*
D03*
X1617500Y402540D02*
D03*
X1670000Y482500D02*
D03*
X1675000Y405000D02*
D03*
X1642500Y420000D02*
D03*
X315000Y345000D02*
D03*
X985000Y340000D02*
D03*
X1045000Y335000D02*
D03*
X370000Y345000D02*
D03*
X1105000Y365000D02*
D03*
X1225000Y340000D02*
D03*
X1350000Y315000D02*
D03*
X1410000Y410000D02*
D03*
X1325000Y310000D02*
D03*
X1340000Y350000D02*
D03*
X795000Y466945D02*
D03*
X815000Y470000D02*
D03*
X712500Y497500D02*
D03*
X784656Y420344D02*
D03*
X667500Y412500D02*
D03*
X805000Y415040D02*
D03*
X310000Y425000D02*
D03*
Y435000D02*
D03*
X320000D02*
D03*
Y425000D02*
D03*
X1324920Y237500D02*
D03*
Y187500D02*
D03*
X1338810Y182500D02*
D03*
X1250000Y275000D02*
D03*
X1240000D02*
D03*
X1250000Y265000D02*
D03*
X1240000D02*
D03*
X1250000Y255000D02*
D03*
X1230000Y275000D02*
D03*
X1250000Y245000D02*
D03*
X1230000Y265000D02*
D03*
X1240000Y255000D02*
D03*
X925000Y237500D02*
D03*
X1040000Y272500D02*
D03*
X1050000D02*
D03*
X1100000Y360000D02*
D03*
X1230000Y255000D02*
D03*
X1250000Y235000D02*
D03*
X1240000Y245000D02*
D03*
X1217500Y252500D02*
D03*
X1240000Y235000D02*
D03*
X1230000Y245000D02*
D03*
X337500Y332500D02*
D03*
X287500Y400000D02*
D03*
X322500Y415000D02*
D03*
X680000Y535000D02*
D03*
X730000Y520000D02*
D03*
X770000D02*
D03*
X750000D02*
D03*
X740000D02*
D03*
X780000D02*
D03*
X760000D02*
D03*
X1290000D02*
D03*
X1280000D02*
D03*
X1270000D02*
D03*
X1260000D02*
D03*
X1525000Y532500D02*
D03*
X1372500Y535000D02*
D03*
X1340000Y365000D02*
D03*
X1525000Y337500D02*
D03*
X1537500Y345000D02*
D03*
X1432250Y488500D02*
D03*
X1290000Y405000D02*
D03*
X190000Y100000D02*
D03*
X180000D02*
D03*
X170000D02*
D03*
X160000D02*
D03*
X150000D02*
D03*
Y110000D02*
D03*
Y120000D02*
D03*
Y130000D02*
D03*
Y140000D02*
D03*
Y150000D02*
D03*
X240000Y100000D02*
D03*
Y110000D02*
D03*
Y120000D02*
D03*
Y130000D02*
D03*
Y140000D02*
D03*
Y150000D02*
D03*
X230000D02*
D03*
Y140000D02*
D03*
Y130000D02*
D03*
Y120000D02*
D03*
Y110000D02*
D03*
Y100000D02*
D03*
X220000D02*
D03*
Y110000D02*
D03*
Y120000D02*
D03*
Y130000D02*
D03*
Y140000D02*
D03*
Y150000D02*
D03*
X210000Y100000D02*
D03*
Y110000D02*
D03*
Y120000D02*
D03*
Y130000D02*
D03*
Y140000D02*
D03*
Y150000D02*
D03*
X200000Y100000D02*
D03*
Y110000D02*
D03*
Y120000D02*
D03*
Y130000D02*
D03*
Y140000D02*
D03*
Y150000D02*
D03*
X1432250Y508250D02*
D03*
X1471750Y468750D02*
D03*
X1452000D02*
D03*
X1432250D02*
D03*
X1452000Y508250D02*
D03*
X1471750D02*
D03*
Y488500D02*
D03*
X1452000D02*
D03*
X800000Y405000D02*
D03*
X942500Y417500D02*
D03*
X955000Y419368D02*
D03*
X1530000Y120000D02*
D03*
X1378564Y183564D02*
D03*
X1375186Y172686D02*
D03*
X1485000Y135000D02*
D03*
X1330000Y120000D02*
D03*
X1125000Y130000D02*
D03*
X925000Y135000D02*
D03*
X725000D02*
D03*
X525000D02*
D03*
X525000Y187500D02*
D03*
X810000Y370000D02*
D03*
X820000D02*
D03*
X1615000Y172500D02*
D03*
X1630000Y242500D02*
D03*
X1640000Y262500D02*
D03*
X1630000D02*
D03*
X1615000Y197500D02*
D03*
X1645000D02*
D03*
X1640000Y232500D02*
D03*
X1615000D02*
D03*
X1605000Y227500D02*
D03*
X1650000Y272500D02*
D03*
X1640000D02*
D03*
X1630000D02*
D03*
X1625000Y197500D02*
D03*
X1635000D02*
D03*
X1625000Y172500D02*
D03*
X1635000D02*
D03*
X1642500Y127500D02*
D03*
X1525000Y237500D02*
D03*
Y187500D02*
D03*
X1535000Y182500D02*
D03*
X1617500Y252500D02*
D03*
X1575000Y267500D02*
D03*
X1592500Y182500D02*
D03*
Y190000D02*
D03*
Y175000D02*
D03*
X1577500Y190000D02*
D03*
X1585000Y182500D02*
D03*
X1577500D02*
D03*
Y175000D02*
D03*
X1572500Y140000D02*
D03*
X1205000Y227500D02*
D03*
X1245000Y172500D02*
D03*
X1225000Y197500D02*
D03*
X1235000D02*
D03*
Y172500D02*
D03*
X1225000D02*
D03*
X1242500Y127500D02*
D03*
X1125000Y237500D02*
D03*
Y187500D02*
D03*
X1135000Y182500D02*
D03*
X1175000Y267500D02*
D03*
X1155000D02*
D03*
X1085000Y135000D02*
D03*
X1192500Y182500D02*
D03*
Y175000D02*
D03*
Y190000D02*
D03*
X1177500D02*
D03*
X1185000Y182500D02*
D03*
X1177500D02*
D03*
Y175000D02*
D03*
X1172500Y140000D02*
D03*
X1440000Y242500D02*
D03*
X1430000Y252500D02*
D03*
Y262500D02*
D03*
X1445000Y197500D02*
D03*
X1430000Y232500D02*
D03*
X1415000D02*
D03*
X1405000Y227500D02*
D03*
X1450000Y242500D02*
D03*
Y252500D02*
D03*
Y262500D02*
D03*
X1440000Y272500D02*
D03*
X1430000D02*
D03*
X1425000Y197500D02*
D03*
X1435000D02*
D03*
Y172500D02*
D03*
X1425000D02*
D03*
X1442500Y127500D02*
D03*
X1417500Y252500D02*
D03*
X1375000Y267500D02*
D03*
X1355000D02*
D03*
X1285000Y135000D02*
D03*
X1392500Y182500D02*
D03*
Y175000D02*
D03*
Y190000D02*
D03*
X1377500D02*
D03*
X1385000Y182500D02*
D03*
X1372500Y140000D02*
D03*
X1245000Y197500D02*
D03*
X1230000Y235000D02*
D03*
X1215000Y232500D02*
D03*
X1040000Y242500D02*
D03*
X1030000D02*
D03*
X1040000Y262500D02*
D03*
X1030000D02*
D03*
X1015000Y197500D02*
D03*
X1045000D02*
D03*
X1005000Y227500D02*
D03*
X1050000Y262500D02*
D03*
X1030000Y272500D02*
D03*
X1025000Y197500D02*
D03*
X1035000D02*
D03*
Y172500D02*
D03*
X1025000D02*
D03*
X1042500Y127500D02*
D03*
X925000Y187500D02*
D03*
X935000Y182500D02*
D03*
X1017500Y252500D02*
D03*
X975000Y267500D02*
D03*
X955000D02*
D03*
X885000Y135000D02*
D03*
X992500Y182500D02*
D03*
Y175000D02*
D03*
Y190000D02*
D03*
X977500D02*
D03*
X985000Y182500D02*
D03*
X977500D02*
D03*
Y175000D02*
D03*
X972500Y140000D02*
D03*
X815000Y232500D02*
D03*
X835000Y197500D02*
D03*
X825000D02*
D03*
X835000Y172500D02*
D03*
X825000D02*
D03*
X842500Y127500D02*
D03*
X725000Y237500D02*
D03*
Y187500D02*
D03*
X735000Y182500D02*
D03*
X817500Y252500D02*
D03*
X775000Y267500D02*
D03*
X755000D02*
D03*
X685000Y135000D02*
D03*
X792500Y182500D02*
D03*
Y175000D02*
D03*
Y190000D02*
D03*
X777500D02*
D03*
X785000Y182500D02*
D03*
X777500D02*
D03*
Y175000D02*
D03*
X772500Y140000D02*
D03*
X615000Y172500D02*
D03*
X640000Y242500D02*
D03*
Y262500D02*
D03*
X650000D02*
D03*
Y272500D02*
D03*
X635000Y197500D02*
D03*
X625000D02*
D03*
X635000Y172500D02*
D03*
X625000D02*
D03*
X642500Y127500D02*
D03*
X535000Y182500D02*
D03*
X617500Y252500D02*
D03*
X575000Y267500D02*
D03*
X485000Y135000D02*
D03*
X592500Y182500D02*
D03*
Y175000D02*
D03*
Y190000D02*
D03*
X577500D02*
D03*
X585000Y182500D02*
D03*
X577500D02*
D03*
Y175000D02*
D03*
X572500Y140000D02*
D03*
X815000Y172500D02*
D03*
X845000Y197500D02*
D03*
Y172500D02*
D03*
X640000Y252500D02*
D03*
X630000Y262500D02*
D03*
X615000Y197500D02*
D03*
X645000D02*
D03*
X640000Y232500D02*
D03*
X645000Y172500D02*
D03*
X650000Y242500D02*
D03*
X1640000D02*
D03*
Y252500D02*
D03*
X1630000D02*
D03*
Y232500D02*
D03*
X1650000D02*
D03*
X1645000Y172500D02*
D03*
X1650000Y242500D02*
D03*
Y252500D02*
D03*
Y262500D02*
D03*
X1415000Y172500D02*
D03*
X1430000Y242500D02*
D03*
X1440000Y252500D02*
D03*
Y262500D02*
D03*
X1415000Y197500D02*
D03*
X1440000Y232500D02*
D03*
X1450000D02*
D03*
X1445000Y172500D02*
D03*
X1215000D02*
D03*
Y197500D02*
D03*
X1015000Y172500D02*
D03*
X1040000Y252500D02*
D03*
X1030000D02*
D03*
X1040000Y232500D02*
D03*
X1030000D02*
D03*
X1015000D02*
D03*
X1050000D02*
D03*
X1045000Y172500D02*
D03*
X1050000Y242500D02*
D03*
Y252500D02*
D03*
X815000Y197500D02*
D03*
X805000Y227500D02*
D03*
X630000Y242500D02*
D03*
Y252500D02*
D03*
Y232500D02*
D03*
X615000D02*
D03*
X605000Y227500D02*
D03*
X650000Y232500D02*
D03*
Y252500D02*
D03*
X640000Y272500D02*
D03*
X630000D02*
D03*
M02*
