G04*
G04 #@! TF.GenerationSoftware,Altium Limited,Altium Designer,24.4.1 (13)*
G04*
G04 Layer_Physical_Order=4*
G04 Layer_Color=16711680*
%FSLAX44Y44*%
%MOMM*%
G71*
G04*
G04 #@! TF.SameCoordinates,002769C6-68FF-4E06-BC95-C638BAA8078C*
G04*
G04*
G04 #@! TF.FilePolarity,Positive*
G04*
G01*
G75*
%ADD10C,0.2540*%
%ADD88C,3.0000*%
%ADD89C,1.5700*%
%ADD90R,1.5700X1.5700*%
%ADD101C,0.5080*%
%ADD102C,0.6350*%
%ADD104C,1.5240*%
%ADD105R,1.5240X1.5240*%
G04:AMPARAMS|DCode=106|XSize=2mm|YSize=2mm|CornerRadius=0mm|HoleSize=0mm|Usage=FLASHONLY|Rotation=0.000|XOffset=0mm|YOffset=0mm|HoleType=Round|Shape=Octagon|*
%AMOCTAGOND106*
4,1,8,1.0000,-0.5000,1.0000,0.5000,0.5000,1.0000,-0.5000,1.0000,-1.0000,0.5000,-1.0000,-0.5000,-0.5000,-1.0000,0.5000,-1.0000,1.0000,-0.5000,0.0*
%
%ADD106OCTAGOND106*%

%ADD107C,1.2192*%
%ADD108R,4.0000X1.5000*%
%ADD109R,3.5000X1.5000*%
%ADD110R,1.5000X3.5000*%
%ADD111O,2.1000X1.0500*%
%ADD112O,1.8000X0.9000*%
%ADD113C,0.6500*%
%ADD114C,2.5000*%
G04:AMPARAMS|DCode=115|XSize=1.2mm|YSize=3.2mm|CornerRadius=0mm|HoleSize=0mm|Usage=FLASHONLY|Rotation=90.000|XOffset=0mm|YOffset=0mm|HoleType=Round|Shape=Octagon|*
%AMOCTAGOND115*
4,1,8,-1.6000,-0.3000,-1.6000,0.3000,-1.3000,0.6000,1.3000,0.6000,1.6000,0.3000,1.6000,-0.3000,1.3000,-0.6000,-1.3000,-0.6000,-1.6000,-0.3000,0.0*
%
%ADD115OCTAGOND115*%

%ADD116O,1.2000X3.0000*%
%ADD117O,3.0000X1.2000*%
%ADD118R,1.5000X4.0000*%
%ADD119C,0.5000*%
G36*
X150000Y525493D02*
X149932Y525329D01*
X149230Y521799D01*
Y518201D01*
X149932Y514671D01*
X150000Y514507D01*
Y449120D01*
X148730Y448534D01*
X147666Y449350D01*
X145898Y450083D01*
X144000Y450333D01*
X126000D01*
X124102Y450083D01*
X122334Y449350D01*
X120815Y448185D01*
X119650Y446666D01*
X118917Y444898D01*
X118667Y443000D01*
X118917Y441102D01*
X119650Y439334D01*
X120815Y437815D01*
X122334Y436650D01*
X124102Y435917D01*
X126000Y435667D01*
X144000D01*
X145898Y435917D01*
X147666Y436650D01*
X148730Y437466D01*
X150000Y436880D01*
Y300000D01*
X206338D01*
X206880Y299457D01*
X207721Y298896D01*
X208712Y298699D01*
X1164310D01*
X1165301Y298896D01*
X1166142Y299457D01*
X1166684Y300000D01*
X1690000D01*
Y255564D01*
X1688827Y255078D01*
X1685635Y258270D01*
X1674365D01*
X1668730Y252635D01*
Y241365D01*
X1674365Y235730D01*
X1685635D01*
X1688827Y238922D01*
X1690000Y238436D01*
Y210000D01*
X240000D01*
Y10248D01*
X28705D01*
X26138Y10586D01*
X23637Y11256D01*
X21245Y12247D01*
X19003Y13541D01*
X16948Y15117D01*
X15117Y16948D01*
X13541Y19003D01*
X12247Y21245D01*
X11256Y23637D01*
X10586Y26138D01*
X10248Y28705D01*
Y30000D01*
Y143384D01*
X10953Y143676D01*
X11518Y143803D01*
X14093Y142082D01*
X17054Y140855D01*
X20198Y140230D01*
X23402D01*
X26546Y140855D01*
X29507Y142082D01*
X32171Y143862D01*
X34438Y146129D01*
X36218Y148793D01*
X37445Y151754D01*
X38070Y154897D01*
Y158103D01*
X37445Y161246D01*
X36218Y164207D01*
X34438Y166871D01*
X32171Y169138D01*
X29507Y170918D01*
X26546Y172145D01*
X23402Y172770D01*
X20198D01*
X17054Y172145D01*
X14093Y170918D01*
X11518Y169197D01*
X10953Y169324D01*
X10248Y169616D01*
Y190384D01*
X10953Y190676D01*
X11518Y190803D01*
X14093Y189082D01*
X17054Y187855D01*
X20198Y187230D01*
X23402D01*
X26546Y187855D01*
X29507Y189082D01*
X32171Y190862D01*
X34438Y193129D01*
X36218Y195793D01*
X37445Y198754D01*
X38070Y201898D01*
Y205103D01*
X37445Y208246D01*
X37155Y208944D01*
X37861Y210000D01*
X36718D01*
X36218Y211207D01*
X34438Y213871D01*
X32171Y216138D01*
X29507Y217918D01*
X26546Y219145D01*
X23402Y219770D01*
X20198D01*
X17054Y219145D01*
X14093Y217918D01*
X11518Y216197D01*
X10953Y216324D01*
X10248Y216616D01*
Y570000D01*
Y571295D01*
X10586Y573862D01*
X11256Y576363D01*
X12247Y578755D01*
X13541Y580997D01*
X15117Y583051D01*
X16948Y584883D01*
X19003Y586459D01*
X21245Y587753D01*
X23637Y588744D01*
X26138Y589414D01*
X28705Y589752D01*
X150000D01*
Y525493D01*
D02*
G37*
%LPC*%
G36*
X120040Y542540D02*
X113000D01*
Y523000D01*
X120040D01*
Y542540D01*
D02*
G37*
G36*
X107000D02*
X99960D01*
Y523000D01*
X107000D01*
Y542540D01*
D02*
G37*
G36*
X58770Y538770D02*
X41230D01*
Y501230D01*
X58770D01*
Y538770D01*
D02*
G37*
G36*
X120040Y517000D02*
X113000D01*
Y497460D01*
X120040D01*
Y517000D01*
D02*
G37*
G36*
X107000D02*
X99960D01*
Y497460D01*
X107000D01*
Y517000D01*
D02*
G37*
G36*
X98770Y481770D02*
X61230D01*
Y464230D01*
X98770D01*
Y481770D01*
D02*
G37*
G36*
X51813Y456770D02*
X48187D01*
X44685Y455832D01*
X41545Y454019D01*
X38981Y451455D01*
X37168Y448315D01*
X36230Y444813D01*
Y441187D01*
X37168Y437685D01*
X38981Y434545D01*
X41545Y431981D01*
X44685Y430168D01*
X48187Y429230D01*
X51813D01*
X55315Y430168D01*
X58455Y431981D01*
X61019Y434545D01*
X62832Y437685D01*
X63770Y441187D01*
Y444813D01*
X62832Y448315D01*
X61019Y451455D01*
X58455Y454019D01*
X55315Y455832D01*
X51813Y456770D01*
D02*
G37*
G36*
X135135Y401270D02*
X107865D01*
X104230Y397635D01*
Y390365D01*
X107865Y386730D01*
X135135D01*
X138770Y390365D01*
Y397635D01*
X135135Y401270D01*
D02*
G37*
G36*
X98635Y397270D02*
X71365D01*
X67730Y393635D01*
Y386365D01*
X71365Y382730D01*
X98635D01*
X102270Y386365D01*
Y393635D01*
X98635Y397270D01*
D02*
G37*
G36*
X51286Y399770D02*
X48714D01*
X46229Y399104D01*
X44001Y397818D01*
X42182Y395999D01*
X40896Y393771D01*
X40230Y391286D01*
Y388714D01*
X40896Y386229D01*
X42182Y384001D01*
X44001Y382182D01*
X46229Y380896D01*
X48714Y380230D01*
X51286D01*
X53771Y380896D01*
X55999Y382182D01*
X57818Y384001D01*
X59104Y386229D01*
X59770Y388714D01*
Y391286D01*
X59104Y393771D01*
X57818Y395999D01*
X55999Y397818D01*
X53771Y399104D01*
X51286Y399770D01*
D02*
G37*
G36*
X30000Y381333D02*
X28102Y381083D01*
X26334Y380350D01*
X24815Y379185D01*
X23650Y377666D01*
X22917Y375898D01*
X22667Y374000D01*
Y356000D01*
X22917Y354102D01*
X23650Y352334D01*
X24815Y350815D01*
X26334Y349650D01*
X28102Y348917D01*
X30000Y348667D01*
X31898Y348917D01*
X33666Y349650D01*
X35185Y350815D01*
X36350Y352334D01*
X37083Y354102D01*
X37333Y356000D01*
Y374000D01*
X37083Y375898D01*
X36350Y377666D01*
X35185Y379185D01*
X33666Y380350D01*
X31898Y381083D01*
X30000Y381333D01*
D02*
G37*
G36*
X82000Y348540D02*
X70730D01*
X66460Y344270D01*
Y343000D01*
X82000D01*
Y348540D01*
D02*
G37*
G36*
X135770Y344540D02*
X124500D01*
Y339000D01*
X140040D01*
Y340270D01*
X135770Y344540D01*
D02*
G37*
G36*
X82000Y337000D02*
X66460D01*
Y335730D01*
X70730Y331460D01*
X82000D01*
Y337000D01*
D02*
G37*
G36*
X51286Y349770D02*
X48714D01*
X46229Y349104D01*
X44001Y347818D01*
X42182Y345999D01*
X40896Y343771D01*
X40230Y341286D01*
Y338714D01*
X40896Y336229D01*
X42182Y334001D01*
X44001Y332182D01*
X46229Y330896D01*
X48714Y330230D01*
X51286D01*
X53771Y330896D01*
X55999Y332182D01*
X57818Y334001D01*
X59104Y336229D01*
X59770Y338714D01*
Y341286D01*
X59104Y343771D01*
X57818Y345999D01*
X55999Y347818D01*
X53771Y349104D01*
X51286Y349770D01*
D02*
G37*
G36*
X140040Y333000D02*
X124500D01*
Y327460D01*
X135770D01*
X140040Y331730D01*
Y333000D01*
D02*
G37*
G36*
X99270Y348540D02*
X88000D01*
Y340000D01*
Y331460D01*
X99270D01*
X101787Y333977D01*
X102960Y333491D01*
Y331730D01*
X107230Y327460D01*
X118500D01*
Y336000D01*
Y344540D01*
X107230D01*
X104713Y342023D01*
X103540Y342509D01*
Y344270D01*
X99270Y348540D01*
D02*
G37*
G36*
X144000Y294333D02*
X126000D01*
X124102Y294083D01*
X122334Y293350D01*
X120815Y292185D01*
X119650Y290666D01*
X118917Y288898D01*
X118667Y287000D01*
X118917Y285102D01*
X119650Y283334D01*
X120815Y281815D01*
X122334Y280650D01*
X124102Y279917D01*
X126000Y279667D01*
X144000D01*
X145898Y279917D01*
X147666Y280650D01*
X149185Y281815D01*
X150350Y283334D01*
X151083Y285102D01*
X151333Y287000D01*
X151083Y288898D01*
X150350Y290666D01*
X149185Y292185D01*
X147666Y293350D01*
X145898Y294083D01*
X144000Y294333D01*
D02*
G37*
G36*
X1490669Y282063D02*
X1489169D01*
X1487784Y281489D01*
X1486723Y280429D01*
X1486149Y279043D01*
Y277543D01*
X1486723Y276158D01*
X1487784Y275097D01*
X1489169Y274523D01*
X1490669D01*
X1492055Y275097D01*
X1493116Y276158D01*
X1493689Y277543D01*
Y279043D01*
X1493116Y280429D01*
X1492055Y281489D01*
X1490669Y282063D01*
D02*
G37*
G36*
X51813Y300770D02*
X48187D01*
X44685Y299832D01*
X41545Y298019D01*
X38981Y295455D01*
X37168Y292315D01*
X36230Y288813D01*
Y285187D01*
X37168Y281685D01*
X38981Y278545D01*
X41545Y275981D01*
X44685Y274168D01*
X48187Y273230D01*
X51813D01*
X55315Y274168D01*
X58455Y275981D01*
X61019Y278545D01*
X62832Y281685D01*
X63770Y285187D01*
Y288813D01*
X62832Y292315D01*
X61019Y295455D01*
X58455Y298019D01*
X55315Y299832D01*
X51813Y300770D01*
D02*
G37*
G36*
X1575750Y271270D02*
X1574250D01*
X1572865Y270696D01*
X1571804Y269636D01*
X1571230Y268250D01*
Y266750D01*
X1571804Y265364D01*
X1572865Y264304D01*
X1574250Y263730D01*
X1575750D01*
X1577135Y264304D01*
X1578196Y265364D01*
X1578770Y266750D01*
Y268250D01*
X1578196Y269636D01*
X1577135Y270696D01*
X1575750Y271270D01*
D02*
G37*
G36*
X1375750D02*
X1374250D01*
X1372865Y270696D01*
X1371804Y269636D01*
X1371230Y268250D01*
Y266750D01*
X1371804Y265364D01*
X1372865Y264304D01*
X1374250Y263730D01*
X1375750D01*
X1377135Y264304D01*
X1378196Y265364D01*
X1378770Y266750D01*
Y268250D01*
X1378196Y269636D01*
X1377135Y270696D01*
X1375750Y271270D01*
D02*
G37*
G36*
X1355750D02*
X1354250D01*
X1352865Y270696D01*
X1351804Y269636D01*
X1351230Y268250D01*
Y266750D01*
X1351804Y265364D01*
X1352865Y264304D01*
X1354250Y263730D01*
X1355750D01*
X1357135Y264304D01*
X1358196Y265364D01*
X1358770Y266750D01*
Y268250D01*
X1358196Y269636D01*
X1357135Y270696D01*
X1355750Y271270D01*
D02*
G37*
G36*
X1175750D02*
X1174250D01*
X1172865Y270696D01*
X1171804Y269636D01*
X1171230Y268250D01*
Y266750D01*
X1171804Y265364D01*
X1172865Y264304D01*
X1174250Y263730D01*
X1175750D01*
X1177135Y264304D01*
X1178196Y265364D01*
X1178770Y266750D01*
Y268250D01*
X1178196Y269636D01*
X1177135Y270696D01*
X1175750Y271270D01*
D02*
G37*
G36*
X1155750D02*
X1154250D01*
X1152865Y270696D01*
X1151804Y269636D01*
X1151230Y268250D01*
Y266750D01*
X1151804Y265364D01*
X1152865Y264304D01*
X1154250Y263730D01*
X1155750D01*
X1157136Y264304D01*
X1158196Y265364D01*
X1158770Y266750D01*
Y268250D01*
X1158196Y269636D01*
X1157136Y270696D01*
X1155750Y271270D01*
D02*
G37*
G36*
X975750D02*
X974250D01*
X972865Y270696D01*
X971804Y269636D01*
X971230Y268250D01*
Y266750D01*
X971804Y265364D01*
X972865Y264304D01*
X974250Y263730D01*
X975750D01*
X977135Y264304D01*
X978196Y265364D01*
X978770Y266750D01*
Y268250D01*
X978196Y269636D01*
X977135Y270696D01*
X975750Y271270D01*
D02*
G37*
G36*
X955750D02*
X954250D01*
X952865Y270696D01*
X951804Y269636D01*
X951230Y268250D01*
Y266750D01*
X951804Y265364D01*
X952865Y264304D01*
X954250Y263730D01*
X955750D01*
X957136Y264304D01*
X958196Y265364D01*
X958770Y266750D01*
Y268250D01*
X958196Y269636D01*
X957136Y270696D01*
X955750Y271270D01*
D02*
G37*
G36*
X775750D02*
X774250D01*
X772865Y270696D01*
X771804Y269636D01*
X771230Y268250D01*
Y266750D01*
X771804Y265364D01*
X772865Y264304D01*
X774250Y263730D01*
X775750D01*
X777135Y264304D01*
X778196Y265364D01*
X778770Y266750D01*
Y268250D01*
X778196Y269636D01*
X777135Y270696D01*
X775750Y271270D01*
D02*
G37*
G36*
X755750D02*
X754250D01*
X752865Y270696D01*
X751804Y269636D01*
X751230Y268250D01*
Y266750D01*
X751804Y265364D01*
X752865Y264304D01*
X754250Y263730D01*
X755750D01*
X757135Y264304D01*
X758196Y265364D01*
X758770Y266750D01*
Y268250D01*
X758196Y269636D01*
X757135Y270696D01*
X755750Y271270D01*
D02*
G37*
G36*
X571814Y272706D02*
X570314D01*
X568928Y272132D01*
X567868Y271072D01*
X567294Y269686D01*
Y268186D01*
X567868Y266801D01*
X568928Y265740D01*
X570314Y265166D01*
X571814D01*
X571947Y265221D01*
X572864Y264304D01*
X574250Y263730D01*
X575750D01*
X577136Y264304D01*
X578196Y265364D01*
X578770Y266750D01*
Y268250D01*
X578196Y269636D01*
X577136Y270696D01*
X575750Y271270D01*
X574250D01*
X574117Y271215D01*
X573199Y272132D01*
X571814Y272706D01*
D02*
G37*
G36*
X375750Y271270D02*
X374250D01*
X372864Y270696D01*
X371804Y269636D01*
X371230Y268250D01*
Y266750D01*
X371804Y265364D01*
X372864Y264304D01*
X374250Y263730D01*
X375750D01*
X377136Y264304D01*
X378196Y265364D01*
X378770Y266750D01*
Y268250D01*
X378196Y269636D01*
X377136Y270696D01*
X375750Y271270D01*
D02*
G37*
G36*
X355750D02*
X354250D01*
X352864Y270696D01*
X351804Y269636D01*
X351230Y268250D01*
Y266750D01*
X351804Y265364D01*
X352864Y264304D01*
X354250Y263730D01*
X355750D01*
X357136Y264304D01*
X358196Y265364D01*
X358770Y266750D01*
Y268250D01*
X358196Y269636D01*
X357136Y270696D01*
X355750Y271270D01*
D02*
G37*
G36*
X1557690Y270079D02*
X1556191D01*
X1554805Y269506D01*
X1553744Y268445D01*
X1553170Y267059D01*
Y265560D01*
X1553744Y264174D01*
X1554805Y263113D01*
X1556191Y262540D01*
X1557690D01*
X1559076Y263113D01*
X1560137Y264174D01*
X1560710Y265560D01*
Y267059D01*
X1560137Y268445D01*
X1559076Y269506D01*
X1557690Y270079D01*
D02*
G37*
G36*
X541626Y294010D02*
X538374D01*
X535184Y293375D01*
X532180Y292131D01*
X529476Y290324D01*
X527176Y288025D01*
X525369Y285320D01*
X524124Y282316D01*
X523490Y279126D01*
Y275874D01*
X524124Y272684D01*
X525369Y269680D01*
X527176Y266975D01*
X529476Y264676D01*
X532180Y262869D01*
X535184Y261625D01*
X538374Y260990D01*
X541626D01*
X544816Y261625D01*
X547820Y262869D01*
X550524Y264676D01*
X552824Y266975D01*
X554631Y269680D01*
X555876Y272684D01*
X556510Y275874D01*
Y279126D01*
X555876Y282316D01*
X554631Y285320D01*
X552824Y288025D01*
X550524Y290324D01*
X547820Y292131D01*
X544816Y293375D01*
X541626Y294010D01*
D02*
G37*
G36*
X236826D02*
X233574D01*
X230384Y293375D01*
X227380Y292131D01*
X224676Y290324D01*
X222376Y288025D01*
X220569Y285320D01*
X219324Y282316D01*
X218690Y279126D01*
Y275874D01*
X219324Y272684D01*
X220569Y269680D01*
X222376Y266975D01*
X224676Y264676D01*
X227380Y262869D01*
X230384Y261625D01*
X233574Y260990D01*
X236826D01*
X240016Y261625D01*
X243020Y262869D01*
X245725Y264676D01*
X248024Y266975D01*
X249831Y269680D01*
X251075Y272684D01*
X251710Y275874D01*
Y279126D01*
X251075Y282316D01*
X249831Y285320D01*
X248024Y288025D01*
X245725Y290324D01*
X243020Y292131D01*
X240016Y293375D01*
X236826Y294010D01*
D02*
G37*
G36*
X1618250Y256270D02*
X1616750D01*
X1615365Y255696D01*
X1614304Y254636D01*
X1613730Y253250D01*
Y251750D01*
X1614304Y250364D01*
X1615365Y249304D01*
X1616750Y248730D01*
X1618250D01*
X1619635Y249304D01*
X1620696Y250364D01*
X1621270Y251750D01*
Y253250D01*
X1620696Y254636D01*
X1619635Y255696D01*
X1618250Y256270D01*
D02*
G37*
G36*
X1418250D02*
X1416750D01*
X1415365Y255696D01*
X1414304Y254636D01*
X1413730Y253250D01*
Y251750D01*
X1414304Y250364D01*
X1415365Y249304D01*
X1416750Y248730D01*
X1418250D01*
X1419635Y249304D01*
X1420696Y250364D01*
X1421270Y251750D01*
Y253250D01*
X1420696Y254636D01*
X1419635Y255696D01*
X1418250Y256270D01*
D02*
G37*
G36*
X1218250D02*
X1216750D01*
X1215365Y255696D01*
X1214304Y254636D01*
X1213730Y253250D01*
Y251750D01*
X1214304Y250364D01*
X1215365Y249304D01*
X1216750Y248730D01*
X1218250D01*
X1219636Y249304D01*
X1220696Y250364D01*
X1221270Y251750D01*
Y253250D01*
X1220696Y254636D01*
X1219636Y255696D01*
X1218250Y256270D01*
D02*
G37*
G36*
X1018250D02*
X1016750D01*
X1015365Y255696D01*
X1014304Y254636D01*
X1013730Y253250D01*
Y251750D01*
X1014304Y250364D01*
X1015365Y249304D01*
X1016750Y248730D01*
X1018250D01*
X1019636Y249304D01*
X1020696Y250364D01*
X1021270Y251750D01*
Y253250D01*
X1020696Y254636D01*
X1019636Y255696D01*
X1018250Y256270D01*
D02*
G37*
G36*
X818250D02*
X816750D01*
X815365Y255696D01*
X814304Y254636D01*
X813730Y253250D01*
Y251750D01*
X814304Y250364D01*
X815365Y249304D01*
X816750Y248730D01*
X818250D01*
X819635Y249304D01*
X820696Y250364D01*
X821270Y251750D01*
Y253250D01*
X820696Y254636D01*
X819635Y255696D01*
X818250Y256270D01*
D02*
G37*
G36*
X618250D02*
X616750D01*
X615364Y255696D01*
X614304Y254636D01*
X613730Y253250D01*
Y251750D01*
X614304Y250364D01*
X615364Y249304D01*
X616750Y248730D01*
X618250D01*
X619636Y249304D01*
X620696Y250364D01*
X621270Y251750D01*
Y253250D01*
X620696Y254636D01*
X619636Y255696D01*
X618250Y256270D01*
D02*
G37*
G36*
X418250D02*
X416750D01*
X415364Y255696D01*
X414304Y254636D01*
X413730Y253250D01*
Y251750D01*
X414304Y250364D01*
X415364Y249304D01*
X416750Y248730D01*
X418250D01*
X419636Y249304D01*
X420696Y250364D01*
X421270Y251750D01*
Y253250D01*
X420696Y254636D01*
X419636Y255696D01*
X418250Y256270D01*
D02*
G37*
G36*
X1525750Y241270D02*
X1524250D01*
X1522865Y240696D01*
X1521804Y239636D01*
X1521230Y238250D01*
Y236750D01*
X1521804Y235364D01*
X1522865Y234304D01*
X1524250Y233730D01*
X1525750D01*
X1527135Y234304D01*
X1528196Y235364D01*
X1528770Y236750D01*
Y238250D01*
X1528196Y239636D01*
X1527135Y240696D01*
X1525750Y241270D01*
D02*
G37*
G36*
X1325670D02*
X1324170D01*
X1322784Y240696D01*
X1321724Y239636D01*
X1321150Y238250D01*
Y236750D01*
X1321724Y235364D01*
X1322784Y234304D01*
X1324170Y233730D01*
X1325670D01*
X1327056Y234304D01*
X1328116Y235364D01*
X1328690Y236750D01*
Y238250D01*
X1328116Y239636D01*
X1327056Y240696D01*
X1325670Y241270D01*
D02*
G37*
G36*
X1125750D02*
X1124250D01*
X1122865Y240696D01*
X1121804Y239636D01*
X1121230Y238250D01*
Y236750D01*
X1121804Y235364D01*
X1122865Y234304D01*
X1124250Y233730D01*
X1125750D01*
X1127135Y234304D01*
X1128196Y235364D01*
X1128770Y236750D01*
Y238250D01*
X1128196Y239636D01*
X1127135Y240696D01*
X1125750Y241270D01*
D02*
G37*
G36*
X925750D02*
X924250D01*
X922865Y240696D01*
X921804Y239636D01*
X921230Y238250D01*
Y236750D01*
X921804Y235364D01*
X922865Y234304D01*
X924250Y233730D01*
X925750D01*
X927135Y234304D01*
X928196Y235364D01*
X928770Y236750D01*
Y238250D01*
X928196Y239636D01*
X927135Y240696D01*
X925750Y241270D01*
D02*
G37*
G36*
X725750D02*
X724250D01*
X722865Y240696D01*
X721804Y239636D01*
X721230Y238250D01*
Y236750D01*
X721804Y235364D01*
X722865Y234304D01*
X724250Y233730D01*
X725750D01*
X727135Y234304D01*
X728196Y235364D01*
X728770Y236750D01*
Y238250D01*
X728196Y239636D01*
X727135Y240696D01*
X725750Y241270D01*
D02*
G37*
G36*
X525750D02*
X524250D01*
X522864Y240696D01*
X521804Y239636D01*
X521230Y238250D01*
Y236750D01*
X521804Y235364D01*
X522864Y234304D01*
X524250Y233730D01*
X525750D01*
X527136Y234304D01*
X528196Y235364D01*
X528770Y236750D01*
Y238250D01*
X528196Y239636D01*
X527136Y240696D01*
X525750Y241270D01*
D02*
G37*
G36*
X325750D02*
X324250D01*
X322864Y240696D01*
X321804Y239636D01*
X321230Y238250D01*
Y236750D01*
X321804Y235364D01*
X322864Y234304D01*
X324250Y233730D01*
X325750D01*
X327136Y234304D01*
X328196Y235364D01*
X328770Y236750D01*
Y238250D01*
X328196Y239636D01*
X327136Y240696D01*
X325750Y241270D01*
D02*
G37*
G36*
X96201Y234220D02*
X93799D01*
X91480Y233598D01*
X89400Y232398D01*
X87702Y230700D01*
X86502Y228620D01*
X85880Y226301D01*
Y223899D01*
X86502Y221580D01*
X87702Y219500D01*
X89400Y217802D01*
X91480Y216602D01*
X93799Y215980D01*
X96201D01*
X98520Y216602D01*
X100600Y217802D01*
X102298Y219500D01*
X103498Y221580D01*
X104120Y223899D01*
Y226301D01*
X103498Y228620D01*
X102298Y230700D01*
X100600Y232398D01*
X98520Y233598D01*
X96201Y234220D01*
D02*
G37*
G36*
X66201D02*
X63799D01*
X61480Y233598D01*
X59400Y232398D01*
X57702Y230700D01*
X56501Y228620D01*
X55880Y226301D01*
Y223899D01*
X56501Y221580D01*
X57702Y219500D01*
X59400Y217802D01*
X61480Y216602D01*
X63799Y215980D01*
X66201D01*
X68520Y216602D01*
X70600Y217802D01*
X72298Y219500D01*
X73499Y221580D01*
X74120Y223899D01*
Y226301D01*
X73499Y228620D01*
X72298Y230700D01*
X70600Y232398D01*
X68520Y233598D01*
X66201Y234220D01*
D02*
G37*
G36*
X98000Y205053D02*
Y198100D01*
X104953D01*
X104682Y199110D01*
X103314Y201480D01*
X101380Y203414D01*
X99010Y204782D01*
X98000Y205053D01*
D02*
G37*
G36*
X92000Y205053D02*
X90990Y204782D01*
X88620Y203414D01*
X86686Y201480D01*
X85318Y199110D01*
X85047Y198100D01*
X92000D01*
Y205053D01*
D02*
G37*
G36*
X66201Y204220D02*
X63799D01*
X61480Y203598D01*
X59400Y202398D01*
X57702Y200700D01*
X56501Y198620D01*
X55880Y196301D01*
Y193899D01*
X56501Y191580D01*
X57702Y189500D01*
X59400Y187802D01*
X61480Y186602D01*
X63799Y185980D01*
X66201D01*
X68520Y186602D01*
X70600Y187802D01*
X72298Y189500D01*
X73499Y191580D01*
X74120Y193899D01*
Y196301D01*
X73499Y198620D01*
X72298Y200700D01*
X70600Y202398D01*
X68520Y203598D01*
X66201Y204220D01*
D02*
G37*
G36*
X92000Y192100D02*
X85047D01*
X85318Y191090D01*
X86686Y188720D01*
X88620Y186786D01*
X90990Y185418D01*
X92000Y185147D01*
Y192100D01*
D02*
G37*
G36*
X104953D02*
X98000D01*
Y185147D01*
X99010Y185418D01*
X101380Y186786D01*
X103314Y188720D01*
X104682Y191090D01*
X104953Y192100D01*
D02*
G37*
G36*
X98000Y175053D02*
Y168100D01*
X104953D01*
X104682Y169110D01*
X103314Y171480D01*
X101380Y173414D01*
X99010Y174782D01*
X98000Y175053D01*
D02*
G37*
G36*
X92000Y175053D02*
X90990Y174782D01*
X88620Y173414D01*
X86686Y171480D01*
X85318Y169110D01*
X85047Y168100D01*
X92000D01*
Y175053D01*
D02*
G37*
G36*
X66201Y174220D02*
X63799D01*
X61480Y173598D01*
X59400Y172398D01*
X57702Y170700D01*
X56501Y168620D01*
X55880Y166301D01*
Y163899D01*
X56501Y161580D01*
X57702Y159500D01*
X59400Y157802D01*
X61480Y156601D01*
X63799Y155980D01*
X66201D01*
X68520Y156601D01*
X70600Y157802D01*
X72298Y159500D01*
X73499Y161580D01*
X74120Y163899D01*
Y166301D01*
X73499Y168620D01*
X72298Y170700D01*
X70600Y172398D01*
X68520Y173598D01*
X66201Y174220D01*
D02*
G37*
G36*
X92000Y162100D02*
X85047D01*
X85318Y161090D01*
X86686Y158720D01*
X88620Y156786D01*
X90990Y155418D01*
X92000Y155147D01*
Y162100D01*
D02*
G37*
G36*
X104953D02*
X98000D01*
Y155147D01*
X99010Y155418D01*
X101380Y156786D01*
X103314Y158720D01*
X104682Y161090D01*
X104953Y162100D01*
D02*
G37*
G36*
X98000Y145053D02*
Y138100D01*
X104953D01*
X104682Y139110D01*
X103314Y141480D01*
X101380Y143414D01*
X99010Y144782D01*
X98000Y145053D01*
D02*
G37*
G36*
X92000D02*
X90990Y144782D01*
X88620Y143414D01*
X86686Y141480D01*
X85318Y139110D01*
X85047Y138100D01*
X92000D01*
Y145053D01*
D02*
G37*
G36*
X74120Y144220D02*
X55880D01*
Y125980D01*
X74120D01*
Y144220D01*
D02*
G37*
G36*
X104953Y132100D02*
X98000D01*
Y125147D01*
X99010Y125418D01*
X101380Y126786D01*
X103314Y128720D01*
X104682Y131090D01*
X104953Y132100D01*
D02*
G37*
G36*
X92000D02*
X85047D01*
X85318Y131090D01*
X86686Y128720D01*
X88620Y126786D01*
X90990Y125418D01*
X92000Y125147D01*
Y132100D01*
D02*
G37*
G36*
X51799Y68270D02*
X48201D01*
X44671Y67568D01*
X41346Y66191D01*
X38354Y64191D01*
X35809Y61646D01*
X33809Y58654D01*
X32432Y55329D01*
X31730Y51799D01*
Y48201D01*
X32432Y44671D01*
X33809Y41346D01*
X35809Y38354D01*
X38354Y35809D01*
X41346Y33809D01*
X44671Y32432D01*
X48201Y31730D01*
X51799D01*
X55329Y32432D01*
X58654Y33809D01*
X61646Y35809D01*
X64191Y38354D01*
X66191Y41346D01*
X67568Y44671D01*
X68270Y48201D01*
Y51799D01*
X67568Y55329D01*
X66191Y58654D01*
X64191Y61646D01*
X61646Y64191D01*
X58654Y66191D01*
X55329Y67568D01*
X51799Y68270D01*
D02*
G37*
%LPD*%
D10*
X425700Y572140D02*
X555340Y442500D01*
X777540D01*
X805000Y415040D01*
X400000Y570000D02*
X432500Y537500D01*
X437500D01*
X1160628Y305098D02*
X1162732D01*
X1190878Y333244D01*
X201270Y325040D02*
X220913Y305397D01*
X1164310Y301288D02*
X1189382Y326360D01*
X185000Y325000D02*
X208712Y301288D01*
X220913Y305397D02*
X1160329D01*
X1060000Y282500D02*
Y295196D01*
X1160329Y305397D02*
X1160628Y305098D01*
X208712Y301288D02*
X1164310D01*
X437500Y537500D02*
X570000Y405000D01*
X1395000Y480000D02*
X1450000Y425000D01*
X1162500Y480000D02*
X1395000D01*
X1396166Y418610D02*
X1397596Y420040D01*
X1396126Y418610D02*
X1396166D01*
X1377128Y405000D02*
X1394548Y422420D01*
X1396018Y423850D02*
X1416538D01*
X1394548Y422420D02*
X1394588D01*
X1396018Y423850D01*
X1377596Y400080D02*
X1396126Y418610D01*
X1397596Y420040D02*
X1414960D01*
X1085000Y439944D02*
Y444960D01*
Y439944D02*
X1148754Y376190D01*
X1082971Y446989D02*
Y449579D01*
Y446989D02*
X1085000Y444960D01*
X1092460Y437872D02*
X1150332Y380000D01*
X1082500Y450049D02*
X1082971Y449579D01*
X1450000Y425000D02*
X1475000D01*
X1414960Y420040D02*
X1420000Y415000D01*
Y396916D02*
Y415000D01*
X1416538Y423850D02*
X1423810Y416578D01*
X1397691Y374607D02*
X1420000Y396916D01*
X1375000Y390000D02*
X1400000Y415000D01*
X1384984Y327500D02*
X1400000D01*
X1357500Y354984D02*
Y360000D01*
Y354984D02*
X1384984Y327500D01*
X1371015Y373515D02*
X1386015D01*
X1400000Y387500D01*
X1357500Y360000D02*
X1371015Y373515D01*
X1375000Y358643D02*
Y365000D01*
X1189382Y326360D02*
X1220951D01*
X1190878Y333244D02*
X1208244D01*
X1220951Y326360D02*
X1225000Y325040D01*
X1208244Y333244D02*
X1215000Y340000D01*
X1225000D01*
X955000Y419368D02*
X985681Y450049D01*
X1082500D01*
X942500Y417500D02*
X982500Y457500D01*
X1082177D02*
X1087177Y452500D01*
X982500Y457500D02*
X1082177D01*
X945632Y410000D02*
X955000Y419368D01*
X1087177Y452500D02*
X1092500D01*
X1092460Y437872D02*
Y452460D01*
X1092500Y452500D01*
X1150332Y380000D02*
X1297112D01*
X1216310Y376190D02*
X1223160Y369340D01*
X1148754Y376190D02*
X1216310D01*
X940040Y415040D02*
X942500Y417500D01*
X570000Y405000D02*
X800000D01*
X1223160Y369340D02*
X1291840D01*
X805000Y410000D02*
X945632D01*
X1297112Y380000D02*
X1322112Y405000D01*
X1377128D01*
X1322580Y400080D02*
X1377596D01*
X1333276Y390000D02*
X1375000D01*
X800000Y405000D02*
X805000Y410000D01*
X1291840Y369340D02*
X1322580Y400080D01*
X1320202Y370202D02*
X1335000Y385000D01*
X1320202Y369798D02*
Y370202D01*
X1314960Y365040D02*
Y371684D01*
X1333276Y390000D01*
X1373573Y351828D02*
X1396352Y374607D01*
X1368132Y349740D02*
X1372120Y345752D01*
X1368132Y353915D02*
X1371085Y356868D01*
X1373172Y351828D02*
X1373573D01*
X1396352Y374607D02*
X1397691D01*
X1374224Y345752D02*
X1423810Y395338D01*
X1368132Y349740D02*
Y353915D01*
X1372120Y345752D02*
X1374224D01*
X1373224Y356868D02*
X1375000Y358643D01*
X1423810Y395338D02*
Y416578D01*
X1371085Y356868D02*
X1373224D01*
X1620000Y397500D02*
X1642500Y420000D01*
X1607500Y397500D02*
X1620000D01*
X1385000Y385000D02*
X1410000Y410000D01*
X1335000Y385000D02*
X1385000D01*
X1314960Y365040D02*
X1325000Y355000D01*
Y310000D02*
Y355000D01*
X869707Y417500D02*
X872167Y415040D01*
X940040D01*
X812580Y417500D02*
X869707D01*
X805000Y415040D02*
X805471Y415511D01*
X810591D02*
X812580Y417500D01*
X805471Y415511D02*
X810591D01*
X1050000Y272500D02*
X1060000Y282500D01*
D88*
X21800Y156500D02*
D03*
Y203500D02*
D03*
D89*
X65000Y225100D02*
D03*
Y195100D02*
D03*
Y165100D02*
D03*
X95000Y135100D02*
D03*
Y165100D02*
D03*
Y195100D02*
D03*
Y225100D02*
D03*
D90*
X65000Y135100D02*
D03*
D101*
X785000Y482500D02*
X807500Y505000D01*
X546424Y492500D02*
X556424Y482500D01*
X785000D01*
X525000Y492500D02*
X546424D01*
X807500Y505000D02*
X1148438D01*
X1153344Y509906D01*
X1246495D01*
X1248901Y507500D01*
X1302500D01*
X1315000Y495000D01*
X1617024D02*
X1620000Y492024D01*
X1315000Y495000D02*
X1617024D01*
X1620000Y455000D02*
Y492024D01*
X1567500Y377976D02*
Y402500D01*
X1570476Y375000D02*
X1717500D01*
X1567500Y377976D02*
X1570476Y375000D01*
X1567500Y402500D02*
X1620000Y455000D01*
X1717500Y375000D02*
X1730000Y362500D01*
D102*
X570040Y460000D02*
X895762D01*
X570000Y460040D02*
X570040Y460000D01*
X895762D02*
X898977Y463215D01*
X1240210D01*
X1441727Y418055D02*
X1493233D01*
X1404326Y455456D02*
X1441727Y418055D01*
X1493233D02*
X1530634Y455456D01*
X1247969D02*
X1404326D01*
X1530634D02*
X1589201D01*
X1240210Y463215D02*
X1247969Y455456D01*
X1589201D02*
X1602500Y468754D01*
D104*
X425700Y572140D02*
D03*
X400300D02*
D03*
X374900D02*
D03*
D105*
X349500D02*
D03*
D106*
X1680000Y247000D02*
D03*
Y323000D02*
D03*
D107*
X285000Y72500D02*
D03*
X310400D02*
D03*
X1222400Y500000D02*
D03*
X1197000D02*
D03*
X510400Y72500D02*
D03*
X485000D02*
D03*
X1510400D02*
D03*
X1485000D02*
D03*
X1310400D02*
D03*
X1285000D02*
D03*
X1110400D02*
D03*
X1085000D02*
D03*
X910400D02*
D03*
X885000D02*
D03*
X710400D02*
D03*
X685000D02*
D03*
X1222400Y420000D02*
D03*
X1197000D02*
D03*
D108*
X385000Y112500D02*
D03*
X1585000D02*
D03*
X1385000D02*
D03*
X1185000D02*
D03*
X985000D02*
D03*
X785000D02*
D03*
X585000D02*
D03*
D109*
X385000Y52500D02*
D03*
X1585000D02*
D03*
X1385000D02*
D03*
X1185000D02*
D03*
X985000D02*
D03*
X785000D02*
D03*
X585000D02*
D03*
X80000Y473000D02*
D03*
D110*
X432000Y82500D02*
D03*
X1632000D02*
D03*
X1432000D02*
D03*
X1232000D02*
D03*
X1032000D02*
D03*
X832000D02*
D03*
X632000D02*
D03*
X50000Y520000D02*
D03*
D111*
X1695700Y397014D02*
D03*
Y483414D02*
D03*
D112*
X1737500Y397014D02*
D03*
Y483414D02*
D03*
D113*
X1700700Y469114D02*
D03*
Y411314D02*
D03*
D114*
X50000Y287000D02*
D03*
Y443000D02*
D03*
D115*
X121500Y394000D02*
D03*
Y336000D02*
D03*
X85000Y390000D02*
D03*
Y340000D02*
D03*
D116*
X30000Y365000D02*
D03*
D117*
X135000Y287000D02*
D03*
Y443000D02*
D03*
D118*
X110000Y520000D02*
D03*
D119*
X1556940Y266310D02*
D03*
X827460Y272500D02*
D03*
X832500Y467500D02*
D03*
X827460Y232500D02*
D03*
Y242500D02*
D03*
Y252500D02*
D03*
Y262500D02*
D03*
X840000D02*
D03*
Y242500D02*
D03*
Y252500D02*
D03*
Y272500D02*
D03*
Y232500D02*
D03*
X850000Y242500D02*
D03*
Y272500D02*
D03*
Y252500D02*
D03*
Y232500D02*
D03*
Y262500D02*
D03*
X855040Y425000D02*
D03*
X825000Y467500D02*
D03*
X915000Y430000D02*
D03*
X880000Y432500D02*
D03*
X425000Y170000D02*
D03*
X392500Y175000D02*
D03*
X329960Y182500D02*
D03*
X570000Y460040D02*
D03*
X355000Y267500D02*
D03*
X375000D02*
D03*
X430000Y272500D02*
D03*
X450000Y262500D02*
D03*
X377500Y182500D02*
D03*
Y190000D02*
D03*
X440000Y252500D02*
D03*
X430000Y242500D02*
D03*
X417500Y252500D02*
D03*
X430000Y262500D02*
D03*
X440000Y272500D02*
D03*
X430000Y252500D02*
D03*
X415000Y232500D02*
D03*
X440000Y262500D02*
D03*
X450000Y272500D02*
D03*
X405000Y227500D02*
D03*
X415000Y197500D02*
D03*
X440000Y232500D02*
D03*
X392500Y182500D02*
D03*
X450000Y242500D02*
D03*
X448936Y233564D02*
D03*
X425000Y197500D02*
D03*
X435000Y197500D02*
D03*
X655000Y420000D02*
D03*
X412500Y170000D02*
D03*
X445000Y197500D02*
D03*
X571064Y268936D02*
D03*
X525000Y237500D02*
D03*
X1060000Y295196D02*
D03*
X625795Y362380D02*
D03*
X525000Y492500D02*
D03*
X550000Y480000D02*
D03*
X1135000Y492460D02*
D03*
X1147968Y513454D02*
D03*
X1667500Y390000D02*
D03*
X1730000Y362500D02*
D03*
X1115000Y370000D02*
D03*
X1450000Y272500D02*
D03*
X1422500Y330000D02*
D03*
X1432500D02*
D03*
X1340000Y340000D02*
D03*
X1645000Y330000D02*
D03*
X1370000Y520000D02*
D03*
X1367500Y527500D02*
D03*
X790000Y520000D02*
D03*
X1162500Y480000D02*
D03*
X1280000Y485040D02*
D03*
X1360000Y474960D02*
D03*
X1310000Y472500D02*
D03*
X1337599Y462401D02*
D03*
X1382540Y447500D02*
D03*
X1247500Y427460D02*
D03*
X1422500D02*
D03*
X1392500D02*
D03*
X1120000Y427500D02*
D03*
X1085000Y430000D02*
D03*
X1072500D02*
D03*
X1400000Y415000D02*
D03*
X1475000Y425000D02*
D03*
X1522500Y402500D02*
D03*
X1435000Y412500D02*
D03*
X1400000Y327500D02*
D03*
X1375000Y365000D02*
D03*
X1400000Y387500D02*
D03*
X325000Y187500D02*
D03*
Y237500D02*
D03*
X440000Y242500D02*
D03*
X450000Y252500D02*
D03*
X335000Y120000D02*
D03*
X442500Y127500D02*
D03*
X285000Y135000D02*
D03*
X372500Y140000D02*
D03*
X447314Y170186D02*
D03*
X435000Y170000D02*
D03*
X377500Y175000D02*
D03*
X385000Y182500D02*
D03*
X392500Y190000D02*
D03*
X430000Y232500D02*
D03*
X185000Y325000D02*
D03*
X1060000Y328850D02*
D03*
X201270Y325040D02*
D03*
X1082500Y450049D02*
D03*
X1092500Y452500D02*
D03*
X1135000Y447500D02*
D03*
X1170000Y410000D02*
D03*
X1172500Y448055D02*
D03*
X1522500Y437500D02*
D03*
X947500Y430991D02*
D03*
X1330000Y440000D02*
D03*
X1020000Y432540D02*
D03*
X1340056Y395040D02*
D03*
X1320202Y369798D02*
D03*
X1373172Y351828D02*
D03*
X1225000Y325040D02*
D03*
X1645000Y454960D02*
D03*
X1602500Y468754D02*
D03*
X1489919Y278293D02*
D03*
X1607500Y397500D02*
D03*
X1617500Y402540D02*
D03*
X1670000Y482500D02*
D03*
X1675000Y405000D02*
D03*
X1642500Y420000D02*
D03*
X315000Y345000D02*
D03*
X985000Y340000D02*
D03*
X1045000Y335000D02*
D03*
X370000Y345000D02*
D03*
X1105000Y365000D02*
D03*
X1225000Y340000D02*
D03*
X1350000Y315000D02*
D03*
X1410000Y410000D02*
D03*
X1325000Y310000D02*
D03*
X1340000Y350000D02*
D03*
X795000Y466945D02*
D03*
X815000Y470000D02*
D03*
X712500Y497500D02*
D03*
X784656Y420344D02*
D03*
X667500Y412500D02*
D03*
X805000Y415040D02*
D03*
X310000Y425000D02*
D03*
Y435000D02*
D03*
X320000D02*
D03*
Y425000D02*
D03*
X1324920Y237500D02*
D03*
Y187500D02*
D03*
X1338810Y182500D02*
D03*
X1250000Y275000D02*
D03*
X1240000D02*
D03*
X1250000Y265000D02*
D03*
X1240000D02*
D03*
X1250000Y255000D02*
D03*
X1230000Y275000D02*
D03*
X1250000Y245000D02*
D03*
X1230000Y265000D02*
D03*
X1240000Y255000D02*
D03*
X925000Y237500D02*
D03*
X1040000Y272500D02*
D03*
X1050000D02*
D03*
X1100000Y360000D02*
D03*
X1230000Y255000D02*
D03*
X1250000Y235000D02*
D03*
X1240000Y245000D02*
D03*
X1217500Y252500D02*
D03*
X1240000Y235000D02*
D03*
X1230000Y245000D02*
D03*
X337500Y332500D02*
D03*
X287500Y400000D02*
D03*
X322500Y415000D02*
D03*
X680000Y535000D02*
D03*
X730000Y520000D02*
D03*
X770000D02*
D03*
X750000D02*
D03*
X740000D02*
D03*
X780000D02*
D03*
X760000D02*
D03*
X1290000D02*
D03*
X1280000D02*
D03*
X1270000D02*
D03*
X1260000D02*
D03*
X1525000Y532500D02*
D03*
X1372500Y535000D02*
D03*
X1340000Y365000D02*
D03*
X1525000Y337500D02*
D03*
X1537500Y345000D02*
D03*
X1432250Y488500D02*
D03*
X1290000Y405000D02*
D03*
X190000Y100000D02*
D03*
X180000D02*
D03*
X170000D02*
D03*
X160000D02*
D03*
X150000D02*
D03*
Y110000D02*
D03*
Y120000D02*
D03*
Y130000D02*
D03*
Y140000D02*
D03*
Y150000D02*
D03*
X240000Y100000D02*
D03*
Y110000D02*
D03*
Y120000D02*
D03*
Y130000D02*
D03*
Y140000D02*
D03*
Y150000D02*
D03*
X230000D02*
D03*
Y140000D02*
D03*
Y130000D02*
D03*
Y120000D02*
D03*
Y110000D02*
D03*
Y100000D02*
D03*
X220000D02*
D03*
Y110000D02*
D03*
Y120000D02*
D03*
Y130000D02*
D03*
Y140000D02*
D03*
Y150000D02*
D03*
X210000Y100000D02*
D03*
Y110000D02*
D03*
Y120000D02*
D03*
Y130000D02*
D03*
Y140000D02*
D03*
Y150000D02*
D03*
X200000Y100000D02*
D03*
Y110000D02*
D03*
Y120000D02*
D03*
Y130000D02*
D03*
Y140000D02*
D03*
Y150000D02*
D03*
X1432250Y508250D02*
D03*
X1471750Y468750D02*
D03*
X1452000D02*
D03*
X1432250D02*
D03*
X1452000Y508250D02*
D03*
X1471750D02*
D03*
Y488500D02*
D03*
X1452000D02*
D03*
X800000Y405000D02*
D03*
X942500Y417500D02*
D03*
X955000Y419368D02*
D03*
X1530000Y120000D02*
D03*
X1378564Y183564D02*
D03*
X1375186Y172686D02*
D03*
X1485000Y135000D02*
D03*
X1330000Y120000D02*
D03*
X1125000Y130000D02*
D03*
X925000Y135000D02*
D03*
X725000D02*
D03*
X525000D02*
D03*
X525000Y187500D02*
D03*
X810000Y370000D02*
D03*
X820000D02*
D03*
X1615000Y172500D02*
D03*
X1630000Y242500D02*
D03*
X1640000Y262500D02*
D03*
X1630000D02*
D03*
X1615000Y197500D02*
D03*
X1645000D02*
D03*
X1640000Y232500D02*
D03*
X1615000D02*
D03*
X1605000Y227500D02*
D03*
X1650000Y272500D02*
D03*
X1640000D02*
D03*
X1630000D02*
D03*
X1625000Y197500D02*
D03*
X1635000D02*
D03*
X1625000Y172500D02*
D03*
X1635000D02*
D03*
X1642500Y127500D02*
D03*
X1525000Y237500D02*
D03*
Y187500D02*
D03*
X1535000Y182500D02*
D03*
X1617500Y252500D02*
D03*
X1575000Y267500D02*
D03*
X1592500Y182500D02*
D03*
Y190000D02*
D03*
Y175000D02*
D03*
X1577500Y190000D02*
D03*
X1585000Y182500D02*
D03*
X1577500D02*
D03*
Y175000D02*
D03*
X1572500Y140000D02*
D03*
X1205000Y227500D02*
D03*
X1245000Y172500D02*
D03*
X1225000Y197500D02*
D03*
X1235000D02*
D03*
Y172500D02*
D03*
X1225000D02*
D03*
X1242500Y127500D02*
D03*
X1125000Y237500D02*
D03*
Y187500D02*
D03*
X1135000Y182500D02*
D03*
X1175000Y267500D02*
D03*
X1155000D02*
D03*
X1085000Y135000D02*
D03*
X1192500Y182500D02*
D03*
Y175000D02*
D03*
Y190000D02*
D03*
X1177500D02*
D03*
X1185000Y182500D02*
D03*
X1177500D02*
D03*
Y175000D02*
D03*
X1172500Y140000D02*
D03*
X1440000Y242500D02*
D03*
X1430000Y252500D02*
D03*
Y262500D02*
D03*
X1445000Y197500D02*
D03*
X1430000Y232500D02*
D03*
X1415000D02*
D03*
X1405000Y227500D02*
D03*
X1450000Y242500D02*
D03*
Y252500D02*
D03*
Y262500D02*
D03*
X1440000Y272500D02*
D03*
X1430000D02*
D03*
X1425000Y197500D02*
D03*
X1435000D02*
D03*
Y172500D02*
D03*
X1425000D02*
D03*
X1442500Y127500D02*
D03*
X1417500Y252500D02*
D03*
X1375000Y267500D02*
D03*
X1355000D02*
D03*
X1285000Y135000D02*
D03*
X1392500Y182500D02*
D03*
Y175000D02*
D03*
Y190000D02*
D03*
X1377500D02*
D03*
X1385000Y182500D02*
D03*
X1372500Y140000D02*
D03*
X1245000Y197500D02*
D03*
X1230000Y235000D02*
D03*
X1215000Y232500D02*
D03*
X1040000Y242500D02*
D03*
X1030000D02*
D03*
X1040000Y262500D02*
D03*
X1030000D02*
D03*
X1015000Y197500D02*
D03*
X1045000D02*
D03*
X1005000Y227500D02*
D03*
X1050000Y262500D02*
D03*
X1030000Y272500D02*
D03*
X1025000Y197500D02*
D03*
X1035000D02*
D03*
Y172500D02*
D03*
X1025000D02*
D03*
X1042500Y127500D02*
D03*
X925000Y187500D02*
D03*
X935000Y182500D02*
D03*
X1017500Y252500D02*
D03*
X975000Y267500D02*
D03*
X955000D02*
D03*
X885000Y135000D02*
D03*
X992500Y182500D02*
D03*
Y175000D02*
D03*
Y190000D02*
D03*
X977500D02*
D03*
X985000Y182500D02*
D03*
X977500D02*
D03*
Y175000D02*
D03*
X972500Y140000D02*
D03*
X815000Y232500D02*
D03*
X835000Y197500D02*
D03*
X825000D02*
D03*
X835000Y172500D02*
D03*
X825000D02*
D03*
X842500Y127500D02*
D03*
X725000Y237500D02*
D03*
Y187500D02*
D03*
X735000Y182500D02*
D03*
X817500Y252500D02*
D03*
X775000Y267500D02*
D03*
X755000D02*
D03*
X685000Y135000D02*
D03*
X792500Y182500D02*
D03*
Y175000D02*
D03*
Y190000D02*
D03*
X777500D02*
D03*
X785000Y182500D02*
D03*
X777500D02*
D03*
Y175000D02*
D03*
X772500Y140000D02*
D03*
X615000Y172500D02*
D03*
X640000Y242500D02*
D03*
Y262500D02*
D03*
X650000D02*
D03*
Y272500D02*
D03*
X635000Y197500D02*
D03*
X625000D02*
D03*
X635000Y172500D02*
D03*
X625000D02*
D03*
X642500Y127500D02*
D03*
X535000Y182500D02*
D03*
X617500Y252500D02*
D03*
X575000Y267500D02*
D03*
X485000Y135000D02*
D03*
X592500Y182500D02*
D03*
Y175000D02*
D03*
Y190000D02*
D03*
X577500D02*
D03*
X585000Y182500D02*
D03*
X577500D02*
D03*
Y175000D02*
D03*
X572500Y140000D02*
D03*
X815000Y172500D02*
D03*
X845000Y197500D02*
D03*
Y172500D02*
D03*
X640000Y252500D02*
D03*
X630000Y262500D02*
D03*
X615000Y197500D02*
D03*
X645000D02*
D03*
X640000Y232500D02*
D03*
X645000Y172500D02*
D03*
X650000Y242500D02*
D03*
X1640000D02*
D03*
Y252500D02*
D03*
X1630000D02*
D03*
Y232500D02*
D03*
X1650000D02*
D03*
X1645000Y172500D02*
D03*
X1650000Y242500D02*
D03*
Y252500D02*
D03*
Y262500D02*
D03*
X1415000Y172500D02*
D03*
X1430000Y242500D02*
D03*
X1440000Y252500D02*
D03*
Y262500D02*
D03*
X1415000Y197500D02*
D03*
X1440000Y232500D02*
D03*
X1450000D02*
D03*
X1445000Y172500D02*
D03*
X1215000D02*
D03*
Y197500D02*
D03*
X1015000Y172500D02*
D03*
X1040000Y252500D02*
D03*
X1030000D02*
D03*
X1040000Y232500D02*
D03*
X1030000D02*
D03*
X1015000D02*
D03*
X1050000D02*
D03*
X1045000Y172500D02*
D03*
X1050000Y242500D02*
D03*
Y252500D02*
D03*
X815000Y197500D02*
D03*
X805000Y227500D02*
D03*
X630000Y242500D02*
D03*
Y252500D02*
D03*
Y232500D02*
D03*
X615000D02*
D03*
X605000Y227500D02*
D03*
X650000Y232500D02*
D03*
Y252500D02*
D03*
X640000Y272500D02*
D03*
X630000D02*
D03*
M02*
