G04*
G04 #@! TF.GenerationSoftware,Altium Limited,Altium Designer,24.4.1 (13)*
G04*
G04 Layer_Physical_Order=3*
G04 Layer_Color=16440176*
%FSLAX44Y44*%
%MOMM*%
G71*
G04*
G04 #@! TF.SameCoordinates,002769C6-68FF-4E06-BC95-C638BAA8078C*
G04*
G04*
G04 #@! TF.FilePolarity,Positive*
G04*
G01*
G75*
%ADD10C,0.2540*%
%ADD88C,3.0000*%
%ADD89C,1.5700*%
%ADD90R,1.5700X1.5700*%
%ADD102C,0.6350*%
%ADD104C,1.5240*%
%ADD105R,1.5240X1.5240*%
G04:AMPARAMS|DCode=106|XSize=2mm|YSize=2mm|CornerRadius=0mm|HoleSize=0mm|Usage=FLASHONLY|Rotation=0.000|XOffset=0mm|YOffset=0mm|HoleType=Round|Shape=Octagon|*
%AMOCTAGOND106*
4,1,8,1.0000,-0.5000,1.0000,0.5000,0.5000,1.0000,-0.5000,1.0000,-1.0000,0.5000,-1.0000,-0.5000,-0.5000,-1.0000,0.5000,-1.0000,1.0000,-0.5000,0.0*
%
%ADD106OCTAGOND106*%

%ADD107C,1.2192*%
%ADD108R,4.0000X1.5000*%
%ADD109R,3.5000X1.5000*%
%ADD110R,1.5000X3.5000*%
%ADD111O,2.1000X1.0500*%
%ADD112O,1.8000X0.9000*%
%ADD113C,0.6500*%
%ADD114C,2.5000*%
G04:AMPARAMS|DCode=115|XSize=1.2mm|YSize=3.2mm|CornerRadius=0mm|HoleSize=0mm|Usage=FLASHONLY|Rotation=90.000|XOffset=0mm|YOffset=0mm|HoleType=Round|Shape=Octagon|*
%AMOCTAGOND115*
4,1,8,-1.6000,-0.3000,-1.6000,0.3000,-1.3000,0.6000,1.3000,0.6000,1.6000,0.3000,1.6000,-0.3000,1.3000,-0.6000,-1.3000,-0.6000,-1.6000,-0.3000,0.0*
%
%ADD115OCTAGOND115*%

%ADD116O,1.2000X3.0000*%
%ADD117O,3.0000X1.2000*%
%ADD118R,1.5000X4.0000*%
%ADD119C,0.5000*%
G36*
X1180000Y540000D02*
X1371653D01*
X1371750Y538770D01*
X1370365Y538196D01*
X1369304Y537136D01*
X1368730Y535750D01*
Y534250D01*
X1369304Y532864D01*
X1370365Y531804D01*
X1371750Y531230D01*
X1373250D01*
X1374635Y531804D01*
X1375696Y532864D01*
X1376270Y534250D01*
Y535750D01*
X1375696Y537136D01*
X1374635Y538196D01*
X1373250Y538770D01*
X1373347Y540000D01*
X1684709D01*
X1685809Y538354D01*
X1688354Y535809D01*
X1690000Y534709D01*
Y489931D01*
X1688748Y489767D01*
X1687162Y489110D01*
X1685800Y488064D01*
X1684755Y486702D01*
X1684098Y485116D01*
X1683874Y483414D01*
X1684098Y481712D01*
X1684755Y480126D01*
X1685800Y478764D01*
X1687162Y477719D01*
X1688748Y477062D01*
X1690000Y476897D01*
Y403531D01*
X1688748Y403367D01*
X1687162Y402710D01*
X1685800Y401665D01*
X1684755Y400303D01*
X1684098Y398716D01*
X1683874Y397014D01*
X1684098Y395312D01*
X1684755Y393726D01*
X1685800Y392364D01*
X1687162Y391319D01*
X1688748Y390662D01*
X1690000Y390497D01*
Y331564D01*
X1688827Y331078D01*
X1685635Y334270D01*
X1674365D01*
X1668730Y328635D01*
Y317365D01*
X1674365Y311730D01*
X1685635D01*
X1688827Y314922D01*
X1690000Y314436D01*
Y255564D01*
X1688827Y255078D01*
X1685635Y258270D01*
X1674365D01*
X1668730Y252635D01*
Y241365D01*
X1674365Y235730D01*
X1685635D01*
X1688827Y238922D01*
X1690000Y238436D01*
Y65291D01*
X1688354Y64191D01*
X1685809Y61646D01*
X1683809Y58654D01*
X1682432Y55329D01*
X1681730Y51799D01*
Y48201D01*
X1682432Y44671D01*
X1683809Y41346D01*
X1683960Y41120D01*
X1683362Y40000D01*
X260000D01*
X251173Y31173D01*
X250000Y31659D01*
Y270088D01*
X251075Y272684D01*
X251710Y275874D01*
Y279126D01*
X251075Y282316D01*
X250000Y284912D01*
Y290000D01*
X357178D01*
X357664Y288827D01*
X333169Y264331D01*
X332607Y263491D01*
X332410Y262500D01*
Y186940D01*
X331140Y186092D01*
X330710Y186270D01*
X329943D01*
X329077Y186624D01*
X328770Y187443D01*
Y188250D01*
X328196Y189636D01*
X327136Y190696D01*
X325750Y191270D01*
X324250D01*
X322864Y190696D01*
X321804Y189636D01*
X321230Y188250D01*
Y186750D01*
X321804Y185364D01*
X322864Y184304D01*
X324250Y183730D01*
X325017D01*
X325883Y183376D01*
X326190Y182557D01*
Y181750D01*
X326764Y180364D01*
X327825Y179304D01*
X329210Y178730D01*
X330710D01*
X331140Y178908D01*
X332410Y178060D01*
Y122742D01*
X331804Y122135D01*
X331230Y120750D01*
Y119250D01*
X331804Y117865D01*
X332864Y116804D01*
X334250Y116230D01*
X335750D01*
X337136Y116804D01*
X338196Y117865D01*
X338770Y119250D01*
Y120750D01*
X338196Y122135D01*
X337590Y122742D01*
Y261427D01*
X366162Y290000D01*
X470000D01*
Y393838D01*
X528573Y452410D01*
X741952D01*
X742478Y451140D01*
X529943Y238606D01*
X528483Y238942D01*
X528196Y239636D01*
X527136Y240696D01*
X525750Y241270D01*
X524250D01*
X522864Y240696D01*
X521804Y239636D01*
X521230Y238250D01*
Y236750D01*
X521804Y235364D01*
X522864Y234304D01*
X524250Y233730D01*
X525750D01*
X526180Y233908D01*
X527450Y233060D01*
Y191940D01*
X526180Y191092D01*
X525750Y191270D01*
X524250D01*
X522864Y190696D01*
X521804Y189636D01*
X521230Y188250D01*
Y186750D01*
X521804Y185364D01*
X522864Y184304D01*
X523295Y184126D01*
X523593Y182628D01*
X523169Y182204D01*
X522607Y181363D01*
X522410Y180372D01*
Y137742D01*
X521804Y137135D01*
X521230Y135750D01*
Y134250D01*
X521804Y132865D01*
X522864Y131804D01*
X524250Y131230D01*
X525750D01*
X527136Y131804D01*
X528196Y132865D01*
X528770Y134250D01*
Y135750D01*
X528196Y137135D01*
X527590Y137742D01*
Y179300D01*
X530057Y181767D01*
X531408Y181321D01*
X531804Y180364D01*
X532864Y179304D01*
X534250Y178730D01*
X535750D01*
X537136Y179304D01*
X538196Y180364D01*
X538770Y181750D01*
Y183250D01*
X538196Y184636D01*
X537136Y185696D01*
X535750Y186270D01*
X534250D01*
X533900Y186125D01*
X532630Y186973D01*
Y233967D01*
X566191Y267529D01*
X567690Y267231D01*
X567868Y266801D01*
X568928Y265740D01*
X570314Y265166D01*
X571814D01*
X571947Y265221D01*
X572864Y264304D01*
X574250Y263730D01*
X575750D01*
X577136Y264304D01*
X578196Y265364D01*
X578770Y266750D01*
Y268250D01*
X578196Y269636D01*
X577136Y270696D01*
X575750Y271270D01*
X574250D01*
X574117Y271215D01*
X573199Y272132D01*
X572769Y272311D01*
X572471Y273808D01*
X746073Y447410D01*
X795000D01*
X795991Y447607D01*
X796831Y448169D01*
X814893Y466230D01*
X815750D01*
X817135Y466804D01*
X818196Y467864D01*
X818770Y469250D01*
Y470750D01*
X818196Y472136D01*
X817135Y473196D01*
X815750Y473770D01*
X814250D01*
X812865Y473196D01*
X811804Y472136D01*
X811230Y470750D01*
Y469893D01*
X793927Y452590D01*
X788048D01*
X787522Y453860D01*
X792444Y458781D01*
X793005Y459622D01*
X793202Y460613D01*
Y461336D01*
X795041Y463175D01*
X795750D01*
X797135Y463749D01*
X798196Y464809D01*
X798770Y466195D01*
Y467695D01*
X798196Y469081D01*
X797135Y470141D01*
X795750Y470715D01*
X794250D01*
X792865Y470141D01*
X791804Y469081D01*
X791230Y467695D01*
Y466689D01*
X788781Y464240D01*
X788220Y463400D01*
X788023Y462409D01*
Y461685D01*
X783927Y457590D01*
X574440D01*
X573592Y458860D01*
X573770Y459290D01*
Y460790D01*
X573196Y462175D01*
X572136Y463236D01*
X570750Y463810D01*
X569250D01*
X567864Y463236D01*
X566804Y462175D01*
X566230Y460790D01*
Y459290D01*
X566408Y458860D01*
X565560Y457590D01*
X527500D01*
X526509Y457393D01*
X525669Y456831D01*
X471173Y402336D01*
X470000Y402822D01*
Y589752D01*
X1180000D01*
Y540000D01*
D02*
G37*
%LPC*%
G36*
X541626Y573410D02*
X538374D01*
X535184Y572775D01*
X532180Y571531D01*
X529476Y569724D01*
X527176Y567425D01*
X525369Y564720D01*
X524124Y561716D01*
X523490Y558526D01*
Y555274D01*
X524124Y552084D01*
X525369Y549080D01*
X527176Y546376D01*
X529476Y544076D01*
X532180Y542269D01*
X535184Y541025D01*
X538374Y540390D01*
X541626D01*
X544816Y541025D01*
X547820Y542269D01*
X550524Y544076D01*
X552824Y546376D01*
X554631Y549080D01*
X555876Y552084D01*
X556510Y555274D01*
Y558526D01*
X555876Y561716D01*
X554631Y564720D01*
X552824Y567425D01*
X550524Y569724D01*
X547820Y571531D01*
X544816Y572775D01*
X541626Y573410D01*
D02*
G37*
G36*
X1101799Y568270D02*
X1098201D01*
X1094671Y567568D01*
X1091346Y566191D01*
X1088354Y564191D01*
X1085809Y561646D01*
X1083809Y558654D01*
X1082432Y555329D01*
X1081730Y551799D01*
Y548201D01*
X1082432Y544671D01*
X1083809Y541346D01*
X1085809Y538354D01*
X1088354Y535809D01*
X1091346Y533809D01*
X1094671Y532432D01*
X1098201Y531730D01*
X1101799D01*
X1105329Y532432D01*
X1108654Y533809D01*
X1111646Y535809D01*
X1114191Y538354D01*
X1116191Y541346D01*
X1117568Y544671D01*
X1118270Y548201D01*
Y551799D01*
X1117568Y555329D01*
X1116191Y558654D01*
X1114191Y561646D01*
X1111646Y564191D01*
X1108654Y566191D01*
X1105329Y567568D01*
X1101799Y568270D01*
D02*
G37*
G36*
X680750Y538770D02*
X679250D01*
X677865Y538196D01*
X676804Y537136D01*
X676230Y535750D01*
Y534250D01*
X676804Y532864D01*
X677865Y531804D01*
X679250Y531230D01*
X680750D01*
X682135Y531804D01*
X683196Y532864D01*
X683770Y534250D01*
Y535750D01*
X683196Y537136D01*
X682135Y538196D01*
X680750Y538770D01*
D02*
G37*
G36*
X1525750Y536270D02*
X1524250D01*
X1522865Y535696D01*
X1521804Y534636D01*
X1521230Y533250D01*
Y531750D01*
X1521804Y530364D01*
X1522865Y529304D01*
X1524250Y528730D01*
X1525750D01*
X1527135Y529304D01*
X1528196Y530364D01*
X1528770Y531750D01*
Y533250D01*
X1528196Y534636D01*
X1527135Y535696D01*
X1525750Y536270D01*
D02*
G37*
G36*
X1368250Y531270D02*
X1366750D01*
X1365365Y530696D01*
X1364304Y529636D01*
X1363730Y528250D01*
Y526750D01*
X1364304Y525364D01*
X1365365Y524304D01*
X1366646Y523773D01*
X1366890Y523260D01*
X1367128Y522460D01*
X1366804Y522136D01*
X1366230Y520750D01*
Y519250D01*
X1366804Y517864D01*
X1367865Y516804D01*
X1369250Y516230D01*
X1370750D01*
X1372135Y516804D01*
X1373196Y517864D01*
X1373770Y519250D01*
Y520750D01*
X1373196Y522136D01*
X1372135Y523196D01*
X1370854Y523727D01*
X1370610Y524240D01*
X1370372Y525040D01*
X1370696Y525364D01*
X1371270Y526750D01*
Y528250D01*
X1370696Y529636D01*
X1369635Y530696D01*
X1368250Y531270D01*
D02*
G37*
G36*
X1472500Y512020D02*
X1471000D01*
X1469615Y511446D01*
X1468554Y510386D01*
X1467980Y509000D01*
Y507500D01*
X1468554Y506115D01*
X1469615Y505054D01*
X1471000Y504480D01*
X1472500D01*
X1473885Y505054D01*
X1474946Y506115D01*
X1475520Y507500D01*
Y509000D01*
X1474946Y510386D01*
X1473885Y511446D01*
X1472500Y512020D01*
D02*
G37*
G36*
X1452750D02*
X1451250D01*
X1449865Y511446D01*
X1448804Y510386D01*
X1448230Y509000D01*
Y507500D01*
X1448804Y506115D01*
X1449865Y505054D01*
X1451250Y504480D01*
X1452750D01*
X1454135Y505054D01*
X1455196Y506115D01*
X1455770Y507500D01*
Y509000D01*
X1455196Y510386D01*
X1454135Y511446D01*
X1452750Y512020D01*
D02*
G37*
G36*
X1433000D02*
X1431500D01*
X1430114Y511446D01*
X1429054Y510386D01*
X1428480Y509000D01*
Y507500D01*
X1429054Y506115D01*
X1430114Y505054D01*
X1431500Y504480D01*
X1433000D01*
X1434386Y505054D01*
X1435446Y506115D01*
X1436020Y507500D01*
Y509000D01*
X1435446Y510386D01*
X1434386Y511446D01*
X1433000Y512020D01*
D02*
G37*
G36*
X713250Y501270D02*
X711750D01*
X710365Y500696D01*
X709304Y499636D01*
X708730Y498250D01*
Y496750D01*
X709304Y495364D01*
X710365Y494304D01*
X711750Y493730D01*
X713250D01*
X714635Y494304D01*
X715696Y495364D01*
X716270Y496750D01*
Y498250D01*
X715696Y499636D01*
X714635Y500696D01*
X713250Y501270D01*
D02*
G37*
G36*
X1223370Y507366D02*
X1221430D01*
X1219557Y506864D01*
X1217877Y505894D01*
X1216506Y504523D01*
X1215536Y502843D01*
X1215034Y500970D01*
Y499030D01*
X1215536Y497157D01*
X1216506Y495477D01*
X1217877Y494106D01*
X1219557Y493136D01*
X1221430Y492634D01*
X1223370D01*
X1225243Y493136D01*
X1226923Y494106D01*
X1228294Y495477D01*
X1229264Y497157D01*
X1229766Y499030D01*
Y500970D01*
X1229264Y502843D01*
X1228294Y504523D01*
X1226923Y505894D01*
X1225243Y506864D01*
X1223370Y507366D01*
D02*
G37*
G36*
X1197970D02*
X1196030D01*
X1194157Y506864D01*
X1192477Y505894D01*
X1191106Y504523D01*
X1190136Y502843D01*
X1189634Y500970D01*
Y499030D01*
X1190136Y497157D01*
X1191106Y495477D01*
X1192477Y494106D01*
X1194157Y493136D01*
X1196030Y492634D01*
X1197970D01*
X1199843Y493136D01*
X1201523Y494106D01*
X1202894Y495477D01*
X1203864Y497157D01*
X1204366Y499030D01*
Y500970D01*
X1203864Y502843D01*
X1202894Y504523D01*
X1201523Y505894D01*
X1199843Y506864D01*
X1197970Y507366D01*
D02*
G37*
G36*
X525750Y496270D02*
X524250D01*
X522864Y495696D01*
X521804Y494636D01*
X521230Y493250D01*
Y491750D01*
X521804Y490364D01*
X522864Y489304D01*
X524250Y488730D01*
X525750D01*
X527136Y489304D01*
X528196Y490364D01*
X528770Y491750D01*
Y493250D01*
X528196Y494636D01*
X527136Y495696D01*
X525750Y496270D01*
D02*
G37*
G36*
X1135750Y496230D02*
X1134250D01*
X1132865Y495656D01*
X1131804Y494595D01*
X1131230Y493210D01*
Y491710D01*
X1131804Y490325D01*
X1132865Y489264D01*
X1134250Y488690D01*
X1135750D01*
X1137135Y489264D01*
X1138196Y490325D01*
X1138770Y491710D01*
Y493210D01*
X1138196Y494595D01*
X1137135Y495656D01*
X1135750Y496230D01*
D02*
G37*
G36*
X1472500Y492270D02*
X1471000D01*
X1469615Y491696D01*
X1468554Y490635D01*
X1467980Y489250D01*
Y487750D01*
X1468554Y486365D01*
X1469615Y485304D01*
X1471000Y484730D01*
X1472500D01*
X1473885Y485304D01*
X1474946Y486365D01*
X1475520Y487750D01*
Y489250D01*
X1474946Y490635D01*
X1473885Y491696D01*
X1472500Y492270D01*
D02*
G37*
G36*
X1452750D02*
X1451250D01*
X1449865Y491696D01*
X1448804Y490635D01*
X1448230Y489250D01*
Y487750D01*
X1448804Y486365D01*
X1449865Y485304D01*
X1451250Y484730D01*
X1452750D01*
X1454135Y485304D01*
X1455196Y486365D01*
X1455770Y487750D01*
Y489250D01*
X1455196Y490635D01*
X1454135Y491696D01*
X1452750Y492270D01*
D02*
G37*
G36*
X1433000D02*
X1431500D01*
X1430114Y491696D01*
X1429054Y490635D01*
X1428480Y489250D01*
Y487750D01*
X1429054Y486365D01*
X1430114Y485304D01*
X1431500Y484730D01*
X1433000D01*
X1434386Y485304D01*
X1435446Y486365D01*
X1436020Y487750D01*
Y489250D01*
X1435446Y490635D01*
X1434386Y491696D01*
X1433000Y492270D01*
D02*
G37*
G36*
X1280750Y488810D02*
X1279250D01*
X1277865Y488236D01*
X1276804Y487175D01*
X1276230Y485790D01*
Y484290D01*
X1276804Y482905D01*
X1277865Y481844D01*
X1279250Y481270D01*
X1280750D01*
X1282135Y481844D01*
X1283196Y482905D01*
X1283770Y484290D01*
Y485790D01*
X1283196Y487175D01*
X1282135Y488236D01*
X1280750Y488810D01*
D02*
G37*
G36*
X1670750Y486270D02*
X1669250D01*
X1667865Y485696D01*
X1666804Y484636D01*
X1666230Y483250D01*
Y481750D01*
X1666804Y480364D01*
X1667865Y479304D01*
X1669250Y478730D01*
X1670750D01*
X1672135Y479304D01*
X1673196Y480364D01*
X1673770Y481750D01*
Y483250D01*
X1673196Y484636D01*
X1672135Y485696D01*
X1670750Y486270D01*
D02*
G37*
G36*
X1163250Y483770D02*
X1161750D01*
X1160365Y483196D01*
X1159304Y482136D01*
X1158730Y480750D01*
Y479250D01*
X1159304Y477864D01*
X1160365Y476804D01*
X1161750Y476230D01*
X1163250D01*
X1164635Y476804D01*
X1165696Y477864D01*
X1166270Y479250D01*
Y480750D01*
X1165696Y482136D01*
X1164635Y483196D01*
X1163250Y483770D01*
D02*
G37*
G36*
X550750D02*
X549250D01*
X547864Y483196D01*
X546804Y482136D01*
X546230Y480750D01*
Y479250D01*
X546804Y477864D01*
X547864Y476804D01*
X549250Y476230D01*
X550750D01*
X552136Y476804D01*
X553196Y477864D01*
X553770Y479250D01*
Y480750D01*
X553196Y482136D01*
X552136Y483196D01*
X550750Y483770D01*
D02*
G37*
G36*
X1360750Y478730D02*
X1359250D01*
X1357865Y478156D01*
X1356804Y477095D01*
X1356230Y475710D01*
Y474210D01*
X1356804Y472825D01*
X1357865Y471764D01*
X1359250Y471190D01*
X1360750D01*
X1362135Y471764D01*
X1363196Y472825D01*
X1363770Y474210D01*
Y475710D01*
X1363196Y477095D01*
X1362135Y478156D01*
X1360750Y478730D01*
D02*
G37*
G36*
X833250Y471270D02*
X831750D01*
X830365Y470696D01*
X829493Y469824D01*
X828750Y469716D01*
X828007Y469824D01*
X827135Y470696D01*
X825750Y471270D01*
X824250D01*
X822865Y470696D01*
X821804Y469636D01*
X821230Y468250D01*
Y466750D01*
X821804Y465364D01*
X822410Y464758D01*
Y377293D01*
X822607Y376302D01*
X823169Y375462D01*
X826100Y372531D01*
Y285135D01*
X729872Y188907D01*
X728374Y189205D01*
X728196Y189636D01*
X727135Y190696D01*
X725750Y191270D01*
X724250D01*
X722865Y190696D01*
X721804Y189636D01*
X721230Y188250D01*
Y186750D01*
X721804Y185364D01*
X722865Y184304D01*
X723295Y184126D01*
X723593Y182628D01*
X723169Y182204D01*
X722607Y181363D01*
X722410Y180372D01*
Y137742D01*
X721804Y137135D01*
X721230Y135750D01*
Y134250D01*
X721804Y132865D01*
X722865Y131804D01*
X724250Y131230D01*
X725750D01*
X727135Y131804D01*
X728196Y132865D01*
X728770Y134250D01*
Y135750D01*
X728196Y137135D01*
X727590Y137742D01*
Y179300D01*
X730057Y181767D01*
X731408Y181321D01*
X731804Y180364D01*
X732865Y179304D01*
X734250Y178730D01*
X735750D01*
X737135Y179304D01*
X738196Y180364D01*
X738770Y181750D01*
Y183250D01*
X738196Y184636D01*
X737135Y185696D01*
X736179Y186092D01*
X735733Y187443D01*
X822864Y274573D01*
X823940Y273854D01*
X823690Y273250D01*
Y271750D01*
X824264Y270364D01*
X825324Y269304D01*
X826710Y268730D01*
X828210D01*
X828640Y268908D01*
X829821Y268119D01*
Y266881D01*
X828640Y266092D01*
X828210Y266270D01*
X826710D01*
X825324Y265696D01*
X824264Y264636D01*
X823690Y263250D01*
Y261750D01*
X824264Y260364D01*
X825324Y259304D01*
X826710Y258730D01*
X828210D01*
X828640Y258908D01*
X829821Y258119D01*
Y256881D01*
X828640Y256092D01*
X828210Y256270D01*
X826710D01*
X825324Y255696D01*
X824264Y254636D01*
X823690Y253250D01*
Y251750D01*
X824264Y250364D01*
X825324Y249304D01*
X826710Y248730D01*
X828210D01*
X828640Y248908D01*
X829821Y248119D01*
Y246881D01*
X828640Y246092D01*
X828210Y246270D01*
X826710D01*
X825324Y245696D01*
X824264Y244636D01*
X823690Y243250D01*
Y241750D01*
X824264Y240364D01*
X825324Y239304D01*
X826710Y238730D01*
X828210D01*
X828640Y238908D01*
X829821Y238119D01*
Y236881D01*
X828640Y236092D01*
X828210Y236270D01*
X826710D01*
X825324Y235696D01*
X824264Y234636D01*
X823690Y233250D01*
Y231750D01*
X824264Y230364D01*
X825324Y229304D01*
X826710Y228730D01*
X828210D01*
X828640Y228908D01*
X829910Y228060D01*
Y227500D01*
X830107Y226509D01*
X830669Y225669D01*
X921230Y135107D01*
Y134250D01*
X921804Y132865D01*
X922865Y131804D01*
X924250Y131230D01*
X925750D01*
X927135Y131804D01*
X928196Y132865D01*
X928770Y134250D01*
Y135750D01*
X928196Y137135D01*
X927135Y138196D01*
X925750Y138770D01*
X924893D01*
X835090Y228573D01*
Y231184D01*
X836360Y231437D01*
X836804Y230364D01*
X837865Y229304D01*
X839250Y228730D01*
X840750D01*
X842135Y229304D01*
X843196Y230364D01*
X843770Y231750D01*
Y233250D01*
X843196Y234636D01*
X842135Y235696D01*
X840750Y236270D01*
X839250D01*
X837865Y235696D01*
X836804Y234636D01*
X836360Y233563D01*
X835090Y233816D01*
Y241184D01*
X836360Y241437D01*
X836804Y240364D01*
X837865Y239304D01*
X839250Y238730D01*
X840750D01*
X842135Y239304D01*
X843196Y240364D01*
X843770Y241750D01*
Y243250D01*
X843196Y244636D01*
X842135Y245696D01*
X840750Y246270D01*
X839250D01*
X837865Y245696D01*
X836804Y244636D01*
X836360Y243563D01*
X835090Y243816D01*
Y251184D01*
X836360Y251437D01*
X836804Y250364D01*
X837865Y249304D01*
X839250Y248730D01*
X840750D01*
X842135Y249304D01*
X843196Y250364D01*
X843770Y251750D01*
Y253250D01*
X843196Y254636D01*
X842135Y255696D01*
X840750Y256270D01*
X839250D01*
X837865Y255696D01*
X836804Y254636D01*
X836360Y253563D01*
X835090Y253816D01*
Y261184D01*
X836360Y261437D01*
X836804Y260364D01*
X837865Y259304D01*
X839250Y258730D01*
X840750D01*
X842135Y259304D01*
X843196Y260364D01*
X843770Y261750D01*
Y263250D01*
X843196Y264636D01*
X842135Y265696D01*
X840750Y266270D01*
X839250D01*
X837865Y265696D01*
X836804Y264636D01*
X836360Y263563D01*
X835090Y263816D01*
Y271184D01*
X836360Y271437D01*
X836804Y270364D01*
X837865Y269304D01*
X839250Y268730D01*
X840750D01*
X842135Y269304D01*
X843196Y270364D01*
X843770Y271750D01*
Y273250D01*
X843196Y274636D01*
X842135Y275696D01*
X840750Y276270D01*
X839250D01*
X837865Y275696D01*
X836804Y274636D01*
X836360Y273563D01*
X835090Y273816D01*
Y464758D01*
X835696Y465364D01*
X836270Y466750D01*
Y468250D01*
X835696Y469636D01*
X834635Y470696D01*
X833250Y471270D01*
D02*
G37*
G36*
X1310750Y476270D02*
X1309250D01*
X1307865Y475696D01*
X1306804Y474636D01*
X1306230Y473250D01*
Y471750D01*
X1306804Y470364D01*
X1307865Y469304D01*
X1309250Y468730D01*
X1310750D01*
X1312135Y469304D01*
X1313196Y470364D01*
X1313770Y471750D01*
Y473250D01*
X1313196Y474636D01*
X1312135Y475696D01*
X1310750Y476270D01*
D02*
G37*
G36*
X1603250Y472524D02*
X1601750D01*
X1600365Y471950D01*
X1599304Y470890D01*
X1598730Y469504D01*
Y468004D01*
X1599304Y466619D01*
X1600365Y465558D01*
X1601750Y464984D01*
X1603250D01*
X1604635Y465558D01*
X1605696Y466619D01*
X1606270Y468004D01*
Y469504D01*
X1605696Y470890D01*
X1604635Y471950D01*
X1603250Y472524D01*
D02*
G37*
G36*
X1472500Y472520D02*
X1471000D01*
X1469615Y471946D01*
X1468554Y470886D01*
X1467980Y469500D01*
Y468000D01*
X1468554Y466614D01*
X1469615Y465554D01*
X1471000Y464980D01*
X1472500D01*
X1473885Y465554D01*
X1474946Y466614D01*
X1475520Y468000D01*
Y469500D01*
X1474946Y470886D01*
X1473885Y471946D01*
X1472500Y472520D01*
D02*
G37*
G36*
X1452750D02*
X1451250D01*
X1449865Y471946D01*
X1448804Y470886D01*
X1448230Y469500D01*
Y468000D01*
X1448804Y466614D01*
X1449865Y465554D01*
X1451250Y464980D01*
X1452750D01*
X1454135Y465554D01*
X1455196Y466614D01*
X1455770Y468000D01*
Y469500D01*
X1455196Y470886D01*
X1454135Y471946D01*
X1452750Y472520D01*
D02*
G37*
G36*
X1433000D02*
X1431500D01*
X1430114Y471946D01*
X1429054Y470886D01*
X1428480Y469500D01*
Y468000D01*
X1429054Y466614D01*
X1430114Y465554D01*
X1431500Y464980D01*
X1433000D01*
X1434386Y465554D01*
X1435446Y466614D01*
X1436020Y468000D01*
Y469500D01*
X1435446Y470886D01*
X1434386Y471946D01*
X1433000Y472520D01*
D02*
G37*
G36*
X1338349Y466171D02*
X1336849D01*
X1335464Y465597D01*
X1334403Y464536D01*
X1333829Y463151D01*
Y461651D01*
X1334403Y460265D01*
X1335464Y459205D01*
X1336849Y458631D01*
X1338349D01*
X1339735Y459205D01*
X1340795Y460265D01*
X1341369Y461651D01*
Y463151D01*
X1340795Y464536D01*
X1339735Y465597D01*
X1338349Y466171D01*
D02*
G37*
G36*
X1645750Y458730D02*
X1644250D01*
X1642865Y458156D01*
X1641804Y457095D01*
X1641230Y455710D01*
Y454210D01*
X1641804Y452825D01*
X1642865Y451764D01*
X1644250Y451190D01*
X1645750D01*
X1647135Y451764D01*
X1648196Y452825D01*
X1648770Y454210D01*
Y455710D01*
X1648196Y457095D01*
X1647135Y458156D01*
X1645750Y458730D01*
D02*
G37*
G36*
X1093250Y456270D02*
X1091750D01*
X1090365Y455696D01*
X1089304Y454636D01*
X1088730Y453250D01*
Y451750D01*
X1089304Y450364D01*
X1090365Y449304D01*
X1091750Y448730D01*
X1093250D01*
X1094635Y449304D01*
X1095696Y450364D01*
X1096270Y451750D01*
Y453250D01*
X1095696Y454636D01*
X1094635Y455696D01*
X1093250Y456270D01*
D02*
G37*
G36*
X1083250Y453819D02*
X1081750D01*
X1080365Y453245D01*
X1079304Y452185D01*
X1078730Y450799D01*
Y449299D01*
X1079304Y447914D01*
X1080365Y446853D01*
X1081750Y446279D01*
X1083250D01*
X1084635Y446853D01*
X1085696Y447914D01*
X1086270Y449299D01*
Y450799D01*
X1085696Y452185D01*
X1084635Y453245D01*
X1083250Y453819D01*
D02*
G37*
G36*
X1383290Y451270D02*
X1381790D01*
X1380405Y450696D01*
X1379344Y449636D01*
X1378770Y448250D01*
Y446750D01*
X1379344Y445364D01*
X1380405Y444304D01*
X1381790Y443730D01*
X1383290D01*
X1384675Y444304D01*
X1385736Y445364D01*
X1386310Y446750D01*
Y448250D01*
X1385736Y449636D01*
X1384675Y450696D01*
X1383290Y451270D01*
D02*
G37*
G36*
X1135750D02*
X1134250D01*
X1132865Y450696D01*
X1131804Y449636D01*
X1131230Y448250D01*
Y446750D01*
X1131804Y445364D01*
X1132865Y444304D01*
X1134250Y443730D01*
X1135750D01*
X1137135Y444304D01*
X1138196Y445364D01*
X1138770Y446750D01*
Y448250D01*
X1138196Y449636D01*
X1137135Y450696D01*
X1135750Y451270D01*
D02*
G37*
G36*
X1523250Y441270D02*
X1521750D01*
X1520365Y440696D01*
X1519304Y439636D01*
X1518730Y438250D01*
Y436750D01*
X1519304Y435364D01*
X1520365Y434304D01*
X1521750Y433730D01*
X1523250D01*
X1524635Y434304D01*
X1525696Y435364D01*
X1526270Y436750D01*
Y438250D01*
X1525696Y439636D01*
X1524635Y440696D01*
X1523250Y441270D01*
D02*
G37*
G36*
X1020750Y436310D02*
X1019250D01*
X1017865Y435736D01*
X1016804Y434675D01*
X1016230Y433290D01*
Y431790D01*
X1016804Y430404D01*
X1017865Y429344D01*
X1019250Y428770D01*
X1020750D01*
X1022135Y429344D01*
X1023196Y430404D01*
X1023770Y431790D01*
Y433290D01*
X1023196Y434675D01*
X1022135Y435736D01*
X1020750Y436310D01*
D02*
G37*
G36*
X880750Y436270D02*
X879250D01*
X877865Y435696D01*
X876804Y434636D01*
X876230Y433250D01*
Y431750D01*
X876804Y430364D01*
X877865Y429304D01*
X879250Y428730D01*
X880750D01*
X882135Y429304D01*
X883196Y430364D01*
X883770Y431750D01*
Y433250D01*
X883196Y434636D01*
X882135Y435696D01*
X880750Y436270D01*
D02*
G37*
G36*
X948250Y434761D02*
X946750D01*
X945365Y434188D01*
X944304Y433127D01*
X943730Y431741D01*
Y430242D01*
X944304Y428856D01*
X945365Y427795D01*
X946750Y427221D01*
X948250D01*
X949636Y427795D01*
X950696Y428856D01*
X951270Y430242D01*
Y431741D01*
X950696Y433127D01*
X949636Y434188D01*
X948250Y434761D01*
D02*
G37*
G36*
X1085750Y433770D02*
X1084250D01*
X1082865Y433196D01*
X1081804Y432136D01*
X1081230Y430750D01*
Y429250D01*
X1081804Y427864D01*
X1082865Y426804D01*
X1084250Y426230D01*
X1085750D01*
X1087135Y426804D01*
X1088196Y427864D01*
X1088770Y429250D01*
Y430750D01*
X1088196Y432136D01*
X1087135Y433196D01*
X1085750Y433770D01*
D02*
G37*
G36*
X915750D02*
X914250D01*
X912865Y433196D01*
X911804Y432136D01*
X911230Y430750D01*
Y429250D01*
X911804Y427864D01*
X912865Y426804D01*
X914250Y426230D01*
X915750D01*
X917135Y426804D01*
X918196Y427864D01*
X918770Y429250D01*
Y430750D01*
X918196Y432136D01*
X917135Y433196D01*
X915750Y433770D01*
D02*
G37*
G36*
X1120750Y431270D02*
X1119250D01*
X1117865Y430696D01*
X1116804Y429636D01*
X1116230Y428250D01*
Y426750D01*
X1116804Y425364D01*
X1117865Y424304D01*
X1119250Y423730D01*
X1120750D01*
X1122136Y424304D01*
X1123196Y425364D01*
X1123770Y426750D01*
Y428250D01*
X1123196Y429636D01*
X1122136Y430696D01*
X1120750Y431270D01*
D02*
G37*
G36*
X1423250Y431230D02*
X1421750D01*
X1420365Y430656D01*
X1419304Y429595D01*
X1418730Y428210D01*
Y426710D01*
X1419304Y425325D01*
X1420365Y424264D01*
X1421750Y423690D01*
X1423250D01*
X1424635Y424264D01*
X1425696Y425325D01*
X1426270Y426710D01*
Y428210D01*
X1425696Y429595D01*
X1424635Y430656D01*
X1423250Y431230D01*
D02*
G37*
G36*
X1393250D02*
X1391750D01*
X1390365Y430656D01*
X1389304Y429595D01*
X1388730Y428210D01*
Y426710D01*
X1389304Y425325D01*
X1390365Y424264D01*
X1391750Y423690D01*
X1393250D01*
X1394635Y424264D01*
X1395696Y425325D01*
X1396270Y426710D01*
Y428210D01*
X1395696Y429595D01*
X1394635Y430656D01*
X1393250Y431230D01*
D02*
G37*
G36*
X1248250D02*
X1246750D01*
X1245365Y430656D01*
X1244304Y429595D01*
X1243730Y428210D01*
Y426710D01*
X1244304Y425325D01*
X1245365Y424264D01*
X1246750Y423690D01*
X1248250D01*
X1249635Y424264D01*
X1250696Y425325D01*
X1251270Y426710D01*
Y428210D01*
X1250696Y429595D01*
X1249635Y430656D01*
X1248250Y431230D01*
D02*
G37*
G36*
X1475750Y428770D02*
X1474250D01*
X1472865Y428196D01*
X1471804Y427136D01*
X1471230Y425750D01*
Y424250D01*
X1471804Y422864D01*
X1472865Y421804D01*
X1474250Y421230D01*
X1475750D01*
X1477135Y421804D01*
X1478196Y422864D01*
X1478770Y424250D01*
Y425750D01*
X1478196Y427136D01*
X1477135Y428196D01*
X1475750Y428770D01*
D02*
G37*
G36*
X855790D02*
X854290D01*
X852905Y428196D01*
X851844Y427136D01*
X851270Y425750D01*
Y424250D01*
X851844Y422864D01*
X852905Y421804D01*
X854290Y421230D01*
X855790D01*
X857176Y421804D01*
X858236Y422864D01*
X858810Y424250D01*
Y425750D01*
X858236Y427136D01*
X857176Y428196D01*
X855790Y428770D01*
D02*
G37*
G36*
X785406Y424114D02*
X783906D01*
X782520Y423540D01*
X781460Y422480D01*
X780886Y421094D01*
Y419594D01*
X781460Y418209D01*
X782520Y417148D01*
X783906Y416574D01*
X785406D01*
X786792Y417148D01*
X787852Y418209D01*
X788426Y419594D01*
Y421094D01*
X787852Y422480D01*
X786792Y423540D01*
X785406Y424114D01*
D02*
G37*
G36*
X1643250Y423770D02*
X1641750D01*
X1640365Y423196D01*
X1639304Y422136D01*
X1638730Y420750D01*
Y419250D01*
X1639304Y417864D01*
X1640365Y416804D01*
X1641750Y416230D01*
X1643250D01*
X1644635Y416804D01*
X1645696Y417864D01*
X1646270Y419250D01*
Y420750D01*
X1645696Y422136D01*
X1644635Y423196D01*
X1643250Y423770D01*
D02*
G37*
G36*
X655750Y423770D02*
X654250D01*
X652865Y423196D01*
X651804Y422136D01*
X651230Y420750D01*
Y419250D01*
X651804Y417864D01*
X652865Y416804D01*
X654250Y416230D01*
X655750D01*
X657135Y416804D01*
X658196Y417864D01*
X658770Y419250D01*
Y420750D01*
X658196Y422136D01*
X657135Y423196D01*
X655750Y423770D01*
D02*
G37*
G36*
X955750Y423138D02*
X954250D01*
X952865Y422564D01*
X951804Y421503D01*
X951230Y420118D01*
Y418618D01*
X951804Y417232D01*
X952865Y416172D01*
X954250Y415598D01*
X955750D01*
X957136Y416172D01*
X958196Y417232D01*
X958770Y418618D01*
Y420118D01*
X958196Y421503D01*
X957136Y422564D01*
X955750Y423138D01*
D02*
G37*
G36*
X943250Y421270D02*
X941750D01*
X940365Y420696D01*
X939304Y419636D01*
X938730Y418250D01*
Y416750D01*
X939304Y415364D01*
X940365Y414304D01*
X941750Y413730D01*
X943250D01*
X944636Y414304D01*
X945696Y415364D01*
X946270Y416750D01*
Y418250D01*
X945696Y419636D01*
X944636Y420696D01*
X943250Y421270D01*
D02*
G37*
G36*
X1223370Y427366D02*
X1221430D01*
X1219557Y426864D01*
X1217877Y425894D01*
X1216506Y424523D01*
X1215536Y422843D01*
X1215034Y420970D01*
Y419030D01*
X1215536Y417157D01*
X1216506Y415477D01*
X1217877Y414106D01*
X1219557Y413136D01*
X1221430Y412634D01*
X1223370D01*
X1225243Y413136D01*
X1226923Y414106D01*
X1228294Y415477D01*
X1229264Y417157D01*
X1229766Y419030D01*
Y420970D01*
X1229264Y422843D01*
X1228294Y424523D01*
X1226923Y425894D01*
X1225243Y426864D01*
X1223370Y427366D01*
D02*
G37*
G36*
X1197970D02*
X1196030D01*
X1194157Y426864D01*
X1192477Y425894D01*
X1191106Y424523D01*
X1190136Y422843D01*
X1189634Y420970D01*
Y419030D01*
X1190136Y417157D01*
X1191106Y415477D01*
X1192477Y414106D01*
X1194157Y413136D01*
X1196030Y412634D01*
X1197970D01*
X1199843Y413136D01*
X1201523Y414106D01*
X1202894Y415477D01*
X1203864Y417157D01*
X1204366Y419030D01*
Y420970D01*
X1203864Y422843D01*
X1202894Y424523D01*
X1201523Y425894D01*
X1199843Y426864D01*
X1197970Y427366D01*
D02*
G37*
G36*
X805750Y418810D02*
X804250D01*
X802865Y418236D01*
X801804Y417175D01*
X801230Y415790D01*
Y414290D01*
X801804Y412905D01*
X802865Y411844D01*
X804250Y411270D01*
X805750D01*
X807136Y411844D01*
X808196Y412905D01*
X808770Y414290D01*
Y415790D01*
X808196Y417175D01*
X807136Y418236D01*
X805750Y418810D01*
D02*
G37*
G36*
X1400750Y418770D02*
X1399250D01*
X1397865Y418196D01*
X1396804Y417136D01*
X1396230Y415750D01*
Y414250D01*
X1396804Y412864D01*
X1397865Y411804D01*
X1399250Y411230D01*
X1400750D01*
X1402135Y411804D01*
X1403196Y412864D01*
X1403770Y414250D01*
Y415750D01*
X1403196Y417136D01*
X1402135Y418196D01*
X1400750Y418770D01*
D02*
G37*
G36*
X1435750Y416270D02*
X1434250D01*
X1432865Y415696D01*
X1431804Y414636D01*
X1431230Y413250D01*
Y411750D01*
X1431804Y410364D01*
X1432865Y409304D01*
X1434250Y408730D01*
X1435750D01*
X1437135Y409304D01*
X1438196Y410364D01*
X1438770Y411750D01*
Y413250D01*
X1438196Y414636D01*
X1437135Y415696D01*
X1435750Y416270D01*
D02*
G37*
G36*
X668250Y416270D02*
X666750D01*
X665365Y415696D01*
X664304Y414636D01*
X663730Y413250D01*
Y411750D01*
X664304Y410364D01*
X665365Y409304D01*
X666750Y408730D01*
X668250D01*
X669635Y409304D01*
X670696Y410364D01*
X671270Y411750D01*
Y413250D01*
X670696Y414636D01*
X669635Y415696D01*
X668250Y416270D01*
D02*
G37*
G36*
X1410750Y413770D02*
X1409250D01*
X1407865Y413196D01*
X1406804Y412136D01*
X1406230Y410750D01*
Y409250D01*
X1406804Y407864D01*
X1407865Y406804D01*
X1409250Y406230D01*
X1410750D01*
X1412135Y406804D01*
X1413196Y407864D01*
X1413770Y409250D01*
Y410750D01*
X1413196Y412136D01*
X1412135Y413196D01*
X1410750Y413770D01*
D02*
G37*
G36*
X1675750Y408770D02*
X1674250D01*
X1672865Y408196D01*
X1671804Y407136D01*
X1671230Y405750D01*
Y404250D01*
X1671804Y402864D01*
X1672865Y401804D01*
X1674250Y401230D01*
X1675750D01*
X1677135Y401804D01*
X1678196Y402864D01*
X1678770Y404250D01*
Y405750D01*
X1678196Y407136D01*
X1677135Y408196D01*
X1675750Y408770D01*
D02*
G37*
G36*
X1290750D02*
X1289250D01*
X1287865Y408196D01*
X1286804Y407136D01*
X1286230Y405750D01*
Y404250D01*
X1286804Y402864D01*
X1287865Y401804D01*
X1289250Y401230D01*
X1290750D01*
X1292135Y401804D01*
X1293196Y402864D01*
X1293770Y404250D01*
Y405750D01*
X1293196Y407136D01*
X1292135Y408196D01*
X1290750Y408770D01*
D02*
G37*
G36*
X800750D02*
X799250D01*
X797865Y408196D01*
X796804Y407136D01*
X796230Y405750D01*
Y404250D01*
X796804Y402864D01*
X797865Y401804D01*
X799250Y401230D01*
X800750D01*
X802136Y401804D01*
X803196Y402864D01*
X803770Y404250D01*
Y405750D01*
X803196Y407136D01*
X802136Y408196D01*
X800750Y408770D01*
D02*
G37*
G36*
X1618250Y406310D02*
X1616750D01*
X1615365Y405736D01*
X1614304Y404675D01*
X1613730Y403290D01*
Y401790D01*
X1614304Y400405D01*
X1615365Y399344D01*
X1616750Y398770D01*
X1618250D01*
X1619635Y399344D01*
X1620696Y400405D01*
X1621270Y401790D01*
Y403290D01*
X1620696Y404675D01*
X1619635Y405736D01*
X1618250Y406310D01*
D02*
G37*
G36*
X1523250Y406270D02*
X1521750D01*
X1520365Y405696D01*
X1519304Y404636D01*
X1518730Y403250D01*
Y401750D01*
X1519304Y400364D01*
X1520365Y399304D01*
X1521750Y398730D01*
X1523250D01*
X1524635Y399304D01*
X1525696Y400364D01*
X1526270Y401750D01*
Y403250D01*
X1525696Y404636D01*
X1524635Y405696D01*
X1523250Y406270D01*
D02*
G37*
G36*
X1608250Y401270D02*
X1606750D01*
X1605365Y400696D01*
X1604304Y399636D01*
X1603730Y398250D01*
Y396750D01*
X1604304Y395364D01*
X1605365Y394304D01*
X1606750Y393730D01*
X1608250D01*
X1609635Y394304D01*
X1610696Y395364D01*
X1611270Y396750D01*
Y398250D01*
X1610696Y399636D01*
X1609635Y400696D01*
X1608250Y401270D01*
D02*
G37*
G36*
X1340806Y398810D02*
X1339306D01*
X1337920Y398236D01*
X1336860Y397175D01*
X1336286Y395790D01*
Y394290D01*
X1336860Y392904D01*
X1337920Y391844D01*
X1339306Y391270D01*
X1340806D01*
X1342191Y391844D01*
X1343252Y392904D01*
X1343826Y394290D01*
Y395790D01*
X1343252Y397175D01*
X1342191Y398236D01*
X1340806Y398810D01*
D02*
G37*
G36*
X1668250Y393770D02*
X1666750D01*
X1665365Y393196D01*
X1664304Y392136D01*
X1663730Y390750D01*
Y389250D01*
X1664304Y387864D01*
X1665365Y386804D01*
X1666750Y386230D01*
X1668250D01*
X1669635Y386804D01*
X1670696Y387864D01*
X1671270Y389250D01*
Y390750D01*
X1670696Y392136D01*
X1669635Y393196D01*
X1668250Y393770D01*
D02*
G37*
G36*
X1400750Y391270D02*
X1399250D01*
X1397865Y390696D01*
X1396804Y389636D01*
X1396230Y388250D01*
Y386750D01*
X1396804Y385364D01*
X1397865Y384304D01*
X1399250Y383730D01*
X1400750D01*
X1402135Y384304D01*
X1403196Y385364D01*
X1403770Y386750D01*
Y388250D01*
X1403196Y389636D01*
X1402135Y390696D01*
X1400750Y391270D01*
D02*
G37*
G36*
X1222038Y375940D02*
X1153719D01*
X1152728Y375743D01*
X1151888Y375181D01*
X1149296Y372590D01*
X1117742D01*
X1117135Y373196D01*
X1115750Y373770D01*
X1114250D01*
X1112865Y373196D01*
X1111804Y372136D01*
X1111230Y370750D01*
Y369250D01*
X1111408Y368820D01*
X1110560Y367550D01*
X1107782D01*
X1107135Y368196D01*
X1105750Y368770D01*
X1104250D01*
X1102865Y368196D01*
X1101804Y367136D01*
X1101230Y365750D01*
Y364943D01*
X1100889Y364111D01*
X1100057Y363770D01*
X1099250D01*
X1097865Y363196D01*
X1096804Y362136D01*
X1096230Y360750D01*
Y359250D01*
X1096804Y357864D01*
X1097865Y356804D01*
X1099250Y356230D01*
X1100107D01*
X1132410Y323927D01*
Y191445D01*
X1129872Y188907D01*
X1128374Y189205D01*
X1128196Y189636D01*
X1127135Y190696D01*
X1125750Y191270D01*
X1124250D01*
X1122865Y190696D01*
X1121804Y189636D01*
X1121230Y188250D01*
Y186750D01*
X1121804Y185364D01*
X1122865Y184304D01*
X1123295Y184126D01*
X1123593Y182628D01*
X1123169Y182204D01*
X1122607Y181363D01*
X1122410Y180372D01*
Y132742D01*
X1121804Y132135D01*
X1121230Y130750D01*
Y129250D01*
X1121804Y127865D01*
X1122865Y126804D01*
X1124250Y126230D01*
X1125750D01*
X1127135Y126804D01*
X1128196Y127865D01*
X1128770Y129250D01*
Y130750D01*
X1128196Y132135D01*
X1127590Y132742D01*
Y179300D01*
X1130057Y181767D01*
X1131408Y181321D01*
X1131804Y180364D01*
X1132865Y179304D01*
X1134250Y178730D01*
X1135750D01*
X1137135Y179304D01*
X1138196Y180364D01*
X1138770Y181750D01*
Y183250D01*
X1138196Y184636D01*
X1137135Y185696D01*
X1136179Y186092D01*
X1135733Y187443D01*
X1136831Y188541D01*
X1137393Y189381D01*
X1137590Y190372D01*
Y325000D01*
X1137393Y325991D01*
X1136831Y326831D01*
X1103946Y359717D01*
X1104271Y360955D01*
X1104943Y361230D01*
X1105750D01*
X1107135Y361804D01*
X1107702Y362370D01*
X1161008D01*
X1161999Y362567D01*
X1162839Y363129D01*
X1166661Y366950D01*
X1170197D01*
X1170582Y365680D01*
X1168354Y364191D01*
X1165809Y361646D01*
X1163809Y358654D01*
X1162432Y355329D01*
X1161730Y351799D01*
Y348201D01*
X1162432Y344671D01*
X1163809Y341346D01*
X1165809Y338354D01*
X1168354Y335809D01*
X1171346Y333809D01*
X1174671Y332432D01*
X1178201Y331730D01*
X1181799D01*
X1185329Y332432D01*
X1188654Y333809D01*
X1191646Y335809D01*
X1194191Y338354D01*
X1196191Y341346D01*
X1197568Y344671D01*
X1198270Y348201D01*
Y351799D01*
X1197568Y355329D01*
X1196191Y358654D01*
X1194191Y361646D01*
X1191646Y364191D01*
X1189418Y365680D01*
X1189803Y366950D01*
X1219387D01*
X1327370Y258967D01*
Y241940D01*
X1326100Y241092D01*
X1325670Y241270D01*
X1324170D01*
X1322784Y240696D01*
X1321724Y239636D01*
X1321150Y238250D01*
Y236750D01*
X1321724Y235364D01*
X1322784Y234304D01*
X1324170Y233730D01*
X1325670D01*
X1326100Y233908D01*
X1327370Y233060D01*
Y191940D01*
X1326100Y191092D01*
X1325670Y191270D01*
X1324170D01*
X1322784Y190696D01*
X1321724Y189636D01*
X1321150Y188250D01*
Y186750D01*
X1321724Y185364D01*
X1322784Y184304D01*
X1324170Y183730D01*
X1325670D01*
X1326100Y183908D01*
X1327370Y183060D01*
Y122702D01*
X1326804Y122135D01*
X1326230Y120750D01*
Y119250D01*
X1326804Y117865D01*
X1327865Y116804D01*
X1329250Y116230D01*
X1330750D01*
X1332135Y116804D01*
X1333196Y117865D01*
X1333770Y119250D01*
Y120750D01*
X1333196Y122135D01*
X1332550Y122782D01*
Y174972D01*
X1333775Y175306D01*
X1364794Y122712D01*
X1364948Y122540D01*
X1364913Y122252D01*
X1364468Y121270D01*
X1363730D01*
Y103730D01*
X1406270D01*
Y119950D01*
X1439260D01*
X1441041Y118169D01*
X1441881Y117607D01*
X1442872Y117410D01*
X1527258D01*
X1527865Y116804D01*
X1529250Y116230D01*
X1530750D01*
X1532135Y116804D01*
X1533196Y117865D01*
X1533770Y119250D01*
Y120750D01*
X1533196Y122135D01*
X1532135Y123196D01*
X1530750Y123770D01*
X1529250D01*
X1527865Y123196D01*
X1527258Y122590D01*
X1445195D01*
X1444845Y123016D01*
X1444636Y124304D01*
X1445696Y125365D01*
X1446270Y126750D01*
Y128250D01*
X1445696Y129635D01*
X1444635Y130696D01*
X1443250Y131270D01*
X1441750D01*
X1440365Y130696D01*
X1439304Y129635D01*
X1438730Y128250D01*
Y126750D01*
X1438875Y126400D01*
X1438026Y125130D01*
X1369585D01*
X1369088Y125627D01*
X1338518Y177460D01*
X1339243Y178730D01*
X1339560D01*
X1340945Y179304D01*
X1342006Y180364D01*
X1342580Y181750D01*
Y183250D01*
X1342006Y184636D01*
X1340945Y185696D01*
X1339560Y186270D01*
X1338060D01*
X1337630Y186092D01*
X1336360Y186940D01*
Y261618D01*
X1336163Y262609D01*
X1335601Y263449D01*
X1223869Y375181D01*
X1223029Y375743D01*
X1222038Y375940D01*
D02*
G37*
G36*
X820750Y373770D02*
X819250D01*
X817865Y373196D01*
X816804Y372136D01*
X816230Y370750D01*
Y369250D01*
X816804Y367864D01*
X817865Y366804D01*
X819250Y366230D01*
X820750D01*
X822136Y366804D01*
X823196Y367864D01*
X823770Y369250D01*
Y370750D01*
X823196Y372136D01*
X822136Y373196D01*
X820750Y373770D01*
D02*
G37*
G36*
X810750D02*
X809250D01*
X807865Y373196D01*
X806804Y372136D01*
X806230Y370750D01*
Y369250D01*
X806804Y367864D01*
X807865Y366804D01*
X809250Y366230D01*
X810750D01*
X812136Y366804D01*
X813196Y367864D01*
X813770Y369250D01*
Y370750D01*
X813196Y372136D01*
X812136Y373196D01*
X810750Y373770D01*
D02*
G37*
G36*
X1320952Y373568D02*
X1319452D01*
X1318066Y372994D01*
X1317006Y371934D01*
X1316432Y370548D01*
Y369048D01*
X1317006Y367663D01*
X1318066Y366602D01*
X1319452Y366028D01*
X1320952D01*
X1322337Y366602D01*
X1323398Y367663D01*
X1323972Y369048D01*
Y370548D01*
X1323398Y371934D01*
X1322337Y372994D01*
X1320952Y373568D01*
D02*
G37*
G36*
X1375750Y368770D02*
X1374250D01*
X1372865Y368196D01*
X1371804Y367136D01*
X1371230Y365750D01*
Y364250D01*
X1371804Y362864D01*
X1372865Y361804D01*
X1374250Y361230D01*
X1375750D01*
X1377135Y361804D01*
X1378196Y362864D01*
X1378770Y364250D01*
Y365750D01*
X1378196Y367136D01*
X1377135Y368196D01*
X1375750Y368770D01*
D02*
G37*
G36*
X626545Y366150D02*
X625045D01*
X623660Y365576D01*
X622599Y364515D01*
X622025Y363130D01*
Y361630D01*
X622599Y360244D01*
X623660Y359184D01*
X625045Y358610D01*
X626545D01*
X627930Y359184D01*
X628991Y360244D01*
X629565Y361630D01*
Y363130D01*
X628991Y364515D01*
X627930Y365576D01*
X626545Y366150D01*
D02*
G37*
G36*
X1373922Y355598D02*
X1372422D01*
X1371037Y355024D01*
X1369976Y353963D01*
X1369402Y352578D01*
Y351078D01*
X1369976Y349692D01*
X1371037Y348632D01*
X1372422Y348058D01*
X1373922D01*
X1375308Y348632D01*
X1376368Y349692D01*
X1376942Y351078D01*
Y352578D01*
X1376368Y353963D01*
X1375308Y355024D01*
X1373922Y355598D01*
D02*
G37*
G36*
X1538250Y348770D02*
X1536750D01*
X1535365Y348196D01*
X1534304Y347136D01*
X1533730Y345750D01*
Y344250D01*
X1534304Y342864D01*
X1535365Y341804D01*
X1536750Y341230D01*
X1538250D01*
X1539635Y341804D01*
X1540696Y342864D01*
X1541270Y344250D01*
Y345750D01*
X1540696Y347136D01*
X1539635Y348196D01*
X1538250Y348770D01*
D02*
G37*
G36*
X1225750Y343770D02*
X1224250D01*
X1222865Y343196D01*
X1221804Y342136D01*
X1221230Y340750D01*
Y339250D01*
X1221804Y337864D01*
X1222865Y336804D01*
X1224250Y336230D01*
X1225750D01*
X1227135Y336804D01*
X1228196Y337864D01*
X1228770Y339250D01*
Y340750D01*
X1228196Y342136D01*
X1227135Y343196D01*
X1225750Y343770D01*
D02*
G37*
G36*
X985750Y343770D02*
X984250D01*
X982865Y343196D01*
X981804Y342136D01*
X981230Y340750D01*
Y339250D01*
X981804Y337864D01*
X982865Y336804D01*
X984250Y336230D01*
X985750D01*
X987135Y336804D01*
X988196Y337864D01*
X988770Y339250D01*
Y340750D01*
X988196Y342136D01*
X987135Y343196D01*
X985750Y343770D01*
D02*
G37*
G36*
X1525750Y341270D02*
X1524250D01*
X1522865Y340696D01*
X1521804Y339636D01*
X1521230Y338250D01*
Y336750D01*
X1521804Y335364D01*
X1522865Y334304D01*
X1524250Y333730D01*
X1525750D01*
X1527135Y334304D01*
X1528196Y335364D01*
X1528770Y336750D01*
Y338250D01*
X1528196Y339636D01*
X1527135Y340696D01*
X1525750Y341270D01*
D02*
G37*
G36*
X1591799Y368270D02*
X1588201D01*
X1584671Y367568D01*
X1581346Y366191D01*
X1578354Y364191D01*
X1575809Y361646D01*
X1573809Y358654D01*
X1572432Y355329D01*
X1571730Y351799D01*
Y348201D01*
X1572432Y344671D01*
X1573809Y341346D01*
X1575809Y338354D01*
X1578354Y335809D01*
X1581346Y333809D01*
X1584671Y332432D01*
X1588201Y331730D01*
X1591799D01*
X1595329Y332432D01*
X1598654Y333809D01*
X1601646Y335809D01*
X1604191Y338354D01*
X1606191Y341346D01*
X1607568Y344671D01*
X1608270Y348201D01*
Y351799D01*
X1607568Y355329D01*
X1606191Y358654D01*
X1604191Y361646D01*
X1601646Y364191D01*
X1598654Y366191D01*
X1595329Y367568D01*
X1591799Y368270D01*
D02*
G37*
G36*
X901799D02*
X898201D01*
X894671Y367568D01*
X891346Y366191D01*
X888354Y364191D01*
X885809Y361646D01*
X883809Y358654D01*
X882432Y355329D01*
X881730Y351799D01*
Y348201D01*
X882432Y344671D01*
X883809Y341346D01*
X885809Y338354D01*
X888354Y335809D01*
X891346Y333809D01*
X894671Y332432D01*
X898201Y331730D01*
X901799D01*
X905329Y332432D01*
X908654Y333809D01*
X911646Y335809D01*
X914191Y338354D01*
X916191Y341346D01*
X917568Y344671D01*
X918270Y348201D01*
Y351799D01*
X917568Y355329D01*
X916191Y358654D01*
X914191Y361646D01*
X911646Y364191D01*
X908654Y366191D01*
X905329Y367568D01*
X901799Y368270D01*
D02*
G37*
G36*
X1045750Y338770D02*
X1044250D01*
X1042865Y338196D01*
X1041804Y337136D01*
X1041230Y335750D01*
Y334250D01*
X1041804Y332864D01*
X1042865Y331804D01*
X1044250Y331230D01*
X1045750D01*
X1047135Y331804D01*
X1048196Y332864D01*
X1048770Y334250D01*
Y335750D01*
X1048196Y337136D01*
X1047135Y338196D01*
X1045750Y338770D01*
D02*
G37*
G36*
X1645750Y333770D02*
X1644250D01*
X1642865Y333196D01*
X1641804Y332136D01*
X1641230Y330750D01*
Y329250D01*
X1641804Y327864D01*
X1642865Y326804D01*
X1644250Y326230D01*
X1645750D01*
X1647135Y326804D01*
X1648196Y327864D01*
X1648770Y329250D01*
Y330750D01*
X1648196Y332136D01*
X1647135Y333196D01*
X1645750Y333770D01*
D02*
G37*
G36*
X1433250D02*
X1431750D01*
X1430365Y333196D01*
X1429304Y332136D01*
X1428730Y330750D01*
Y329250D01*
X1429304Y327864D01*
X1430365Y326804D01*
X1431750Y326230D01*
X1433250D01*
X1434635Y326804D01*
X1435696Y327864D01*
X1436270Y329250D01*
Y330750D01*
X1435696Y332136D01*
X1434635Y333196D01*
X1433250Y333770D01*
D02*
G37*
G36*
X1060750Y332620D02*
X1059250D01*
X1057865Y332046D01*
X1056804Y330985D01*
X1056230Y329600D01*
Y328100D01*
X1056804Y326715D01*
X1057865Y325654D01*
X1059250Y325080D01*
X1060750D01*
X1062135Y325654D01*
X1063196Y326715D01*
X1063770Y328100D01*
Y329600D01*
X1063196Y330985D01*
X1062135Y332046D01*
X1060750Y332620D01*
D02*
G37*
G36*
X1400750Y331270D02*
X1399250D01*
X1397865Y330696D01*
X1396804Y329636D01*
X1396230Y328250D01*
Y326750D01*
X1396804Y325364D01*
X1397865Y324304D01*
X1399250Y323730D01*
X1400750D01*
X1402135Y324304D01*
X1403196Y325364D01*
X1403770Y326750D01*
Y328250D01*
X1403196Y329636D01*
X1402135Y330696D01*
X1400750Y331270D01*
D02*
G37*
G36*
X1225750Y328810D02*
X1224250D01*
X1222865Y328236D01*
X1221804Y327175D01*
X1221230Y325790D01*
Y324290D01*
X1221804Y322905D01*
X1222865Y321844D01*
X1224250Y321270D01*
X1225750D01*
X1227135Y321844D01*
X1228196Y322905D01*
X1228770Y324290D01*
Y325790D01*
X1228196Y327175D01*
X1227135Y328236D01*
X1225750Y328810D01*
D02*
G37*
G36*
X1350750Y318770D02*
X1349250D01*
X1347865Y318196D01*
X1346804Y317136D01*
X1346230Y315750D01*
Y314250D01*
X1346804Y312864D01*
X1347865Y311804D01*
X1349250Y311230D01*
X1350750D01*
X1352135Y311804D01*
X1353196Y312864D01*
X1353770Y314250D01*
Y315750D01*
X1353196Y317136D01*
X1352135Y318196D01*
X1350750Y318770D01*
D02*
G37*
G36*
X1325750Y313770D02*
X1324250D01*
X1322865Y313196D01*
X1321804Y312136D01*
X1321230Y310750D01*
Y309250D01*
X1321804Y307864D01*
X1322865Y306804D01*
X1324250Y306230D01*
X1325750D01*
X1327135Y306804D01*
X1328196Y307864D01*
X1328770Y309250D01*
Y310750D01*
X1328196Y312136D01*
X1327135Y313196D01*
X1325750Y313770D01*
D02*
G37*
G36*
X1060750Y298966D02*
X1059250D01*
X1057865Y298392D01*
X1056804Y297332D01*
X1056230Y295946D01*
Y294446D01*
X1056804Y293061D01*
X1057865Y292000D01*
X1059250Y291426D01*
X1060750D01*
X1062135Y292000D01*
X1063196Y293061D01*
X1063770Y294446D01*
Y295946D01*
X1063196Y297332D01*
X1062135Y298392D01*
X1060750Y298966D01*
D02*
G37*
G36*
X1250750Y278770D02*
X1249250D01*
X1247865Y278196D01*
X1246804Y277136D01*
X1246230Y275750D01*
Y274250D01*
X1246804Y272864D01*
X1247865Y271804D01*
X1249250Y271230D01*
X1250750D01*
X1252135Y271804D01*
X1253196Y272864D01*
X1253770Y274250D01*
Y275750D01*
X1253196Y277136D01*
X1252135Y278196D01*
X1250750Y278770D01*
D02*
G37*
G36*
X1240750D02*
X1239250D01*
X1237865Y278196D01*
X1236804Y277136D01*
X1236230Y275750D01*
Y274250D01*
X1236804Y272864D01*
X1237865Y271804D01*
X1239250Y271230D01*
X1240750D01*
X1242135Y271804D01*
X1243196Y272864D01*
X1243770Y274250D01*
Y275750D01*
X1243196Y277136D01*
X1242135Y278196D01*
X1240750Y278770D01*
D02*
G37*
G36*
X1230750D02*
X1229250D01*
X1227865Y278196D01*
X1226804Y277136D01*
X1226230Y275750D01*
Y274250D01*
X1226804Y272864D01*
X1227865Y271804D01*
X1229250Y271230D01*
X1230750D01*
X1232135Y271804D01*
X1233196Y272864D01*
X1233770Y274250D01*
Y275750D01*
X1233196Y277136D01*
X1232135Y278196D01*
X1230750Y278770D01*
D02*
G37*
G36*
X1650750Y276270D02*
X1649250D01*
X1647865Y275696D01*
X1646804Y274636D01*
X1646230Y273250D01*
Y271750D01*
X1646804Y270364D01*
X1647865Y269304D01*
X1649250Y268730D01*
X1650750D01*
X1652135Y269304D01*
X1653196Y270364D01*
X1653770Y271750D01*
Y273250D01*
X1653196Y274636D01*
X1652135Y275696D01*
X1650750Y276270D01*
D02*
G37*
G36*
X1640750D02*
X1639250D01*
X1637865Y275696D01*
X1636804Y274636D01*
X1636230Y273250D01*
Y271750D01*
X1636804Y270364D01*
X1637865Y269304D01*
X1639250Y268730D01*
X1640750D01*
X1642135Y269304D01*
X1643196Y270364D01*
X1643770Y271750D01*
Y273250D01*
X1643196Y274636D01*
X1642135Y275696D01*
X1640750Y276270D01*
D02*
G37*
G36*
X1630750D02*
X1629250D01*
X1627865Y275696D01*
X1626804Y274636D01*
X1626230Y273250D01*
Y271750D01*
X1626804Y270364D01*
X1627865Y269304D01*
X1629250Y268730D01*
X1630750D01*
X1632135Y269304D01*
X1633196Y270364D01*
X1633770Y271750D01*
Y273250D01*
X1633196Y274636D01*
X1632135Y275696D01*
X1630750Y276270D01*
D02*
G37*
G36*
X1450750D02*
X1449250D01*
X1447865Y275696D01*
X1446804Y274636D01*
X1446230Y273250D01*
Y271750D01*
X1446804Y270364D01*
X1447865Y269304D01*
X1449250Y268730D01*
X1450750D01*
X1452135Y269304D01*
X1453196Y270364D01*
X1453770Y271750D01*
Y273250D01*
X1453196Y274636D01*
X1452135Y275696D01*
X1450750Y276270D01*
D02*
G37*
G36*
X1440750D02*
X1439250D01*
X1437865Y275696D01*
X1436804Y274636D01*
X1436230Y273250D01*
Y271750D01*
X1436804Y270364D01*
X1437865Y269304D01*
X1439250Y268730D01*
X1440750D01*
X1442135Y269304D01*
X1443196Y270364D01*
X1443770Y271750D01*
Y273250D01*
X1443196Y274636D01*
X1442135Y275696D01*
X1440750Y276270D01*
D02*
G37*
G36*
X1430750D02*
X1429250D01*
X1427865Y275696D01*
X1426804Y274636D01*
X1426230Y273250D01*
Y271750D01*
X1426804Y270364D01*
X1427865Y269304D01*
X1429250Y268730D01*
X1430750D01*
X1432135Y269304D01*
X1433196Y270364D01*
X1433770Y271750D01*
Y273250D01*
X1433196Y274636D01*
X1432135Y275696D01*
X1430750Y276270D01*
D02*
G37*
G36*
X1050750D02*
X1049250D01*
X1047865Y275696D01*
X1046804Y274636D01*
X1046230Y273250D01*
Y271750D01*
X1046804Y270364D01*
X1047865Y269304D01*
X1049250Y268730D01*
X1050750D01*
X1052135Y269304D01*
X1053196Y270364D01*
X1053770Y271750D01*
Y273250D01*
X1053196Y274636D01*
X1052135Y275696D01*
X1050750Y276270D01*
D02*
G37*
G36*
X1040750D02*
X1039250D01*
X1037865Y275696D01*
X1036804Y274636D01*
X1036230Y273250D01*
Y271750D01*
X1036804Y270364D01*
X1037865Y269304D01*
X1039250Y268730D01*
X1040750D01*
X1042135Y269304D01*
X1043196Y270364D01*
X1043770Y271750D01*
Y273250D01*
X1043196Y274636D01*
X1042135Y275696D01*
X1040750Y276270D01*
D02*
G37*
G36*
X1030750D02*
X1029250D01*
X1027865Y275696D01*
X1026804Y274636D01*
X1026230Y273250D01*
Y271750D01*
X1026804Y270364D01*
X1027865Y269304D01*
X1029250Y268730D01*
X1030750D01*
X1032136Y269304D01*
X1033196Y270364D01*
X1033770Y271750D01*
Y273250D01*
X1033196Y274636D01*
X1032136Y275696D01*
X1030750Y276270D01*
D02*
G37*
G36*
X850750D02*
X849250D01*
X847865Y275696D01*
X846804Y274636D01*
X846230Y273250D01*
Y271750D01*
X846804Y270364D01*
X847865Y269304D01*
X849250Y268730D01*
X850750D01*
X852135Y269304D01*
X853196Y270364D01*
X853770Y271750D01*
Y273250D01*
X853196Y274636D01*
X852135Y275696D01*
X850750Y276270D01*
D02*
G37*
G36*
X650750D02*
X649250D01*
X647865Y275696D01*
X646804Y274636D01*
X646230Y273250D01*
Y271750D01*
X646804Y270364D01*
X647865Y269304D01*
X649250Y268730D01*
X650750D01*
X652135Y269304D01*
X653196Y270364D01*
X653770Y271750D01*
Y273250D01*
X653196Y274636D01*
X652135Y275696D01*
X650750Y276270D01*
D02*
G37*
G36*
X640750D02*
X639250D01*
X637864Y275696D01*
X636804Y274636D01*
X636230Y273250D01*
Y271750D01*
X636804Y270364D01*
X637864Y269304D01*
X639250Y268730D01*
X640750D01*
X642135Y269304D01*
X643196Y270364D01*
X643770Y271750D01*
Y273250D01*
X643196Y274636D01*
X642135Y275696D01*
X640750Y276270D01*
D02*
G37*
G36*
X630750D02*
X629250D01*
X627864Y275696D01*
X626804Y274636D01*
X626230Y273250D01*
Y271750D01*
X626804Y270364D01*
X627864Y269304D01*
X629250Y268730D01*
X630750D01*
X632136Y269304D01*
X633196Y270364D01*
X633770Y271750D01*
Y273250D01*
X633196Y274636D01*
X632136Y275696D01*
X630750Y276270D01*
D02*
G37*
G36*
X450750D02*
X449250D01*
X447864Y275696D01*
X446804Y274636D01*
X446230Y273250D01*
Y271750D01*
X446804Y270364D01*
X447864Y269304D01*
X449250Y268730D01*
X450750D01*
X452136Y269304D01*
X453196Y270364D01*
X453770Y271750D01*
Y273250D01*
X453196Y274636D01*
X452136Y275696D01*
X450750Y276270D01*
D02*
G37*
G36*
X440750D02*
X439250D01*
X437864Y275696D01*
X436804Y274636D01*
X436230Y273250D01*
Y271750D01*
X436804Y270364D01*
X437864Y269304D01*
X439250Y268730D01*
X440750D01*
X442136Y269304D01*
X443196Y270364D01*
X443770Y271750D01*
Y273250D01*
X443196Y274636D01*
X442136Y275696D01*
X440750Y276270D01*
D02*
G37*
G36*
X430750D02*
X429250D01*
X427864Y275696D01*
X426804Y274636D01*
X426230Y273250D01*
Y271750D01*
X426804Y270364D01*
X427864Y269304D01*
X429250Y268730D01*
X430750D01*
X432136Y269304D01*
X433196Y270364D01*
X433770Y271750D01*
Y273250D01*
X433196Y274636D01*
X432136Y275696D01*
X430750Y276270D01*
D02*
G37*
G36*
X1575750Y271270D02*
X1574250D01*
X1572865Y270696D01*
X1571804Y269636D01*
X1571230Y268250D01*
Y266750D01*
X1571804Y265364D01*
X1572865Y264304D01*
X1574250Y263730D01*
X1575750D01*
X1577135Y264304D01*
X1578196Y265364D01*
X1578770Y266750D01*
Y268250D01*
X1578196Y269636D01*
X1577135Y270696D01*
X1575750Y271270D01*
D02*
G37*
G36*
X1375750D02*
X1374250D01*
X1372865Y270696D01*
X1371804Y269636D01*
X1371230Y268250D01*
Y266750D01*
X1371804Y265364D01*
X1372865Y264304D01*
X1374250Y263730D01*
X1375750D01*
X1377135Y264304D01*
X1378196Y265364D01*
X1378770Y266750D01*
Y268250D01*
X1378196Y269636D01*
X1377135Y270696D01*
X1375750Y271270D01*
D02*
G37*
G36*
X1355750D02*
X1354250D01*
X1352865Y270696D01*
X1351804Y269636D01*
X1351230Y268250D01*
Y266750D01*
X1351804Y265364D01*
X1352865Y264304D01*
X1354250Y263730D01*
X1355750D01*
X1357135Y264304D01*
X1358196Y265364D01*
X1358770Y266750D01*
Y268250D01*
X1358196Y269636D01*
X1357135Y270696D01*
X1355750Y271270D01*
D02*
G37*
G36*
X1175750D02*
X1174250D01*
X1172865Y270696D01*
X1171804Y269636D01*
X1171230Y268250D01*
Y266750D01*
X1171804Y265364D01*
X1172865Y264304D01*
X1174250Y263730D01*
X1175750D01*
X1177135Y264304D01*
X1178196Y265364D01*
X1178770Y266750D01*
Y268250D01*
X1178196Y269636D01*
X1177135Y270696D01*
X1175750Y271270D01*
D02*
G37*
G36*
X1155750D02*
X1154250D01*
X1152865Y270696D01*
X1151804Y269636D01*
X1151230Y268250D01*
Y266750D01*
X1151804Y265364D01*
X1152865Y264304D01*
X1154250Y263730D01*
X1155750D01*
X1157136Y264304D01*
X1158196Y265364D01*
X1158770Y266750D01*
Y268250D01*
X1158196Y269636D01*
X1157136Y270696D01*
X1155750Y271270D01*
D02*
G37*
G36*
X975750D02*
X974250D01*
X972865Y270696D01*
X971804Y269636D01*
X971230Y268250D01*
Y266750D01*
X971804Y265364D01*
X972865Y264304D01*
X974250Y263730D01*
X975750D01*
X977135Y264304D01*
X978196Y265364D01*
X978770Y266750D01*
Y268250D01*
X978196Y269636D01*
X977135Y270696D01*
X975750Y271270D01*
D02*
G37*
G36*
X955750D02*
X954250D01*
X952865Y270696D01*
X951804Y269636D01*
X951230Y268250D01*
Y266750D01*
X951804Y265364D01*
X952865Y264304D01*
X954250Y263730D01*
X955750D01*
X957136Y264304D01*
X958196Y265364D01*
X958770Y266750D01*
Y268250D01*
X958196Y269636D01*
X957136Y270696D01*
X955750Y271270D01*
D02*
G37*
G36*
X775750D02*
X774250D01*
X772865Y270696D01*
X771804Y269636D01*
X771230Y268250D01*
Y266750D01*
X771804Y265364D01*
X772865Y264304D01*
X774250Y263730D01*
X775750D01*
X777135Y264304D01*
X778196Y265364D01*
X778770Y266750D01*
Y268250D01*
X778196Y269636D01*
X777135Y270696D01*
X775750Y271270D01*
D02*
G37*
G36*
X755750D02*
X754250D01*
X752865Y270696D01*
X751804Y269636D01*
X751230Y268250D01*
Y266750D01*
X751804Y265364D01*
X752865Y264304D01*
X754250Y263730D01*
X755750D01*
X757135Y264304D01*
X758196Y265364D01*
X758770Y266750D01*
Y268250D01*
X758196Y269636D01*
X757135Y270696D01*
X755750Y271270D01*
D02*
G37*
G36*
X375750D02*
X374250D01*
X372864Y270696D01*
X371804Y269636D01*
X371230Y268250D01*
Y266750D01*
X371804Y265364D01*
X372864Y264304D01*
X374250Y263730D01*
X375750D01*
X377136Y264304D01*
X378196Y265364D01*
X378770Y266750D01*
Y268250D01*
X378196Y269636D01*
X377136Y270696D01*
X375750Y271270D01*
D02*
G37*
G36*
X355750D02*
X354250D01*
X352864Y270696D01*
X351804Y269636D01*
X351230Y268250D01*
Y266750D01*
X351804Y265364D01*
X352864Y264304D01*
X354250Y263730D01*
X355750D01*
X357136Y264304D01*
X358196Y265364D01*
X358770Y266750D01*
Y268250D01*
X358196Y269636D01*
X357136Y270696D01*
X355750Y271270D01*
D02*
G37*
G36*
X1557690Y270079D02*
X1556191D01*
X1554805Y269506D01*
X1553744Y268445D01*
X1553170Y267059D01*
Y265560D01*
X1553744Y264174D01*
X1554805Y263113D01*
X1556191Y262540D01*
X1557690D01*
X1559076Y263113D01*
X1560137Y264174D01*
X1560710Y265560D01*
Y267059D01*
X1560137Y268445D01*
X1559076Y269506D01*
X1557690Y270079D01*
D02*
G37*
G36*
X1250750Y268770D02*
X1249250D01*
X1247865Y268196D01*
X1246804Y267136D01*
X1246230Y265750D01*
Y264250D01*
X1246804Y262864D01*
X1247865Y261804D01*
X1249250Y261230D01*
X1250750D01*
X1252135Y261804D01*
X1253196Y262864D01*
X1253770Y264250D01*
Y265750D01*
X1253196Y267136D01*
X1252135Y268196D01*
X1250750Y268770D01*
D02*
G37*
G36*
X1240750D02*
X1239250D01*
X1237865Y268196D01*
X1236804Y267136D01*
X1236230Y265750D01*
Y264250D01*
X1236804Y262864D01*
X1237865Y261804D01*
X1239250Y261230D01*
X1240750D01*
X1242135Y261804D01*
X1243196Y262864D01*
X1243770Y264250D01*
Y265750D01*
X1243196Y267136D01*
X1242135Y268196D01*
X1240750Y268770D01*
D02*
G37*
G36*
X1230750D02*
X1229250D01*
X1227865Y268196D01*
X1226804Y267136D01*
X1226230Y265750D01*
Y264250D01*
X1226804Y262864D01*
X1227865Y261804D01*
X1229250Y261230D01*
X1230750D01*
X1232135Y261804D01*
X1233196Y262864D01*
X1233770Y264250D01*
Y265750D01*
X1233196Y267136D01*
X1232135Y268196D01*
X1230750Y268770D01*
D02*
G37*
G36*
X541626Y294010D02*
X538374D01*
X535184Y293375D01*
X532180Y292131D01*
X529476Y290324D01*
X527176Y288025D01*
X525369Y285320D01*
X524124Y282316D01*
X523490Y279126D01*
Y275874D01*
X524124Y272684D01*
X525369Y269680D01*
X527176Y266975D01*
X529476Y264676D01*
X532180Y262869D01*
X535184Y261625D01*
X538374Y260990D01*
X541626D01*
X544816Y261625D01*
X547820Y262869D01*
X550524Y264676D01*
X552824Y266975D01*
X554631Y269680D01*
X555876Y272684D01*
X556510Y275874D01*
Y279126D01*
X555876Y282316D01*
X554631Y285320D01*
X552824Y288025D01*
X550524Y290324D01*
X547820Y292131D01*
X544816Y293375D01*
X541626Y294010D01*
D02*
G37*
G36*
X1650750Y266270D02*
X1649250D01*
X1647865Y265696D01*
X1646804Y264636D01*
X1646230Y263250D01*
Y261750D01*
X1646804Y260364D01*
X1647865Y259304D01*
X1649250Y258730D01*
X1650750D01*
X1652135Y259304D01*
X1653196Y260364D01*
X1653770Y261750D01*
Y263250D01*
X1653196Y264636D01*
X1652135Y265696D01*
X1650750Y266270D01*
D02*
G37*
G36*
X1640750D02*
X1639250D01*
X1637865Y265696D01*
X1636804Y264636D01*
X1636230Y263250D01*
Y261750D01*
X1636804Y260364D01*
X1637865Y259304D01*
X1639250Y258730D01*
X1640750D01*
X1642135Y259304D01*
X1643196Y260364D01*
X1643770Y261750D01*
Y263250D01*
X1643196Y264636D01*
X1642135Y265696D01*
X1640750Y266270D01*
D02*
G37*
G36*
X1630750D02*
X1629250D01*
X1627865Y265696D01*
X1626804Y264636D01*
X1626230Y263250D01*
Y261750D01*
X1626804Y260364D01*
X1627865Y259304D01*
X1629250Y258730D01*
X1630750D01*
X1632135Y259304D01*
X1633196Y260364D01*
X1633770Y261750D01*
Y263250D01*
X1633196Y264636D01*
X1632135Y265696D01*
X1630750Y266270D01*
D02*
G37*
G36*
X1450750D02*
X1449250D01*
X1447865Y265696D01*
X1446804Y264636D01*
X1446230Y263250D01*
Y261750D01*
X1446804Y260364D01*
X1447865Y259304D01*
X1449250Y258730D01*
X1450750D01*
X1452135Y259304D01*
X1453196Y260364D01*
X1453770Y261750D01*
Y263250D01*
X1453196Y264636D01*
X1452135Y265696D01*
X1450750Y266270D01*
D02*
G37*
G36*
X1440750D02*
X1439250D01*
X1437865Y265696D01*
X1436804Y264636D01*
X1436230Y263250D01*
Y261750D01*
X1436804Y260364D01*
X1437865Y259304D01*
X1439250Y258730D01*
X1440750D01*
X1442135Y259304D01*
X1443196Y260364D01*
X1443770Y261750D01*
Y263250D01*
X1443196Y264636D01*
X1442135Y265696D01*
X1440750Y266270D01*
D02*
G37*
G36*
X1430750D02*
X1429250D01*
X1427865Y265696D01*
X1426804Y264636D01*
X1426230Y263250D01*
Y261750D01*
X1426804Y260364D01*
X1427865Y259304D01*
X1429250Y258730D01*
X1430750D01*
X1432135Y259304D01*
X1433196Y260364D01*
X1433770Y261750D01*
Y263250D01*
X1433196Y264636D01*
X1432135Y265696D01*
X1430750Y266270D01*
D02*
G37*
G36*
X1050750D02*
X1049250D01*
X1047865Y265696D01*
X1046804Y264636D01*
X1046230Y263250D01*
Y261750D01*
X1046804Y260364D01*
X1047865Y259304D01*
X1049250Y258730D01*
X1050750D01*
X1052135Y259304D01*
X1053196Y260364D01*
X1053770Y261750D01*
Y263250D01*
X1053196Y264636D01*
X1052135Y265696D01*
X1050750Y266270D01*
D02*
G37*
G36*
X1040750D02*
X1039250D01*
X1037865Y265696D01*
X1036804Y264636D01*
X1036230Y263250D01*
Y261750D01*
X1036804Y260364D01*
X1037865Y259304D01*
X1039250Y258730D01*
X1040750D01*
X1042135Y259304D01*
X1043196Y260364D01*
X1043770Y261750D01*
Y263250D01*
X1043196Y264636D01*
X1042135Y265696D01*
X1040750Y266270D01*
D02*
G37*
G36*
X1030750D02*
X1029250D01*
X1027865Y265696D01*
X1026804Y264636D01*
X1026230Y263250D01*
Y261750D01*
X1026804Y260364D01*
X1027865Y259304D01*
X1029250Y258730D01*
X1030750D01*
X1032136Y259304D01*
X1033196Y260364D01*
X1033770Y261750D01*
Y263250D01*
X1033196Y264636D01*
X1032136Y265696D01*
X1030750Y266270D01*
D02*
G37*
G36*
X850750D02*
X849250D01*
X847865Y265696D01*
X846804Y264636D01*
X846230Y263250D01*
Y261750D01*
X846804Y260364D01*
X847865Y259304D01*
X849250Y258730D01*
X850750D01*
X852135Y259304D01*
X853196Y260364D01*
X853770Y261750D01*
Y263250D01*
X853196Y264636D01*
X852135Y265696D01*
X850750Y266270D01*
D02*
G37*
G36*
X650750D02*
X649250D01*
X647865Y265696D01*
X646804Y264636D01*
X646230Y263250D01*
Y261750D01*
X646804Y260364D01*
X647865Y259304D01*
X649250Y258730D01*
X650750D01*
X652135Y259304D01*
X653196Y260364D01*
X653770Y261750D01*
Y263250D01*
X653196Y264636D01*
X652135Y265696D01*
X650750Y266270D01*
D02*
G37*
G36*
X640750D02*
X639250D01*
X637864Y265696D01*
X636804Y264636D01*
X636230Y263250D01*
Y261750D01*
X636804Y260364D01*
X637864Y259304D01*
X639250Y258730D01*
X640750D01*
X642135Y259304D01*
X643196Y260364D01*
X643770Y261750D01*
Y263250D01*
X643196Y264636D01*
X642135Y265696D01*
X640750Y266270D01*
D02*
G37*
G36*
X630750D02*
X629250D01*
X627864Y265696D01*
X626804Y264636D01*
X626230Y263250D01*
Y261750D01*
X626804Y260364D01*
X627864Y259304D01*
X629250Y258730D01*
X630750D01*
X632136Y259304D01*
X633196Y260364D01*
X633770Y261750D01*
Y263250D01*
X633196Y264636D01*
X632136Y265696D01*
X630750Y266270D01*
D02*
G37*
G36*
X450750D02*
X449250D01*
X447864Y265696D01*
X446804Y264636D01*
X446230Y263250D01*
Y261750D01*
X446804Y260364D01*
X447864Y259304D01*
X449250Y258730D01*
X450750D01*
X452136Y259304D01*
X453196Y260364D01*
X453770Y261750D01*
Y263250D01*
X453196Y264636D01*
X452136Y265696D01*
X450750Y266270D01*
D02*
G37*
G36*
X440750D02*
X439250D01*
X437864Y265696D01*
X436804Y264636D01*
X436230Y263250D01*
Y261750D01*
X436804Y260364D01*
X437864Y259304D01*
X439250Y258730D01*
X440750D01*
X442136Y259304D01*
X443196Y260364D01*
X443770Y261750D01*
Y263250D01*
X443196Y264636D01*
X442136Y265696D01*
X440750Y266270D01*
D02*
G37*
G36*
X430750D02*
X429250D01*
X427864Y265696D01*
X426804Y264636D01*
X426230Y263250D01*
Y261750D01*
X426804Y260364D01*
X427864Y259304D01*
X429250Y258730D01*
X430750D01*
X432136Y259304D01*
X433196Y260364D01*
X433770Y261750D01*
Y263250D01*
X433196Y264636D01*
X432136Y265696D01*
X430750Y266270D01*
D02*
G37*
G36*
X1250750Y258770D02*
X1249250D01*
X1247865Y258196D01*
X1246804Y257136D01*
X1246230Y255750D01*
Y254250D01*
X1246804Y252864D01*
X1247865Y251804D01*
X1249250Y251230D01*
X1250750D01*
X1252135Y251804D01*
X1253196Y252864D01*
X1253770Y254250D01*
Y255750D01*
X1253196Y257136D01*
X1252135Y258196D01*
X1250750Y258770D01*
D02*
G37*
G36*
X1240750D02*
X1239250D01*
X1237865Y258196D01*
X1236804Y257136D01*
X1236230Y255750D01*
Y254250D01*
X1236804Y252864D01*
X1237865Y251804D01*
X1239250Y251230D01*
X1240750D01*
X1242135Y251804D01*
X1243196Y252864D01*
X1243770Y254250D01*
Y255750D01*
X1243196Y257136D01*
X1242135Y258196D01*
X1240750Y258770D01*
D02*
G37*
G36*
X1230750D02*
X1229250D01*
X1227865Y258196D01*
X1226804Y257136D01*
X1226230Y255750D01*
Y254250D01*
X1226804Y252864D01*
X1227865Y251804D01*
X1229250Y251230D01*
X1230750D01*
X1232135Y251804D01*
X1233196Y252864D01*
X1233770Y254250D01*
Y255750D01*
X1233196Y257136D01*
X1232135Y258196D01*
X1230750Y258770D01*
D02*
G37*
G36*
X1650750Y256270D02*
X1649250D01*
X1647865Y255696D01*
X1646804Y254636D01*
X1646230Y253250D01*
Y251750D01*
X1646804Y250364D01*
X1647865Y249304D01*
X1649250Y248730D01*
X1650750D01*
X1652135Y249304D01*
X1653196Y250364D01*
X1653770Y251750D01*
Y253250D01*
X1653196Y254636D01*
X1652135Y255696D01*
X1650750Y256270D01*
D02*
G37*
G36*
X1640750D02*
X1639250D01*
X1637865Y255696D01*
X1636804Y254636D01*
X1636230Y253250D01*
Y251750D01*
X1636804Y250364D01*
X1637865Y249304D01*
X1639250Y248730D01*
X1640750D01*
X1642135Y249304D01*
X1643196Y250364D01*
X1643770Y251750D01*
Y253250D01*
X1643196Y254636D01*
X1642135Y255696D01*
X1640750Y256270D01*
D02*
G37*
G36*
X1630750D02*
X1629250D01*
X1627865Y255696D01*
X1626804Y254636D01*
X1626230Y253250D01*
Y251750D01*
X1626804Y250364D01*
X1627865Y249304D01*
X1629250Y248730D01*
X1630750D01*
X1632135Y249304D01*
X1633196Y250364D01*
X1633770Y251750D01*
Y253250D01*
X1633196Y254636D01*
X1632135Y255696D01*
X1630750Y256270D01*
D02*
G37*
G36*
X1450750D02*
X1449250D01*
X1447865Y255696D01*
X1446804Y254636D01*
X1446230Y253250D01*
Y251750D01*
X1446804Y250364D01*
X1447865Y249304D01*
X1449250Y248730D01*
X1450750D01*
X1452135Y249304D01*
X1453196Y250364D01*
X1453770Y251750D01*
Y253250D01*
X1453196Y254636D01*
X1452135Y255696D01*
X1450750Y256270D01*
D02*
G37*
G36*
X1440750D02*
X1439250D01*
X1437865Y255696D01*
X1436804Y254636D01*
X1436230Y253250D01*
Y251750D01*
X1436804Y250364D01*
X1437865Y249304D01*
X1439250Y248730D01*
X1440750D01*
X1442135Y249304D01*
X1443196Y250364D01*
X1443770Y251750D01*
Y253250D01*
X1443196Y254636D01*
X1442135Y255696D01*
X1440750Y256270D01*
D02*
G37*
G36*
X1430750D02*
X1429250D01*
X1427865Y255696D01*
X1426804Y254636D01*
X1426230Y253250D01*
Y251750D01*
X1426804Y250364D01*
X1427865Y249304D01*
X1429250Y248730D01*
X1430750D01*
X1432135Y249304D01*
X1433196Y250364D01*
X1433770Y251750D01*
Y253250D01*
X1433196Y254636D01*
X1432135Y255696D01*
X1430750Y256270D01*
D02*
G37*
G36*
X1050750D02*
X1049250D01*
X1047865Y255696D01*
X1046804Y254636D01*
X1046230Y253250D01*
Y251750D01*
X1046804Y250364D01*
X1047865Y249304D01*
X1049250Y248730D01*
X1050750D01*
X1052135Y249304D01*
X1053196Y250364D01*
X1053770Y251750D01*
Y253250D01*
X1053196Y254636D01*
X1052135Y255696D01*
X1050750Y256270D01*
D02*
G37*
G36*
X1040750D02*
X1039250D01*
X1037865Y255696D01*
X1036804Y254636D01*
X1036230Y253250D01*
Y251750D01*
X1036804Y250364D01*
X1037865Y249304D01*
X1039250Y248730D01*
X1040750D01*
X1042135Y249304D01*
X1043196Y250364D01*
X1043770Y251750D01*
Y253250D01*
X1043196Y254636D01*
X1042135Y255696D01*
X1040750Y256270D01*
D02*
G37*
G36*
X1030750D02*
X1029250D01*
X1027865Y255696D01*
X1026804Y254636D01*
X1026230Y253250D01*
Y251750D01*
X1026804Y250364D01*
X1027865Y249304D01*
X1029250Y248730D01*
X1030750D01*
X1032136Y249304D01*
X1033196Y250364D01*
X1033770Y251750D01*
Y253250D01*
X1033196Y254636D01*
X1032136Y255696D01*
X1030750Y256270D01*
D02*
G37*
G36*
X850750D02*
X849250D01*
X847865Y255696D01*
X846804Y254636D01*
X846230Y253250D01*
Y251750D01*
X846804Y250364D01*
X847865Y249304D01*
X849250Y248730D01*
X850750D01*
X852135Y249304D01*
X853196Y250364D01*
X853770Y251750D01*
Y253250D01*
X853196Y254636D01*
X852135Y255696D01*
X850750Y256270D01*
D02*
G37*
G36*
X650750D02*
X649250D01*
X647865Y255696D01*
X646804Y254636D01*
X646230Y253250D01*
Y251750D01*
X646804Y250364D01*
X647865Y249304D01*
X649250Y248730D01*
X650750D01*
X652135Y249304D01*
X653196Y250364D01*
X653770Y251750D01*
Y253250D01*
X653196Y254636D01*
X652135Y255696D01*
X650750Y256270D01*
D02*
G37*
G36*
X640750D02*
X639250D01*
X637864Y255696D01*
X636804Y254636D01*
X636230Y253250D01*
Y251750D01*
X636804Y250364D01*
X637864Y249304D01*
X639250Y248730D01*
X640750D01*
X642135Y249304D01*
X643196Y250364D01*
X643770Y251750D01*
Y253250D01*
X643196Y254636D01*
X642135Y255696D01*
X640750Y256270D01*
D02*
G37*
G36*
X630750D02*
X629250D01*
X627864Y255696D01*
X626804Y254636D01*
X626230Y253250D01*
Y251750D01*
X626804Y250364D01*
X627864Y249304D01*
X629250Y248730D01*
X630750D01*
X632136Y249304D01*
X633196Y250364D01*
X633770Y251750D01*
Y253250D01*
X633196Y254636D01*
X632136Y255696D01*
X630750Y256270D01*
D02*
G37*
G36*
X450750D02*
X449250D01*
X447864Y255696D01*
X446804Y254636D01*
X446230Y253250D01*
Y251750D01*
X446804Y250364D01*
X447864Y249304D01*
X449250Y248730D01*
X450750D01*
X452136Y249304D01*
X453196Y250364D01*
X453770Y251750D01*
Y253250D01*
X453196Y254636D01*
X452136Y255696D01*
X450750Y256270D01*
D02*
G37*
G36*
X440750D02*
X439250D01*
X437864Y255696D01*
X436804Y254636D01*
X436230Y253250D01*
Y251750D01*
X436804Y250364D01*
X437864Y249304D01*
X439250Y248730D01*
X440750D01*
X442136Y249304D01*
X443196Y250364D01*
X443770Y251750D01*
Y253250D01*
X443196Y254636D01*
X442136Y255696D01*
X440750Y256270D01*
D02*
G37*
G36*
X430750D02*
X429250D01*
X427864Y255696D01*
X426804Y254636D01*
X426230Y253250D01*
Y251750D01*
X426804Y250364D01*
X427864Y249304D01*
X429250Y248730D01*
X430750D01*
X432136Y249304D01*
X433196Y250364D01*
X433770Y251750D01*
Y253250D01*
X433196Y254636D01*
X432136Y255696D01*
X430750Y256270D01*
D02*
G37*
G36*
X1250750Y248770D02*
X1249250D01*
X1247865Y248196D01*
X1246804Y247136D01*
X1246230Y245750D01*
Y244250D01*
X1246804Y242864D01*
X1247865Y241804D01*
X1249250Y241230D01*
X1250750D01*
X1252135Y241804D01*
X1253196Y242864D01*
X1253770Y244250D01*
Y245750D01*
X1253196Y247136D01*
X1252135Y248196D01*
X1250750Y248770D01*
D02*
G37*
G36*
X1240750D02*
X1239250D01*
X1237865Y248196D01*
X1236804Y247136D01*
X1236230Y245750D01*
Y244250D01*
X1236804Y242864D01*
X1237865Y241804D01*
X1239250Y241230D01*
X1240750D01*
X1242135Y241804D01*
X1243196Y242864D01*
X1243770Y244250D01*
Y245750D01*
X1243196Y247136D01*
X1242135Y248196D01*
X1240750Y248770D01*
D02*
G37*
G36*
X1230750D02*
X1229250D01*
X1227865Y248196D01*
X1226804Y247136D01*
X1226230Y245750D01*
Y244250D01*
X1226804Y242864D01*
X1227865Y241804D01*
X1229250Y241230D01*
X1230750D01*
X1232135Y241804D01*
X1233196Y242864D01*
X1233770Y244250D01*
Y245750D01*
X1233196Y247136D01*
X1232135Y248196D01*
X1230750Y248770D01*
D02*
G37*
G36*
X1650750Y246270D02*
X1649250D01*
X1647865Y245696D01*
X1646804Y244636D01*
X1646230Y243250D01*
Y241750D01*
X1646804Y240364D01*
X1647865Y239304D01*
X1649250Y238730D01*
X1650750D01*
X1652135Y239304D01*
X1653196Y240364D01*
X1653770Y241750D01*
Y243250D01*
X1653196Y244636D01*
X1652135Y245696D01*
X1650750Y246270D01*
D02*
G37*
G36*
X1640750D02*
X1639250D01*
X1637865Y245696D01*
X1636804Y244636D01*
X1636230Y243250D01*
Y241750D01*
X1636804Y240364D01*
X1637865Y239304D01*
X1639250Y238730D01*
X1640750D01*
X1642135Y239304D01*
X1643196Y240364D01*
X1643770Y241750D01*
Y243250D01*
X1643196Y244636D01*
X1642135Y245696D01*
X1640750Y246270D01*
D02*
G37*
G36*
X1630750D02*
X1629250D01*
X1627865Y245696D01*
X1626804Y244636D01*
X1626230Y243250D01*
Y241750D01*
X1626804Y240364D01*
X1627865Y239304D01*
X1629250Y238730D01*
X1630750D01*
X1632135Y239304D01*
X1633196Y240364D01*
X1633770Y241750D01*
Y243250D01*
X1633196Y244636D01*
X1632135Y245696D01*
X1630750Y246270D01*
D02*
G37*
G36*
X1450750D02*
X1449250D01*
X1447865Y245696D01*
X1446804Y244636D01*
X1446230Y243250D01*
Y241750D01*
X1446804Y240364D01*
X1447865Y239304D01*
X1449250Y238730D01*
X1450750D01*
X1452135Y239304D01*
X1453196Y240364D01*
X1453770Y241750D01*
Y243250D01*
X1453196Y244636D01*
X1452135Y245696D01*
X1450750Y246270D01*
D02*
G37*
G36*
X1440750D02*
X1439250D01*
X1437865Y245696D01*
X1436804Y244636D01*
X1436230Y243250D01*
Y241750D01*
X1436804Y240364D01*
X1437865Y239304D01*
X1439250Y238730D01*
X1440750D01*
X1442135Y239304D01*
X1443196Y240364D01*
X1443770Y241750D01*
Y243250D01*
X1443196Y244636D01*
X1442135Y245696D01*
X1440750Y246270D01*
D02*
G37*
G36*
X1430750D02*
X1429250D01*
X1427865Y245696D01*
X1426804Y244636D01*
X1426230Y243250D01*
Y241750D01*
X1426804Y240364D01*
X1427865Y239304D01*
X1429250Y238730D01*
X1430750D01*
X1432135Y239304D01*
X1433196Y240364D01*
X1433770Y241750D01*
Y243250D01*
X1433196Y244636D01*
X1432135Y245696D01*
X1430750Y246270D01*
D02*
G37*
G36*
X1050750D02*
X1049250D01*
X1047865Y245696D01*
X1046804Y244636D01*
X1046230Y243250D01*
Y241750D01*
X1046804Y240364D01*
X1047865Y239304D01*
X1049250Y238730D01*
X1050750D01*
X1052135Y239304D01*
X1053196Y240364D01*
X1053770Y241750D01*
Y243250D01*
X1053196Y244636D01*
X1052135Y245696D01*
X1050750Y246270D01*
D02*
G37*
G36*
X1040750D02*
X1039250D01*
X1037865Y245696D01*
X1036804Y244636D01*
X1036230Y243250D01*
Y241750D01*
X1036804Y240364D01*
X1037865Y239304D01*
X1039250Y238730D01*
X1040750D01*
X1042135Y239304D01*
X1043196Y240364D01*
X1043770Y241750D01*
Y243250D01*
X1043196Y244636D01*
X1042135Y245696D01*
X1040750Y246270D01*
D02*
G37*
G36*
X1030750D02*
X1029250D01*
X1027865Y245696D01*
X1026804Y244636D01*
X1026230Y243250D01*
Y241750D01*
X1026804Y240364D01*
X1027865Y239304D01*
X1029250Y238730D01*
X1030750D01*
X1032136Y239304D01*
X1033196Y240364D01*
X1033770Y241750D01*
Y243250D01*
X1033196Y244636D01*
X1032136Y245696D01*
X1030750Y246270D01*
D02*
G37*
G36*
X850750D02*
X849250D01*
X847865Y245696D01*
X846804Y244636D01*
X846230Y243250D01*
Y241750D01*
X846804Y240364D01*
X847865Y239304D01*
X849250Y238730D01*
X850750D01*
X852135Y239304D01*
X853196Y240364D01*
X853770Y241750D01*
Y243250D01*
X853196Y244636D01*
X852135Y245696D01*
X850750Y246270D01*
D02*
G37*
G36*
X650750D02*
X649250D01*
X647865Y245696D01*
X646804Y244636D01*
X646230Y243250D01*
Y241750D01*
X646804Y240364D01*
X647865Y239304D01*
X649250Y238730D01*
X650750D01*
X652135Y239304D01*
X653196Y240364D01*
X653770Y241750D01*
Y243250D01*
X653196Y244636D01*
X652135Y245696D01*
X650750Y246270D01*
D02*
G37*
G36*
X640750D02*
X639250D01*
X637864Y245696D01*
X636804Y244636D01*
X636230Y243250D01*
Y241750D01*
X636804Y240364D01*
X637864Y239304D01*
X639250Y238730D01*
X640750D01*
X642135Y239304D01*
X643196Y240364D01*
X643770Y241750D01*
Y243250D01*
X643196Y244636D01*
X642135Y245696D01*
X640750Y246270D01*
D02*
G37*
G36*
X630750D02*
X629250D01*
X627864Y245696D01*
X626804Y244636D01*
X626230Y243250D01*
Y241750D01*
X626804Y240364D01*
X627864Y239304D01*
X629250Y238730D01*
X630750D01*
X632136Y239304D01*
X633196Y240364D01*
X633770Y241750D01*
Y243250D01*
X633196Y244636D01*
X632136Y245696D01*
X630750Y246270D01*
D02*
G37*
G36*
X450750D02*
X449250D01*
X447864Y245696D01*
X446804Y244636D01*
X446230Y243250D01*
Y241750D01*
X446804Y240364D01*
X447864Y239304D01*
X449250Y238730D01*
X450750D01*
X452136Y239304D01*
X453196Y240364D01*
X453770Y241750D01*
Y243250D01*
X453196Y244636D01*
X452136Y245696D01*
X450750Y246270D01*
D02*
G37*
G36*
X440750D02*
X439250D01*
X437864Y245696D01*
X436804Y244636D01*
X436230Y243250D01*
Y241750D01*
X436804Y240364D01*
X437864Y239304D01*
X439250Y238730D01*
X440750D01*
X442136Y239304D01*
X443196Y240364D01*
X443770Y241750D01*
Y243250D01*
X443196Y244636D01*
X442136Y245696D01*
X440750Y246270D01*
D02*
G37*
G36*
X430750D02*
X429250D01*
X427864Y245696D01*
X426804Y244636D01*
X426230Y243250D01*
Y241750D01*
X426804Y240364D01*
X427864Y239304D01*
X429250Y238730D01*
X430750D01*
X432136Y239304D01*
X433196Y240364D01*
X433770Y241750D01*
Y243250D01*
X433196Y244636D01*
X432136Y245696D01*
X430750Y246270D01*
D02*
G37*
G36*
X1525750Y241270D02*
X1524250D01*
X1522865Y240696D01*
X1521804Y239636D01*
X1521230Y238250D01*
Y236750D01*
X1521804Y235364D01*
X1522865Y234304D01*
X1524250Y233730D01*
X1525750D01*
X1527135Y234304D01*
X1528196Y235364D01*
X1528770Y236750D01*
Y238250D01*
X1528196Y239636D01*
X1527135Y240696D01*
X1525750Y241270D01*
D02*
G37*
G36*
X1125750D02*
X1124250D01*
X1122865Y240696D01*
X1121804Y239636D01*
X1121230Y238250D01*
Y236750D01*
X1121804Y235364D01*
X1122865Y234304D01*
X1124250Y233730D01*
X1125750D01*
X1127135Y234304D01*
X1128196Y235364D01*
X1128770Y236750D01*
Y238250D01*
X1128196Y239636D01*
X1127135Y240696D01*
X1125750Y241270D01*
D02*
G37*
G36*
X925750D02*
X924250D01*
X922865Y240696D01*
X921804Y239636D01*
X921230Y238250D01*
Y236750D01*
X921804Y235364D01*
X922865Y234304D01*
X924250Y233730D01*
X925750D01*
X927135Y234304D01*
X928196Y235364D01*
X928770Y236750D01*
Y238250D01*
X928196Y239636D01*
X927135Y240696D01*
X925750Y241270D01*
D02*
G37*
G36*
X725750D02*
X724250D01*
X722865Y240696D01*
X721804Y239636D01*
X721230Y238250D01*
Y236750D01*
X721804Y235364D01*
X722865Y234304D01*
X724250Y233730D01*
X725750D01*
X727135Y234304D01*
X728196Y235364D01*
X728770Y236750D01*
Y238250D01*
X728196Y239636D01*
X727135Y240696D01*
X725750Y241270D01*
D02*
G37*
G36*
X325750D02*
X324250D01*
X322864Y240696D01*
X321804Y239636D01*
X321230Y238250D01*
Y236750D01*
X321804Y235364D01*
X322864Y234304D01*
X324250Y233730D01*
X325750D01*
X327136Y234304D01*
X328196Y235364D01*
X328770Y236750D01*
Y238250D01*
X328196Y239636D01*
X327136Y240696D01*
X325750Y241270D01*
D02*
G37*
G36*
X1250750Y238770D02*
X1249250D01*
X1247865Y238196D01*
X1246804Y237136D01*
X1246230Y235750D01*
Y234250D01*
X1246804Y232864D01*
X1247865Y231804D01*
X1249250Y231230D01*
X1250750D01*
X1252135Y231804D01*
X1253196Y232864D01*
X1253770Y234250D01*
Y235750D01*
X1253196Y237136D01*
X1252135Y238196D01*
X1250750Y238770D01*
D02*
G37*
G36*
X1240750D02*
X1239250D01*
X1237865Y238196D01*
X1236804Y237136D01*
X1236230Y235750D01*
Y234250D01*
X1236804Y232864D01*
X1237865Y231804D01*
X1239250Y231230D01*
X1240750D01*
X1242135Y231804D01*
X1243196Y232864D01*
X1243770Y234250D01*
Y235750D01*
X1243196Y237136D01*
X1242135Y238196D01*
X1240750Y238770D01*
D02*
G37*
G36*
X1230750D02*
X1229250D01*
X1227865Y238196D01*
X1226804Y237136D01*
X1226230Y235750D01*
Y234250D01*
X1226804Y232864D01*
X1227865Y231804D01*
X1229250Y231230D01*
X1230750D01*
X1232135Y231804D01*
X1233196Y232864D01*
X1233770Y234250D01*
Y235750D01*
X1233196Y237136D01*
X1232135Y238196D01*
X1230750Y238770D01*
D02*
G37*
G36*
X449686Y237334D02*
X448186D01*
X446801Y236760D01*
X445740Y235699D01*
X445166Y234314D01*
Y232814D01*
X445740Y231428D01*
X446801Y230368D01*
X448186Y229794D01*
X449686D01*
X451072Y230368D01*
X452132Y231428D01*
X452706Y232814D01*
Y234314D01*
X452132Y235699D01*
X451072Y236760D01*
X449686Y237334D01*
D02*
G37*
G36*
X1650750Y236270D02*
X1649250D01*
X1647865Y235696D01*
X1646804Y234636D01*
X1646230Y233250D01*
Y231750D01*
X1646804Y230364D01*
X1647865Y229304D01*
X1649250Y228730D01*
X1650750D01*
X1652135Y229304D01*
X1653196Y230364D01*
X1653770Y231750D01*
Y233250D01*
X1653196Y234636D01*
X1652135Y235696D01*
X1650750Y236270D01*
D02*
G37*
G36*
X1640750D02*
X1639250D01*
X1637865Y235696D01*
X1636804Y234636D01*
X1636230Y233250D01*
Y231750D01*
X1636804Y230364D01*
X1637865Y229304D01*
X1639250Y228730D01*
X1640750D01*
X1642135Y229304D01*
X1643196Y230364D01*
X1643770Y231750D01*
Y233250D01*
X1643196Y234636D01*
X1642135Y235696D01*
X1640750Y236270D01*
D02*
G37*
G36*
X1630750D02*
X1629250D01*
X1627865Y235696D01*
X1626804Y234636D01*
X1626230Y233250D01*
Y231750D01*
X1626804Y230364D01*
X1627865Y229304D01*
X1629250Y228730D01*
X1630750D01*
X1632135Y229304D01*
X1633196Y230364D01*
X1633770Y231750D01*
Y233250D01*
X1633196Y234636D01*
X1632135Y235696D01*
X1630750Y236270D01*
D02*
G37*
G36*
X1615750D02*
X1614250D01*
X1612865Y235696D01*
X1611804Y234636D01*
X1611230Y233250D01*
Y231750D01*
X1611804Y230364D01*
X1612865Y229304D01*
X1614250Y228730D01*
X1615750D01*
X1617136Y229304D01*
X1618196Y230364D01*
X1618770Y231750D01*
Y233250D01*
X1618196Y234636D01*
X1617136Y235696D01*
X1615750Y236270D01*
D02*
G37*
G36*
X1450750D02*
X1449250D01*
X1447865Y235696D01*
X1446804Y234636D01*
X1446230Y233250D01*
Y231750D01*
X1446804Y230364D01*
X1447865Y229304D01*
X1449250Y228730D01*
X1450750D01*
X1452135Y229304D01*
X1453196Y230364D01*
X1453770Y231750D01*
Y233250D01*
X1453196Y234636D01*
X1452135Y235696D01*
X1450750Y236270D01*
D02*
G37*
G36*
X1440750D02*
X1439250D01*
X1437865Y235696D01*
X1436804Y234636D01*
X1436230Y233250D01*
Y231750D01*
X1436804Y230364D01*
X1437865Y229304D01*
X1439250Y228730D01*
X1440750D01*
X1442135Y229304D01*
X1443196Y230364D01*
X1443770Y231750D01*
Y233250D01*
X1443196Y234636D01*
X1442135Y235696D01*
X1440750Y236270D01*
D02*
G37*
G36*
X1430750D02*
X1429250D01*
X1427865Y235696D01*
X1426804Y234636D01*
X1426230Y233250D01*
Y231750D01*
X1426804Y230364D01*
X1427865Y229304D01*
X1429250Y228730D01*
X1430750D01*
X1432135Y229304D01*
X1433196Y230364D01*
X1433770Y231750D01*
Y233250D01*
X1433196Y234636D01*
X1432135Y235696D01*
X1430750Y236270D01*
D02*
G37*
G36*
X1415750D02*
X1414250D01*
X1412865Y235696D01*
X1411804Y234636D01*
X1411230Y233250D01*
Y231750D01*
X1411804Y230364D01*
X1412865Y229304D01*
X1414250Y228730D01*
X1415750D01*
X1417135Y229304D01*
X1418196Y230364D01*
X1418770Y231750D01*
Y233250D01*
X1418196Y234636D01*
X1417135Y235696D01*
X1415750Y236270D01*
D02*
G37*
G36*
X1215750D02*
X1214250D01*
X1212865Y235696D01*
X1211804Y234636D01*
X1211230Y233250D01*
Y231750D01*
X1211804Y230364D01*
X1212865Y229304D01*
X1214250Y228730D01*
X1215750D01*
X1217136Y229304D01*
X1218196Y230364D01*
X1218770Y231750D01*
Y233250D01*
X1218196Y234636D01*
X1217136Y235696D01*
X1215750Y236270D01*
D02*
G37*
G36*
X1050750D02*
X1049250D01*
X1047865Y235696D01*
X1046804Y234636D01*
X1046230Y233250D01*
Y231750D01*
X1046804Y230364D01*
X1047865Y229304D01*
X1049250Y228730D01*
X1050750D01*
X1052135Y229304D01*
X1053196Y230364D01*
X1053770Y231750D01*
Y233250D01*
X1053196Y234636D01*
X1052135Y235696D01*
X1050750Y236270D01*
D02*
G37*
G36*
X1040750D02*
X1039250D01*
X1037865Y235696D01*
X1036804Y234636D01*
X1036230Y233250D01*
Y231750D01*
X1036804Y230364D01*
X1037865Y229304D01*
X1039250Y228730D01*
X1040750D01*
X1042135Y229304D01*
X1043196Y230364D01*
X1043770Y231750D01*
Y233250D01*
X1043196Y234636D01*
X1042135Y235696D01*
X1040750Y236270D01*
D02*
G37*
G36*
X1030750D02*
X1029250D01*
X1027865Y235696D01*
X1026804Y234636D01*
X1026230Y233250D01*
Y231750D01*
X1026804Y230364D01*
X1027865Y229304D01*
X1029250Y228730D01*
X1030750D01*
X1032136Y229304D01*
X1033196Y230364D01*
X1033770Y231750D01*
Y233250D01*
X1033196Y234636D01*
X1032136Y235696D01*
X1030750Y236270D01*
D02*
G37*
G36*
X1015750D02*
X1014250D01*
X1012865Y235696D01*
X1011804Y234636D01*
X1011230Y233250D01*
Y231750D01*
X1011804Y230364D01*
X1012865Y229304D01*
X1014250Y228730D01*
X1015750D01*
X1017136Y229304D01*
X1018196Y230364D01*
X1018770Y231750D01*
Y233250D01*
X1018196Y234636D01*
X1017136Y235696D01*
X1015750Y236270D01*
D02*
G37*
G36*
X850750D02*
X849250D01*
X847865Y235696D01*
X846804Y234636D01*
X846230Y233250D01*
Y231750D01*
X846804Y230364D01*
X847865Y229304D01*
X849250Y228730D01*
X850750D01*
X852135Y229304D01*
X853196Y230364D01*
X853770Y231750D01*
Y233250D01*
X853196Y234636D01*
X852135Y235696D01*
X850750Y236270D01*
D02*
G37*
G36*
X815750D02*
X814250D01*
X812865Y235696D01*
X811804Y234636D01*
X811230Y233250D01*
Y231750D01*
X811804Y230364D01*
X812865Y229304D01*
X814250Y228730D01*
X815750D01*
X817136Y229304D01*
X818196Y230364D01*
X818770Y231750D01*
Y233250D01*
X818196Y234636D01*
X817136Y235696D01*
X815750Y236270D01*
D02*
G37*
G36*
X650750D02*
X649250D01*
X647865Y235696D01*
X646804Y234636D01*
X646230Y233250D01*
Y231750D01*
X646804Y230364D01*
X647865Y229304D01*
X649250Y228730D01*
X650750D01*
X652135Y229304D01*
X653196Y230364D01*
X653770Y231750D01*
Y233250D01*
X653196Y234636D01*
X652135Y235696D01*
X650750Y236270D01*
D02*
G37*
G36*
X640750D02*
X639250D01*
X637864Y235696D01*
X636804Y234636D01*
X636230Y233250D01*
Y231750D01*
X636804Y230364D01*
X637864Y229304D01*
X639250Y228730D01*
X640750D01*
X642135Y229304D01*
X643196Y230364D01*
X643770Y231750D01*
Y233250D01*
X643196Y234636D01*
X642135Y235696D01*
X640750Y236270D01*
D02*
G37*
G36*
X630750D02*
X629250D01*
X627864Y235696D01*
X626804Y234636D01*
X626230Y233250D01*
Y231750D01*
X626804Y230364D01*
X627864Y229304D01*
X629250Y228730D01*
X630750D01*
X632136Y229304D01*
X633196Y230364D01*
X633770Y231750D01*
Y233250D01*
X633196Y234636D01*
X632136Y235696D01*
X630750Y236270D01*
D02*
G37*
G36*
X615750D02*
X614250D01*
X612864Y235696D01*
X611804Y234636D01*
X611230Y233250D01*
Y231750D01*
X611804Y230364D01*
X612864Y229304D01*
X614250Y228730D01*
X615750D01*
X617136Y229304D01*
X618196Y230364D01*
X618770Y231750D01*
Y233250D01*
X618196Y234636D01*
X617136Y235696D01*
X615750Y236270D01*
D02*
G37*
G36*
X440750D02*
X439250D01*
X437864Y235696D01*
X436804Y234636D01*
X436230Y233250D01*
Y231750D01*
X436804Y230364D01*
X437864Y229304D01*
X439250Y228730D01*
X440750D01*
X442136Y229304D01*
X443196Y230364D01*
X443770Y231750D01*
Y233250D01*
X443196Y234636D01*
X442136Y235696D01*
X440750Y236270D01*
D02*
G37*
G36*
X430750D02*
X429250D01*
X427864Y235696D01*
X426804Y234636D01*
X426230Y233250D01*
Y231750D01*
X426804Y230364D01*
X427864Y229304D01*
X429250Y228730D01*
X430750D01*
X432136Y229304D01*
X433196Y230364D01*
X433770Y231750D01*
Y233250D01*
X433196Y234636D01*
X432136Y235696D01*
X430750Y236270D01*
D02*
G37*
G36*
X415750D02*
X414250D01*
X412864Y235696D01*
X411804Y234636D01*
X411230Y233250D01*
Y231750D01*
X411804Y230364D01*
X412864Y229304D01*
X414250Y228730D01*
X415750D01*
X417136Y229304D01*
X418196Y230364D01*
X418770Y231750D01*
Y233250D01*
X418196Y234636D01*
X417136Y235696D01*
X415750Y236270D01*
D02*
G37*
G36*
X1605750Y231270D02*
X1604250D01*
X1602865Y230696D01*
X1601804Y229636D01*
X1601230Y228250D01*
Y226750D01*
X1601804Y225364D01*
X1602865Y224304D01*
X1604250Y223730D01*
X1605750D01*
X1607135Y224304D01*
X1608196Y225364D01*
X1608770Y226750D01*
Y228250D01*
X1608196Y229636D01*
X1607135Y230696D01*
X1605750Y231270D01*
D02*
G37*
G36*
X1405750D02*
X1404250D01*
X1402865Y230696D01*
X1401804Y229636D01*
X1401230Y228250D01*
Y226750D01*
X1401804Y225364D01*
X1402865Y224304D01*
X1404250Y223730D01*
X1405750D01*
X1407135Y224304D01*
X1408196Y225364D01*
X1408770Y226750D01*
Y228250D01*
X1408196Y229636D01*
X1407135Y230696D01*
X1405750Y231270D01*
D02*
G37*
G36*
X1205750D02*
X1204250D01*
X1202865Y230696D01*
X1201804Y229636D01*
X1201230Y228250D01*
Y226750D01*
X1201804Y225364D01*
X1202865Y224304D01*
X1204250Y223730D01*
X1205750D01*
X1207136Y224304D01*
X1208196Y225364D01*
X1208770Y226750D01*
Y228250D01*
X1208196Y229636D01*
X1207136Y230696D01*
X1205750Y231270D01*
D02*
G37*
G36*
X1005750D02*
X1004250D01*
X1002865Y230696D01*
X1001804Y229636D01*
X1001230Y228250D01*
Y226750D01*
X1001804Y225364D01*
X1002865Y224304D01*
X1004250Y223730D01*
X1005750D01*
X1007136Y224304D01*
X1008196Y225364D01*
X1008770Y226750D01*
Y228250D01*
X1008196Y229636D01*
X1007136Y230696D01*
X1005750Y231270D01*
D02*
G37*
G36*
X805750D02*
X804250D01*
X802865Y230696D01*
X801804Y229636D01*
X801230Y228250D01*
Y226750D01*
X801804Y225364D01*
X802865Y224304D01*
X804250Y223730D01*
X805750D01*
X807135Y224304D01*
X808196Y225364D01*
X808770Y226750D01*
Y228250D01*
X808196Y229636D01*
X807135Y230696D01*
X805750Y231270D01*
D02*
G37*
G36*
X605750D02*
X604250D01*
X602864Y230696D01*
X601804Y229636D01*
X601230Y228250D01*
Y226750D01*
X601804Y225364D01*
X602864Y224304D01*
X604250Y223730D01*
X605750D01*
X607136Y224304D01*
X608196Y225364D01*
X608770Y226750D01*
Y228250D01*
X608196Y229636D01*
X607136Y230696D01*
X605750Y231270D01*
D02*
G37*
G36*
X405750D02*
X404250D01*
X402864Y230696D01*
X401804Y229636D01*
X401230Y228250D01*
Y226750D01*
X401804Y225364D01*
X402864Y224304D01*
X404250Y223730D01*
X405750D01*
X407136Y224304D01*
X408196Y225364D01*
X408770Y226750D01*
Y228250D01*
X408196Y229636D01*
X407136Y230696D01*
X405750Y231270D01*
D02*
G37*
G36*
X425750Y201270D02*
X424250D01*
X422864Y200696D01*
X421804Y199636D01*
X421230Y198250D01*
Y196750D01*
X421804Y195364D01*
X422864Y194304D01*
X424250Y193730D01*
X425750D01*
X427136Y194304D01*
X428196Y195364D01*
X428770Y196750D01*
Y198250D01*
X428196Y199636D01*
X427136Y200696D01*
X425750Y201270D01*
D02*
G37*
G36*
X415750D02*
X414250D01*
X412864Y200696D01*
X411804Y199636D01*
X411230Y198250D01*
Y196750D01*
X411804Y195364D01*
X412864Y194304D01*
X414250Y193730D01*
X415750D01*
X417136Y194304D01*
X418196Y195364D01*
X418770Y196750D01*
Y198250D01*
X418196Y199636D01*
X417136Y200696D01*
X415750Y201270D01*
D02*
G37*
G36*
X1645750Y201270D02*
X1644250D01*
X1642865Y200696D01*
X1641804Y199636D01*
X1641230Y198250D01*
Y196750D01*
X1641804Y195364D01*
X1642865Y194304D01*
X1644250Y193730D01*
X1645750D01*
X1647135Y194304D01*
X1648196Y195364D01*
X1648770Y196750D01*
Y198250D01*
X1648196Y199636D01*
X1647135Y200696D01*
X1645750Y201270D01*
D02*
G37*
G36*
X1635750D02*
X1634250D01*
X1632865Y200696D01*
X1631804Y199636D01*
X1631230Y198250D01*
Y196750D01*
X1631804Y195364D01*
X1632865Y194304D01*
X1634250Y193730D01*
X1635750D01*
X1637135Y194304D01*
X1638196Y195364D01*
X1638770Y196750D01*
Y198250D01*
X1638196Y199636D01*
X1637135Y200696D01*
X1635750Y201270D01*
D02*
G37*
G36*
X1625750D02*
X1624250D01*
X1622865Y200696D01*
X1621804Y199636D01*
X1621230Y198250D01*
Y196750D01*
X1621804Y195364D01*
X1622865Y194304D01*
X1624250Y193730D01*
X1625750D01*
X1627135Y194304D01*
X1628196Y195364D01*
X1628770Y196750D01*
Y198250D01*
X1628196Y199636D01*
X1627135Y200696D01*
X1625750Y201270D01*
D02*
G37*
G36*
X1615750D02*
X1614250D01*
X1612865Y200696D01*
X1611804Y199636D01*
X1611230Y198250D01*
Y196750D01*
X1611804Y195364D01*
X1612865Y194304D01*
X1614250Y193730D01*
X1615750D01*
X1617136Y194304D01*
X1618196Y195364D01*
X1618770Y196750D01*
Y198250D01*
X1618196Y199636D01*
X1617136Y200696D01*
X1615750Y201270D01*
D02*
G37*
G36*
X1445750D02*
X1444250D01*
X1442865Y200696D01*
X1441804Y199636D01*
X1441230Y198250D01*
Y196750D01*
X1441804Y195364D01*
X1442865Y194304D01*
X1444250Y193730D01*
X1445750D01*
X1447135Y194304D01*
X1448196Y195364D01*
X1448770Y196750D01*
Y198250D01*
X1448196Y199636D01*
X1447135Y200696D01*
X1445750Y201270D01*
D02*
G37*
G36*
X1435750D02*
X1434250D01*
X1432865Y200696D01*
X1431804Y199636D01*
X1431230Y198250D01*
Y196750D01*
X1431804Y195364D01*
X1432865Y194304D01*
X1434250Y193730D01*
X1435750D01*
X1437135Y194304D01*
X1438196Y195364D01*
X1438770Y196750D01*
Y198250D01*
X1438196Y199636D01*
X1437135Y200696D01*
X1435750Y201270D01*
D02*
G37*
G36*
X1425750D02*
X1424250D01*
X1422865Y200696D01*
X1421804Y199636D01*
X1421230Y198250D01*
Y196750D01*
X1421804Y195364D01*
X1422865Y194304D01*
X1424250Y193730D01*
X1425750D01*
X1427135Y194304D01*
X1428196Y195364D01*
X1428770Y196750D01*
Y198250D01*
X1428196Y199636D01*
X1427135Y200696D01*
X1425750Y201270D01*
D02*
G37*
G36*
X1415750D02*
X1414250D01*
X1412865Y200696D01*
X1411804Y199636D01*
X1411230Y198250D01*
Y196750D01*
X1411804Y195364D01*
X1412865Y194304D01*
X1414250Y193730D01*
X1415750D01*
X1417135Y194304D01*
X1418196Y195364D01*
X1418770Y196750D01*
Y198250D01*
X1418196Y199636D01*
X1417135Y200696D01*
X1415750Y201270D01*
D02*
G37*
G36*
X1245750D02*
X1244250D01*
X1242865Y200696D01*
X1241804Y199636D01*
X1241230Y198250D01*
Y196750D01*
X1241804Y195364D01*
X1242865Y194304D01*
X1244250Y193730D01*
X1245750D01*
X1247136Y194304D01*
X1248196Y195364D01*
X1248770Y196750D01*
Y198250D01*
X1248196Y199636D01*
X1247136Y200696D01*
X1245750Y201270D01*
D02*
G37*
G36*
X1235750D02*
X1234250D01*
X1232865Y200696D01*
X1231804Y199636D01*
X1231230Y198250D01*
Y196750D01*
X1231804Y195364D01*
X1232865Y194304D01*
X1234250Y193730D01*
X1235750D01*
X1237135Y194304D01*
X1238196Y195364D01*
X1238770Y196750D01*
Y198250D01*
X1238196Y199636D01*
X1237135Y200696D01*
X1235750Y201270D01*
D02*
G37*
G36*
X1225750D02*
X1224250D01*
X1222865Y200696D01*
X1221804Y199636D01*
X1221230Y198250D01*
Y196750D01*
X1221804Y195364D01*
X1222865Y194304D01*
X1224250Y193730D01*
X1225750D01*
X1227135Y194304D01*
X1228196Y195364D01*
X1228770Y196750D01*
Y198250D01*
X1228196Y199636D01*
X1227135Y200696D01*
X1225750Y201270D01*
D02*
G37*
G36*
X1215750D02*
X1214250D01*
X1212865Y200696D01*
X1211804Y199636D01*
X1211230Y198250D01*
Y196750D01*
X1211804Y195364D01*
X1212865Y194304D01*
X1214250Y193730D01*
X1215750D01*
X1217136Y194304D01*
X1218196Y195364D01*
X1218770Y196750D01*
Y198250D01*
X1218196Y199636D01*
X1217136Y200696D01*
X1215750Y201270D01*
D02*
G37*
G36*
X1045750D02*
X1044250D01*
X1042865Y200696D01*
X1041804Y199636D01*
X1041230Y198250D01*
Y196750D01*
X1041804Y195364D01*
X1042865Y194304D01*
X1044250Y193730D01*
X1045750D01*
X1047135Y194304D01*
X1048196Y195364D01*
X1048770Y196750D01*
Y198250D01*
X1048196Y199636D01*
X1047135Y200696D01*
X1045750Y201270D01*
D02*
G37*
G36*
X1035750D02*
X1034250D01*
X1032865Y200696D01*
X1031804Y199636D01*
X1031230Y198250D01*
Y196750D01*
X1031804Y195364D01*
X1032865Y194304D01*
X1034250Y193730D01*
X1035750D01*
X1037135Y194304D01*
X1038196Y195364D01*
X1038770Y196750D01*
Y198250D01*
X1038196Y199636D01*
X1037135Y200696D01*
X1035750Y201270D01*
D02*
G37*
G36*
X1025750D02*
X1024250D01*
X1022865Y200696D01*
X1021804Y199636D01*
X1021230Y198250D01*
Y196750D01*
X1021804Y195364D01*
X1022865Y194304D01*
X1024250Y193730D01*
X1025750D01*
X1027135Y194304D01*
X1028196Y195364D01*
X1028770Y196750D01*
Y198250D01*
X1028196Y199636D01*
X1027135Y200696D01*
X1025750Y201270D01*
D02*
G37*
G36*
X1015750D02*
X1014250D01*
X1012865Y200696D01*
X1011804Y199636D01*
X1011230Y198250D01*
Y196750D01*
X1011804Y195364D01*
X1012865Y194304D01*
X1014250Y193730D01*
X1015750D01*
X1017136Y194304D01*
X1018196Y195364D01*
X1018770Y196750D01*
Y198250D01*
X1018196Y199636D01*
X1017136Y200696D01*
X1015750Y201270D01*
D02*
G37*
G36*
X845750D02*
X844250D01*
X842865Y200696D01*
X841804Y199636D01*
X841230Y198250D01*
Y196750D01*
X841804Y195364D01*
X842865Y194304D01*
X844250Y193730D01*
X845750D01*
X847135Y194304D01*
X848196Y195364D01*
X848770Y196750D01*
Y198250D01*
X848196Y199636D01*
X847135Y200696D01*
X845750Y201270D01*
D02*
G37*
G36*
X835750D02*
X834250D01*
X832865Y200696D01*
X831804Y199636D01*
X831230Y198250D01*
Y196750D01*
X831804Y195364D01*
X832865Y194304D01*
X834250Y193730D01*
X835750D01*
X837135Y194304D01*
X838196Y195364D01*
X838770Y196750D01*
Y198250D01*
X838196Y199636D01*
X837135Y200696D01*
X835750Y201270D01*
D02*
G37*
G36*
X825750D02*
X824250D01*
X822865Y200696D01*
X821804Y199636D01*
X821230Y198250D01*
Y196750D01*
X821804Y195364D01*
X822865Y194304D01*
X824250Y193730D01*
X825750D01*
X827135Y194304D01*
X828196Y195364D01*
X828770Y196750D01*
Y198250D01*
X828196Y199636D01*
X827135Y200696D01*
X825750Y201270D01*
D02*
G37*
G36*
X815750D02*
X814250D01*
X812865Y200696D01*
X811804Y199636D01*
X811230Y198250D01*
Y196750D01*
X811804Y195364D01*
X812865Y194304D01*
X814250Y193730D01*
X815750D01*
X817136Y194304D01*
X818196Y195364D01*
X818770Y196750D01*
Y198250D01*
X818196Y199636D01*
X817136Y200696D01*
X815750Y201270D01*
D02*
G37*
G36*
X645750D02*
X644250D01*
X642865Y200696D01*
X641804Y199636D01*
X641230Y198250D01*
Y196750D01*
X641804Y195364D01*
X642865Y194304D01*
X644250Y193730D01*
X645750D01*
X647135Y194304D01*
X648196Y195364D01*
X648770Y196750D01*
Y198250D01*
X648196Y199636D01*
X647135Y200696D01*
X645750Y201270D01*
D02*
G37*
G36*
X635750D02*
X634250D01*
X632864Y200696D01*
X631804Y199636D01*
X631230Y198250D01*
Y196750D01*
X631804Y195364D01*
X632864Y194304D01*
X634250Y193730D01*
X635750D01*
X637136Y194304D01*
X638196Y195364D01*
X638770Y196750D01*
Y198250D01*
X638196Y199636D01*
X637136Y200696D01*
X635750Y201270D01*
D02*
G37*
G36*
X625750D02*
X624250D01*
X622864Y200696D01*
X621804Y199636D01*
X621230Y198250D01*
Y196750D01*
X621804Y195364D01*
X622864Y194304D01*
X624250Y193730D01*
X625750D01*
X627136Y194304D01*
X628196Y195364D01*
X628770Y196750D01*
Y198250D01*
X628196Y199636D01*
X627136Y200696D01*
X625750Y201270D01*
D02*
G37*
G36*
X615750D02*
X614250D01*
X612864Y200696D01*
X611804Y199636D01*
X611230Y198250D01*
Y196750D01*
X611804Y195364D01*
X612864Y194304D01*
X614250Y193730D01*
X615750D01*
X617136Y194304D01*
X618196Y195364D01*
X618770Y196750D01*
Y198250D01*
X618196Y199636D01*
X617136Y200696D01*
X615750Y201270D01*
D02*
G37*
G36*
X445750D02*
X444250D01*
X442864Y200696D01*
X441804Y199636D01*
X441230Y198250D01*
Y196750D01*
X441804Y195364D01*
X442864Y194304D01*
X444250Y193730D01*
X445750D01*
X447136Y194304D01*
X448196Y195364D01*
X448770Y196750D01*
Y198250D01*
X448196Y199636D01*
X447136Y200696D01*
X445750Y201270D01*
D02*
G37*
G36*
X435750D02*
X434250D01*
X432864Y200696D01*
X431804Y199636D01*
X431230Y198250D01*
Y196750D01*
X431804Y195364D01*
X432864Y194304D01*
X434250Y193730D01*
X435750D01*
X437136Y194304D01*
X438196Y195364D01*
X438770Y196750D01*
Y198250D01*
X438196Y199636D01*
X437136Y200696D01*
X435750Y201270D01*
D02*
G37*
G36*
X393250Y193770D02*
X391750D01*
X390364Y193196D01*
X389304Y192136D01*
X388730Y190750D01*
Y189250D01*
X389304Y187864D01*
X390176Y186993D01*
X390284Y186250D01*
X390176Y185507D01*
X389493Y184824D01*
X388750Y184716D01*
X388007Y184824D01*
X387136Y185696D01*
X385750Y186270D01*
X384250D01*
X382864Y185696D01*
X381993Y184824D01*
X381250Y184716D01*
X380507Y184824D01*
X379824Y185507D01*
X379716Y186250D01*
X379824Y186993D01*
X380696Y187864D01*
X381270Y189250D01*
Y190750D01*
X380696Y192136D01*
X379636Y193196D01*
X378250Y193770D01*
X376750D01*
X375364Y193196D01*
X374304Y192136D01*
X373730Y190750D01*
Y189250D01*
X374304Y187864D01*
X375176Y186993D01*
X375284Y186250D01*
X375176Y185507D01*
X374304Y184636D01*
X373730Y183250D01*
Y181750D01*
X374304Y180364D01*
X375176Y179493D01*
X375284Y178750D01*
X375176Y178007D01*
X374304Y177136D01*
X373730Y175750D01*
Y174250D01*
X374304Y172864D01*
X375364Y171804D01*
X376750Y171230D01*
X378250D01*
X379636Y171804D01*
X380696Y172864D01*
X381270Y174250D01*
Y175750D01*
X380696Y177136D01*
X379824Y178007D01*
X379716Y178750D01*
X379824Y179493D01*
X380507Y180176D01*
X381250Y180284D01*
X381993Y180176D01*
X382864Y179304D01*
X384250Y178730D01*
X385750D01*
X387136Y179304D01*
X388007Y180176D01*
X388750Y180284D01*
X389493Y180176D01*
X390176Y179493D01*
X390284Y178750D01*
X390176Y178007D01*
X389304Y177136D01*
X388730Y175750D01*
Y174250D01*
X389304Y172864D01*
X390364Y171804D01*
X391750Y171230D01*
X393250D01*
X394636Y171804D01*
X395696Y172864D01*
X396270Y174250D01*
Y175750D01*
X395696Y177136D01*
X394824Y178007D01*
X394716Y178750D01*
X394824Y179493D01*
X395696Y180364D01*
X396270Y181750D01*
Y183250D01*
X395696Y184636D01*
X394824Y185507D01*
X394716Y186250D01*
X394824Y186993D01*
X395696Y187864D01*
X396270Y189250D01*
Y190750D01*
X395696Y192136D01*
X394636Y193196D01*
X393250Y193770D01*
D02*
G37*
G36*
X1593250D02*
X1591750D01*
X1590365Y193196D01*
X1589304Y192136D01*
X1588730Y190750D01*
Y189250D01*
X1589304Y187864D01*
X1590176Y186993D01*
X1590284Y186250D01*
X1590176Y185507D01*
X1589493Y184824D01*
X1588750Y184716D01*
X1588007Y184824D01*
X1587135Y185696D01*
X1585750Y186270D01*
X1584250D01*
X1582865Y185696D01*
X1581993Y184824D01*
X1581250Y184716D01*
X1580507Y184824D01*
X1579824Y185507D01*
X1579716Y186250D01*
X1579824Y186993D01*
X1580696Y187864D01*
X1581270Y189250D01*
Y190750D01*
X1580696Y192136D01*
X1579636Y193196D01*
X1578250Y193770D01*
X1576750D01*
X1575365Y193196D01*
X1574304Y192136D01*
X1573730Y190750D01*
Y189250D01*
X1574304Y187864D01*
X1575176Y186993D01*
X1575284Y186250D01*
X1575176Y185507D01*
X1574304Y184636D01*
X1573730Y183250D01*
Y181750D01*
X1574304Y180364D01*
X1575176Y179493D01*
X1575284Y178750D01*
X1575176Y178007D01*
X1574304Y177136D01*
X1573730Y175750D01*
Y174250D01*
X1574304Y172864D01*
X1575365Y171804D01*
X1576750Y171230D01*
X1578250D01*
X1579636Y171804D01*
X1580696Y172864D01*
X1581270Y174250D01*
Y175750D01*
X1580696Y177136D01*
X1579824Y178007D01*
X1579716Y178750D01*
X1579824Y179493D01*
X1580507Y180176D01*
X1581250Y180284D01*
X1581993Y180176D01*
X1582865Y179304D01*
X1584250Y178730D01*
X1585750D01*
X1587135Y179304D01*
X1588007Y180176D01*
X1588750Y180284D01*
X1589493Y180176D01*
X1590176Y179493D01*
X1590284Y178750D01*
X1590176Y178007D01*
X1589304Y177136D01*
X1588730Y175750D01*
Y174250D01*
X1589304Y172864D01*
X1590365Y171804D01*
X1591750Y171230D01*
X1593250D01*
X1594635Y171804D01*
X1595696Y172864D01*
X1596270Y174250D01*
Y175750D01*
X1595696Y177136D01*
X1594824Y178007D01*
X1594716Y178750D01*
X1594824Y179493D01*
X1595696Y180364D01*
X1596270Y181750D01*
Y183250D01*
X1595696Y184636D01*
X1594824Y185507D01*
X1594716Y186250D01*
X1594824Y186993D01*
X1595696Y187864D01*
X1596270Y189250D01*
Y190750D01*
X1595696Y192136D01*
X1594635Y193196D01*
X1593250Y193770D01*
D02*
G37*
G36*
X1393250D02*
X1391750D01*
X1390365Y193196D01*
X1389304Y192136D01*
X1388730Y190750D01*
Y189250D01*
X1389304Y187864D01*
X1390176Y186993D01*
X1390284Y186250D01*
X1390176Y185507D01*
X1389493Y184824D01*
X1388750Y184716D01*
X1388007Y184824D01*
X1387135Y185696D01*
X1385750Y186270D01*
X1384250D01*
X1382865Y185696D01*
X1381416Y186043D01*
X1381043Y186416D01*
X1380758Y187606D01*
X1380792Y188096D01*
X1381270Y189250D01*
Y190750D01*
X1380696Y192136D01*
X1379635Y193196D01*
X1378250Y193770D01*
X1376750D01*
X1375365Y193196D01*
X1374304Y192136D01*
X1373730Y190750D01*
Y189250D01*
X1374304Y187864D01*
X1375020Y187148D01*
X1375306Y185958D01*
X1375272Y185468D01*
X1374794Y184314D01*
Y182814D01*
X1375368Y181428D01*
X1376428Y180368D01*
X1377814Y179794D01*
X1379314D01*
X1380699Y180368D01*
X1380880Y180548D01*
X1381804Y180364D01*
X1382865Y179304D01*
X1384250Y178730D01*
X1385750D01*
X1387135Y179304D01*
X1388007Y180176D01*
X1388750Y180284D01*
X1389493Y180176D01*
X1390176Y179493D01*
X1390284Y178750D01*
X1390176Y178007D01*
X1389304Y177136D01*
X1388730Y175750D01*
Y174250D01*
X1389304Y172864D01*
X1390365Y171804D01*
X1391750Y171230D01*
X1393250D01*
X1394635Y171804D01*
X1395696Y172864D01*
X1396270Y174250D01*
Y175750D01*
X1395696Y177136D01*
X1394824Y178007D01*
X1394716Y178750D01*
X1394824Y179493D01*
X1395696Y180364D01*
X1396270Y181750D01*
Y183250D01*
X1395696Y184636D01*
X1394824Y185507D01*
X1394716Y186250D01*
X1394824Y186993D01*
X1395696Y187864D01*
X1396270Y189250D01*
Y190750D01*
X1395696Y192136D01*
X1394635Y193196D01*
X1393250Y193770D01*
D02*
G37*
G36*
X1193250D02*
X1191750D01*
X1190365Y193196D01*
X1189304Y192136D01*
X1188730Y190750D01*
Y189250D01*
X1189304Y187864D01*
X1190176Y186993D01*
X1190284Y186250D01*
X1190176Y185507D01*
X1189493Y184824D01*
X1188750Y184716D01*
X1188008Y184824D01*
X1187135Y185696D01*
X1185750Y186270D01*
X1184250D01*
X1182865Y185696D01*
X1181993Y184824D01*
X1181250Y184716D01*
X1180507Y184824D01*
X1179824Y185507D01*
X1179716Y186250D01*
X1179824Y186993D01*
X1180696Y187864D01*
X1181270Y189250D01*
Y190750D01*
X1180696Y192136D01*
X1179636Y193196D01*
X1178250Y193770D01*
X1176750D01*
X1175365Y193196D01*
X1174304Y192136D01*
X1173730Y190750D01*
Y189250D01*
X1174304Y187864D01*
X1175176Y186993D01*
X1175284Y186250D01*
X1175176Y185507D01*
X1174304Y184636D01*
X1173730Y183250D01*
Y181750D01*
X1174304Y180364D01*
X1175176Y179493D01*
X1175284Y178750D01*
X1175176Y178007D01*
X1174304Y177136D01*
X1173730Y175750D01*
Y174250D01*
X1174304Y172864D01*
X1175365Y171804D01*
X1176750Y171230D01*
X1178250D01*
X1179636Y171804D01*
X1180696Y172864D01*
X1181270Y174250D01*
Y175750D01*
X1180696Y177136D01*
X1179824Y178007D01*
X1179716Y178750D01*
X1179824Y179493D01*
X1180507Y180176D01*
X1181250Y180284D01*
X1181993Y180176D01*
X1182865Y179304D01*
X1184250Y178730D01*
X1185750D01*
X1187135Y179304D01*
X1188008Y180176D01*
X1188750Y180284D01*
X1189493Y180176D01*
X1190176Y179493D01*
X1190284Y178750D01*
X1190176Y178007D01*
X1189304Y177136D01*
X1188730Y175750D01*
Y174250D01*
X1189304Y172864D01*
X1190365Y171804D01*
X1191750Y171230D01*
X1193250D01*
X1194636Y171804D01*
X1195696Y172864D01*
X1196270Y174250D01*
Y175750D01*
X1195696Y177136D01*
X1194824Y178007D01*
X1194716Y178750D01*
X1194824Y179493D01*
X1195696Y180364D01*
X1196270Y181750D01*
Y183250D01*
X1195696Y184636D01*
X1194824Y185507D01*
X1194716Y186250D01*
X1194824Y186993D01*
X1195696Y187864D01*
X1196270Y189250D01*
Y190750D01*
X1195696Y192136D01*
X1194636Y193196D01*
X1193250Y193770D01*
D02*
G37*
G36*
X993250D02*
X991750D01*
X990365Y193196D01*
X989304Y192136D01*
X988730Y190750D01*
Y189250D01*
X989304Y187864D01*
X990176Y186993D01*
X990284Y186250D01*
X990176Y185507D01*
X989493Y184824D01*
X988750Y184716D01*
X988007Y184824D01*
X987135Y185696D01*
X985750Y186270D01*
X984250D01*
X982865Y185696D01*
X981993Y184824D01*
X981250Y184716D01*
X980507Y184824D01*
X979824Y185507D01*
X979716Y186250D01*
X979824Y186993D01*
X980696Y187864D01*
X981270Y189250D01*
Y190750D01*
X980696Y192136D01*
X979636Y193196D01*
X978250Y193770D01*
X976750D01*
X975365Y193196D01*
X974304Y192136D01*
X973730Y190750D01*
Y189250D01*
X974304Y187864D01*
X975176Y186993D01*
X975284Y186250D01*
X975176Y185507D01*
X974304Y184636D01*
X973730Y183250D01*
Y181750D01*
X974304Y180364D01*
X975176Y179493D01*
X975284Y178750D01*
X975176Y178007D01*
X974304Y177136D01*
X973730Y175750D01*
Y174250D01*
X974304Y172864D01*
X975365Y171804D01*
X976750Y171230D01*
X978250D01*
X979636Y171804D01*
X980696Y172864D01*
X981270Y174250D01*
Y175750D01*
X980696Y177136D01*
X979824Y178007D01*
X979716Y178750D01*
X979824Y179493D01*
X980507Y180176D01*
X981250Y180284D01*
X981993Y180176D01*
X982865Y179304D01*
X984250Y178730D01*
X985750D01*
X987135Y179304D01*
X988007Y180176D01*
X988750Y180284D01*
X989493Y180176D01*
X990176Y179493D01*
X990284Y178750D01*
X990176Y178007D01*
X989304Y177136D01*
X988730Y175750D01*
Y174250D01*
X989304Y172864D01*
X990365Y171804D01*
X991750Y171230D01*
X993250D01*
X994636Y171804D01*
X995696Y172864D01*
X996270Y174250D01*
Y175750D01*
X995696Y177136D01*
X994824Y178007D01*
X994716Y178750D01*
X994824Y179493D01*
X995696Y180364D01*
X996270Y181750D01*
Y183250D01*
X995696Y184636D01*
X994824Y185507D01*
X994716Y186250D01*
X994824Y186993D01*
X995696Y187864D01*
X996270Y189250D01*
Y190750D01*
X995696Y192136D01*
X994636Y193196D01*
X993250Y193770D01*
D02*
G37*
G36*
X793250D02*
X791750D01*
X790365Y193196D01*
X789304Y192136D01*
X788730Y190750D01*
Y189250D01*
X789304Y187864D01*
X790176Y186993D01*
X790284Y186250D01*
X790176Y185507D01*
X789493Y184824D01*
X788750Y184716D01*
X788007Y184824D01*
X787135Y185696D01*
X785750Y186270D01*
X784250D01*
X782865Y185696D01*
X781993Y184824D01*
X781250Y184716D01*
X780507Y184824D01*
X779824Y185507D01*
X779716Y186250D01*
X779824Y186993D01*
X780696Y187864D01*
X781270Y189250D01*
Y190750D01*
X780696Y192136D01*
X779636Y193196D01*
X778250Y193770D01*
X776750D01*
X775365Y193196D01*
X774304Y192136D01*
X773730Y190750D01*
Y189250D01*
X774304Y187864D01*
X775176Y186993D01*
X775284Y186250D01*
X775176Y185507D01*
X774304Y184636D01*
X773730Y183250D01*
Y181750D01*
X774304Y180364D01*
X775176Y179493D01*
X775284Y178750D01*
X775176Y178007D01*
X774304Y177136D01*
X773730Y175750D01*
Y174250D01*
X774304Y172864D01*
X775365Y171804D01*
X776750Y171230D01*
X778250D01*
X779636Y171804D01*
X780696Y172864D01*
X781270Y174250D01*
Y175750D01*
X780696Y177136D01*
X779824Y178007D01*
X779716Y178750D01*
X779824Y179493D01*
X780507Y180176D01*
X781250Y180284D01*
X781993Y180176D01*
X782865Y179304D01*
X784250Y178730D01*
X785750D01*
X787135Y179304D01*
X788007Y180176D01*
X788750Y180284D01*
X789493Y180176D01*
X790176Y179493D01*
X790284Y178750D01*
X790176Y178007D01*
X789304Y177136D01*
X788730Y175750D01*
Y174250D01*
X789304Y172864D01*
X790365Y171804D01*
X791750Y171230D01*
X793250D01*
X794635Y171804D01*
X795696Y172864D01*
X796270Y174250D01*
Y175750D01*
X795696Y177136D01*
X794824Y178007D01*
X794716Y178750D01*
X794824Y179493D01*
X795696Y180364D01*
X796270Y181750D01*
Y183250D01*
X795696Y184636D01*
X794824Y185507D01*
X794716Y186250D01*
X794824Y186993D01*
X795696Y187864D01*
X796270Y189250D01*
Y190750D01*
X795696Y192136D01*
X794635Y193196D01*
X793250Y193770D01*
D02*
G37*
G36*
X593250D02*
X591750D01*
X590364Y193196D01*
X589304Y192136D01*
X588730Y190750D01*
Y189250D01*
X589304Y187864D01*
X590176Y186993D01*
X590284Y186250D01*
X590176Y185507D01*
X589493Y184824D01*
X588750Y184716D01*
X588007Y184824D01*
X587136Y185696D01*
X585750Y186270D01*
X584250D01*
X582864Y185696D01*
X581993Y184824D01*
X581250Y184716D01*
X580507Y184824D01*
X579824Y185507D01*
X579716Y186250D01*
X579824Y186993D01*
X580696Y187864D01*
X581270Y189250D01*
Y190750D01*
X580696Y192136D01*
X579636Y193196D01*
X578250Y193770D01*
X576750D01*
X575364Y193196D01*
X574304Y192136D01*
X573730Y190750D01*
Y189250D01*
X574304Y187864D01*
X575176Y186993D01*
X575284Y186250D01*
X575176Y185507D01*
X574304Y184636D01*
X573730Y183250D01*
Y181750D01*
X574304Y180364D01*
X575176Y179493D01*
X575284Y178750D01*
X575176Y178007D01*
X574304Y177136D01*
X573730Y175750D01*
Y174250D01*
X574304Y172864D01*
X575364Y171804D01*
X576750Y171230D01*
X578250D01*
X579636Y171804D01*
X580696Y172864D01*
X581270Y174250D01*
Y175750D01*
X580696Y177136D01*
X579824Y178007D01*
X579716Y178750D01*
X579824Y179493D01*
X580507Y180176D01*
X581250Y180284D01*
X581993Y180176D01*
X582864Y179304D01*
X584250Y178730D01*
X585750D01*
X587136Y179304D01*
X588007Y180176D01*
X588750Y180284D01*
X589493Y180176D01*
X590176Y179493D01*
X590284Y178750D01*
X590176Y178007D01*
X589304Y177136D01*
X588730Y175750D01*
Y174250D01*
X589304Y172864D01*
X590364Y171804D01*
X591750Y171230D01*
X593250D01*
X594636Y171804D01*
X595696Y172864D01*
X596270Y174250D01*
Y175750D01*
X595696Y177136D01*
X594824Y178007D01*
X594716Y178750D01*
X594824Y179493D01*
X595696Y180364D01*
X596270Y181750D01*
Y183250D01*
X595696Y184636D01*
X594824Y185507D01*
X594716Y186250D01*
X594824Y186993D01*
X595696Y187864D01*
X596270Y189250D01*
Y190750D01*
X595696Y192136D01*
X594636Y193196D01*
X593250Y193770D01*
D02*
G37*
G36*
X1525750Y191270D02*
X1524250D01*
X1522865Y190696D01*
X1521804Y189636D01*
X1521230Y188250D01*
Y186750D01*
X1521804Y185364D01*
X1522865Y184304D01*
X1524250Y183730D01*
X1525750D01*
X1527135Y184304D01*
X1528196Y185364D01*
X1528770Y186750D01*
Y188250D01*
X1528196Y189636D01*
X1527135Y190696D01*
X1525750Y191270D01*
D02*
G37*
G36*
X925750D02*
X924250D01*
X922865Y190696D01*
X921804Y189636D01*
X921230Y188250D01*
Y186750D01*
X921804Y185364D01*
X922865Y184304D01*
X924250Y183730D01*
X925750D01*
X927135Y184304D01*
X928196Y185364D01*
X928770Y186750D01*
Y188250D01*
X928196Y189636D01*
X927135Y190696D01*
X925750Y191270D01*
D02*
G37*
G36*
X1535750Y186270D02*
X1534250D01*
X1532865Y185696D01*
X1531804Y184636D01*
X1531230Y183250D01*
Y181750D01*
X1531804Y180364D01*
X1532865Y179304D01*
X1534250Y178730D01*
X1535750D01*
X1537135Y179304D01*
X1538196Y180364D01*
X1538770Y181750D01*
Y183250D01*
X1538196Y184636D01*
X1537135Y185696D01*
X1535750Y186270D01*
D02*
G37*
G36*
X935750D02*
X934250D01*
X932865Y185696D01*
X931804Y184636D01*
X931230Y183250D01*
Y181750D01*
X931804Y180364D01*
X932865Y179304D01*
X934250Y178730D01*
X935750D01*
X937135Y179304D01*
X938196Y180364D01*
X938770Y181750D01*
Y183250D01*
X938196Y184636D01*
X937135Y185696D01*
X935750Y186270D01*
D02*
G37*
G36*
X1375936Y176456D02*
X1374436D01*
X1373051Y175882D01*
X1371990Y174822D01*
X1371416Y173436D01*
Y171936D01*
X1371990Y170551D01*
X1373051Y169490D01*
X1374436Y168916D01*
X1375936D01*
X1377322Y169490D01*
X1378382Y170551D01*
X1378956Y171936D01*
Y173436D01*
X1378382Y174822D01*
X1377322Y175882D01*
X1375936Y176456D01*
D02*
G37*
G36*
X1645750Y176270D02*
X1644250D01*
X1642865Y175696D01*
X1641804Y174636D01*
X1641230Y173250D01*
Y171750D01*
X1641804Y170364D01*
X1642865Y169304D01*
X1644250Y168730D01*
X1645750D01*
X1647135Y169304D01*
X1648196Y170364D01*
X1648770Y171750D01*
Y173250D01*
X1648196Y174636D01*
X1647135Y175696D01*
X1645750Y176270D01*
D02*
G37*
G36*
X1635750D02*
X1634250D01*
X1632865Y175696D01*
X1631804Y174636D01*
X1631230Y173250D01*
Y171750D01*
X1631804Y170364D01*
X1632865Y169304D01*
X1634250Y168730D01*
X1635750D01*
X1637135Y169304D01*
X1638196Y170364D01*
X1638770Y171750D01*
Y173250D01*
X1638196Y174636D01*
X1637135Y175696D01*
X1635750Y176270D01*
D02*
G37*
G36*
X1625750D02*
X1624250D01*
X1622865Y175696D01*
X1621804Y174636D01*
X1621230Y173250D01*
Y171750D01*
X1621804Y170364D01*
X1622865Y169304D01*
X1624250Y168730D01*
X1625750D01*
X1627135Y169304D01*
X1628196Y170364D01*
X1628770Y171750D01*
Y173250D01*
X1628196Y174636D01*
X1627135Y175696D01*
X1625750Y176270D01*
D02*
G37*
G36*
X1615750D02*
X1614250D01*
X1612865Y175696D01*
X1611804Y174636D01*
X1611230Y173250D01*
Y171750D01*
X1611804Y170364D01*
X1612865Y169304D01*
X1614250Y168730D01*
X1615750D01*
X1617136Y169304D01*
X1618196Y170364D01*
X1618770Y171750D01*
Y173250D01*
X1618196Y174636D01*
X1617136Y175696D01*
X1615750Y176270D01*
D02*
G37*
G36*
X1445750D02*
X1444250D01*
X1442865Y175696D01*
X1441804Y174636D01*
X1441230Y173250D01*
Y171750D01*
X1441804Y170364D01*
X1442865Y169304D01*
X1444250Y168730D01*
X1445750D01*
X1447135Y169304D01*
X1448196Y170364D01*
X1448770Y171750D01*
Y173250D01*
X1448196Y174636D01*
X1447135Y175696D01*
X1445750Y176270D01*
D02*
G37*
G36*
X1435750D02*
X1434250D01*
X1432865Y175696D01*
X1431804Y174636D01*
X1431230Y173250D01*
Y171750D01*
X1431804Y170364D01*
X1432865Y169304D01*
X1434250Y168730D01*
X1435750D01*
X1437135Y169304D01*
X1438196Y170364D01*
X1438770Y171750D01*
Y173250D01*
X1438196Y174636D01*
X1437135Y175696D01*
X1435750Y176270D01*
D02*
G37*
G36*
X1425750D02*
X1424250D01*
X1422865Y175696D01*
X1421804Y174636D01*
X1421230Y173250D01*
Y171750D01*
X1421804Y170364D01*
X1422865Y169304D01*
X1424250Y168730D01*
X1425750D01*
X1427135Y169304D01*
X1428196Y170364D01*
X1428770Y171750D01*
Y173250D01*
X1428196Y174636D01*
X1427135Y175696D01*
X1425750Y176270D01*
D02*
G37*
G36*
X1415750D02*
X1414250D01*
X1412865Y175696D01*
X1411804Y174636D01*
X1411230Y173250D01*
Y171750D01*
X1411804Y170364D01*
X1412865Y169304D01*
X1414250Y168730D01*
X1415750D01*
X1417135Y169304D01*
X1418196Y170364D01*
X1418770Y171750D01*
Y173250D01*
X1418196Y174636D01*
X1417135Y175696D01*
X1415750Y176270D01*
D02*
G37*
G36*
X1245750D02*
X1244250D01*
X1242865Y175696D01*
X1241804Y174636D01*
X1241230Y173250D01*
Y171750D01*
X1241804Y170364D01*
X1242865Y169304D01*
X1244250Y168730D01*
X1245750D01*
X1247136Y169304D01*
X1248196Y170364D01*
X1248770Y171750D01*
Y173250D01*
X1248196Y174636D01*
X1247136Y175696D01*
X1245750Y176270D01*
D02*
G37*
G36*
X1235750D02*
X1234250D01*
X1232865Y175696D01*
X1231804Y174636D01*
X1231230Y173250D01*
Y171750D01*
X1231804Y170364D01*
X1232865Y169304D01*
X1234250Y168730D01*
X1235750D01*
X1237135Y169304D01*
X1238196Y170364D01*
X1238770Y171750D01*
Y173250D01*
X1238196Y174636D01*
X1237135Y175696D01*
X1235750Y176270D01*
D02*
G37*
G36*
X1225750D02*
X1224250D01*
X1222865Y175696D01*
X1221804Y174636D01*
X1221230Y173250D01*
Y171750D01*
X1221804Y170364D01*
X1222865Y169304D01*
X1224250Y168730D01*
X1225750D01*
X1227135Y169304D01*
X1228196Y170364D01*
X1228770Y171750D01*
Y173250D01*
X1228196Y174636D01*
X1227135Y175696D01*
X1225750Y176270D01*
D02*
G37*
G36*
X1215750D02*
X1214250D01*
X1212865Y175696D01*
X1211804Y174636D01*
X1211230Y173250D01*
Y171750D01*
X1211804Y170364D01*
X1212865Y169304D01*
X1214250Y168730D01*
X1215750D01*
X1217136Y169304D01*
X1218196Y170364D01*
X1218770Y171750D01*
Y173250D01*
X1218196Y174636D01*
X1217136Y175696D01*
X1215750Y176270D01*
D02*
G37*
G36*
X1045750D02*
X1044250D01*
X1042865Y175696D01*
X1041804Y174636D01*
X1041230Y173250D01*
Y171750D01*
X1041804Y170364D01*
X1042865Y169304D01*
X1044250Y168730D01*
X1045750D01*
X1047135Y169304D01*
X1048196Y170364D01*
X1048770Y171750D01*
Y173250D01*
X1048196Y174636D01*
X1047135Y175696D01*
X1045750Y176270D01*
D02*
G37*
G36*
X1035750D02*
X1034250D01*
X1032865Y175696D01*
X1031804Y174636D01*
X1031230Y173250D01*
Y171750D01*
X1031804Y170364D01*
X1032865Y169304D01*
X1034250Y168730D01*
X1035750D01*
X1037135Y169304D01*
X1038196Y170364D01*
X1038770Y171750D01*
Y173250D01*
X1038196Y174636D01*
X1037135Y175696D01*
X1035750Y176270D01*
D02*
G37*
G36*
X1025750D02*
X1024250D01*
X1022865Y175696D01*
X1021804Y174636D01*
X1021230Y173250D01*
Y171750D01*
X1021804Y170364D01*
X1022865Y169304D01*
X1024250Y168730D01*
X1025750D01*
X1027135Y169304D01*
X1028196Y170364D01*
X1028770Y171750D01*
Y173250D01*
X1028196Y174636D01*
X1027135Y175696D01*
X1025750Y176270D01*
D02*
G37*
G36*
X1015750D02*
X1014250D01*
X1012865Y175696D01*
X1011804Y174636D01*
X1011230Y173250D01*
Y171750D01*
X1011804Y170364D01*
X1012865Y169304D01*
X1014250Y168730D01*
X1015750D01*
X1017136Y169304D01*
X1018196Y170364D01*
X1018770Y171750D01*
Y173250D01*
X1018196Y174636D01*
X1017136Y175696D01*
X1015750Y176270D01*
D02*
G37*
G36*
X845750D02*
X844250D01*
X842865Y175696D01*
X841804Y174636D01*
X841230Y173250D01*
Y171750D01*
X841804Y170364D01*
X842865Y169304D01*
X844250Y168730D01*
X845750D01*
X847135Y169304D01*
X848196Y170364D01*
X848770Y171750D01*
Y173250D01*
X848196Y174636D01*
X847135Y175696D01*
X845750Y176270D01*
D02*
G37*
G36*
X835750D02*
X834250D01*
X832865Y175696D01*
X831804Y174636D01*
X831230Y173250D01*
Y171750D01*
X831804Y170364D01*
X832865Y169304D01*
X834250Y168730D01*
X835750D01*
X837135Y169304D01*
X838196Y170364D01*
X838770Y171750D01*
Y173250D01*
X838196Y174636D01*
X837135Y175696D01*
X835750Y176270D01*
D02*
G37*
G36*
X825750D02*
X824250D01*
X822865Y175696D01*
X821804Y174636D01*
X821230Y173250D01*
Y171750D01*
X821804Y170364D01*
X822865Y169304D01*
X824250Y168730D01*
X825750D01*
X827135Y169304D01*
X828196Y170364D01*
X828770Y171750D01*
Y173250D01*
X828196Y174636D01*
X827135Y175696D01*
X825750Y176270D01*
D02*
G37*
G36*
X815750D02*
X814250D01*
X812865Y175696D01*
X811804Y174636D01*
X811230Y173250D01*
Y171750D01*
X811804Y170364D01*
X812865Y169304D01*
X814250Y168730D01*
X815750D01*
X817136Y169304D01*
X818196Y170364D01*
X818770Y171750D01*
Y173250D01*
X818196Y174636D01*
X817136Y175696D01*
X815750Y176270D01*
D02*
G37*
G36*
X645750D02*
X644250D01*
X642865Y175696D01*
X641804Y174636D01*
X641230Y173250D01*
Y171750D01*
X641804Y170364D01*
X642865Y169304D01*
X644250Y168730D01*
X645750D01*
X647135Y169304D01*
X648196Y170364D01*
X648770Y171750D01*
Y173250D01*
X648196Y174636D01*
X647135Y175696D01*
X645750Y176270D01*
D02*
G37*
G36*
X635750D02*
X634250D01*
X632864Y175696D01*
X631804Y174636D01*
X631230Y173250D01*
Y171750D01*
X631804Y170364D01*
X632864Y169304D01*
X634250Y168730D01*
X635750D01*
X637136Y169304D01*
X638196Y170364D01*
X638770Y171750D01*
Y173250D01*
X638196Y174636D01*
X637136Y175696D01*
X635750Y176270D01*
D02*
G37*
G36*
X625750D02*
X624250D01*
X622864Y175696D01*
X621804Y174636D01*
X621230Y173250D01*
Y171750D01*
X621804Y170364D01*
X622864Y169304D01*
X624250Y168730D01*
X625750D01*
X627136Y169304D01*
X628196Y170364D01*
X628770Y171750D01*
Y173250D01*
X628196Y174636D01*
X627136Y175696D01*
X625750Y176270D01*
D02*
G37*
G36*
X615750D02*
X614250D01*
X612864Y175696D01*
X611804Y174636D01*
X611230Y173250D01*
Y171750D01*
X611804Y170364D01*
X612864Y169304D01*
X614250Y168730D01*
X615750D01*
X617136Y169304D01*
X618196Y170364D01*
X618770Y171750D01*
Y173250D01*
X618196Y174636D01*
X617136Y175696D01*
X615750Y176270D01*
D02*
G37*
G36*
X448064Y173956D02*
X446564D01*
X445178Y173382D01*
X444118Y172322D01*
X443544Y170936D01*
Y169436D01*
X444118Y168051D01*
X445178Y166990D01*
X446564Y166416D01*
X448064D01*
X449449Y166990D01*
X450510Y168051D01*
X451084Y169436D01*
Y170936D01*
X450510Y172322D01*
X449449Y173382D01*
X448064Y173956D01*
D02*
G37*
G36*
X435750Y173770D02*
X434250D01*
X432864Y173196D01*
X431804Y172136D01*
X431230Y170750D01*
Y169250D01*
X431804Y167864D01*
X432864Y166804D01*
X434250Y166230D01*
X435750D01*
X437136Y166804D01*
X438196Y167864D01*
X438770Y169250D01*
Y170750D01*
X438196Y172136D01*
X437136Y173196D01*
X435750Y173770D01*
D02*
G37*
G36*
X425750D02*
X424250D01*
X422864Y173196D01*
X421804Y172136D01*
X421230Y170750D01*
Y169250D01*
X421804Y167864D01*
X422864Y166804D01*
X424250Y166230D01*
X425750D01*
X427136Y166804D01*
X428196Y167864D01*
X428770Y169250D01*
Y170750D01*
X428196Y172136D01*
X427136Y173196D01*
X425750Y173770D01*
D02*
G37*
G36*
X413250D02*
X411750D01*
X410364Y173196D01*
X409304Y172136D01*
X408730Y170750D01*
Y169250D01*
X409304Y167864D01*
X410364Y166804D01*
X411750Y166230D01*
X413250D01*
X414636Y166804D01*
X415696Y167864D01*
X416270Y169250D01*
Y170750D01*
X415696Y172136D01*
X414636Y173196D01*
X413250Y173770D01*
D02*
G37*
G36*
X1573250Y143770D02*
X1571750D01*
X1570365Y143196D01*
X1569304Y142135D01*
X1568730Y140750D01*
Y139250D01*
X1569304Y137865D01*
X1570365Y136804D01*
X1571750Y136230D01*
X1573250D01*
X1574635Y136804D01*
X1575696Y137865D01*
X1576270Y139250D01*
Y140750D01*
X1575696Y142135D01*
X1574635Y143196D01*
X1573250Y143770D01*
D02*
G37*
G36*
X1373250D02*
X1371750D01*
X1370365Y143196D01*
X1369304Y142135D01*
X1368730Y140750D01*
Y139250D01*
X1369304Y137865D01*
X1370365Y136804D01*
X1371750Y136230D01*
X1373250D01*
X1374635Y136804D01*
X1375696Y137865D01*
X1376270Y139250D01*
Y140750D01*
X1375696Y142135D01*
X1374635Y143196D01*
X1373250Y143770D01*
D02*
G37*
G36*
X1173250D02*
X1171750D01*
X1170365Y143196D01*
X1169304Y142135D01*
X1168730Y140750D01*
Y139250D01*
X1169304Y137865D01*
X1170365Y136804D01*
X1171750Y136230D01*
X1173250D01*
X1174635Y136804D01*
X1175696Y137865D01*
X1176270Y139250D01*
Y140750D01*
X1175696Y142135D01*
X1174635Y143196D01*
X1173250Y143770D01*
D02*
G37*
G36*
X973250D02*
X971750D01*
X970365Y143196D01*
X969304Y142135D01*
X968730Y140750D01*
Y139250D01*
X969304Y137865D01*
X970365Y136804D01*
X971750Y136230D01*
X973250D01*
X974635Y136804D01*
X975696Y137865D01*
X976270Y139250D01*
Y140750D01*
X975696Y142135D01*
X974635Y143196D01*
X973250Y143770D01*
D02*
G37*
G36*
X773250D02*
X771750D01*
X770365Y143196D01*
X769304Y142135D01*
X768730Y140750D01*
Y139250D01*
X769304Y137865D01*
X770365Y136804D01*
X771750Y136230D01*
X773250D01*
X774635Y136804D01*
X775696Y137865D01*
X776270Y139250D01*
Y140750D01*
X775696Y142135D01*
X774635Y143196D01*
X773250Y143770D01*
D02*
G37*
G36*
X573250D02*
X571750D01*
X570364Y143196D01*
X569304Y142135D01*
X568730Y140750D01*
Y139250D01*
X569304Y137865D01*
X570364Y136804D01*
X571750Y136230D01*
X573250D01*
X574636Y136804D01*
X575696Y137865D01*
X576270Y139250D01*
Y140750D01*
X575696Y142135D01*
X574636Y143196D01*
X573250Y143770D01*
D02*
G37*
G36*
X373250D02*
X371750D01*
X370364Y143196D01*
X369304Y142135D01*
X368730Y140750D01*
Y139250D01*
X369304Y137865D01*
X370364Y136804D01*
X371750Y136230D01*
X373250D01*
X374636Y136804D01*
X375696Y137865D01*
X376270Y139250D01*
Y140750D01*
X375696Y142135D01*
X374636Y143196D01*
X373250Y143770D01*
D02*
G37*
G36*
X1643250Y131270D02*
X1641750D01*
X1640365Y130696D01*
X1639304Y129635D01*
X1638730Y128250D01*
Y126750D01*
X1639304Y125365D01*
X1640365Y124304D01*
X1641750Y123730D01*
X1643250D01*
X1644635Y124304D01*
X1645696Y125365D01*
X1646270Y126750D01*
Y128250D01*
X1645696Y129635D01*
X1644635Y130696D01*
X1643250Y131270D01*
D02*
G37*
G36*
X1243250D02*
X1241750D01*
X1240365Y130696D01*
X1239304Y129635D01*
X1238730Y128250D01*
Y126750D01*
X1239304Y125365D01*
X1240365Y124304D01*
X1241750Y123730D01*
X1243250D01*
X1244636Y124304D01*
X1245696Y125365D01*
X1246270Y126750D01*
Y128250D01*
X1245696Y129635D01*
X1244636Y130696D01*
X1243250Y131270D01*
D02*
G37*
G36*
X1043250D02*
X1041750D01*
X1040365Y130696D01*
X1039304Y129635D01*
X1038730Y128250D01*
Y126750D01*
X1039304Y125365D01*
X1040365Y124304D01*
X1041750Y123730D01*
X1043250D01*
X1044636Y124304D01*
X1045696Y125365D01*
X1046270Y126750D01*
Y128250D01*
X1045696Y129635D01*
X1044636Y130696D01*
X1043250Y131270D01*
D02*
G37*
G36*
X843250D02*
X841750D01*
X840365Y130696D01*
X839304Y129635D01*
X838730Y128250D01*
Y126750D01*
X839304Y125365D01*
X840365Y124304D01*
X841750Y123730D01*
X843250D01*
X844635Y124304D01*
X845696Y125365D01*
X846270Y126750D01*
Y128250D01*
X845696Y129635D01*
X844635Y130696D01*
X843250Y131270D01*
D02*
G37*
G36*
X643250D02*
X641750D01*
X640365Y130696D01*
X639304Y129635D01*
X638730Y128250D01*
Y126750D01*
X639304Y125365D01*
X640365Y124304D01*
X641750Y123730D01*
X643250D01*
X644635Y124304D01*
X645696Y125365D01*
X646270Y126750D01*
Y128250D01*
X645696Y129635D01*
X644635Y130696D01*
X643250Y131270D01*
D02*
G37*
G36*
X443250D02*
X441750D01*
X440364Y130696D01*
X439304Y129635D01*
X438730Y128250D01*
Y126750D01*
X439304Y125365D01*
X440364Y124304D01*
X441750Y123730D01*
X443250D01*
X444636Y124304D01*
X445696Y125365D01*
X446270Y126750D01*
Y128250D01*
X445696Y129635D01*
X444636Y130696D01*
X443250Y131270D01*
D02*
G37*
G36*
X1606270Y121270D02*
X1563730D01*
Y103730D01*
X1606270D01*
Y121270D01*
D02*
G37*
G36*
X1206270D02*
X1163730D01*
Y103730D01*
X1206270D01*
Y121270D01*
D02*
G37*
G36*
X1006270D02*
X963730D01*
Y103730D01*
X1006270D01*
Y121270D01*
D02*
G37*
G36*
X806270D02*
X763730D01*
Y103730D01*
X806270D01*
Y121270D01*
D02*
G37*
G36*
X606270D02*
X563730D01*
Y103730D01*
X606270D01*
Y121270D01*
D02*
G37*
G36*
X406270D02*
X363730D01*
Y103730D01*
X406270D01*
Y121270D01*
D02*
G37*
G36*
X1511370Y79866D02*
X1509430D01*
X1507557Y79364D01*
X1505877Y78394D01*
X1504506Y77023D01*
X1503536Y75343D01*
X1503034Y73470D01*
Y71530D01*
X1503536Y69657D01*
X1504506Y67977D01*
X1505877Y66606D01*
X1507557Y65636D01*
X1509430Y65134D01*
X1511370D01*
X1513243Y65636D01*
X1514923Y66606D01*
X1516294Y67977D01*
X1517264Y69657D01*
X1517766Y71530D01*
Y73470D01*
X1517264Y75343D01*
X1516294Y77023D01*
X1514923Y78394D01*
X1513243Y79364D01*
X1511370Y79866D01*
D02*
G37*
G36*
X1485970D02*
X1484030D01*
X1482157Y79364D01*
X1480477Y78394D01*
X1479106Y77023D01*
X1478136Y75343D01*
X1477634Y73470D01*
Y71530D01*
X1478136Y69657D01*
X1479106Y67977D01*
X1480477Y66606D01*
X1482157Y65636D01*
X1484030Y65134D01*
X1485970D01*
X1487843Y65636D01*
X1489523Y66606D01*
X1490894Y67977D01*
X1491864Y69657D01*
X1492366Y71530D01*
Y73470D01*
X1491864Y75343D01*
X1490894Y77023D01*
X1489523Y78394D01*
X1487843Y79364D01*
X1485970Y79866D01*
D02*
G37*
G36*
X1311370D02*
X1309430D01*
X1307557Y79364D01*
X1305877Y78394D01*
X1304506Y77023D01*
X1303536Y75343D01*
X1303034Y73470D01*
Y71530D01*
X1303536Y69657D01*
X1304506Y67977D01*
X1305877Y66606D01*
X1307557Y65636D01*
X1309430Y65134D01*
X1311370D01*
X1313243Y65636D01*
X1314923Y66606D01*
X1316294Y67977D01*
X1317264Y69657D01*
X1317766Y71530D01*
Y73470D01*
X1317264Y75343D01*
X1316294Y77023D01*
X1314923Y78394D01*
X1313243Y79364D01*
X1311370Y79866D01*
D02*
G37*
G36*
X1285970D02*
X1284030D01*
X1282157Y79364D01*
X1280477Y78394D01*
X1279106Y77023D01*
X1278136Y75343D01*
X1277634Y73470D01*
Y71530D01*
X1278136Y69657D01*
X1279106Y67977D01*
X1280477Y66606D01*
X1282157Y65636D01*
X1284030Y65134D01*
X1285970D01*
X1287843Y65636D01*
X1289523Y66606D01*
X1290894Y67977D01*
X1291864Y69657D01*
X1292366Y71530D01*
Y73470D01*
X1291864Y75343D01*
X1290894Y77023D01*
X1289523Y78394D01*
X1287843Y79364D01*
X1285970Y79866D01*
D02*
G37*
G36*
X1111370D02*
X1109430D01*
X1107557Y79364D01*
X1105877Y78394D01*
X1104506Y77023D01*
X1103536Y75343D01*
X1103034Y73470D01*
Y71530D01*
X1103536Y69657D01*
X1104506Y67977D01*
X1105877Y66606D01*
X1107557Y65636D01*
X1109430Y65134D01*
X1111370D01*
X1113243Y65636D01*
X1114923Y66606D01*
X1116294Y67977D01*
X1117264Y69657D01*
X1117766Y71530D01*
Y73470D01*
X1117264Y75343D01*
X1116294Y77023D01*
X1114923Y78394D01*
X1113243Y79364D01*
X1111370Y79866D01*
D02*
G37*
G36*
X1085970D02*
X1084030D01*
X1082157Y79364D01*
X1080477Y78394D01*
X1079106Y77023D01*
X1078136Y75343D01*
X1077634Y73470D01*
Y71530D01*
X1078136Y69657D01*
X1079106Y67977D01*
X1080477Y66606D01*
X1082157Y65636D01*
X1084030Y65134D01*
X1085970D01*
X1087843Y65636D01*
X1089523Y66606D01*
X1090894Y67977D01*
X1091864Y69657D01*
X1092366Y71530D01*
Y73470D01*
X1091864Y75343D01*
X1090894Y77023D01*
X1089523Y78394D01*
X1087843Y79364D01*
X1085970Y79866D01*
D02*
G37*
G36*
X911370D02*
X909430D01*
X907557Y79364D01*
X905877Y78394D01*
X904506Y77023D01*
X903536Y75343D01*
X903034Y73470D01*
Y71530D01*
X903536Y69657D01*
X904506Y67977D01*
X905877Y66606D01*
X907557Y65636D01*
X909430Y65134D01*
X911370D01*
X913243Y65636D01*
X914923Y66606D01*
X916294Y67977D01*
X917264Y69657D01*
X917766Y71530D01*
Y73470D01*
X917264Y75343D01*
X916294Y77023D01*
X914923Y78394D01*
X913243Y79364D01*
X911370Y79866D01*
D02*
G37*
G36*
X885970D02*
X884030D01*
X882157Y79364D01*
X880477Y78394D01*
X879106Y77023D01*
X878136Y75343D01*
X877634Y73470D01*
Y71530D01*
X878136Y69657D01*
X879106Y67977D01*
X880477Y66606D01*
X882157Y65636D01*
X884030Y65134D01*
X885970D01*
X887843Y65636D01*
X889523Y66606D01*
X890894Y67977D01*
X891864Y69657D01*
X892366Y71530D01*
Y73470D01*
X891864Y75343D01*
X890894Y77023D01*
X889523Y78394D01*
X887843Y79364D01*
X885970Y79866D01*
D02*
G37*
G36*
X711370D02*
X709430D01*
X707557Y79364D01*
X705877Y78394D01*
X704506Y77023D01*
X703536Y75343D01*
X703034Y73470D01*
Y71530D01*
X703536Y69657D01*
X704506Y67977D01*
X705877Y66606D01*
X707557Y65636D01*
X709430Y65134D01*
X711370D01*
X713243Y65636D01*
X714923Y66606D01*
X716294Y67977D01*
X717264Y69657D01*
X717766Y71530D01*
Y73470D01*
X717264Y75343D01*
X716294Y77023D01*
X714923Y78394D01*
X713243Y79364D01*
X711370Y79866D01*
D02*
G37*
G36*
X685970D02*
X684030D01*
X682157Y79364D01*
X680477Y78394D01*
X679106Y77023D01*
X678136Y75343D01*
X677634Y73470D01*
Y71530D01*
X678136Y69657D01*
X679106Y67977D01*
X680477Y66606D01*
X682157Y65636D01*
X684030Y65134D01*
X685970D01*
X687843Y65636D01*
X689523Y66606D01*
X690894Y67977D01*
X691864Y69657D01*
X692366Y71530D01*
Y73470D01*
X691864Y75343D01*
X690894Y77023D01*
X689523Y78394D01*
X687843Y79364D01*
X685970Y79866D01*
D02*
G37*
G36*
X511370D02*
X509430D01*
X507557Y79364D01*
X505877Y78394D01*
X504506Y77023D01*
X503536Y75343D01*
X503034Y73470D01*
Y71530D01*
X503536Y69657D01*
X504506Y67977D01*
X505877Y66606D01*
X507557Y65636D01*
X509430Y65134D01*
X511370D01*
X513243Y65636D01*
X514923Y66606D01*
X516294Y67977D01*
X517264Y69657D01*
X517766Y71530D01*
Y73470D01*
X517264Y75343D01*
X516294Y77023D01*
X514923Y78394D01*
X513243Y79364D01*
X511370Y79866D01*
D02*
G37*
G36*
X485970D02*
X484030D01*
X482157Y79364D01*
X480477Y78394D01*
X479106Y77023D01*
X478136Y75343D01*
X477634Y73470D01*
Y71530D01*
X478136Y69657D01*
X479106Y67977D01*
X480477Y66606D01*
X482157Y65636D01*
X484030Y65134D01*
X485970D01*
X487843Y65636D01*
X489523Y66606D01*
X490894Y67977D01*
X491864Y69657D01*
X492366Y71530D01*
Y73470D01*
X491864Y75343D01*
X490894Y77023D01*
X489523Y78394D01*
X487843Y79364D01*
X485970Y79866D01*
D02*
G37*
G36*
X311370D02*
X309430D01*
X307557Y79364D01*
X305877Y78394D01*
X304506Y77023D01*
X303536Y75343D01*
X303034Y73470D01*
Y71530D01*
X303536Y69657D01*
X304506Y67977D01*
X305877Y66606D01*
X307557Y65636D01*
X309430Y65134D01*
X311370D01*
X313243Y65636D01*
X314923Y66606D01*
X316294Y67977D01*
X317264Y69657D01*
X317766Y71530D01*
Y73470D01*
X317264Y75343D01*
X316294Y77023D01*
X314923Y78394D01*
X313243Y79364D01*
X311370Y79866D01*
D02*
G37*
G36*
X285970D02*
X284030D01*
X282157Y79364D01*
X280477Y78394D01*
X279106Y77023D01*
X278136Y75343D01*
X277634Y73470D01*
Y71530D01*
X278136Y69657D01*
X279106Y67977D01*
X280477Y66606D01*
X282157Y65636D01*
X284030Y65134D01*
X285970D01*
X287843Y65636D01*
X289523Y66606D01*
X290894Y67977D01*
X291864Y69657D01*
X292366Y71530D01*
Y73470D01*
X291864Y75343D01*
X290894Y77023D01*
X289523Y78394D01*
X287843Y79364D01*
X285970Y79866D01*
D02*
G37*
G36*
X1640770Y101270D02*
X1623230D01*
Y63730D01*
X1640770D01*
Y101270D01*
D02*
G37*
G36*
X1440770D02*
X1423230D01*
Y63730D01*
X1440770D01*
Y101270D01*
D02*
G37*
G36*
X1240770D02*
X1223230D01*
Y63730D01*
X1240770D01*
Y101270D01*
D02*
G37*
G36*
X1040770D02*
X1023230D01*
Y63730D01*
X1040770D01*
Y101270D01*
D02*
G37*
G36*
X840770D02*
X823230D01*
Y63730D01*
X840770D01*
Y101270D01*
D02*
G37*
G36*
X640770D02*
X623230D01*
Y63730D01*
X640770D01*
Y101270D01*
D02*
G37*
G36*
X440770D02*
X423230D01*
Y63730D01*
X440770D01*
Y101270D01*
D02*
G37*
G36*
X1603770Y61270D02*
X1566230D01*
Y43730D01*
X1603770D01*
Y61270D01*
D02*
G37*
G36*
X1403770D02*
X1366230D01*
Y43730D01*
X1403770D01*
Y61270D01*
D02*
G37*
G36*
X1203770D02*
X1166230D01*
Y43730D01*
X1203770D01*
Y61270D01*
D02*
G37*
G36*
X1003770D02*
X966230D01*
Y43730D01*
X1003770D01*
Y61270D01*
D02*
G37*
G36*
X803770D02*
X766230D01*
Y43730D01*
X803770D01*
Y61270D01*
D02*
G37*
G36*
X603770D02*
X566230D01*
Y43730D01*
X603770D01*
Y61270D01*
D02*
G37*
G36*
X403770D02*
X366230D01*
Y43730D01*
X403770D01*
Y61270D01*
D02*
G37*
%LPD*%
G36*
X829493Y465176D02*
X829910Y464758D01*
Y377705D01*
X828737Y377219D01*
X827590Y378366D01*
Y464758D01*
X828007Y465176D01*
X828750Y465284D01*
X829493Y465176D01*
D02*
G37*
D10*
X825000Y377293D02*
X828690Y373603D01*
X825000Y377293D02*
Y467500D01*
X832500Y227500D02*
Y467500D01*
X725000Y180372D02*
X828690Y284062D01*
X832500Y227500D02*
X925000Y135000D01*
X828690Y284062D02*
Y373603D01*
X527500Y455000D02*
X785000D01*
X335000Y262500D02*
X527500Y455000D01*
X530040Y235040D02*
X745000Y450000D01*
X795000D02*
X815000Y470000D01*
X530040Y185412D02*
Y235040D01*
X745000Y450000D02*
X795000D01*
X335000Y120000D02*
Y262500D01*
X1115000Y370000D02*
X1150369D01*
X94990Y277490D02*
X142500Y325000D01*
X94990Y255090D02*
Y277490D01*
X142500Y325000D02*
X185000D01*
X65000Y225100D02*
X94990Y255090D01*
X97207Y227307D02*
X104203D01*
X95000Y225100D02*
X97207Y227307D01*
X104203D02*
X201270Y324374D01*
Y325040D01*
X1161008Y364960D02*
X1165588Y369540D01*
X1153719Y373350D02*
X1222038D01*
X1150369Y370000D02*
X1153719Y373350D01*
X1105000Y365000D02*
X1105040Y364960D01*
X1161008D01*
X1220460Y369540D02*
X1329960Y260040D01*
X1165588Y369540D02*
X1220460D01*
X785000Y455000D02*
X790613Y460613D01*
Y462409D01*
X795000Y466796D02*
Y466945D01*
X790613Y462409D02*
X795000Y466796D01*
X1222038Y373350D02*
X1333770Y261618D01*
Y180412D02*
Y261618D01*
X1329960Y120040D02*
Y260040D01*
X1367024Y124028D02*
X1368512Y122540D01*
X1440332D01*
X1333770Y180412D02*
X1367024Y124028D01*
X1100000Y360000D02*
X1135000Y325000D01*
Y190372D02*
Y325000D01*
X1442872Y120000D02*
X1530000D01*
X1440332Y122540D02*
X1442872Y120000D01*
X1329960Y120040D02*
X1330000Y120000D01*
X1125000Y180372D02*
X1135000Y190372D01*
X1125000Y130000D02*
Y180372D01*
X725000Y135000D02*
Y180372D01*
X525000Y180372D02*
X530040Y185412D01*
X525000Y135000D02*
Y180372D01*
D88*
X21800Y156500D02*
D03*
Y203500D02*
D03*
D89*
X65000Y225100D02*
D03*
Y195100D02*
D03*
Y165100D02*
D03*
X95000Y135100D02*
D03*
Y165100D02*
D03*
Y195100D02*
D03*
Y225100D02*
D03*
D90*
X65000Y135100D02*
D03*
D102*
X348253Y573253D02*
X350613D01*
X353945Y578945D02*
X360000Y585000D01*
X482500D01*
X350613Y573253D02*
X353945Y576585D01*
Y578945D01*
D104*
X425700Y572140D02*
D03*
X400300D02*
D03*
X374900D02*
D03*
D105*
X349500D02*
D03*
D106*
X1680000Y247000D02*
D03*
Y323000D02*
D03*
D107*
X285000Y72500D02*
D03*
X310400D02*
D03*
X1222400Y500000D02*
D03*
X1197000D02*
D03*
X510400Y72500D02*
D03*
X485000D02*
D03*
X1510400D02*
D03*
X1485000D02*
D03*
X1310400D02*
D03*
X1285000D02*
D03*
X1110400D02*
D03*
X1085000D02*
D03*
X910400D02*
D03*
X885000D02*
D03*
X710400D02*
D03*
X685000D02*
D03*
X1222400Y420000D02*
D03*
X1197000D02*
D03*
D108*
X385000Y112500D02*
D03*
X1585000D02*
D03*
X1385000D02*
D03*
X1185000D02*
D03*
X985000D02*
D03*
X785000D02*
D03*
X585000D02*
D03*
D109*
X385000Y52500D02*
D03*
X1585000D02*
D03*
X1385000D02*
D03*
X1185000D02*
D03*
X985000D02*
D03*
X785000D02*
D03*
X585000D02*
D03*
X80000Y473000D02*
D03*
D110*
X432000Y82500D02*
D03*
X1632000D02*
D03*
X1432000D02*
D03*
X1232000D02*
D03*
X1032000D02*
D03*
X832000D02*
D03*
X632000D02*
D03*
X50000Y520000D02*
D03*
D111*
X1695700Y397014D02*
D03*
Y483414D02*
D03*
D112*
X1737500Y397014D02*
D03*
Y483414D02*
D03*
D113*
X1700700Y469114D02*
D03*
Y411314D02*
D03*
D114*
X50000Y287000D02*
D03*
Y443000D02*
D03*
D115*
X121500Y394000D02*
D03*
Y336000D02*
D03*
X85000Y390000D02*
D03*
Y340000D02*
D03*
D116*
X30000Y365000D02*
D03*
D117*
X135000Y287000D02*
D03*
Y443000D02*
D03*
D118*
X110000Y520000D02*
D03*
D119*
X1556940Y266310D02*
D03*
X827460Y272500D02*
D03*
X832500Y467500D02*
D03*
X827460Y232500D02*
D03*
Y242500D02*
D03*
Y252500D02*
D03*
Y262500D02*
D03*
X840000D02*
D03*
Y242500D02*
D03*
Y252500D02*
D03*
Y272500D02*
D03*
Y232500D02*
D03*
X850000Y242500D02*
D03*
Y272500D02*
D03*
Y252500D02*
D03*
Y232500D02*
D03*
Y262500D02*
D03*
X855040Y425000D02*
D03*
X825000Y467500D02*
D03*
X915000Y430000D02*
D03*
X880000Y432500D02*
D03*
X425000Y170000D02*
D03*
X392500Y175000D02*
D03*
X329960Y182500D02*
D03*
X570000Y460040D02*
D03*
X355000Y267500D02*
D03*
X375000D02*
D03*
X430000Y272500D02*
D03*
X450000Y262500D02*
D03*
X377500Y182500D02*
D03*
Y190000D02*
D03*
X440000Y252500D02*
D03*
X430000Y242500D02*
D03*
X417500Y252500D02*
D03*
X430000Y262500D02*
D03*
X440000Y272500D02*
D03*
X430000Y252500D02*
D03*
X415000Y232500D02*
D03*
X440000Y262500D02*
D03*
X450000Y272500D02*
D03*
X405000Y227500D02*
D03*
X415000Y197500D02*
D03*
X440000Y232500D02*
D03*
X392500Y182500D02*
D03*
X450000Y242500D02*
D03*
X448936Y233564D02*
D03*
X425000Y197500D02*
D03*
X435000Y197500D02*
D03*
X655000Y420000D02*
D03*
X412500Y170000D02*
D03*
X445000Y197500D02*
D03*
X571064Y268936D02*
D03*
X525000Y237500D02*
D03*
X1060000Y295196D02*
D03*
X625795Y362380D02*
D03*
X525000Y492500D02*
D03*
X550000Y480000D02*
D03*
X1135000Y492460D02*
D03*
X1147968Y513454D02*
D03*
X1667500Y390000D02*
D03*
X1730000Y362500D02*
D03*
X1115000Y370000D02*
D03*
X1450000Y272500D02*
D03*
X1422500Y330000D02*
D03*
X1432500D02*
D03*
X1340000Y340000D02*
D03*
X1645000Y330000D02*
D03*
X1370000Y520000D02*
D03*
X1367500Y527500D02*
D03*
X790000Y520000D02*
D03*
X1162500Y480000D02*
D03*
X1280000Y485040D02*
D03*
X1360000Y474960D02*
D03*
X1310000Y472500D02*
D03*
X1337599Y462401D02*
D03*
X1382540Y447500D02*
D03*
X1247500Y427460D02*
D03*
X1422500D02*
D03*
X1392500D02*
D03*
X1120000Y427500D02*
D03*
X1085000Y430000D02*
D03*
X1072500D02*
D03*
X1400000Y415000D02*
D03*
X1475000Y425000D02*
D03*
X1522500Y402500D02*
D03*
X1435000Y412500D02*
D03*
X1400000Y327500D02*
D03*
X1375000Y365000D02*
D03*
X1400000Y387500D02*
D03*
X325000Y187500D02*
D03*
Y237500D02*
D03*
X440000Y242500D02*
D03*
X450000Y252500D02*
D03*
X335000Y120000D02*
D03*
X442500Y127500D02*
D03*
X285000Y135000D02*
D03*
X372500Y140000D02*
D03*
X447314Y170186D02*
D03*
X435000Y170000D02*
D03*
X377500Y175000D02*
D03*
X385000Y182500D02*
D03*
X392500Y190000D02*
D03*
X430000Y232500D02*
D03*
X185000Y325000D02*
D03*
X1060000Y328850D02*
D03*
X201270Y325040D02*
D03*
X1082500Y450049D02*
D03*
X1092500Y452500D02*
D03*
X1135000Y447500D02*
D03*
X1170000Y410000D02*
D03*
X1172500Y448055D02*
D03*
X1522500Y437500D02*
D03*
X947500Y430991D02*
D03*
X1330000Y440000D02*
D03*
X1020000Y432540D02*
D03*
X1340056Y395040D02*
D03*
X1320202Y369798D02*
D03*
X1373172Y351828D02*
D03*
X1225000Y325040D02*
D03*
X1645000Y454960D02*
D03*
X1602500Y468754D02*
D03*
X1489919Y278293D02*
D03*
X1607500Y397500D02*
D03*
X1617500Y402540D02*
D03*
X1670000Y482500D02*
D03*
X1675000Y405000D02*
D03*
X1642500Y420000D02*
D03*
X315000Y345000D02*
D03*
X985000Y340000D02*
D03*
X1045000Y335000D02*
D03*
X370000Y345000D02*
D03*
X1105000Y365000D02*
D03*
X1225000Y340000D02*
D03*
X1350000Y315000D02*
D03*
X1410000Y410000D02*
D03*
X1325000Y310000D02*
D03*
X1340000Y350000D02*
D03*
X795000Y466945D02*
D03*
X815000Y470000D02*
D03*
X712500Y497500D02*
D03*
X784656Y420344D02*
D03*
X667500Y412500D02*
D03*
X805000Y415040D02*
D03*
X310000Y425000D02*
D03*
Y435000D02*
D03*
X320000D02*
D03*
Y425000D02*
D03*
X1324920Y237500D02*
D03*
Y187500D02*
D03*
X1338810Y182500D02*
D03*
X1250000Y275000D02*
D03*
X1240000D02*
D03*
X1250000Y265000D02*
D03*
X1240000D02*
D03*
X1250000Y255000D02*
D03*
X1230000Y275000D02*
D03*
X1250000Y245000D02*
D03*
X1230000Y265000D02*
D03*
X1240000Y255000D02*
D03*
X925000Y237500D02*
D03*
X1040000Y272500D02*
D03*
X1050000D02*
D03*
X1100000Y360000D02*
D03*
X1230000Y255000D02*
D03*
X1250000Y235000D02*
D03*
X1240000Y245000D02*
D03*
X1217500Y252500D02*
D03*
X1240000Y235000D02*
D03*
X1230000Y245000D02*
D03*
X337500Y332500D02*
D03*
X287500Y400000D02*
D03*
X322500Y415000D02*
D03*
X680000Y535000D02*
D03*
X730000Y520000D02*
D03*
X770000D02*
D03*
X750000D02*
D03*
X740000D02*
D03*
X780000D02*
D03*
X760000D02*
D03*
X1290000D02*
D03*
X1280000D02*
D03*
X1270000D02*
D03*
X1260000D02*
D03*
X1525000Y532500D02*
D03*
X1372500Y535000D02*
D03*
X1340000Y365000D02*
D03*
X1525000Y337500D02*
D03*
X1537500Y345000D02*
D03*
X1432250Y488500D02*
D03*
X1290000Y405000D02*
D03*
X190000Y100000D02*
D03*
X180000D02*
D03*
X170000D02*
D03*
X160000D02*
D03*
X150000D02*
D03*
Y110000D02*
D03*
Y120000D02*
D03*
Y130000D02*
D03*
Y140000D02*
D03*
Y150000D02*
D03*
X240000Y100000D02*
D03*
Y110000D02*
D03*
Y120000D02*
D03*
Y130000D02*
D03*
Y140000D02*
D03*
Y150000D02*
D03*
X230000D02*
D03*
Y140000D02*
D03*
Y130000D02*
D03*
Y120000D02*
D03*
Y110000D02*
D03*
Y100000D02*
D03*
X220000D02*
D03*
Y110000D02*
D03*
Y120000D02*
D03*
Y130000D02*
D03*
Y140000D02*
D03*
Y150000D02*
D03*
X210000Y100000D02*
D03*
Y110000D02*
D03*
Y120000D02*
D03*
Y130000D02*
D03*
Y140000D02*
D03*
Y150000D02*
D03*
X200000Y100000D02*
D03*
Y110000D02*
D03*
Y120000D02*
D03*
Y130000D02*
D03*
Y140000D02*
D03*
Y150000D02*
D03*
X1432250Y508250D02*
D03*
X1471750Y468750D02*
D03*
X1452000D02*
D03*
X1432250D02*
D03*
X1452000Y508250D02*
D03*
X1471750D02*
D03*
Y488500D02*
D03*
X1452000D02*
D03*
X800000Y405000D02*
D03*
X942500Y417500D02*
D03*
X955000Y419368D02*
D03*
X1530000Y120000D02*
D03*
X1378564Y183564D02*
D03*
X1375186Y172686D02*
D03*
X1485000Y135000D02*
D03*
X1330000Y120000D02*
D03*
X1125000Y130000D02*
D03*
X925000Y135000D02*
D03*
X725000D02*
D03*
X525000D02*
D03*
X525000Y187500D02*
D03*
X810000Y370000D02*
D03*
X820000D02*
D03*
X1615000Y172500D02*
D03*
X1630000Y242500D02*
D03*
X1640000Y262500D02*
D03*
X1630000D02*
D03*
X1615000Y197500D02*
D03*
X1645000D02*
D03*
X1640000Y232500D02*
D03*
X1615000D02*
D03*
X1605000Y227500D02*
D03*
X1650000Y272500D02*
D03*
X1640000D02*
D03*
X1630000D02*
D03*
X1625000Y197500D02*
D03*
X1635000D02*
D03*
X1625000Y172500D02*
D03*
X1635000D02*
D03*
X1642500Y127500D02*
D03*
X1525000Y237500D02*
D03*
Y187500D02*
D03*
X1535000Y182500D02*
D03*
X1617500Y252500D02*
D03*
X1575000Y267500D02*
D03*
X1592500Y182500D02*
D03*
Y190000D02*
D03*
Y175000D02*
D03*
X1577500Y190000D02*
D03*
X1585000Y182500D02*
D03*
X1577500D02*
D03*
Y175000D02*
D03*
X1572500Y140000D02*
D03*
X1205000Y227500D02*
D03*
X1245000Y172500D02*
D03*
X1225000Y197500D02*
D03*
X1235000D02*
D03*
Y172500D02*
D03*
X1225000D02*
D03*
X1242500Y127500D02*
D03*
X1125000Y237500D02*
D03*
Y187500D02*
D03*
X1135000Y182500D02*
D03*
X1175000Y267500D02*
D03*
X1155000D02*
D03*
X1085000Y135000D02*
D03*
X1192500Y182500D02*
D03*
Y175000D02*
D03*
Y190000D02*
D03*
X1177500D02*
D03*
X1185000Y182500D02*
D03*
X1177500D02*
D03*
Y175000D02*
D03*
X1172500Y140000D02*
D03*
X1440000Y242500D02*
D03*
X1430000Y252500D02*
D03*
Y262500D02*
D03*
X1445000Y197500D02*
D03*
X1430000Y232500D02*
D03*
X1415000D02*
D03*
X1405000Y227500D02*
D03*
X1450000Y242500D02*
D03*
Y252500D02*
D03*
Y262500D02*
D03*
X1440000Y272500D02*
D03*
X1430000D02*
D03*
X1425000Y197500D02*
D03*
X1435000D02*
D03*
Y172500D02*
D03*
X1425000D02*
D03*
X1442500Y127500D02*
D03*
X1417500Y252500D02*
D03*
X1375000Y267500D02*
D03*
X1355000D02*
D03*
X1285000Y135000D02*
D03*
X1392500Y182500D02*
D03*
Y175000D02*
D03*
Y190000D02*
D03*
X1377500D02*
D03*
X1385000Y182500D02*
D03*
X1372500Y140000D02*
D03*
X1245000Y197500D02*
D03*
X1230000Y235000D02*
D03*
X1215000Y232500D02*
D03*
X1040000Y242500D02*
D03*
X1030000D02*
D03*
X1040000Y262500D02*
D03*
X1030000D02*
D03*
X1015000Y197500D02*
D03*
X1045000D02*
D03*
X1005000Y227500D02*
D03*
X1050000Y262500D02*
D03*
X1030000Y272500D02*
D03*
X1025000Y197500D02*
D03*
X1035000D02*
D03*
Y172500D02*
D03*
X1025000D02*
D03*
X1042500Y127500D02*
D03*
X925000Y187500D02*
D03*
X935000Y182500D02*
D03*
X1017500Y252500D02*
D03*
X975000Y267500D02*
D03*
X955000D02*
D03*
X885000Y135000D02*
D03*
X992500Y182500D02*
D03*
Y175000D02*
D03*
Y190000D02*
D03*
X977500D02*
D03*
X985000Y182500D02*
D03*
X977500D02*
D03*
Y175000D02*
D03*
X972500Y140000D02*
D03*
X815000Y232500D02*
D03*
X835000Y197500D02*
D03*
X825000D02*
D03*
X835000Y172500D02*
D03*
X825000D02*
D03*
X842500Y127500D02*
D03*
X725000Y237500D02*
D03*
Y187500D02*
D03*
X735000Y182500D02*
D03*
X817500Y252500D02*
D03*
X775000Y267500D02*
D03*
X755000D02*
D03*
X685000Y135000D02*
D03*
X792500Y182500D02*
D03*
Y175000D02*
D03*
Y190000D02*
D03*
X777500D02*
D03*
X785000Y182500D02*
D03*
X777500D02*
D03*
Y175000D02*
D03*
X772500Y140000D02*
D03*
X615000Y172500D02*
D03*
X640000Y242500D02*
D03*
Y262500D02*
D03*
X650000D02*
D03*
Y272500D02*
D03*
X635000Y197500D02*
D03*
X625000D02*
D03*
X635000Y172500D02*
D03*
X625000D02*
D03*
X642500Y127500D02*
D03*
X535000Y182500D02*
D03*
X617500Y252500D02*
D03*
X575000Y267500D02*
D03*
X485000Y135000D02*
D03*
X592500Y182500D02*
D03*
Y175000D02*
D03*
Y190000D02*
D03*
X577500D02*
D03*
X585000Y182500D02*
D03*
X577500D02*
D03*
Y175000D02*
D03*
X572500Y140000D02*
D03*
X815000Y172500D02*
D03*
X845000Y197500D02*
D03*
Y172500D02*
D03*
X640000Y252500D02*
D03*
X630000Y262500D02*
D03*
X615000Y197500D02*
D03*
X645000D02*
D03*
X640000Y232500D02*
D03*
X645000Y172500D02*
D03*
X650000Y242500D02*
D03*
X1640000D02*
D03*
Y252500D02*
D03*
X1630000D02*
D03*
Y232500D02*
D03*
X1650000D02*
D03*
X1645000Y172500D02*
D03*
X1650000Y242500D02*
D03*
Y252500D02*
D03*
Y262500D02*
D03*
X1415000Y172500D02*
D03*
X1430000Y242500D02*
D03*
X1440000Y252500D02*
D03*
Y262500D02*
D03*
X1415000Y197500D02*
D03*
X1440000Y232500D02*
D03*
X1450000D02*
D03*
X1445000Y172500D02*
D03*
X1215000D02*
D03*
Y197500D02*
D03*
X1015000Y172500D02*
D03*
X1040000Y252500D02*
D03*
X1030000D02*
D03*
X1040000Y232500D02*
D03*
X1030000D02*
D03*
X1015000D02*
D03*
X1050000D02*
D03*
X1045000Y172500D02*
D03*
X1050000Y242500D02*
D03*
Y252500D02*
D03*
X815000Y197500D02*
D03*
X805000Y227500D02*
D03*
X630000Y242500D02*
D03*
Y252500D02*
D03*
Y232500D02*
D03*
X615000D02*
D03*
X605000Y227500D02*
D03*
X650000Y232500D02*
D03*
Y252500D02*
D03*
X640000Y272500D02*
D03*
X630000D02*
D03*
M02*
