M48
;Layer_Color=9474304
;FILE_FORMAT=4:4
METRIC,LZ
;TYPE=PLATED
T02F00S00C0.6000
T05F00S00C1.0000
;TYPE=NON_PLATED
%
G90
G05
T02
G00X017012Y00397014
M15
G01X016902
M16
G00X017415Y00397014
M15
G01X017335
M16
G00X017415Y00483414
M15
G01X017335
M16
G00X017012Y00483414
M15
G01X016902
M16
G00X00143Y00443
M15
G01X00127
M16
G00X00131Y00394
M15
G01X00112
M16
G00X000945Y0039
M15
G01X000755
M16
G00X000945Y0034
M15
G01X000755
M16
G00X00131Y00336
M15
G01X00112
M16
G00X00143Y00287
M15
G01X00127
M16
G00X0003Y00357
M15
G01Y00373
M16
T05
G00X00395Y000525
M15
G01X00375
M16
G00X00432Y000925
M15
G01Y000725
M16
G00X00595Y000525
M15
G01X00575
M16
G00X00632Y000925
M15
G01Y000725
M16
G00X00795Y000525
M15
G01X00775
M16
G00X00832Y000925
M15
G01Y000725
M16
G00X00995Y000525
M15
G01X00975
M16
G00X01032Y000925
M15
G01Y000725
M16
G00X01195Y000525
M15
G01X01175
M16
G00X01232Y000925
M15
G01Y000725
M16
G00X01395Y000525
M15
G01X01375
M16
G00X01432Y000925
M15
G01Y000725
M16
G00X01595Y000525
M15
G01X01575
M16
G00X01632Y000925
M15
G01Y000725
M16
G00X015975Y001125
M15
G01X015725
M16
G00X013975Y001125
M15
G01X013725
M16
G00X011975Y001125
M15
G01X011725
M16
G00X009975Y001125
M15
G01X009725
M16
G00X007975Y001125
M15
G01X007725
M16
G00X005975Y001125
M15
G01X005725
M16
G00X003975Y001125
M15
G01X003725
M16
G00X0009Y00473
M15
G01X0007
M16
G00X0005Y0051
M15
G01Y0053
M16
G00X0011Y005075
M15
G01Y005325
M16
M17
M30
