M48
;Layer_Color=9474304
;FILE_FORMAT=4:4
METRIC,LZ
;TYPE=PLATED
T01F00S00C0.3000
T03F00S00C0.8000
T04F00S00C0.8128
T06F00S00C1.0160
T07F00S00C1.0200
;TYPE=NON_PLATED
T08F00S00C0.6500
T09F00S00C1.7000
T10F00S00C2.2000
T11F00S00C3.0000
T12F00S00C3.0480
T13F00S00C3.4000
%
T01
X016425Y001275
X01645Y001725
X01635
X01625
Y001975
X01635
X01645
X0165Y002325
X0164
X0163
Y002425
X0164
Y002525
Y002625
X0163
Y002525
Y002725
X0164
X0165
Y002625
Y002525
Y002425
X01645Y0033
X016675Y0039
X01675Y00405
X016425Y0042
X01645Y0045496
X0167Y004825
X0173Y003625
X016175Y0040327
X016075Y003975
X016025Y00468754
X015225Y004375
Y004025
X01525Y003375
X015375Y00345
X0155694Y0026631
X01575Y002675
X016175Y002525
X016175Y002325
X01605Y002275
X01615Y001975
Y001725
X015925Y00175
Y001825
Y0019
X015775
Y001825
X01585
X015775Y00175
X015725Y0014
X0153Y0012
X01485Y00135
X01443016Y00128016
X01445Y001725
X01435
X01425
X01415
X013925Y00175
Y001825
Y0019
X013775
X013775Y001825
Y00175
X01385Y001825
X01415Y001975
X01425
X01435
X01445
X0145Y002325
Y002425
X0144
X0143
Y002525
Y002625
X0144
Y002525
X0145
Y002625
Y002725
X0144
X0143
X014175Y002525
Y002325
X0143
X0144
X01405Y002275
X01375Y002675
X01355
X01321688Y00237499
X01321717Y00187498
X0133881Y001825
X0133Y0012
X01368862Y00137854
X01285Y00135
X012425Y001275
X01245Y001725
X01235
Y001975
X01245
X0125Y00235
Y00245
X0124
Y00235
X0123
Y00245
Y00255
Y00265
Y00275
X0124
X0125
Y00265
X0124
Y00255
X0125
X012525Y0036
X0125Y00375
X012825Y003575
X01320202Y00369798
X0134Y00365
Y0035
X01375
Y00365
X014Y003875
Y0041354
X0140927Y0041
X01435Y004125
X01421984Y00426944
X01391829Y00429254
X0138254Y00444825
X0136Y0047173
X0135Y004625
X013425
X01335
X013275
X0133Y0044
X0131Y0047173
X0128Y004925
X0129Y0040573
X01340056Y0039431
X01328016Y0032523
X01325Y0031
X014Y003275
X014225Y0033
X014325
X01489919Y00278293
X01525Y002375
Y001875
X01535Y001825
X01475Y0042573
X0147175Y0046875
X01452
X0143225
Y004885
X01452
X0147175
X012475Y0042746
X0117Y0041
X011725Y00448055
X0117Y0048
X01135Y004905
Y004475
X0112425Y0042925
X01085Y0043
X010725
X01082037Y00450049
X01085655Y00456298
X010825Y004
X0108996Y00375
Y00358956
X01112802Y0037781
X0112
X01059954Y00329672
X01045Y00335
X01063506Y00299855
X0105Y002725
X0104
X0103
Y002625
X0104
Y002525
X0103
Y002425
X0104
Y002325
X0103
X010175
X01005Y002275
X010175Y002525
X0105
Y002625
Y002425
Y002325
X01045Y001975
X01035
X01025
X01015
Y001725
X01025
X01035
X01045
X010425Y001275
X01085Y00135
X01125Y0013
Y001875
X0113658Y0018092
X011775Y001825
X01185
X011925
Y00175
X011775
Y0019
X011925
X01215Y001975
X01225
Y001725
X01215
X012175Y002325
X01205Y002275
X012175Y002525
X01175Y002675
X01155
X01125Y002375
X011725Y0014
X009725
X009775Y00175
Y001825
X00985
X009925
Y00175
Y0019
X009775
X00935Y001825
X00922874Y00189518
X00925Y002375
X00955Y002675
X00975
X00985Y0034
X00945Y003675
X009425Y004175
X00955Y0041673
X009475Y00430991
X00915Y0043
X0088Y004325
X0085504Y00425
X008325Y004625
Y004725
Y004825
Y004925
X00915Y0048969
X0102Y0043254
X0085Y002725
X0084
Y002625
Y002525
X0085
Y002625
Y002425
X0084
Y002325
X0085
X00845Y001975
X00835
Y001725
X00845
X008425Y001275
X00885Y00135
X00925
X00825Y001725
X00815
X007925Y00175
Y001825
Y0019
X007775
Y001825
X00785
X007775Y00175
X007725Y0014
X00725Y00135
X00685
X006425Y001275
X00645Y001725
X00635
X00625
X00615
X005925Y00175
Y001825
Y0019
X005775
Y001825
X00585
X005775Y00175
X005725Y0014
X00525Y00135
X00485
X004425Y001275
X00447314Y00170186
X00435Y0017
X00435Y001975
X00445
X00448936Y00233564
X0044Y002325
Y002425
Y002525
Y002625
X0045
Y002525
Y002425
Y002725
X0044
X00525Y0023673
X00524484Y00188016
X00535144Y00182356
X00615Y001975
X00625
X00635
X00645
X0065Y002325
X0064
X0063
Y002425
X0064
Y002525
Y002625
X0063
Y002525
X006175
X0062Y0023
X00605Y002275
X0065Y002425
Y002525
Y002625
Y002725
X0064
X0063
X005825Y0027
X0057Y002725
X00625795Y0036238
X00655Y0042
X006675Y004125
X00784656Y00420344
X00805Y0041504
X008Y00405
X0081254Y00369334
X0082Y0037
X0083Y002725
Y002625
Y002525
Y002425
Y002325
X008175
X00805Y002275
X008175Y002525
X00775Y002675
X00755
X00725Y002375
X0072342Y0018908
X00735Y001825
X00815Y001975
X00825
X007925Y004625
X0057
X0032Y00435
Y00425
X0031
Y00435
X003225Y00415
X002875Y004
X00315Y00345
X003375Y003325
X0037Y00345
X00375Y002675
X00355
X00325Y002375
Y001875
X0032996Y001825
X003775
X00385
X003925
Y00175
X003775Y00175
Y0019
X003925
X00415Y001975
X00425
Y0017
X004125
X00405Y002275
X0042Y0023
X0043Y002325
Y002425
Y002525
Y002625
Y002725
X004175Y002525
X003725Y0014
X00335Y0012
X00285Y00135
X0024Y0013
X0023
Y0014
X0024
Y0015
X0023
X0022
Y0014
Y0013
Y0012
X0023
X0024
Y0011
X0023
Y001
X0024
X0022
Y0011
X0021
Y001
X002
X0019
X0018
X0017
X0016
X0015
Y0011
Y0012
Y0013
Y0014
Y0015
X002
Y0014
X0021
Y0015
Y0013
Y0012
X002
Y0011
Y0013
Y003275
X00185Y00325
X005075Y004975
X00535Y005025
Y005125
X00545
Y005025
X00555
Y005125
Y005225
X00545
X00535
X0067Y005125
X00674163Y00506838
X00705Y004975
X007125Y004975
X0072Y004975
X007275
X0073Y0052
X0074
X0075
X0076
X0077
X0078
X0079
X0088Y00505
X008925Y0049927
X00905Y0049423
X0117Y00515
X0126Y0052
X0127
X0128
X0129
X013725
Y005275
Y00535
X0143225Y0050825
X01452
X0147175
X01525Y005325
T03
X0168Y00247
Y00323
T04
X00285Y000725
X003104
X00485
X005104
X00685
X007104
X00885
X009104
X01085
X011104
X01285
X013104
X01485
X015104
X012224Y0042
X01197
Y005
X012224
T06
X003495Y0057214
X003749
X004003
X004257
T07
X00065Y001
X00095
Y0013
Y0016
Y0019
X00065
Y0016
Y0013
Y0022
X00095
T08
X017007Y00411314
Y00469114
T09
X0005Y0034
Y0039
T10
X0005Y00287
Y00443
T11
X000218Y001215
Y001985
T12
X0054Y002775
X002352
Y005569
X0054
T13
X001675Y0005
X017
X0159Y0035
X0118
X009
X0045Y0033
X001675Y0052
X011Y0055
X017
M30
